<svg viewBox="-16 -32 880 192" width="880" height="192" xmlns="http://www.w3.org/2000/svg"><desc>Generated with https://github.com/Platane/snk</desc><style>:root{--cb:#1b1f230a;--cs:purple;--ce:#ebedf0;--c0:#ebedf0;--c1:#9be9a8;--c2:#40c463;--c3:#30a14e;--c4:#216e39}.c{shape-rendering:geometricPrecision;fill:var(--ce);stroke-width:1px;stroke:var(--cb);animation:none 28300ms linear infinite;width:12px;height:12px}@keyframes c0{9.18%{fill:var(--c1)}9.2%,100%{fill:var(--ce)}}.c.c0{fill:var(--c1);animation-name:c0}@keyframes c1{73.84%{fill:var(--c1)}73.86%,100%{fill:var(--ce)}}.c.c1{fill:var(--c1);animation-name:c1}@keyframes c2{74.19%{fill:var(--c1)}74.21%,100%{fill:var(--ce)}}.c.c2{fill:var(--c1);animation-name:c2}@keyframes c3{12%{fill:var(--c1)}12.02%,100%{fill:var(--ce)}}.c.c3{fill:var(--c1);animation-name:c3}@keyframes c4{72.07%{fill:var(--c1)}72.09%,100%{fill:var(--ce)}}.c.c4{fill:var(--c1);animation-name:c4}@keyframes c5{72.43%{fill:var(--c1)}72.45%,100%{fill:var(--ce)}}.c.c5{fill:var(--c1);animation-name:c5}@keyframes c6{16.24%{fill:var(--c1)}16.26%,100%{fill:var(--ce)}}.c.c6{fill:var(--c1);animation-name:c6}@keyframes c7{15.89%{fill:var(--c1)}15.91%,100%{fill:var(--ce)}}.c.c7{fill:var(--c1);animation-name:c7}@keyframes c8{15.54%{fill:var(--c1)}15.56%,100%{fill:var(--ce)}}.c.c8{fill:var(--c1);animation-name:c8}@keyframes c9{12.36%{fill:var(--c1)}12.38%,100%{fill:var(--ce)}}.c.c9{fill:var(--c1);animation-name:c9}@keyframes ca{17.66%{fill:var(--c1)}17.68%,100%{fill:var(--ce)}}.c.ca{fill:var(--c1);animation-name:ca}@keyframes cb{17.3%{fill:var(--c1)}17.32%,100%{fill:var(--ce)}}.c.cb{fill:var(--c1);animation-name:cb}@keyframes cc{16.95%{fill:var(--c1)}16.97%,100%{fill:var(--ce)}}.c.cc{fill:var(--c1);animation-name:cc}@keyframes cd{16.6%{fill:var(--c1)}16.62%,100%{fill:var(--ce)}}.c.cd{fill:var(--c1);animation-name:cd}@keyframes ce{12.71%{fill:var(--c1)}12.73%,100%{fill:var(--ce)}}.c.ce{fill:var(--c1);animation-name:ce}@keyframes cf{18.01%{fill:var(--c1)}18.03%,100%{fill:var(--ce)}}.c.cf{fill:var(--c1);animation-name:cf}@keyframes cg{14.83%{fill:var(--c1)}14.85%,100%{fill:var(--ce)}}.c.cg{fill:var(--c1);animation-name:cg}@keyframes ch{13.06%{fill:var(--c1)}13.08%,100%{fill:var(--ce)}}.c.ch{fill:var(--c1);animation-name:ch}@keyframes ci{19.78%{fill:var(--c1)}19.8%,100%{fill:var(--ce)}}.c.ci{fill:var(--c1);animation-name:ci}@keyframes cj{20.13%{fill:var(--c1)}20.15%,100%{fill:var(--ce)}}.c.cj{fill:var(--c1);animation-name:cj}@keyframes ck{76.32%{fill:var(--c2)}76.34%,100%{fill:var(--ce)}}.c.ck{fill:var(--c2);animation-name:ck}@keyframes cl{14.48%{fill:var(--c1)}14.5%,100%{fill:var(--ce)}}.c.cl{fill:var(--c1);animation-name:cl}@keyframes cm{13.42%{fill:var(--c1)}13.44%,100%{fill:var(--ce)}}.c.cm{fill:var(--c1);animation-name:cm}@keyframes cn{18.72%{fill:var(--c1)}18.74%,100%{fill:var(--ce)}}.c.cn{fill:var(--c1);animation-name:cn}@keyframes co{19.07%{fill:var(--c1)}19.09%,100%{fill:var(--ce)}}.c.co{fill:var(--c1);animation-name:co}@keyframes cp{19.42%{fill:var(--c1)}19.44%,100%{fill:var(--ce)}}.c.cp{fill:var(--c1);animation-name:cp}@keyframes cq{20.48%{fill:var(--c1)}20.5%,100%{fill:var(--ce)}}.c.cq{fill:var(--c1);animation-name:cq}@keyframes cr{14.12%{fill:var(--c1)}14.14%,100%{fill:var(--ce)}}.c.cr{fill:var(--c1);animation-name:cr}@keyframes cs{13.77%{fill:var(--c1)}13.79%,100%{fill:var(--ce)}}.c.cs{fill:var(--c1);animation-name:cs}@keyframes ct{20.84%{fill:var(--c1)}20.86%,100%{fill:var(--ce)}}.c.ct{fill:var(--c1);animation-name:ct}@keyframes cu{53.7%{fill:var(--c1)}53.72%,100%{fill:var(--ce)}}.c.cu{fill:var(--c1);animation-name:cu}@keyframes cv{21.54%{fill:var(--c1)}21.56%,100%{fill:var(--ce)}}.c.cv{fill:var(--c1);animation-name:cv}@keyframes cw{21.19%{fill:var(--c1)}21.21%,100%{fill:var(--ce)}}.c.cw{fill:var(--c1);animation-name:cw}@keyframes cx{53.35%{fill:var(--c1)}53.37%,100%{fill:var(--ce)}}.c.cx{fill:var(--c1);animation-name:cx}@keyframes cy{68.89%{fill:var(--c1)}68.91%,100%{fill:var(--ce)}}.c.cy{fill:var(--c1);animation-name:cy}@keyframes cz{22.6%{fill:var(--c1)}22.62%,100%{fill:var(--ce)}}.c.cz{fill:var(--c1);animation-name:cz}@keyframes c10{78.08%{fill:var(--c2)}78.1%,100%{fill:var(--ce)}}.c.c10{fill:var(--c2);animation-name:c10}@keyframes c11{52.29%{fill:var(--c1)}52.31%,100%{fill:var(--ce)}}.c.c11{fill:var(--c1);animation-name:c11}@keyframes c12{22.96%{fill:var(--c1)}22.98%,100%{fill:var(--ce)}}.c.c12{fill:var(--c1);animation-name:c12}@keyframes c13{41.33%{fill:var(--c1)}41.35%,100%{fill:var(--ce)}}.c.c13{fill:var(--c1);animation-name:c13}@keyframes c14{56.17%{fill:var(--c1)}56.19%,100%{fill:var(--ce)}}.c.c14{fill:var(--c1);animation-name:c14}@keyframes c15{40.63%{fill:var(--c1)}40.65%,100%{fill:var(--ce)}}.c.c15{fill:var(--c1);animation-name:c15}@keyframes c16{41.69%{fill:var(--c1)}41.71%,100%{fill:var(--ce)}}.c.c16{fill:var(--c1);animation-name:c16}@keyframes c17{51.23%{fill:var(--c1)}51.25%,100%{fill:var(--ce)}}.c.c17{fill:var(--c1);animation-name:c17}@keyframes c18{57.23%{fill:var(--c1)}57.25%,100%{fill:var(--ce)}}.c.c18{fill:var(--c1);animation-name:c18}@keyframes c19{56.88%{fill:var(--c1)}56.9%,100%{fill:var(--ce)}}.c.c19{fill:var(--c1);animation-name:c19}@keyframes c1a{23.66%{fill:var(--c1)}23.68%,100%{fill:var(--ce)}}.c.c1a{fill:var(--c1);animation-name:c1a}@keyframes c1b{40.27%{fill:var(--c1)}40.29%,100%{fill:var(--ce)}}.c.c1b{fill:var(--c1);animation-name:c1b}@keyframes c1c{42.04%{fill:var(--c1)}42.06%,100%{fill:var(--ce)}}.c.c1c{fill:var(--c1);animation-name:c1c}@keyframes c1d{50.87%{fill:var(--c1)}50.89%,100%{fill:var(--ce)}}.c.c1d{fill:var(--c1);animation-name:c1d}@keyframes c1e{57.59%{fill:var(--c1)}57.61%,100%{fill:var(--ce)}}.c.c1e{fill:var(--c1);animation-name:c1e}@keyframes c1f{24.72%{fill:var(--c1)}24.74%,100%{fill:var(--ce)}}.c.c1f{fill:var(--c1);animation-name:c1f}@keyframes c1g{24.02%{fill:var(--c1)}24.04%,100%{fill:var(--ce)}}.c.c1g{fill:var(--c1);animation-name:c1g}@keyframes c1h{39.92%{fill:var(--c1)}39.94%,100%{fill:var(--ce)}}.c.c1h{fill:var(--c1);animation-name:c1h}@keyframes c1i{42.39%{fill:var(--c1)}42.41%,100%{fill:var(--ce)}}.c.c1i{fill:var(--c1);animation-name:c1i}@keyframes c1j{50.52%{fill:var(--c1)}50.54%,100%{fill:var(--ce)}}.c.c1j{fill:var(--c1);animation-name:c1j}@keyframes c1k{25.08%{fill:var(--c1)}25.1%,100%{fill:var(--ce)}}.c.c1k{fill:var(--c1);animation-name:c1k}@keyframes c1l{42.75%{fill:var(--c1)}42.77%,100%{fill:var(--ce)}}.c.c1l{fill:var(--c1);animation-name:c1l}@keyframes c1m{25.43%{fill:var(--c1)}25.45%,100%{fill:var(--ce)}}.c.c1m{fill:var(--c1);animation-name:c1m}@keyframes c1n{43.1%{fill:var(--c1)}43.12%,100%{fill:var(--ce)}}.c.c1n{fill:var(--c1);animation-name:c1n}@keyframes c1o{49.81%{fill:var(--c1)}49.83%,100%{fill:var(--ce)}}.c.c1o{fill:var(--c1);animation-name:c1o}@keyframes c1p{58.65%{fill:var(--c1)}58.67%,100%{fill:var(--ce)}}.c.c1p{fill:var(--c1);animation-name:c1p}@keyframes c1q{82.32%{fill:var(--c2)}82.34%,100%{fill:var(--ce)}}.c.c1q{fill:var(--c2);animation-name:c1q}@keyframes c1r{81.26%{fill:var(--c2)}81.28%,100%{fill:var(--ce)}}.c.c1r{fill:var(--c2);animation-name:c1r}@keyframes c1s{38.86%{fill:var(--c1)}38.88%,100%{fill:var(--ce)}}.c.c1s{fill:var(--c1);animation-name:c1s}@keyframes c1t{43.45%{fill:var(--c1)}43.47%,100%{fill:var(--ce)}}.c.c1t{fill:var(--c1);animation-name:c1t}@keyframes c1u{49.46%{fill:var(--c1)}49.48%,100%{fill:var(--ce)}}.c.c1u{fill:var(--c1);animation-name:c1u}@keyframes c1v{59%{fill:var(--c1)}59.02%,100%{fill:var(--ce)}}.c.c1v{fill:var(--c1);animation-name:c1v}@keyframes c1w{81.97%{fill:var(--c2)}81.99%,100%{fill:var(--ce)}}.c.c1w{fill:var(--c2);animation-name:c1w}@keyframes c1x{81.62%{fill:var(--c2)}81.64%,100%{fill:var(--ce)}}.c.c1x{fill:var(--c2);animation-name:c1x}@keyframes c1y{26.85%{fill:var(--c1)}26.87%,100%{fill:var(--ce)}}.c.c1y{fill:var(--c1);animation-name:c1y}@keyframes c1z{38.51%{fill:var(--c1)}38.53%,100%{fill:var(--ce)}}.c.c1z{fill:var(--c1);animation-name:c1z}@keyframes c20{49.11%{fill:var(--c1)}49.13%,100%{fill:var(--ce)}}.c.c20{fill:var(--c1);animation-name:c20}@keyframes c21{83.38%{fill:var(--c4)}83.4%,100%{fill:var(--ce)}}.c.c21{fill:var(--c4);animation-name:c21}@keyframes c22{33.56%{fill:var(--c1)}33.58%,100%{fill:var(--ce)}}.c.c22{fill:var(--c1);animation-name:c22}@keyframes c23{33.91%{fill:var(--c1)}33.93%,100%{fill:var(--ce)}}.c.c23{fill:var(--c1);animation-name:c23}@keyframes c24{27.2%{fill:var(--c1)}27.22%,100%{fill:var(--ce)}}.c.c24{fill:var(--c1);animation-name:c24}@keyframes c25{38.15%{fill:var(--c1)}38.17%,100%{fill:var(--ce)}}.c.c25{fill:var(--c1);animation-name:c25}@keyframes c26{48.75%{fill:var(--c1)}48.77%,100%{fill:var(--ce)}}.c.c26{fill:var(--c1);animation-name:c26}@keyframes c27{32.85%{fill:var(--c1)}32.87%,100%{fill:var(--ce)}}.c.c27{fill:var(--c1);animation-name:c27}@keyframes c28{33.21%{fill:var(--c1)}33.23%,100%{fill:var(--ce)}}.c.c28{fill:var(--c1);animation-name:c28}@keyframes c29{34.27%{fill:var(--c1)}34.29%,100%{fill:var(--ce)}}.c.c29{fill:var(--c1);animation-name:c29}@keyframes c2a{27.55%{fill:var(--c1)}27.57%,100%{fill:var(--ce)}}.c.c2a{fill:var(--c1);animation-name:c2a}@keyframes c2b{37.8%{fill:var(--c1)}37.82%,100%{fill:var(--ce)}}.c.c2b{fill:var(--c1);animation-name:c2b}@keyframes c2c{44.51%{fill:var(--c1)}44.53%,100%{fill:var(--ce)}}.c.c2c{fill:var(--c1);animation-name:c2c}@keyframes c2d{48.4%{fill:var(--c1)}48.42%,100%{fill:var(--ce)}}.c.c2d{fill:var(--c1);animation-name:c2d}@keyframes c2e{32.5%{fill:var(--c1)}32.52%,100%{fill:var(--ce)}}.c.c2e{fill:var(--c1);animation-name:c2e}@keyframes c2f{32.15%{fill:var(--c1)}32.17%,100%{fill:var(--ce)}}.c.c2f{fill:var(--c1);animation-name:c2f}@keyframes c2g{34.62%{fill:var(--c1)}34.64%,100%{fill:var(--ce)}}.c.c2g{fill:var(--c1);animation-name:c2g}@keyframes c2h{27.91%{fill:var(--c1)}27.93%,100%{fill:var(--ce)}}.c.c2h{fill:var(--c1);animation-name:c2h}@keyframes c2i{37.45%{fill:var(--c1)}37.47%,100%{fill:var(--ce)}}.c.c2i{fill:var(--c1);animation-name:c2i}@keyframes c2j{44.87%{fill:var(--c1)}44.89%,100%{fill:var(--ce)}}.c.c2j{fill:var(--c1);animation-name:c2j}@keyframes c2k{48.05%{fill:var(--c1)}48.07%,100%{fill:var(--ce)}}.c.c2k{fill:var(--c1);animation-name:c2k}@keyframes c2l{31.79%{fill:var(--c1)}31.81%,100%{fill:var(--ce)}}.c.c2l{fill:var(--c1);animation-name:c2l}@keyframes c2m{34.97%{fill:var(--c1)}34.99%,100%{fill:var(--ce)}}.c.c2m{fill:var(--c1);animation-name:c2m}@keyframes c2n{28.26%{fill:var(--c1)}28.28%,100%{fill:var(--ce)}}.c.c2n{fill:var(--c1);animation-name:c2n}@keyframes c2o{37.09%{fill:var(--c1)}37.11%,100%{fill:var(--ce)}}.c.c2o{fill:var(--c1);animation-name:c2o}@keyframes c2p{47.69%{fill:var(--c1)}47.71%,100%{fill:var(--ce)}}.c.c2p{fill:var(--c1);animation-name:c2p}@keyframes c2q{31.09%{fill:var(--c1)}31.11%,100%{fill:var(--ce)}}.c.c2q{fill:var(--c1);animation-name:c2q}@keyframes c2r{31.44%{fill:var(--c1)}31.46%,100%{fill:var(--ce)}}.c.c2r{fill:var(--c1);animation-name:c2r}@keyframes c2s{35.33%{fill:var(--c1)}35.35%,100%{fill:var(--ce)}}.c.c2s{fill:var(--c1);animation-name:c2s}@keyframes c2t{28.61%{fill:var(--c1)}28.63%,100%{fill:var(--ce)}}.c.c2t{fill:var(--c1);animation-name:c2t}@keyframes c2u{45.57%{fill:var(--c1)}45.59%,100%{fill:var(--ce)}}.c.c2u{fill:var(--c1);animation-name:c2u}@keyframes c2v{30.73%{fill:var(--c1)}30.75%,100%{fill:var(--ce)}}.c.c2v{fill:var(--c1);animation-name:c2v}@keyframes c2w{30.38%{fill:var(--c1)}30.4%,100%{fill:var(--ce)}}.c.c2w{fill:var(--c1);animation-name:c2w}@keyframes c2x{35.68%{fill:var(--c1)}35.7%,100%{fill:var(--ce)}}.c.c2x{fill:var(--c1);animation-name:c2x}@keyframes c2y{28.97%{fill:var(--c1)}28.99%,100%{fill:var(--ce)}}.c.c2y{fill:var(--c1);animation-name:c2y}@keyframes c2z{36.39%{fill:var(--c1)}36.41%,100%{fill:var(--ce)}}.c.c2z{fill:var(--c1);animation-name:c2z}@keyframes c30{45.93%{fill:var(--c1)}45.95%,100%{fill:var(--ce)}}.c.c30{fill:var(--c1);animation-name:c30}@keyframes c31{46.99%{fill:var(--c1)}47.01%,100%{fill:var(--ce)}}.c.c31{fill:var(--c1);animation-name:c31}@keyframes c32{30.03%{fill:var(--c1)}30.05%,100%{fill:var(--ce)}}.c.c32{fill:var(--c1);animation-name:c32}@keyframes c33{29.67%{fill:var(--c1)}29.69%,100%{fill:var(--ce)}}.c.c33{fill:var(--c1);animation-name:c33}@keyframes c34{29.32%{fill:var(--c1)}29.34%,100%{fill:var(--ce)}}.c.c34{fill:var(--c1);animation-name:c34}@keyframes c35{46.28%{fill:var(--c1)}46.3%,100%{fill:var(--ce)}}.c.c35{fill:var(--c1);animation-name:c35}@keyframes c36{46.63%{fill:var(--c1)}46.65%,100%{fill:var(--ce)}}.c.c36{fill:var(--c1);animation-name:c36}@keyframes c37{62.53%{fill:var(--c1)}62.55%,100%{fill:var(--ce)}}.c.c37{fill:var(--c1);animation-name:c37}.u{transform-origin:0 0;transform:scale(0,1);animation:none linear 28300ms infinite}@keyframes u0{9.18%{transform:scale(0.000,1)}9.2%,12%{transform:scale(0.009,1)}12.02%,12.36%{transform:scale(0.018,1)}12.38%,12.71%{transform:scale(0.028,1)}12.73%,13.06%{transform:scale(0.037,1)}13.08%,13.42%{transform:scale(0.046,1)}13.44%,13.77%{transform:scale(0.055,1)}13.79%,14.12%{transform:scale(0.064,1)}14.14%,14.48%{transform:scale(0.073,1)}14.5%,14.83%{transform:scale(0.083,1)}14.85%,15.54%{transform:scale(0.092,1)}15.56%,15.89%{transform:scale(0.101,1)}15.91%,16.24%{transform:scale(0.110,1)}16.26%,16.6%{transform:scale(0.119,1)}16.62%,16.95%{transform:scale(0.128,1)}16.97%,17.3%{transform:scale(0.138,1)}17.32%,17.66%{transform:scale(0.147,1)}17.68%,18.01%{transform:scale(0.156,1)}18.03%,18.72%{transform:scale(0.165,1)}18.74%,19.07%{transform:scale(0.174,1)}19.09%,19.42%{transform:scale(0.183,1)}19.44%,19.78%{transform:scale(0.193,1)}19.8%,20.13%{transform:scale(0.202,1)}20.15%,20.48%{transform:scale(0.211,1)}20.5%,20.84%{transform:scale(0.220,1)}20.86%,21.19%{transform:scale(0.229,1)}21.21%,21.54%{transform:scale(0.239,1)}21.56%,22.6%{transform:scale(0.248,1)}22.62%,22.96%{transform:scale(0.257,1)}22.98%,23.66%{transform:scale(0.266,1)}23.68%,24.02%{transform:scale(0.275,1)}24.04%,24.72%{transform:scale(0.284,1)}24.74%,25.08%{transform:scale(0.294,1)}25.1%,25.43%{transform:scale(0.303,1)}25.45%,26.85%{transform:scale(0.312,1)}26.87%,27.2%{transform:scale(0.321,1)}27.22%,27.55%{transform:scale(0.330,1)}27.57%,27.91%{transform:scale(0.339,1)}27.93%,28.26%{transform:scale(0.349,1)}28.28%,28.61%{transform:scale(0.358,1)}28.63%,28.97%{transform:scale(0.367,1)}28.99%,29.32%{transform:scale(0.376,1)}29.34%,29.67%{transform:scale(0.385,1)}29.69%,30.03%{transform:scale(0.394,1)}30.05%,30.38%{transform:scale(0.404,1)}30.4%,30.73%{transform:scale(0.413,1)}30.75%,31.09%{transform:scale(0.422,1)}31.11%,31.44%{transform:scale(0.431,1)}31.46%,31.79%{transform:scale(0.440,1)}31.81%,32.15%{transform:scale(0.450,1)}32.17%,32.5%{transform:scale(0.459,1)}32.52%,32.85%{transform:scale(0.468,1)}32.87%,33.21%{transform:scale(0.477,1)}33.23%,33.56%{transform:scale(0.486,1)}33.58%,33.91%{transform:scale(0.495,1)}33.93%,34.27%{transform:scale(0.505,1)}34.29%,34.62%{transform:scale(0.514,1)}34.64%,34.97%{transform:scale(0.523,1)}34.99%,35.33%{transform:scale(0.532,1)}35.35%,35.68%{transform:scale(0.541,1)}35.7%,36.39%{transform:scale(0.550,1)}36.41%,37.09%{transform:scale(0.560,1)}37.11%,37.45%{transform:scale(0.569,1)}37.47%,37.8%{transform:scale(0.578,1)}37.82%,38.15%{transform:scale(0.587,1)}38.17%,38.51%{transform:scale(0.596,1)}38.53%,38.86%{transform:scale(0.606,1)}38.88%,39.92%{transform:scale(0.615,1)}39.94%,40.27%{transform:scale(0.624,1)}40.29%,40.63%{transform:scale(0.633,1)}40.65%,41.33%{transform:scale(0.642,1)}41.35%,41.69%{transform:scale(0.651,1)}41.71%,42.04%{transform:scale(0.661,1)}42.06%,42.39%{transform:scale(0.670,1)}42.41%,42.75%{transform:scale(0.679,1)}42.77%,43.1%{transform:scale(0.688,1)}43.12%,43.45%{transform:scale(0.697,1)}43.47%,44.51%{transform:scale(0.706,1)}44.53%,44.87%{transform:scale(0.716,1)}44.89%,45.57%{transform:scale(0.725,1)}45.59%,45.93%{transform:scale(0.734,1)}45.95%,46.28%{transform:scale(0.743,1)}46.3%,46.63%{transform:scale(0.752,1)}46.65%,46.99%{transform:scale(0.761,1)}47.01%,47.69%{transform:scale(0.771,1)}47.71%,48.05%{transform:scale(0.780,1)}48.07%,48.4%{transform:scale(0.789,1)}48.42%,48.75%{transform:scale(0.798,1)}48.77%,49.11%{transform:scale(0.807,1)}49.13%,49.46%{transform:scale(0.817,1)}49.48%,49.81%{transform:scale(0.826,1)}49.83%,50.52%{transform:scale(0.835,1)}50.54%,50.87%{transform:scale(0.844,1)}50.89%,51.23%{transform:scale(0.853,1)}51.25%,52.29%{transform:scale(0.862,1)}52.31%,53.35%{transform:scale(0.872,1)}53.37%,53.7%{transform:scale(0.881,1)}53.72%,56.17%{transform:scale(0.890,1)}56.19%,56.88%{transform:scale(0.899,1)}56.9%,57.23%{transform:scale(0.908,1)}57.25%,57.59%{transform:scale(0.917,1)}57.61%,58.65%{transform:scale(0.927,1)}58.67%,59%{transform:scale(0.936,1)}59.02%,62.53%{transform:scale(0.945,1)}62.55%,68.89%{transform:scale(0.954,1)}68.91%,72.07%{transform:scale(0.963,1)}72.09%,72.43%{transform:scale(0.972,1)}72.45%,73.84%{transform:scale(0.982,1)}73.86%,74.19%{transform:scale(0.991,1)}74.21%,100%{transform:scale(1.000,1)}}.u.u0{fill:var(--c1);animation-name:u0;transform-origin:0.0px 0}@keyframes u1{76.32%{transform:scale(0.000,1)}76.34%,78.08%{transform:scale(0.167,1)}78.1%,81.26%{transform:scale(0.333,1)}81.28%,81.62%{transform:scale(0.500,1)}81.64%,81.97%{transform:scale(0.667,1)}81.99%,82.32%{transform:scale(0.833,1)}82.34%,100%{transform:scale(1.000,1)}}.u.u1{fill:var(--c2);animation-name:u1;transform-origin:796.8px 0}@keyframes u2{83.38%{transform:scale(0.000,1)}83.4%,100%{transform:scale(1.000,1)}}.u.u2{fill:var(--c4);animation-name:u2;transform-origin:840.7px 0}.s{shape-rendering:geometricPrecision;fill:var(--cs);animation:none linear 28300ms infinite}@keyframes s0{0%,99.65%{transform:translate(0px,-16px)}0.35%{transform:translate(0px,0px)}7.07%{transform:translate(304px,0px)}9.19%{transform:translate(304px,96px)}13.78%{transform:translate(512px,96px)}14.13%{transform:translate(512px,80px)}15.55%{transform:translate(448px,80px)}16.25%{transform:translate(448px,48px)}16.61%{transform:translate(464px,48px)}17.67%{transform:translate(464px,0px)}18.73%{transform:translate(512px,0px)}19.43%{transform:translate(512px,32px)}19.79%{transform:translate(496px,32px)}20.14%{transform:translate(496px,48px)}21.2%{transform:translate(544px,48px)}21.55%{transform:translate(544px,32px)}22.26%{transform:translate(576px,32px)}22.61%{transform:translate(576px,48px)}24.03%{transform:translate(640px,48px)}24.73%{transform:translate(640px,16px)}25.44%{transform:translate(672px,16px)}26.15%{transform:translate(672px,48px)}29.33%{transform:translate(816px,48px)}30.04%{transform:translate(816px,16px)}30.39%{transform:translate(800px,16px)}30.74%{transform:translate(800px,0px)}31.1%{transform:translate(784px,0px)}31.45%{transform:translate(784px,16px)}32.16%{transform:translate(752px,16px)}32.51%{transform:translate(752px,0px)}32.86%{transform:translate(736px,0px)}33.22%{transform:translate(736px,16px)}33.57%{transform:translate(720px,16px)}33.92%{transform:translate(720px,32px)}35.69%{transform:translate(800px,32px)}36.4%{transform:translate(800px,64px)}40.99%{transform:translate(592px,64px)}41.34%{transform:translate(592px,80px)}46.29%{transform:translate(816px,80px)}46.64%{transform:translate(816px,96px)}51.24%{transform:translate(608px,96px)}51.59%{transform:translate(608px,80px)}52.65%{transform:translate(560px,80px)}53%{transform:translate(560px,64px)}53.71%{transform:translate(528px,64px)}54.06%{transform:translate(528px,48px)}55.83%{transform:translate(608px,48px)}56.18%{transform:translate(608px,32px)}56.54%{transform:translate(624px,32px)}57.24%{transform:translate(624px,0px)}59.01%{transform:translate(704px,0px)}59.36%{transform:translate(704px,-16px)}62.19%{transform:translate(832px,-16px)}62.54%{transform:translate(832px,0px)}62.9%{transform:translate(816px,0px)}63.25%{transform:translate(816px,-16px)}68.55%{transform:translate(576px,-16px)}68.9%{transform:translate(576px,0px)}71.73%{transform:translate(448px,0px)}72.44%{transform:translate(448px,32px)}73.14%{transform:translate(416px,32px)}74.2%{transform:translate(416px,80px)}75.97%{transform:translate(496px,80px)}76.33%{transform:translate(496px,64px)}80.57%{transform:translate(688px,64px)}81.27%{transform:translate(688px,32px)}81.63%{transform:translate(704px,32px)}81.98%{transform:translate(704px,16px)}82.33%{transform:translate(688px,16px)}82.69%{transform:translate(688px,0px)}83.39%{transform:translate(720px,0px)}83.75%{transform:translate(720px,-16px)}}.s.s0{transform:translate(0px,-16px);animation-name:s0}@keyframes s1{0%,99.65%{transform:translate(16px,-16px)}0.35%{transform:translate(0px,-16px)}0.71%{transform:translate(0px,0px)}7.42%{transform:translate(304px,0px)}9.54%{transform:translate(304px,96px)}14.13%{transform:translate(512px,96px)}14.49%{transform:translate(512px,80px)}15.9%{transform:translate(448px,80px)}16.61%{transform:translate(448px,48px)}16.96%{transform:translate(464px,48px)}18.02%{transform:translate(464px,0px)}19.08%{transform:translate(512px,0px)}19.79%{transform:translate(512px,32px)}20.14%{transform:translate(496px,32px)}20.49%{transform:translate(496px,48px)}21.55%{transform:translate(544px,48px)}21.91%{transform:translate(544px,32px)}22.61%{transform:translate(576px,32px)}22.97%{transform:translate(576px,48px)}24.38%{transform:translate(640px,48px)}25.09%{transform:translate(640px,16px)}25.8%{transform:translate(672px,16px)}26.5%{transform:translate(672px,48px)}29.68%{transform:translate(816px,48px)}30.39%{transform:translate(816px,16px)}30.74%{transform:translate(800px,16px)}31.1%{transform:translate(800px,0px)}31.45%{transform:translate(784px,0px)}31.8%{transform:translate(784px,16px)}32.51%{transform:translate(752px,16px)}32.86%{transform:translate(752px,0px)}33.22%{transform:translate(736px,0px)}33.57%{transform:translate(736px,16px)}33.92%{transform:translate(720px,16px)}34.28%{transform:translate(720px,32px)}36.04%{transform:translate(800px,32px)}36.75%{transform:translate(800px,64px)}41.34%{transform:translate(592px,64px)}41.7%{transform:translate(592px,80px)}46.64%{transform:translate(816px,80px)}47%{transform:translate(816px,96px)}51.59%{transform:translate(608px,96px)}51.94%{transform:translate(608px,80px)}53%{transform:translate(560px,80px)}53.36%{transform:translate(560px,64px)}54.06%{transform:translate(528px,64px)}54.42%{transform:translate(528px,48px)}56.18%{transform:translate(608px,48px)}56.54%{transform:translate(608px,32px)}56.89%{transform:translate(624px,32px)}57.6%{transform:translate(624px,0px)}59.36%{transform:translate(704px,0px)}59.72%{transform:translate(704px,-16px)}62.54%{transform:translate(832px,-16px)}62.9%{transform:translate(832px,0px)}63.25%{transform:translate(816px,0px)}63.6%{transform:translate(816px,-16px)}68.9%{transform:translate(576px,-16px)}69.26%{transform:translate(576px,0px)}72.08%{transform:translate(448px,0px)}72.79%{transform:translate(448px,32px)}73.5%{transform:translate(416px,32px)}74.56%{transform:translate(416px,80px)}76.33%{transform:translate(496px,80px)}76.68%{transform:translate(496px,64px)}80.92%{transform:translate(688px,64px)}81.63%{transform:translate(688px,32px)}81.98%{transform:translate(704px,32px)}82.33%{transform:translate(704px,16px)}82.69%{transform:translate(688px,16px)}83.04%{transform:translate(688px,0px)}83.75%{transform:translate(720px,0px)}84.1%{transform:translate(720px,-16px)}}.s.s1{transform:translate(16px,-16px);animation-name:s1}@keyframes s2{0%,99.65%{transform:translate(32px,-16px)}0.71%{transform:translate(0px,-16px)}1.06%{transform:translate(0px,0px)}7.77%{transform:translate(304px,0px)}9.89%{transform:translate(304px,96px)}14.49%{transform:translate(512px,96px)}14.84%{transform:translate(512px,80px)}16.25%{transform:translate(448px,80px)}16.96%{transform:translate(448px,48px)}17.31%{transform:translate(464px,48px)}18.37%{transform:translate(464px,0px)}19.43%{transform:translate(512px,0px)}20.14%{transform:translate(512px,32px)}20.49%{transform:translate(496px,32px)}20.85%{transform:translate(496px,48px)}21.91%{transform:translate(544px,48px)}22.26%{transform:translate(544px,32px)}22.97%{transform:translate(576px,32px)}23.32%{transform:translate(576px,48px)}24.73%{transform:translate(640px,48px)}25.44%{transform:translate(640px,16px)}26.15%{transform:translate(672px,16px)}26.86%{transform:translate(672px,48px)}30.04%{transform:translate(816px,48px)}30.74%{transform:translate(816px,16px)}31.1%{transform:translate(800px,16px)}31.45%{transform:translate(800px,0px)}31.8%{transform:translate(784px,0px)}32.16%{transform:translate(784px,16px)}32.86%{transform:translate(752px,16px)}33.22%{transform:translate(752px,0px)}33.57%{transform:translate(736px,0px)}33.92%{transform:translate(736px,16px)}34.28%{transform:translate(720px,16px)}34.63%{transform:translate(720px,32px)}36.4%{transform:translate(800px,32px)}37.1%{transform:translate(800px,64px)}41.7%{transform:translate(592px,64px)}42.05%{transform:translate(592px,80px)}47%{transform:translate(816px,80px)}47.35%{transform:translate(816px,96px)}51.94%{transform:translate(608px,96px)}52.3%{transform:translate(608px,80px)}53.36%{transform:translate(560px,80px)}53.71%{transform:translate(560px,64px)}54.42%{transform:translate(528px,64px)}54.77%{transform:translate(528px,48px)}56.54%{transform:translate(608px,48px)}56.89%{transform:translate(608px,32px)}57.24%{transform:translate(624px,32px)}57.95%{transform:translate(624px,0px)}59.72%{transform:translate(704px,0px)}60.07%{transform:translate(704px,-16px)}62.9%{transform:translate(832px,-16px)}63.25%{transform:translate(832px,0px)}63.6%{transform:translate(816px,0px)}63.96%{transform:translate(816px,-16px)}69.26%{transform:translate(576px,-16px)}69.61%{transform:translate(576px,0px)}72.44%{transform:translate(448px,0px)}73.14%{transform:translate(448px,32px)}73.85%{transform:translate(416px,32px)}74.91%{transform:translate(416px,80px)}76.68%{transform:translate(496px,80px)}77.03%{transform:translate(496px,64px)}81.27%{transform:translate(688px,64px)}81.98%{transform:translate(688px,32px)}82.33%{transform:translate(704px,32px)}82.69%{transform:translate(704px,16px)}83.04%{transform:translate(688px,16px)}83.39%{transform:translate(688px,0px)}84.1%{transform:translate(720px,0px)}84.45%{transform:translate(720px,-16px)}}.s.s2{transform:translate(32px,-16px);animation-name:s2}@keyframes s3{0%,99.65%{transform:translate(48px,-16px)}1.06%{transform:translate(0px,-16px)}1.41%{transform:translate(0px,0px)}8.13%{transform:translate(304px,0px)}10.25%{transform:translate(304px,96px)}14.84%{transform:translate(512px,96px)}15.19%{transform:translate(512px,80px)}16.61%{transform:translate(448px,80px)}17.31%{transform:translate(448px,48px)}17.67%{transform:translate(464px,48px)}18.73%{transform:translate(464px,0px)}19.79%{transform:translate(512px,0px)}20.49%{transform:translate(512px,32px)}20.85%{transform:translate(496px,32px)}21.2%{transform:translate(496px,48px)}22.26%{transform:translate(544px,48px)}22.61%{transform:translate(544px,32px)}23.32%{transform:translate(576px,32px)}23.67%{transform:translate(576px,48px)}25.09%{transform:translate(640px,48px)}25.8%{transform:translate(640px,16px)}26.5%{transform:translate(672px,16px)}27.21%{transform:translate(672px,48px)}30.39%{transform:translate(816px,48px)}31.1%{transform:translate(816px,16px)}31.45%{transform:translate(800px,16px)}31.8%{transform:translate(800px,0px)}32.16%{transform:translate(784px,0px)}32.51%{transform:translate(784px,16px)}33.22%{transform:translate(752px,16px)}33.57%{transform:translate(752px,0px)}33.92%{transform:translate(736px,0px)}34.28%{transform:translate(736px,16px)}34.63%{transform:translate(720px,16px)}34.98%{transform:translate(720px,32px)}36.75%{transform:translate(800px,32px)}37.46%{transform:translate(800px,64px)}42.05%{transform:translate(592px,64px)}42.4%{transform:translate(592px,80px)}47.35%{transform:translate(816px,80px)}47.7%{transform:translate(816px,96px)}52.3%{transform:translate(608px,96px)}52.65%{transform:translate(608px,80px)}53.71%{transform:translate(560px,80px)}54.06%{transform:translate(560px,64px)}54.77%{transform:translate(528px,64px)}55.12%{transform:translate(528px,48px)}56.89%{transform:translate(608px,48px)}57.24%{transform:translate(608px,32px)}57.6%{transform:translate(624px,32px)}58.3%{transform:translate(624px,0px)}60.07%{transform:translate(704px,0px)}60.42%{transform:translate(704px,-16px)}63.25%{transform:translate(832px,-16px)}63.6%{transform:translate(832px,0px)}63.96%{transform:translate(816px,0px)}64.31%{transform:translate(816px,-16px)}69.61%{transform:translate(576px,-16px)}69.96%{transform:translate(576px,0px)}72.79%{transform:translate(448px,0px)}73.5%{transform:translate(448px,32px)}74.2%{transform:translate(416px,32px)}75.27%{transform:translate(416px,80px)}77.03%{transform:translate(496px,80px)}77.39%{transform:translate(496px,64px)}81.63%{transform:translate(688px,64px)}82.33%{transform:translate(688px,32px)}82.69%{transform:translate(704px,32px)}83.04%{transform:translate(704px,16px)}83.39%{transform:translate(688px,16px)}83.75%{transform:translate(688px,0px)}84.45%{transform:translate(720px,0px)}84.81%{transform:translate(720px,-16px)}}.s.s3{transform:translate(48px,-16px);animation-name:s3}</style><rect class="c" x="2" y="2" rx="2" ry="2"/><rect class="c" x="2" y="18" rx="2" ry="2"/><rect class="c" x="2" y="34" rx="2" ry="2"/><rect class="c" x="2" y="50" rx="2" ry="2"/><rect class="c" x="2" y="66" rx="2" ry="2"/><rect class="c" x="2" y="82" rx="2" ry="2"/><rect class="c" x="2" y="98" rx="2" ry="2"/><rect class="c" x="18" y="2" rx="2" ry="2"/><rect class="c" x="18" y="18" rx="2" ry="2"/><rect class="c" x="18" y="34" rx="2" ry="2"/><rect class="c" x="18" y="50" rx="2" ry="2"/><rect class="c" x="18" y="66" rx="2" ry="2"/><rect class="c" x="18" y="82" rx="2" ry="2"/><rect class="c" x="18" y="98" rx="2" ry="2"/><rect class="c" x="34" y="2" rx="2" ry="2"/><rect class="c" x="34" y="18" rx="2" ry="2"/><rect class="c" x="34" y="34" rx="2" ry="2"/><rect class="c" x="34" y="50" rx="2" ry="2"/><rect class="c" x="34" y="66" rx="2" ry="2"/><rect class="c" x="34" y="82" rx="2" ry="2"/><rect class="c" x="34" y="98" rx="2" ry="2"/><rect class="c" x="50" y="2" rx="2" ry="2"/><rect class="c" x="50" y="18" rx="2" ry="2"/><rect class="c" x="50" y="34" rx="2" ry="2"/><rect class="c" x="50" y="50" rx="2" ry="2"/><rect class="c" x="50" y="66" rx="2" ry="2"/><rect class="c" x="50" y="82" rx="2" ry="2"/><rect class="c" x="50" y="98" rx="2" ry="2"/><rect class="c" x="66" y="2" rx="2" ry="2"/><rect class="c" x="66" y="18" rx="2" ry="2"/><rect class="c" x="66" y="34" rx="2" ry="2"/><rect class="c" x="66" y="50" rx="2" ry="2"/><rect class="c" x="66" y="66" rx="2" ry="2"/><rect class="c" x="66" y="82" rx="2" ry="2"/><rect class="c" x="66" y="98" rx="2" ry="2"/><rect class="c" x="82" y="2" rx="2" ry="2"/><rect class="c" x="82" y="18" rx="2" ry="2"/><rect class="c" x="82" y="34" rx="2" ry="2"/><rect class="c" x="82" y="50" rx="2" ry="2"/><rect class="c" x="82" y="66" rx="2" ry="2"/><rect class="c" x="82" y="82" rx="2" ry="2"/><rect class="c" x="82" y="98" rx="2" ry="2"/><rect class="c" x="98" y="2" rx="2" ry="2"/><rect class="c" x="98" y="18" rx="2" ry="2"/><rect class="c" x="98" y="34" rx="2" ry="2"/><rect class="c" x="98" y="50" rx="2" ry="2"/><rect class="c" x="98" y="66" rx="2" ry="2"/><rect class="c" x="98" y="82" rx="2" ry="2"/><rect class="c" x="98" y="98" rx="2" ry="2"/><rect class="c" x="114" y="2" rx="2" ry="2"/><rect class="c" x="114" y="18" rx="2" ry="2"/><rect class="c" x="114" y="34" rx="2" ry="2"/><rect class="c" x="114" y="50" rx="2" ry="2"/><rect class="c" x="114" y="66" rx="2" ry="2"/><rect class="c" x="114" y="82" rx="2" ry="2"/><rect class="c" x="114" y="98" rx="2" ry="2"/><rect class="c" x="130" y="2" rx="2" ry="2"/><rect class="c" x="130" y="18" rx="2" ry="2"/><rect class="c" x="130" y="34" rx="2" ry="2"/><rect class="c" x="130" y="50" rx="2" ry="2"/><rect class="c" x="130" y="66" rx="2" ry="2"/><rect class="c" x="130" y="82" rx="2" ry="2"/><rect class="c" x="130" y="98" rx="2" ry="2"/><rect class="c" x="146" y="2" rx="2" ry="2"/><rect class="c" x="146" y="18" rx="2" ry="2"/><rect class="c" x="146" y="34" rx="2" ry="2"/><rect class="c" x="146" y="50" rx="2" ry="2"/><rect class="c" x="146" y="66" rx="2" ry="2"/><rect class="c" x="146" y="82" rx="2" ry="2"/><rect class="c" x="146" y="98" rx="2" ry="2"/><rect class="c" x="162" y="2" rx="2" ry="2"/><rect class="c" x="162" y="18" rx="2" ry="2"/><rect class="c" x="162" y="34" rx="2" ry="2"/><rect class="c" x="162" y="50" rx="2" ry="2"/><rect class="c" x="162" y="66" rx="2" ry="2"/><rect class="c" x="162" y="82" rx="2" ry="2"/><rect class="c" x="162" y="98" rx="2" ry="2"/><rect class="c" x="178" y="2" rx="2" ry="2"/><rect class="c" x="178" y="18" rx="2" ry="2"/><rect class="c" x="178" y="34" rx="2" ry="2"/><rect class="c" x="178" y="50" rx="2" ry="2"/><rect class="c" x="178" y="66" rx="2" ry="2"/><rect class="c" x="178" y="82" rx="2" ry="2"/><rect class="c" x="178" y="98" rx="2" ry="2"/><rect class="c" x="194" y="2" rx="2" ry="2"/><rect class="c" x="194" y="18" rx="2" ry="2"/><rect class="c" x="194" y="34" rx="2" ry="2"/><rect class="c" x="194" y="50" rx="2" ry="2"/><rect class="c" x="194" y="66" rx="2" ry="2"/><rect class="c" x="194" y="82" rx="2" ry="2"/><rect class="c" x="194" y="98" rx="2" ry="2"/><rect class="c" x="210" y="2" rx="2" ry="2"/><rect class="c" x="210" y="18" rx="2" ry="2"/><rect class="c" x="210" y="34" rx="2" ry="2"/><rect class="c" x="210" y="50" rx="2" ry="2"/><rect class="c" x="210" y="66" rx="2" ry="2"/><rect class="c" x="210" y="82" rx="2" ry="2"/><rect class="c" x="210" y="98" rx="2" ry="2"/><rect class="c" x="226" y="2" rx="2" ry="2"/><rect class="c" x="226" y="18" rx="2" ry="2"/><rect class="c" x="226" y="34" rx="2" ry="2"/><rect class="c" x="226" y="50" rx="2" ry="2"/><rect class="c" x="226" y="66" rx="2" ry="2"/><rect class="c" x="226" y="82" rx="2" ry="2"/><rect class="c" x="226" y="98" rx="2" ry="2"/><rect class="c" x="242" y="2" rx="2" ry="2"/><rect class="c" x="242" y="18" rx="2" ry="2"/><rect class="c" x="242" y="34" rx="2" ry="2"/><rect class="c" x="242" y="50" rx="2" ry="2"/><rect class="c" x="242" y="66" rx="2" ry="2"/><rect class="c" x="242" y="82" rx="2" ry="2"/><rect class="c" x="242" y="98" rx="2" ry="2"/><rect class="c" x="258" y="2" rx="2" ry="2"/><rect class="c" x="258" y="18" rx="2" ry="2"/><rect class="c" x="258" y="34" rx="2" ry="2"/><rect class="c" x="258" y="50" rx="2" ry="2"/><rect class="c" x="258" y="66" rx="2" ry="2"/><rect class="c" x="258" y="82" rx="2" ry="2"/><rect class="c" x="258" y="98" rx="2" ry="2"/><rect class="c" x="274" y="2" rx="2" ry="2"/><rect class="c" x="274" y="18" rx="2" ry="2"/><rect class="c" x="274" y="34" rx="2" ry="2"/><rect class="c" x="274" y="50" rx="2" ry="2"/><rect class="c" x="274" y="66" rx="2" ry="2"/><rect class="c" x="274" y="82" rx="2" ry="2"/><rect class="c" x="274" y="98" rx="2" ry="2"/><rect class="c" x="290" y="2" rx="2" ry="2"/><rect class="c" x="290" y="18" rx="2" ry="2"/><rect class="c" x="290" y="34" rx="2" ry="2"/><rect class="c" x="290" y="50" rx="2" ry="2"/><rect class="c" x="290" y="66" rx="2" ry="2"/><rect class="c" x="290" y="82" rx="2" ry="2"/><rect class="c" x="290" y="98" rx="2" ry="2"/><rect class="c" x="306" y="2" rx="2" ry="2"/><rect class="c" x="306" y="18" rx="2" ry="2"/><rect class="c" x="306" y="34" rx="2" ry="2"/><rect class="c" x="306" y="50" rx="2" ry="2"/><rect class="c" x="306" y="66" rx="2" ry="2"/><rect class="c" x="306" y="82" rx="2" ry="2"/><rect class="c c0" x="306" y="98" rx="2" ry="2"/><rect class="c" x="322" y="2" rx="2" ry="2"/><rect class="c" x="322" y="18" rx="2" ry="2"/><rect class="c" x="322" y="34" rx="2" ry="2"/><rect class="c" x="322" y="50" rx="2" ry="2"/><rect class="c" x="322" y="66" rx="2" ry="2"/><rect class="c" x="322" y="82" rx="2" ry="2"/><rect class="c" x="322" y="98" rx="2" ry="2"/><rect class="c" x="338" y="2" rx="2" ry="2"/><rect class="c" x="338" y="18" rx="2" ry="2"/><rect class="c" x="338" y="34" rx="2" ry="2"/><rect class="c" x="338" y="50" rx="2" ry="2"/><rect class="c" x="338" y="66" rx="2" ry="2"/><rect class="c" x="338" y="82" rx="2" ry="2"/><rect class="c" x="338" y="98" rx="2" ry="2"/><rect class="c" x="354" y="2" rx="2" ry="2"/><rect class="c" x="354" y="18" rx="2" ry="2"/><rect class="c" x="354" y="34" rx="2" ry="2"/><rect class="c" x="354" y="50" rx="2" ry="2"/><rect class="c" x="354" y="66" rx="2" ry="2"/><rect class="c" x="354" y="82" rx="2" ry="2"/><rect class="c" x="354" y="98" rx="2" ry="2"/><rect class="c" x="370" y="2" rx="2" ry="2"/><rect class="c" x="370" y="18" rx="2" ry="2"/><rect class="c" x="370" y="34" rx="2" ry="2"/><rect class="c" x="370" y="50" rx="2" ry="2"/><rect class="c" x="370" y="66" rx="2" ry="2"/><rect class="c" x="370" y="82" rx="2" ry="2"/><rect class="c" x="370" y="98" rx="2" ry="2"/><rect class="c" x="386" y="2" rx="2" ry="2"/><rect class="c" x="386" y="18" rx="2" ry="2"/><rect class="c" x="386" y="34" rx="2" ry="2"/><rect class="c" x="386" y="50" rx="2" ry="2"/><rect class="c" x="386" y="66" rx="2" ry="2"/><rect class="c" x="386" y="82" rx="2" ry="2"/><rect class="c" x="386" y="98" rx="2" ry="2"/><rect class="c" x="402" y="2" rx="2" ry="2"/><rect class="c" x="402" y="18" rx="2" ry="2"/><rect class="c" x="402" y="34" rx="2" ry="2"/><rect class="c" x="402" y="50" rx="2" ry="2"/><rect class="c" x="402" y="66" rx="2" ry="2"/><rect class="c" x="402" y="82" rx="2" ry="2"/><rect class="c" x="402" y="98" rx="2" ry="2"/><rect class="c" x="418" y="2" rx="2" ry="2"/><rect class="c" x="418" y="18" rx="2" ry="2"/><rect class="c" x="418" y="34" rx="2" ry="2"/><rect class="c" x="418" y="50" rx="2" ry="2"/><rect class="c c1" x="418" y="66" rx="2" ry="2"/><rect class="c c2" x="418" y="82" rx="2" ry="2"/><rect class="c" x="418" y="98" rx="2" ry="2"/><rect class="c" x="434" y="2" rx="2" ry="2"/><rect class="c" x="434" y="18" rx="2" ry="2"/><rect class="c" x="434" y="34" rx="2" ry="2"/><rect class="c" x="434" y="50" rx="2" ry="2"/><rect class="c" x="434" y="66" rx="2" ry="2"/><rect class="c" x="434" y="82" rx="2" ry="2"/><rect class="c c3" x="434" y="98" rx="2" ry="2"/><rect class="c" x="450" y="2" rx="2" ry="2"/><rect class="c c4" x="450" y="18" rx="2" ry="2"/><rect class="c c5" x="450" y="34" rx="2" ry="2"/><rect class="c c6" x="450" y="50" rx="2" ry="2"/><rect class="c c7" x="450" y="66" rx="2" ry="2"/><rect class="c c8" x="450" y="82" rx="2" ry="2"/><rect class="c c9" x="450" y="98" rx="2" ry="2"/><rect class="c ca" x="466" y="2" rx="2" ry="2"/><rect class="c cb" x="466" y="18" rx="2" ry="2"/><rect class="c cc" x="466" y="34" rx="2" ry="2"/><rect class="c cd" x="466" y="50" rx="2" ry="2"/><rect class="c" x="466" y="66" rx="2" ry="2"/><rect class="c" x="466" y="82" rx="2" ry="2"/><rect class="c ce" x="466" y="98" rx="2" ry="2"/><rect class="c cf" x="482" y="2" rx="2" ry="2"/><rect class="c" x="482" y="18" rx="2" ry="2"/><rect class="c" x="482" y="34" rx="2" ry="2"/><rect class="c" x="482" y="50" rx="2" ry="2"/><rect class="c" x="482" y="66" rx="2" ry="2"/><rect class="c cg" x="482" y="82" rx="2" ry="2"/><rect class="c ch" x="482" y="98" rx="2" ry="2"/><rect class="c" x="498" y="2" rx="2" ry="2"/><rect class="c" x="498" y="18" rx="2" ry="2"/><rect class="c ci" x="498" y="34" rx="2" ry="2"/><rect class="c cj" x="498" y="50" rx="2" ry="2"/><rect class="c ck" x="498" y="66" rx="2" ry="2"/><rect class="c cl" x="498" y="82" rx="2" ry="2"/><rect class="c cm" x="498" y="98" rx="2" ry="2"/><rect class="c cn" x="514" y="2" rx="2" ry="2"/><rect class="c co" x="514" y="18" rx="2" ry="2"/><rect class="c cp" x="514" y="34" rx="2" ry="2"/><rect class="c cq" x="514" y="50" rx="2" ry="2"/><rect class="c" x="514" y="66" rx="2" ry="2"/><rect class="c cr" x="514" y="82" rx="2" ry="2"/><rect class="c cs" x="514" y="98" rx="2" ry="2"/><rect class="c" x="530" y="2" rx="2" ry="2"/><rect class="c" x="530" y="18" rx="2" ry="2"/><rect class="c" x="530" y="34" rx="2" ry="2"/><rect class="c ct" x="530" y="50" rx="2" ry="2"/><rect class="c cu" x="530" y="66" rx="2" ry="2"/><rect class="c" x="530" y="82" rx="2" ry="2"/><rect class="c" x="530" y="98" rx="2" ry="2"/><rect class="c" x="546" y="2" rx="2" ry="2"/><rect class="c" x="546" y="18" rx="2" ry="2"/><rect class="c cv" x="546" y="34" rx="2" ry="2"/><rect class="c cw" x="546" y="50" rx="2" ry="2"/><rect class="c cx" x="546" y="66" rx="2" ry="2"/><rect class="c" x="546" y="82" rx="2" ry="2"/><rect class="c" x="546" y="98" rx="2" ry="2"/><rect class="c" x="562" y="2" rx="2" ry="2"/><rect class="c" x="562" y="18" rx="2" ry="2"/><rect class="c" x="562" y="34" rx="2" ry="2"/><rect class="c" x="562" y="50" rx="2" ry="2"/><rect class="c" x="562" y="66" rx="2" ry="2"/><rect class="c" x="562" y="82" rx="2" ry="2"/><rect class="c" x="562" y="98" rx="2" ry="2"/><rect class="c cy" x="578" y="2" rx="2" ry="2"/><rect class="c" x="578" y="18" rx="2" ry="2"/><rect class="c" x="578" y="34" rx="2" ry="2"/><rect class="c cz" x="578" y="50" rx="2" ry="2"/><rect class="c c10" x="578" y="66" rx="2" ry="2"/><rect class="c c11" x="578" y="82" rx="2" ry="2"/><rect class="c" x="578" y="98" rx="2" ry="2"/><rect class="c" x="594" y="2" rx="2" ry="2"/><rect class="c" x="594" y="18" rx="2" ry="2"/><rect class="c" x="594" y="34" rx="2" ry="2"/><rect class="c c12" x="594" y="50" rx="2" ry="2"/><rect class="c" x="594" y="66" rx="2" ry="2"/><rect class="c c13" x="594" y="82" rx="2" ry="2"/><rect class="c" x="594" y="98" rx="2" ry="2"/><rect class="c" x="610" y="2" rx="2" ry="2"/><rect class="c" x="610" y="18" rx="2" ry="2"/><rect class="c c14" x="610" y="34" rx="2" ry="2"/><rect class="c" x="610" y="50" rx="2" ry="2"/><rect class="c c15" x="610" y="66" rx="2" ry="2"/><rect class="c c16" x="610" y="82" rx="2" ry="2"/><rect class="c c17" x="610" y="98" rx="2" ry="2"/><rect class="c c18" x="626" y="2" rx="2" ry="2"/><rect class="c c19" x="626" y="18" rx="2" ry="2"/><rect class="c" x="626" y="34" rx="2" ry="2"/><rect class="c c1a" x="626" y="50" rx="2" ry="2"/><rect class="c c1b" x="626" y="66" rx="2" ry="2"/><rect class="c c1c" x="626" y="82" rx="2" ry="2"/><rect class="c c1d" x="626" y="98" rx="2" ry="2"/><rect class="c c1e" x="642" y="2" rx="2" ry="2"/><rect class="c c1f" x="642" y="18" rx="2" ry="2"/><rect class="c" x="642" y="34" rx="2" ry="2"/><rect class="c c1g" x="642" y="50" rx="2" ry="2"/><rect class="c c1h" x="642" y="66" rx="2" ry="2"/><rect class="c c1i" x="642" y="82" rx="2" ry="2"/><rect class="c c1j" x="642" y="98" rx="2" ry="2"/><rect class="c" x="658" y="2" rx="2" ry="2"/><rect class="c c1k" x="658" y="18" rx="2" ry="2"/><rect class="c" x="658" y="34" rx="2" ry="2"/><rect class="c" x="658" y="50" rx="2" ry="2"/><rect class="c" x="658" y="66" rx="2" ry="2"/><rect class="c c1l" x="658" y="82" rx="2" ry="2"/><rect class="c" x="658" y="98" rx="2" ry="2"/><rect class="c" x="674" y="2" rx="2" ry="2"/><rect class="c c1m" x="674" y="18" rx="2" ry="2"/><rect class="c" x="674" y="34" rx="2" ry="2"/><rect class="c" x="674" y="50" rx="2" ry="2"/><rect class="c" x="674" y="66" rx="2" ry="2"/><rect class="c c1n" x="674" y="82" rx="2" ry="2"/><rect class="c c1o" x="674" y="98" rx="2" ry="2"/><rect class="c c1p" x="690" y="2" rx="2" ry="2"/><rect class="c c1q" x="690" y="18" rx="2" ry="2"/><rect class="c c1r" x="690" y="34" rx="2" ry="2"/><rect class="c" x="690" y="50" rx="2" ry="2"/><rect class="c c1s" x="690" y="66" rx="2" ry="2"/><rect class="c c1t" x="690" y="82" rx="2" ry="2"/><rect class="c c1u" x="690" y="98" rx="2" ry="2"/><rect class="c c1v" x="706" y="2" rx="2" ry="2"/><rect class="c c1w" x="706" y="18" rx="2" ry="2"/><rect class="c c1x" x="706" y="34" rx="2" ry="2"/><rect class="c c1y" x="706" y="50" rx="2" ry="2"/><rect class="c c1z" x="706" y="66" rx="2" ry="2"/><rect class="c" x="706" y="82" rx="2" ry="2"/><rect class="c c20" x="706" y="98" rx="2" ry="2"/><rect class="c c21" x="722" y="2" rx="2" ry="2"/><rect class="c c22" x="722" y="18" rx="2" ry="2"/><rect class="c c23" x="722" y="34" rx="2" ry="2"/><rect class="c c24" x="722" y="50" rx="2" ry="2"/><rect class="c c25" x="722" y="66" rx="2" ry="2"/><rect class="c" x="722" y="82" rx="2" ry="2"/><rect class="c c26" x="722" y="98" rx="2" ry="2"/><rect class="c c27" x="738" y="2" rx="2" ry="2"/><rect class="c c28" x="738" y="18" rx="2" ry="2"/><rect class="c c29" x="738" y="34" rx="2" ry="2"/><rect class="c c2a" x="738" y="50" rx="2" ry="2"/><rect class="c c2b" x="738" y="66" rx="2" ry="2"/><rect class="c c2c" x="738" y="82" rx="2" ry="2"/><rect class="c c2d" x="738" y="98" rx="2" ry="2"/><rect class="c c2e" x="754" y="2" rx="2" ry="2"/><rect class="c c2f" x="754" y="18" rx="2" ry="2"/><rect class="c c2g" x="754" y="34" rx="2" ry="2"/><rect class="c c2h" x="754" y="50" rx="2" ry="2"/><rect class="c c2i" x="754" y="66" rx="2" ry="2"/><rect class="c c2j" x="754" y="82" rx="2" ry="2"/><rect class="c c2k" x="754" y="98" rx="2" ry="2"/><rect class="c" x="770" y="2" rx="2" ry="2"/><rect class="c c2l" x="770" y="18" rx="2" ry="2"/><rect class="c c2m" x="770" y="34" rx="2" ry="2"/><rect class="c c2n" x="770" y="50" rx="2" ry="2"/><rect class="c c2o" x="770" y="66" rx="2" ry="2"/><rect class="c" x="770" y="82" rx="2" ry="2"/><rect class="c c2p" x="770" y="98" rx="2" ry="2"/><rect class="c c2q" x="786" y="2" rx="2" ry="2"/><rect class="c c2r" x="786" y="18" rx="2" ry="2"/><rect class="c c2s" x="786" y="34" rx="2" ry="2"/><rect class="c c2t" x="786" y="50" rx="2" ry="2"/><rect class="c" x="786" y="66" rx="2" ry="2"/><rect class="c c2u" x="786" y="82" rx="2" ry="2"/><rect class="c" x="786" y="98" rx="2" ry="2"/><rect class="c c2v" x="802" y="2" rx="2" ry="2"/><rect class="c c2w" x="802" y="18" rx="2" ry="2"/><rect class="c c2x" x="802" y="34" rx="2" ry="2"/><rect class="c c2y" x="802" y="50" rx="2" ry="2"/><rect class="c c2z" x="802" y="66" rx="2" ry="2"/><rect class="c c30" x="802" y="82" rx="2" ry="2"/><rect class="c c31" x="802" y="98" rx="2" ry="2"/><rect class="c" x="818" y="2" rx="2" ry="2"/><rect class="c c32" x="818" y="18" rx="2" ry="2"/><rect class="c c33" x="818" y="34" rx="2" ry="2"/><rect class="c c34" x="818" y="50" rx="2" ry="2"/><rect class="c" x="818" y="66" rx="2" ry="2"/><rect class="c c35" x="818" y="82" rx="2" ry="2"/><rect class="c c36" x="818" y="98" rx="2" ry="2"/><rect class="c c37" x="834" y="2" rx="2" ry="2"/><rect class="c" x="834" y="18" rx="2" ry="2"/><rect class="c" x="834" y="34" rx="2" ry="2"/><rect class="u u0" height="12" width="797.4" x="0.0" y="144"/><rect class="u u1" height="12" width="44.5" x="796.8" y="144"/><rect class="u u2" height="12" width="7.9" x="840.7" y="144"/><rect class="s s0" x="0.8" y="0.8" width="14.4" height="14.4" rx="4.5" ry="4.5"/><rect class="s s1" x="1.8" y="1.8" width="12.3" height="12.3" rx="4.1" ry="4.1"/><rect class="s s2" x="2.6" y="2.6" width="10.8" height="10.8" rx="3.6" ry="3.6"/><rect class="s s3" x="3.0" y="3.0" width="9.9" height="9.9" rx="3.3" ry="3.3"/></svg>