<svg viewBox="-16 -32 880 192" width="880" height="192" xmlns="http://www.w3.org/2000/svg"><desc>Generated with https://github.com/Platane/snk</desc><style>:root{--cb:#1b1f230a;--cs:purple;--ce:#161b22;--c0:#161b22;--c1:#01311f;--c2:#034525;--c3:#0f6d31;--c4:#00c647}.c{shape-rendering:geometricPrecision;fill:var(--ce);stroke-width:1px;stroke:var(--cb);animation:none 38900ms linear infinite;width:12px;height:12px}@keyframes c0{62.97%{fill:var(--c3)}62.99%,100%{fill:var(--ce)}}.c.c0{fill:var(--c3);animation-name:c0}@keyframes c1{1.79%{fill:var(--c1)}1.81%,100%{fill:var(--ce)}}.c.c1{fill:var(--c1);animation-name:c1}@keyframes c2{2.05%{fill:var(--c1)}2.07%,100%{fill:var(--ce)}}.c.c2{fill:var(--c1);animation-name:c2}@keyframes c3{61.43%{fill:var(--c2)}61.45%,100%{fill:var(--ce)}}.c.c3{fill:var(--c2);animation-name:c3}@keyframes c4{61.69%{fill:var(--c2)}61.71%,100%{fill:var(--ce)}}.c.c4{fill:var(--c2);animation-name:c4}@keyframes c5{3.07%{fill:var(--c1)}3.09%,100%{fill:var(--ce)}}.c.c5{fill:var(--c1);animation-name:c5}@keyframes c6{60.14%{fill:var(--c2)}60.16%,100%{fill:var(--ce)}}.c.c6{fill:var(--c2);animation-name:c6}@keyframes c7{5.39%{fill:var(--c1)}5.41%,100%{fill:var(--ce)}}.c.c7{fill:var(--c1);animation-name:c7}@keyframes c8{67.34%{fill:var(--c3)}67.36%,100%{fill:var(--ce)}}.c.c8{fill:var(--c3);animation-name:c8}@keyframes c9{4.36%{fill:var(--c1)}4.38%,100%{fill:var(--ce)}}.c.c9{fill:var(--c1);animation-name:c9}@keyframes ca{4.1%{fill:var(--c1)}4.12%,100%{fill:var(--ce)}}.c.ca{fill:var(--c1);animation-name:ca}@keyframes cb{65.8%{fill:var(--c3)}65.82%,100%{fill:var(--ce)}}.c.cb{fill:var(--c3);animation-name:cb}@keyframes cc{94.85%{fill:var(--c4)}94.87%,100%{fill:var(--ce)}}.c.cc{fill:var(--c4);animation-name:cc}@keyframes cd{93.05%{fill:var(--c4)}93.07%,100%{fill:var(--ce)}}.c.cd{fill:var(--c4);animation-name:cd}@keyframes ce{7.19%{fill:var(--c1)}7.21%,100%{fill:var(--ce)}}.c.ce{fill:var(--c1);animation-name:ce}@keyframes cf{7.7%{fill:var(--c1)}7.72%,100%{fill:var(--ce)}}.c.cf{fill:var(--c1);animation-name:cf}@keyframes cg{14.9%{fill:var(--c1)}14.92%,100%{fill:var(--ce)}}.c.cg{fill:var(--c1);animation-name:cg}@keyframes ch{8.22%{fill:var(--c1)}8.24%,100%{fill:var(--ce)}}.c.ch{fill:var(--c1);animation-name:ch}@keyframes ci{8.47%{fill:var(--c1)}8.49%,100%{fill:var(--ce)}}.c.ci{fill:var(--c1);animation-name:ci}@keyframes cj{13.36%{fill:var(--c1)}13.38%,100%{fill:var(--ce)}}.c.cj{fill:var(--c1);animation-name:cj}@keyframes ck{9.24%{fill:var(--c1)}9.26%,100%{fill:var(--ce)}}.c.ck{fill:var(--c1);animation-name:ck}@keyframes cl{12.33%{fill:var(--c1)}12.35%,100%{fill:var(--ce)}}.c.cl{fill:var(--c1);animation-name:cl}@keyframes cm{10.27%{fill:var(--c1)}10.29%,100%{fill:var(--ce)}}.c.cm{fill:var(--c1);animation-name:cm}@keyframes cn{10.02%{fill:var(--c1)}10.04%,100%{fill:var(--ce)}}.c.cn{fill:var(--c1);animation-name:cn}@keyframes co{11.56%{fill:var(--c1)}11.58%,100%{fill:var(--ce)}}.c.co{fill:var(--c1);animation-name:co}@keyframes cp{71.97%{fill:var(--c3)}71.99%,100%{fill:var(--ce)}}.c.cp{fill:var(--c3);animation-name:cp}@keyframes cq{53.72%{fill:var(--c2)}53.74%,100%{fill:var(--ce)}}.c.cq{fill:var(--c2);animation-name:cq}@keyframes cr{53.97%{fill:var(--c2)}53.99%,100%{fill:var(--ce)}}.c.cr{fill:var(--c2);animation-name:cr}@keyframes cs{56.03%{fill:var(--c2)}56.05%,100%{fill:var(--ce)}}.c.cs{fill:var(--c2);animation-name:cs}@keyframes ct{55.77%{fill:var(--c2)}55.79%,100%{fill:var(--ce)}}.c.ct{fill:var(--c2);animation-name:ct}@keyframes cu{89.45%{fill:var(--c4)}89.47%,100%{fill:var(--ce)}}.c.cu{fill:var(--c4);animation-name:cu}@keyframes cv{53.2%{fill:var(--c2)}53.22%,100%{fill:var(--ce)}}.c.cv{fill:var(--c2);animation-name:cv}@keyframes cw{19.01%{fill:var(--c1)}19.03%,100%{fill:var(--ce)}}.c.cw{fill:var(--c1);animation-name:cw}@keyframes cx{25.44%{fill:var(--c1)}25.46%,100%{fill:var(--ce)}}.c.cx{fill:var(--c1);animation-name:cx}@keyframes cy{25.18%{fill:var(--c1)}25.2%,100%{fill:var(--ce)}}.c.cy{fill:var(--c1);animation-name:cy}@keyframes cz{39.32%{fill:var(--c1)}39.34%,100%{fill:var(--ce)}}.c.cz{fill:var(--c1);animation-name:cz}@keyframes c10{39.06%{fill:var(--c1)}39.08%,100%{fill:var(--ce)}}.c.c10{fill:var(--c1);animation-name:c10}@keyframes c11{38.81%{fill:var(--c1)}38.83%,100%{fill:var(--ce)}}.c.c11{fill:var(--c1);animation-name:c11}@keyframes c12{25.95%{fill:var(--c1)}25.97%,100%{fill:var(--ce)}}.c.c12{fill:var(--c1);animation-name:c12}@keyframes c13{41.64%{fill:var(--c2)}41.66%,100%{fill:var(--ce)}}.c.c13{fill:var(--c2);animation-name:c13}@keyframes c14{24.93%{fill:var(--c1)}24.95%,100%{fill:var(--ce)}}.c.c14{fill:var(--c1);animation-name:c14}@keyframes c15{24.67%{fill:var(--c1)}24.69%,100%{fill:var(--ce)}}.c.c15{fill:var(--c1);animation-name:c15}@keyframes c16{23.9%{fill:var(--c1)}23.92%,100%{fill:var(--ce)}}.c.c16{fill:var(--c1);animation-name:c16}@keyframes c17{23.38%{fill:var(--c1)}23.4%,100%{fill:var(--ce)}}.c.c17{fill:var(--c1);animation-name:c17}@keyframes c18{24.41%{fill:var(--c1)}24.43%,100%{fill:var(--ce)}}.c.c18{fill:var(--c1);animation-name:c18}@keyframes c19{24.15%{fill:var(--c1)}24.17%,100%{fill:var(--ce)}}.c.c19{fill:var(--c1);animation-name:c19}@keyframes c1a{26.73%{fill:var(--c1)}26.75%,100%{fill:var(--ce)}}.c.c1a{fill:var(--c1);animation-name:c1a}@keyframes c1b{26.98%{fill:var(--c1)}27%,100%{fill:var(--ce)}}.c.c1b{fill:var(--c1);animation-name:c1b}@keyframes c1c{40.09%{fill:var(--c2)}40.11%,100%{fill:var(--ce)}}.c.c1c{fill:var(--c2);animation-name:c1c}@keyframes c1d{40.35%{fill:var(--c2)}40.37%,100%{fill:var(--ce)}}.c.c1d{fill:var(--c2);animation-name:c1d}@keyframes c1e{28.01%{fill:var(--c1)}28.03%,100%{fill:var(--ce)}}.c.c1e{fill:var(--c1);animation-name:c1e}@keyframes c1f{29.55%{fill:var(--c1)}29.57%,100%{fill:var(--ce)}}.c.c1f{fill:var(--c1);animation-name:c1f}@keyframes c1g{29.81%{fill:var(--c1)}29.83%,100%{fill:var(--ce)}}.c.c1g{fill:var(--c1);animation-name:c1g}@keyframes c1h{30.07%{fill:var(--c1)}30.09%,100%{fill:var(--ce)}}.c.c1h{fill:var(--c1);animation-name:c1h}@keyframes c1i{28.52%{fill:var(--c1)}28.54%,100%{fill:var(--ce)}}.c.c1i{fill:var(--c1);animation-name:c1i}@keyframes c1j{28.78%{fill:var(--c1)}28.8%,100%{fill:var(--ce)}}.c.c1j{fill:var(--c1);animation-name:c1j}@keyframes c1k{29.04%{fill:var(--c1)}29.06%,100%{fill:var(--ce)}}.c.c1k{fill:var(--c1);animation-name:c1k}@keyframes c1l{31.87%{fill:var(--c1)}31.89%,100%{fill:var(--ce)}}.c.c1l{fill:var(--c1);animation-name:c1l}@keyframes c1m{46.01%{fill:var(--c2)}46.03%,100%{fill:var(--ce)}}.c.c1m{fill:var(--c2);animation-name:c1m}@keyframes c1n{81.74%{fill:var(--c3)}81.76%,100%{fill:var(--ce)}}.c.c1n{fill:var(--c3);animation-name:c1n}@keyframes c1o{79.94%{fill:var(--c3)}79.96%,100%{fill:var(--ce)}}.c.c1o{fill:var(--c3);animation-name:c1o}@keyframes c1p{32.89%{fill:var(--c1)}32.91%,100%{fill:var(--ce)}}.c.c1p{fill:var(--c1);animation-name:c1p}@keyframes c1q{79.42%{fill:var(--c3)}79.44%,100%{fill:var(--ce)}}.c.c1q{fill:var(--c3);animation-name:c1q}@keyframes c1r{45.23%{fill:var(--c2)}45.25%,100%{fill:var(--ce)}}.c.c1r{fill:var(--c2);animation-name:c1r}@keyframes c1s{45.49%{fill:var(--c2)}45.51%,100%{fill:var(--ce)}}.c.c1s{fill:var(--c2);animation-name:c1s}@keyframes c1t{34.44%{fill:var(--c1)}34.46%,100%{fill:var(--ce)}}.c.c1t{fill:var(--c1);animation-name:c1t}.u{transform-origin:0 0;transform:scale(0,1);animation:none linear 38900ms infinite}@keyframes u0{1.79%{transform:scale(0.000,1)}1.81%,2.05%{transform:scale(0.024,1)}2.07%,3.07%{transform:scale(0.048,1)}3.09%,4.1%{transform:scale(0.071,1)}4.12%,4.36%{transform:scale(0.095,1)}4.38%,5.39%{transform:scale(0.119,1)}5.41%,7.19%{transform:scale(0.143,1)}7.21%,7.7%{transform:scale(0.167,1)}7.72%,8.22%{transform:scale(0.190,1)}8.24%,8.47%{transform:scale(0.214,1)}8.49%,9.24%{transform:scale(0.238,1)}9.26%,10.02%{transform:scale(0.262,1)}10.04%,10.27%{transform:scale(0.286,1)}10.29%,11.56%{transform:scale(0.310,1)}11.58%,12.33%{transform:scale(0.333,1)}12.35%,13.36%{transform:scale(0.357,1)}13.38%,14.9%{transform:scale(0.381,1)}14.92%,19.01%{transform:scale(0.405,1)}19.03%,23.38%{transform:scale(0.429,1)}23.4%,23.9%{transform:scale(0.452,1)}23.92%,24.15%{transform:scale(0.476,1)}24.17%,24.41%{transform:scale(0.500,1)}24.43%,24.67%{transform:scale(0.524,1)}24.69%,24.93%{transform:scale(0.548,1)}24.95%,25.18%{transform:scale(0.571,1)}25.2%,25.44%{transform:scale(0.595,1)}25.46%,25.95%{transform:scale(0.619,1)}25.97%,26.73%{transform:scale(0.643,1)}26.75%,26.98%{transform:scale(0.667,1)}27%,28.01%{transform:scale(0.690,1)}28.03%,28.52%{transform:scale(0.714,1)}28.54%,28.78%{transform:scale(0.738,1)}28.8%,29.04%{transform:scale(0.762,1)}29.06%,29.55%{transform:scale(0.786,1)}29.57%,29.81%{transform:scale(0.810,1)}29.83%,30.07%{transform:scale(0.833,1)}30.09%,31.87%{transform:scale(0.857,1)}31.89%,32.89%{transform:scale(0.881,1)}32.91%,34.44%{transform:scale(0.905,1)}34.46%,38.81%{transform:scale(0.929,1)}38.83%,39.06%{transform:scale(0.952,1)}39.08%,39.32%{transform:scale(0.976,1)}39.34%,100%{transform:scale(1.000,1)}}.u.u0{fill:var(--c1);animation-name:u0;transform-origin:0.0px 0}@keyframes u1{40.09%{transform:scale(0.000,1)}40.11%,40.35%{transform:scale(0.071,1)}40.37%,41.64%{transform:scale(0.143,1)}41.66%,45.23%{transform:scale(0.214,1)}45.25%,45.49%{transform:scale(0.286,1)}45.51%,46.01%{transform:scale(0.357,1)}46.03%,53.2%{transform:scale(0.429,1)}53.22%,53.72%{transform:scale(0.500,1)}53.74%,53.97%{transform:scale(0.571,1)}53.99%,55.77%{transform:scale(0.643,1)}55.79%,56.03%{transform:scale(0.714,1)}56.05%,60.14%{transform:scale(0.786,1)}60.16%,61.43%{transform:scale(0.857,1)}61.45%,61.69%{transform:scale(0.929,1)}61.71%,100%{transform:scale(1.000,1)}}.u.u1{fill:var(--c2);animation-name:u1;transform-origin:539.6px 0}@keyframes u2{62.97%{transform:scale(0.000,1)}62.99%,65.8%{transform:scale(0.143,1)}65.82%,67.34%{transform:scale(0.286,1)}67.36%,71.97%{transform:scale(0.429,1)}71.99%,79.42%{transform:scale(0.571,1)}79.44%,79.94%{transform:scale(0.714,1)}79.96%,81.74%{transform:scale(0.857,1)}81.76%,100%{transform:scale(1.000,1)}}.u.u2{fill:var(--c3);animation-name:u2;transform-origin:719.5px 0}@keyframes u3{89.45%{transform:scale(0.000,1)}89.47%,93.05%{transform:scale(0.333,1)}93.07%,94.85%{transform:scale(0.667,1)}94.87%,100%{transform:scale(1.000,1)}}.u.u3{fill:var(--c4);animation-name:u3;transform-origin:809.5px 0}.s{shape-rendering:geometricPrecision;fill:var(--cs);animation:none linear 38900ms infinite}@keyframes s0{0%,99.74%{transform:translate(0px,-16px)}0.26%{transform:translate(0px,0px)}1.54%{transform:translate(80px,0px)}2.06%{transform:translate(80px,32px)}2.57%{transform:translate(112px,32px)}3.08%{transform:translate(112px,64px)}4.11%{transform:translate(176px,64px)}4.88%{transform:translate(176px,16px)}5.4%{transform:translate(144px,16px)}5.66%{transform:translate(144px,32px)}6.68%{transform:translate(208px,32px)}7.2%{transform:translate(208px,64px)}7.97%{transform:translate(256px,64px)}8.23%{transform:translate(256px,48px)}9%{transform:translate(304px,48px)}9.25%{transform:translate(304px,32px)}10.03%,11.05%{transform:translate(352px,32px)}10.28%{transform:translate(352px,16px)}10.54%{transform:translate(336px,16px)}10.8%{transform:translate(336px,32px)}11.57%{transform:translate(352px,64px)}11.83%{transform:translate(336px,64px)}12.34%{transform:translate(336px,96px)}13.37%{transform:translate(272px,96px)}14.65%{transform:translate(272px,16px)}14.91%{transform:translate(256px,16px)}15.17%{transform:translate(256px,0px)}17.48%{transform:translate(400px,0px)}18.77%{transform:translate(400px,80px)}19.02%{transform:translate(384px,80px)}19.28%{transform:translate(384px,96px)}23.39%{transform:translate(640px,96px)}23.91%{transform:translate(640px,64px)}24.16%,40.62%{transform:translate(656px,64px)}24.42%{transform:translate(656px,48px)}24.68%{transform:translate(640px,48px)}24.94%,41.9%{transform:translate(640px,32px)}25.19%{transform:translate(624px,32px)}25.71%{transform:translate(624px,0px)}26.48%{transform:translate(672px,0px)}26.99%{transform:translate(672px,32px)}27.76%{transform:translate(720px,32px)}28.02%{transform:translate(720px,48px)}28.53%{transform:translate(752px,48px)}29.05%{transform:translate(752px,80px)}29.56%{transform:translate(720px,80px)}29.82%{transform:translate(720px,96px)}30.85%{transform:translate(784px,96px)}31.88%{transform:translate(784px,32px)}32.39%,44.73%{transform:translate(816px,32px)}32.65%{transform:translate(816px,16px)}33.16%{transform:translate(848px,16px)}34.19%{transform:translate(848px,80px)}34.45%{transform:translate(832px,80px)}34.96%{transform:translate(832px,112px)}35.48%{transform:translate(800px,112px)}35.99%,46.27%{transform:translate(800px,80px)}38.82%{transform:translate(624px,80px)}39.33%{transform:translate(624px,48px)}40.1%{transform:translate(672px,48px)}40.36%{transform:translate(672px,64px)}41.39%{transform:translate(656px,16px)}41.65%{transform:translate(640px,16px)}44.99%{transform:translate(816px,48px)}45.24%{transform:translate(832px,48px)}45.5%{transform:translate(832px,64px)}45.76%{transform:translate(816px,64px)}46.02%{transform:translate(816px,80px)}46.53%{transform:translate(800px,64px)}53.47%{transform:translate(368px,64px)}53.98%{transform:translate(368px,96px)}54.5%{transform:translate(400px,96px)}55.53%{transform:translate(400px,32px)}55.78%{transform:translate(384px,32px)}56.04%{transform:translate(384px,16px)}60.93%,97.94%{transform:translate(80px,16px)}61.7%{transform:translate(80px,64px)}61.95%{transform:translate(64px,64px)}62.47%{transform:translate(64px,32px)}62.98%{transform:translate(32px,32px)}63.24%{transform:translate(32px,48px)}65.81%{transform:translate(192px,48px)}66.07%{transform:translate(192px,64px)}66.84%{transform:translate(144px,64px)}67.35%,95.63%{transform:translate(144px,96px)}67.87%{transform:translate(176px,96px)}68.12%{transform:translate(176px,80px)}71.21%{transform:translate(368px,80px)}71.98%{transform:translate(368px,32px)}79.43%{transform:translate(832px,32px)}79.95%{transform:translate(832px,0px)}80.21%{transform:translate(816px,0px)}81.75%{transform:translate(816px,96px)}82.01%{transform:translate(800px,96px)}82.78%{transform:translate(800px,48px)}89.46%{transform:translate(384px,48px)}90.23%{transform:translate(384px,0px)}93.32%{transform:translate(192px,0px)}94.86%{transform:translate(192px,96px)}96.4%{transform:translate(144px,48px)}97.43%{transform:translate(80px,48px)}98.2%{transform:translate(64px,16px)}98.46%{transform:translate(64px,0px)}98.71%{transform:translate(48px,0px)}98.97%{transform:translate(48px,-16px)}}.s.s0{transform:translate(0px,-16px);animation-name:s0}@keyframes s1{0%,99.74%{transform:translate(16px,-16px)}0.26%{transform:translate(0px,-16px)}0.51%{transform:translate(0px,0px)}1.8%{transform:translate(80px,0px)}2.31%{transform:translate(80px,32px)}2.83%{transform:translate(112px,32px)}3.34%{transform:translate(112px,64px)}4.37%{transform:translate(176px,64px)}5.14%{transform:translate(176px,16px)}5.66%{transform:translate(144px,16px)}5.91%{transform:translate(144px,32px)}6.94%{transform:translate(208px,32px)}7.46%{transform:translate(208px,64px)}8.23%{transform:translate(256px,64px)}8.48%{transform:translate(256px,48px)}9.25%{transform:translate(304px,48px)}9.51%{transform:translate(304px,32px)}10.28%,11.31%{transform:translate(352px,32px)}10.54%{transform:translate(352px,16px)}10.8%{transform:translate(336px,16px)}11.05%{transform:translate(336px,32px)}11.83%{transform:translate(352px,64px)}12.08%{transform:translate(336px,64px)}12.6%{transform:translate(336px,96px)}13.62%{transform:translate(272px,96px)}14.91%{transform:translate(272px,16px)}15.17%{transform:translate(256px,16px)}15.42%{transform:translate(256px,0px)}17.74%{transform:translate(400px,0px)}19.02%{transform:translate(400px,80px)}19.28%{transform:translate(384px,80px)}19.54%{transform:translate(384px,96px)}23.65%{transform:translate(640px,96px)}24.16%{transform:translate(640px,64px)}24.42%,40.87%{transform:translate(656px,64px)}24.68%{transform:translate(656px,48px)}24.94%{transform:translate(640px,48px)}25.19%,42.16%{transform:translate(640px,32px)}25.45%{transform:translate(624px,32px)}25.96%{transform:translate(624px,0px)}26.74%{transform:translate(672px,0px)}27.25%{transform:translate(672px,32px)}28.02%{transform:translate(720px,32px)}28.28%{transform:translate(720px,48px)}28.79%{transform:translate(752px,48px)}29.31%{transform:translate(752px,80px)}29.82%{transform:translate(720px,80px)}30.08%{transform:translate(720px,96px)}31.11%{transform:translate(784px,96px)}32.13%{transform:translate(784px,32px)}32.65%,44.99%{transform:translate(816px,32px)}32.9%{transform:translate(816px,16px)}33.42%{transform:translate(848px,16px)}34.45%{transform:translate(848px,80px)}34.7%{transform:translate(832px,80px)}35.22%{transform:translate(832px,112px)}35.73%{transform:translate(800px,112px)}36.25%,46.53%{transform:translate(800px,80px)}39.07%{transform:translate(624px,80px)}39.59%{transform:translate(624px,48px)}40.36%{transform:translate(672px,48px)}40.62%{transform:translate(672px,64px)}41.65%{transform:translate(656px,16px)}41.9%{transform:translate(640px,16px)}45.24%{transform:translate(816px,48px)}45.5%{transform:translate(832px,48px)}45.76%{transform:translate(832px,64px)}46.02%{transform:translate(816px,64px)}46.27%{transform:translate(816px,80px)}46.79%{transform:translate(800px,64px)}53.73%{transform:translate(368px,64px)}54.24%{transform:translate(368px,96px)}54.76%{transform:translate(400px,96px)}55.78%{transform:translate(400px,32px)}56.04%{transform:translate(384px,32px)}56.3%{transform:translate(384px,16px)}61.18%,98.2%{transform:translate(80px,16px)}61.95%{transform:translate(80px,64px)}62.21%{transform:translate(64px,64px)}62.72%{transform:translate(64px,32px)}63.24%{transform:translate(32px,32px)}63.5%{transform:translate(32px,48px)}66.07%{transform:translate(192px,48px)}66.32%{transform:translate(192px,64px)}67.1%{transform:translate(144px,64px)}67.61%,95.89%{transform:translate(144px,96px)}68.12%{transform:translate(176px,96px)}68.38%{transform:translate(176px,80px)}71.47%{transform:translate(368px,80px)}72.24%{transform:translate(368px,32px)}79.69%{transform:translate(832px,32px)}80.21%{transform:translate(832px,0px)}80.46%{transform:translate(816px,0px)}82.01%{transform:translate(816px,96px)}82.26%{transform:translate(800px,96px)}83.03%{transform:translate(800px,48px)}89.72%{transform:translate(384px,48px)}90.49%{transform:translate(384px,0px)}93.57%{transform:translate(192px,0px)}95.12%{transform:translate(192px,96px)}96.66%{transform:translate(144px,48px)}97.69%{transform:translate(80px,48px)}98.46%{transform:translate(64px,16px)}98.71%{transform:translate(64px,0px)}98.97%{transform:translate(48px,0px)}99.23%{transform:translate(48px,-16px)}}.s.s1{transform:translate(16px,-16px);animation-name:s1}@keyframes s2{0%,99.74%{transform:translate(32px,-16px)}0.51%{transform:translate(0px,-16px)}0.77%{transform:translate(0px,0px)}2.06%{transform:translate(80px,0px)}2.57%{transform:translate(80px,32px)}3.08%{transform:translate(112px,32px)}3.6%{transform:translate(112px,64px)}4.63%{transform:translate(176px,64px)}5.4%{transform:translate(176px,16px)}5.91%{transform:translate(144px,16px)}6.17%{transform:translate(144px,32px)}7.2%{transform:translate(208px,32px)}7.71%{transform:translate(208px,64px)}8.48%{transform:translate(256px,64px)}8.74%{transform:translate(256px,48px)}9.51%{transform:translate(304px,48px)}9.77%{transform:translate(304px,32px)}10.54%,11.57%{transform:translate(352px,32px)}10.8%{transform:translate(352px,16px)}11.05%{transform:translate(336px,16px)}11.31%{transform:translate(336px,32px)}12.08%{transform:translate(352px,64px)}12.34%{transform:translate(336px,64px)}12.85%{transform:translate(336px,96px)}13.88%{transform:translate(272px,96px)}15.17%{transform:translate(272px,16px)}15.42%{transform:translate(256px,16px)}15.68%{transform:translate(256px,0px)}17.99%{transform:translate(400px,0px)}19.28%{transform:translate(400px,80px)}19.54%{transform:translate(384px,80px)}19.79%{transform:translate(384px,96px)}23.91%{transform:translate(640px,96px)}24.42%{transform:translate(640px,64px)}24.68%,41.13%{transform:translate(656px,64px)}24.94%{transform:translate(656px,48px)}25.19%{transform:translate(640px,48px)}25.45%,42.42%{transform:translate(640px,32px)}25.71%{transform:translate(624px,32px)}26.22%{transform:translate(624px,0px)}26.99%{transform:translate(672px,0px)}27.51%{transform:translate(672px,32px)}28.28%{transform:translate(720px,32px)}28.53%{transform:translate(720px,48px)}29.05%{transform:translate(752px,48px)}29.56%{transform:translate(752px,80px)}30.08%{transform:translate(720px,80px)}30.33%{transform:translate(720px,96px)}31.36%{transform:translate(784px,96px)}32.39%{transform:translate(784px,32px)}32.9%,45.24%{transform:translate(816px,32px)}33.16%{transform:translate(816px,16px)}33.68%{transform:translate(848px,16px)}34.7%{transform:translate(848px,80px)}34.96%{transform:translate(832px,80px)}35.48%{transform:translate(832px,112px)}35.99%{transform:translate(800px,112px)}36.5%,46.79%{transform:translate(800px,80px)}39.33%{transform:translate(624px,80px)}39.85%{transform:translate(624px,48px)}40.62%{transform:translate(672px,48px)}40.87%{transform:translate(672px,64px)}41.9%{transform:translate(656px,16px)}42.16%{transform:translate(640px,16px)}45.5%{transform:translate(816px,48px)}45.76%{transform:translate(832px,48px)}46.02%{transform:translate(832px,64px)}46.27%{transform:translate(816px,64px)}46.53%{transform:translate(816px,80px)}47.04%{transform:translate(800px,64px)}53.98%{transform:translate(368px,64px)}54.5%{transform:translate(368px,96px)}55.01%{transform:translate(400px,96px)}56.04%{transform:translate(400px,32px)}56.3%{transform:translate(384px,32px)}56.56%{transform:translate(384px,16px)}61.44%,98.46%{transform:translate(80px,16px)}62.21%{transform:translate(80px,64px)}62.47%{transform:translate(64px,64px)}62.98%{transform:translate(64px,32px)}63.5%{transform:translate(32px,32px)}63.75%{transform:translate(32px,48px)}66.32%{transform:translate(192px,48px)}66.58%{transform:translate(192px,64px)}67.35%{transform:translate(144px,64px)}67.87%,96.14%{transform:translate(144px,96px)}68.38%{transform:translate(176px,96px)}68.64%{transform:translate(176px,80px)}71.72%{transform:translate(368px,80px)}72.49%{transform:translate(368px,32px)}79.95%{transform:translate(832px,32px)}80.46%{transform:translate(832px,0px)}80.72%{transform:translate(816px,0px)}82.26%{transform:translate(816px,96px)}82.52%{transform:translate(800px,96px)}83.29%{transform:translate(800px,48px)}89.97%{transform:translate(384px,48px)}90.75%{transform:translate(384px,0px)}93.83%{transform:translate(192px,0px)}95.37%{transform:translate(192px,96px)}96.92%{transform:translate(144px,48px)}97.94%{transform:translate(80px,48px)}98.71%{transform:translate(64px,16px)}98.97%{transform:translate(64px,0px)}99.23%{transform:translate(48px,0px)}99.49%{transform:translate(48px,-16px)}}.s.s2{transform:translate(32px,-16px);animation-name:s2}@keyframes s3{0%,99.74%{transform:translate(48px,-16px)}0.77%{transform:translate(0px,-16px)}1.03%{transform:translate(0px,0px)}2.31%{transform:translate(80px,0px)}2.83%{transform:translate(80px,32px)}3.34%{transform:translate(112px,32px)}3.86%{transform:translate(112px,64px)}4.88%{transform:translate(176px,64px)}5.66%{transform:translate(176px,16px)}6.17%{transform:translate(144px,16px)}6.43%{transform:translate(144px,32px)}7.46%{transform:translate(208px,32px)}7.97%{transform:translate(208px,64px)}8.74%{transform:translate(256px,64px)}9%{transform:translate(256px,48px)}9.77%{transform:translate(304px,48px)}10.03%{transform:translate(304px,32px)}10.8%,11.83%{transform:translate(352px,32px)}11.05%{transform:translate(352px,16px)}11.31%{transform:translate(336px,16px)}11.57%{transform:translate(336px,32px)}12.34%{transform:translate(352px,64px)}12.6%{transform:translate(336px,64px)}13.11%{transform:translate(336px,96px)}14.14%{transform:translate(272px,96px)}15.42%{transform:translate(272px,16px)}15.68%{transform:translate(256px,16px)}15.94%{transform:translate(256px,0px)}18.25%{transform:translate(400px,0px)}19.54%{transform:translate(400px,80px)}19.79%{transform:translate(384px,80px)}20.05%{transform:translate(384px,96px)}24.16%{transform:translate(640px,96px)}24.68%{transform:translate(640px,64px)}24.94%,41.39%{transform:translate(656px,64px)}25.19%{transform:translate(656px,48px)}25.45%{transform:translate(640px,48px)}25.71%,42.67%{transform:translate(640px,32px)}25.96%{transform:translate(624px,32px)}26.48%{transform:translate(624px,0px)}27.25%{transform:translate(672px,0px)}27.76%{transform:translate(672px,32px)}28.53%{transform:translate(720px,32px)}28.79%{transform:translate(720px,48px)}29.31%{transform:translate(752px,48px)}29.82%{transform:translate(752px,80px)}30.33%{transform:translate(720px,80px)}30.59%{transform:translate(720px,96px)}31.62%{transform:translate(784px,96px)}32.65%{transform:translate(784px,32px)}33.16%,45.5%{transform:translate(816px,32px)}33.42%{transform:translate(816px,16px)}33.93%{transform:translate(848px,16px)}34.96%{transform:translate(848px,80px)}35.22%{transform:translate(832px,80px)}35.73%{transform:translate(832px,112px)}36.25%{transform:translate(800px,112px)}36.76%,47.04%{transform:translate(800px,80px)}39.59%{transform:translate(624px,80px)}40.1%{transform:translate(624px,48px)}40.87%{transform:translate(672px,48px)}41.13%{transform:translate(672px,64px)}42.16%{transform:translate(656px,16px)}42.42%{transform:translate(640px,16px)}45.76%{transform:translate(816px,48px)}46.02%{transform:translate(832px,48px)}46.27%{transform:translate(832px,64px)}46.53%{transform:translate(816px,64px)}46.79%{transform:translate(816px,80px)}47.3%{transform:translate(800px,64px)}54.24%{transform:translate(368px,64px)}54.76%{transform:translate(368px,96px)}55.27%{transform:translate(400px,96px)}56.3%{transform:translate(400px,32px)}56.56%{transform:translate(384px,32px)}56.81%{transform:translate(384px,16px)}61.7%,98.71%{transform:translate(80px,16px)}62.47%{transform:translate(80px,64px)}62.72%{transform:translate(64px,64px)}63.24%{transform:translate(64px,32px)}63.75%{transform:translate(32px,32px)}64.01%{transform:translate(32px,48px)}66.58%{transform:translate(192px,48px)}66.84%{transform:translate(192px,64px)}67.61%{transform:translate(144px,64px)}68.12%,96.4%{transform:translate(144px,96px)}68.64%{transform:translate(176px,96px)}68.89%{transform:translate(176px,80px)}71.98%{transform:translate(368px,80px)}72.75%{transform:translate(368px,32px)}80.21%{transform:translate(832px,32px)}80.72%{transform:translate(832px,0px)}80.98%{transform:translate(816px,0px)}82.52%{transform:translate(816px,96px)}82.78%{transform:translate(800px,96px)}83.55%{transform:translate(800px,48px)}90.23%{transform:translate(384px,48px)}91%{transform:translate(384px,0px)}94.09%{transform:translate(192px,0px)}95.63%{transform:translate(192px,96px)}97.17%{transform:translate(144px,48px)}98.2%{transform:translate(80px,48px)}98.97%{transform:translate(64px,16px)}99.23%{transform:translate(64px,0px)}99.49%{transform:translate(48px,0px)}}.s.s3{transform:translate(48px,-16px);animation-name:s3}</style><rect class="c" x="2" y="2" rx="2" ry="2"/><rect class="c" x="2" y="18" rx="2" ry="2"/><rect class="c" x="2" y="34" rx="2" ry="2"/><rect class="c" x="2" y="50" rx="2" ry="2"/><rect class="c" x="2" y="66" rx="2" ry="2"/><rect class="c" x="2" y="82" rx="2" ry="2"/><rect class="c" x="2" y="98" rx="2" ry="2"/><rect class="c" x="18" y="2" rx="2" ry="2"/><rect class="c" x="18" y="18" rx="2" ry="2"/><rect class="c" x="18" y="34" rx="2" ry="2"/><rect class="c" x="18" y="50" rx="2" ry="2"/><rect class="c" x="18" y="66" rx="2" ry="2"/><rect class="c" x="18" y="82" rx="2" ry="2"/><rect class="c" x="18" y="98" rx="2" ry="2"/><rect class="c" x="34" y="2" rx="2" ry="2"/><rect class="c" x="34" y="18" rx="2" ry="2"/><rect class="c c0" x="34" y="34" rx="2" ry="2"/><rect class="c" x="34" y="50" rx="2" ry="2"/><rect class="c" x="34" y="66" rx="2" ry="2"/><rect class="c" x="34" y="82" rx="2" ry="2"/><rect class="c" x="34" y="98" rx="2" ry="2"/><rect class="c" x="50" y="2" rx="2" ry="2"/><rect class="c" x="50" y="18" rx="2" ry="2"/><rect class="c" x="50" y="34" rx="2" ry="2"/><rect class="c" x="50" y="50" rx="2" ry="2"/><rect class="c" x="50" y="66" rx="2" ry="2"/><rect class="c" x="50" y="82" rx="2" ry="2"/><rect class="c" x="50" y="98" rx="2" ry="2"/><rect class="c" x="66" y="2" rx="2" ry="2"/><rect class="c" x="66" y="18" rx="2" ry="2"/><rect class="c" x="66" y="34" rx="2" ry="2"/><rect class="c" x="66" y="50" rx="2" ry="2"/><rect class="c" x="66" y="66" rx="2" ry="2"/><rect class="c" x="66" y="82" rx="2" ry="2"/><rect class="c" x="66" y="98" rx="2" ry="2"/><rect class="c" x="82" y="2" rx="2" ry="2"/><rect class="c c1" x="82" y="18" rx="2" ry="2"/><rect class="c c2" x="82" y="34" rx="2" ry="2"/><rect class="c c3" x="82" y="50" rx="2" ry="2"/><rect class="c c4" x="82" y="66" rx="2" ry="2"/><rect class="c" x="82" y="82" rx="2" ry="2"/><rect class="c" x="82" y="98" rx="2" ry="2"/><rect class="c" x="98" y="2" rx="2" ry="2"/><rect class="c" x="98" y="18" rx="2" ry="2"/><rect class="c" x="98" y="34" rx="2" ry="2"/><rect class="c" x="98" y="50" rx="2" ry="2"/><rect class="c" x="98" y="66" rx="2" ry="2"/><rect class="c" x="98" y="82" rx="2" ry="2"/><rect class="c" x="98" y="98" rx="2" ry="2"/><rect class="c" x="114" y="2" rx="2" ry="2"/><rect class="c" x="114" y="18" rx="2" ry="2"/><rect class="c" x="114" y="34" rx="2" ry="2"/><rect class="c" x="114" y="50" rx="2" ry="2"/><rect class="c c5" x="114" y="66" rx="2" ry="2"/><rect class="c" x="114" y="82" rx="2" ry="2"/><rect class="c" x="114" y="98" rx="2" ry="2"/><rect class="c" x="130" y="2" rx="2" ry="2"/><rect class="c c6" x="130" y="18" rx="2" ry="2"/><rect class="c" x="130" y="34" rx="2" ry="2"/><rect class="c" x="130" y="50" rx="2" ry="2"/><rect class="c" x="130" y="66" rx="2" ry="2"/><rect class="c" x="130" y="82" rx="2" ry="2"/><rect class="c" x="130" y="98" rx="2" ry="2"/><rect class="c" x="146" y="2" rx="2" ry="2"/><rect class="c c7" x="146" y="18" rx="2" ry="2"/><rect class="c" x="146" y="34" rx="2" ry="2"/><rect class="c" x="146" y="50" rx="2" ry="2"/><rect class="c" x="146" y="66" rx="2" ry="2"/><rect class="c" x="146" y="82" rx="2" ry="2"/><rect class="c c8" x="146" y="98" rx="2" ry="2"/><rect class="c" x="162" y="2" rx="2" ry="2"/><rect class="c" x="162" y="18" rx="2" ry="2"/><rect class="c" x="162" y="34" rx="2" ry="2"/><rect class="c" x="162" y="50" rx="2" ry="2"/><rect class="c" x="162" y="66" rx="2" ry="2"/><rect class="c" x="162" y="82" rx="2" ry="2"/><rect class="c" x="162" y="98" rx="2" ry="2"/><rect class="c" x="178" y="2" rx="2" ry="2"/><rect class="c" x="178" y="18" rx="2" ry="2"/><rect class="c" x="178" y="34" rx="2" ry="2"/><rect class="c c9" x="178" y="50" rx="2" ry="2"/><rect class="c ca" x="178" y="66" rx="2" ry="2"/><rect class="c" x="178" y="82" rx="2" ry="2"/><rect class="c" x="178" y="98" rx="2" ry="2"/><rect class="c" x="194" y="2" rx="2" ry="2"/><rect class="c" x="194" y="18" rx="2" ry="2"/><rect class="c" x="194" y="34" rx="2" ry="2"/><rect class="c cb" x="194" y="50" rx="2" ry="2"/><rect class="c" x="194" y="66" rx="2" ry="2"/><rect class="c" x="194" y="82" rx="2" ry="2"/><rect class="c cc" x="194" y="98" rx="2" ry="2"/><rect class="c cd" x="210" y="2" rx="2" ry="2"/><rect class="c" x="210" y="18" rx="2" ry="2"/><rect class="c" x="210" y="34" rx="2" ry="2"/><rect class="c" x="210" y="50" rx="2" ry="2"/><rect class="c ce" x="210" y="66" rx="2" ry="2"/><rect class="c" x="210" y="82" rx="2" ry="2"/><rect class="c" x="210" y="98" rx="2" ry="2"/><rect class="c" x="226" y="2" rx="2" ry="2"/><rect class="c" x="226" y="18" rx="2" ry="2"/><rect class="c" x="226" y="34" rx="2" ry="2"/><rect class="c" x="226" y="50" rx="2" ry="2"/><rect class="c" x="226" y="66" rx="2" ry="2"/><rect class="c" x="226" y="82" rx="2" ry="2"/><rect class="c" x="226" y="98" rx="2" ry="2"/><rect class="c" x="242" y="2" rx="2" ry="2"/><rect class="c" x="242" y="18" rx="2" ry="2"/><rect class="c" x="242" y="34" rx="2" ry="2"/><rect class="c" x="242" y="50" rx="2" ry="2"/><rect class="c cf" x="242" y="66" rx="2" ry="2"/><rect class="c" x="242" y="82" rx="2" ry="2"/><rect class="c" x="242" y="98" rx="2" ry="2"/><rect class="c" x="258" y="2" rx="2" ry="2"/><rect class="c cg" x="258" y="18" rx="2" ry="2"/><rect class="c" x="258" y="34" rx="2" ry="2"/><rect class="c ch" x="258" y="50" rx="2" ry="2"/><rect class="c" x="258" y="66" rx="2" ry="2"/><rect class="c" x="258" y="82" rx="2" ry="2"/><rect class="c" x="258" y="98" rx="2" ry="2"/><rect class="c" x="274" y="2" rx="2" ry="2"/><rect class="c" x="274" y="18" rx="2" ry="2"/><rect class="c" x="274" y="34" rx="2" ry="2"/><rect class="c ci" x="274" y="50" rx="2" ry="2"/><rect class="c" x="274" y="66" rx="2" ry="2"/><rect class="c" x="274" y="82" rx="2" ry="2"/><rect class="c cj" x="274" y="98" rx="2" ry="2"/><rect class="c" x="290" y="2" rx="2" ry="2"/><rect class="c" x="290" y="18" rx="2" ry="2"/><rect class="c" x="290" y="34" rx="2" ry="2"/><rect class="c" x="290" y="50" rx="2" ry="2"/><rect class="c" x="290" y="66" rx="2" ry="2"/><rect class="c" x="290" y="82" rx="2" ry="2"/><rect class="c" x="290" y="98" rx="2" ry="2"/><rect class="c" x="306" y="2" rx="2" ry="2"/><rect class="c" x="306" y="18" rx="2" ry="2"/><rect class="c ck" x="306" y="34" rx="2" ry="2"/><rect class="c" x="306" y="50" rx="2" ry="2"/><rect class="c" x="306" y="66" rx="2" ry="2"/><rect class="c" x="306" y="82" rx="2" ry="2"/><rect class="c" x="306" y="98" rx="2" ry="2"/><rect class="c" x="322" y="2" rx="2" ry="2"/><rect class="c" x="322" y="18" rx="2" ry="2"/><rect class="c" x="322" y="34" rx="2" ry="2"/><rect class="c" x="322" y="50" rx="2" ry="2"/><rect class="c" x="322" y="66" rx="2" ry="2"/><rect class="c" x="322" y="82" rx="2" ry="2"/><rect class="c" x="322" y="98" rx="2" ry="2"/><rect class="c" x="338" y="2" rx="2" ry="2"/><rect class="c" x="338" y="18" rx="2" ry="2"/><rect class="c" x="338" y="34" rx="2" ry="2"/><rect class="c" x="338" y="50" rx="2" ry="2"/><rect class="c" x="338" y="66" rx="2" ry="2"/><rect class="c" x="338" y="82" rx="2" ry="2"/><rect class="c cl" x="338" y="98" rx="2" ry="2"/><rect class="c" x="354" y="2" rx="2" ry="2"/><rect class="c cm" x="354" y="18" rx="2" ry="2"/><rect class="c cn" x="354" y="34" rx="2" ry="2"/><rect class="c" x="354" y="50" rx="2" ry="2"/><rect class="c co" x="354" y="66" rx="2" ry="2"/><rect class="c" x="354" y="82" rx="2" ry="2"/><rect class="c" x="354" y="98" rx="2" ry="2"/><rect class="c" x="370" y="2" rx="2" ry="2"/><rect class="c" x="370" y="18" rx="2" ry="2"/><rect class="c cp" x="370" y="34" rx="2" ry="2"/><rect class="c" x="370" y="50" rx="2" ry="2"/><rect class="c" x="370" y="66" rx="2" ry="2"/><rect class="c cq" x="370" y="82" rx="2" ry="2"/><rect class="c cr" x="370" y="98" rx="2" ry="2"/><rect class="c" x="386" y="2" rx="2" ry="2"/><rect class="c cs" x="386" y="18" rx="2" ry="2"/><rect class="c ct" x="386" y="34" rx="2" ry="2"/><rect class="c cu" x="386" y="50" rx="2" ry="2"/><rect class="c cv" x="386" y="66" rx="2" ry="2"/><rect class="c cw" x="386" y="82" rx="2" ry="2"/><rect class="c" x="386" y="98" rx="2" ry="2"/><rect class="c" x="402" y="2" rx="2" ry="2"/><rect class="c" x="402" y="18" rx="2" ry="2"/><rect class="c" x="402" y="34" rx="2" ry="2"/><rect class="c" x="402" y="50" rx="2" ry="2"/><rect class="c" x="402" y="66" rx="2" ry="2"/><rect class="c" x="402" y="82" rx="2" ry="2"/><rect class="c" x="402" y="98" rx="2" ry="2"/><rect class="c" x="418" y="2" rx="2" ry="2"/><rect class="c" x="418" y="18" rx="2" ry="2"/><rect class="c" x="418" y="34" rx="2" ry="2"/><rect class="c" x="418" y="50" rx="2" ry="2"/><rect class="c" x="418" y="66" rx="2" ry="2"/><rect class="c" x="418" y="82" rx="2" ry="2"/><rect class="c" x="418" y="98" rx="2" ry="2"/><rect class="c" x="434" y="2" rx="2" ry="2"/><rect class="c" x="434" y="18" rx="2" ry="2"/><rect class="c" x="434" y="34" rx="2" ry="2"/><rect class="c" x="434" y="50" rx="2" ry="2"/><rect class="c" x="434" y="66" rx="2" ry="2"/><rect class="c" x="434" y="82" rx="2" ry="2"/><rect class="c" x="434" y="98" rx="2" ry="2"/><rect class="c" x="450" y="2" rx="2" ry="2"/><rect class="c" x="450" y="18" rx="2" ry="2"/><rect class="c" x="450" y="34" rx="2" ry="2"/><rect class="c" x="450" y="50" rx="2" ry="2"/><rect class="c" x="450" y="66" rx="2" ry="2"/><rect class="c" x="450" y="82" rx="2" ry="2"/><rect class="c" x="450" y="98" rx="2" ry="2"/><rect class="c" x="466" y="2" rx="2" ry="2"/><rect class="c" x="466" y="18" rx="2" ry="2"/><rect class="c" x="466" y="34" rx="2" ry="2"/><rect class="c" x="466" y="50" rx="2" ry="2"/><rect class="c" x="466" y="66" rx="2" ry="2"/><rect class="c" x="466" y="82" rx="2" ry="2"/><rect class="c" x="466" y="98" rx="2" ry="2"/><rect class="c" x="482" y="2" rx="2" ry="2"/><rect class="c" x="482" y="18" rx="2" ry="2"/><rect class="c" x="482" y="34" rx="2" ry="2"/><rect class="c" x="482" y="50" rx="2" ry="2"/><rect class="c" x="482" y="66" rx="2" ry="2"/><rect class="c" x="482" y="82" rx="2" ry="2"/><rect class="c" x="482" y="98" rx="2" ry="2"/><rect class="c" x="498" y="2" rx="2" ry="2"/><rect class="c" x="498" y="18" rx="2" ry="2"/><rect class="c" x="498" y="34" rx="2" ry="2"/><rect class="c" x="498" y="50" rx="2" ry="2"/><rect class="c" x="498" y="66" rx="2" ry="2"/><rect class="c" x="498" y="82" rx="2" ry="2"/><rect class="c" x="498" y="98" rx="2" ry="2"/><rect class="c" x="514" y="2" rx="2" ry="2"/><rect class="c" x="514" y="18" rx="2" ry="2"/><rect class="c" x="514" y="34" rx="2" ry="2"/><rect class="c" x="514" y="50" rx="2" ry="2"/><rect class="c" x="514" y="66" rx="2" ry="2"/><rect class="c" x="514" y="82" rx="2" ry="2"/><rect class="c" x="514" y="98" rx="2" ry="2"/><rect class="c" x="530" y="2" rx="2" ry="2"/><rect class="c" x="530" y="18" rx="2" ry="2"/><rect class="c" x="530" y="34" rx="2" ry="2"/><rect class="c" x="530" y="50" rx="2" ry="2"/><rect class="c" x="530" y="66" rx="2" ry="2"/><rect class="c" x="530" y="82" rx="2" ry="2"/><rect class="c" x="530" y="98" rx="2" ry="2"/><rect class="c" x="546" y="2" rx="2" ry="2"/><rect class="c" x="546" y="18" rx="2" ry="2"/><rect class="c" x="546" y="34" rx="2" ry="2"/><rect class="c" x="546" y="50" rx="2" ry="2"/><rect class="c" x="546" y="66" rx="2" ry="2"/><rect class="c" x="546" y="82" rx="2" ry="2"/><rect class="c" x="546" y="98" rx="2" ry="2"/><rect class="c" x="562" y="2" rx="2" ry="2"/><rect class="c" x="562" y="18" rx="2" ry="2"/><rect class="c" x="562" y="34" rx="2" ry="2"/><rect class="c" x="562" y="50" rx="2" ry="2"/><rect class="c" x="562" y="66" rx="2" ry="2"/><rect class="c" x="562" y="82" rx="2" ry="2"/><rect class="c" x="562" y="98" rx="2" ry="2"/><rect class="c" x="578" y="2" rx="2" ry="2"/><rect class="c" x="578" y="18" rx="2" ry="2"/><rect class="c" x="578" y="34" rx="2" ry="2"/><rect class="c" x="578" y="50" rx="2" ry="2"/><rect class="c" x="578" y="66" rx="2" ry="2"/><rect class="c" x="578" y="82" rx="2" ry="2"/><rect class="c" x="578" y="98" rx="2" ry="2"/><rect class="c" x="594" y="2" rx="2" ry="2"/><rect class="c" x="594" y="18" rx="2" ry="2"/><rect class="c" x="594" y="34" rx="2" ry="2"/><rect class="c" x="594" y="50" rx="2" ry="2"/><rect class="c" x="594" y="66" rx="2" ry="2"/><rect class="c" x="594" y="82" rx="2" ry="2"/><rect class="c" x="594" y="98" rx="2" ry="2"/><rect class="c" x="610" y="2" rx="2" ry="2"/><rect class="c" x="610" y="18" rx="2" ry="2"/><rect class="c" x="610" y="34" rx="2" ry="2"/><rect class="c" x="610" y="50" rx="2" ry="2"/><rect class="c" x="610" y="66" rx="2" ry="2"/><rect class="c" x="610" y="82" rx="2" ry="2"/><rect class="c" x="610" y="98" rx="2" ry="2"/><rect class="c" x="626" y="2" rx="2" ry="2"/><rect class="c cx" x="626" y="18" rx="2" ry="2"/><rect class="c cy" x="626" y="34" rx="2" ry="2"/><rect class="c cz" x="626" y="50" rx="2" ry="2"/><rect class="c c10" x="626" y="66" rx="2" ry="2"/><rect class="c c11" x="626" y="82" rx="2" ry="2"/><rect class="c" x="626" y="98" rx="2" ry="2"/><rect class="c c12" x="642" y="2" rx="2" ry="2"/><rect class="c c13" x="642" y="18" rx="2" ry="2"/><rect class="c c14" x="642" y="34" rx="2" ry="2"/><rect class="c c15" x="642" y="50" rx="2" ry="2"/><rect class="c c16" x="642" y="66" rx="2" ry="2"/><rect class="c" x="642" y="82" rx="2" ry="2"/><rect class="c c17" x="642" y="98" rx="2" ry="2"/><rect class="c" x="658" y="2" rx="2" ry="2"/><rect class="c" x="658" y="18" rx="2" ry="2"/><rect class="c" x="658" y="34" rx="2" ry="2"/><rect class="c c18" x="658" y="50" rx="2" ry="2"/><rect class="c c19" x="658" y="66" rx="2" ry="2"/><rect class="c" x="658" y="82" rx="2" ry="2"/><rect class="c" x="658" y="98" rx="2" ry="2"/><rect class="c" x="674" y="2" rx="2" ry="2"/><rect class="c c1a" x="674" y="18" rx="2" ry="2"/><rect class="c c1b" x="674" y="34" rx="2" ry="2"/><rect class="c c1c" x="674" y="50" rx="2" ry="2"/><rect class="c c1d" x="674" y="66" rx="2" ry="2"/><rect class="c" x="674" y="82" rx="2" ry="2"/><rect class="c" x="674" y="98" rx="2" ry="2"/><rect class="c" x="690" y="2" rx="2" ry="2"/><rect class="c" x="690" y="18" rx="2" ry="2"/><rect class="c" x="690" y="34" rx="2" ry="2"/><rect class="c" x="690" y="50" rx="2" ry="2"/><rect class="c" x="690" y="66" rx="2" ry="2"/><rect class="c" x="690" y="82" rx="2" ry="2"/><rect class="c" x="690" y="98" rx="2" ry="2"/><rect class="c" x="706" y="2" rx="2" ry="2"/><rect class="c" x="706" y="18" rx="2" ry="2"/><rect class="c" x="706" y="34" rx="2" ry="2"/><rect class="c" x="706" y="50" rx="2" ry="2"/><rect class="c" x="706" y="66" rx="2" ry="2"/><rect class="c" x="706" y="82" rx="2" ry="2"/><rect class="c" x="706" y="98" rx="2" ry="2"/><rect class="c" x="722" y="2" rx="2" ry="2"/><rect class="c" x="722" y="18" rx="2" ry="2"/><rect class="c" x="722" y="34" rx="2" ry="2"/><rect class="c c1e" x="722" y="50" rx="2" ry="2"/><rect class="c" x="722" y="66" rx="2" ry="2"/><rect class="c c1f" x="722" y="82" rx="2" ry="2"/><rect class="c c1g" x="722" y="98" rx="2" ry="2"/><rect class="c" x="738" y="2" rx="2" ry="2"/><rect class="c" x="738" y="18" rx="2" ry="2"/><rect class="c" x="738" y="34" rx="2" ry="2"/><rect class="c" x="738" y="50" rx="2" ry="2"/><rect class="c" x="738" y="66" rx="2" ry="2"/><rect class="c" x="738" y="82" rx="2" ry="2"/><rect class="c c1h" x="738" y="98" rx="2" ry="2"/><rect class="c" x="754" y="2" rx="2" ry="2"/><rect class="c" x="754" y="18" rx="2" ry="2"/><rect class="c" x="754" y="34" rx="2" ry="2"/><rect class="c c1i" x="754" y="50" rx="2" ry="2"/><rect class="c c1j" x="754" y="66" rx="2" ry="2"/><rect class="c c1k" x="754" y="82" rx="2" ry="2"/><rect class="c" x="754" y="98" rx="2" ry="2"/><rect class="c" x="770" y="2" rx="2" ry="2"/><rect class="c" x="770" y="18" rx="2" ry="2"/><rect class="c" x="770" y="34" rx="2" ry="2"/><rect class="c" x="770" y="50" rx="2" ry="2"/><rect class="c" x="770" y="66" rx="2" ry="2"/><rect class="c" x="770" y="82" rx="2" ry="2"/><rect class="c" x="770" y="98" rx="2" ry="2"/><rect class="c" x="786" y="2" rx="2" ry="2"/><rect class="c" x="786" y="18" rx="2" ry="2"/><rect class="c c1l" x="786" y="34" rx="2" ry="2"/><rect class="c" x="786" y="50" rx="2" ry="2"/><rect class="c" x="786" y="66" rx="2" ry="2"/><rect class="c" x="786" y="82" rx="2" ry="2"/><rect class="c" x="786" y="98" rx="2" ry="2"/><rect class="c" x="802" y="2" rx="2" ry="2"/><rect class="c" x="802" y="18" rx="2" ry="2"/><rect class="c" x="802" y="34" rx="2" ry="2"/><rect class="c" x="802" y="50" rx="2" ry="2"/><rect class="c" x="802" y="66" rx="2" ry="2"/><rect class="c" x="802" y="82" rx="2" ry="2"/><rect class="c" x="802" y="98" rx="2" ry="2"/><rect class="c" x="818" y="2" rx="2" ry="2"/><rect class="c" x="818" y="18" rx="2" ry="2"/><rect class="c" x="818" y="34" rx="2" ry="2"/><rect class="c" x="818" y="50" rx="2" ry="2"/><rect class="c" x="818" y="66" rx="2" ry="2"/><rect class="c c1m" x="818" y="82" rx="2" ry="2"/><rect class="c c1n" x="818" y="98" rx="2" ry="2"/><rect class="c c1o" x="834" y="2" rx="2" ry="2"/><rect class="c c1p" x="834" y="18" rx="2" ry="2"/><rect class="c c1q" x="834" y="34" rx="2" ry="2"/><rect class="c c1r" x="834" y="50" rx="2" ry="2"/><rect class="c c1s" x="834" y="66" rx="2" ry="2"/><rect class="c c1t" x="834" y="82" rx="2" ry="2"/><rect class="c" x="834" y="98" rx="2" ry="2"/><rect class="u u0" height="12" width="540.2" x="0.0" y="144"/><rect class="u u1" height="12" width="180.5" x="539.6" y="144"/><rect class="u u2" height="12" width="90.5" x="719.5" y="144"/><rect class="u u3" height="12" width="39.1" x="809.5" y="144"/><rect class="s s0" x="0.8" y="0.8" width="14.4" height="14.4" rx="4.5" ry="4.5"/><rect class="s s1" x="1.8" y="1.8" width="12.3" height="12.3" rx="4.1" ry="4.1"/><rect class="s s2" x="2.6" y="2.6" width="10.8" height="10.8" rx="3.6" ry="3.6"/><rect class="s s3" x="3.0" y="3.0" width="9.9" height="9.9" rx="3.3" ry="3.3"/></svg>