<svg viewBox="-16 -32 880 192" width="880" height="192" xmlns="http://www.w3.org/2000/svg"><desc>Generated with https://github.com/Platane/snk</desc><style>:root{--cb:#1b1f230a;--cs:purple;--ce:#ebedf0;--c0:#ebedf0;--c1:#9be9a8;--c2:#40c463;--c3:#30a14e;--c4:#216e39}.c{shape-rendering:geometricPrecision;fill:var(--ce);stroke-width:1px;stroke:var(--cb);animation:none 23500ms linear infinite;width:12px;height:12px}@keyframes c0{13.61%{fill:var(--c1)}13.63%,100%{fill:var(--ce)}}.c.c0{fill:var(--c1);animation-name:c0}@keyframes c1{65.95%{fill:var(--c1)}65.97%,100%{fill:var(--ce)}}.c.c1{fill:var(--c1);animation-name:c1}@keyframes c2{66.37%{fill:var(--c1)}66.39%,100%{fill:var(--ce)}}.c.c2{fill:var(--c1);animation-name:c2}@keyframes c3{17.01%{fill:var(--c1)}17.03%,100%{fill:var(--ce)}}.c.c3{fill:var(--c1);animation-name:c3}@keyframes c4{63.82%{fill:var(--c1)}63.84%,100%{fill:var(--ce)}}.c.c4{fill:var(--c1);animation-name:c4}@keyframes c5{64.25%{fill:var(--c1)}64.27%,100%{fill:var(--ce)}}.c.c5{fill:var(--c1);animation-name:c5}@keyframes c6{22.12%{fill:var(--c1)}22.14%,100%{fill:var(--ce)}}.c.c6{fill:var(--c1);animation-name:c6}@keyframes c7{21.69%{fill:var(--c1)}21.71%,100%{fill:var(--ce)}}.c.c7{fill:var(--c1);animation-name:c7}@keyframes c8{21.27%{fill:var(--c1)}21.29%,100%{fill:var(--ce)}}.c.c8{fill:var(--c1);animation-name:c8}@keyframes c9{17.44%{fill:var(--c1)}17.46%,100%{fill:var(--ce)}}.c.c9{fill:var(--c1);animation-name:c9}@keyframes ca{23.82%{fill:var(--c1)}23.84%,100%{fill:var(--ce)}}.c.ca{fill:var(--c1);animation-name:ca}@keyframes cb{23.39%{fill:var(--c1)}23.41%,100%{fill:var(--ce)}}.c.cb{fill:var(--c1);animation-name:cb}@keyframes cc{22.97%{fill:var(--c1)}22.99%,100%{fill:var(--ce)}}.c.cc{fill:var(--c1);animation-name:cc}@keyframes cd{22.54%{fill:var(--c1)}22.56%,100%{fill:var(--ce)}}.c.cd{fill:var(--c1);animation-name:cd}@keyframes ce{17.86%{fill:var(--c1)}17.88%,100%{fill:var(--ce)}}.c.ce{fill:var(--c1);animation-name:ce}@keyframes cf{24.25%{fill:var(--c1)}24.27%,100%{fill:var(--ce)}}.c.cf{fill:var(--c1);animation-name:cf}@keyframes cg{20.42%{fill:var(--c1)}20.44%,100%{fill:var(--ce)}}.c.cg{fill:var(--c1);animation-name:cg}@keyframes ch{18.29%{fill:var(--c1)}18.31%,100%{fill:var(--ce)}}.c.ch{fill:var(--c1);animation-name:ch}@keyframes ci{26.37%{fill:var(--c1)}26.39%,100%{fill:var(--ce)}}.c.ci{fill:var(--c1);animation-name:ci}@keyframes cj{26.8%{fill:var(--c1)}26.82%,100%{fill:var(--ce)}}.c.cj{fill:var(--c1);animation-name:cj}@keyframes ck{68.93%{fill:var(--c2)}68.95%,100%{fill:var(--ce)}}.c.ck{fill:var(--c2);animation-name:ck}@keyframes cl{19.99%{fill:var(--c1)}20.01%,100%{fill:var(--ce)}}.c.cl{fill:var(--c1);animation-name:cl}@keyframes cm{18.71%{fill:var(--c1)}18.73%,100%{fill:var(--ce)}}.c.cm{fill:var(--c1);animation-name:cm}@keyframes cn{25.1%{fill:var(--c1)}25.12%,100%{fill:var(--ce)}}.c.cn{fill:var(--c1);animation-name:cn}@keyframes co{25.52%{fill:var(--c1)}25.54%,100%{fill:var(--ce)}}.c.co{fill:var(--c1);animation-name:co}@keyframes cp{25.95%{fill:var(--c1)}25.97%,100%{fill:var(--ce)}}.c.cp{fill:var(--c1);animation-name:cp}@keyframes cq{27.22%{fill:var(--c1)}27.24%,100%{fill:var(--ce)}}.c.cq{fill:var(--c1);animation-name:cq}@keyframes cr{19.56%{fill:var(--c1)}19.58%,100%{fill:var(--ce)}}.c.cr{fill:var(--c1);animation-name:cr}@keyframes cs{19.14%{fill:var(--c1)}19.16%,100%{fill:var(--ce)}}.c.cs{fill:var(--c1);animation-name:cs}@keyframes ct{27.65%{fill:var(--c1)}27.67%,100%{fill:var(--ce)}}.c.ct{fill:var(--c1);animation-name:ct}@keyframes cu{52.76%{fill:var(--c1)}52.78%,100%{fill:var(--ce)}}.c.cu{fill:var(--c1);animation-name:cu}@keyframes cv{28.5%{fill:var(--c1)}28.52%,100%{fill:var(--ce)}}.c.cv{fill:var(--c1);animation-name:cv}@keyframes cw{28.08%{fill:var(--c1)}28.1%,100%{fill:var(--ce)}}.c.cw{fill:var(--c1);animation-name:cw}@keyframes cx{52.33%{fill:var(--c1)}52.35%,100%{fill:var(--ce)}}.c.cx{fill:var(--c1);animation-name:cx}@keyframes cy{59.99%{fill:var(--c1)}60.01%,100%{fill:var(--ce)}}.c.cy{fill:var(--c1);animation-name:cy}@keyframes cz{29.78%{fill:var(--c1)}29.8%,100%{fill:var(--ce)}}.c.cz{fill:var(--c1);animation-name:cz}@keyframes c10{71.05%{fill:var(--c2)}71.07%,100%{fill:var(--ce)}}.c.c10{fill:var(--c2);animation-name:c10}@keyframes c11{51.05%{fill:var(--c1)}51.07%,100%{fill:var(--ce)}}.c.c11{fill:var(--c1);animation-name:c11}@keyframes c12{30.2%{fill:var(--c1)}30.22%,100%{fill:var(--ce)}}.c.c12{fill:var(--c1);animation-name:c12}@keyframes c13{45.52%{fill:var(--c1)}45.54%,100%{fill:var(--ce)}}.c.c13{fill:var(--c1);animation-name:c13}@keyframes c14{55.73%{fill:var(--c1)}55.75%,100%{fill:var(--ce)}}.c.c14{fill:var(--c1);animation-name:c14}@keyframes c15{44.67%{fill:var(--c1)}44.69%,100%{fill:var(--ce)}}.c.c15{fill:var(--c1);animation-name:c15}@keyframes c16{45.95%{fill:var(--c1)}45.97%,100%{fill:var(--ce)}}.c.c16{fill:var(--c1);animation-name:c16}@keyframes c17{49.78%{fill:var(--c1)}49.8%,100%{fill:var(--ce)}}.c.c17{fill:var(--c1);animation-name:c17}@keyframes c18{57.01%{fill:var(--c1)}57.03%,100%{fill:var(--ce)}}.c.c18{fill:var(--c1);animation-name:c18}@keyframes c19{56.59%{fill:var(--c1)}56.61%,100%{fill:var(--ce)}}.c.c19{fill:var(--c1);animation-name:c19}@keyframes c1a{31.05%{fill:var(--c1)}31.07%,100%{fill:var(--ce)}}.c.c1a{fill:var(--c1);animation-name:c1a}@keyframes c1b{44.25%{fill:var(--c1)}44.27%,100%{fill:var(--ce)}}.c.c1b{fill:var(--c1);animation-name:c1b}@keyframes c1c{46.37%{fill:var(--c1)}46.39%,100%{fill:var(--ce)}}.c.c1c{fill:var(--c1);animation-name:c1c}@keyframes c1d{49.35%{fill:var(--c1)}49.37%,100%{fill:var(--ce)}}.c.c1d{fill:var(--c1);animation-name:c1d}@keyframes c1e{57.44%{fill:var(--c1)}57.46%,100%{fill:var(--ce)}}.c.c1e{fill:var(--c1);animation-name:c1e}@keyframes c1f{32.33%{fill:var(--c1)}32.35%,100%{fill:var(--ce)}}.c.c1f{fill:var(--c1);animation-name:c1f}@keyframes c1g{31.48%{fill:var(--c1)}31.5%,100%{fill:var(--ce)}}.c.c1g{fill:var(--c1);animation-name:c1g}@keyframes c1h{43.82%{fill:var(--c1)}43.84%,100%{fill:var(--ce)}}.c.c1h{fill:var(--c1);animation-name:c1h}@keyframes c1i{46.8%{fill:var(--c1)}46.82%,100%{fill:var(--ce)}}.c.c1i{fill:var(--c1);animation-name:c1i}@keyframes c1j{48.93%{fill:var(--c1)}48.95%,100%{fill:var(--ce)}}.c.c1j{fill:var(--c1);animation-name:c1j}@keyframes c1k{32.76%{fill:var(--c1)}32.78%,100%{fill:var(--ce)}}.c.c1k{fill:var(--c1);animation-name:c1k}@keyframes c1l{47.22%{fill:var(--c1)}47.24%,100%{fill:var(--ce)}}.c.c1l{fill:var(--c1);animation-name:c1l}@keyframes c1m{33.18%{fill:var(--c1)}33.2%,100%{fill:var(--ce)}}.c.c1m{fill:var(--c1);animation-name:c1m}@keyframes c1n{47.65%{fill:var(--c1)}47.67%,100%{fill:var(--ce)}}.c.c1n{fill:var(--c1);animation-name:c1n}@keyframes c1o{48.08%{fill:var(--c1)}48.1%,100%{fill:var(--ce)}}.c.c1o{fill:var(--c1);animation-name:c1o}@keyframes c1p{34.03%{fill:var(--c1)}34.05%,100%{fill:var(--ce)}}.c.c1p{fill:var(--c1);animation-name:c1p}@keyframes c1q{76.16%{fill:var(--c2)}76.18%,100%{fill:var(--ce)}}.c.c1q{fill:var(--c2);animation-name:c1q}@keyframes c1r{74.88%{fill:var(--c2)}74.9%,100%{fill:var(--ce)}}.c.c1r{fill:var(--c2);animation-name:c1r}@keyframes c1s{42.54%{fill:var(--c1)}42.56%,100%{fill:var(--ce)}}.c.c1s{fill:var(--c1);animation-name:c1s}@keyframes c1t{42.12%{fill:var(--c1)}42.14%,100%{fill:var(--ce)}}.c.c1t{fill:var(--c1);animation-name:c1t}@keyframes c1u{41.69%{fill:var(--c1)}41.71%,100%{fill:var(--ce)}}.c.c1u{fill:var(--c1);animation-name:c1u}@keyframes c1v{34.46%{fill:var(--c1)}34.48%,100%{fill:var(--ce)}}.c.c1v{fill:var(--c1);animation-name:c1v}@keyframes c1w{75.73%{fill:var(--c2)}75.75%,100%{fill:var(--ce)}}.c.c1w{fill:var(--c2);animation-name:c1w}@keyframes c1x{75.31%{fill:var(--c2)}75.33%,100%{fill:var(--ce)}}.c.c1x{fill:var(--c2);animation-name:c1x}@keyframes c1y{39.14%{fill:var(--c1)}39.16%,100%{fill:var(--ce)}}.c.c1y{fill:var(--c1);animation-name:c1y}@keyframes c1z{39.56%{fill:var(--c1)}39.58%,100%{fill:var(--ce)}}.c.c1z{fill:var(--c1);animation-name:c1z}@keyframes c20{41.27%{fill:var(--c1)}41.29%,100%{fill:var(--ce)}}.c.c20{fill:var(--c1);animation-name:c20}@keyframes c21{77.44%{fill:var(--c4)}77.46%,100%{fill:var(--ce)}}.c.c21{fill:var(--c4);animation-name:c21}@keyframes c22{37.01%{fill:var(--c1)}37.03%,100%{fill:var(--ce)}}.c.c22{fill:var(--c1);animation-name:c22}@keyframes c23{37.44%{fill:var(--c1)}37.46%,100%{fill:var(--ce)}}.c.c23{fill:var(--c1);animation-name:c23}@keyframes c24{38.71%{fill:var(--c1)}38.73%,100%{fill:var(--ce)}}.c.c24{fill:var(--c1);animation-name:c24}@keyframes c25{39.99%{fill:var(--c1)}40.01%,100%{fill:var(--ce)}}.c.c25{fill:var(--c1);animation-name:c25}@keyframes c26{40.84%{fill:var(--c1)}40.86%,100%{fill:var(--ce)}}.c.c26{fill:var(--c1);animation-name:c26}@keyframes c27{36.16%{fill:var(--c1)}36.18%,100%{fill:var(--ce)}}.c.c27{fill:var(--c1);animation-name:c27}@keyframes c28{36.59%{fill:var(--c1)}36.61%,100%{fill:var(--ce)}}.c.c28{fill:var(--c1);animation-name:c28}@keyframes c29{37.86%{fill:var(--c1)}37.88%,100%{fill:var(--ce)}}.c.c29{fill:var(--c1);animation-name:c29}@keyframes c2a{38.29%{fill:var(--c1)}38.31%,100%{fill:var(--ce)}}.c.c2a{fill:var(--c1);animation-name:c2a}.u{transform-origin:0 0;transform:scale(0,1);animation:none linear 23500ms infinite}@keyframes u0{13.61%{transform:scale(0.000,1)}13.63%,17.01%{transform:scale(0.013,1)}17.03%,17.44%{transform:scale(0.026,1)}17.46%,17.86%{transform:scale(0.039,1)}17.88%,18.29%{transform:scale(0.053,1)}18.31%,18.71%{transform:scale(0.066,1)}18.73%,19.14%{transform:scale(0.079,1)}19.16%,19.56%{transform:scale(0.092,1)}19.58%,19.99%{transform:scale(0.105,1)}20.01%,20.42%{transform:scale(0.118,1)}20.44%,21.27%{transform:scale(0.132,1)}21.29%,21.69%{transform:scale(0.145,1)}21.71%,22.12%{transform:scale(0.158,1)}22.14%,22.54%{transform:scale(0.171,1)}22.56%,22.97%{transform:scale(0.184,1)}22.99%,23.39%{transform:scale(0.197,1)}23.41%,23.82%{transform:scale(0.211,1)}23.84%,24.25%{transform:scale(0.224,1)}24.27%,25.1%{transform:scale(0.237,1)}25.12%,25.52%{transform:scale(0.250,1)}25.54%,25.95%{transform:scale(0.263,1)}25.97%,26.37%{transform:scale(0.276,1)}26.39%,26.8%{transform:scale(0.289,1)}26.82%,27.22%{transform:scale(0.303,1)}27.24%,27.65%{transform:scale(0.316,1)}27.67%,28.08%{transform:scale(0.329,1)}28.1%,28.5%{transform:scale(0.342,1)}28.52%,29.78%{transform:scale(0.355,1)}29.8%,30.2%{transform:scale(0.368,1)}30.22%,31.05%{transform:scale(0.382,1)}31.07%,31.48%{transform:scale(0.395,1)}31.5%,32.33%{transform:scale(0.408,1)}32.35%,32.76%{transform:scale(0.421,1)}32.78%,33.18%{transform:scale(0.434,1)}33.2%,34.03%{transform:scale(0.447,1)}34.05%,34.46%{transform:scale(0.461,1)}34.48%,36.16%{transform:scale(0.474,1)}36.18%,36.59%{transform:scale(0.487,1)}36.61%,37.01%{transform:scale(0.500,1)}37.03%,37.44%{transform:scale(0.513,1)}37.46%,37.86%{transform:scale(0.526,1)}37.88%,38.29%{transform:scale(0.539,1)}38.31%,38.71%{transform:scale(0.553,1)}38.73%,39.14%{transform:scale(0.566,1)}39.16%,39.56%{transform:scale(0.579,1)}39.58%,39.99%{transform:scale(0.592,1)}40.01%,40.84%{transform:scale(0.605,1)}40.86%,41.27%{transform:scale(0.618,1)}41.29%,41.69%{transform:scale(0.632,1)}41.71%,42.12%{transform:scale(0.645,1)}42.14%,42.54%{transform:scale(0.658,1)}42.56%,43.82%{transform:scale(0.671,1)}43.84%,44.25%{transform:scale(0.684,1)}44.27%,44.67%{transform:scale(0.697,1)}44.69%,45.52%{transform:scale(0.711,1)}45.54%,45.95%{transform:scale(0.724,1)}45.97%,46.37%{transform:scale(0.737,1)}46.39%,46.8%{transform:scale(0.750,1)}46.82%,47.22%{transform:scale(0.763,1)}47.24%,47.65%{transform:scale(0.776,1)}47.67%,48.08%{transform:scale(0.789,1)}48.1%,48.93%{transform:scale(0.803,1)}48.95%,49.35%{transform:scale(0.816,1)}49.37%,49.78%{transform:scale(0.829,1)}49.8%,51.05%{transform:scale(0.842,1)}51.07%,52.33%{transform:scale(0.855,1)}52.35%,52.76%{transform:scale(0.868,1)}52.78%,55.73%{transform:scale(0.882,1)}55.75%,56.59%{transform:scale(0.895,1)}56.61%,57.01%{transform:scale(0.908,1)}57.03%,57.44%{transform:scale(0.921,1)}57.46%,59.99%{transform:scale(0.934,1)}60.01%,63.82%{transform:scale(0.947,1)}63.84%,64.25%{transform:scale(0.961,1)}64.27%,65.95%{transform:scale(0.974,1)}65.97%,66.37%{transform:scale(0.987,1)}66.39%,100%{transform:scale(1.000,1)}}.u.u0{fill:var(--c1);animation-name:u0;transform-origin:0.0px 0}@keyframes u1{68.93%{transform:scale(0.000,1)}68.95%,71.05%{transform:scale(0.167,1)}71.07%,74.88%{transform:scale(0.333,1)}74.9%,75.31%{transform:scale(0.500,1)}75.33%,75.73%{transform:scale(0.667,1)}75.75%,76.16%{transform:scale(0.833,1)}76.18%,100%{transform:scale(1.000,1)}}.u.u1{fill:var(--c2);animation-name:u1;transform-origin:776.5px 0}@keyframes u2{77.44%{transform:scale(0.000,1)}77.46%,100%{transform:scale(1.000,1)}}.u.u2{fill:var(--c4);animation-name:u2;transform-origin:837.8px 0}.s{shape-rendering:geometricPrecision;fill:var(--cs);animation:none linear 23500ms infinite}@keyframes s0{0%,99.57%{transform:translate(0px,-16px)}0.43%{transform:translate(0px,0px)}11.06%{transform:translate(400px,0px)}13.62%{transform:translate(400px,96px)}19.15%{transform:translate(608px,96px)}19.57%{transform:translate(608px,80px)}21.28%{transform:translate(544px,80px)}22.13%{transform:translate(544px,48px)}22.55%{transform:translate(560px,48px)}23.83%{transform:translate(560px,0px)}25.11%{transform:translate(608px,0px)}25.96%{transform:translate(608px,32px)}26.38%{transform:translate(592px,32px)}26.81%{transform:translate(592px,48px)}28.09%{transform:translate(640px,48px)}28.51%{transform:translate(640px,32px)}29.36%{transform:translate(672px,32px)}29.79%{transform:translate(672px,48px)}31.49%{transform:translate(736px,48px)}32.34%{transform:translate(736px,16px)}33.19%{transform:translate(768px,16px)}33.62%{transform:translate(768px,0px)}34.47%{transform:translate(800px,0px)}34.89%{transform:translate(800px,-16px)}35.74%{transform:translate(832px,-16px)}36.6%{transform:translate(832px,16px)}37.02%{transform:translate(816px,16px)}37.45%{transform:translate(816px,32px)}37.87%{transform:translate(832px,32px)}38.3%{transform:translate(832px,48px)}39.15%{transform:translate(800px,48px)}39.57%{transform:translate(800px,64px)}40%{transform:translate(816px,64px)}40.85%{transform:translate(816px,96px)}41.7%{transform:translate(784px,96px)}42.55%,74.04%{transform:translate(784px,64px)}45.11%{transform:translate(688px,64px)}45.53%{transform:translate(688px,80px)}47.66%{transform:translate(768px,80px)}48.09%{transform:translate(768px,96px)}49.79%{transform:translate(704px,96px)}50.21%{transform:translate(704px,80px)}51.49%{transform:translate(656px,80px)}51.91%{transform:translate(656px,64px)}52.77%{transform:translate(624px,64px)}53.19%{transform:translate(624px,48px)}55.32%{transform:translate(704px,48px)}55.74%{transform:translate(704px,32px)}56.17%{transform:translate(720px,32px)}57.02%{transform:translate(720px,0px)}57.45%{transform:translate(736px,0px)}57.87%{transform:translate(736px,-16px)}59.57%{transform:translate(672px,-16px)}60%{transform:translate(672px,0px)}63.4%{transform:translate(544px,0px)}64.26%{transform:translate(544px,32px)}65.11%{transform:translate(512px,32px)}66.38%{transform:translate(512px,80px)}68.51%{transform:translate(592px,80px)}68.94%{transform:translate(592px,64px)}74.89%{transform:translate(784px,32px)}75.32%{transform:translate(800px,32px)}75.74%{transform:translate(800px,16px)}76.17%{transform:translate(784px,16px)}76.6%{transform:translate(784px,0px)}77.45%{transform:translate(816px,0px)}77.87%{transform:translate(816px,-16px)}}.s.s0{transform:translate(0px,-16px);animation-name:s0}@keyframes s1{0%,99.57%{transform:translate(16px,-16px)}0.43%{transform:translate(0px,-16px)}0.85%{transform:translate(0px,0px)}11.49%{transform:translate(400px,0px)}14.04%{transform:translate(400px,96px)}19.57%{transform:translate(608px,96px)}20%{transform:translate(608px,80px)}21.7%{transform:translate(544px,80px)}22.55%{transform:translate(544px,48px)}22.98%{transform:translate(560px,48px)}24.26%{transform:translate(560px,0px)}25.53%{transform:translate(608px,0px)}26.38%{transform:translate(608px,32px)}26.81%{transform:translate(592px,32px)}27.23%{transform:translate(592px,48px)}28.51%{transform:translate(640px,48px)}28.94%{transform:translate(640px,32px)}29.79%{transform:translate(672px,32px)}30.21%{transform:translate(672px,48px)}31.91%{transform:translate(736px,48px)}32.77%{transform:translate(736px,16px)}33.62%{transform:translate(768px,16px)}34.04%{transform:translate(768px,0px)}34.89%{transform:translate(800px,0px)}35.32%{transform:translate(800px,-16px)}36.17%{transform:translate(832px,-16px)}37.02%{transform:translate(832px,16px)}37.45%{transform:translate(816px,16px)}37.87%{transform:translate(816px,32px)}38.3%{transform:translate(832px,32px)}38.72%{transform:translate(832px,48px)}39.57%{transform:translate(800px,48px)}40%{transform:translate(800px,64px)}40.43%{transform:translate(816px,64px)}41.28%{transform:translate(816px,96px)}42.13%{transform:translate(784px,96px)}42.98%,74.47%{transform:translate(784px,64px)}45.53%{transform:translate(688px,64px)}45.96%{transform:translate(688px,80px)}48.09%{transform:translate(768px,80px)}48.51%{transform:translate(768px,96px)}50.21%{transform:translate(704px,96px)}50.64%{transform:translate(704px,80px)}51.91%{transform:translate(656px,80px)}52.34%{transform:translate(656px,64px)}53.19%{transform:translate(624px,64px)}53.62%{transform:translate(624px,48px)}55.74%{transform:translate(704px,48px)}56.17%{transform:translate(704px,32px)}56.6%{transform:translate(720px,32px)}57.45%{transform:translate(720px,0px)}57.87%{transform:translate(736px,0px)}58.3%{transform:translate(736px,-16px)}60%{transform:translate(672px,-16px)}60.43%{transform:translate(672px,0px)}63.83%{transform:translate(544px,0px)}64.68%{transform:translate(544px,32px)}65.53%{transform:translate(512px,32px)}66.81%{transform:translate(512px,80px)}68.94%{transform:translate(592px,80px)}69.36%{transform:translate(592px,64px)}75.32%{transform:translate(784px,32px)}75.74%{transform:translate(800px,32px)}76.17%{transform:translate(800px,16px)}76.6%{transform:translate(784px,16px)}77.02%{transform:translate(784px,0px)}77.87%{transform:translate(816px,0px)}78.3%{transform:translate(816px,-16px)}}.s.s1{transform:translate(16px,-16px);animation-name:s1}@keyframes s2{0%,99.57%{transform:translate(32px,-16px)}0.85%{transform:translate(0px,-16px)}1.28%{transform:translate(0px,0px)}11.91%{transform:translate(400px,0px)}14.47%{transform:translate(400px,96px)}20%{transform:translate(608px,96px)}20.43%{transform:translate(608px,80px)}22.13%{transform:translate(544px,80px)}22.98%{transform:translate(544px,48px)}23.4%{transform:translate(560px,48px)}24.68%{transform:translate(560px,0px)}25.96%{transform:translate(608px,0px)}26.81%{transform:translate(608px,32px)}27.23%{transform:translate(592px,32px)}27.66%{transform:translate(592px,48px)}28.94%{transform:translate(640px,48px)}29.36%{transform:translate(640px,32px)}30.21%{transform:translate(672px,32px)}30.64%{transform:translate(672px,48px)}32.34%{transform:translate(736px,48px)}33.19%{transform:translate(736px,16px)}34.04%{transform:translate(768px,16px)}34.47%{transform:translate(768px,0px)}35.32%{transform:translate(800px,0px)}35.74%{transform:translate(800px,-16px)}36.6%{transform:translate(832px,-16px)}37.45%{transform:translate(832px,16px)}37.87%{transform:translate(816px,16px)}38.3%{transform:translate(816px,32px)}38.72%{transform:translate(832px,32px)}39.15%{transform:translate(832px,48px)}40%{transform:translate(800px,48px)}40.43%{transform:translate(800px,64px)}40.85%{transform:translate(816px,64px)}41.7%{transform:translate(816px,96px)}42.55%{transform:translate(784px,96px)}43.4%,74.89%{transform:translate(784px,64px)}45.96%{transform:translate(688px,64px)}46.38%{transform:translate(688px,80px)}48.51%{transform:translate(768px,80px)}48.94%{transform:translate(768px,96px)}50.64%{transform:translate(704px,96px)}51.06%{transform:translate(704px,80px)}52.34%{transform:translate(656px,80px)}52.77%{transform:translate(656px,64px)}53.62%{transform:translate(624px,64px)}54.04%{transform:translate(624px,48px)}56.17%{transform:translate(704px,48px)}56.6%{transform:translate(704px,32px)}57.02%{transform:translate(720px,32px)}57.87%{transform:translate(720px,0px)}58.3%{transform:translate(736px,0px)}58.72%{transform:translate(736px,-16px)}60.43%{transform:translate(672px,-16px)}60.85%{transform:translate(672px,0px)}64.26%{transform:translate(544px,0px)}65.11%{transform:translate(544px,32px)}65.96%{transform:translate(512px,32px)}67.23%{transform:translate(512px,80px)}69.36%{transform:translate(592px,80px)}69.79%{transform:translate(592px,64px)}75.74%{transform:translate(784px,32px)}76.17%{transform:translate(800px,32px)}76.6%{transform:translate(800px,16px)}77.02%{transform:translate(784px,16px)}77.45%{transform:translate(784px,0px)}78.3%{transform:translate(816px,0px)}78.72%{transform:translate(816px,-16px)}}.s.s2{transform:translate(32px,-16px);animation-name:s2}@keyframes s3{0%,99.57%{transform:translate(48px,-16px)}1.28%{transform:translate(0px,-16px)}1.7%{transform:translate(0px,0px)}12.34%{transform:translate(400px,0px)}14.89%{transform:translate(400px,96px)}20.43%{transform:translate(608px,96px)}20.85%{transform:translate(608px,80px)}22.55%{transform:translate(544px,80px)}23.4%{transform:translate(544px,48px)}23.83%{transform:translate(560px,48px)}25.11%{transform:translate(560px,0px)}26.38%{transform:translate(608px,0px)}27.23%{transform:translate(608px,32px)}27.66%{transform:translate(592px,32px)}28.09%{transform:translate(592px,48px)}29.36%{transform:translate(640px,48px)}29.79%{transform:translate(640px,32px)}30.64%{transform:translate(672px,32px)}31.06%{transform:translate(672px,48px)}32.77%{transform:translate(736px,48px)}33.62%{transform:translate(736px,16px)}34.47%{transform:translate(768px,16px)}34.89%{transform:translate(768px,0px)}35.74%{transform:translate(800px,0px)}36.17%{transform:translate(800px,-16px)}37.02%{transform:translate(832px,-16px)}37.87%{transform:translate(832px,16px)}38.3%{transform:translate(816px,16px)}38.72%{transform:translate(816px,32px)}39.15%{transform:translate(832px,32px)}39.57%{transform:translate(832px,48px)}40.43%{transform:translate(800px,48px)}40.85%{transform:translate(800px,64px)}41.28%{transform:translate(816px,64px)}42.13%{transform:translate(816px,96px)}42.98%{transform:translate(784px,96px)}43.83%,75.32%{transform:translate(784px,64px)}46.38%{transform:translate(688px,64px)}46.81%{transform:translate(688px,80px)}48.94%{transform:translate(768px,80px)}49.36%{transform:translate(768px,96px)}51.06%{transform:translate(704px,96px)}51.49%{transform:translate(704px,80px)}52.77%{transform:translate(656px,80px)}53.19%{transform:translate(656px,64px)}54.04%{transform:translate(624px,64px)}54.47%{transform:translate(624px,48px)}56.6%{transform:translate(704px,48px)}57.02%{transform:translate(704px,32px)}57.45%{transform:translate(720px,32px)}58.3%{transform:translate(720px,0px)}58.72%{transform:translate(736px,0px)}59.15%{transform:translate(736px,-16px)}60.85%{transform:translate(672px,-16px)}61.28%{transform:translate(672px,0px)}64.68%{transform:translate(544px,0px)}65.53%{transform:translate(544px,32px)}66.38%{transform:translate(512px,32px)}67.66%{transform:translate(512px,80px)}69.79%{transform:translate(592px,80px)}70.21%{transform:translate(592px,64px)}76.17%{transform:translate(784px,32px)}76.6%{transform:translate(800px,32px)}77.02%{transform:translate(800px,16px)}77.45%{transform:translate(784px,16px)}77.87%{transform:translate(784px,0px)}78.72%{transform:translate(816px,0px)}79.15%{transform:translate(816px,-16px)}}.s.s3{transform:translate(48px,-16px);animation-name:s3}</style><rect class="c" x="2" y="2" rx="2" ry="2"/><rect class="c" x="2" y="18" rx="2" ry="2"/><rect class="c" x="2" y="34" rx="2" ry="2"/><rect class="c" x="2" y="50" rx="2" ry="2"/><rect class="c" x="2" y="66" rx="2" ry="2"/><rect class="c" x="2" y="82" rx="2" ry="2"/><rect class="c" x="2" y="98" rx="2" ry="2"/><rect class="c" x="18" y="2" rx="2" ry="2"/><rect class="c" x="18" y="18" rx="2" ry="2"/><rect class="c" x="18" y="34" rx="2" ry="2"/><rect class="c" x="18" y="50" rx="2" ry="2"/><rect class="c" x="18" y="66" rx="2" ry="2"/><rect class="c" x="18" y="82" rx="2" ry="2"/><rect class="c" x="18" y="98" rx="2" ry="2"/><rect class="c" x="34" y="2" rx="2" ry="2"/><rect class="c" x="34" y="18" rx="2" ry="2"/><rect class="c" x="34" y="34" rx="2" ry="2"/><rect class="c" x="34" y="50" rx="2" ry="2"/><rect class="c" x="34" y="66" rx="2" ry="2"/><rect class="c" x="34" y="82" rx="2" ry="2"/><rect class="c" x="34" y="98" rx="2" ry="2"/><rect class="c" x="50" y="2" rx="2" ry="2"/><rect class="c" x="50" y="18" rx="2" ry="2"/><rect class="c" x="50" y="34" rx="2" ry="2"/><rect class="c" x="50" y="50" rx="2" ry="2"/><rect class="c" x="50" y="66" rx="2" ry="2"/><rect class="c" x="50" y="82" rx="2" ry="2"/><rect class="c" x="50" y="98" rx="2" ry="2"/><rect class="c" x="66" y="2" rx="2" ry="2"/><rect class="c" x="66" y="18" rx="2" ry="2"/><rect class="c" x="66" y="34" rx="2" ry="2"/><rect class="c" x="66" y="50" rx="2" ry="2"/><rect class="c" x="66" y="66" rx="2" ry="2"/><rect class="c" x="66" y="82" rx="2" ry="2"/><rect class="c" x="66" y="98" rx="2" ry="2"/><rect class="c" x="82" y="2" rx="2" ry="2"/><rect class="c" x="82" y="18" rx="2" ry="2"/><rect class="c" x="82" y="34" rx="2" ry="2"/><rect class="c" x="82" y="50" rx="2" ry="2"/><rect class="c" x="82" y="66" rx="2" ry="2"/><rect class="c" x="82" y="82" rx="2" ry="2"/><rect class="c" x="82" y="98" rx="2" ry="2"/><rect class="c" x="98" y="2" rx="2" ry="2"/><rect class="c" x="98" y="18" rx="2" ry="2"/><rect class="c" x="98" y="34" rx="2" ry="2"/><rect class="c" x="98" y="50" rx="2" ry="2"/><rect class="c" x="98" y="66" rx="2" ry="2"/><rect class="c" x="98" y="82" rx="2" ry="2"/><rect class="c" x="98" y="98" rx="2" ry="2"/><rect class="c" x="114" y="2" rx="2" ry="2"/><rect class="c" x="114" y="18" rx="2" ry="2"/><rect class="c" x="114" y="34" rx="2" ry="2"/><rect class="c" x="114" y="50" rx="2" ry="2"/><rect class="c" x="114" y="66" rx="2" ry="2"/><rect class="c" x="114" y="82" rx="2" ry="2"/><rect class="c" x="114" y="98" rx="2" ry="2"/><rect class="c" x="130" y="2" rx="2" ry="2"/><rect class="c" x="130" y="18" rx="2" ry="2"/><rect class="c" x="130" y="34" rx="2" ry="2"/><rect class="c" x="130" y="50" rx="2" ry="2"/><rect class="c" x="130" y="66" rx="2" ry="2"/><rect class="c" x="130" y="82" rx="2" ry="2"/><rect class="c" x="130" y="98" rx="2" ry="2"/><rect class="c" x="146" y="2" rx="2" ry="2"/><rect class="c" x="146" y="18" rx="2" ry="2"/><rect class="c" x="146" y="34" rx="2" ry="2"/><rect class="c" x="146" y="50" rx="2" ry="2"/><rect class="c" x="146" y="66" rx="2" ry="2"/><rect class="c" x="146" y="82" rx="2" ry="2"/><rect class="c" x="146" y="98" rx="2" ry="2"/><rect class="c" x="162" y="2" rx="2" ry="2"/><rect class="c" x="162" y="18" rx="2" ry="2"/><rect class="c" x="162" y="34" rx="2" ry="2"/><rect class="c" x="162" y="50" rx="2" ry="2"/><rect class="c" x="162" y="66" rx="2" ry="2"/><rect class="c" x="162" y="82" rx="2" ry="2"/><rect class="c" x="162" y="98" rx="2" ry="2"/><rect class="c" x="178" y="2" rx="2" ry="2"/><rect class="c" x="178" y="18" rx="2" ry="2"/><rect class="c" x="178" y="34" rx="2" ry="2"/><rect class="c" x="178" y="50" rx="2" ry="2"/><rect class="c" x="178" y="66" rx="2" ry="2"/><rect class="c" x="178" y="82" rx="2" ry="2"/><rect class="c" x="178" y="98" rx="2" ry="2"/><rect class="c" x="194" y="2" rx="2" ry="2"/><rect class="c" x="194" y="18" rx="2" ry="2"/><rect class="c" x="194" y="34" rx="2" ry="2"/><rect class="c" x="194" y="50" rx="2" ry="2"/><rect class="c" x="194" y="66" rx="2" ry="2"/><rect class="c" x="194" y="82" rx="2" ry="2"/><rect class="c" x="194" y="98" rx="2" ry="2"/><rect class="c" x="210" y="2" rx="2" ry="2"/><rect class="c" x="210" y="18" rx="2" ry="2"/><rect class="c" x="210" y="34" rx="2" ry="2"/><rect class="c" x="210" y="50" rx="2" ry="2"/><rect class="c" x="210" y="66" rx="2" ry="2"/><rect class="c" x="210" y="82" rx="2" ry="2"/><rect class="c" x="210" y="98" rx="2" ry="2"/><rect class="c" x="226" y="2" rx="2" ry="2"/><rect class="c" x="226" y="18" rx="2" ry="2"/><rect class="c" x="226" y="34" rx="2" ry="2"/><rect class="c" x="226" y="50" rx="2" ry="2"/><rect class="c" x="226" y="66" rx="2" ry="2"/><rect class="c" x="226" y="82" rx="2" ry="2"/><rect class="c" x="226" y="98" rx="2" ry="2"/><rect class="c" x="242" y="2" rx="2" ry="2"/><rect class="c" x="242" y="18" rx="2" ry="2"/><rect class="c" x="242" y="34" rx="2" ry="2"/><rect class="c" x="242" y="50" rx="2" ry="2"/><rect class="c" x="242" y="66" rx="2" ry="2"/><rect class="c" x="242" y="82" rx="2" ry="2"/><rect class="c" x="242" y="98" rx="2" ry="2"/><rect class="c" x="258" y="2" rx="2" ry="2"/><rect class="c" x="258" y="18" rx="2" ry="2"/><rect class="c" x="258" y="34" rx="2" ry="2"/><rect class="c" x="258" y="50" rx="2" ry="2"/><rect class="c" x="258" y="66" rx="2" ry="2"/><rect class="c" x="258" y="82" rx="2" ry="2"/><rect class="c" x="258" y="98" rx="2" ry="2"/><rect class="c" x="274" y="2" rx="2" ry="2"/><rect class="c" x="274" y="18" rx="2" ry="2"/><rect class="c" x="274" y="34" rx="2" ry="2"/><rect class="c" x="274" y="50" rx="2" ry="2"/><rect class="c" x="274" y="66" rx="2" ry="2"/><rect class="c" x="274" y="82" rx="2" ry="2"/><rect class="c" x="274" y="98" rx="2" ry="2"/><rect class="c" x="290" y="2" rx="2" ry="2"/><rect class="c" x="290" y="18" rx="2" ry="2"/><rect class="c" x="290" y="34" rx="2" ry="2"/><rect class="c" x="290" y="50" rx="2" ry="2"/><rect class="c" x="290" y="66" rx="2" ry="2"/><rect class="c" x="290" y="82" rx="2" ry="2"/><rect class="c" x="290" y="98" rx="2" ry="2"/><rect class="c" x="306" y="2" rx="2" ry="2"/><rect class="c" x="306" y="18" rx="2" ry="2"/><rect class="c" x="306" y="34" rx="2" ry="2"/><rect class="c" x="306" y="50" rx="2" ry="2"/><rect class="c" x="306" y="66" rx="2" ry="2"/><rect class="c" x="306" y="82" rx="2" ry="2"/><rect class="c" x="306" y="98" rx="2" ry="2"/><rect class="c" x="322" y="2" rx="2" ry="2"/><rect class="c" x="322" y="18" rx="2" ry="2"/><rect class="c" x="322" y="34" rx="2" ry="2"/><rect class="c" x="322" y="50" rx="2" ry="2"/><rect class="c" x="322" y="66" rx="2" ry="2"/><rect class="c" x="322" y="82" rx="2" ry="2"/><rect class="c" x="322" y="98" rx="2" ry="2"/><rect class="c" x="338" y="2" rx="2" ry="2"/><rect class="c" x="338" y="18" rx="2" ry="2"/><rect class="c" x="338" y="34" rx="2" ry="2"/><rect class="c" x="338" y="50" rx="2" ry="2"/><rect class="c" x="338" y="66" rx="2" ry="2"/><rect class="c" x="338" y="82" rx="2" ry="2"/><rect class="c" x="338" y="98" rx="2" ry="2"/><rect class="c" x="354" y="2" rx="2" ry="2"/><rect class="c" x="354" y="18" rx="2" ry="2"/><rect class="c" x="354" y="34" rx="2" ry="2"/><rect class="c" x="354" y="50" rx="2" ry="2"/><rect class="c" x="354" y="66" rx="2" ry="2"/><rect class="c" x="354" y="82" rx="2" ry="2"/><rect class="c" x="354" y="98" rx="2" ry="2"/><rect class="c" x="370" y="2" rx="2" ry="2"/><rect class="c" x="370" y="18" rx="2" ry="2"/><rect class="c" x="370" y="34" rx="2" ry="2"/><rect class="c" x="370" y="50" rx="2" ry="2"/><rect class="c" x="370" y="66" rx="2" ry="2"/><rect class="c" x="370" y="82" rx="2" ry="2"/><rect class="c" x="370" y="98" rx="2" ry="2"/><rect class="c" x="386" y="2" rx="2" ry="2"/><rect class="c" x="386" y="18" rx="2" ry="2"/><rect class="c" x="386" y="34" rx="2" ry="2"/><rect class="c" x="386" y="50" rx="2" ry="2"/><rect class="c" x="386" y="66" rx="2" ry="2"/><rect class="c" x="386" y="82" rx="2" ry="2"/><rect class="c" x="386" y="98" rx="2" ry="2"/><rect class="c" x="402" y="2" rx="2" ry="2"/><rect class="c" x="402" y="18" rx="2" ry="2"/><rect class="c" x="402" y="34" rx="2" ry="2"/><rect class="c" x="402" y="50" rx="2" ry="2"/><rect class="c" x="402" y="66" rx="2" ry="2"/><rect class="c" x="402" y="82" rx="2" ry="2"/><rect class="c c0" x="402" y="98" rx="2" ry="2"/><rect class="c" x="418" y="2" rx="2" ry="2"/><rect class="c" x="418" y="18" rx="2" ry="2"/><rect class="c" x="418" y="34" rx="2" ry="2"/><rect class="c" x="418" y="50" rx="2" ry="2"/><rect class="c" x="418" y="66" rx="2" ry="2"/><rect class="c" x="418" y="82" rx="2" ry="2"/><rect class="c" x="418" y="98" rx="2" ry="2"/><rect class="c" x="434" y="2" rx="2" ry="2"/><rect class="c" x="434" y="18" rx="2" ry="2"/><rect class="c" x="434" y="34" rx="2" ry="2"/><rect class="c" x="434" y="50" rx="2" ry="2"/><rect class="c" x="434" y="66" rx="2" ry="2"/><rect class="c" x="434" y="82" rx="2" ry="2"/><rect class="c" x="434" y="98" rx="2" ry="2"/><rect class="c" x="450" y="2" rx="2" ry="2"/><rect class="c" x="450" y="18" rx="2" ry="2"/><rect class="c" x="450" y="34" rx="2" ry="2"/><rect class="c" x="450" y="50" rx="2" ry="2"/><rect class="c" x="450" y="66" rx="2" ry="2"/><rect class="c" x="450" y="82" rx="2" ry="2"/><rect class="c" x="450" y="98" rx="2" ry="2"/><rect class="c" x="466" y="2" rx="2" ry="2"/><rect class="c" x="466" y="18" rx="2" ry="2"/><rect class="c" x="466" y="34" rx="2" ry="2"/><rect class="c" x="466" y="50" rx="2" ry="2"/><rect class="c" x="466" y="66" rx="2" ry="2"/><rect class="c" x="466" y="82" rx="2" ry="2"/><rect class="c" x="466" y="98" rx="2" ry="2"/><rect class="c" x="482" y="2" rx="2" ry="2"/><rect class="c" x="482" y="18" rx="2" ry="2"/><rect class="c" x="482" y="34" rx="2" ry="2"/><rect class="c" x="482" y="50" rx="2" ry="2"/><rect class="c" x="482" y="66" rx="2" ry="2"/><rect class="c" x="482" y="82" rx="2" ry="2"/><rect class="c" x="482" y="98" rx="2" ry="2"/><rect class="c" x="498" y="2" rx="2" ry="2"/><rect class="c" x="498" y="18" rx="2" ry="2"/><rect class="c" x="498" y="34" rx="2" ry="2"/><rect class="c" x="498" y="50" rx="2" ry="2"/><rect class="c" x="498" y="66" rx="2" ry="2"/><rect class="c" x="498" y="82" rx="2" ry="2"/><rect class="c" x="498" y="98" rx="2" ry="2"/><rect class="c" x="514" y="2" rx="2" ry="2"/><rect class="c" x="514" y="18" rx="2" ry="2"/><rect class="c" x="514" y="34" rx="2" ry="2"/><rect class="c" x="514" y="50" rx="2" ry="2"/><rect class="c c1" x="514" y="66" rx="2" ry="2"/><rect class="c c2" x="514" y="82" rx="2" ry="2"/><rect class="c" x="514" y="98" rx="2" ry="2"/><rect class="c" x="530" y="2" rx="2" ry="2"/><rect class="c" x="530" y="18" rx="2" ry="2"/><rect class="c" x="530" y="34" rx="2" ry="2"/><rect class="c" x="530" y="50" rx="2" ry="2"/><rect class="c" x="530" y="66" rx="2" ry="2"/><rect class="c" x="530" y="82" rx="2" ry="2"/><rect class="c c3" x="530" y="98" rx="2" ry="2"/><rect class="c" x="546" y="2" rx="2" ry="2"/><rect class="c c4" x="546" y="18" rx="2" ry="2"/><rect class="c c5" x="546" y="34" rx="2" ry="2"/><rect class="c c6" x="546" y="50" rx="2" ry="2"/><rect class="c c7" x="546" y="66" rx="2" ry="2"/><rect class="c c8" x="546" y="82" rx="2" ry="2"/><rect class="c c9" x="546" y="98" rx="2" ry="2"/><rect class="c ca" x="562" y="2" rx="2" ry="2"/><rect class="c cb" x="562" y="18" rx="2" ry="2"/><rect class="c cc" x="562" y="34" rx="2" ry="2"/><rect class="c cd" x="562" y="50" rx="2" ry="2"/><rect class="c" x="562" y="66" rx="2" ry="2"/><rect class="c" x="562" y="82" rx="2" ry="2"/><rect class="c ce" x="562" y="98" rx="2" ry="2"/><rect class="c cf" x="578" y="2" rx="2" ry="2"/><rect class="c" x="578" y="18" rx="2" ry="2"/><rect class="c" x="578" y="34" rx="2" ry="2"/><rect class="c" x="578" y="50" rx="2" ry="2"/><rect class="c" x="578" y="66" rx="2" ry="2"/><rect class="c cg" x="578" y="82" rx="2" ry="2"/><rect class="c ch" x="578" y="98" rx="2" ry="2"/><rect class="c" x="594" y="2" rx="2" ry="2"/><rect class="c" x="594" y="18" rx="2" ry="2"/><rect class="c ci" x="594" y="34" rx="2" ry="2"/><rect class="c cj" x="594" y="50" rx="2" ry="2"/><rect class="c ck" x="594" y="66" rx="2" ry="2"/><rect class="c cl" x="594" y="82" rx="2" ry="2"/><rect class="c cm" x="594" y="98" rx="2" ry="2"/><rect class="c cn" x="610" y="2" rx="2" ry="2"/><rect class="c co" x="610" y="18" rx="2" ry="2"/><rect class="c cp" x="610" y="34" rx="2" ry="2"/><rect class="c cq" x="610" y="50" rx="2" ry="2"/><rect class="c" x="610" y="66" rx="2" ry="2"/><rect class="c cr" x="610" y="82" rx="2" ry="2"/><rect class="c cs" x="610" y="98" rx="2" ry="2"/><rect class="c" x="626" y="2" rx="2" ry="2"/><rect class="c" x="626" y="18" rx="2" ry="2"/><rect class="c" x="626" y="34" rx="2" ry="2"/><rect class="c ct" x="626" y="50" rx="2" ry="2"/><rect class="c cu" x="626" y="66" rx="2" ry="2"/><rect class="c" x="626" y="82" rx="2" ry="2"/><rect class="c" x="626" y="98" rx="2" ry="2"/><rect class="c" x="642" y="2" rx="2" ry="2"/><rect class="c" x="642" y="18" rx="2" ry="2"/><rect class="c cv" x="642" y="34" rx="2" ry="2"/><rect class="c cw" x="642" y="50" rx="2" ry="2"/><rect class="c cx" x="642" y="66" rx="2" ry="2"/><rect class="c" x="642" y="82" rx="2" ry="2"/><rect class="c" x="642" y="98" rx="2" ry="2"/><rect class="c" x="658" y="2" rx="2" ry="2"/><rect class="c" x="658" y="18" rx="2" ry="2"/><rect class="c" x="658" y="34" rx="2" ry="2"/><rect class="c" x="658" y="50" rx="2" ry="2"/><rect class="c" x="658" y="66" rx="2" ry="2"/><rect class="c" x="658" y="82" rx="2" ry="2"/><rect class="c" x="658" y="98" rx="2" ry="2"/><rect class="c cy" x="674" y="2" rx="2" ry="2"/><rect class="c" x="674" y="18" rx="2" ry="2"/><rect class="c" x="674" y="34" rx="2" ry="2"/><rect class="c cz" x="674" y="50" rx="2" ry="2"/><rect class="c c10" x="674" y="66" rx="2" ry="2"/><rect class="c c11" x="674" y="82" rx="2" ry="2"/><rect class="c" x="674" y="98" rx="2" ry="2"/><rect class="c" x="690" y="2" rx="2" ry="2"/><rect class="c" x="690" y="18" rx="2" ry="2"/><rect class="c" x="690" y="34" rx="2" ry="2"/><rect class="c c12" x="690" y="50" rx="2" ry="2"/><rect class="c" x="690" y="66" rx="2" ry="2"/><rect class="c c13" x="690" y="82" rx="2" ry="2"/><rect class="c" x="690" y="98" rx="2" ry="2"/><rect class="c" x="706" y="2" rx="2" ry="2"/><rect class="c" x="706" y="18" rx="2" ry="2"/><rect class="c c14" x="706" y="34" rx="2" ry="2"/><rect class="c" x="706" y="50" rx="2" ry="2"/><rect class="c c15" x="706" y="66" rx="2" ry="2"/><rect class="c c16" x="706" y="82" rx="2" ry="2"/><rect class="c c17" x="706" y="98" rx="2" ry="2"/><rect class="c c18" x="722" y="2" rx="2" ry="2"/><rect class="c c19" x="722" y="18" rx="2" ry="2"/><rect class="c" x="722" y="34" rx="2" ry="2"/><rect class="c c1a" x="722" y="50" rx="2" ry="2"/><rect class="c c1b" x="722" y="66" rx="2" ry="2"/><rect class="c c1c" x="722" y="82" rx="2" ry="2"/><rect class="c c1d" x="722" y="98" rx="2" ry="2"/><rect class="c c1e" x="738" y="2" rx="2" ry="2"/><rect class="c c1f" x="738" y="18" rx="2" ry="2"/><rect class="c" x="738" y="34" rx="2" ry="2"/><rect class="c c1g" x="738" y="50" rx="2" ry="2"/><rect class="c c1h" x="738" y="66" rx="2" ry="2"/><rect class="c c1i" x="738" y="82" rx="2" ry="2"/><rect class="c c1j" x="738" y="98" rx="2" ry="2"/><rect class="c" x="754" y="2" rx="2" ry="2"/><rect class="c c1k" x="754" y="18" rx="2" ry="2"/><rect class="c" x="754" y="34" rx="2" ry="2"/><rect class="c" x="754" y="50" rx="2" ry="2"/><rect class="c" x="754" y="66" rx="2" ry="2"/><rect class="c c1l" x="754" y="82" rx="2" ry="2"/><rect class="c" x="754" y="98" rx="2" ry="2"/><rect class="c" x="770" y="2" rx="2" ry="2"/><rect class="c c1m" x="770" y="18" rx="2" ry="2"/><rect class="c" x="770" y="34" rx="2" ry="2"/><rect class="c" x="770" y="50" rx="2" ry="2"/><rect class="c" x="770" y="66" rx="2" ry="2"/><rect class="c c1n" x="770" y="82" rx="2" ry="2"/><rect class="c c1o" x="770" y="98" rx="2" ry="2"/><rect class="c c1p" x="786" y="2" rx="2" ry="2"/><rect class="c c1q" x="786" y="18" rx="2" ry="2"/><rect class="c c1r" x="786" y="34" rx="2" ry="2"/><rect class="c" x="786" y="50" rx="2" ry="2"/><rect class="c c1s" x="786" y="66" rx="2" ry="2"/><rect class="c c1t" x="786" y="82" rx="2" ry="2"/><rect class="c c1u" x="786" y="98" rx="2" ry="2"/><rect class="c c1v" x="802" y="2" rx="2" ry="2"/><rect class="c c1w" x="802" y="18" rx="2" ry="2"/><rect class="c c1x" x="802" y="34" rx="2" ry="2"/><rect class="c c1y" x="802" y="50" rx="2" ry="2"/><rect class="c c1z" x="802" y="66" rx="2" ry="2"/><rect class="c" x="802" y="82" rx="2" ry="2"/><rect class="c c20" x="802" y="98" rx="2" ry="2"/><rect class="c c21" x="818" y="2" rx="2" ry="2"/><rect class="c c22" x="818" y="18" rx="2" ry="2"/><rect class="c c23" x="818" y="34" rx="2" ry="2"/><rect class="c c24" x="818" y="50" rx="2" ry="2"/><rect class="c c25" x="818" y="66" rx="2" ry="2"/><rect class="c" x="818" y="82" rx="2" ry="2"/><rect class="c c26" x="818" y="98" rx="2" ry="2"/><rect class="c c27" x="834" y="2" rx="2" ry="2"/><rect class="c c28" x="834" y="18" rx="2" ry="2"/><rect class="c c29" x="834" y="34" rx="2" ry="2"/><rect class="c c2a" x="834" y="50" rx="2" ry="2"/><rect class="c" x="834" y="66" rx="2" ry="2"/><rect class="u u0" height="12" width="777.1" x="0.0" y="144"/><rect class="u u1" height="12" width="61.9" x="776.5" y="144"/><rect class="u u2" height="12" width="10.8" x="837.8" y="144"/><rect class="s s0" x="0.8" y="0.8" width="14.4" height="14.4" rx="4.5" ry="4.5"/><rect class="s s1" x="1.8" y="1.8" width="12.3" height="12.3" rx="4.1" ry="4.1"/><rect class="s s2" x="2.6" y="2.6" width="10.8" height="10.8" rx="3.6" ry="3.6"/><rect class="s s3" x="3.0" y="3.0" width="9.9" height="9.9" rx="3.3" ry="3.3"/></svg>