<svg viewBox="-16 -32 880 192" width="880" height="192" xmlns="http://www.w3.org/2000/svg"><desc>Generated with https://github.com/Platane/snk</desc><style>:root{--cb:#1b1f230a;--cs:purple;--ce:#ebedf0;--c0:#ebedf0;--c1:#9be9a8;--c2:#40c463;--c3:#30a14e;--c4:#216e39}.c{shape-rendering:geometricPrecision;fill:var(--ce);stroke-width:1px;stroke:var(--cb);animation:none 27700ms linear infinite;width:12px;height:12px}@keyframes c0{12.26%{fill:var(--c1)}12.28%,100%{fill:var(--ce)}}.c.c0{fill:var(--c1);animation-name:c0}@keyframes c1{58.83%{fill:var(--c2)}58.85%,100%{fill:var(--ce)}}.c.c1{fill:var(--c2);animation-name:c1}@keyframes c2{15.15%{fill:var(--c1)}15.17%,100%{fill:var(--ce)}}.c.c2{fill:var(--c1);animation-name:c2}@keyframes c3{59.92%{fill:var(--c2)}59.94%,100%{fill:var(--ce)}}.c.c3{fill:var(--c2);animation-name:c3}@keyframes c4{20.93%{fill:var(--c1)}20.95%,100%{fill:var(--ce)}}.c.c4{fill:var(--c1);animation-name:c4}@keyframes c5{21.29%{fill:var(--c1)}21.31%,100%{fill:var(--ce)}}.c.c5{fill:var(--c1);animation-name:c5}@keyframes c6{16.6%{fill:var(--c1)}16.62%,100%{fill:var(--ce)}}.c.c6{fill:var(--c1);animation-name:c6}@keyframes c7{16.24%{fill:var(--c1)}16.26%,100%{fill:var(--ce)}}.c.c7{fill:var(--c1);animation-name:c7}@keyframes c8{15.87%{fill:var(--c1)}15.89%,100%{fill:var(--ce)}}.c.c8{fill:var(--c1);animation-name:c8}@keyframes c9{22.73%{fill:var(--c1)}22.75%,100%{fill:var(--ce)}}.c.c9{fill:var(--c1);animation-name:c9}@keyframes ca{20.21%{fill:var(--c1)}20.23%,100%{fill:var(--ce)}}.c.ca{fill:var(--c1);animation-name:ca}@keyframes cb{56.67%{fill:var(--c2)}56.69%,100%{fill:var(--ce)}}.c.cb{fill:var(--c2);animation-name:cb}@keyframes cc{56.31%{fill:var(--c2)}56.33%,100%{fill:var(--ce)}}.c.cc{fill:var(--c2);animation-name:cc}@keyframes cd{16.96%{fill:var(--c1)}16.98%,100%{fill:var(--ce)}}.c.cd{fill:var(--c1);animation-name:cd}@keyframes ce{23.09%{fill:var(--c1)}23.11%,100%{fill:var(--ce)}}.c.ce{fill:var(--c1);animation-name:ce}@keyframes cf{19.85%{fill:var(--c1)}19.87%,100%{fill:var(--ce)}}.c.cf{fill:var(--c1);animation-name:cf}@keyframes cg{23.82%{fill:var(--c1)}23.84%,100%{fill:var(--ce)}}.c.cg{fill:var(--c1);animation-name:cg}@keyframes ch{23.46%{fill:var(--c1)}23.48%,100%{fill:var(--ce)}}.c.ch{fill:var(--c1);animation-name:ch}@keyframes ci{18.04%{fill:var(--c1)}18.06%,100%{fill:var(--ce)}}.c.ci{fill:var(--c1);animation-name:ci}@keyframes cj{55.22%{fill:var(--c2)}55.24%,100%{fill:var(--ce)}}.c.cj{fill:var(--c2);animation-name:cj}@keyframes ck{72.91%{fill:var(--c3)}72.93%,100%{fill:var(--ce)}}.c.ck{fill:var(--c3);animation-name:ck}@keyframes cl{24.18%{fill:var(--c1)}24.2%,100%{fill:var(--ce)}}.c.cl{fill:var(--c1);animation-name:cl}@keyframes cm{73.64%{fill:var(--c3)}73.66%,100%{fill:var(--ce)}}.c.cm{fill:var(--c3);animation-name:cm}@keyframes cn{19.12%{fill:var(--c1)}19.14%,100%{fill:var(--ce)}}.c.cn{fill:var(--c1);animation-name:cn}@keyframes co{18.76%{fill:var(--c1)}18.78%,100%{fill:var(--ce)}}.c.co{fill:var(--c1);animation-name:co}@keyframes cp{18.4%{fill:var(--c1)}18.42%,100%{fill:var(--ce)}}.c.cp{fill:var(--c1);animation-name:cp}@keyframes cq{28.15%{fill:var(--c1)}28.17%,100%{fill:var(--ce)}}.c.cq{fill:var(--c1);animation-name:cq}@keyframes cr{24.54%{fill:var(--c1)}24.56%,100%{fill:var(--ce)}}.c.cr{fill:var(--c1);animation-name:cr}@keyframes cs{24.9%{fill:var(--c1)}24.92%,100%{fill:var(--ce)}}.c.cs{fill:var(--c1);animation-name:cs}@keyframes ct{27.79%{fill:var(--c1)}27.81%,100%{fill:var(--ce)}}.c.ct{fill:var(--c1);animation-name:ct}@keyframes cu{25.98%{fill:var(--c1)}26%,100%{fill:var(--ce)}}.c.cu{fill:var(--c1);animation-name:cu}@keyframes cv{27.07%{fill:var(--c1)}27.09%,100%{fill:var(--ce)}}.c.cv{fill:var(--c1);animation-name:cv}@keyframes cw{26.7%{fill:var(--c1)}26.72%,100%{fill:var(--ce)}}.c.cw{fill:var(--c1);animation-name:cw}@keyframes cx{26.34%{fill:var(--c1)}26.36%,100%{fill:var(--ce)}}.c.cx{fill:var(--c1);animation-name:cx}@keyframes cy{50.17%{fill:var(--c1)}50.19%,100%{fill:var(--ce)}}.c.cy{fill:var(--c1);animation-name:cy}@keyframes cz{30.31%{fill:var(--c1)}30.33%,100%{fill:var(--ce)}}.c.cz{fill:var(--c1);animation-name:cz}@keyframes c10{71.11%{fill:var(--c3)}71.13%,100%{fill:var(--ce)}}.c.c10{fill:var(--c3);animation-name:c10}@keyframes c11{52.7%{fill:var(--c2)}52.72%,100%{fill:var(--ce)}}.c.c11{fill:var(--c2);animation-name:c11}@keyframes c12{30.68%{fill:var(--c1)}30.7%,100%{fill:var(--ce)}}.c.c12{fill:var(--c1);animation-name:c12}@keyframes c13{52.34%{fill:var(--c2)}52.36%,100%{fill:var(--ce)}}.c.c13{fill:var(--c2);animation-name:c13}@keyframes c14{41.51%{fill:var(--c1)}41.53%,100%{fill:var(--ce)}}.c.c14{fill:var(--c1);animation-name:c14}@keyframes c15{40.06%{fill:var(--c1)}40.08%,100%{fill:var(--ce)}}.c.c15{fill:var(--c1);animation-name:c15}@keyframes c16{45.48%{fill:var(--c1)}45.5%,100%{fill:var(--ce)}}.c.c16{fill:var(--c1);animation-name:c16}@keyframes c17{45.84%{fill:var(--c1)}45.86%,100%{fill:var(--ce)}}.c.c17{fill:var(--c1);animation-name:c17}@keyframes c18{42.59%{fill:var(--c1)}42.61%,100%{fill:var(--ce)}}.c.c18{fill:var(--c1);animation-name:c18}@keyframes c19{42.23%{fill:var(--c1)}42.25%,100%{fill:var(--ce)}}.c.c19{fill:var(--c1);animation-name:c19}@keyframes c1a{31.4%{fill:var(--c1)}31.42%,100%{fill:var(--ce)}}.c.c1a{fill:var(--c1);animation-name:c1a}@keyframes c1b{39.7%{fill:var(--c1)}39.72%,100%{fill:var(--ce)}}.c.c1b{fill:var(--c1);animation-name:c1b}@keyframes c1c{45.12%{fill:var(--c1)}45.14%,100%{fill:var(--ce)}}.c.c1c{fill:var(--c1);animation-name:c1c}@keyframes c1d{46.2%{fill:var(--c1)}46.22%,100%{fill:var(--ce)}}.c.c1d{fill:var(--c1);animation-name:c1d}@keyframes c1e{42.95%{fill:var(--c1)}42.97%,100%{fill:var(--ce)}}.c.c1e{fill:var(--c1);animation-name:c1e}@keyframes c1f{32.48%{fill:var(--c1)}32.5%,100%{fill:var(--ce)}}.c.c1f{fill:var(--c1);animation-name:c1f}@keyframes c1g{31.76%{fill:var(--c1)}31.78%,100%{fill:var(--ce)}}.c.c1g{fill:var(--c1);animation-name:c1g}@keyframes c1h{39.34%{fill:var(--c1)}39.36%,100%{fill:var(--ce)}}.c.c1h{fill:var(--c1);animation-name:c1h}@keyframes c1i{44.76%{fill:var(--c1)}44.78%,100%{fill:var(--ce)}}.c.c1i{fill:var(--c1);animation-name:c1i}@keyframes c1j{46.56%{fill:var(--c1)}46.58%,100%{fill:var(--ce)}}.c.c1j{fill:var(--c1);animation-name:c1j}@keyframes c1k{32.84%{fill:var(--c1)}32.86%,100%{fill:var(--ce)}}.c.c1k{fill:var(--c1);animation-name:c1k}@keyframes c1l{38.62%{fill:var(--c1)}38.64%,100%{fill:var(--ce)}}.c.c1l{fill:var(--c1);animation-name:c1l}@keyframes c1m{33.2%{fill:var(--c1)}33.22%,100%{fill:var(--ce)}}.c.c1m{fill:var(--c1);animation-name:c1m}@keyframes c1n{65.69%{fill:var(--c2)}65.71%,100%{fill:var(--ce)}}.c.c1n{fill:var(--c2);animation-name:c1n}@keyframes c1o{37.9%{fill:var(--c1)}37.92%,100%{fill:var(--ce)}}.c.c1o{fill:var(--c1);animation-name:c1o}@keyframes c1p{33.93%{fill:var(--c1)}33.95%,100%{fill:var(--ce)}}.c.c1p{fill:var(--c1);animation-name:c1p}@keyframes c1q{67.5%{fill:var(--c3)}67.52%,100%{fill:var(--ce)}}.c.c1q{fill:var(--c3);animation-name:c1q}@keyframes c1r{67.14%{fill:var(--c3)}67.16%,100%{fill:var(--ce)}}.c.c1r{fill:var(--c3);animation-name:c1r}@keyframes c1s{36.81%{fill:var(--c1)}36.83%,100%{fill:var(--ce)}}.c.c1s{fill:var(--c1);animation-name:c1s}@keyframes c1t{37.17%{fill:var(--c1)}37.19%,100%{fill:var(--ce)}}.c.c1t{fill:var(--c1);animation-name:c1t}@keyframes c1u{37.54%{fill:var(--c1)}37.56%,100%{fill:var(--ce)}}.c.c1u{fill:var(--c1);animation-name:c1u}@keyframes c1v{34.29%{fill:var(--c1)}34.31%,100%{fill:var(--ce)}}.c.c1v{fill:var(--c1);animation-name:c1v}@keyframes c1w{80.13%{fill:var(--c4)}80.15%,100%{fill:var(--ce)}}.c.c1w{fill:var(--c4);animation-name:c1w}@keyframes c1x{79.77%{fill:var(--c4)}79.79%,100%{fill:var(--ce)}}.c.c1x{fill:var(--c4);animation-name:c1x}@keyframes c1y{36.09%{fill:var(--c1)}36.11%,100%{fill:var(--ce)}}.c.c1y{fill:var(--c1);animation-name:c1y}@keyframes c1z{36.45%{fill:var(--c1)}36.47%,100%{fill:var(--ce)}}.c.c1z{fill:var(--c1);animation-name:c1z}.u{transform-origin:0 0;transform:scale(0,1);animation:none linear 27700ms infinite}@keyframes u0{12.26%{transform:scale(0.000,1)}12.28%,15.15%{transform:scale(0.018,1)}15.17%,15.87%{transform:scale(0.035,1)}15.89%,16.24%{transform:scale(0.053,1)}16.26%,16.6%{transform:scale(0.070,1)}16.62%,16.96%{transform:scale(0.088,1)}16.98%,18.04%{transform:scale(0.105,1)}18.06%,18.4%{transform:scale(0.123,1)}18.42%,18.76%{transform:scale(0.140,1)}18.78%,19.12%{transform:scale(0.158,1)}19.14%,19.85%{transform:scale(0.175,1)}19.87%,20.21%{transform:scale(0.193,1)}20.23%,20.93%{transform:scale(0.211,1)}20.95%,21.29%{transform:scale(0.228,1)}21.31%,22.73%{transform:scale(0.246,1)}22.75%,23.09%{transform:scale(0.263,1)}23.11%,23.46%{transform:scale(0.281,1)}23.48%,23.82%{transform:scale(0.298,1)}23.84%,24.18%{transform:scale(0.316,1)}24.2%,24.54%{transform:scale(0.333,1)}24.56%,24.9%{transform:scale(0.351,1)}24.92%,25.98%{transform:scale(0.368,1)}26%,26.34%{transform:scale(0.386,1)}26.36%,26.7%{transform:scale(0.404,1)}26.72%,27.07%{transform:scale(0.421,1)}27.09%,27.79%{transform:scale(0.439,1)}27.81%,28.15%{transform:scale(0.456,1)}28.17%,30.31%{transform:scale(0.474,1)}30.33%,30.68%{transform:scale(0.491,1)}30.7%,31.4%{transform:scale(0.509,1)}31.42%,31.76%{transform:scale(0.526,1)}31.78%,32.48%{transform:scale(0.544,1)}32.5%,32.84%{transform:scale(0.561,1)}32.86%,33.2%{transform:scale(0.579,1)}33.22%,33.93%{transform:scale(0.596,1)}33.95%,34.29%{transform:scale(0.614,1)}34.31%,36.09%{transform:scale(0.632,1)}36.11%,36.45%{transform:scale(0.649,1)}36.47%,36.81%{transform:scale(0.667,1)}36.83%,37.17%{transform:scale(0.684,1)}37.19%,37.54%{transform:scale(0.702,1)}37.56%,37.9%{transform:scale(0.719,1)}37.92%,38.62%{transform:scale(0.737,1)}38.64%,39.34%{transform:scale(0.754,1)}39.36%,39.7%{transform:scale(0.772,1)}39.72%,40.06%{transform:scale(0.789,1)}40.08%,41.51%{transform:scale(0.807,1)}41.53%,42.23%{transform:scale(0.825,1)}42.25%,42.59%{transform:scale(0.842,1)}42.61%,42.95%{transform:scale(0.860,1)}42.97%,44.76%{transform:scale(0.877,1)}44.78%,45.12%{transform:scale(0.895,1)}45.14%,45.48%{transform:scale(0.912,1)}45.5%,45.84%{transform:scale(0.930,1)}45.86%,46.2%{transform:scale(0.947,1)}46.22%,46.56%{transform:scale(0.965,1)}46.58%,50.17%{transform:scale(0.982,1)}50.19%,100%{transform:scale(1.000,1)}}.u.u0{fill:var(--c1);animation-name:u0;transform-origin:0.0px 0}@keyframes u1{52.34%{transform:scale(0.000,1)}52.36%,52.7%{transform:scale(0.125,1)}52.72%,55.22%{transform:scale(0.250,1)}55.24%,56.31%{transform:scale(0.375,1)}56.33%,56.67%{transform:scale(0.500,1)}56.69%,58.83%{transform:scale(0.625,1)}58.85%,59.92%{transform:scale(0.750,1)}59.94%,65.69%{transform:scale(0.875,1)}65.71%,100%{transform:scale(1.000,1)}}.u.u1{fill:var(--c2);animation-name:u1;transform-origin:671.3px 0}@keyframes u2{67.14%{transform:scale(0.000,1)}67.16%,67.5%{transform:scale(0.200,1)}67.52%,71.11%{transform:scale(0.400,1)}71.13%,72.91%{transform:scale(0.600,1)}72.93%,73.64%{transform:scale(0.800,1)}73.66%,100%{transform:scale(1.000,1)}}.u.u2{fill:var(--c3);animation-name:u2;transform-origin:765.6px 0}@keyframes u3{79.77%{transform:scale(0.000,1)}79.79%,80.13%{transform:scale(0.500,1)}80.15%,100%{transform:scale(1.000,1)}}.u.u3{fill:var(--c4);animation-name:u3;transform-origin:824.4px 0}.s{shape-rendering:geometricPrecision;fill:var(--cs);animation:none linear 27700ms infinite}@keyframes s0{0%,99.64%{transform:translate(0px,-16px)}0.36%{transform:translate(0px,0px)}10.11%{transform:translate(432px,0px)}12.27%{transform:translate(432px,96px)}14.8%{transform:translate(544px,96px)}15.16%{transform:translate(544px,80px)}15.88%{transform:translate(576px,80px)}16.61%{transform:translate(576px,48px)}17.33%{transform:translate(608px,48px)}17.69%{transform:translate(608px,32px)}18.41%,28.52%{transform:translate(640px,32px)}19.13%{transform:translate(640px,0px)}20.58%{transform:translate(576px,0px)}22.74%{transform:translate(576px,96px)}23.47%,61.01%{transform:translate(608px,96px)}23.83%,61.37%{transform:translate(608px,80px)}24.55%{transform:translate(640px,80px)}24.91%{transform:translate(640px,96px)}25.27%{transform:translate(656px,96px)}25.99%{transform:translate(656px,64px)}26.35%{transform:translate(672px,64px)}27.08%{transform:translate(672px,32px)}27.44%{transform:translate(656px,32px)}27.8%{transform:translate(656px,48px)}28.16%{transform:translate(640px,48px)}29.96%{transform:translate(704px,32px)}30.32%{transform:translate(704px,48px)}31.77%{transform:translate(768px,48px)}32.49%{transform:translate(768px,16px)}33.21%{transform:translate(800px,16px)}33.57%{transform:translate(800px,0px)}34.66%{transform:translate(848px,0px)}35.74%{transform:translate(848px,48px)}36.1%{transform:translate(832px,48px)}36.46%{transform:translate(832px,64px)}36.82%{transform:translate(816px,64px)}37.55%{transform:translate(816px,96px)}38.27%{transform:translate(784px,96px)}38.99%{transform:translate(784px,64px)}40.43%{transform:translate(720px,64px)}40.79%{transform:translate(720px,48px)}41.16%{transform:translate(736px,48px)}41.52%{transform:translate(736px,32px)}41.88%{transform:translate(752px,32px)}42.6%{transform:translate(752px,0px)}42.96%,48.74%{transform:translate(768px,0px)}44.77%{transform:translate(768px,80px)}45.49%{transform:translate(736px,80px)}45.85%{transform:translate(736px,96px)}46.57%{transform:translate(768px,96px)}50.18%{transform:translate(704px,0px)}50.54%,70.04%{transform:translate(704px,16px)}50.9%{transform:translate(720px,16px)}52.35%{transform:translate(720px,80px)}53.07%{transform:translate(688px,80px)}53.79%{transform:translate(688px,48px)}55.23%{transform:translate(624px,48px)}55.6%{transform:translate(624px,32px)}56.32%{transform:translate(592px,32px)}56.68%{transform:translate(592px,16px)}57.76%{transform:translate(544px,16px)}58.84%{transform:translate(544px,64px)}59.21%{transform:translate(560px,64px)}59.93%{transform:translate(560px,96px)}66.06%{transform:translate(816px,80px)}67.51%{transform:translate(816px,16px)}71.12%{transform:translate(704px,64px)}72.92%{transform:translate(624px,64px)}73.65%{transform:translate(624px,96px)}78.34%{transform:translate(832px,96px)}80.14%{transform:translate(832px,16px)}96.39%{transform:translate(112px,16px)}97.11%{transform:translate(112px,-16px)}}.s.s0{transform:translate(0px,-16px);animation-name:s0}@keyframes s1{0%,99.64%{transform:translate(16px,-16px)}0.36%{transform:translate(0px,-16px)}0.72%{transform:translate(0px,0px)}10.47%{transform:translate(432px,0px)}12.64%{transform:translate(432px,96px)}15.16%{transform:translate(544px,96px)}15.52%{transform:translate(544px,80px)}16.25%{transform:translate(576px,80px)}16.97%{transform:translate(576px,48px)}17.69%{transform:translate(608px,48px)}18.05%{transform:translate(608px,32px)}18.77%,28.88%{transform:translate(640px,32px)}19.49%{transform:translate(640px,0px)}20.94%{transform:translate(576px,0px)}23.1%{transform:translate(576px,96px)}23.83%,61.37%{transform:translate(608px,96px)}24.19%,61.73%{transform:translate(608px,80px)}24.91%{transform:translate(640px,80px)}25.27%{transform:translate(640px,96px)}25.63%{transform:translate(656px,96px)}26.35%{transform:translate(656px,64px)}26.71%{transform:translate(672px,64px)}27.44%{transform:translate(672px,32px)}27.8%{transform:translate(656px,32px)}28.16%{transform:translate(656px,48px)}28.52%{transform:translate(640px,48px)}30.32%{transform:translate(704px,32px)}30.69%{transform:translate(704px,48px)}32.13%{transform:translate(768px,48px)}32.85%{transform:translate(768px,16px)}33.57%{transform:translate(800px,16px)}33.94%{transform:translate(800px,0px)}35.02%{transform:translate(848px,0px)}36.1%{transform:translate(848px,48px)}36.46%{transform:translate(832px,48px)}36.82%{transform:translate(832px,64px)}37.18%{transform:translate(816px,64px)}37.91%{transform:translate(816px,96px)}38.63%{transform:translate(784px,96px)}39.35%{transform:translate(784px,64px)}40.79%{transform:translate(720px,64px)}41.16%{transform:translate(720px,48px)}41.52%{transform:translate(736px,48px)}41.88%{transform:translate(736px,32px)}42.24%{transform:translate(752px,32px)}42.96%{transform:translate(752px,0px)}43.32%,49.1%{transform:translate(768px,0px)}45.13%{transform:translate(768px,80px)}45.85%{transform:translate(736px,80px)}46.21%{transform:translate(736px,96px)}46.93%{transform:translate(768px,96px)}50.54%{transform:translate(704px,0px)}50.9%,70.4%{transform:translate(704px,16px)}51.26%{transform:translate(720px,16px)}52.71%{transform:translate(720px,80px)}53.43%{transform:translate(688px,80px)}54.15%{transform:translate(688px,48px)}55.6%{transform:translate(624px,48px)}55.96%{transform:translate(624px,32px)}56.68%{transform:translate(592px,32px)}57.04%{transform:translate(592px,16px)}58.12%{transform:translate(544px,16px)}59.21%{transform:translate(544px,64px)}59.57%{transform:translate(560px,64px)}60.29%{transform:translate(560px,96px)}66.43%{transform:translate(816px,80px)}67.87%{transform:translate(816px,16px)}71.48%{transform:translate(704px,64px)}73.29%{transform:translate(624px,64px)}74.01%{transform:translate(624px,96px)}78.7%{transform:translate(832px,96px)}80.51%{transform:translate(832px,16px)}96.75%{transform:translate(112px,16px)}97.47%{transform:translate(112px,-16px)}}.s.s1{transform:translate(16px,-16px);animation-name:s1}@keyframes s2{0%,99.64%{transform:translate(32px,-16px)}0.72%{transform:translate(0px,-16px)}1.08%{transform:translate(0px,0px)}10.83%{transform:translate(432px,0px)}13%{transform:translate(432px,96px)}15.52%{transform:translate(544px,96px)}15.88%{transform:translate(544px,80px)}16.61%{transform:translate(576px,80px)}17.33%{transform:translate(576px,48px)}18.05%{transform:translate(608px,48px)}18.41%{transform:translate(608px,32px)}19.13%,29.24%{transform:translate(640px,32px)}19.86%{transform:translate(640px,0px)}21.3%{transform:translate(576px,0px)}23.47%{transform:translate(576px,96px)}24.19%,61.73%{transform:translate(608px,96px)}24.55%,62.09%{transform:translate(608px,80px)}25.27%{transform:translate(640px,80px)}25.63%{transform:translate(640px,96px)}25.99%{transform:translate(656px,96px)}26.71%{transform:translate(656px,64px)}27.08%{transform:translate(672px,64px)}27.8%{transform:translate(672px,32px)}28.16%{transform:translate(656px,32px)}28.52%{transform:translate(656px,48px)}28.88%{transform:translate(640px,48px)}30.69%{transform:translate(704px,32px)}31.05%{transform:translate(704px,48px)}32.49%{transform:translate(768px,48px)}33.21%{transform:translate(768px,16px)}33.94%{transform:translate(800px,16px)}34.3%{transform:translate(800px,0px)}35.38%{transform:translate(848px,0px)}36.46%{transform:translate(848px,48px)}36.82%{transform:translate(832px,48px)}37.18%{transform:translate(832px,64px)}37.55%{transform:translate(816px,64px)}38.27%{transform:translate(816px,96px)}38.99%{transform:translate(784px,96px)}39.71%{transform:translate(784px,64px)}41.16%{transform:translate(720px,64px)}41.52%{transform:translate(720px,48px)}41.88%{transform:translate(736px,48px)}42.24%{transform:translate(736px,32px)}42.6%{transform:translate(752px,32px)}43.32%{transform:translate(752px,0px)}43.68%,49.46%{transform:translate(768px,0px)}45.49%{transform:translate(768px,80px)}46.21%{transform:translate(736px,80px)}46.57%{transform:translate(736px,96px)}47.29%{transform:translate(768px,96px)}50.9%{transform:translate(704px,0px)}51.26%,70.76%{transform:translate(704px,16px)}51.62%{transform:translate(720px,16px)}53.07%{transform:translate(720px,80px)}53.79%{transform:translate(688px,80px)}54.51%{transform:translate(688px,48px)}55.96%{transform:translate(624px,48px)}56.32%{transform:translate(624px,32px)}57.04%{transform:translate(592px,32px)}57.4%{transform:translate(592px,16px)}58.48%{transform:translate(544px,16px)}59.57%{transform:translate(544px,64px)}59.93%{transform:translate(560px,64px)}60.65%{transform:translate(560px,96px)}66.79%{transform:translate(816px,80px)}68.23%{transform:translate(816px,16px)}71.84%{transform:translate(704px,64px)}73.65%{transform:translate(624px,64px)}74.37%{transform:translate(624px,96px)}79.06%{transform:translate(832px,96px)}80.87%{transform:translate(832px,16px)}97.11%{transform:translate(112px,16px)}97.83%{transform:translate(112px,-16px)}}.s.s2{transform:translate(32px,-16px);animation-name:s2}@keyframes s3{0%,99.64%{transform:translate(48px,-16px)}1.08%{transform:translate(0px,-16px)}1.44%{transform:translate(0px,0px)}11.19%{transform:translate(432px,0px)}13.36%{transform:translate(432px,96px)}15.88%{transform:translate(544px,96px)}16.25%{transform:translate(544px,80px)}16.97%{transform:translate(576px,80px)}17.69%{transform:translate(576px,48px)}18.41%{transform:translate(608px,48px)}18.77%{transform:translate(608px,32px)}19.49%,29.6%{transform:translate(640px,32px)}20.22%{transform:translate(640px,0px)}21.66%{transform:translate(576px,0px)}23.83%{transform:translate(576px,96px)}24.55%,62.09%{transform:translate(608px,96px)}24.91%,62.45%{transform:translate(608px,80px)}25.63%{transform:translate(640px,80px)}25.99%{transform:translate(640px,96px)}26.35%{transform:translate(656px,96px)}27.08%{transform:translate(656px,64px)}27.44%{transform:translate(672px,64px)}28.16%{transform:translate(672px,32px)}28.52%{transform:translate(656px,32px)}28.88%{transform:translate(656px,48px)}29.24%{transform:translate(640px,48px)}31.05%{transform:translate(704px,32px)}31.41%{transform:translate(704px,48px)}32.85%{transform:translate(768px,48px)}33.57%{transform:translate(768px,16px)}34.3%{transform:translate(800px,16px)}34.66%{transform:translate(800px,0px)}35.74%{transform:translate(848px,0px)}36.82%{transform:translate(848px,48px)}37.18%{transform:translate(832px,48px)}37.55%{transform:translate(832px,64px)}37.91%{transform:translate(816px,64px)}38.63%{transform:translate(816px,96px)}39.35%{transform:translate(784px,96px)}40.07%{transform:translate(784px,64px)}41.52%{transform:translate(720px,64px)}41.88%{transform:translate(720px,48px)}42.24%{transform:translate(736px,48px)}42.6%{transform:translate(736px,32px)}42.96%{transform:translate(752px,32px)}43.68%{transform:translate(752px,0px)}44.04%,49.82%{transform:translate(768px,0px)}45.85%{transform:translate(768px,80px)}46.57%{transform:translate(736px,80px)}46.93%{transform:translate(736px,96px)}47.65%{transform:translate(768px,96px)}51.26%{transform:translate(704px,0px)}51.62%,71.12%{transform:translate(704px,16px)}51.99%{transform:translate(720px,16px)}53.43%{transform:translate(720px,80px)}54.15%{transform:translate(688px,80px)}54.87%{transform:translate(688px,48px)}56.32%{transform:translate(624px,48px)}56.68%{transform:translate(624px,32px)}57.4%{transform:translate(592px,32px)}57.76%{transform:translate(592px,16px)}58.84%{transform:translate(544px,16px)}59.93%{transform:translate(544px,64px)}60.29%{transform:translate(560px,64px)}61.01%{transform:translate(560px,96px)}67.15%{transform:translate(816px,80px)}68.59%{transform:translate(816px,16px)}72.2%{transform:translate(704px,64px)}74.01%{transform:translate(624px,64px)}74.73%{transform:translate(624px,96px)}79.42%{transform:translate(832px,96px)}81.23%{transform:translate(832px,16px)}97.47%{transform:translate(112px,16px)}98.19%{transform:translate(112px,-16px)}}.s.s3{transform:translate(48px,-16px);animation-name:s3}</style><rect class="c" x="2" y="2" rx="2" ry="2"/><rect class="c" x="2" y="18" rx="2" ry="2"/><rect class="c" x="2" y="34" rx="2" ry="2"/><rect class="c" x="2" y="50" rx="2" ry="2"/><rect class="c" x="2" y="66" rx="2" ry="2"/><rect class="c" x="2" y="82" rx="2" ry="2"/><rect class="c" x="2" y="98" rx="2" ry="2"/><rect class="c" x="18" y="2" rx="2" ry="2"/><rect class="c" x="18" y="18" rx="2" ry="2"/><rect class="c" x="18" y="34" rx="2" ry="2"/><rect class="c" x="18" y="50" rx="2" ry="2"/><rect class="c" x="18" y="66" rx="2" ry="2"/><rect class="c" x="18" y="82" rx="2" ry="2"/><rect class="c" x="18" y="98" rx="2" ry="2"/><rect class="c" x="34" y="2" rx="2" ry="2"/><rect class="c" x="34" y="18" rx="2" ry="2"/><rect class="c" x="34" y="34" rx="2" ry="2"/><rect class="c" x="34" y="50" rx="2" ry="2"/><rect class="c" x="34" y="66" rx="2" ry="2"/><rect class="c" x="34" y="82" rx="2" ry="2"/><rect class="c" x="34" y="98" rx="2" ry="2"/><rect class="c" x="50" y="2" rx="2" ry="2"/><rect class="c" x="50" y="18" rx="2" ry="2"/><rect class="c" x="50" y="34" rx="2" ry="2"/><rect class="c" x="50" y="50" rx="2" ry="2"/><rect class="c" x="50" y="66" rx="2" ry="2"/><rect class="c" x="50" y="82" rx="2" ry="2"/><rect class="c" x="50" y="98" rx="2" ry="2"/><rect class="c" x="66" y="2" rx="2" ry="2"/><rect class="c" x="66" y="18" rx="2" ry="2"/><rect class="c" x="66" y="34" rx="2" ry="2"/><rect class="c" x="66" y="50" rx="2" ry="2"/><rect class="c" x="66" y="66" rx="2" ry="2"/><rect class="c" x="66" y="82" rx="2" ry="2"/><rect class="c" x="66" y="98" rx="2" ry="2"/><rect class="c" x="82" y="2" rx="2" ry="2"/><rect class="c" x="82" y="18" rx="2" ry="2"/><rect class="c" x="82" y="34" rx="2" ry="2"/><rect class="c" x="82" y="50" rx="2" ry="2"/><rect class="c" x="82" y="66" rx="2" ry="2"/><rect class="c" x="82" y="82" rx="2" ry="2"/><rect class="c" x="82" y="98" rx="2" ry="2"/><rect class="c" x="98" y="2" rx="2" ry="2"/><rect class="c" x="98" y="18" rx="2" ry="2"/><rect class="c" x="98" y="34" rx="2" ry="2"/><rect class="c" x="98" y="50" rx="2" ry="2"/><rect class="c" x="98" y="66" rx="2" ry="2"/><rect class="c" x="98" y="82" rx="2" ry="2"/><rect class="c" x="98" y="98" rx="2" ry="2"/><rect class="c" x="114" y="2" rx="2" ry="2"/><rect class="c" x="114" y="18" rx="2" ry="2"/><rect class="c" x="114" y="34" rx="2" ry="2"/><rect class="c" x="114" y="50" rx="2" ry="2"/><rect class="c" x="114" y="66" rx="2" ry="2"/><rect class="c" x="114" y="82" rx="2" ry="2"/><rect class="c" x="114" y="98" rx="2" ry="2"/><rect class="c" x="130" y="2" rx="2" ry="2"/><rect class="c" x="130" y="18" rx="2" ry="2"/><rect class="c" x="130" y="34" rx="2" ry="2"/><rect class="c" x="130" y="50" rx="2" ry="2"/><rect class="c" x="130" y="66" rx="2" ry="2"/><rect class="c" x="130" y="82" rx="2" ry="2"/><rect class="c" x="130" y="98" rx="2" ry="2"/><rect class="c" x="146" y="2" rx="2" ry="2"/><rect class="c" x="146" y="18" rx="2" ry="2"/><rect class="c" x="146" y="34" rx="2" ry="2"/><rect class="c" x="146" y="50" rx="2" ry="2"/><rect class="c" x="146" y="66" rx="2" ry="2"/><rect class="c" x="146" y="82" rx="2" ry="2"/><rect class="c" x="146" y="98" rx="2" ry="2"/><rect class="c" x="162" y="2" rx="2" ry="2"/><rect class="c" x="162" y="18" rx="2" ry="2"/><rect class="c" x="162" y="34" rx="2" ry="2"/><rect class="c" x="162" y="50" rx="2" ry="2"/><rect class="c" x="162" y="66" rx="2" ry="2"/><rect class="c" x="162" y="82" rx="2" ry="2"/><rect class="c" x="162" y="98" rx="2" ry="2"/><rect class="c" x="178" y="2" rx="2" ry="2"/><rect class="c" x="178" y="18" rx="2" ry="2"/><rect class="c" x="178" y="34" rx="2" ry="2"/><rect class="c" x="178" y="50" rx="2" ry="2"/><rect class="c" x="178" y="66" rx="2" ry="2"/><rect class="c" x="178" y="82" rx="2" ry="2"/><rect class="c" x="178" y="98" rx="2" ry="2"/><rect class="c" x="194" y="2" rx="2" ry="2"/><rect class="c" x="194" y="18" rx="2" ry="2"/><rect class="c" x="194" y="34" rx="2" ry="2"/><rect class="c" x="194" y="50" rx="2" ry="2"/><rect class="c" x="194" y="66" rx="2" ry="2"/><rect class="c" x="194" y="82" rx="2" ry="2"/><rect class="c" x="194" y="98" rx="2" ry="2"/><rect class="c" x="210" y="2" rx="2" ry="2"/><rect class="c" x="210" y="18" rx="2" ry="2"/><rect class="c" x="210" y="34" rx="2" ry="2"/><rect class="c" x="210" y="50" rx="2" ry="2"/><rect class="c" x="210" y="66" rx="2" ry="2"/><rect class="c" x="210" y="82" rx="2" ry="2"/><rect class="c" x="210" y="98" rx="2" ry="2"/><rect class="c" x="226" y="2" rx="2" ry="2"/><rect class="c" x="226" y="18" rx="2" ry="2"/><rect class="c" x="226" y="34" rx="2" ry="2"/><rect class="c" x="226" y="50" rx="2" ry="2"/><rect class="c" x="226" y="66" rx="2" ry="2"/><rect class="c" x="226" y="82" rx="2" ry="2"/><rect class="c" x="226" y="98" rx="2" ry="2"/><rect class="c" x="242" y="2" rx="2" ry="2"/><rect class="c" x="242" y="18" rx="2" ry="2"/><rect class="c" x="242" y="34" rx="2" ry="2"/><rect class="c" x="242" y="50" rx="2" ry="2"/><rect class="c" x="242" y="66" rx="2" ry="2"/><rect class="c" x="242" y="82" rx="2" ry="2"/><rect class="c" x="242" y="98" rx="2" ry="2"/><rect class="c" x="258" y="2" rx="2" ry="2"/><rect class="c" x="258" y="18" rx="2" ry="2"/><rect class="c" x="258" y="34" rx="2" ry="2"/><rect class="c" x="258" y="50" rx="2" ry="2"/><rect class="c" x="258" y="66" rx="2" ry="2"/><rect class="c" x="258" y="82" rx="2" ry="2"/><rect class="c" x="258" y="98" rx="2" ry="2"/><rect class="c" x="274" y="2" rx="2" ry="2"/><rect class="c" x="274" y="18" rx="2" ry="2"/><rect class="c" x="274" y="34" rx="2" ry="2"/><rect class="c" x="274" y="50" rx="2" ry="2"/><rect class="c" x="274" y="66" rx="2" ry="2"/><rect class="c" x="274" y="82" rx="2" ry="2"/><rect class="c" x="274" y="98" rx="2" ry="2"/><rect class="c" x="290" y="2" rx="2" ry="2"/><rect class="c" x="290" y="18" rx="2" ry="2"/><rect class="c" x="290" y="34" rx="2" ry="2"/><rect class="c" x="290" y="50" rx="2" ry="2"/><rect class="c" x="290" y="66" rx="2" ry="2"/><rect class="c" x="290" y="82" rx="2" ry="2"/><rect class="c" x="290" y="98" rx="2" ry="2"/><rect class="c" x="306" y="2" rx="2" ry="2"/><rect class="c" x="306" y="18" rx="2" ry="2"/><rect class="c" x="306" y="34" rx="2" ry="2"/><rect class="c" x="306" y="50" rx="2" ry="2"/><rect class="c" x="306" y="66" rx="2" ry="2"/><rect class="c" x="306" y="82" rx="2" ry="2"/><rect class="c" x="306" y="98" rx="2" ry="2"/><rect class="c" x="322" y="2" rx="2" ry="2"/><rect class="c" x="322" y="18" rx="2" ry="2"/><rect class="c" x="322" y="34" rx="2" ry="2"/><rect class="c" x="322" y="50" rx="2" ry="2"/><rect class="c" x="322" y="66" rx="2" ry="2"/><rect class="c" x="322" y="82" rx="2" ry="2"/><rect class="c" x="322" y="98" rx="2" ry="2"/><rect class="c" x="338" y="2" rx="2" ry="2"/><rect class="c" x="338" y="18" rx="2" ry="2"/><rect class="c" x="338" y="34" rx="2" ry="2"/><rect class="c" x="338" y="50" rx="2" ry="2"/><rect class="c" x="338" y="66" rx="2" ry="2"/><rect class="c" x="338" y="82" rx="2" ry="2"/><rect class="c" x="338" y="98" rx="2" ry="2"/><rect class="c" x="354" y="2" rx="2" ry="2"/><rect class="c" x="354" y="18" rx="2" ry="2"/><rect class="c" x="354" y="34" rx="2" ry="2"/><rect class="c" x="354" y="50" rx="2" ry="2"/><rect class="c" x="354" y="66" rx="2" ry="2"/><rect class="c" x="354" y="82" rx="2" ry="2"/><rect class="c" x="354" y="98" rx="2" ry="2"/><rect class="c" x="370" y="2" rx="2" ry="2"/><rect class="c" x="370" y="18" rx="2" ry="2"/><rect class="c" x="370" y="34" rx="2" ry="2"/><rect class="c" x="370" y="50" rx="2" ry="2"/><rect class="c" x="370" y="66" rx="2" ry="2"/><rect class="c" x="370" y="82" rx="2" ry="2"/><rect class="c" x="370" y="98" rx="2" ry="2"/><rect class="c" x="386" y="2" rx="2" ry="2"/><rect class="c" x="386" y="18" rx="2" ry="2"/><rect class="c" x="386" y="34" rx="2" ry="2"/><rect class="c" x="386" y="50" rx="2" ry="2"/><rect class="c" x="386" y="66" rx="2" ry="2"/><rect class="c" x="386" y="82" rx="2" ry="2"/><rect class="c" x="386" y="98" rx="2" ry="2"/><rect class="c" x="402" y="2" rx="2" ry="2"/><rect class="c" x="402" y="18" rx="2" ry="2"/><rect class="c" x="402" y="34" rx="2" ry="2"/><rect class="c" x="402" y="50" rx="2" ry="2"/><rect class="c" x="402" y="66" rx="2" ry="2"/><rect class="c" x="402" y="82" rx="2" ry="2"/><rect class="c" x="402" y="98" rx="2" ry="2"/><rect class="c" x="418" y="2" rx="2" ry="2"/><rect class="c" x="418" y="18" rx="2" ry="2"/><rect class="c" x="418" y="34" rx="2" ry="2"/><rect class="c" x="418" y="50" rx="2" ry="2"/><rect class="c" x="418" y="66" rx="2" ry="2"/><rect class="c" x="418" y="82" rx="2" ry="2"/><rect class="c" x="418" y="98" rx="2" ry="2"/><rect class="c" x="434" y="2" rx="2" ry="2"/><rect class="c" x="434" y="18" rx="2" ry="2"/><rect class="c" x="434" y="34" rx="2" ry="2"/><rect class="c" x="434" y="50" rx="2" ry="2"/><rect class="c" x="434" y="66" rx="2" ry="2"/><rect class="c" x="434" y="82" rx="2" ry="2"/><rect class="c c0" x="434" y="98" rx="2" ry="2"/><rect class="c" x="450" y="2" rx="2" ry="2"/><rect class="c" x="450" y="18" rx="2" ry="2"/><rect class="c" x="450" y="34" rx="2" ry="2"/><rect class="c" x="450" y="50" rx="2" ry="2"/><rect class="c" x="450" y="66" rx="2" ry="2"/><rect class="c" x="450" y="82" rx="2" ry="2"/><rect class="c" x="450" y="98" rx="2" ry="2"/><rect class="c" x="466" y="2" rx="2" ry="2"/><rect class="c" x="466" y="18" rx="2" ry="2"/><rect class="c" x="466" y="34" rx="2" ry="2"/><rect class="c" x="466" y="50" rx="2" ry="2"/><rect class="c" x="466" y="66" rx="2" ry="2"/><rect class="c" x="466" y="82" rx="2" ry="2"/><rect class="c" x="466" y="98" rx="2" ry="2"/><rect class="c" x="482" y="2" rx="2" ry="2"/><rect class="c" x="482" y="18" rx="2" ry="2"/><rect class="c" x="482" y="34" rx="2" ry="2"/><rect class="c" x="482" y="50" rx="2" ry="2"/><rect class="c" x="482" y="66" rx="2" ry="2"/><rect class="c" x="482" y="82" rx="2" ry="2"/><rect class="c" x="482" y="98" rx="2" ry="2"/><rect class="c" x="498" y="2" rx="2" ry="2"/><rect class="c" x="498" y="18" rx="2" ry="2"/><rect class="c" x="498" y="34" rx="2" ry="2"/><rect class="c" x="498" y="50" rx="2" ry="2"/><rect class="c" x="498" y="66" rx="2" ry="2"/><rect class="c" x="498" y="82" rx="2" ry="2"/><rect class="c" x="498" y="98" rx="2" ry="2"/><rect class="c" x="514" y="2" rx="2" ry="2"/><rect class="c" x="514" y="18" rx="2" ry="2"/><rect class="c" x="514" y="34" rx="2" ry="2"/><rect class="c" x="514" y="50" rx="2" ry="2"/><rect class="c" x="514" y="66" rx="2" ry="2"/><rect class="c" x="514" y="82" rx="2" ry="2"/><rect class="c" x="514" y="98" rx="2" ry="2"/><rect class="c" x="530" y="2" rx="2" ry="2"/><rect class="c" x="530" y="18" rx="2" ry="2"/><rect class="c" x="530" y="34" rx="2" ry="2"/><rect class="c" x="530" y="50" rx="2" ry="2"/><rect class="c" x="530" y="66" rx="2" ry="2"/><rect class="c" x="530" y="82" rx="2" ry="2"/><rect class="c" x="530" y="98" rx="2" ry="2"/><rect class="c" x="546" y="2" rx="2" ry="2"/><rect class="c" x="546" y="18" rx="2" ry="2"/><rect class="c" x="546" y="34" rx="2" ry="2"/><rect class="c" x="546" y="50" rx="2" ry="2"/><rect class="c c1" x="546" y="66" rx="2" ry="2"/><rect class="c c2" x="546" y="82" rx="2" ry="2"/><rect class="c" x="546" y="98" rx="2" ry="2"/><rect class="c" x="562" y="2" rx="2" ry="2"/><rect class="c" x="562" y="18" rx="2" ry="2"/><rect class="c" x="562" y="34" rx="2" ry="2"/><rect class="c" x="562" y="50" rx="2" ry="2"/><rect class="c" x="562" y="66" rx="2" ry="2"/><rect class="c" x="562" y="82" rx="2" ry="2"/><rect class="c c3" x="562" y="98" rx="2" ry="2"/><rect class="c" x="578" y="2" rx="2" ry="2"/><rect class="c c4" x="578" y="18" rx="2" ry="2"/><rect class="c c5" x="578" y="34" rx="2" ry="2"/><rect class="c c6" x="578" y="50" rx="2" ry="2"/><rect class="c c7" x="578" y="66" rx="2" ry="2"/><rect class="c c8" x="578" y="82" rx="2" ry="2"/><rect class="c c9" x="578" y="98" rx="2" ry="2"/><rect class="c ca" x="594" y="2" rx="2" ry="2"/><rect class="c cb" x="594" y="18" rx="2" ry="2"/><rect class="c cc" x="594" y="34" rx="2" ry="2"/><rect class="c cd" x="594" y="50" rx="2" ry="2"/><rect class="c" x="594" y="66" rx="2" ry="2"/><rect class="c" x="594" y="82" rx="2" ry="2"/><rect class="c ce" x="594" y="98" rx="2" ry="2"/><rect class="c cf" x="610" y="2" rx="2" ry="2"/><rect class="c" x="610" y="18" rx="2" ry="2"/><rect class="c" x="610" y="34" rx="2" ry="2"/><rect class="c" x="610" y="50" rx="2" ry="2"/><rect class="c" x="610" y="66" rx="2" ry="2"/><rect class="c cg" x="610" y="82" rx="2" ry="2"/><rect class="c ch" x="610" y="98" rx="2" ry="2"/><rect class="c" x="626" y="2" rx="2" ry="2"/><rect class="c" x="626" y="18" rx="2" ry="2"/><rect class="c ci" x="626" y="34" rx="2" ry="2"/><rect class="c cj" x="626" y="50" rx="2" ry="2"/><rect class="c ck" x="626" y="66" rx="2" ry="2"/><rect class="c cl" x="626" y="82" rx="2" ry="2"/><rect class="c cm" x="626" y="98" rx="2" ry="2"/><rect class="c cn" x="642" y="2" rx="2" ry="2"/><rect class="c co" x="642" y="18" rx="2" ry="2"/><rect class="c cp" x="642" y="34" rx="2" ry="2"/><rect class="c cq" x="642" y="50" rx="2" ry="2"/><rect class="c" x="642" y="66" rx="2" ry="2"/><rect class="c cr" x="642" y="82" rx="2" ry="2"/><rect class="c cs" x="642" y="98" rx="2" ry="2"/><rect class="c" x="658" y="2" rx="2" ry="2"/><rect class="c" x="658" y="18" rx="2" ry="2"/><rect class="c" x="658" y="34" rx="2" ry="2"/><rect class="c ct" x="658" y="50" rx="2" ry="2"/><rect class="c cu" x="658" y="66" rx="2" ry="2"/><rect class="c" x="658" y="82" rx="2" ry="2"/><rect class="c" x="658" y="98" rx="2" ry="2"/><rect class="c" x="674" y="2" rx="2" ry="2"/><rect class="c" x="674" y="18" rx="2" ry="2"/><rect class="c cv" x="674" y="34" rx="2" ry="2"/><rect class="c cw" x="674" y="50" rx="2" ry="2"/><rect class="c cx" x="674" y="66" rx="2" ry="2"/><rect class="c" x="674" y="82" rx="2" ry="2"/><rect class="c" x="674" y="98" rx="2" ry="2"/><rect class="c" x="690" y="2" rx="2" ry="2"/><rect class="c" x="690" y="18" rx="2" ry="2"/><rect class="c" x="690" y="34" rx="2" ry="2"/><rect class="c" x="690" y="50" rx="2" ry="2"/><rect class="c" x="690" y="66" rx="2" ry="2"/><rect class="c" x="690" y="82" rx="2" ry="2"/><rect class="c" x="690" y="98" rx="2" ry="2"/><rect class="c cy" x="706" y="2" rx="2" ry="2"/><rect class="c" x="706" y="18" rx="2" ry="2"/><rect class="c" x="706" y="34" rx="2" ry="2"/><rect class="c cz" x="706" y="50" rx="2" ry="2"/><rect class="c c10" x="706" y="66" rx="2" ry="2"/><rect class="c c11" x="706" y="82" rx="2" ry="2"/><rect class="c" x="706" y="98" rx="2" ry="2"/><rect class="c" x="722" y="2" rx="2" ry="2"/><rect class="c" x="722" y="18" rx="2" ry="2"/><rect class="c" x="722" y="34" rx="2" ry="2"/><rect class="c c12" x="722" y="50" rx="2" ry="2"/><rect class="c" x="722" y="66" rx="2" ry="2"/><rect class="c c13" x="722" y="82" rx="2" ry="2"/><rect class="c" x="722" y="98" rx="2" ry="2"/><rect class="c" x="738" y="2" rx="2" ry="2"/><rect class="c" x="738" y="18" rx="2" ry="2"/><rect class="c c14" x="738" y="34" rx="2" ry="2"/><rect class="c" x="738" y="50" rx="2" ry="2"/><rect class="c c15" x="738" y="66" rx="2" ry="2"/><rect class="c c16" x="738" y="82" rx="2" ry="2"/><rect class="c c17" x="738" y="98" rx="2" ry="2"/><rect class="c c18" x="754" y="2" rx="2" ry="2"/><rect class="c c19" x="754" y="18" rx="2" ry="2"/><rect class="c" x="754" y="34" rx="2" ry="2"/><rect class="c c1a" x="754" y="50" rx="2" ry="2"/><rect class="c c1b" x="754" y="66" rx="2" ry="2"/><rect class="c c1c" x="754" y="82" rx="2" ry="2"/><rect class="c c1d" x="754" y="98" rx="2" ry="2"/><rect class="c c1e" x="770" y="2" rx="2" ry="2"/><rect class="c c1f" x="770" y="18" rx="2" ry="2"/><rect class="c" x="770" y="34" rx="2" ry="2"/><rect class="c c1g" x="770" y="50" rx="2" ry="2"/><rect class="c c1h" x="770" y="66" rx="2" ry="2"/><rect class="c c1i" x="770" y="82" rx="2" ry="2"/><rect class="c c1j" x="770" y="98" rx="2" ry="2"/><rect class="c" x="786" y="2" rx="2" ry="2"/><rect class="c c1k" x="786" y="18" rx="2" ry="2"/><rect class="c" x="786" y="34" rx="2" ry="2"/><rect class="c" x="786" y="50" rx="2" ry="2"/><rect class="c" x="786" y="66" rx="2" ry="2"/><rect class="c c1l" x="786" y="82" rx="2" ry="2"/><rect class="c" x="786" y="98" rx="2" ry="2"/><rect class="c" x="802" y="2" rx="2" ry="2"/><rect class="c c1m" x="802" y="18" rx="2" ry="2"/><rect class="c" x="802" y="34" rx="2" ry="2"/><rect class="c" x="802" y="50" rx="2" ry="2"/><rect class="c" x="802" y="66" rx="2" ry="2"/><rect class="c c1n" x="802" y="82" rx="2" ry="2"/><rect class="c c1o" x="802" y="98" rx="2" ry="2"/><rect class="c c1p" x="818" y="2" rx="2" ry="2"/><rect class="c c1q" x="818" y="18" rx="2" ry="2"/><rect class="c c1r" x="818" y="34" rx="2" ry="2"/><rect class="c" x="818" y="50" rx="2" ry="2"/><rect class="c c1s" x="818" y="66" rx="2" ry="2"/><rect class="c c1t" x="818" y="82" rx="2" ry="2"/><rect class="c c1u" x="818" y="98" rx="2" ry="2"/><rect class="c c1v" x="834" y="2" rx="2" ry="2"/><rect class="c c1w" x="834" y="18" rx="2" ry="2"/><rect class="c c1x" x="834" y="34" rx="2" ry="2"/><rect class="c c1y" x="834" y="50" rx="2" ry="2"/><rect class="c c1z" x="834" y="66" rx="2" ry="2"/><rect class="c" x="834" y="82" rx="2" ry="2"/><rect class="u u0" height="12" width="671.9" x="0.0" y="144"/><rect class="u u1" height="12" width="94.8" x="671.3" y="144"/><rect class="u u2" height="12" width="59.5" x="765.6" y="144"/><rect class="u u3" height="12" width="24.2" x="824.4" y="144"/><rect class="s s0" x="0.8" y="0.8" width="14.4" height="14.4" rx="4.5" ry="4.5"/><rect class="s s1" x="1.8" y="1.8" width="12.3" height="12.3" rx="4.1" ry="4.1"/><rect class="s s2" x="2.6" y="2.6" width="10.8" height="10.8" rx="3.6" ry="3.6"/><rect class="s s3" x="3.0" y="3.0" width="9.9" height="9.9" rx="3.3" ry="3.3"/></svg>