<svg viewBox="-16 -32 880 192" width="880" height="192" xmlns="http://www.w3.org/2000/svg"><desc>Generated with https://github.com/Platane/snk</desc><style>:root{--cb:#1b1f230a;--cs:purple;--ce:#ebedf0;--c0:#ebedf0;--c1:#9be9a8;--c2:#40c463;--c3:#30a14e;--c4:#216e39}.c{shape-rendering:geometricPrecision;fill:var(--ce);stroke-width:1px;stroke:var(--cb);animation:none 26900ms linear infinite;width:12px;height:12px}@keyframes c0{10.03%{fill:var(--c1)}10.05%,100%{fill:var(--ce)}}.c.c0{fill:var(--c1);animation-name:c0}@keyframes c1{72.11%{fill:var(--c1)}72.13%,100%{fill:var(--ce)}}.c.c1{fill:var(--c1);animation-name:c1}@keyframes c2{72.48%{fill:var(--c1)}72.5%,100%{fill:var(--ce)}}.c.c2{fill:var(--c1);animation-name:c2}@keyframes c3{13%{fill:var(--c1)}13.02%,100%{fill:var(--ce)}}.c.c3{fill:var(--c1);animation-name:c3}@keyframes c4{70.25%{fill:var(--c1)}70.27%,100%{fill:var(--ce)}}.c.c4{fill:var(--c1);animation-name:c4}@keyframes c5{70.62%{fill:var(--c1)}70.64%,100%{fill:var(--ce)}}.c.c5{fill:var(--c1);animation-name:c5}@keyframes c6{17.46%{fill:var(--c1)}17.48%,100%{fill:var(--ce)}}.c.c6{fill:var(--c1);animation-name:c6}@keyframes c7{17.09%{fill:var(--c1)}17.11%,100%{fill:var(--ce)}}.c.c7{fill:var(--c1);animation-name:c7}@keyframes c8{16.72%{fill:var(--c1)}16.74%,100%{fill:var(--ce)}}.c.c8{fill:var(--c1);animation-name:c8}@keyframes c9{13.37%{fill:var(--c1)}13.39%,100%{fill:var(--ce)}}.c.c9{fill:var(--c1);animation-name:c9}@keyframes ca{18.95%{fill:var(--c1)}18.97%,100%{fill:var(--ce)}}.c.ca{fill:var(--c1);animation-name:ca}@keyframes cb{18.58%{fill:var(--c1)}18.6%,100%{fill:var(--ce)}}.c.cb{fill:var(--c1);animation-name:cb}@keyframes cc{18.21%{fill:var(--c1)}18.23%,100%{fill:var(--ce)}}.c.cc{fill:var(--c1);animation-name:cc}@keyframes cd{17.83%{fill:var(--c1)}17.85%,100%{fill:var(--ce)}}.c.cd{fill:var(--c1);animation-name:cd}@keyframes ce{13.74%{fill:var(--c1)}13.76%,100%{fill:var(--ce)}}.c.ce{fill:var(--c1);animation-name:ce}@keyframes cf{19.32%{fill:var(--c1)}19.34%,100%{fill:var(--ce)}}.c.cf{fill:var(--c1);animation-name:cf}@keyframes cg{15.98%{fill:var(--c1)}16%,100%{fill:var(--ce)}}.c.cg{fill:var(--c1);animation-name:cg}@keyframes ch{14.12%{fill:var(--c1)}14.14%,100%{fill:var(--ce)}}.c.ch{fill:var(--c1);animation-name:ch}@keyframes ci{21.18%{fill:var(--c1)}21.2%,100%{fill:var(--ce)}}.c.ci{fill:var(--c1);animation-name:ci}@keyframes cj{21.55%{fill:var(--c1)}21.57%,100%{fill:var(--ce)}}.c.cj{fill:var(--c1);animation-name:cj}@keyframes ck{74.71%{fill:var(--c2)}74.73%,100%{fill:var(--ce)}}.c.ck{fill:var(--c2);animation-name:ck}@keyframes cl{15.6%{fill:var(--c1)}15.62%,100%{fill:var(--ce)}}.c.cl{fill:var(--c1);animation-name:cl}@keyframes cm{14.49%{fill:var(--c1)}14.51%,100%{fill:var(--ce)}}.c.cm{fill:var(--c1);animation-name:cm}@keyframes cn{20.06%{fill:var(--c1)}20.08%,100%{fill:var(--ce)}}.c.cn{fill:var(--c1);animation-name:cn}@keyframes co{20.44%{fill:var(--c1)}20.46%,100%{fill:var(--ce)}}.c.co{fill:var(--c1);animation-name:co}@keyframes cp{20.81%{fill:var(--c1)}20.83%,100%{fill:var(--ce)}}.c.cp{fill:var(--c1);animation-name:cp}@keyframes cq{21.92%{fill:var(--c1)}21.94%,100%{fill:var(--ce)}}.c.cq{fill:var(--c1);animation-name:cq}@keyframes cr{15.23%{fill:var(--c1)}15.25%,100%{fill:var(--ce)}}.c.cr{fill:var(--c1);animation-name:cr}@keyframes cs{14.86%{fill:var(--c1)}14.88%,100%{fill:var(--ce)}}.c.cs{fill:var(--c1);animation-name:cs}@keyframes ct{22.29%{fill:var(--c1)}22.31%,100%{fill:var(--ce)}}.c.ct{fill:var(--c1);animation-name:ct}@keyframes cu{57.61%{fill:var(--c1)}57.63%,100%{fill:var(--ce)}}.c.cu{fill:var(--c1);animation-name:cu}@keyframes cv{23.04%{fill:var(--c1)}23.06%,100%{fill:var(--ce)}}.c.cv{fill:var(--c1);animation-name:cv}@keyframes cw{22.67%{fill:var(--c1)}22.69%,100%{fill:var(--ce)}}.c.cw{fill:var(--c1);animation-name:cw}@keyframes cx{57.24%{fill:var(--c1)}57.26%,100%{fill:var(--ce)}}.c.cx{fill:var(--c1);animation-name:cx}@keyframes cy{66.9%{fill:var(--c1)}66.92%,100%{fill:var(--ce)}}.c.cy{fill:var(--c1);animation-name:cy}@keyframes cz{24.15%{fill:var(--c1)}24.17%,100%{fill:var(--ce)}}.c.cz{fill:var(--c1);animation-name:cz}@keyframes c10{76.57%{fill:var(--c2)}76.59%,100%{fill:var(--ce)}}.c.c10{fill:var(--c2);animation-name:c10}@keyframes c11{56.12%{fill:var(--c1)}56.14%,100%{fill:var(--ce)}}.c.c11{fill:var(--c1);animation-name:c11}@keyframes c12{24.53%{fill:var(--c1)}24.55%,100%{fill:var(--ce)}}.c.c12{fill:var(--c1);animation-name:c12}@keyframes c13{44.6%{fill:var(--c1)}44.62%,100%{fill:var(--ce)}}.c.c13{fill:var(--c1);animation-name:c13}@keyframes c14{60.21%{fill:var(--c1)}60.23%,100%{fill:var(--ce)}}.c.c14{fill:var(--c1);animation-name:c14}@keyframes c15{43.86%{fill:var(--c1)}43.88%,100%{fill:var(--ce)}}.c.c15{fill:var(--c1);animation-name:c15}@keyframes c16{44.97%{fill:var(--c1)}44.99%,100%{fill:var(--ce)}}.c.c16{fill:var(--c1);animation-name:c16}@keyframes c17{55.01%{fill:var(--c1)}55.03%,100%{fill:var(--ce)}}.c.c17{fill:var(--c1);animation-name:c17}@keyframes c18{61.33%{fill:var(--c1)}61.35%,100%{fill:var(--ce)}}.c.c18{fill:var(--c1);animation-name:c18}@keyframes c19{60.96%{fill:var(--c1)}60.98%,100%{fill:var(--ce)}}.c.c19{fill:var(--c1);animation-name:c19}@keyframes c1a{25.27%{fill:var(--c1)}25.29%,100%{fill:var(--ce)}}.c.c1a{fill:var(--c1);animation-name:c1a}@keyframes c1b{43.48%{fill:var(--c1)}43.5%,100%{fill:var(--ce)}}.c.c1b{fill:var(--c1);animation-name:c1b}@keyframes c1c{45.34%{fill:var(--c1)}45.36%,100%{fill:var(--ce)}}.c.c1c{fill:var(--c1);animation-name:c1c}@keyframes c1d{54.64%{fill:var(--c1)}54.66%,100%{fill:var(--ce)}}.c.c1d{fill:var(--c1);animation-name:c1d}@keyframes c1e{61.7%{fill:var(--c1)}61.72%,100%{fill:var(--ce)}}.c.c1e{fill:var(--c1);animation-name:c1e}@keyframes c1f{26.38%{fill:var(--c1)}26.4%,100%{fill:var(--ce)}}.c.c1f{fill:var(--c1);animation-name:c1f}@keyframes c1g{25.64%{fill:var(--c1)}25.66%,100%{fill:var(--ce)}}.c.c1g{fill:var(--c1);animation-name:c1g}@keyframes c1h{43.11%{fill:var(--c1)}43.13%,100%{fill:var(--ce)}}.c.c1h{fill:var(--c1);animation-name:c1h}@keyframes c1i{45.71%{fill:var(--c1)}45.73%,100%{fill:var(--ce)}}.c.c1i{fill:var(--c1);animation-name:c1i}@keyframes c1j{54.27%{fill:var(--c1)}54.29%,100%{fill:var(--ce)}}.c.c1j{fill:var(--c1);animation-name:c1j}@keyframes c1k{26.76%{fill:var(--c1)}26.78%,100%{fill:var(--ce)}}.c.c1k{fill:var(--c1);animation-name:c1k}@keyframes c1l{46.09%{fill:var(--c1)}46.11%,100%{fill:var(--ce)}}.c.c1l{fill:var(--c1);animation-name:c1l}@keyframes c1m{27.13%{fill:var(--c1)}27.15%,100%{fill:var(--ce)}}.c.c1m{fill:var(--c1);animation-name:c1m}@keyframes c1n{46.46%{fill:var(--c1)}46.48%,100%{fill:var(--ce)}}.c.c1n{fill:var(--c1);animation-name:c1n}@keyframes c1o{53.52%{fill:var(--c1)}53.54%,100%{fill:var(--ce)}}.c.c1o{fill:var(--c1);animation-name:c1o}@keyframes c1p{62.82%{fill:var(--c1)}62.84%,100%{fill:var(--ce)}}.c.c1p{fill:var(--c1);animation-name:c1p}@keyframes c1q{81.03%{fill:var(--c2)}81.05%,100%{fill:var(--ce)}}.c.c1q{fill:var(--c2);animation-name:c1q}@keyframes c1r{79.92%{fill:var(--c2)}79.94%,100%{fill:var(--ce)}}.c.c1r{fill:var(--c2);animation-name:c1r}@keyframes c1s{42%{fill:var(--c1)}42.02%,100%{fill:var(--ce)}}.c.c1s{fill:var(--c1);animation-name:c1s}@keyframes c1t{46.83%{fill:var(--c1)}46.85%,100%{fill:var(--ce)}}.c.c1t{fill:var(--c1);animation-name:c1t}@keyframes c1u{53.15%{fill:var(--c1)}53.17%,100%{fill:var(--ce)}}.c.c1u{fill:var(--c1);animation-name:c1u}@keyframes c1v{63.19%{fill:var(--c1)}63.21%,100%{fill:var(--ce)}}.c.c1v{fill:var(--c1);animation-name:c1v}@keyframes c1w{80.66%{fill:var(--c2)}80.68%,100%{fill:var(--ce)}}.c.c1w{fill:var(--c2);animation-name:c1w}@keyframes c1x{80.29%{fill:var(--c2)}80.31%,100%{fill:var(--ce)}}.c.c1x{fill:var(--c2);animation-name:c1x}@keyframes c1y{28.61%{fill:var(--c1)}28.63%,100%{fill:var(--ce)}}.c.c1y{fill:var(--c1);animation-name:c1y}@keyframes c1z{41.63%{fill:var(--c1)}41.65%,100%{fill:var(--ce)}}.c.c1z{fill:var(--c1);animation-name:c1z}@keyframes c20{52.78%{fill:var(--c1)}52.8%,100%{fill:var(--ce)}}.c.c20{fill:var(--c1);animation-name:c20}@keyframes c21{82.15%{fill:var(--c4)}82.17%,100%{fill:var(--ce)}}.c.c21{fill:var(--c4);animation-name:c21}@keyframes c22{35.68%{fill:var(--c1)}35.7%,100%{fill:var(--ce)}}.c.c22{fill:var(--c1);animation-name:c22}@keyframes c23{36.05%{fill:var(--c1)}36.07%,100%{fill:var(--ce)}}.c.c23{fill:var(--c1);animation-name:c23}@keyframes c24{28.99%{fill:var(--c1)}29.01%,100%{fill:var(--ce)}}.c.c24{fill:var(--c1);animation-name:c24}@keyframes c25{41.25%{fill:var(--c1)}41.27%,100%{fill:var(--ce)}}.c.c25{fill:var(--c1);animation-name:c25}@keyframes c26{52.41%{fill:var(--c1)}52.43%,100%{fill:var(--ce)}}.c.c26{fill:var(--c1);animation-name:c26}@keyframes c27{34.93%{fill:var(--c1)}34.95%,100%{fill:var(--ce)}}.c.c27{fill:var(--c1);animation-name:c27}@keyframes c28{35.31%{fill:var(--c1)}35.33%,100%{fill:var(--ce)}}.c.c28{fill:var(--c1);animation-name:c28}@keyframes c29{36.42%{fill:var(--c1)}36.44%,100%{fill:var(--ce)}}.c.c29{fill:var(--c1);animation-name:c29}@keyframes c2a{29.36%{fill:var(--c1)}29.38%,100%{fill:var(--ce)}}.c.c2a{fill:var(--c1);animation-name:c2a}@keyframes c2b{40.88%{fill:var(--c1)}40.9%,100%{fill:var(--ce)}}.c.c2b{fill:var(--c1);animation-name:c2b}@keyframes c2c{47.95%{fill:var(--c1)}47.97%,100%{fill:var(--ce)}}.c.c2c{fill:var(--c1);animation-name:c2c}@keyframes c2d{52.03%{fill:var(--c1)}52.05%,100%{fill:var(--ce)}}.c.c2d{fill:var(--c1);animation-name:c2d}@keyframes c2e{34.56%{fill:var(--c1)}34.58%,100%{fill:var(--ce)}}.c.c2e{fill:var(--c1);animation-name:c2e}@keyframes c2f{34.19%{fill:var(--c1)}34.21%,100%{fill:var(--ce)}}.c.c2f{fill:var(--c1);animation-name:c2f}@keyframes c2g{36.79%{fill:var(--c1)}36.81%,100%{fill:var(--ce)}}.c.c2g{fill:var(--c1);animation-name:c2g}@keyframes c2h{29.73%{fill:var(--c1)}29.75%,100%{fill:var(--ce)}}.c.c2h{fill:var(--c1);animation-name:c2h}@keyframes c2i{40.51%{fill:var(--c1)}40.53%,100%{fill:var(--ce)}}.c.c2i{fill:var(--c1);animation-name:c2i}@keyframes c2j{48.32%{fill:var(--c1)}48.34%,100%{fill:var(--ce)}}.c.c2j{fill:var(--c1);animation-name:c2j}@keyframes c2k{48.69%{fill:var(--c1)}48.71%,100%{fill:var(--ce)}}.c.c2k{fill:var(--c1);animation-name:c2k}@keyframes c2l{33.82%{fill:var(--c1)}33.84%,100%{fill:var(--ce)}}.c.c2l{fill:var(--c1);animation-name:c2l}@keyframes c2m{37.16%{fill:var(--c1)}37.18%,100%{fill:var(--ce)}}.c.c2m{fill:var(--c1);animation-name:c2m}@keyframes c2n{30.1%{fill:var(--c1)}30.12%,100%{fill:var(--ce)}}.c.c2n{fill:var(--c1);animation-name:c2n}@keyframes c2o{40.14%{fill:var(--c1)}40.16%,100%{fill:var(--ce)}}.c.c2o{fill:var(--c1);animation-name:c2o}@keyframes c2p{49.06%{fill:var(--c1)}49.08%,100%{fill:var(--ce)}}.c.c2p{fill:var(--c1);animation-name:c2p}@keyframes c2q{33.08%{fill:var(--c1)}33.1%,100%{fill:var(--ce)}}.c.c2q{fill:var(--c1);animation-name:c2q}@keyframes c2r{33.45%{fill:var(--c1)}33.47%,100%{fill:var(--ce)}}.c.c2r{fill:var(--c1);animation-name:c2r}@keyframes c2s{37.54%{fill:var(--c1)}37.56%,100%{fill:var(--ce)}}.c.c2s{fill:var(--c1);animation-name:c2s}@keyframes c2t{30.47%{fill:var(--c1)}30.49%,100%{fill:var(--ce)}}.c.c2t{fill:var(--c1);animation-name:c2t}@keyframes c2u{39.4%{fill:var(--c1)}39.42%,100%{fill:var(--ce)}}.c.c2u{fill:var(--c1);animation-name:c2u}@keyframes c2v{32.7%{fill:var(--c1)}32.72%,100%{fill:var(--ce)}}.c.c2v{fill:var(--c1);animation-name:c2v}@keyframes c2w{32.33%{fill:var(--c1)}32.35%,100%{fill:var(--ce)}}.c.c2w{fill:var(--c1);animation-name:c2w}@keyframes c2x{31.22%{fill:var(--c1)}31.24%,100%{fill:var(--ce)}}.c.c2x{fill:var(--c1);animation-name:c2x}@keyframes c2y{30.85%{fill:var(--c1)}30.87%,100%{fill:var(--ce)}}.c.c2y{fill:var(--c1);animation-name:c2y}@keyframes c2z{38.65%{fill:var(--c1)}38.67%,100%{fill:var(--ce)}}.c.c2z{fill:var(--c1);animation-name:c2z}@keyframes c30{39.02%{fill:var(--c1)}39.04%,100%{fill:var(--ce)}}.c.c30{fill:var(--c1);animation-name:c30}@keyframes c31{49.8%{fill:var(--c1)}49.82%,100%{fill:var(--ce)}}.c.c31{fill:var(--c1);animation-name:c31}@keyframes c32{31.96%{fill:var(--c1)}31.98%,100%{fill:var(--ce)}}.c.c32{fill:var(--c1);animation-name:c32}@keyframes c33{31.59%{fill:var(--c1)}31.61%,100%{fill:var(--ce)}}.c.c33{fill:var(--c1);animation-name:c33}.u{transform-origin:0 0;transform:scale(0,1);animation:none linear 26900ms infinite}@keyframes u0{10.03%{transform:scale(0.000,1)}10.05%,13%{transform:scale(0.010,1)}13.02%,13.37%{transform:scale(0.019,1)}13.39%,13.74%{transform:scale(0.029,1)}13.76%,14.12%{transform:scale(0.038,1)}14.14%,14.49%{transform:scale(0.048,1)}14.51%,14.86%{transform:scale(0.057,1)}14.88%,15.23%{transform:scale(0.067,1)}15.25%,15.6%{transform:scale(0.076,1)}15.62%,15.98%{transform:scale(0.086,1)}16%,16.72%{transform:scale(0.095,1)}16.74%,17.09%{transform:scale(0.105,1)}17.11%,17.46%{transform:scale(0.114,1)}17.48%,17.83%{transform:scale(0.124,1)}17.85%,18.21%{transform:scale(0.133,1)}18.23%,18.58%{transform:scale(0.143,1)}18.6%,18.95%{transform:scale(0.152,1)}18.97%,19.32%{transform:scale(0.162,1)}19.34%,20.06%{transform:scale(0.171,1)}20.08%,20.44%{transform:scale(0.181,1)}20.46%,20.81%{transform:scale(0.190,1)}20.83%,21.18%{transform:scale(0.200,1)}21.2%,21.55%{transform:scale(0.210,1)}21.57%,21.92%{transform:scale(0.219,1)}21.94%,22.29%{transform:scale(0.229,1)}22.31%,22.67%{transform:scale(0.238,1)}22.69%,23.04%{transform:scale(0.248,1)}23.06%,24.15%{transform:scale(0.257,1)}24.17%,24.53%{transform:scale(0.267,1)}24.55%,25.27%{transform:scale(0.276,1)}25.29%,25.64%{transform:scale(0.286,1)}25.66%,26.38%{transform:scale(0.295,1)}26.4%,26.76%{transform:scale(0.305,1)}26.78%,27.13%{transform:scale(0.314,1)}27.15%,28.61%{transform:scale(0.324,1)}28.63%,28.99%{transform:scale(0.333,1)}29.01%,29.36%{transform:scale(0.343,1)}29.38%,29.73%{transform:scale(0.352,1)}29.75%,30.1%{transform:scale(0.362,1)}30.12%,30.47%{transform:scale(0.371,1)}30.49%,30.85%{transform:scale(0.381,1)}30.87%,31.22%{transform:scale(0.390,1)}31.24%,31.59%{transform:scale(0.400,1)}31.61%,31.96%{transform:scale(0.410,1)}31.98%,32.33%{transform:scale(0.419,1)}32.35%,32.7%{transform:scale(0.429,1)}32.72%,33.08%{transform:scale(0.438,1)}33.1%,33.45%{transform:scale(0.448,1)}33.47%,33.82%{transform:scale(0.457,1)}33.84%,34.19%{transform:scale(0.467,1)}34.21%,34.56%{transform:scale(0.476,1)}34.58%,34.93%{transform:scale(0.486,1)}34.95%,35.31%{transform:scale(0.495,1)}35.33%,35.68%{transform:scale(0.505,1)}35.7%,36.05%{transform:scale(0.514,1)}36.07%,36.42%{transform:scale(0.524,1)}36.44%,36.79%{transform:scale(0.533,1)}36.81%,37.16%{transform:scale(0.543,1)}37.18%,37.54%{transform:scale(0.552,1)}37.56%,38.65%{transform:scale(0.562,1)}38.67%,39.02%{transform:scale(0.571,1)}39.04%,39.4%{transform:scale(0.581,1)}39.42%,40.14%{transform:scale(0.590,1)}40.16%,40.51%{transform:scale(0.600,1)}40.53%,40.88%{transform:scale(0.610,1)}40.9%,41.25%{transform:scale(0.619,1)}41.27%,41.63%{transform:scale(0.629,1)}41.65%,42%{transform:scale(0.638,1)}42.02%,43.11%{transform:scale(0.648,1)}43.13%,43.48%{transform:scale(0.657,1)}43.5%,43.86%{transform:scale(0.667,1)}43.88%,44.6%{transform:scale(0.676,1)}44.62%,44.97%{transform:scale(0.686,1)}44.99%,45.34%{transform:scale(0.695,1)}45.36%,45.71%{transform:scale(0.705,1)}45.73%,46.09%{transform:scale(0.714,1)}46.11%,46.46%{transform:scale(0.724,1)}46.48%,46.83%{transform:scale(0.733,1)}46.85%,47.95%{transform:scale(0.743,1)}47.97%,48.32%{transform:scale(0.752,1)}48.34%,48.69%{transform:scale(0.762,1)}48.71%,49.06%{transform:scale(0.771,1)}49.08%,49.8%{transform:scale(0.781,1)}49.82%,52.03%{transform:scale(0.790,1)}52.05%,52.41%{transform:scale(0.800,1)}52.43%,52.78%{transform:scale(0.810,1)}52.8%,53.15%{transform:scale(0.819,1)}53.17%,53.52%{transform:scale(0.829,1)}53.54%,54.27%{transform:scale(0.838,1)}54.29%,54.64%{transform:scale(0.848,1)}54.66%,55.01%{transform:scale(0.857,1)}55.03%,56.12%{transform:scale(0.867,1)}56.14%,57.24%{transform:scale(0.876,1)}57.26%,57.61%{transform:scale(0.886,1)}57.63%,60.21%{transform:scale(0.895,1)}60.23%,60.96%{transform:scale(0.905,1)}60.98%,61.33%{transform:scale(0.914,1)}61.35%,61.7%{transform:scale(0.924,1)}61.72%,62.82%{transform:scale(0.933,1)}62.84%,63.19%{transform:scale(0.943,1)}63.21%,66.9%{transform:scale(0.952,1)}66.92%,70.25%{transform:scale(0.962,1)}70.27%,70.62%{transform:scale(0.971,1)}70.64%,72.11%{transform:scale(0.981,1)}72.13%,72.48%{transform:scale(0.990,1)}72.5%,100%{transform:scale(1.000,1)}}.u.u0{fill:var(--c1);animation-name:u0;transform-origin:0.0px 0}@keyframes u1{74.71%{transform:scale(0.000,1)}74.73%,76.57%{transform:scale(0.167,1)}76.59%,79.92%{transform:scale(0.333,1)}79.94%,80.29%{transform:scale(0.500,1)}80.31%,80.66%{transform:scale(0.667,1)}80.68%,81.03%{transform:scale(0.833,1)}81.05%,100%{transform:scale(1.000,1)}}.u.u1{fill:var(--c2);animation-name:u1;transform-origin:795.0px 0}@keyframes u2{82.15%{transform:scale(0.000,1)}82.17%,100%{transform:scale(1.000,1)}}.u.u2{fill:var(--c4);animation-name:u2;transform-origin:840.4px 0}.s{shape-rendering:geometricPrecision;fill:var(--cs);animation:none linear 26900ms infinite}@keyframes s0{0%,99.63%{transform:translate(0px,-16px)}0.37%{transform:translate(0px,0px)}7.81%{transform:translate(320px,0px)}10.04%{transform:translate(320px,96px)}14.87%{transform:translate(528px,96px)}15.24%{transform:translate(528px,80px)}16.73%{transform:translate(464px,80px)}17.47%{transform:translate(464px,48px)}17.84%{transform:translate(480px,48px)}18.96%{transform:translate(480px,0px)}20.07%{transform:translate(528px,0px)}20.82%{transform:translate(528px,32px)}21.19%{transform:translate(512px,32px)}21.56%{transform:translate(512px,48px)}22.68%{transform:translate(560px,48px)}23.05%{transform:translate(560px,32px)}23.79%{transform:translate(592px,32px)}24.16%{transform:translate(592px,48px)}25.65%{transform:translate(656px,48px)}26.39%{transform:translate(656px,16px)}27.14%{transform:translate(688px,16px)}27.88%{transform:translate(688px,48px)}30.86%{transform:translate(816px,48px)}31.23%{transform:translate(816px,32px)}31.6%{transform:translate(832px,32px)}31.97%{transform:translate(832px,16px)}32.34%{transform:translate(816px,16px)}32.71%{transform:translate(816px,0px)}33.09%{transform:translate(800px,0px)}33.46%{transform:translate(800px,16px)}34.2%{transform:translate(768px,16px)}34.57%{transform:translate(768px,0px)}34.94%{transform:translate(752px,0px)}35.32%{transform:translate(752px,16px)}35.69%{transform:translate(736px,16px)}36.06%{transform:translate(736px,32px)}37.55%{transform:translate(800px,32px)}38.29%{transform:translate(800px,64px)}38.66%{transform:translate(816px,64px)}39.03%,50.19%{transform:translate(816px,80px)}39.78%{transform:translate(784px,80px)}40.15%{transform:translate(784px,64px)}44.24%{transform:translate(608px,64px)}44.61%{transform:translate(608px,80px)}48.33%{transform:translate(768px,80px)}48.7%{transform:translate(768px,96px)}49.81%{transform:translate(816px,96px)}51.67%{transform:translate(752px,80px)}52.04%{transform:translate(752px,96px)}55.02%{transform:translate(624px,96px)}55.39%{transform:translate(624px,80px)}56.51%{transform:translate(576px,80px)}56.88%{transform:translate(576px,64px)}57.62%{transform:translate(544px,64px)}57.99%{transform:translate(544px,48px)}59.85%{transform:translate(624px,48px)}60.22%{transform:translate(624px,32px)}60.59%{transform:translate(640px,32px)}61.34%{transform:translate(640px,0px)}63.2%{transform:translate(720px,0px)}63.57%{transform:translate(720px,-16px)}66.54%{transform:translate(592px,-16px)}66.91%{transform:translate(592px,0px)}69.89%{transform:translate(464px,0px)}70.63%{transform:translate(464px,32px)}71.38%{transform:translate(432px,32px)}72.49%{transform:translate(432px,80px)}74.35%{transform:translate(512px,80px)}74.72%{transform:translate(512px,64px)}79.18%{transform:translate(704px,64px)}79.93%{transform:translate(704px,32px)}80.3%{transform:translate(720px,32px)}80.67%{transform:translate(720px,16px)}81.04%{transform:translate(704px,16px)}81.41%{transform:translate(704px,0px)}82.16%{transform:translate(736px,0px)}82.53%{transform:translate(736px,-16px)}}.s.s0{transform:translate(0px,-16px);animation-name:s0}@keyframes s1{0%,99.63%{transform:translate(16px,-16px)}0.37%{transform:translate(0px,-16px)}0.74%{transform:translate(0px,0px)}8.18%{transform:translate(320px,0px)}10.41%{transform:translate(320px,96px)}15.24%{transform:translate(528px,96px)}15.61%{transform:translate(528px,80px)}17.1%{transform:translate(464px,80px)}17.84%{transform:translate(464px,48px)}18.22%{transform:translate(480px,48px)}19.33%{transform:translate(480px,0px)}20.45%{transform:translate(528px,0px)}21.19%{transform:translate(528px,32px)}21.56%{transform:translate(512px,32px)}21.93%{transform:translate(512px,48px)}23.05%{transform:translate(560px,48px)}23.42%{transform:translate(560px,32px)}24.16%{transform:translate(592px,32px)}24.54%{transform:translate(592px,48px)}26.02%{transform:translate(656px,48px)}26.77%{transform:translate(656px,16px)}27.51%{transform:translate(688px,16px)}28.25%{transform:translate(688px,48px)}31.23%{transform:translate(816px,48px)}31.6%{transform:translate(816px,32px)}31.97%{transform:translate(832px,32px)}32.34%{transform:translate(832px,16px)}32.71%{transform:translate(816px,16px)}33.09%{transform:translate(816px,0px)}33.46%{transform:translate(800px,0px)}33.83%{transform:translate(800px,16px)}34.57%{transform:translate(768px,16px)}34.94%{transform:translate(768px,0px)}35.32%{transform:translate(752px,0px)}35.69%{transform:translate(752px,16px)}36.06%{transform:translate(736px,16px)}36.43%{transform:translate(736px,32px)}37.92%{transform:translate(800px,32px)}38.66%{transform:translate(800px,64px)}39.03%{transform:translate(816px,64px)}39.41%,50.56%{transform:translate(816px,80px)}40.15%{transform:translate(784px,80px)}40.52%{transform:translate(784px,64px)}44.61%{transform:translate(608px,64px)}44.98%{transform:translate(608px,80px)}48.7%{transform:translate(768px,80px)}49.07%{transform:translate(768px,96px)}50.19%{transform:translate(816px,96px)}52.04%{transform:translate(752px,80px)}52.42%{transform:translate(752px,96px)}55.39%{transform:translate(624px,96px)}55.76%{transform:translate(624px,80px)}56.88%{transform:translate(576px,80px)}57.25%{transform:translate(576px,64px)}57.99%{transform:translate(544px,64px)}58.36%{transform:translate(544px,48px)}60.22%{transform:translate(624px,48px)}60.59%{transform:translate(624px,32px)}60.97%{transform:translate(640px,32px)}61.71%{transform:translate(640px,0px)}63.57%{transform:translate(720px,0px)}63.94%{transform:translate(720px,-16px)}66.91%{transform:translate(592px,-16px)}67.29%{transform:translate(592px,0px)}70.26%{transform:translate(464px,0px)}71%{transform:translate(464px,32px)}71.75%{transform:translate(432px,32px)}72.86%{transform:translate(432px,80px)}74.72%{transform:translate(512px,80px)}75.09%{transform:translate(512px,64px)}79.55%{transform:translate(704px,64px)}80.3%{transform:translate(704px,32px)}80.67%{transform:translate(720px,32px)}81.04%{transform:translate(720px,16px)}81.41%{transform:translate(704px,16px)}81.78%{transform:translate(704px,0px)}82.53%{transform:translate(736px,0px)}82.9%{transform:translate(736px,-16px)}}.s.s1{transform:translate(16px,-16px);animation-name:s1}@keyframes s2{0%,99.63%{transform:translate(32px,-16px)}0.74%{transform:translate(0px,-16px)}1.12%{transform:translate(0px,0px)}8.55%{transform:translate(320px,0px)}10.78%{transform:translate(320px,96px)}15.61%{transform:translate(528px,96px)}15.99%{transform:translate(528px,80px)}17.47%{transform:translate(464px,80px)}18.22%{transform:translate(464px,48px)}18.59%{transform:translate(480px,48px)}19.7%{transform:translate(480px,0px)}20.82%{transform:translate(528px,0px)}21.56%{transform:translate(528px,32px)}21.93%{transform:translate(512px,32px)}22.3%{transform:translate(512px,48px)}23.42%{transform:translate(560px,48px)}23.79%{transform:translate(560px,32px)}24.54%{transform:translate(592px,32px)}24.91%{transform:translate(592px,48px)}26.39%{transform:translate(656px,48px)}27.14%{transform:translate(656px,16px)}27.88%{transform:translate(688px,16px)}28.62%{transform:translate(688px,48px)}31.6%{transform:translate(816px,48px)}31.97%{transform:translate(816px,32px)}32.34%{transform:translate(832px,32px)}32.71%{transform:translate(832px,16px)}33.09%{transform:translate(816px,16px)}33.46%{transform:translate(816px,0px)}33.83%{transform:translate(800px,0px)}34.2%{transform:translate(800px,16px)}34.94%{transform:translate(768px,16px)}35.32%{transform:translate(768px,0px)}35.69%{transform:translate(752px,0px)}36.06%{transform:translate(752px,16px)}36.43%{transform:translate(736px,16px)}36.8%{transform:translate(736px,32px)}38.29%{transform:translate(800px,32px)}39.03%{transform:translate(800px,64px)}39.41%{transform:translate(816px,64px)}39.78%,50.93%{transform:translate(816px,80px)}40.52%{transform:translate(784px,80px)}40.89%{transform:translate(784px,64px)}44.98%{transform:translate(608px,64px)}45.35%{transform:translate(608px,80px)}49.07%{transform:translate(768px,80px)}49.44%{transform:translate(768px,96px)}50.56%{transform:translate(816px,96px)}52.42%{transform:translate(752px,80px)}52.79%{transform:translate(752px,96px)}55.76%{transform:translate(624px,96px)}56.13%{transform:translate(624px,80px)}57.25%{transform:translate(576px,80px)}57.62%{transform:translate(576px,64px)}58.36%{transform:translate(544px,64px)}58.74%{transform:translate(544px,48px)}60.59%{transform:translate(624px,48px)}60.97%{transform:translate(624px,32px)}61.34%{transform:translate(640px,32px)}62.08%{transform:translate(640px,0px)}63.94%{transform:translate(720px,0px)}64.31%{transform:translate(720px,-16px)}67.29%{transform:translate(592px,-16px)}67.66%{transform:translate(592px,0px)}70.63%{transform:translate(464px,0px)}71.38%{transform:translate(464px,32px)}72.12%{transform:translate(432px,32px)}73.23%{transform:translate(432px,80px)}75.09%{transform:translate(512px,80px)}75.46%{transform:translate(512px,64px)}79.93%{transform:translate(704px,64px)}80.67%{transform:translate(704px,32px)}81.04%{transform:translate(720px,32px)}81.41%{transform:translate(720px,16px)}81.78%{transform:translate(704px,16px)}82.16%{transform:translate(704px,0px)}82.9%{transform:translate(736px,0px)}83.27%{transform:translate(736px,-16px)}}.s.s2{transform:translate(32px,-16px);animation-name:s2}@keyframes s3{0%,99.63%{transform:translate(48px,-16px)}1.12%{transform:translate(0px,-16px)}1.49%{transform:translate(0px,0px)}8.92%{transform:translate(320px,0px)}11.15%{transform:translate(320px,96px)}15.99%{transform:translate(528px,96px)}16.36%{transform:translate(528px,80px)}17.84%{transform:translate(464px,80px)}18.59%{transform:translate(464px,48px)}18.96%{transform:translate(480px,48px)}20.07%{transform:translate(480px,0px)}21.19%{transform:translate(528px,0px)}21.93%{transform:translate(528px,32px)}22.3%{transform:translate(512px,32px)}22.68%{transform:translate(512px,48px)}23.79%{transform:translate(560px,48px)}24.16%{transform:translate(560px,32px)}24.91%{transform:translate(592px,32px)}25.28%{transform:translate(592px,48px)}26.77%{transform:translate(656px,48px)}27.51%{transform:translate(656px,16px)}28.25%{transform:translate(688px,16px)}29%{transform:translate(688px,48px)}31.97%{transform:translate(816px,48px)}32.34%{transform:translate(816px,32px)}32.71%{transform:translate(832px,32px)}33.09%{transform:translate(832px,16px)}33.46%{transform:translate(816px,16px)}33.83%{transform:translate(816px,0px)}34.2%{transform:translate(800px,0px)}34.57%{transform:translate(800px,16px)}35.32%{transform:translate(768px,16px)}35.69%{transform:translate(768px,0px)}36.06%{transform:translate(752px,0px)}36.43%{transform:translate(752px,16px)}36.8%{transform:translate(736px,16px)}37.17%{transform:translate(736px,32px)}38.66%{transform:translate(800px,32px)}39.41%{transform:translate(800px,64px)}39.78%{transform:translate(816px,64px)}40.15%,51.3%{transform:translate(816px,80px)}40.89%{transform:translate(784px,80px)}41.26%{transform:translate(784px,64px)}45.35%{transform:translate(608px,64px)}45.72%{transform:translate(608px,80px)}49.44%{transform:translate(768px,80px)}49.81%{transform:translate(768px,96px)}50.93%{transform:translate(816px,96px)}52.79%{transform:translate(752px,80px)}53.16%{transform:translate(752px,96px)}56.13%{transform:translate(624px,96px)}56.51%{transform:translate(624px,80px)}57.62%{transform:translate(576px,80px)}57.99%{transform:translate(576px,64px)}58.74%{transform:translate(544px,64px)}59.11%{transform:translate(544px,48px)}60.97%{transform:translate(624px,48px)}61.34%{transform:translate(624px,32px)}61.71%{transform:translate(640px,32px)}62.45%{transform:translate(640px,0px)}64.31%{transform:translate(720px,0px)}64.68%{transform:translate(720px,-16px)}67.66%{transform:translate(592px,-16px)}68.03%{transform:translate(592px,0px)}71%{transform:translate(464px,0px)}71.75%{transform:translate(464px,32px)}72.49%{transform:translate(432px,32px)}73.61%{transform:translate(432px,80px)}75.46%{transform:translate(512px,80px)}75.84%{transform:translate(512px,64px)}80.3%{transform:translate(704px,64px)}81.04%{transform:translate(704px,32px)}81.41%{transform:translate(720px,32px)}81.78%{transform:translate(720px,16px)}82.16%{transform:translate(704px,16px)}82.53%{transform:translate(704px,0px)}83.27%{transform:translate(736px,0px)}83.64%{transform:translate(736px,-16px)}}.s.s3{transform:translate(48px,-16px);animation-name:s3}</style><rect class="c" x="2" y="2" rx="2" ry="2"/><rect class="c" x="2" y="18" rx="2" ry="2"/><rect class="c" x="2" y="34" rx="2" ry="2"/><rect class="c" x="2" y="50" rx="2" ry="2"/><rect class="c" x="2" y="66" rx="2" ry="2"/><rect class="c" x="2" y="82" rx="2" ry="2"/><rect class="c" x="2" y="98" rx="2" ry="2"/><rect class="c" x="18" y="2" rx="2" ry="2"/><rect class="c" x="18" y="18" rx="2" ry="2"/><rect class="c" x="18" y="34" rx="2" ry="2"/><rect class="c" x="18" y="50" rx="2" ry="2"/><rect class="c" x="18" y="66" rx="2" ry="2"/><rect class="c" x="18" y="82" rx="2" ry="2"/><rect class="c" x="18" y="98" rx="2" ry="2"/><rect class="c" x="34" y="2" rx="2" ry="2"/><rect class="c" x="34" y="18" rx="2" ry="2"/><rect class="c" x="34" y="34" rx="2" ry="2"/><rect class="c" x="34" y="50" rx="2" ry="2"/><rect class="c" x="34" y="66" rx="2" ry="2"/><rect class="c" x="34" y="82" rx="2" ry="2"/><rect class="c" x="34" y="98" rx="2" ry="2"/><rect class="c" x="50" y="2" rx="2" ry="2"/><rect class="c" x="50" y="18" rx="2" ry="2"/><rect class="c" x="50" y="34" rx="2" ry="2"/><rect class="c" x="50" y="50" rx="2" ry="2"/><rect class="c" x="50" y="66" rx="2" ry="2"/><rect class="c" x="50" y="82" rx="2" ry="2"/><rect class="c" x="50" y="98" rx="2" ry="2"/><rect class="c" x="66" y="2" rx="2" ry="2"/><rect class="c" x="66" y="18" rx="2" ry="2"/><rect class="c" x="66" y="34" rx="2" ry="2"/><rect class="c" x="66" y="50" rx="2" ry="2"/><rect class="c" x="66" y="66" rx="2" ry="2"/><rect class="c" x="66" y="82" rx="2" ry="2"/><rect class="c" x="66" y="98" rx="2" ry="2"/><rect class="c" x="82" y="2" rx="2" ry="2"/><rect class="c" x="82" y="18" rx="2" ry="2"/><rect class="c" x="82" y="34" rx="2" ry="2"/><rect class="c" x="82" y="50" rx="2" ry="2"/><rect class="c" x="82" y="66" rx="2" ry="2"/><rect class="c" x="82" y="82" rx="2" ry="2"/><rect class="c" x="82" y="98" rx="2" ry="2"/><rect class="c" x="98" y="2" rx="2" ry="2"/><rect class="c" x="98" y="18" rx="2" ry="2"/><rect class="c" x="98" y="34" rx="2" ry="2"/><rect class="c" x="98" y="50" rx="2" ry="2"/><rect class="c" x="98" y="66" rx="2" ry="2"/><rect class="c" x="98" y="82" rx="2" ry="2"/><rect class="c" x="98" y="98" rx="2" ry="2"/><rect class="c" x="114" y="2" rx="2" ry="2"/><rect class="c" x="114" y="18" rx="2" ry="2"/><rect class="c" x="114" y="34" rx="2" ry="2"/><rect class="c" x="114" y="50" rx="2" ry="2"/><rect class="c" x="114" y="66" rx="2" ry="2"/><rect class="c" x="114" y="82" rx="2" ry="2"/><rect class="c" x="114" y="98" rx="2" ry="2"/><rect class="c" x="130" y="2" rx="2" ry="2"/><rect class="c" x="130" y="18" rx="2" ry="2"/><rect class="c" x="130" y="34" rx="2" ry="2"/><rect class="c" x="130" y="50" rx="2" ry="2"/><rect class="c" x="130" y="66" rx="2" ry="2"/><rect class="c" x="130" y="82" rx="2" ry="2"/><rect class="c" x="130" y="98" rx="2" ry="2"/><rect class="c" x="146" y="2" rx="2" ry="2"/><rect class="c" x="146" y="18" rx="2" ry="2"/><rect class="c" x="146" y="34" rx="2" ry="2"/><rect class="c" x="146" y="50" rx="2" ry="2"/><rect class="c" x="146" y="66" rx="2" ry="2"/><rect class="c" x="146" y="82" rx="2" ry="2"/><rect class="c" x="146" y="98" rx="2" ry="2"/><rect class="c" x="162" y="2" rx="2" ry="2"/><rect class="c" x="162" y="18" rx="2" ry="2"/><rect class="c" x="162" y="34" rx="2" ry="2"/><rect class="c" x="162" y="50" rx="2" ry="2"/><rect class="c" x="162" y="66" rx="2" ry="2"/><rect class="c" x="162" y="82" rx="2" ry="2"/><rect class="c" x="162" y="98" rx="2" ry="2"/><rect class="c" x="178" y="2" rx="2" ry="2"/><rect class="c" x="178" y="18" rx="2" ry="2"/><rect class="c" x="178" y="34" rx="2" ry="2"/><rect class="c" x="178" y="50" rx="2" ry="2"/><rect class="c" x="178" y="66" rx="2" ry="2"/><rect class="c" x="178" y="82" rx="2" ry="2"/><rect class="c" x="178" y="98" rx="2" ry="2"/><rect class="c" x="194" y="2" rx="2" ry="2"/><rect class="c" x="194" y="18" rx="2" ry="2"/><rect class="c" x="194" y="34" rx="2" ry="2"/><rect class="c" x="194" y="50" rx="2" ry="2"/><rect class="c" x="194" y="66" rx="2" ry="2"/><rect class="c" x="194" y="82" rx="2" ry="2"/><rect class="c" x="194" y="98" rx="2" ry="2"/><rect class="c" x="210" y="2" rx="2" ry="2"/><rect class="c" x="210" y="18" rx="2" ry="2"/><rect class="c" x="210" y="34" rx="2" ry="2"/><rect class="c" x="210" y="50" rx="2" ry="2"/><rect class="c" x="210" y="66" rx="2" ry="2"/><rect class="c" x="210" y="82" rx="2" ry="2"/><rect class="c" x="210" y="98" rx="2" ry="2"/><rect class="c" x="226" y="2" rx="2" ry="2"/><rect class="c" x="226" y="18" rx="2" ry="2"/><rect class="c" x="226" y="34" rx="2" ry="2"/><rect class="c" x="226" y="50" rx="2" ry="2"/><rect class="c" x="226" y="66" rx="2" ry="2"/><rect class="c" x="226" y="82" rx="2" ry="2"/><rect class="c" x="226" y="98" rx="2" ry="2"/><rect class="c" x="242" y="2" rx="2" ry="2"/><rect class="c" x="242" y="18" rx="2" ry="2"/><rect class="c" x="242" y="34" rx="2" ry="2"/><rect class="c" x="242" y="50" rx="2" ry="2"/><rect class="c" x="242" y="66" rx="2" ry="2"/><rect class="c" x="242" y="82" rx="2" ry="2"/><rect class="c" x="242" y="98" rx="2" ry="2"/><rect class="c" x="258" y="2" rx="2" ry="2"/><rect class="c" x="258" y="18" rx="2" ry="2"/><rect class="c" x="258" y="34" rx="2" ry="2"/><rect class="c" x="258" y="50" rx="2" ry="2"/><rect class="c" x="258" y="66" rx="2" ry="2"/><rect class="c" x="258" y="82" rx="2" ry="2"/><rect class="c" x="258" y="98" rx="2" ry="2"/><rect class="c" x="274" y="2" rx="2" ry="2"/><rect class="c" x="274" y="18" rx="2" ry="2"/><rect class="c" x="274" y="34" rx="2" ry="2"/><rect class="c" x="274" y="50" rx="2" ry="2"/><rect class="c" x="274" y="66" rx="2" ry="2"/><rect class="c" x="274" y="82" rx="2" ry="2"/><rect class="c" x="274" y="98" rx="2" ry="2"/><rect class="c" x="290" y="2" rx="2" ry="2"/><rect class="c" x="290" y="18" rx="2" ry="2"/><rect class="c" x="290" y="34" rx="2" ry="2"/><rect class="c" x="290" y="50" rx="2" ry="2"/><rect class="c" x="290" y="66" rx="2" ry="2"/><rect class="c" x="290" y="82" rx="2" ry="2"/><rect class="c" x="290" y="98" rx="2" ry="2"/><rect class="c" x="306" y="2" rx="2" ry="2"/><rect class="c" x="306" y="18" rx="2" ry="2"/><rect class="c" x="306" y="34" rx="2" ry="2"/><rect class="c" x="306" y="50" rx="2" ry="2"/><rect class="c" x="306" y="66" rx="2" ry="2"/><rect class="c" x="306" y="82" rx="2" ry="2"/><rect class="c" x="306" y="98" rx="2" ry="2"/><rect class="c" x="322" y="2" rx="2" ry="2"/><rect class="c" x="322" y="18" rx="2" ry="2"/><rect class="c" x="322" y="34" rx="2" ry="2"/><rect class="c" x="322" y="50" rx="2" ry="2"/><rect class="c" x="322" y="66" rx="2" ry="2"/><rect class="c" x="322" y="82" rx="2" ry="2"/><rect class="c c0" x="322" y="98" rx="2" ry="2"/><rect class="c" x="338" y="2" rx="2" ry="2"/><rect class="c" x="338" y="18" rx="2" ry="2"/><rect class="c" x="338" y="34" rx="2" ry="2"/><rect class="c" x="338" y="50" rx="2" ry="2"/><rect class="c" x="338" y="66" rx="2" ry="2"/><rect class="c" x="338" y="82" rx="2" ry="2"/><rect class="c" x="338" y="98" rx="2" ry="2"/><rect class="c" x="354" y="2" rx="2" ry="2"/><rect class="c" x="354" y="18" rx="2" ry="2"/><rect class="c" x="354" y="34" rx="2" ry="2"/><rect class="c" x="354" y="50" rx="2" ry="2"/><rect class="c" x="354" y="66" rx="2" ry="2"/><rect class="c" x="354" y="82" rx="2" ry="2"/><rect class="c" x="354" y="98" rx="2" ry="2"/><rect class="c" x="370" y="2" rx="2" ry="2"/><rect class="c" x="370" y="18" rx="2" ry="2"/><rect class="c" x="370" y="34" rx="2" ry="2"/><rect class="c" x="370" y="50" rx="2" ry="2"/><rect class="c" x="370" y="66" rx="2" ry="2"/><rect class="c" x="370" y="82" rx="2" ry="2"/><rect class="c" x="370" y="98" rx="2" ry="2"/><rect class="c" x="386" y="2" rx="2" ry="2"/><rect class="c" x="386" y="18" rx="2" ry="2"/><rect class="c" x="386" y="34" rx="2" ry="2"/><rect class="c" x="386" y="50" rx="2" ry="2"/><rect class="c" x="386" y="66" rx="2" ry="2"/><rect class="c" x="386" y="82" rx="2" ry="2"/><rect class="c" x="386" y="98" rx="2" ry="2"/><rect class="c" x="402" y="2" rx="2" ry="2"/><rect class="c" x="402" y="18" rx="2" ry="2"/><rect class="c" x="402" y="34" rx="2" ry="2"/><rect class="c" x="402" y="50" rx="2" ry="2"/><rect class="c" x="402" y="66" rx="2" ry="2"/><rect class="c" x="402" y="82" rx="2" ry="2"/><rect class="c" x="402" y="98" rx="2" ry="2"/><rect class="c" x="418" y="2" rx="2" ry="2"/><rect class="c" x="418" y="18" rx="2" ry="2"/><rect class="c" x="418" y="34" rx="2" ry="2"/><rect class="c" x="418" y="50" rx="2" ry="2"/><rect class="c" x="418" y="66" rx="2" ry="2"/><rect class="c" x="418" y="82" rx="2" ry="2"/><rect class="c" x="418" y="98" rx="2" ry="2"/><rect class="c" x="434" y="2" rx="2" ry="2"/><rect class="c" x="434" y="18" rx="2" ry="2"/><rect class="c" x="434" y="34" rx="2" ry="2"/><rect class="c" x="434" y="50" rx="2" ry="2"/><rect class="c c1" x="434" y="66" rx="2" ry="2"/><rect class="c c2" x="434" y="82" rx="2" ry="2"/><rect class="c" x="434" y="98" rx="2" ry="2"/><rect class="c" x="450" y="2" rx="2" ry="2"/><rect class="c" x="450" y="18" rx="2" ry="2"/><rect class="c" x="450" y="34" rx="2" ry="2"/><rect class="c" x="450" y="50" rx="2" ry="2"/><rect class="c" x="450" y="66" rx="2" ry="2"/><rect class="c" x="450" y="82" rx="2" ry="2"/><rect class="c c3" x="450" y="98" rx="2" ry="2"/><rect class="c" x="466" y="2" rx="2" ry="2"/><rect class="c c4" x="466" y="18" rx="2" ry="2"/><rect class="c c5" x="466" y="34" rx="2" ry="2"/><rect class="c c6" x="466" y="50" rx="2" ry="2"/><rect class="c c7" x="466" y="66" rx="2" ry="2"/><rect class="c c8" x="466" y="82" rx="2" ry="2"/><rect class="c c9" x="466" y="98" rx="2" ry="2"/><rect class="c ca" x="482" y="2" rx="2" ry="2"/><rect class="c cb" x="482" y="18" rx="2" ry="2"/><rect class="c cc" x="482" y="34" rx="2" ry="2"/><rect class="c cd" x="482" y="50" rx="2" ry="2"/><rect class="c" x="482" y="66" rx="2" ry="2"/><rect class="c" x="482" y="82" rx="2" ry="2"/><rect class="c ce" x="482" y="98" rx="2" ry="2"/><rect class="c cf" x="498" y="2" rx="2" ry="2"/><rect class="c" x="498" y="18" rx="2" ry="2"/><rect class="c" x="498" y="34" rx="2" ry="2"/><rect class="c" x="498" y="50" rx="2" ry="2"/><rect class="c" x="498" y="66" rx="2" ry="2"/><rect class="c cg" x="498" y="82" rx="2" ry="2"/><rect class="c ch" x="498" y="98" rx="2" ry="2"/><rect class="c" x="514" y="2" rx="2" ry="2"/><rect class="c" x="514" y="18" rx="2" ry="2"/><rect class="c ci" x="514" y="34" rx="2" ry="2"/><rect class="c cj" x="514" y="50" rx="2" ry="2"/><rect class="c ck" x="514" y="66" rx="2" ry="2"/><rect class="c cl" x="514" y="82" rx="2" ry="2"/><rect class="c cm" x="514" y="98" rx="2" ry="2"/><rect class="c cn" x="530" y="2" rx="2" ry="2"/><rect class="c co" x="530" y="18" rx="2" ry="2"/><rect class="c cp" x="530" y="34" rx="2" ry="2"/><rect class="c cq" x="530" y="50" rx="2" ry="2"/><rect class="c" x="530" y="66" rx="2" ry="2"/><rect class="c cr" x="530" y="82" rx="2" ry="2"/><rect class="c cs" x="530" y="98" rx="2" ry="2"/><rect class="c" x="546" y="2" rx="2" ry="2"/><rect class="c" x="546" y="18" rx="2" ry="2"/><rect class="c" x="546" y="34" rx="2" ry="2"/><rect class="c ct" x="546" y="50" rx="2" ry="2"/><rect class="c cu" x="546" y="66" rx="2" ry="2"/><rect class="c" x="546" y="82" rx="2" ry="2"/><rect class="c" x="546" y="98" rx="2" ry="2"/><rect class="c" x="562" y="2" rx="2" ry="2"/><rect class="c" x="562" y="18" rx="2" ry="2"/><rect class="c cv" x="562" y="34" rx="2" ry="2"/><rect class="c cw" x="562" y="50" rx="2" ry="2"/><rect class="c cx" x="562" y="66" rx="2" ry="2"/><rect class="c" x="562" y="82" rx="2" ry="2"/><rect class="c" x="562" y="98" rx="2" ry="2"/><rect class="c" x="578" y="2" rx="2" ry="2"/><rect class="c" x="578" y="18" rx="2" ry="2"/><rect class="c" x="578" y="34" rx="2" ry="2"/><rect class="c" x="578" y="50" rx="2" ry="2"/><rect class="c" x="578" y="66" rx="2" ry="2"/><rect class="c" x="578" y="82" rx="2" ry="2"/><rect class="c" x="578" y="98" rx="2" ry="2"/><rect class="c cy" x="594" y="2" rx="2" ry="2"/><rect class="c" x="594" y="18" rx="2" ry="2"/><rect class="c" x="594" y="34" rx="2" ry="2"/><rect class="c cz" x="594" y="50" rx="2" ry="2"/><rect class="c c10" x="594" y="66" rx="2" ry="2"/><rect class="c c11" x="594" y="82" rx="2" ry="2"/><rect class="c" x="594" y="98" rx="2" ry="2"/><rect class="c" x="610" y="2" rx="2" ry="2"/><rect class="c" x="610" y="18" rx="2" ry="2"/><rect class="c" x="610" y="34" rx="2" ry="2"/><rect class="c c12" x="610" y="50" rx="2" ry="2"/><rect class="c" x="610" y="66" rx="2" ry="2"/><rect class="c c13" x="610" y="82" rx="2" ry="2"/><rect class="c" x="610" y="98" rx="2" ry="2"/><rect class="c" x="626" y="2" rx="2" ry="2"/><rect class="c" x="626" y="18" rx="2" ry="2"/><rect class="c c14" x="626" y="34" rx="2" ry="2"/><rect class="c" x="626" y="50" rx="2" ry="2"/><rect class="c c15" x="626" y="66" rx="2" ry="2"/><rect class="c c16" x="626" y="82" rx="2" ry="2"/><rect class="c c17" x="626" y="98" rx="2" ry="2"/><rect class="c c18" x="642" y="2" rx="2" ry="2"/><rect class="c c19" x="642" y="18" rx="2" ry="2"/><rect class="c" x="642" y="34" rx="2" ry="2"/><rect class="c c1a" x="642" y="50" rx="2" ry="2"/><rect class="c c1b" x="642" y="66" rx="2" ry="2"/><rect class="c c1c" x="642" y="82" rx="2" ry="2"/><rect class="c c1d" x="642" y="98" rx="2" ry="2"/><rect class="c c1e" x="658" y="2" rx="2" ry="2"/><rect class="c c1f" x="658" y="18" rx="2" ry="2"/><rect class="c" x="658" y="34" rx="2" ry="2"/><rect class="c c1g" x="658" y="50" rx="2" ry="2"/><rect class="c c1h" x="658" y="66" rx="2" ry="2"/><rect class="c c1i" x="658" y="82" rx="2" ry="2"/><rect class="c c1j" x="658" y="98" rx="2" ry="2"/><rect class="c" x="674" y="2" rx="2" ry="2"/><rect class="c c1k" x="674" y="18" rx="2" ry="2"/><rect class="c" x="674" y="34" rx="2" ry="2"/><rect class="c" x="674" y="50" rx="2" ry="2"/><rect class="c" x="674" y="66" rx="2" ry="2"/><rect class="c c1l" x="674" y="82" rx="2" ry="2"/><rect class="c" x="674" y="98" rx="2" ry="2"/><rect class="c" x="690" y="2" rx="2" ry="2"/><rect class="c c1m" x="690" y="18" rx="2" ry="2"/><rect class="c" x="690" y="34" rx="2" ry="2"/><rect class="c" x="690" y="50" rx="2" ry="2"/><rect class="c" x="690" y="66" rx="2" ry="2"/><rect class="c c1n" x="690" y="82" rx="2" ry="2"/><rect class="c c1o" x="690" y="98" rx="2" ry="2"/><rect class="c c1p" x="706" y="2" rx="2" ry="2"/><rect class="c c1q" x="706" y="18" rx="2" ry="2"/><rect class="c c1r" x="706" y="34" rx="2" ry="2"/><rect class="c" x="706" y="50" rx="2" ry="2"/><rect class="c c1s" x="706" y="66" rx="2" ry="2"/><rect class="c c1t" x="706" y="82" rx="2" ry="2"/><rect class="c c1u" x="706" y="98" rx="2" ry="2"/><rect class="c c1v" x="722" y="2" rx="2" ry="2"/><rect class="c c1w" x="722" y="18" rx="2" ry="2"/><rect class="c c1x" x="722" y="34" rx="2" ry="2"/><rect class="c c1y" x="722" y="50" rx="2" ry="2"/><rect class="c c1z" x="722" y="66" rx="2" ry="2"/><rect class="c" x="722" y="82" rx="2" ry="2"/><rect class="c c20" x="722" y="98" rx="2" ry="2"/><rect class="c c21" x="738" y="2" rx="2" ry="2"/><rect class="c c22" x="738" y="18" rx="2" ry="2"/><rect class="c c23" x="738" y="34" rx="2" ry="2"/><rect class="c c24" x="738" y="50" rx="2" ry="2"/><rect class="c c25" x="738" y="66" rx="2" ry="2"/><rect class="c" x="738" y="82" rx="2" ry="2"/><rect class="c c26" x="738" y="98" rx="2" ry="2"/><rect class="c c27" x="754" y="2" rx="2" ry="2"/><rect class="c c28" x="754" y="18" rx="2" ry="2"/><rect class="c c29" x="754" y="34" rx="2" ry="2"/><rect class="c c2a" x="754" y="50" rx="2" ry="2"/><rect class="c c2b" x="754" y="66" rx="2" ry="2"/><rect class="c c2c" x="754" y="82" rx="2" ry="2"/><rect class="c c2d" x="754" y="98" rx="2" ry="2"/><rect class="c c2e" x="770" y="2" rx="2" ry="2"/><rect class="c c2f" x="770" y="18" rx="2" ry="2"/><rect class="c c2g" x="770" y="34" rx="2" ry="2"/><rect class="c c2h" x="770" y="50" rx="2" ry="2"/><rect class="c c2i" x="770" y="66" rx="2" ry="2"/><rect class="c c2j" x="770" y="82" rx="2" ry="2"/><rect class="c c2k" x="770" y="98" rx="2" ry="2"/><rect class="c" x="786" y="2" rx="2" ry="2"/><rect class="c c2l" x="786" y="18" rx="2" ry="2"/><rect class="c c2m" x="786" y="34" rx="2" ry="2"/><rect class="c c2n" x="786" y="50" rx="2" ry="2"/><rect class="c c2o" x="786" y="66" rx="2" ry="2"/><rect class="c" x="786" y="82" rx="2" ry="2"/><rect class="c c2p" x="786" y="98" rx="2" ry="2"/><rect class="c c2q" x="802" y="2" rx="2" ry="2"/><rect class="c c2r" x="802" y="18" rx="2" ry="2"/><rect class="c c2s" x="802" y="34" rx="2" ry="2"/><rect class="c c2t" x="802" y="50" rx="2" ry="2"/><rect class="c" x="802" y="66" rx="2" ry="2"/><rect class="c c2u" x="802" y="82" rx="2" ry="2"/><rect class="c" x="802" y="98" rx="2" ry="2"/><rect class="c c2v" x="818" y="2" rx="2" ry="2"/><rect class="c c2w" x="818" y="18" rx="2" ry="2"/><rect class="c c2x" x="818" y="34" rx="2" ry="2"/><rect class="c c2y" x="818" y="50" rx="2" ry="2"/><rect class="c c2z" x="818" y="66" rx="2" ry="2"/><rect class="c c30" x="818" y="82" rx="2" ry="2"/><rect class="c c31" x="818" y="98" rx="2" ry="2"/><rect class="c" x="834" y="2" rx="2" ry="2"/><rect class="c c32" x="834" y="18" rx="2" ry="2"/><rect class="c c33" x="834" y="34" rx="2" ry="2"/><rect class="c" x="834" y="50" rx="2" ry="2"/><rect class="c" x="834" y="66" rx="2" ry="2"/><rect class="u u0" height="12" width="795.6" x="0.0" y="144"/><rect class="u u1" height="12" width="46.0" x="795.0" y="144"/><rect class="u u2" height="12" width="8.2" x="840.4" y="144"/><rect class="s s0" x="0.8" y="0.8" width="14.4" height="14.4" rx="4.5" ry="4.5"/><rect class="s s1" x="1.8" y="1.8" width="12.3" height="12.3" rx="4.1" ry="4.1"/><rect class="s s2" x="2.6" y="2.6" width="10.8" height="10.8" rx="3.6" ry="3.6"/><rect class="s s3" x="3.0" y="3.0" width="9.9" height="9.9" rx="3.3" ry="3.3"/></svg>