<svg viewBox="-16 -32 880 192" width="880" height="192" xmlns="http://www.w3.org/2000/svg"><desc>Generated with https://github.com/Platane/snk</desc><style>:root{--cb:#1b1f230a;--cs:purple;--ce:#161b22;--c0:#161b22;--c1:#01311f;--c2:#034525;--c3:#0f6d31;--c4:#00c647}.c{shape-rendering:geometricPrecision;fill:var(--ce);stroke-width:1px;stroke:var(--cb);animation:none 26300ms linear infinite;width:12px;height:12px}@keyframes c0{11.02%{fill:var(--c1)}11.04%,100%{fill:var(--ce)}}.c.c0{fill:var(--c1);animation-name:c0}@keyframes c1{70.71%{fill:var(--c1)}70.73%,100%{fill:var(--ce)}}.c.c1{fill:var(--c1);animation-name:c1}@keyframes c2{71.09%{fill:var(--c1)}71.11%,100%{fill:var(--ce)}}.c.c2{fill:var(--c1);animation-name:c2}@keyframes c3{14.06%{fill:var(--c1)}14.08%,100%{fill:var(--ce)}}.c.c3{fill:var(--c1);animation-name:c3}@keyframes c4{68.81%{fill:var(--c1)}68.83%,100%{fill:var(--ce)}}.c.c4{fill:var(--c1);animation-name:c4}@keyframes c5{69.19%{fill:var(--c1)}69.21%,100%{fill:var(--ce)}}.c.c5{fill:var(--c1);animation-name:c5}@keyframes c6{18.62%{fill:var(--c1)}18.64%,100%{fill:var(--ce)}}.c.c6{fill:var(--c1);animation-name:c6}@keyframes c7{18.24%{fill:var(--c1)}18.26%,100%{fill:var(--ce)}}.c.c7{fill:var(--c1);animation-name:c7}@keyframes c8{17.86%{fill:var(--c1)}17.88%,100%{fill:var(--ce)}}.c.c8{fill:var(--c1);animation-name:c8}@keyframes c9{14.44%{fill:var(--c1)}14.46%,100%{fill:var(--ce)}}.c.c9{fill:var(--c1);animation-name:c9}@keyframes ca{20.14%{fill:var(--c1)}20.16%,100%{fill:var(--ce)}}.c.ca{fill:var(--c1);animation-name:ca}@keyframes cb{19.76%{fill:var(--c1)}19.78%,100%{fill:var(--ce)}}.c.cb{fill:var(--c1);animation-name:cb}@keyframes cc{19.38%{fill:var(--c1)}19.4%,100%{fill:var(--ce)}}.c.cc{fill:var(--c1);animation-name:cc}@keyframes cd{19%{fill:var(--c1)}19.02%,100%{fill:var(--ce)}}.c.cd{fill:var(--c1);animation-name:cd}@keyframes ce{14.82%{fill:var(--c1)}14.84%,100%{fill:var(--ce)}}.c.ce{fill:var(--c1);animation-name:ce}@keyframes cf{20.52%{fill:var(--c1)}20.54%,100%{fill:var(--ce)}}.c.cf{fill:var(--c1);animation-name:cf}@keyframes cg{17.1%{fill:var(--c1)}17.12%,100%{fill:var(--ce)}}.c.cg{fill:var(--c1);animation-name:cg}@keyframes ch{15.2%{fill:var(--c1)}15.22%,100%{fill:var(--ce)}}.c.ch{fill:var(--c1);animation-name:ch}@keyframes ci{22.42%{fill:var(--c1)}22.44%,100%{fill:var(--ce)}}.c.ci{fill:var(--c1);animation-name:ci}@keyframes cj{22.8%{fill:var(--c1)}22.82%,100%{fill:var(--ce)}}.c.cj{fill:var(--c1);animation-name:cj}@keyframes ck{73.37%{fill:var(--c2)}73.39%,100%{fill:var(--ce)}}.c.ck{fill:var(--c2);animation-name:ck}@keyframes cl{16.72%{fill:var(--c1)}16.74%,100%{fill:var(--ce)}}.c.cl{fill:var(--c1);animation-name:cl}@keyframes cm{15.58%{fill:var(--c1)}15.6%,100%{fill:var(--ce)}}.c.cm{fill:var(--c1);animation-name:cm}@keyframes cn{21.28%{fill:var(--c1)}21.3%,100%{fill:var(--ce)}}.c.cn{fill:var(--c1);animation-name:cn}@keyframes co{21.66%{fill:var(--c1)}21.68%,100%{fill:var(--ce)}}.c.co{fill:var(--c1);animation-name:co}@keyframes cp{22.04%{fill:var(--c1)}22.06%,100%{fill:var(--ce)}}.c.cp{fill:var(--c1);animation-name:cp}@keyframes cq{23.18%{fill:var(--c1)}23.2%,100%{fill:var(--ce)}}.c.cq{fill:var(--c1);animation-name:cq}@keyframes cr{16.34%{fill:var(--c1)}16.36%,100%{fill:var(--ce)}}.c.cr{fill:var(--c1);animation-name:cr}@keyframes cs{15.96%{fill:var(--c1)}15.98%,100%{fill:var(--ce)}}.c.cs{fill:var(--c1);animation-name:cs}@keyframes ct{23.56%{fill:var(--c1)}23.58%,100%{fill:var(--ce)}}.c.ct{fill:var(--c1);animation-name:ct}@keyframes cu{55.88%{fill:var(--c1)}55.9%,100%{fill:var(--ce)}}.c.cu{fill:var(--c1);animation-name:cu}@keyframes cv{24.32%{fill:var(--c1)}24.34%,100%{fill:var(--ce)}}.c.cv{fill:var(--c1);animation-name:cv}@keyframes cw{23.94%{fill:var(--c1)}23.96%,100%{fill:var(--ce)}}.c.cw{fill:var(--c1);animation-name:cw}@keyframes cx{55.5%{fill:var(--c1)}55.52%,100%{fill:var(--ce)}}.c.cx{fill:var(--c1);animation-name:cx}@keyframes cy{65.39%{fill:var(--c1)}65.41%,100%{fill:var(--ce)}}.c.cy{fill:var(--c1);animation-name:cy}@keyframes cz{25.47%{fill:var(--c1)}25.49%,100%{fill:var(--ce)}}.c.cz{fill:var(--c1);animation-name:cz}@keyframes c10{75.28%{fill:var(--c2)}75.3%,100%{fill:var(--ce)}}.c.c10{fill:var(--c2);animation-name:c10}@keyframes c11{54.36%{fill:var(--c1)}54.38%,100%{fill:var(--ce)}}.c.c11{fill:var(--c1);animation-name:c11}@keyframes c12{25.85%{fill:var(--c1)}25.87%,100%{fill:var(--ce)}}.c.c12{fill:var(--c1);animation-name:c12}@keyframes c13{44.1%{fill:var(--c1)}44.12%,100%{fill:var(--ce)}}.c.c13{fill:var(--c1);animation-name:c13}@keyframes c14{58.55%{fill:var(--c1)}58.57%,100%{fill:var(--ce)}}.c.c14{fill:var(--c1);animation-name:c14}@keyframes c15{43.34%{fill:var(--c1)}43.36%,100%{fill:var(--ce)}}.c.c15{fill:var(--c1);animation-name:c15}@keyframes c16{44.48%{fill:var(--c1)}44.5%,100%{fill:var(--ce)}}.c.c16{fill:var(--c1);animation-name:c16}@keyframes c17{53.22%{fill:var(--c1)}53.24%,100%{fill:var(--ce)}}.c.c17{fill:var(--c1);animation-name:c17}@keyframes c18{59.69%{fill:var(--c1)}59.71%,100%{fill:var(--ce)}}.c.c18{fill:var(--c1);animation-name:c18}@keyframes c19{59.31%{fill:var(--c1)}59.33%,100%{fill:var(--ce)}}.c.c19{fill:var(--c1);animation-name:c19}@keyframes c1a{26.61%{fill:var(--c1)}26.63%,100%{fill:var(--ce)}}.c.c1a{fill:var(--c1);animation-name:c1a}@keyframes c1b{42.96%{fill:var(--c1)}42.98%,100%{fill:var(--ce)}}.c.c1b{fill:var(--c1);animation-name:c1b}@keyframes c1c{44.86%{fill:var(--c1)}44.88%,100%{fill:var(--ce)}}.c.c1c{fill:var(--c1);animation-name:c1c}@keyframes c1d{52.84%{fill:var(--c1)}52.86%,100%{fill:var(--ce)}}.c.c1d{fill:var(--c1);animation-name:c1d}@keyframes c1e{60.07%{fill:var(--c1)}60.09%,100%{fill:var(--ce)}}.c.c1e{fill:var(--c1);animation-name:c1e}@keyframes c1f{27.75%{fill:var(--c1)}27.77%,100%{fill:var(--ce)}}.c.c1f{fill:var(--c1);animation-name:c1f}@keyframes c1g{26.99%{fill:var(--c1)}27.01%,100%{fill:var(--ce)}}.c.c1g{fill:var(--c1);animation-name:c1g}@keyframes c1h{42.58%{fill:var(--c1)}42.6%,100%{fill:var(--ce)}}.c.c1h{fill:var(--c1);animation-name:c1h}@keyframes c1i{45.24%{fill:var(--c1)}45.26%,100%{fill:var(--ce)}}.c.c1i{fill:var(--c1);animation-name:c1i}@keyframes c1j{52.46%{fill:var(--c1)}52.48%,100%{fill:var(--ce)}}.c.c1j{fill:var(--c1);animation-name:c1j}@keyframes c1k{28.13%{fill:var(--c1)}28.15%,100%{fill:var(--ce)}}.c.c1k{fill:var(--c1);animation-name:c1k}@keyframes c1l{45.62%{fill:var(--c1)}45.64%,100%{fill:var(--ce)}}.c.c1l{fill:var(--c1);animation-name:c1l}@keyframes c1m{28.51%{fill:var(--c1)}28.53%,100%{fill:var(--ce)}}.c.c1m{fill:var(--c1);animation-name:c1m}@keyframes c1n{46%{fill:var(--c1)}46.02%,100%{fill:var(--ce)}}.c.c1n{fill:var(--c1);animation-name:c1n}@keyframes c1o{51.7%{fill:var(--c1)}51.72%,100%{fill:var(--ce)}}.c.c1o{fill:var(--c1);animation-name:c1o}@keyframes c1p{61.21%{fill:var(--c1)}61.23%,100%{fill:var(--ce)}}.c.c1p{fill:var(--c1);animation-name:c1p}@keyframes c1q{79.84%{fill:var(--c2)}79.86%,100%{fill:var(--ce)}}.c.c1q{fill:var(--c2);animation-name:c1q}@keyframes c1r{78.7%{fill:var(--c2)}78.72%,100%{fill:var(--ce)}}.c.c1r{fill:var(--c2);animation-name:c1r}@keyframes c1s{41.43%{fill:var(--c1)}41.45%,100%{fill:var(--ce)}}.c.c1s{fill:var(--c1);animation-name:c1s}@keyframes c1t{46.38%{fill:var(--c1)}46.4%,100%{fill:var(--ce)}}.c.c1t{fill:var(--c1);animation-name:c1t}@keyframes c1u{51.32%{fill:var(--c1)}51.34%,100%{fill:var(--ce)}}.c.c1u{fill:var(--c1);animation-name:c1u}@keyframes c1v{61.59%{fill:var(--c1)}61.61%,100%{fill:var(--ce)}}.c.c1v{fill:var(--c1);animation-name:c1v}@keyframes c1w{79.46%{fill:var(--c2)}79.48%,100%{fill:var(--ce)}}.c.c1w{fill:var(--c2);animation-name:c1w}@keyframes c1x{79.08%{fill:var(--c2)}79.1%,100%{fill:var(--ce)}}.c.c1x{fill:var(--c2);animation-name:c1x}@keyframes c1y{30.03%{fill:var(--c1)}30.05%,100%{fill:var(--ce)}}.c.c1y{fill:var(--c1);animation-name:c1y}@keyframes c1z{41.05%{fill:var(--c1)}41.07%,100%{fill:var(--ce)}}.c.c1z{fill:var(--c1);animation-name:c1z}@keyframes c20{47.14%{fill:var(--c1)}47.16%,100%{fill:var(--ce)}}.c.c20{fill:var(--c1);animation-name:c20}@keyframes c21{80.98%{fill:var(--c4)}81%,100%{fill:var(--ce)}}.c.c21{fill:var(--c4);animation-name:c21}@keyframes c22{36.49%{fill:var(--c1)}36.51%,100%{fill:var(--ce)}}.c.c22{fill:var(--c1);animation-name:c22}@keyframes c23{36.11%{fill:var(--c1)}36.13%,100%{fill:var(--ce)}}.c.c23{fill:var(--c1);animation-name:c23}@keyframes c24{30.41%{fill:var(--c1)}30.43%,100%{fill:var(--ce)}}.c.c24{fill:var(--c1);animation-name:c24}@keyframes c25{40.67%{fill:var(--c1)}40.69%,100%{fill:var(--ce)}}.c.c25{fill:var(--c1);animation-name:c25}@keyframes c26{47.52%{fill:var(--c1)}47.54%,100%{fill:var(--ce)}}.c.c26{fill:var(--c1);animation-name:c26}@keyframes c27{34.21%{fill:var(--c1)}34.23%,100%{fill:var(--ce)}}.c.c27{fill:var(--c1);animation-name:c27}@keyframes c28{34.59%{fill:var(--c1)}34.61%,100%{fill:var(--ce)}}.c.c28{fill:var(--c1);animation-name:c28}@keyframes c29{35.73%{fill:var(--c1)}35.75%,100%{fill:var(--ce)}}.c.c29{fill:var(--c1);animation-name:c29}@keyframes c2a{30.79%{fill:var(--c1)}30.81%,100%{fill:var(--ce)}}.c.c2a{fill:var(--c1);animation-name:c2a}@keyframes c2b{38.01%{fill:var(--c1)}38.03%,100%{fill:var(--ce)}}.c.c2b{fill:var(--c1);animation-name:c2b}@keyframes c2c{39.91%{fill:var(--c1)}39.93%,100%{fill:var(--ce)}}.c.c2c{fill:var(--c1);animation-name:c2c}@keyframes c2d{47.9%{fill:var(--c1)}47.92%,100%{fill:var(--ce)}}.c.c2d{fill:var(--c1);animation-name:c2d}@keyframes c2e{33.83%{fill:var(--c1)}33.85%,100%{fill:var(--ce)}}.c.c2e{fill:var(--c1);animation-name:c2e}@keyframes c2f{34.97%{fill:var(--c1)}34.99%,100%{fill:var(--ce)}}.c.c2f{fill:var(--c1);animation-name:c2f}@keyframes c2g{35.35%{fill:var(--c1)}35.37%,100%{fill:var(--ce)}}.c.c2g{fill:var(--c1);animation-name:c2g}@keyframes c2h{31.17%{fill:var(--c1)}31.19%,100%{fill:var(--ce)}}.c.c2h{fill:var(--c1);animation-name:c2h}@keyframes c2i{38.39%{fill:var(--c1)}38.41%,100%{fill:var(--ce)}}.c.c2i{fill:var(--c1);animation-name:c2i}@keyframes c2j{39.53%{fill:var(--c1)}39.55%,100%{fill:var(--ce)}}.c.c2j{fill:var(--c1);animation-name:c2j}@keyframes c2k{48.28%{fill:var(--c1)}48.3%,100%{fill:var(--ce)}}.c.c2k{fill:var(--c1);animation-name:c2k}@keyframes c2l{32.31%{fill:var(--c1)}32.33%,100%{fill:var(--ce)}}.c.c2l{fill:var(--c1);animation-name:c2l}@keyframes c2m{31.93%{fill:var(--c1)}31.95%,100%{fill:var(--ce)}}.c.c2m{fill:var(--c1);animation-name:c2m}@keyframes c2n{31.55%{fill:var(--c1)}31.57%,100%{fill:var(--ce)}}.c.c2n{fill:var(--c1);animation-name:c2n}@keyframes c2o{38.77%{fill:var(--c1)}38.79%,100%{fill:var(--ce)}}.c.c2o{fill:var(--c1);animation-name:c2o}@keyframes c2p{48.66%{fill:var(--c1)}48.68%,100%{fill:var(--ce)}}.c.c2p{fill:var(--c1);animation-name:c2p}@keyframes c2q{33.07%{fill:var(--c1)}33.09%,100%{fill:var(--ce)}}.c.c2q{fill:var(--c1);animation-name:c2q}@keyframes c2r{32.69%{fill:var(--c1)}32.71%,100%{fill:var(--ce)}}.c.c2r{fill:var(--c1);animation-name:c2r}.u{transform-origin:0 0;transform:scale(0,1);animation:none linear 26300ms infinite}@keyframes u0{11.02%{transform:scale(0.000,1)}11.04%,14.06%{transform:scale(0.011,1)}14.08%,14.44%{transform:scale(0.022,1)}14.46%,14.82%{transform:scale(0.032,1)}14.84%,15.2%{transform:scale(0.043,1)}15.22%,15.58%{transform:scale(0.054,1)}15.6%,15.96%{transform:scale(0.065,1)}15.98%,16.34%{transform:scale(0.075,1)}16.36%,16.72%{transform:scale(0.086,1)}16.74%,17.1%{transform:scale(0.097,1)}17.12%,17.86%{transform:scale(0.108,1)}17.88%,18.24%{transform:scale(0.118,1)}18.26%,18.62%{transform:scale(0.129,1)}18.64%,19%{transform:scale(0.140,1)}19.02%,19.38%{transform:scale(0.151,1)}19.4%,19.76%{transform:scale(0.161,1)}19.78%,20.14%{transform:scale(0.172,1)}20.16%,20.52%{transform:scale(0.183,1)}20.54%,21.28%{transform:scale(0.194,1)}21.3%,21.66%{transform:scale(0.204,1)}21.68%,22.04%{transform:scale(0.215,1)}22.06%,22.42%{transform:scale(0.226,1)}22.44%,22.8%{transform:scale(0.237,1)}22.82%,23.18%{transform:scale(0.247,1)}23.2%,23.56%{transform:scale(0.258,1)}23.58%,23.94%{transform:scale(0.269,1)}23.96%,24.32%{transform:scale(0.280,1)}24.34%,25.47%{transform:scale(0.290,1)}25.49%,25.85%{transform:scale(0.301,1)}25.87%,26.61%{transform:scale(0.312,1)}26.63%,26.99%{transform:scale(0.323,1)}27.01%,27.75%{transform:scale(0.333,1)}27.77%,28.13%{transform:scale(0.344,1)}28.15%,28.51%{transform:scale(0.355,1)}28.53%,30.03%{transform:scale(0.366,1)}30.05%,30.41%{transform:scale(0.376,1)}30.43%,30.79%{transform:scale(0.387,1)}30.81%,31.17%{transform:scale(0.398,1)}31.19%,31.55%{transform:scale(0.409,1)}31.57%,31.93%{transform:scale(0.419,1)}31.95%,32.31%{transform:scale(0.430,1)}32.33%,32.69%{transform:scale(0.441,1)}32.71%,33.07%{transform:scale(0.452,1)}33.09%,33.83%{transform:scale(0.462,1)}33.85%,34.21%{transform:scale(0.473,1)}34.23%,34.59%{transform:scale(0.484,1)}34.61%,34.97%{transform:scale(0.495,1)}34.99%,35.35%{transform:scale(0.505,1)}35.37%,35.73%{transform:scale(0.516,1)}35.75%,36.11%{transform:scale(0.527,1)}36.13%,36.49%{transform:scale(0.538,1)}36.51%,38.01%{transform:scale(0.548,1)}38.03%,38.39%{transform:scale(0.559,1)}38.41%,38.77%{transform:scale(0.570,1)}38.79%,39.53%{transform:scale(0.581,1)}39.55%,39.91%{transform:scale(0.591,1)}39.93%,40.67%{transform:scale(0.602,1)}40.69%,41.05%{transform:scale(0.613,1)}41.07%,41.43%{transform:scale(0.624,1)}41.45%,42.58%{transform:scale(0.634,1)}42.6%,42.96%{transform:scale(0.645,1)}42.98%,43.34%{transform:scale(0.656,1)}43.36%,44.1%{transform:scale(0.667,1)}44.12%,44.48%{transform:scale(0.677,1)}44.5%,44.86%{transform:scale(0.688,1)}44.88%,45.24%{transform:scale(0.699,1)}45.26%,45.62%{transform:scale(0.710,1)}45.64%,46%{transform:scale(0.720,1)}46.02%,46.38%{transform:scale(0.731,1)}46.4%,47.14%{transform:scale(0.742,1)}47.16%,47.52%{transform:scale(0.753,1)}47.54%,47.9%{transform:scale(0.763,1)}47.92%,48.28%{transform:scale(0.774,1)}48.3%,48.66%{transform:scale(0.785,1)}48.68%,51.32%{transform:scale(0.796,1)}51.34%,51.7%{transform:scale(0.806,1)}51.72%,52.46%{transform:scale(0.817,1)}52.48%,52.84%{transform:scale(0.828,1)}52.86%,53.22%{transform:scale(0.839,1)}53.24%,54.36%{transform:scale(0.849,1)}54.38%,55.5%{transform:scale(0.860,1)}55.52%,55.88%{transform:scale(0.871,1)}55.9%,58.55%{transform:scale(0.882,1)}58.57%,59.31%{transform:scale(0.892,1)}59.33%,59.69%{transform:scale(0.903,1)}59.71%,60.07%{transform:scale(0.914,1)}60.09%,61.21%{transform:scale(0.925,1)}61.23%,61.59%{transform:scale(0.935,1)}61.61%,65.39%{transform:scale(0.946,1)}65.41%,68.81%{transform:scale(0.957,1)}68.83%,69.19%{transform:scale(0.968,1)}69.21%,70.71%{transform:scale(0.978,1)}70.73%,71.09%{transform:scale(0.989,1)}71.11%,100%{transform:scale(1.000,1)}}.u.u0{fill:var(--c1);animation-name:u0;transform-origin:0.0px 0}@keyframes u1{73.37%{transform:scale(0.000,1)}73.39%,75.28%{transform:scale(0.167,1)}75.3%,78.7%{transform:scale(0.333,1)}78.72%,79.08%{transform:scale(0.500,1)}79.1%,79.46%{transform:scale(0.667,1)}79.48%,79.84%{transform:scale(0.833,1)}79.86%,100%{transform:scale(1.000,1)}}.u.u1{fill:var(--c2);animation-name:u1;transform-origin:788.6px 0}@keyframes u2{80.98%{transform:scale(0.000,1)}81%,100%{transform:scale(1.000,1)}}.u.u2{fill:var(--c4);animation-name:u2;transform-origin:839.5px 0}.s{shape-rendering:geometricPrecision;fill:var(--cs);animation:none linear 26300ms infinite}@keyframes s0{0%,99.62%{transform:translate(0px,-16px)}0.38%{transform:translate(0px,0px)}8.75%{transform:translate(352px,0px)}11.03%{transform:translate(352px,96px)}15.97%{transform:translate(560px,96px)}16.35%{transform:translate(560px,80px)}17.87%{transform:translate(496px,80px)}18.63%{transform:translate(496px,48px)}19.01%{transform:translate(512px,48px)}20.15%{transform:translate(512px,0px)}21.29%{transform:translate(560px,0px)}22.05%{transform:translate(560px,32px)}22.43%{transform:translate(544px,32px)}22.81%{transform:translate(544px,48px)}23.95%{transform:translate(592px,48px)}24.33%{transform:translate(592px,32px)}25.1%{transform:translate(624px,32px)}25.48%{transform:translate(624px,48px)}27%{transform:translate(688px,48px)}27.76%{transform:translate(688px,16px)}28.52%{transform:translate(720px,16px)}29.28%{transform:translate(720px,48px)}31.56%{transform:translate(816px,48px)}32.32%{transform:translate(816px,16px)}32.7%{transform:translate(832px,16px)}33.08%{transform:translate(832px,0px)}34.22%{transform:translate(784px,0px)}34.6%,36.88%{transform:translate(784px,16px)}34.98%{transform:translate(800px,16px)}35.36%{transform:translate(800px,32px)}36.12%{transform:translate(768px,32px)}36.5%{transform:translate(768px,16px)}38.02%{transform:translate(784px,64px)}38.78%{transform:translate(816px,64px)}39.16%,49.05%{transform:translate(816px,80px)}40.3%{transform:translate(768px,80px)}40.68%{transform:translate(768px,64px)}43.73%{transform:translate(640px,64px)}44.11%{transform:translate(640px,80px)}46.77%{transform:translate(752px,80px)}47.15%{transform:translate(752px,96px)}48.67%{transform:translate(816px,96px)}50.95%{transform:translate(736px,80px)}51.33%{transform:translate(736px,96px)}53.23%{transform:translate(656px,96px)}53.61%{transform:translate(656px,80px)}54.75%{transform:translate(608px,80px)}55.13%{transform:translate(608px,64px)}55.89%{transform:translate(576px,64px)}56.27%{transform:translate(576px,48px)}58.17%{transform:translate(656px,48px)}58.56%{transform:translate(656px,32px)}58.94%{transform:translate(672px,32px)}59.7%{transform:translate(672px,0px)}61.6%{transform:translate(752px,0px)}61.98%{transform:translate(752px,-16px)}65.02%{transform:translate(624px,-16px)}65.4%{transform:translate(624px,0px)}68.44%{transform:translate(496px,0px)}69.2%{transform:translate(496px,32px)}69.96%{transform:translate(464px,32px)}71.1%{transform:translate(464px,80px)}73%{transform:translate(544px,80px)}73.38%{transform:translate(544px,64px)}77.95%{transform:translate(736px,64px)}78.71%{transform:translate(736px,32px)}79.09%{transform:translate(752px,32px)}79.47%{transform:translate(752px,16px)}79.85%{transform:translate(736px,16px)}80.23%{transform:translate(736px,0px)}80.99%{transform:translate(768px,0px)}81.37%{transform:translate(768px,-16px)}}.s.s0{transform:translate(0px,-16px);animation-name:s0}@keyframes s1{0%,99.62%{transform:translate(16px,-16px)}0.38%{transform:translate(0px,-16px)}0.76%{transform:translate(0px,0px)}9.13%{transform:translate(352px,0px)}11.41%{transform:translate(352px,96px)}16.35%{transform:translate(560px,96px)}16.73%{transform:translate(560px,80px)}18.25%{transform:translate(496px,80px)}19.01%{transform:translate(496px,48px)}19.39%{transform:translate(512px,48px)}20.53%{transform:translate(512px,0px)}21.67%{transform:translate(560px,0px)}22.43%{transform:translate(560px,32px)}22.81%{transform:translate(544px,32px)}23.19%{transform:translate(544px,48px)}24.33%{transform:translate(592px,48px)}24.71%{transform:translate(592px,32px)}25.48%{transform:translate(624px,32px)}25.86%{transform:translate(624px,48px)}27.38%{transform:translate(688px,48px)}28.14%{transform:translate(688px,16px)}28.9%{transform:translate(720px,16px)}29.66%{transform:translate(720px,48px)}31.94%{transform:translate(816px,48px)}32.7%{transform:translate(816px,16px)}33.08%{transform:translate(832px,16px)}33.46%{transform:translate(832px,0px)}34.6%{transform:translate(784px,0px)}34.98%,37.26%{transform:translate(784px,16px)}35.36%{transform:translate(800px,16px)}35.74%{transform:translate(800px,32px)}36.5%{transform:translate(768px,32px)}36.88%{transform:translate(768px,16px)}38.4%{transform:translate(784px,64px)}39.16%{transform:translate(816px,64px)}39.54%,49.43%{transform:translate(816px,80px)}40.68%{transform:translate(768px,80px)}41.06%{transform:translate(768px,64px)}44.11%{transform:translate(640px,64px)}44.49%{transform:translate(640px,80px)}47.15%{transform:translate(752px,80px)}47.53%{transform:translate(752px,96px)}49.05%{transform:translate(816px,96px)}51.33%{transform:translate(736px,80px)}51.71%{transform:translate(736px,96px)}53.61%{transform:translate(656px,96px)}53.99%{transform:translate(656px,80px)}55.13%{transform:translate(608px,80px)}55.51%{transform:translate(608px,64px)}56.27%{transform:translate(576px,64px)}56.65%{transform:translate(576px,48px)}58.56%{transform:translate(656px,48px)}58.94%{transform:translate(656px,32px)}59.32%{transform:translate(672px,32px)}60.08%{transform:translate(672px,0px)}61.98%{transform:translate(752px,0px)}62.36%{transform:translate(752px,-16px)}65.4%{transform:translate(624px,-16px)}65.78%{transform:translate(624px,0px)}68.82%{transform:translate(496px,0px)}69.58%{transform:translate(496px,32px)}70.34%{transform:translate(464px,32px)}71.48%{transform:translate(464px,80px)}73.38%{transform:translate(544px,80px)}73.76%{transform:translate(544px,64px)}78.33%{transform:translate(736px,64px)}79.09%{transform:translate(736px,32px)}79.47%{transform:translate(752px,32px)}79.85%{transform:translate(752px,16px)}80.23%{transform:translate(736px,16px)}80.61%{transform:translate(736px,0px)}81.37%{transform:translate(768px,0px)}81.75%{transform:translate(768px,-16px)}}.s.s1{transform:translate(16px,-16px);animation-name:s1}@keyframes s2{0%,99.62%{transform:translate(32px,-16px)}0.76%{transform:translate(0px,-16px)}1.14%{transform:translate(0px,0px)}9.51%{transform:translate(352px,0px)}11.79%{transform:translate(352px,96px)}16.73%{transform:translate(560px,96px)}17.11%{transform:translate(560px,80px)}18.63%{transform:translate(496px,80px)}19.39%{transform:translate(496px,48px)}19.77%{transform:translate(512px,48px)}20.91%{transform:translate(512px,0px)}22.05%{transform:translate(560px,0px)}22.81%{transform:translate(560px,32px)}23.19%{transform:translate(544px,32px)}23.57%{transform:translate(544px,48px)}24.71%{transform:translate(592px,48px)}25.1%{transform:translate(592px,32px)}25.86%{transform:translate(624px,32px)}26.24%{transform:translate(624px,48px)}27.76%{transform:translate(688px,48px)}28.52%{transform:translate(688px,16px)}29.28%{transform:translate(720px,16px)}30.04%{transform:translate(720px,48px)}32.32%{transform:translate(816px,48px)}33.08%{transform:translate(816px,16px)}33.46%{transform:translate(832px,16px)}33.84%{transform:translate(832px,0px)}34.98%{transform:translate(784px,0px)}35.36%,37.64%{transform:translate(784px,16px)}35.74%{transform:translate(800px,16px)}36.12%{transform:translate(800px,32px)}36.88%{transform:translate(768px,32px)}37.26%{transform:translate(768px,16px)}38.78%{transform:translate(784px,64px)}39.54%{transform:translate(816px,64px)}39.92%,49.81%{transform:translate(816px,80px)}41.06%{transform:translate(768px,80px)}41.44%{transform:translate(768px,64px)}44.49%{transform:translate(640px,64px)}44.87%{transform:translate(640px,80px)}47.53%{transform:translate(752px,80px)}47.91%{transform:translate(752px,96px)}49.43%{transform:translate(816px,96px)}51.71%{transform:translate(736px,80px)}52.09%{transform:translate(736px,96px)}53.99%{transform:translate(656px,96px)}54.37%{transform:translate(656px,80px)}55.51%{transform:translate(608px,80px)}55.89%{transform:translate(608px,64px)}56.65%{transform:translate(576px,64px)}57.03%{transform:translate(576px,48px)}58.94%{transform:translate(656px,48px)}59.32%{transform:translate(656px,32px)}59.7%{transform:translate(672px,32px)}60.46%{transform:translate(672px,0px)}62.36%{transform:translate(752px,0px)}62.74%{transform:translate(752px,-16px)}65.78%{transform:translate(624px,-16px)}66.16%{transform:translate(624px,0px)}69.2%{transform:translate(496px,0px)}69.96%{transform:translate(496px,32px)}70.72%{transform:translate(464px,32px)}71.86%{transform:translate(464px,80px)}73.76%{transform:translate(544px,80px)}74.14%{transform:translate(544px,64px)}78.71%{transform:translate(736px,64px)}79.47%{transform:translate(736px,32px)}79.85%{transform:translate(752px,32px)}80.23%{transform:translate(752px,16px)}80.61%{transform:translate(736px,16px)}80.99%{transform:translate(736px,0px)}81.75%{transform:translate(768px,0px)}82.13%{transform:translate(768px,-16px)}}.s.s2{transform:translate(32px,-16px);animation-name:s2}@keyframes s3{0%,99.62%{transform:translate(48px,-16px)}1.14%{transform:translate(0px,-16px)}1.52%{transform:translate(0px,0px)}9.89%{transform:translate(352px,0px)}12.17%{transform:translate(352px,96px)}17.11%{transform:translate(560px,96px)}17.49%{transform:translate(560px,80px)}19.01%{transform:translate(496px,80px)}19.77%{transform:translate(496px,48px)}20.15%{transform:translate(512px,48px)}21.29%{transform:translate(512px,0px)}22.43%{transform:translate(560px,0px)}23.19%{transform:translate(560px,32px)}23.57%{transform:translate(544px,32px)}23.95%{transform:translate(544px,48px)}25.1%{transform:translate(592px,48px)}25.48%{transform:translate(592px,32px)}26.24%{transform:translate(624px,32px)}26.62%{transform:translate(624px,48px)}28.14%{transform:translate(688px,48px)}28.9%{transform:translate(688px,16px)}29.66%{transform:translate(720px,16px)}30.42%{transform:translate(720px,48px)}32.7%{transform:translate(816px,48px)}33.46%{transform:translate(816px,16px)}33.84%{transform:translate(832px,16px)}34.22%{transform:translate(832px,0px)}35.36%{transform:translate(784px,0px)}35.74%,38.02%{transform:translate(784px,16px)}36.12%{transform:translate(800px,16px)}36.5%{transform:translate(800px,32px)}37.26%{transform:translate(768px,32px)}37.64%{transform:translate(768px,16px)}39.16%{transform:translate(784px,64px)}39.92%{transform:translate(816px,64px)}40.3%,50.19%{transform:translate(816px,80px)}41.44%{transform:translate(768px,80px)}41.83%{transform:translate(768px,64px)}44.87%{transform:translate(640px,64px)}45.25%{transform:translate(640px,80px)}47.91%{transform:translate(752px,80px)}48.29%{transform:translate(752px,96px)}49.81%{transform:translate(816px,96px)}52.09%{transform:translate(736px,80px)}52.47%{transform:translate(736px,96px)}54.37%{transform:translate(656px,96px)}54.75%{transform:translate(656px,80px)}55.89%{transform:translate(608px,80px)}56.27%{transform:translate(608px,64px)}57.03%{transform:translate(576px,64px)}57.41%{transform:translate(576px,48px)}59.32%{transform:translate(656px,48px)}59.7%{transform:translate(656px,32px)}60.08%{transform:translate(672px,32px)}60.84%{transform:translate(672px,0px)}62.74%{transform:translate(752px,0px)}63.12%{transform:translate(752px,-16px)}66.16%{transform:translate(624px,-16px)}66.54%{transform:translate(624px,0px)}69.58%{transform:translate(496px,0px)}70.34%{transform:translate(496px,32px)}71.1%{transform:translate(464px,32px)}72.24%{transform:translate(464px,80px)}74.14%{transform:translate(544px,80px)}74.52%{transform:translate(544px,64px)}79.09%{transform:translate(736px,64px)}79.85%{transform:translate(736px,32px)}80.23%{transform:translate(752px,32px)}80.61%{transform:translate(752px,16px)}80.99%{transform:translate(736px,16px)}81.37%{transform:translate(736px,0px)}82.13%{transform:translate(768px,0px)}82.51%{transform:translate(768px,-16px)}}.s.s3{transform:translate(48px,-16px);animation-name:s3}</style><rect class="c" x="2" y="2" rx="2" ry="2"/><rect class="c" x="2" y="18" rx="2" ry="2"/><rect class="c" x="2" y="34" rx="2" ry="2"/><rect class="c" x="2" y="50" rx="2" ry="2"/><rect class="c" x="2" y="66" rx="2" ry="2"/><rect class="c" x="2" y="82" rx="2" ry="2"/><rect class="c" x="2" y="98" rx="2" ry="2"/><rect class="c" x="18" y="2" rx="2" ry="2"/><rect class="c" x="18" y="18" rx="2" ry="2"/><rect class="c" x="18" y="34" rx="2" ry="2"/><rect class="c" x="18" y="50" rx="2" ry="2"/><rect class="c" x="18" y="66" rx="2" ry="2"/><rect class="c" x="18" y="82" rx="2" ry="2"/><rect class="c" x="18" y="98" rx="2" ry="2"/><rect class="c" x="34" y="2" rx="2" ry="2"/><rect class="c" x="34" y="18" rx="2" ry="2"/><rect class="c" x="34" y="34" rx="2" ry="2"/><rect class="c" x="34" y="50" rx="2" ry="2"/><rect class="c" x="34" y="66" rx="2" ry="2"/><rect class="c" x="34" y="82" rx="2" ry="2"/><rect class="c" x="34" y="98" rx="2" ry="2"/><rect class="c" x="50" y="2" rx="2" ry="2"/><rect class="c" x="50" y="18" rx="2" ry="2"/><rect class="c" x="50" y="34" rx="2" ry="2"/><rect class="c" x="50" y="50" rx="2" ry="2"/><rect class="c" x="50" y="66" rx="2" ry="2"/><rect class="c" x="50" y="82" rx="2" ry="2"/><rect class="c" x="50" y="98" rx="2" ry="2"/><rect class="c" x="66" y="2" rx="2" ry="2"/><rect class="c" x="66" y="18" rx="2" ry="2"/><rect class="c" x="66" y="34" rx="2" ry="2"/><rect class="c" x="66" y="50" rx="2" ry="2"/><rect class="c" x="66" y="66" rx="2" ry="2"/><rect class="c" x="66" y="82" rx="2" ry="2"/><rect class="c" x="66" y="98" rx="2" ry="2"/><rect class="c" x="82" y="2" rx="2" ry="2"/><rect class="c" x="82" y="18" rx="2" ry="2"/><rect class="c" x="82" y="34" rx="2" ry="2"/><rect class="c" x="82" y="50" rx="2" ry="2"/><rect class="c" x="82" y="66" rx="2" ry="2"/><rect class="c" x="82" y="82" rx="2" ry="2"/><rect class="c" x="82" y="98" rx="2" ry="2"/><rect class="c" x="98" y="2" rx="2" ry="2"/><rect class="c" x="98" y="18" rx="2" ry="2"/><rect class="c" x="98" y="34" rx="2" ry="2"/><rect class="c" x="98" y="50" rx="2" ry="2"/><rect class="c" x="98" y="66" rx="2" ry="2"/><rect class="c" x="98" y="82" rx="2" ry="2"/><rect class="c" x="98" y="98" rx="2" ry="2"/><rect class="c" x="114" y="2" rx="2" ry="2"/><rect class="c" x="114" y="18" rx="2" ry="2"/><rect class="c" x="114" y="34" rx="2" ry="2"/><rect class="c" x="114" y="50" rx="2" ry="2"/><rect class="c" x="114" y="66" rx="2" ry="2"/><rect class="c" x="114" y="82" rx="2" ry="2"/><rect class="c" x="114" y="98" rx="2" ry="2"/><rect class="c" x="130" y="2" rx="2" ry="2"/><rect class="c" x="130" y="18" rx="2" ry="2"/><rect class="c" x="130" y="34" rx="2" ry="2"/><rect class="c" x="130" y="50" rx="2" ry="2"/><rect class="c" x="130" y="66" rx="2" ry="2"/><rect class="c" x="130" y="82" rx="2" ry="2"/><rect class="c" x="130" y="98" rx="2" ry="2"/><rect class="c" x="146" y="2" rx="2" ry="2"/><rect class="c" x="146" y="18" rx="2" ry="2"/><rect class="c" x="146" y="34" rx="2" ry="2"/><rect class="c" x="146" y="50" rx="2" ry="2"/><rect class="c" x="146" y="66" rx="2" ry="2"/><rect class="c" x="146" y="82" rx="2" ry="2"/><rect class="c" x="146" y="98" rx="2" ry="2"/><rect class="c" x="162" y="2" rx="2" ry="2"/><rect class="c" x="162" y="18" rx="2" ry="2"/><rect class="c" x="162" y="34" rx="2" ry="2"/><rect class="c" x="162" y="50" rx="2" ry="2"/><rect class="c" x="162" y="66" rx="2" ry="2"/><rect class="c" x="162" y="82" rx="2" ry="2"/><rect class="c" x="162" y="98" rx="2" ry="2"/><rect class="c" x="178" y="2" rx="2" ry="2"/><rect class="c" x="178" y="18" rx="2" ry="2"/><rect class="c" x="178" y="34" rx="2" ry="2"/><rect class="c" x="178" y="50" rx="2" ry="2"/><rect class="c" x="178" y="66" rx="2" ry="2"/><rect class="c" x="178" y="82" rx="2" ry="2"/><rect class="c" x="178" y="98" rx="2" ry="2"/><rect class="c" x="194" y="2" rx="2" ry="2"/><rect class="c" x="194" y="18" rx="2" ry="2"/><rect class="c" x="194" y="34" rx="2" ry="2"/><rect class="c" x="194" y="50" rx="2" ry="2"/><rect class="c" x="194" y="66" rx="2" ry="2"/><rect class="c" x="194" y="82" rx="2" ry="2"/><rect class="c" x="194" y="98" rx="2" ry="2"/><rect class="c" x="210" y="2" rx="2" ry="2"/><rect class="c" x="210" y="18" rx="2" ry="2"/><rect class="c" x="210" y="34" rx="2" ry="2"/><rect class="c" x="210" y="50" rx="2" ry="2"/><rect class="c" x="210" y="66" rx="2" ry="2"/><rect class="c" x="210" y="82" rx="2" ry="2"/><rect class="c" x="210" y="98" rx="2" ry="2"/><rect class="c" x="226" y="2" rx="2" ry="2"/><rect class="c" x="226" y="18" rx="2" ry="2"/><rect class="c" x="226" y="34" rx="2" ry="2"/><rect class="c" x="226" y="50" rx="2" ry="2"/><rect class="c" x="226" y="66" rx="2" ry="2"/><rect class="c" x="226" y="82" rx="2" ry="2"/><rect class="c" x="226" y="98" rx="2" ry="2"/><rect class="c" x="242" y="2" rx="2" ry="2"/><rect class="c" x="242" y="18" rx="2" ry="2"/><rect class="c" x="242" y="34" rx="2" ry="2"/><rect class="c" x="242" y="50" rx="2" ry="2"/><rect class="c" x="242" y="66" rx="2" ry="2"/><rect class="c" x="242" y="82" rx="2" ry="2"/><rect class="c" x="242" y="98" rx="2" ry="2"/><rect class="c" x="258" y="2" rx="2" ry="2"/><rect class="c" x="258" y="18" rx="2" ry="2"/><rect class="c" x="258" y="34" rx="2" ry="2"/><rect class="c" x="258" y="50" rx="2" ry="2"/><rect class="c" x="258" y="66" rx="2" ry="2"/><rect class="c" x="258" y="82" rx="2" ry="2"/><rect class="c" x="258" y="98" rx="2" ry="2"/><rect class="c" x="274" y="2" rx="2" ry="2"/><rect class="c" x="274" y="18" rx="2" ry="2"/><rect class="c" x="274" y="34" rx="2" ry="2"/><rect class="c" x="274" y="50" rx="2" ry="2"/><rect class="c" x="274" y="66" rx="2" ry="2"/><rect class="c" x="274" y="82" rx="2" ry="2"/><rect class="c" x="274" y="98" rx="2" ry="2"/><rect class="c" x="290" y="2" rx="2" ry="2"/><rect class="c" x="290" y="18" rx="2" ry="2"/><rect class="c" x="290" y="34" rx="2" ry="2"/><rect class="c" x="290" y="50" rx="2" ry="2"/><rect class="c" x="290" y="66" rx="2" ry="2"/><rect class="c" x="290" y="82" rx="2" ry="2"/><rect class="c" x="290" y="98" rx="2" ry="2"/><rect class="c" x="306" y="2" rx="2" ry="2"/><rect class="c" x="306" y="18" rx="2" ry="2"/><rect class="c" x="306" y="34" rx="2" ry="2"/><rect class="c" x="306" y="50" rx="2" ry="2"/><rect class="c" x="306" y="66" rx="2" ry="2"/><rect class="c" x="306" y="82" rx="2" ry="2"/><rect class="c" x="306" y="98" rx="2" ry="2"/><rect class="c" x="322" y="2" rx="2" ry="2"/><rect class="c" x="322" y="18" rx="2" ry="2"/><rect class="c" x="322" y="34" rx="2" ry="2"/><rect class="c" x="322" y="50" rx="2" ry="2"/><rect class="c" x="322" y="66" rx="2" ry="2"/><rect class="c" x="322" y="82" rx="2" ry="2"/><rect class="c" x="322" y="98" rx="2" ry="2"/><rect class="c" x="338" y="2" rx="2" ry="2"/><rect class="c" x="338" y="18" rx="2" ry="2"/><rect class="c" x="338" y="34" rx="2" ry="2"/><rect class="c" x="338" y="50" rx="2" ry="2"/><rect class="c" x="338" y="66" rx="2" ry="2"/><rect class="c" x="338" y="82" rx="2" ry="2"/><rect class="c" x="338" y="98" rx="2" ry="2"/><rect class="c" x="354" y="2" rx="2" ry="2"/><rect class="c" x="354" y="18" rx="2" ry="2"/><rect class="c" x="354" y="34" rx="2" ry="2"/><rect class="c" x="354" y="50" rx="2" ry="2"/><rect class="c" x="354" y="66" rx="2" ry="2"/><rect class="c" x="354" y="82" rx="2" ry="2"/><rect class="c c0" x="354" y="98" rx="2" ry="2"/><rect class="c" x="370" y="2" rx="2" ry="2"/><rect class="c" x="370" y="18" rx="2" ry="2"/><rect class="c" x="370" y="34" rx="2" ry="2"/><rect class="c" x="370" y="50" rx="2" ry="2"/><rect class="c" x="370" y="66" rx="2" ry="2"/><rect class="c" x="370" y="82" rx="2" ry="2"/><rect class="c" x="370" y="98" rx="2" ry="2"/><rect class="c" x="386" y="2" rx="2" ry="2"/><rect class="c" x="386" y="18" rx="2" ry="2"/><rect class="c" x="386" y="34" rx="2" ry="2"/><rect class="c" x="386" y="50" rx="2" ry="2"/><rect class="c" x="386" y="66" rx="2" ry="2"/><rect class="c" x="386" y="82" rx="2" ry="2"/><rect class="c" x="386" y="98" rx="2" ry="2"/><rect class="c" x="402" y="2" rx="2" ry="2"/><rect class="c" x="402" y="18" rx="2" ry="2"/><rect class="c" x="402" y="34" rx="2" ry="2"/><rect class="c" x="402" y="50" rx="2" ry="2"/><rect class="c" x="402" y="66" rx="2" ry="2"/><rect class="c" x="402" y="82" rx="2" ry="2"/><rect class="c" x="402" y="98" rx="2" ry="2"/><rect class="c" x="418" y="2" rx="2" ry="2"/><rect class="c" x="418" y="18" rx="2" ry="2"/><rect class="c" x="418" y="34" rx="2" ry="2"/><rect class="c" x="418" y="50" rx="2" ry="2"/><rect class="c" x="418" y="66" rx="2" ry="2"/><rect class="c" x="418" y="82" rx="2" ry="2"/><rect class="c" x="418" y="98" rx="2" ry="2"/><rect class="c" x="434" y="2" rx="2" ry="2"/><rect class="c" x="434" y="18" rx="2" ry="2"/><rect class="c" x="434" y="34" rx="2" ry="2"/><rect class="c" x="434" y="50" rx="2" ry="2"/><rect class="c" x="434" y="66" rx="2" ry="2"/><rect class="c" x="434" y="82" rx="2" ry="2"/><rect class="c" x="434" y="98" rx="2" ry="2"/><rect class="c" x="450" y="2" rx="2" ry="2"/><rect class="c" x="450" y="18" rx="2" ry="2"/><rect class="c" x="450" y="34" rx="2" ry="2"/><rect class="c" x="450" y="50" rx="2" ry="2"/><rect class="c" x="450" y="66" rx="2" ry="2"/><rect class="c" x="450" y="82" rx="2" ry="2"/><rect class="c" x="450" y="98" rx="2" ry="2"/><rect class="c" x="466" y="2" rx="2" ry="2"/><rect class="c" x="466" y="18" rx="2" ry="2"/><rect class="c" x="466" y="34" rx="2" ry="2"/><rect class="c" x="466" y="50" rx="2" ry="2"/><rect class="c c1" x="466" y="66" rx="2" ry="2"/><rect class="c c2" x="466" y="82" rx="2" ry="2"/><rect class="c" x="466" y="98" rx="2" ry="2"/><rect class="c" x="482" y="2" rx="2" ry="2"/><rect class="c" x="482" y="18" rx="2" ry="2"/><rect class="c" x="482" y="34" rx="2" ry="2"/><rect class="c" x="482" y="50" rx="2" ry="2"/><rect class="c" x="482" y="66" rx="2" ry="2"/><rect class="c" x="482" y="82" rx="2" ry="2"/><rect class="c c3" x="482" y="98" rx="2" ry="2"/><rect class="c" x="498" y="2" rx="2" ry="2"/><rect class="c c4" x="498" y="18" rx="2" ry="2"/><rect class="c c5" x="498" y="34" rx="2" ry="2"/><rect class="c c6" x="498" y="50" rx="2" ry="2"/><rect class="c c7" x="498" y="66" rx="2" ry="2"/><rect class="c c8" x="498" y="82" rx="2" ry="2"/><rect class="c c9" x="498" y="98" rx="2" ry="2"/><rect class="c ca" x="514" y="2" rx="2" ry="2"/><rect class="c cb" x="514" y="18" rx="2" ry="2"/><rect class="c cc" x="514" y="34" rx="2" ry="2"/><rect class="c cd" x="514" y="50" rx="2" ry="2"/><rect class="c" x="514" y="66" rx="2" ry="2"/><rect class="c" x="514" y="82" rx="2" ry="2"/><rect class="c ce" x="514" y="98" rx="2" ry="2"/><rect class="c cf" x="530" y="2" rx="2" ry="2"/><rect class="c" x="530" y="18" rx="2" ry="2"/><rect class="c" x="530" y="34" rx="2" ry="2"/><rect class="c" x="530" y="50" rx="2" ry="2"/><rect class="c" x="530" y="66" rx="2" ry="2"/><rect class="c cg" x="530" y="82" rx="2" ry="2"/><rect class="c ch" x="530" y="98" rx="2" ry="2"/><rect class="c" x="546" y="2" rx="2" ry="2"/><rect class="c" x="546" y="18" rx="2" ry="2"/><rect class="c ci" x="546" y="34" rx="2" ry="2"/><rect class="c cj" x="546" y="50" rx="2" ry="2"/><rect class="c ck" x="546" y="66" rx="2" ry="2"/><rect class="c cl" x="546" y="82" rx="2" ry="2"/><rect class="c cm" x="546" y="98" rx="2" ry="2"/><rect class="c cn" x="562" y="2" rx="2" ry="2"/><rect class="c co" x="562" y="18" rx="2" ry="2"/><rect class="c cp" x="562" y="34" rx="2" ry="2"/><rect class="c cq" x="562" y="50" rx="2" ry="2"/><rect class="c" x="562" y="66" rx="2" ry="2"/><rect class="c cr" x="562" y="82" rx="2" ry="2"/><rect class="c cs" x="562" y="98" rx="2" ry="2"/><rect class="c" x="578" y="2" rx="2" ry="2"/><rect class="c" x="578" y="18" rx="2" ry="2"/><rect class="c" x="578" y="34" rx="2" ry="2"/><rect class="c ct" x="578" y="50" rx="2" ry="2"/><rect class="c cu" x="578" y="66" rx="2" ry="2"/><rect class="c" x="578" y="82" rx="2" ry="2"/><rect class="c" x="578" y="98" rx="2" ry="2"/><rect class="c" x="594" y="2" rx="2" ry="2"/><rect class="c" x="594" y="18" rx="2" ry="2"/><rect class="c cv" x="594" y="34" rx="2" ry="2"/><rect class="c cw" x="594" y="50" rx="2" ry="2"/><rect class="c cx" x="594" y="66" rx="2" ry="2"/><rect class="c" x="594" y="82" rx="2" ry="2"/><rect class="c" x="594" y="98" rx="2" ry="2"/><rect class="c" x="610" y="2" rx="2" ry="2"/><rect class="c" x="610" y="18" rx="2" ry="2"/><rect class="c" x="610" y="34" rx="2" ry="2"/><rect class="c" x="610" y="50" rx="2" ry="2"/><rect class="c" x="610" y="66" rx="2" ry="2"/><rect class="c" x="610" y="82" rx="2" ry="2"/><rect class="c" x="610" y="98" rx="2" ry="2"/><rect class="c cy" x="626" y="2" rx="2" ry="2"/><rect class="c" x="626" y="18" rx="2" ry="2"/><rect class="c" x="626" y="34" rx="2" ry="2"/><rect class="c cz" x="626" y="50" rx="2" ry="2"/><rect class="c c10" x="626" y="66" rx="2" ry="2"/><rect class="c c11" x="626" y="82" rx="2" ry="2"/><rect class="c" x="626" y="98" rx="2" ry="2"/><rect class="c" x="642" y="2" rx="2" ry="2"/><rect class="c" x="642" y="18" rx="2" ry="2"/><rect class="c" x="642" y="34" rx="2" ry="2"/><rect class="c c12" x="642" y="50" rx="2" ry="2"/><rect class="c" x="642" y="66" rx="2" ry="2"/><rect class="c c13" x="642" y="82" rx="2" ry="2"/><rect class="c" x="642" y="98" rx="2" ry="2"/><rect class="c" x="658" y="2" rx="2" ry="2"/><rect class="c" x="658" y="18" rx="2" ry="2"/><rect class="c c14" x="658" y="34" rx="2" ry="2"/><rect class="c" x="658" y="50" rx="2" ry="2"/><rect class="c c15" x="658" y="66" rx="2" ry="2"/><rect class="c c16" x="658" y="82" rx="2" ry="2"/><rect class="c c17" x="658" y="98" rx="2" ry="2"/><rect class="c c18" x="674" y="2" rx="2" ry="2"/><rect class="c c19" x="674" y="18" rx="2" ry="2"/><rect class="c" x="674" y="34" rx="2" ry="2"/><rect class="c c1a" x="674" y="50" rx="2" ry="2"/><rect class="c c1b" x="674" y="66" rx="2" ry="2"/><rect class="c c1c" x="674" y="82" rx="2" ry="2"/><rect class="c c1d" x="674" y="98" rx="2" ry="2"/><rect class="c c1e" x="690" y="2" rx="2" ry="2"/><rect class="c c1f" x="690" y="18" rx="2" ry="2"/><rect class="c" x="690" y="34" rx="2" ry="2"/><rect class="c c1g" x="690" y="50" rx="2" ry="2"/><rect class="c c1h" x="690" y="66" rx="2" ry="2"/><rect class="c c1i" x="690" y="82" rx="2" ry="2"/><rect class="c c1j" x="690" y="98" rx="2" ry="2"/><rect class="c" x="706" y="2" rx="2" ry="2"/><rect class="c c1k" x="706" y="18" rx="2" ry="2"/><rect class="c" x="706" y="34" rx="2" ry="2"/><rect class="c" x="706" y="50" rx="2" ry="2"/><rect class="c" x="706" y="66" rx="2" ry="2"/><rect class="c c1l" x="706" y="82" rx="2" ry="2"/><rect class="c" x="706" y="98" rx="2" ry="2"/><rect class="c" x="722" y="2" rx="2" ry="2"/><rect class="c c1m" x="722" y="18" rx="2" ry="2"/><rect class="c" x="722" y="34" rx="2" ry="2"/><rect class="c" x="722" y="50" rx="2" ry="2"/><rect class="c" x="722" y="66" rx="2" ry="2"/><rect class="c c1n" x="722" y="82" rx="2" ry="2"/><rect class="c c1o" x="722" y="98" rx="2" ry="2"/><rect class="c c1p" x="738" y="2" rx="2" ry="2"/><rect class="c c1q" x="738" y="18" rx="2" ry="2"/><rect class="c c1r" x="738" y="34" rx="2" ry="2"/><rect class="c" x="738" y="50" rx="2" ry="2"/><rect class="c c1s" x="738" y="66" rx="2" ry="2"/><rect class="c c1t" x="738" y="82" rx="2" ry="2"/><rect class="c c1u" x="738" y="98" rx="2" ry="2"/><rect class="c c1v" x="754" y="2" rx="2" ry="2"/><rect class="c c1w" x="754" y="18" rx="2" ry="2"/><rect class="c c1x" x="754" y="34" rx="2" ry="2"/><rect class="c c1y" x="754" y="50" rx="2" ry="2"/><rect class="c c1z" x="754" y="66" rx="2" ry="2"/><rect class="c" x="754" y="82" rx="2" ry="2"/><rect class="c c20" x="754" y="98" rx="2" ry="2"/><rect class="c c21" x="770" y="2" rx="2" ry="2"/><rect class="c c22" x="770" y="18" rx="2" ry="2"/><rect class="c c23" x="770" y="34" rx="2" ry="2"/><rect class="c c24" x="770" y="50" rx="2" ry="2"/><rect class="c c25" x="770" y="66" rx="2" ry="2"/><rect class="c" x="770" y="82" rx="2" ry="2"/><rect class="c c26" x="770" y="98" rx="2" ry="2"/><rect class="c c27" x="786" y="2" rx="2" ry="2"/><rect class="c c28" x="786" y="18" rx="2" ry="2"/><rect class="c c29" x="786" y="34" rx="2" ry="2"/><rect class="c c2a" x="786" y="50" rx="2" ry="2"/><rect class="c c2b" x="786" y="66" rx="2" ry="2"/><rect class="c c2c" x="786" y="82" rx="2" ry="2"/><rect class="c c2d" x="786" y="98" rx="2" ry="2"/><rect class="c c2e" x="802" y="2" rx="2" ry="2"/><rect class="c c2f" x="802" y="18" rx="2" ry="2"/><rect class="c c2g" x="802" y="34" rx="2" ry="2"/><rect class="c c2h" x="802" y="50" rx="2" ry="2"/><rect class="c c2i" x="802" y="66" rx="2" ry="2"/><rect class="c c2j" x="802" y="82" rx="2" ry="2"/><rect class="c c2k" x="802" y="98" rx="2" ry="2"/><rect class="c" x="818" y="2" rx="2" ry="2"/><rect class="c c2l" x="818" y="18" rx="2" ry="2"/><rect class="c c2m" x="818" y="34" rx="2" ry="2"/><rect class="c c2n" x="818" y="50" rx="2" ry="2"/><rect class="c c2o" x="818" y="66" rx="2" ry="2"/><rect class="c" x="818" y="82" rx="2" ry="2"/><rect class="c c2p" x="818" y="98" rx="2" ry="2"/><rect class="c c2q" x="834" y="2" rx="2" ry="2"/><rect class="c c2r" x="834" y="18" rx="2" ry="2"/><rect class="c" x="834" y="34" rx="2" ry="2"/><rect class="u u0" height="12" width="789.2" x="0.0" y="144"/><rect class="u u1" height="12" width="51.5" x="788.6" y="144"/><rect class="u u2" height="12" width="9.1" x="839.5" y="144"/><rect class="s s0" x="0.8" y="0.8" width="14.4" height="14.4" rx="4.5" ry="4.5"/><rect class="s s1" x="1.8" y="1.8" width="12.3" height="12.3" rx="4.1" ry="4.1"/><rect class="s s2" x="2.6" y="2.6" width="10.8" height="10.8" rx="3.6" ry="3.6"/><rect class="s s3" x="3.0" y="3.0" width="9.9" height="9.9" rx="3.3" ry="3.3"/></svg>