<svg viewBox="-16 -32 880 192" width="880" height="192" xmlns="http://www.w3.org/2000/svg"><desc>Generated with https://github.com/Platane/snk</desc><style>:root{--cb:#1b1f230a;--cs:purple;--ce:#ebedf0;--c0:#ebedf0;--c1:#9be9a8;--c2:#40c463;--c3:#30a14e;--c4:#216e39}.c{shape-rendering:geometricPrecision;fill:var(--ce);stroke-width:1px;stroke:var(--cb);animation:none 26500ms linear infinite;width:12px;height:12px}@keyframes c0{10.93%{fill:var(--c1)}10.95%,100%{fill:var(--ce)}}.c.c0{fill:var(--c1);animation-name:c0}@keyframes c1{70.93%{fill:var(--c1)}70.95%,100%{fill:var(--ce)}}.c.c1{fill:var(--c1);animation-name:c1}@keyframes c2{71.31%{fill:var(--c1)}71.33%,100%{fill:var(--ce)}}.c.c2{fill:var(--c1);animation-name:c2}@keyframes c3{13.95%{fill:var(--c1)}13.97%,100%{fill:var(--ce)}}.c.c3{fill:var(--c1);animation-name:c3}@keyframes c4{69.05%{fill:var(--c1)}69.07%,100%{fill:var(--ce)}}.c.c4{fill:var(--c1);animation-name:c4}@keyframes c5{69.42%{fill:var(--c1)}69.44%,100%{fill:var(--ce)}}.c.c5{fill:var(--c1);animation-name:c5}@keyframes c6{18.48%{fill:var(--c1)}18.5%,100%{fill:var(--ce)}}.c.c6{fill:var(--c1);animation-name:c6}@keyframes c7{18.1%{fill:var(--c1)}18.12%,100%{fill:var(--ce)}}.c.c7{fill:var(--c1);animation-name:c7}@keyframes c8{17.73%{fill:var(--c1)}17.75%,100%{fill:var(--ce)}}.c.c8{fill:var(--c1);animation-name:c8}@keyframes c9{14.33%{fill:var(--c1)}14.35%,100%{fill:var(--ce)}}.c.c9{fill:var(--c1);animation-name:c9}@keyframes ca{19.99%{fill:var(--c1)}20.01%,100%{fill:var(--ce)}}.c.ca{fill:var(--c1);animation-name:ca}@keyframes cb{19.61%{fill:var(--c1)}19.63%,100%{fill:var(--ce)}}.c.cb{fill:var(--c1);animation-name:cb}@keyframes cc{19.24%{fill:var(--c1)}19.26%,100%{fill:var(--ce)}}.c.cc{fill:var(--c1);animation-name:cc}@keyframes cd{18.86%{fill:var(--c1)}18.88%,100%{fill:var(--ce)}}.c.cd{fill:var(--c1);animation-name:cd}@keyframes ce{14.71%{fill:var(--c1)}14.73%,100%{fill:var(--ce)}}.c.ce{fill:var(--c1);animation-name:ce}@keyframes cf{20.37%{fill:var(--c1)}20.39%,100%{fill:var(--ce)}}.c.cf{fill:var(--c1);animation-name:cf}@keyframes cg{16.97%{fill:var(--c1)}16.99%,100%{fill:var(--ce)}}.c.cg{fill:var(--c1);animation-name:cg}@keyframes ch{15.08%{fill:var(--c1)}15.1%,100%{fill:var(--ce)}}.c.ch{fill:var(--c1);animation-name:ch}@keyframes ci{22.25%{fill:var(--c1)}22.27%,100%{fill:var(--ce)}}.c.ci{fill:var(--c1);animation-name:ci}@keyframes cj{22.63%{fill:var(--c1)}22.65%,100%{fill:var(--ce)}}.c.cj{fill:var(--c1);animation-name:cj}@keyframes ck{73.57%{fill:var(--c2)}73.59%,100%{fill:var(--ce)}}.c.ck{fill:var(--c2);animation-name:ck}@keyframes cl{16.59%{fill:var(--c1)}16.61%,100%{fill:var(--ce)}}.c.cl{fill:var(--c1);animation-name:cl}@keyframes cm{15.46%{fill:var(--c1)}15.48%,100%{fill:var(--ce)}}.c.cm{fill:var(--c1);animation-name:cm}@keyframes cn{21.12%{fill:var(--c1)}21.14%,100%{fill:var(--ce)}}.c.cn{fill:var(--c1);animation-name:cn}@keyframes co{21.5%{fill:var(--c1)}21.52%,100%{fill:var(--ce)}}.c.co{fill:var(--c1);animation-name:co}@keyframes cp{21.88%{fill:var(--c1)}21.9%,100%{fill:var(--ce)}}.c.cp{fill:var(--c1);animation-name:cp}@keyframes cq{23.01%{fill:var(--c1)}23.03%,100%{fill:var(--ce)}}.c.cq{fill:var(--c1);animation-name:cq}@keyframes cr{16.22%{fill:var(--c1)}16.24%,100%{fill:var(--ce)}}.c.cr{fill:var(--c1);animation-name:cr}@keyframes cs{15.84%{fill:var(--c1)}15.86%,100%{fill:var(--ce)}}.c.cs{fill:var(--c1);animation-name:cs}@keyframes ct{23.39%{fill:var(--c1)}23.41%,100%{fill:var(--ce)}}.c.ct{fill:var(--c1);animation-name:ct}@keyframes cu{56.22%{fill:var(--c1)}56.24%,100%{fill:var(--ce)}}.c.cu{fill:var(--c1);animation-name:cu}@keyframes cv{24.14%{fill:var(--c1)}24.16%,100%{fill:var(--ce)}}.c.cv{fill:var(--c1);animation-name:cv}@keyframes cw{23.76%{fill:var(--c1)}23.78%,100%{fill:var(--ce)}}.c.cw{fill:var(--c1);animation-name:cw}@keyframes cx{55.84%{fill:var(--c1)}55.86%,100%{fill:var(--ce)}}.c.cx{fill:var(--c1);animation-name:cx}@keyframes cy{65.65%{fill:var(--c1)}65.67%,100%{fill:var(--ce)}}.c.cy{fill:var(--c1);animation-name:cy}@keyframes cz{25.27%{fill:var(--c1)}25.29%,100%{fill:var(--ce)}}.c.cz{fill:var(--c1);animation-name:cz}@keyframes c10{75.46%{fill:var(--c2)}75.48%,100%{fill:var(--ce)}}.c.c10{fill:var(--c2);animation-name:c10}@keyframes c11{54.71%{fill:var(--c1)}54.73%,100%{fill:var(--ce)}}.c.c11{fill:var(--c1);animation-name:c11}@keyframes c12{25.65%{fill:var(--c1)}25.67%,100%{fill:var(--ce)}}.c.c12{fill:var(--c1);animation-name:c12}@keyframes c13{44.52%{fill:var(--c1)}44.54%,100%{fill:var(--ce)}}.c.c13{fill:var(--c1);animation-name:c13}@keyframes c14{58.86%{fill:var(--c1)}58.88%,100%{fill:var(--ce)}}.c.c14{fill:var(--c1);animation-name:c14}@keyframes c15{43.76%{fill:var(--c1)}43.78%,100%{fill:var(--ce)}}.c.c15{fill:var(--c1);animation-name:c15}@keyframes c16{44.9%{fill:var(--c1)}44.92%,100%{fill:var(--ce)}}.c.c16{fill:var(--c1);animation-name:c16}@keyframes c17{53.57%{fill:var(--c1)}53.59%,100%{fill:var(--ce)}}.c.c17{fill:var(--c1);animation-name:c17}@keyframes c18{59.99%{fill:var(--c1)}60.01%,100%{fill:var(--ce)}}.c.c18{fill:var(--c1);animation-name:c18}@keyframes c19{59.61%{fill:var(--c1)}59.63%,100%{fill:var(--ce)}}.c.c19{fill:var(--c1);animation-name:c19}@keyframes c1a{26.41%{fill:var(--c1)}26.43%,100%{fill:var(--ce)}}.c.c1a{fill:var(--c1);animation-name:c1a}@keyframes c1b{43.39%{fill:var(--c1)}43.41%,100%{fill:var(--ce)}}.c.c1b{fill:var(--c1);animation-name:c1b}@keyframes c1c{45.27%{fill:var(--c1)}45.29%,100%{fill:var(--ce)}}.c.c1c{fill:var(--c1);animation-name:c1c}@keyframes c1d{53.2%{fill:var(--c1)}53.22%,100%{fill:var(--ce)}}.c.c1d{fill:var(--c1);animation-name:c1d}@keyframes c1e{60.37%{fill:var(--c1)}60.39%,100%{fill:var(--ce)}}.c.c1e{fill:var(--c1);animation-name:c1e}@keyframes c1f{27.54%{fill:var(--c1)}27.56%,100%{fill:var(--ce)}}.c.c1f{fill:var(--c1);animation-name:c1f}@keyframes c1g{26.78%{fill:var(--c1)}26.8%,100%{fill:var(--ce)}}.c.c1g{fill:var(--c1);animation-name:c1g}@keyframes c1h{43.01%{fill:var(--c1)}43.03%,100%{fill:var(--ce)}}.c.c1h{fill:var(--c1);animation-name:c1h}@keyframes c1i{45.65%{fill:var(--c1)}45.67%,100%{fill:var(--ce)}}.c.c1i{fill:var(--c1);animation-name:c1i}@keyframes c1j{52.82%{fill:var(--c1)}52.84%,100%{fill:var(--ce)}}.c.c1j{fill:var(--c1);animation-name:c1j}@keyframes c1k{27.91%{fill:var(--c1)}27.93%,100%{fill:var(--ce)}}.c.c1k{fill:var(--c1);animation-name:c1k}@keyframes c1l{46.03%{fill:var(--c1)}46.05%,100%{fill:var(--ce)}}.c.c1l{fill:var(--c1);animation-name:c1l}@keyframes c1m{28.29%{fill:var(--c1)}28.31%,100%{fill:var(--ce)}}.c.c1m{fill:var(--c1);animation-name:c1m}@keyframes c1n{46.41%{fill:var(--c1)}46.43%,100%{fill:var(--ce)}}.c.c1n{fill:var(--c1);animation-name:c1n}@keyframes c1o{52.07%{fill:var(--c1)}52.09%,100%{fill:var(--ce)}}.c.c1o{fill:var(--c1);animation-name:c1o}@keyframes c1p{61.5%{fill:var(--c1)}61.52%,100%{fill:var(--ce)}}.c.c1p{fill:var(--c1);animation-name:c1p}@keyframes c1q{79.99%{fill:var(--c2)}80.01%,100%{fill:var(--ce)}}.c.c1q{fill:var(--c2);animation-name:c1q}@keyframes c1r{78.86%{fill:var(--c2)}78.88%,100%{fill:var(--ce)}}.c.c1r{fill:var(--c2);animation-name:c1r}@keyframes c1s{41.88%{fill:var(--c1)}41.9%,100%{fill:var(--ce)}}.c.c1s{fill:var(--c1);animation-name:c1s}@keyframes c1t{46.78%{fill:var(--c1)}46.8%,100%{fill:var(--ce)}}.c.c1t{fill:var(--c1);animation-name:c1t}@keyframes c1u{51.69%{fill:var(--c1)}51.71%,100%{fill:var(--ce)}}.c.c1u{fill:var(--c1);animation-name:c1u}@keyframes c1v{61.88%{fill:var(--c1)}61.9%,100%{fill:var(--ce)}}.c.c1v{fill:var(--c1);animation-name:c1v}@keyframes c1w{79.61%{fill:var(--c2)}79.63%,100%{fill:var(--ce)}}.c.c1w{fill:var(--c2);animation-name:c1w}@keyframes c1x{79.24%{fill:var(--c2)}79.26%,100%{fill:var(--ce)}}.c.c1x{fill:var(--c2);animation-name:c1x}@keyframes c1y{29.8%{fill:var(--c1)}29.82%,100%{fill:var(--ce)}}.c.c1y{fill:var(--c1);animation-name:c1y}@keyframes c1z{41.5%{fill:var(--c1)}41.52%,100%{fill:var(--ce)}}.c.c1z{fill:var(--c1);animation-name:c1z}@keyframes c20{47.54%{fill:var(--c1)}47.56%,100%{fill:var(--ce)}}.c.c20{fill:var(--c1);animation-name:c20}@keyframes c21{81.12%{fill:var(--c4)}81.14%,100%{fill:var(--ce)}}.c.c21{fill:var(--c4);animation-name:c21}@keyframes c22{36.97%{fill:var(--c1)}36.99%,100%{fill:var(--ce)}}.c.c22{fill:var(--c1);animation-name:c22}@keyframes c23{36.59%{fill:var(--c1)}36.61%,100%{fill:var(--ce)}}.c.c23{fill:var(--c1);animation-name:c23}@keyframes c24{30.18%{fill:var(--c1)}30.2%,100%{fill:var(--ce)}}.c.c24{fill:var(--c1);animation-name:c24}@keyframes c25{41.12%{fill:var(--c1)}41.14%,100%{fill:var(--ce)}}.c.c25{fill:var(--c1);animation-name:c25}@keyframes c26{47.91%{fill:var(--c1)}47.93%,100%{fill:var(--ce)}}.c.c26{fill:var(--c1);animation-name:c26}@keyframes c27{33.95%{fill:var(--c1)}33.97%,100%{fill:var(--ce)}}.c.c27{fill:var(--c1);animation-name:c27}@keyframes c28{34.33%{fill:var(--c1)}34.35%,100%{fill:var(--ce)}}.c.c28{fill:var(--c1);animation-name:c28}@keyframes c29{36.22%{fill:var(--c1)}36.24%,100%{fill:var(--ce)}}.c.c29{fill:var(--c1);animation-name:c29}@keyframes c2a{30.56%{fill:var(--c1)}30.58%,100%{fill:var(--ce)}}.c.c2a{fill:var(--c1);animation-name:c2a}@keyframes c2b{38.48%{fill:var(--c1)}38.5%,100%{fill:var(--ce)}}.c.c2b{fill:var(--c1);animation-name:c2b}@keyframes c2c{40.37%{fill:var(--c1)}40.39%,100%{fill:var(--ce)}}.c.c2c{fill:var(--c1);animation-name:c2c}@keyframes c2d{48.29%{fill:var(--c1)}48.31%,100%{fill:var(--ce)}}.c.c2d{fill:var(--c1);animation-name:c2d}@keyframes c2e{33.57%{fill:var(--c1)}33.59%,100%{fill:var(--ce)}}.c.c2e{fill:var(--c1);animation-name:c2e}@keyframes c2f{34.71%{fill:var(--c1)}34.73%,100%{fill:var(--ce)}}.c.c2f{fill:var(--c1);animation-name:c2f}@keyframes c2g{35.84%{fill:var(--c1)}35.86%,100%{fill:var(--ce)}}.c.c2g{fill:var(--c1);animation-name:c2g}@keyframes c2h{30.93%{fill:var(--c1)}30.95%,100%{fill:var(--ce)}}.c.c2h{fill:var(--c1);animation-name:c2h}@keyframes c2i{38.86%{fill:var(--c1)}38.88%,100%{fill:var(--ce)}}.c.c2i{fill:var(--c1);animation-name:c2i}@keyframes c2j{39.99%{fill:var(--c1)}40.01%,100%{fill:var(--ce)}}.c.c2j{fill:var(--c1);animation-name:c2j}@keyframes c2k{48.67%{fill:var(--c1)}48.69%,100%{fill:var(--ce)}}.c.c2k{fill:var(--c1);animation-name:c2k}@keyframes c2l{35.08%{fill:var(--c1)}35.1%,100%{fill:var(--ce)}}.c.c2l{fill:var(--c1);animation-name:c2l}@keyframes c2m{35.46%{fill:var(--c1)}35.48%,100%{fill:var(--ce)}}.c.c2m{fill:var(--c1);animation-name:c2m}@keyframes c2n{31.31%{fill:var(--c1)}31.33%,100%{fill:var(--ce)}}.c.c2n{fill:var(--c1);animation-name:c2n}@keyframes c2o{39.24%{fill:var(--c1)}39.26%,100%{fill:var(--ce)}}.c.c2o{fill:var(--c1);animation-name:c2o}@keyframes c2p{49.05%{fill:var(--c1)}49.07%,100%{fill:var(--ce)}}.c.c2p{fill:var(--c1);animation-name:c2p}@keyframes c2q{32.82%{fill:var(--c1)}32.84%,100%{fill:var(--ce)}}.c.c2q{fill:var(--c1);animation-name:c2q}@keyframes c2r{32.44%{fill:var(--c1)}32.46%,100%{fill:var(--ce)}}.c.c2r{fill:var(--c1);animation-name:c2r}@keyframes c2s{32.07%{fill:var(--c1)}32.09%,100%{fill:var(--ce)}}.c.c2s{fill:var(--c1);animation-name:c2s}@keyframes c2t{31.69%{fill:var(--c1)}31.71%,100%{fill:var(--ce)}}.c.c2t{fill:var(--c1);animation-name:c2t}.u{transform-origin:0 0;transform:scale(0,1);animation:none linear 26500ms infinite}@keyframes u0{10.93%{transform:scale(0.000,1)}10.95%,13.95%{transform:scale(0.011,1)}13.97%,14.33%{transform:scale(0.021,1)}14.35%,14.71%{transform:scale(0.032,1)}14.73%,15.08%{transform:scale(0.042,1)}15.1%,15.46%{transform:scale(0.053,1)}15.48%,15.84%{transform:scale(0.063,1)}15.86%,16.22%{transform:scale(0.074,1)}16.24%,16.59%{transform:scale(0.084,1)}16.61%,16.97%{transform:scale(0.095,1)}16.99%,17.73%{transform:scale(0.105,1)}17.75%,18.1%{transform:scale(0.116,1)}18.12%,18.48%{transform:scale(0.126,1)}18.5%,18.86%{transform:scale(0.137,1)}18.88%,19.24%{transform:scale(0.147,1)}19.26%,19.61%{transform:scale(0.158,1)}19.63%,19.99%{transform:scale(0.168,1)}20.01%,20.37%{transform:scale(0.179,1)}20.39%,21.12%{transform:scale(0.189,1)}21.14%,21.5%{transform:scale(0.200,1)}21.52%,21.88%{transform:scale(0.211,1)}21.9%,22.25%{transform:scale(0.221,1)}22.27%,22.63%{transform:scale(0.232,1)}22.65%,23.01%{transform:scale(0.242,1)}23.03%,23.39%{transform:scale(0.253,1)}23.41%,23.76%{transform:scale(0.263,1)}23.78%,24.14%{transform:scale(0.274,1)}24.16%,25.27%{transform:scale(0.284,1)}25.29%,25.65%{transform:scale(0.295,1)}25.67%,26.41%{transform:scale(0.305,1)}26.43%,26.78%{transform:scale(0.316,1)}26.8%,27.54%{transform:scale(0.326,1)}27.56%,27.91%{transform:scale(0.337,1)}27.93%,28.29%{transform:scale(0.347,1)}28.31%,29.8%{transform:scale(0.358,1)}29.82%,30.18%{transform:scale(0.368,1)}30.2%,30.56%{transform:scale(0.379,1)}30.58%,30.93%{transform:scale(0.389,1)}30.95%,31.31%{transform:scale(0.400,1)}31.33%,31.69%{transform:scale(0.411,1)}31.71%,32.07%{transform:scale(0.421,1)}32.09%,32.44%{transform:scale(0.432,1)}32.46%,32.82%{transform:scale(0.442,1)}32.84%,33.57%{transform:scale(0.453,1)}33.59%,33.95%{transform:scale(0.463,1)}33.97%,34.33%{transform:scale(0.474,1)}34.35%,34.71%{transform:scale(0.484,1)}34.73%,35.08%{transform:scale(0.495,1)}35.1%,35.46%{transform:scale(0.505,1)}35.48%,35.84%{transform:scale(0.516,1)}35.86%,36.22%{transform:scale(0.526,1)}36.24%,36.59%{transform:scale(0.537,1)}36.61%,36.97%{transform:scale(0.547,1)}36.99%,38.48%{transform:scale(0.558,1)}38.5%,38.86%{transform:scale(0.568,1)}38.88%,39.24%{transform:scale(0.579,1)}39.26%,39.99%{transform:scale(0.589,1)}40.01%,40.37%{transform:scale(0.600,1)}40.39%,41.12%{transform:scale(0.611,1)}41.14%,41.5%{transform:scale(0.621,1)}41.52%,41.88%{transform:scale(0.632,1)}41.9%,43.01%{transform:scale(0.642,1)}43.03%,43.39%{transform:scale(0.653,1)}43.41%,43.76%{transform:scale(0.663,1)}43.78%,44.52%{transform:scale(0.674,1)}44.54%,44.9%{transform:scale(0.684,1)}44.92%,45.27%{transform:scale(0.695,1)}45.29%,45.65%{transform:scale(0.705,1)}45.67%,46.03%{transform:scale(0.716,1)}46.05%,46.41%{transform:scale(0.726,1)}46.43%,46.78%{transform:scale(0.737,1)}46.8%,47.54%{transform:scale(0.747,1)}47.56%,47.91%{transform:scale(0.758,1)}47.93%,48.29%{transform:scale(0.768,1)}48.31%,48.67%{transform:scale(0.779,1)}48.69%,49.05%{transform:scale(0.789,1)}49.07%,51.69%{transform:scale(0.800,1)}51.71%,52.07%{transform:scale(0.811,1)}52.09%,52.82%{transform:scale(0.821,1)}52.84%,53.2%{transform:scale(0.832,1)}53.22%,53.57%{transform:scale(0.842,1)}53.59%,54.71%{transform:scale(0.853,1)}54.73%,55.84%{transform:scale(0.863,1)}55.86%,56.22%{transform:scale(0.874,1)}56.24%,58.86%{transform:scale(0.884,1)}58.88%,59.61%{transform:scale(0.895,1)}59.63%,59.99%{transform:scale(0.905,1)}60.01%,60.37%{transform:scale(0.916,1)}60.39%,61.5%{transform:scale(0.926,1)}61.52%,61.88%{transform:scale(0.937,1)}61.9%,65.65%{transform:scale(0.947,1)}65.67%,69.05%{transform:scale(0.958,1)}69.07%,69.42%{transform:scale(0.968,1)}69.44%,70.93%{transform:scale(0.979,1)}70.95%,71.31%{transform:scale(0.989,1)}71.33%,100%{transform:scale(1.000,1)}}.u.u0{fill:var(--c1);animation-name:u0;transform-origin:0.0px 0}@keyframes u1{73.57%{transform:scale(0.000,1)}73.59%,75.46%{transform:scale(0.167,1)}75.48%,78.86%{transform:scale(0.333,1)}78.88%,79.24%{transform:scale(0.500,1)}79.26%,79.61%{transform:scale(0.667,1)}79.63%,79.99%{transform:scale(0.833,1)}80.01%,100%{transform:scale(1.000,1)}}.u.u1{fill:var(--c2);animation-name:u1;transform-origin:789.8px 0}@keyframes u2{81.12%{transform:scale(0.000,1)}81.14%,100%{transform:scale(1.000,1)}}.u.u2{fill:var(--c4);animation-name:u2;transform-origin:839.7px 0}.s{shape-rendering:geometricPrecision;fill:var(--cs);animation:none linear 26500ms infinite}@keyframes s0{0%,99.62%{transform:translate(0px,-16px)}0.38%{transform:translate(0px,0px)}8.68%{transform:translate(352px,0px)}10.94%{transform:translate(352px,96px)}15.85%{transform:translate(560px,96px)}16.23%{transform:translate(560px,80px)}17.74%{transform:translate(496px,80px)}18.49%{transform:translate(496px,48px)}18.87%{transform:translate(512px,48px)}20%{transform:translate(512px,0px)}21.13%{transform:translate(560px,0px)}21.89%{transform:translate(560px,32px)}22.26%{transform:translate(544px,32px)}22.64%{transform:translate(544px,48px)}23.77%{transform:translate(592px,48px)}24.15%{transform:translate(592px,32px)}24.91%{transform:translate(624px,32px)}25.28%{transform:translate(624px,48px)}26.79%{transform:translate(688px,48px)}27.55%{transform:translate(688px,16px)}28.3%{transform:translate(720px,16px)}29.06%{transform:translate(720px,48px)}31.7%{transform:translate(832px,48px)}32.83%{transform:translate(832px,0px)}33.96%{transform:translate(784px,0px)}34.34%,37.36%{transform:translate(784px,16px)}35.09%{transform:translate(816px,16px)}35.47%{transform:translate(816px,32px)}36.6%{transform:translate(768px,32px)}36.98%{transform:translate(768px,16px)}38.49%{transform:translate(784px,64px)}39.25%{transform:translate(816px,64px)}39.62%,49.43%{transform:translate(816px,80px)}40.75%{transform:translate(768px,80px)}41.13%{transform:translate(768px,64px)}44.15%{transform:translate(640px,64px)}44.53%{transform:translate(640px,80px)}47.17%{transform:translate(752px,80px)}47.55%{transform:translate(752px,96px)}49.06%{transform:translate(816px,96px)}51.32%{transform:translate(736px,80px)}51.7%{transform:translate(736px,96px)}53.58%{transform:translate(656px,96px)}53.96%{transform:translate(656px,80px)}55.09%{transform:translate(608px,80px)}55.47%{transform:translate(608px,64px)}56.23%{transform:translate(576px,64px)}56.6%{transform:translate(576px,48px)}58.49%{transform:translate(656px,48px)}58.87%{transform:translate(656px,32px)}59.25%{transform:translate(672px,32px)}60%{transform:translate(672px,0px)}61.89%{transform:translate(752px,0px)}62.26%{transform:translate(752px,-16px)}65.28%{transform:translate(624px,-16px)}65.66%{transform:translate(624px,0px)}68.68%{transform:translate(496px,0px)}69.43%{transform:translate(496px,32px)}70.19%{transform:translate(464px,32px)}71.32%{transform:translate(464px,80px)}73.21%{transform:translate(544px,80px)}73.58%{transform:translate(544px,64px)}78.11%{transform:translate(736px,64px)}78.87%{transform:translate(736px,32px)}79.25%{transform:translate(752px,32px)}79.62%{transform:translate(752px,16px)}80%{transform:translate(736px,16px)}80.38%{transform:translate(736px,0px)}81.13%{transform:translate(768px,0px)}81.51%{transform:translate(768px,-16px)}}.s.s0{transform:translate(0px,-16px);animation-name:s0}@keyframes s1{0%,99.62%{transform:translate(16px,-16px)}0.38%{transform:translate(0px,-16px)}0.75%{transform:translate(0px,0px)}9.06%{transform:translate(352px,0px)}11.32%{transform:translate(352px,96px)}16.23%{transform:translate(560px,96px)}16.6%{transform:translate(560px,80px)}18.11%{transform:translate(496px,80px)}18.87%{transform:translate(496px,48px)}19.25%{transform:translate(512px,48px)}20.38%{transform:translate(512px,0px)}21.51%{transform:translate(560px,0px)}22.26%{transform:translate(560px,32px)}22.64%{transform:translate(544px,32px)}23.02%{transform:translate(544px,48px)}24.15%{transform:translate(592px,48px)}24.53%{transform:translate(592px,32px)}25.28%{transform:translate(624px,32px)}25.66%{transform:translate(624px,48px)}27.17%{transform:translate(688px,48px)}27.92%{transform:translate(688px,16px)}28.68%{transform:translate(720px,16px)}29.43%{transform:translate(720px,48px)}32.08%{transform:translate(832px,48px)}33.21%{transform:translate(832px,0px)}34.34%{transform:translate(784px,0px)}34.72%,37.74%{transform:translate(784px,16px)}35.47%{transform:translate(816px,16px)}35.85%{transform:translate(816px,32px)}36.98%{transform:translate(768px,32px)}37.36%{transform:translate(768px,16px)}38.87%{transform:translate(784px,64px)}39.62%{transform:translate(816px,64px)}40%,49.81%{transform:translate(816px,80px)}41.13%{transform:translate(768px,80px)}41.51%{transform:translate(768px,64px)}44.53%{transform:translate(640px,64px)}44.91%{transform:translate(640px,80px)}47.55%{transform:translate(752px,80px)}47.92%{transform:translate(752px,96px)}49.43%{transform:translate(816px,96px)}51.7%{transform:translate(736px,80px)}52.08%{transform:translate(736px,96px)}53.96%{transform:translate(656px,96px)}54.34%{transform:translate(656px,80px)}55.47%{transform:translate(608px,80px)}55.85%{transform:translate(608px,64px)}56.6%{transform:translate(576px,64px)}56.98%{transform:translate(576px,48px)}58.87%{transform:translate(656px,48px)}59.25%{transform:translate(656px,32px)}59.62%{transform:translate(672px,32px)}60.38%{transform:translate(672px,0px)}62.26%{transform:translate(752px,0px)}62.64%{transform:translate(752px,-16px)}65.66%{transform:translate(624px,-16px)}66.04%{transform:translate(624px,0px)}69.06%{transform:translate(496px,0px)}69.81%{transform:translate(496px,32px)}70.57%{transform:translate(464px,32px)}71.7%{transform:translate(464px,80px)}73.58%{transform:translate(544px,80px)}73.96%{transform:translate(544px,64px)}78.49%{transform:translate(736px,64px)}79.25%{transform:translate(736px,32px)}79.62%{transform:translate(752px,32px)}80%{transform:translate(752px,16px)}80.38%{transform:translate(736px,16px)}80.75%{transform:translate(736px,0px)}81.51%{transform:translate(768px,0px)}81.89%{transform:translate(768px,-16px)}}.s.s1{transform:translate(16px,-16px);animation-name:s1}@keyframes s2{0%,99.62%{transform:translate(32px,-16px)}0.75%{transform:translate(0px,-16px)}1.13%{transform:translate(0px,0px)}9.43%{transform:translate(352px,0px)}11.7%{transform:translate(352px,96px)}16.6%{transform:translate(560px,96px)}16.98%{transform:translate(560px,80px)}18.49%{transform:translate(496px,80px)}19.25%{transform:translate(496px,48px)}19.62%{transform:translate(512px,48px)}20.75%{transform:translate(512px,0px)}21.89%{transform:translate(560px,0px)}22.64%{transform:translate(560px,32px)}23.02%{transform:translate(544px,32px)}23.4%{transform:translate(544px,48px)}24.53%{transform:translate(592px,48px)}24.91%{transform:translate(592px,32px)}25.66%{transform:translate(624px,32px)}26.04%{transform:translate(624px,48px)}27.55%{transform:translate(688px,48px)}28.3%{transform:translate(688px,16px)}29.06%{transform:translate(720px,16px)}29.81%{transform:translate(720px,48px)}32.45%{transform:translate(832px,48px)}33.58%{transform:translate(832px,0px)}34.72%{transform:translate(784px,0px)}35.09%,38.11%{transform:translate(784px,16px)}35.85%{transform:translate(816px,16px)}36.23%{transform:translate(816px,32px)}37.36%{transform:translate(768px,32px)}37.74%{transform:translate(768px,16px)}39.25%{transform:translate(784px,64px)}40%{transform:translate(816px,64px)}40.38%,50.19%{transform:translate(816px,80px)}41.51%{transform:translate(768px,80px)}41.89%{transform:translate(768px,64px)}44.91%{transform:translate(640px,64px)}45.28%{transform:translate(640px,80px)}47.92%{transform:translate(752px,80px)}48.3%{transform:translate(752px,96px)}49.81%{transform:translate(816px,96px)}52.08%{transform:translate(736px,80px)}52.45%{transform:translate(736px,96px)}54.34%{transform:translate(656px,96px)}54.72%{transform:translate(656px,80px)}55.85%{transform:translate(608px,80px)}56.23%{transform:translate(608px,64px)}56.98%{transform:translate(576px,64px)}57.36%{transform:translate(576px,48px)}59.25%{transform:translate(656px,48px)}59.62%{transform:translate(656px,32px)}60%{transform:translate(672px,32px)}60.75%{transform:translate(672px,0px)}62.64%{transform:translate(752px,0px)}63.02%{transform:translate(752px,-16px)}66.04%{transform:translate(624px,-16px)}66.42%{transform:translate(624px,0px)}69.43%{transform:translate(496px,0px)}70.19%{transform:translate(496px,32px)}70.94%{transform:translate(464px,32px)}72.08%{transform:translate(464px,80px)}73.96%{transform:translate(544px,80px)}74.34%{transform:translate(544px,64px)}78.87%{transform:translate(736px,64px)}79.62%{transform:translate(736px,32px)}80%{transform:translate(752px,32px)}80.38%{transform:translate(752px,16px)}80.75%{transform:translate(736px,16px)}81.13%{transform:translate(736px,0px)}81.89%{transform:translate(768px,0px)}82.26%{transform:translate(768px,-16px)}}.s.s2{transform:translate(32px,-16px);animation-name:s2}@keyframes s3{0%,99.62%{transform:translate(48px,-16px)}1.13%{transform:translate(0px,-16px)}1.51%{transform:translate(0px,0px)}9.81%{transform:translate(352px,0px)}12.08%{transform:translate(352px,96px)}16.98%{transform:translate(560px,96px)}17.36%{transform:translate(560px,80px)}18.87%{transform:translate(496px,80px)}19.62%{transform:translate(496px,48px)}20%{transform:translate(512px,48px)}21.13%{transform:translate(512px,0px)}22.26%{transform:translate(560px,0px)}23.02%{transform:translate(560px,32px)}23.4%{transform:translate(544px,32px)}23.77%{transform:translate(544px,48px)}24.91%{transform:translate(592px,48px)}25.28%{transform:translate(592px,32px)}26.04%{transform:translate(624px,32px)}26.42%{transform:translate(624px,48px)}27.92%{transform:translate(688px,48px)}28.68%{transform:translate(688px,16px)}29.43%{transform:translate(720px,16px)}30.19%{transform:translate(720px,48px)}32.83%{transform:translate(832px,48px)}33.96%{transform:translate(832px,0px)}35.09%{transform:translate(784px,0px)}35.47%,38.49%{transform:translate(784px,16px)}36.23%{transform:translate(816px,16px)}36.6%{transform:translate(816px,32px)}37.74%{transform:translate(768px,32px)}38.11%{transform:translate(768px,16px)}39.62%{transform:translate(784px,64px)}40.38%{transform:translate(816px,64px)}40.75%,50.57%{transform:translate(816px,80px)}41.89%{transform:translate(768px,80px)}42.26%{transform:translate(768px,64px)}45.28%{transform:translate(640px,64px)}45.66%{transform:translate(640px,80px)}48.3%{transform:translate(752px,80px)}48.68%{transform:translate(752px,96px)}50.19%{transform:translate(816px,96px)}52.45%{transform:translate(736px,80px)}52.83%{transform:translate(736px,96px)}54.72%{transform:translate(656px,96px)}55.09%{transform:translate(656px,80px)}56.23%{transform:translate(608px,80px)}56.6%{transform:translate(608px,64px)}57.36%{transform:translate(576px,64px)}57.74%{transform:translate(576px,48px)}59.62%{transform:translate(656px,48px)}60%{transform:translate(656px,32px)}60.38%{transform:translate(672px,32px)}61.13%{transform:translate(672px,0px)}63.02%{transform:translate(752px,0px)}63.4%{transform:translate(752px,-16px)}66.42%{transform:translate(624px,-16px)}66.79%{transform:translate(624px,0px)}69.81%{transform:translate(496px,0px)}70.57%{transform:translate(496px,32px)}71.32%{transform:translate(464px,32px)}72.45%{transform:translate(464px,80px)}74.34%{transform:translate(544px,80px)}74.72%{transform:translate(544px,64px)}79.25%{transform:translate(736px,64px)}80%{transform:translate(736px,32px)}80.38%{transform:translate(752px,32px)}80.75%{transform:translate(752px,16px)}81.13%{transform:translate(736px,16px)}81.51%{transform:translate(736px,0px)}82.26%{transform:translate(768px,0px)}82.64%{transform:translate(768px,-16px)}}.s.s3{transform:translate(48px,-16px);animation-name:s3}</style><rect class="c" x="2" y="2" rx="2" ry="2"/><rect class="c" x="2" y="18" rx="2" ry="2"/><rect class="c" x="2" y="34" rx="2" ry="2"/><rect class="c" x="2" y="50" rx="2" ry="2"/><rect class="c" x="2" y="66" rx="2" ry="2"/><rect class="c" x="2" y="82" rx="2" ry="2"/><rect class="c" x="2" y="98" rx="2" ry="2"/><rect class="c" x="18" y="2" rx="2" ry="2"/><rect class="c" x="18" y="18" rx="2" ry="2"/><rect class="c" x="18" y="34" rx="2" ry="2"/><rect class="c" x="18" y="50" rx="2" ry="2"/><rect class="c" x="18" y="66" rx="2" ry="2"/><rect class="c" x="18" y="82" rx="2" ry="2"/><rect class="c" x="18" y="98" rx="2" ry="2"/><rect class="c" x="34" y="2" rx="2" ry="2"/><rect class="c" x="34" y="18" rx="2" ry="2"/><rect class="c" x="34" y="34" rx="2" ry="2"/><rect class="c" x="34" y="50" rx="2" ry="2"/><rect class="c" x="34" y="66" rx="2" ry="2"/><rect class="c" x="34" y="82" rx="2" ry="2"/><rect class="c" x="34" y="98" rx="2" ry="2"/><rect class="c" x="50" y="2" rx="2" ry="2"/><rect class="c" x="50" y="18" rx="2" ry="2"/><rect class="c" x="50" y="34" rx="2" ry="2"/><rect class="c" x="50" y="50" rx="2" ry="2"/><rect class="c" x="50" y="66" rx="2" ry="2"/><rect class="c" x="50" y="82" rx="2" ry="2"/><rect class="c" x="50" y="98" rx="2" ry="2"/><rect class="c" x="66" y="2" rx="2" ry="2"/><rect class="c" x="66" y="18" rx="2" ry="2"/><rect class="c" x="66" y="34" rx="2" ry="2"/><rect class="c" x="66" y="50" rx="2" ry="2"/><rect class="c" x="66" y="66" rx="2" ry="2"/><rect class="c" x="66" y="82" rx="2" ry="2"/><rect class="c" x="66" y="98" rx="2" ry="2"/><rect class="c" x="82" y="2" rx="2" ry="2"/><rect class="c" x="82" y="18" rx="2" ry="2"/><rect class="c" x="82" y="34" rx="2" ry="2"/><rect class="c" x="82" y="50" rx="2" ry="2"/><rect class="c" x="82" y="66" rx="2" ry="2"/><rect class="c" x="82" y="82" rx="2" ry="2"/><rect class="c" x="82" y="98" rx="2" ry="2"/><rect class="c" x="98" y="2" rx="2" ry="2"/><rect class="c" x="98" y="18" rx="2" ry="2"/><rect class="c" x="98" y="34" rx="2" ry="2"/><rect class="c" x="98" y="50" rx="2" ry="2"/><rect class="c" x="98" y="66" rx="2" ry="2"/><rect class="c" x="98" y="82" rx="2" ry="2"/><rect class="c" x="98" y="98" rx="2" ry="2"/><rect class="c" x="114" y="2" rx="2" ry="2"/><rect class="c" x="114" y="18" rx="2" ry="2"/><rect class="c" x="114" y="34" rx="2" ry="2"/><rect class="c" x="114" y="50" rx="2" ry="2"/><rect class="c" x="114" y="66" rx="2" ry="2"/><rect class="c" x="114" y="82" rx="2" ry="2"/><rect class="c" x="114" y="98" rx="2" ry="2"/><rect class="c" x="130" y="2" rx="2" ry="2"/><rect class="c" x="130" y="18" rx="2" ry="2"/><rect class="c" x="130" y="34" rx="2" ry="2"/><rect class="c" x="130" y="50" rx="2" ry="2"/><rect class="c" x="130" y="66" rx="2" ry="2"/><rect class="c" x="130" y="82" rx="2" ry="2"/><rect class="c" x="130" y="98" rx="2" ry="2"/><rect class="c" x="146" y="2" rx="2" ry="2"/><rect class="c" x="146" y="18" rx="2" ry="2"/><rect class="c" x="146" y="34" rx="2" ry="2"/><rect class="c" x="146" y="50" rx="2" ry="2"/><rect class="c" x="146" y="66" rx="2" ry="2"/><rect class="c" x="146" y="82" rx="2" ry="2"/><rect class="c" x="146" y="98" rx="2" ry="2"/><rect class="c" x="162" y="2" rx="2" ry="2"/><rect class="c" x="162" y="18" rx="2" ry="2"/><rect class="c" x="162" y="34" rx="2" ry="2"/><rect class="c" x="162" y="50" rx="2" ry="2"/><rect class="c" x="162" y="66" rx="2" ry="2"/><rect class="c" x="162" y="82" rx="2" ry="2"/><rect class="c" x="162" y="98" rx="2" ry="2"/><rect class="c" x="178" y="2" rx="2" ry="2"/><rect class="c" x="178" y="18" rx="2" ry="2"/><rect class="c" x="178" y="34" rx="2" ry="2"/><rect class="c" x="178" y="50" rx="2" ry="2"/><rect class="c" x="178" y="66" rx="2" ry="2"/><rect class="c" x="178" y="82" rx="2" ry="2"/><rect class="c" x="178" y="98" rx="2" ry="2"/><rect class="c" x="194" y="2" rx="2" ry="2"/><rect class="c" x="194" y="18" rx="2" ry="2"/><rect class="c" x="194" y="34" rx="2" ry="2"/><rect class="c" x="194" y="50" rx="2" ry="2"/><rect class="c" x="194" y="66" rx="2" ry="2"/><rect class="c" x="194" y="82" rx="2" ry="2"/><rect class="c" x="194" y="98" rx="2" ry="2"/><rect class="c" x="210" y="2" rx="2" ry="2"/><rect class="c" x="210" y="18" rx="2" ry="2"/><rect class="c" x="210" y="34" rx="2" ry="2"/><rect class="c" x="210" y="50" rx="2" ry="2"/><rect class="c" x="210" y="66" rx="2" ry="2"/><rect class="c" x="210" y="82" rx="2" ry="2"/><rect class="c" x="210" y="98" rx="2" ry="2"/><rect class="c" x="226" y="2" rx="2" ry="2"/><rect class="c" x="226" y="18" rx="2" ry="2"/><rect class="c" x="226" y="34" rx="2" ry="2"/><rect class="c" x="226" y="50" rx="2" ry="2"/><rect class="c" x="226" y="66" rx="2" ry="2"/><rect class="c" x="226" y="82" rx="2" ry="2"/><rect class="c" x="226" y="98" rx="2" ry="2"/><rect class="c" x="242" y="2" rx="2" ry="2"/><rect class="c" x="242" y="18" rx="2" ry="2"/><rect class="c" x="242" y="34" rx="2" ry="2"/><rect class="c" x="242" y="50" rx="2" ry="2"/><rect class="c" x="242" y="66" rx="2" ry="2"/><rect class="c" x="242" y="82" rx="2" ry="2"/><rect class="c" x="242" y="98" rx="2" ry="2"/><rect class="c" x="258" y="2" rx="2" ry="2"/><rect class="c" x="258" y="18" rx="2" ry="2"/><rect class="c" x="258" y="34" rx="2" ry="2"/><rect class="c" x="258" y="50" rx="2" ry="2"/><rect class="c" x="258" y="66" rx="2" ry="2"/><rect class="c" x="258" y="82" rx="2" ry="2"/><rect class="c" x="258" y="98" rx="2" ry="2"/><rect class="c" x="274" y="2" rx="2" ry="2"/><rect class="c" x="274" y="18" rx="2" ry="2"/><rect class="c" x="274" y="34" rx="2" ry="2"/><rect class="c" x="274" y="50" rx="2" ry="2"/><rect class="c" x="274" y="66" rx="2" ry="2"/><rect class="c" x="274" y="82" rx="2" ry="2"/><rect class="c" x="274" y="98" rx="2" ry="2"/><rect class="c" x="290" y="2" rx="2" ry="2"/><rect class="c" x="290" y="18" rx="2" ry="2"/><rect class="c" x="290" y="34" rx="2" ry="2"/><rect class="c" x="290" y="50" rx="2" ry="2"/><rect class="c" x="290" y="66" rx="2" ry="2"/><rect class="c" x="290" y="82" rx="2" ry="2"/><rect class="c" x="290" y="98" rx="2" ry="2"/><rect class="c" x="306" y="2" rx="2" ry="2"/><rect class="c" x="306" y="18" rx="2" ry="2"/><rect class="c" x="306" y="34" rx="2" ry="2"/><rect class="c" x="306" y="50" rx="2" ry="2"/><rect class="c" x="306" y="66" rx="2" ry="2"/><rect class="c" x="306" y="82" rx="2" ry="2"/><rect class="c" x="306" y="98" rx="2" ry="2"/><rect class="c" x="322" y="2" rx="2" ry="2"/><rect class="c" x="322" y="18" rx="2" ry="2"/><rect class="c" x="322" y="34" rx="2" ry="2"/><rect class="c" x="322" y="50" rx="2" ry="2"/><rect class="c" x="322" y="66" rx="2" ry="2"/><rect class="c" x="322" y="82" rx="2" ry="2"/><rect class="c" x="322" y="98" rx="2" ry="2"/><rect class="c" x="338" y="2" rx="2" ry="2"/><rect class="c" x="338" y="18" rx="2" ry="2"/><rect class="c" x="338" y="34" rx="2" ry="2"/><rect class="c" x="338" y="50" rx="2" ry="2"/><rect class="c" x="338" y="66" rx="2" ry="2"/><rect class="c" x="338" y="82" rx="2" ry="2"/><rect class="c" x="338" y="98" rx="2" ry="2"/><rect class="c" x="354" y="2" rx="2" ry="2"/><rect class="c" x="354" y="18" rx="2" ry="2"/><rect class="c" x="354" y="34" rx="2" ry="2"/><rect class="c" x="354" y="50" rx="2" ry="2"/><rect class="c" x="354" y="66" rx="2" ry="2"/><rect class="c" x="354" y="82" rx="2" ry="2"/><rect class="c c0" x="354" y="98" rx="2" ry="2"/><rect class="c" x="370" y="2" rx="2" ry="2"/><rect class="c" x="370" y="18" rx="2" ry="2"/><rect class="c" x="370" y="34" rx="2" ry="2"/><rect class="c" x="370" y="50" rx="2" ry="2"/><rect class="c" x="370" y="66" rx="2" ry="2"/><rect class="c" x="370" y="82" rx="2" ry="2"/><rect class="c" x="370" y="98" rx="2" ry="2"/><rect class="c" x="386" y="2" rx="2" ry="2"/><rect class="c" x="386" y="18" rx="2" ry="2"/><rect class="c" x="386" y="34" rx="2" ry="2"/><rect class="c" x="386" y="50" rx="2" ry="2"/><rect class="c" x="386" y="66" rx="2" ry="2"/><rect class="c" x="386" y="82" rx="2" ry="2"/><rect class="c" x="386" y="98" rx="2" ry="2"/><rect class="c" x="402" y="2" rx="2" ry="2"/><rect class="c" x="402" y="18" rx="2" ry="2"/><rect class="c" x="402" y="34" rx="2" ry="2"/><rect class="c" x="402" y="50" rx="2" ry="2"/><rect class="c" x="402" y="66" rx="2" ry="2"/><rect class="c" x="402" y="82" rx="2" ry="2"/><rect class="c" x="402" y="98" rx="2" ry="2"/><rect class="c" x="418" y="2" rx="2" ry="2"/><rect class="c" x="418" y="18" rx="2" ry="2"/><rect class="c" x="418" y="34" rx="2" ry="2"/><rect class="c" x="418" y="50" rx="2" ry="2"/><rect class="c" x="418" y="66" rx="2" ry="2"/><rect class="c" x="418" y="82" rx="2" ry="2"/><rect class="c" x="418" y="98" rx="2" ry="2"/><rect class="c" x="434" y="2" rx="2" ry="2"/><rect class="c" x="434" y="18" rx="2" ry="2"/><rect class="c" x="434" y="34" rx="2" ry="2"/><rect class="c" x="434" y="50" rx="2" ry="2"/><rect class="c" x="434" y="66" rx="2" ry="2"/><rect class="c" x="434" y="82" rx="2" ry="2"/><rect class="c" x="434" y="98" rx="2" ry="2"/><rect class="c" x="450" y="2" rx="2" ry="2"/><rect class="c" x="450" y="18" rx="2" ry="2"/><rect class="c" x="450" y="34" rx="2" ry="2"/><rect class="c" x="450" y="50" rx="2" ry="2"/><rect class="c" x="450" y="66" rx="2" ry="2"/><rect class="c" x="450" y="82" rx="2" ry="2"/><rect class="c" x="450" y="98" rx="2" ry="2"/><rect class="c" x="466" y="2" rx="2" ry="2"/><rect class="c" x="466" y="18" rx="2" ry="2"/><rect class="c" x="466" y="34" rx="2" ry="2"/><rect class="c" x="466" y="50" rx="2" ry="2"/><rect class="c c1" x="466" y="66" rx="2" ry="2"/><rect class="c c2" x="466" y="82" rx="2" ry="2"/><rect class="c" x="466" y="98" rx="2" ry="2"/><rect class="c" x="482" y="2" rx="2" ry="2"/><rect class="c" x="482" y="18" rx="2" ry="2"/><rect class="c" x="482" y="34" rx="2" ry="2"/><rect class="c" x="482" y="50" rx="2" ry="2"/><rect class="c" x="482" y="66" rx="2" ry="2"/><rect class="c" x="482" y="82" rx="2" ry="2"/><rect class="c c3" x="482" y="98" rx="2" ry="2"/><rect class="c" x="498" y="2" rx="2" ry="2"/><rect class="c c4" x="498" y="18" rx="2" ry="2"/><rect class="c c5" x="498" y="34" rx="2" ry="2"/><rect class="c c6" x="498" y="50" rx="2" ry="2"/><rect class="c c7" x="498" y="66" rx="2" ry="2"/><rect class="c c8" x="498" y="82" rx="2" ry="2"/><rect class="c c9" x="498" y="98" rx="2" ry="2"/><rect class="c ca" x="514" y="2" rx="2" ry="2"/><rect class="c cb" x="514" y="18" rx="2" ry="2"/><rect class="c cc" x="514" y="34" rx="2" ry="2"/><rect class="c cd" x="514" y="50" rx="2" ry="2"/><rect class="c" x="514" y="66" rx="2" ry="2"/><rect class="c" x="514" y="82" rx="2" ry="2"/><rect class="c ce" x="514" y="98" rx="2" ry="2"/><rect class="c cf" x="530" y="2" rx="2" ry="2"/><rect class="c" x="530" y="18" rx="2" ry="2"/><rect class="c" x="530" y="34" rx="2" ry="2"/><rect class="c" x="530" y="50" rx="2" ry="2"/><rect class="c" x="530" y="66" rx="2" ry="2"/><rect class="c cg" x="530" y="82" rx="2" ry="2"/><rect class="c ch" x="530" y="98" rx="2" ry="2"/><rect class="c" x="546" y="2" rx="2" ry="2"/><rect class="c" x="546" y="18" rx="2" ry="2"/><rect class="c ci" x="546" y="34" rx="2" ry="2"/><rect class="c cj" x="546" y="50" rx="2" ry="2"/><rect class="c ck" x="546" y="66" rx="2" ry="2"/><rect class="c cl" x="546" y="82" rx="2" ry="2"/><rect class="c cm" x="546" y="98" rx="2" ry="2"/><rect class="c cn" x="562" y="2" rx="2" ry="2"/><rect class="c co" x="562" y="18" rx="2" ry="2"/><rect class="c cp" x="562" y="34" rx="2" ry="2"/><rect class="c cq" x="562" y="50" rx="2" ry="2"/><rect class="c" x="562" y="66" rx="2" ry="2"/><rect class="c cr" x="562" y="82" rx="2" ry="2"/><rect class="c cs" x="562" y="98" rx="2" ry="2"/><rect class="c" x="578" y="2" rx="2" ry="2"/><rect class="c" x="578" y="18" rx="2" ry="2"/><rect class="c" x="578" y="34" rx="2" ry="2"/><rect class="c ct" x="578" y="50" rx="2" ry="2"/><rect class="c cu" x="578" y="66" rx="2" ry="2"/><rect class="c" x="578" y="82" rx="2" ry="2"/><rect class="c" x="578" y="98" rx="2" ry="2"/><rect class="c" x="594" y="2" rx="2" ry="2"/><rect class="c" x="594" y="18" rx="2" ry="2"/><rect class="c cv" x="594" y="34" rx="2" ry="2"/><rect class="c cw" x="594" y="50" rx="2" ry="2"/><rect class="c cx" x="594" y="66" rx="2" ry="2"/><rect class="c" x="594" y="82" rx="2" ry="2"/><rect class="c" x="594" y="98" rx="2" ry="2"/><rect class="c" x="610" y="2" rx="2" ry="2"/><rect class="c" x="610" y="18" rx="2" ry="2"/><rect class="c" x="610" y="34" rx="2" ry="2"/><rect class="c" x="610" y="50" rx="2" ry="2"/><rect class="c" x="610" y="66" rx="2" ry="2"/><rect class="c" x="610" y="82" rx="2" ry="2"/><rect class="c" x="610" y="98" rx="2" ry="2"/><rect class="c cy" x="626" y="2" rx="2" ry="2"/><rect class="c" x="626" y="18" rx="2" ry="2"/><rect class="c" x="626" y="34" rx="2" ry="2"/><rect class="c cz" x="626" y="50" rx="2" ry="2"/><rect class="c c10" x="626" y="66" rx="2" ry="2"/><rect class="c c11" x="626" y="82" rx="2" ry="2"/><rect class="c" x="626" y="98" rx="2" ry="2"/><rect class="c" x="642" y="2" rx="2" ry="2"/><rect class="c" x="642" y="18" rx="2" ry="2"/><rect class="c" x="642" y="34" rx="2" ry="2"/><rect class="c c12" x="642" y="50" rx="2" ry="2"/><rect class="c" x="642" y="66" rx="2" ry="2"/><rect class="c c13" x="642" y="82" rx="2" ry="2"/><rect class="c" x="642" y="98" rx="2" ry="2"/><rect class="c" x="658" y="2" rx="2" ry="2"/><rect class="c" x="658" y="18" rx="2" ry="2"/><rect class="c c14" x="658" y="34" rx="2" ry="2"/><rect class="c" x="658" y="50" rx="2" ry="2"/><rect class="c c15" x="658" y="66" rx="2" ry="2"/><rect class="c c16" x="658" y="82" rx="2" ry="2"/><rect class="c c17" x="658" y="98" rx="2" ry="2"/><rect class="c c18" x="674" y="2" rx="2" ry="2"/><rect class="c c19" x="674" y="18" rx="2" ry="2"/><rect class="c" x="674" y="34" rx="2" ry="2"/><rect class="c c1a" x="674" y="50" rx="2" ry="2"/><rect class="c c1b" x="674" y="66" rx="2" ry="2"/><rect class="c c1c" x="674" y="82" rx="2" ry="2"/><rect class="c c1d" x="674" y="98" rx="2" ry="2"/><rect class="c c1e" x="690" y="2" rx="2" ry="2"/><rect class="c c1f" x="690" y="18" rx="2" ry="2"/><rect class="c" x="690" y="34" rx="2" ry="2"/><rect class="c c1g" x="690" y="50" rx="2" ry="2"/><rect class="c c1h" x="690" y="66" rx="2" ry="2"/><rect class="c c1i" x="690" y="82" rx="2" ry="2"/><rect class="c c1j" x="690" y="98" rx="2" ry="2"/><rect class="c" x="706" y="2" rx="2" ry="2"/><rect class="c c1k" x="706" y="18" rx="2" ry="2"/><rect class="c" x="706" y="34" rx="2" ry="2"/><rect class="c" x="706" y="50" rx="2" ry="2"/><rect class="c" x="706" y="66" rx="2" ry="2"/><rect class="c c1l" x="706" y="82" rx="2" ry="2"/><rect class="c" x="706" y="98" rx="2" ry="2"/><rect class="c" x="722" y="2" rx="2" ry="2"/><rect class="c c1m" x="722" y="18" rx="2" ry="2"/><rect class="c" x="722" y="34" rx="2" ry="2"/><rect class="c" x="722" y="50" rx="2" ry="2"/><rect class="c" x="722" y="66" rx="2" ry="2"/><rect class="c c1n" x="722" y="82" rx="2" ry="2"/><rect class="c c1o" x="722" y="98" rx="2" ry="2"/><rect class="c c1p" x="738" y="2" rx="2" ry="2"/><rect class="c c1q" x="738" y="18" rx="2" ry="2"/><rect class="c c1r" x="738" y="34" rx="2" ry="2"/><rect class="c" x="738" y="50" rx="2" ry="2"/><rect class="c c1s" x="738" y="66" rx="2" ry="2"/><rect class="c c1t" x="738" y="82" rx="2" ry="2"/><rect class="c c1u" x="738" y="98" rx="2" ry="2"/><rect class="c c1v" x="754" y="2" rx="2" ry="2"/><rect class="c c1w" x="754" y="18" rx="2" ry="2"/><rect class="c c1x" x="754" y="34" rx="2" ry="2"/><rect class="c c1y" x="754" y="50" rx="2" ry="2"/><rect class="c c1z" x="754" y="66" rx="2" ry="2"/><rect class="c" x="754" y="82" rx="2" ry="2"/><rect class="c c20" x="754" y="98" rx="2" ry="2"/><rect class="c c21" x="770" y="2" rx="2" ry="2"/><rect class="c c22" x="770" y="18" rx="2" ry="2"/><rect class="c c23" x="770" y="34" rx="2" ry="2"/><rect class="c c24" x="770" y="50" rx="2" ry="2"/><rect class="c c25" x="770" y="66" rx="2" ry="2"/><rect class="c" x="770" y="82" rx="2" ry="2"/><rect class="c c26" x="770" y="98" rx="2" ry="2"/><rect class="c c27" x="786" y="2" rx="2" ry="2"/><rect class="c c28" x="786" y="18" rx="2" ry="2"/><rect class="c c29" x="786" y="34" rx="2" ry="2"/><rect class="c c2a" x="786" y="50" rx="2" ry="2"/><rect class="c c2b" x="786" y="66" rx="2" ry="2"/><rect class="c c2c" x="786" y="82" rx="2" ry="2"/><rect class="c c2d" x="786" y="98" rx="2" ry="2"/><rect class="c c2e" x="802" y="2" rx="2" ry="2"/><rect class="c c2f" x="802" y="18" rx="2" ry="2"/><rect class="c c2g" x="802" y="34" rx="2" ry="2"/><rect class="c c2h" x="802" y="50" rx="2" ry="2"/><rect class="c c2i" x="802" y="66" rx="2" ry="2"/><rect class="c c2j" x="802" y="82" rx="2" ry="2"/><rect class="c c2k" x="802" y="98" rx="2" ry="2"/><rect class="c" x="818" y="2" rx="2" ry="2"/><rect class="c c2l" x="818" y="18" rx="2" ry="2"/><rect class="c c2m" x="818" y="34" rx="2" ry="2"/><rect class="c c2n" x="818" y="50" rx="2" ry="2"/><rect class="c c2o" x="818" y="66" rx="2" ry="2"/><rect class="c" x="818" y="82" rx="2" ry="2"/><rect class="c c2p" x="818" y="98" rx="2" ry="2"/><rect class="c c2q" x="834" y="2" rx="2" ry="2"/><rect class="c c2r" x="834" y="18" rx="2" ry="2"/><rect class="c c2s" x="834" y="34" rx="2" ry="2"/><rect class="c c2t" x="834" y="50" rx="2" ry="2"/><rect class="c" x="834" y="66" rx="2" ry="2"/><rect class="u u0" height="12" width="790.4" x="0.0" y="144"/><rect class="u u1" height="12" width="50.5" x="789.8" y="144"/><rect class="u u2" height="12" width="8.9" x="839.7" y="144"/><rect class="s s0" x="0.8" y="0.8" width="14.4" height="14.4" rx="4.5" ry="4.5"/><rect class="s s1" x="1.8" y="1.8" width="12.3" height="12.3" rx="4.1" ry="4.1"/><rect class="s s2" x="2.6" y="2.6" width="10.8" height="10.8" rx="3.6" ry="3.6"/><rect class="s s3" x="3.0" y="3.0" width="9.9" height="9.9" rx="3.3" ry="3.3"/></svg>