<svg viewBox="-16 -32 880 192" width="880" height="192" xmlns="http://www.w3.org/2000/svg"><desc>Generated with https://github.com/Platane/snk</desc><style>:root{--cb:#1b1f230a;--cs:purple;--ce:#161b22;--c0:#161b22;--c1:#01311f;--c2:#034525;--c3:#0f6d31;--c4:#00c647}.c{shape-rendering:geometricPrecision;fill:var(--ce);stroke-width:1px;stroke:var(--cb);animation:none 25100ms linear infinite;width:12px;height:12px}@keyframes c0{12.34%{fill:var(--c1)}12.36%,100%{fill:var(--ce)}}.c.c0{fill:var(--c1);animation-name:c0}@keyframes c1{68.52%{fill:var(--c1)}68.54%,100%{fill:var(--ce)}}.c.c1{fill:var(--c1);animation-name:c1}@keyframes c2{68.91%{fill:var(--c1)}68.93%,100%{fill:var(--ce)}}.c.c2{fill:var(--c1);animation-name:c2}@keyframes c3{15.53%{fill:var(--c1)}15.55%,100%{fill:var(--ce)}}.c.c3{fill:var(--c1);animation-name:c3}@keyframes c4{66.52%{fill:var(--c1)}66.54%,100%{fill:var(--ce)}}.c.c4{fill:var(--c1);animation-name:c4}@keyframes c5{66.92%{fill:var(--c1)}66.94%,100%{fill:var(--ce)}}.c.c5{fill:var(--c1);animation-name:c5}@keyframes c6{20.31%{fill:var(--c1)}20.33%,100%{fill:var(--ce)}}.c.c6{fill:var(--c1);animation-name:c6}@keyframes c7{19.91%{fill:var(--c1)}19.93%,100%{fill:var(--ce)}}.c.c7{fill:var(--c1);animation-name:c7}@keyframes c8{19.51%{fill:var(--c1)}19.53%,100%{fill:var(--ce)}}.c.c8{fill:var(--c1);animation-name:c8}@keyframes c9{15.93%{fill:var(--c1)}15.95%,100%{fill:var(--ce)}}.c.c9{fill:var(--c1);animation-name:c9}@keyframes ca{21.9%{fill:var(--c1)}21.92%,100%{fill:var(--ce)}}.c.ca{fill:var(--c1);animation-name:ca}@keyframes cb{21.5%{fill:var(--c1)}21.52%,100%{fill:var(--ce)}}.c.cb{fill:var(--c1);animation-name:cb}@keyframes cc{21.11%{fill:var(--c1)}21.13%,100%{fill:var(--ce)}}.c.cc{fill:var(--c1);animation-name:cc}@keyframes cd{20.71%{fill:var(--c1)}20.73%,100%{fill:var(--ce)}}.c.cd{fill:var(--c1);animation-name:cd}@keyframes ce{16.32%{fill:var(--c1)}16.34%,100%{fill:var(--ce)}}.c.ce{fill:var(--c1);animation-name:ce}@keyframes cf{22.3%{fill:var(--c1)}22.32%,100%{fill:var(--ce)}}.c.cf{fill:var(--c1);animation-name:cf}@keyframes cg{18.72%{fill:var(--c1)}18.74%,100%{fill:var(--ce)}}.c.cg{fill:var(--c1);animation-name:cg}@keyframes ch{16.72%{fill:var(--c1)}16.74%,100%{fill:var(--ce)}}.c.ch{fill:var(--c1);animation-name:ch}@keyframes ci{24.29%{fill:var(--c1)}24.31%,100%{fill:var(--ce)}}.c.ci{fill:var(--c1);animation-name:ci}@keyframes cj{24.69%{fill:var(--c1)}24.71%,100%{fill:var(--ce)}}.c.cj{fill:var(--c1);animation-name:cj}@keyframes ck{71.3%{fill:var(--c2)}71.32%,100%{fill:var(--ce)}}.c.ck{fill:var(--c2);animation-name:ck}@keyframes cl{18.32%{fill:var(--c1)}18.34%,100%{fill:var(--ce)}}.c.cl{fill:var(--c1);animation-name:cl}@keyframes cm{17.12%{fill:var(--c1)}17.14%,100%{fill:var(--ce)}}.c.cm{fill:var(--c1);animation-name:cm}@keyframes cn{23.1%{fill:var(--c1)}23.12%,100%{fill:var(--ce)}}.c.cn{fill:var(--c1);animation-name:cn}@keyframes co{23.5%{fill:var(--c1)}23.52%,100%{fill:var(--ce)}}.c.co{fill:var(--c1);animation-name:co}@keyframes cp{23.89%{fill:var(--c1)}23.91%,100%{fill:var(--ce)}}.c.cp{fill:var(--c1);animation-name:cp}@keyframes cq{25.09%{fill:var(--c1)}25.11%,100%{fill:var(--ce)}}.c.cq{fill:var(--c1);animation-name:cq}@keyframes cr{17.92%{fill:var(--c1)}17.94%,100%{fill:var(--ce)}}.c.cr{fill:var(--c1);animation-name:cr}@keyframes cs{17.52%{fill:var(--c1)}17.54%,100%{fill:var(--ce)}}.c.cs{fill:var(--c1);animation-name:cs}@keyframes ct{25.49%{fill:var(--c1)}25.51%,100%{fill:var(--ce)}}.c.ct{fill:var(--c1);animation-name:ct}@keyframes cu{52.98%{fill:var(--c1)}53%,100%{fill:var(--ce)}}.c.cu{fill:var(--c1);animation-name:cu}@keyframes cv{26.28%{fill:var(--c1)}26.3%,100%{fill:var(--ce)}}.c.cv{fill:var(--c1);animation-name:cv}@keyframes cw{25.89%{fill:var(--c1)}25.91%,100%{fill:var(--ce)}}.c.cw{fill:var(--c1);animation-name:cw}@keyframes cx{52.58%{fill:var(--c1)}52.6%,100%{fill:var(--ce)}}.c.cx{fill:var(--c1);animation-name:cx}@keyframes cy{62.94%{fill:var(--c1)}62.96%,100%{fill:var(--ce)}}.c.cy{fill:var(--c1);animation-name:cy}@keyframes cz{27.48%{fill:var(--c1)}27.5%,100%{fill:var(--ce)}}.c.cz{fill:var(--c1);animation-name:cz}@keyframes c10{73.3%{fill:var(--c2)}73.32%,100%{fill:var(--ce)}}.c.c10{fill:var(--c2);animation-name:c10}@keyframes c11{51.38%{fill:var(--c1)}51.4%,100%{fill:var(--ce)}}.c.c11{fill:var(--c1);animation-name:c11}@keyframes c12{27.88%{fill:var(--c1)}27.9%,100%{fill:var(--ce)}}.c.c12{fill:var(--c1);animation-name:c12}@keyframes c13{42.22%{fill:var(--c1)}42.24%,100%{fill:var(--ce)}}.c.c13{fill:var(--c1);animation-name:c13}@keyframes c14{55.77%{fill:var(--c1)}55.79%,100%{fill:var(--ce)}}.c.c14{fill:var(--c1);animation-name:c14}@keyframes c15{41.42%{fill:var(--c1)}41.44%,100%{fill:var(--ce)}}.c.c15{fill:var(--c1);animation-name:c15}@keyframes c16{42.62%{fill:var(--c1)}42.64%,100%{fill:var(--ce)}}.c.c16{fill:var(--c1);animation-name:c16}@keyframes c17{50.19%{fill:var(--c1)}50.21%,100%{fill:var(--ce)}}.c.c17{fill:var(--c1);animation-name:c17}@keyframes c18{56.96%{fill:var(--c1)}56.98%,100%{fill:var(--ce)}}.c.c18{fill:var(--c1);animation-name:c18}@keyframes c19{56.56%{fill:var(--c1)}56.58%,100%{fill:var(--ce)}}.c.c19{fill:var(--c1);animation-name:c19}@keyframes c1a{28.68%{fill:var(--c1)}28.7%,100%{fill:var(--ce)}}.c.c1a{fill:var(--c1);animation-name:c1a}@keyframes c1b{41.03%{fill:var(--c1)}41.05%,100%{fill:var(--ce)}}.c.c1b{fill:var(--c1);animation-name:c1b}@keyframes c1c{43.02%{fill:var(--c1)}43.04%,100%{fill:var(--ce)}}.c.c1c{fill:var(--c1);animation-name:c1c}@keyframes c1d{49.79%{fill:var(--c1)}49.81%,100%{fill:var(--ce)}}.c.c1d{fill:var(--c1);animation-name:c1d}@keyframes c1e{57.36%{fill:var(--c1)}57.38%,100%{fill:var(--ce)}}.c.c1e{fill:var(--c1);animation-name:c1e}@keyframes c1f{29.87%{fill:var(--c1)}29.89%,100%{fill:var(--ce)}}.c.c1f{fill:var(--c1);animation-name:c1f}@keyframes c1g{29.07%{fill:var(--c1)}29.09%,100%{fill:var(--ce)}}.c.c1g{fill:var(--c1);animation-name:c1g}@keyframes c1h{40.63%{fill:var(--c1)}40.65%,100%{fill:var(--ce)}}.c.c1h{fill:var(--c1);animation-name:c1h}@keyframes c1i{43.42%{fill:var(--c1)}43.44%,100%{fill:var(--ce)}}.c.c1i{fill:var(--c1);animation-name:c1i}@keyframes c1j{49.39%{fill:var(--c1)}49.41%,100%{fill:var(--ce)}}.c.c1j{fill:var(--c1);animation-name:c1j}@keyframes c1k{30.27%{fill:var(--c1)}30.29%,100%{fill:var(--ce)}}.c.c1k{fill:var(--c1);animation-name:c1k}@keyframes c1l{43.81%{fill:var(--c1)}43.83%,100%{fill:var(--ce)}}.c.c1l{fill:var(--c1);animation-name:c1l}@keyframes c1m{30.67%{fill:var(--c1)}30.69%,100%{fill:var(--ce)}}.c.c1m{fill:var(--c1);animation-name:c1m}@keyframes c1n{44.21%{fill:var(--c1)}44.23%,100%{fill:var(--ce)}}.c.c1n{fill:var(--c1);animation-name:c1n}@keyframes c1o{48.6%{fill:var(--c1)}48.62%,100%{fill:var(--ce)}}.c.c1o{fill:var(--c1);animation-name:c1o}@keyframes c1p{58.56%{fill:var(--c1)}58.58%,100%{fill:var(--ce)}}.c.c1p{fill:var(--c1);animation-name:c1p}@keyframes c1q{78.08%{fill:var(--c2)}78.1%,100%{fill:var(--ce)}}.c.c1q{fill:var(--c2);animation-name:c1q}@keyframes c1r{76.88%{fill:var(--c2)}76.9%,100%{fill:var(--ce)}}.c.c1r{fill:var(--c2);animation-name:c1r}@keyframes c1s{39.43%{fill:var(--c1)}39.45%,100%{fill:var(--ce)}}.c.c1s{fill:var(--c1);animation-name:c1s}@keyframes c1t{44.61%{fill:var(--c1)}44.63%,100%{fill:var(--ce)}}.c.c1t{fill:var(--c1);animation-name:c1t}@keyframes c1u{45.01%{fill:var(--c1)}45.03%,100%{fill:var(--ce)}}.c.c1u{fill:var(--c1);animation-name:c1u}@keyframes c1v{58.95%{fill:var(--c1)}58.97%,100%{fill:var(--ce)}}.c.c1v{fill:var(--c1);animation-name:c1v}@keyframes c1w{77.68%{fill:var(--c2)}77.7%,100%{fill:var(--ce)}}.c.c1w{fill:var(--c2);animation-name:c1w}@keyframes c1x{77.28%{fill:var(--c2)}77.3%,100%{fill:var(--ce)}}.c.c1x{fill:var(--c2);animation-name:c1x}@keyframes c1y{32.26%{fill:var(--c1)}32.28%,100%{fill:var(--ce)}}.c.c1y{fill:var(--c1);animation-name:c1y}@keyframes c1z{39.03%{fill:var(--c1)}39.05%,100%{fill:var(--ce)}}.c.c1z{fill:var(--c1);animation-name:c1z}@keyframes c20{45.41%{fill:var(--c1)}45.43%,100%{fill:var(--ce)}}.c.c20{fill:var(--c1);animation-name:c20}@keyframes c21{79.27%{fill:var(--c4)}79.29%,100%{fill:var(--ce)}}.c.c21{fill:var(--c4);animation-name:c21}@keyframes c22{35.85%{fill:var(--c1)}35.87%,100%{fill:var(--ce)}}.c.c22{fill:var(--c1);animation-name:c22}@keyframes c23{36.24%{fill:var(--c1)}36.26%,100%{fill:var(--ce)}}.c.c23{fill:var(--c1);animation-name:c23}@keyframes c24{32.66%{fill:var(--c1)}32.68%,100%{fill:var(--ce)}}.c.c24{fill:var(--c1);animation-name:c24}@keyframes c25{37.04%{fill:var(--c1)}37.06%,100%{fill:var(--ce)}}.c.c25{fill:var(--c1);animation-name:c25}@keyframes c26{45.81%{fill:var(--c1)}45.83%,100%{fill:var(--ce)}}.c.c26{fill:var(--c1);animation-name:c26}@keyframes c27{34.25%{fill:var(--c1)}34.27%,100%{fill:var(--ce)}}.c.c27{fill:var(--c1);animation-name:c27}@keyframes c28{33.85%{fill:var(--c1)}33.87%,100%{fill:var(--ce)}}.c.c28{fill:var(--c1);animation-name:c28}@keyframes c29{33.46%{fill:var(--c1)}33.48%,100%{fill:var(--ce)}}.c.c29{fill:var(--c1);animation-name:c29}@keyframes c2a{33.06%{fill:var(--c1)}33.08%,100%{fill:var(--ce)}}.c.c2a{fill:var(--c1);animation-name:c2a}@keyframes c2b{37.44%{fill:var(--c1)}37.46%,100%{fill:var(--ce)}}.c.c2b{fill:var(--c1);animation-name:c2b}@keyframes c2c{37.84%{fill:var(--c1)}37.86%,100%{fill:var(--ce)}}.c.c2c{fill:var(--c1);animation-name:c2c}@keyframes c2d{46.21%{fill:var(--c1)}46.23%,100%{fill:var(--ce)}}.c.c2d{fill:var(--c1);animation-name:c2d}.u{transform-origin:0 0;transform:scale(0,1);animation:none linear 25100ms infinite}@keyframes u0{12.34%{transform:scale(0.000,1)}12.36%,15.53%{transform:scale(0.013,1)}15.55%,15.93%{transform:scale(0.025,1)}15.95%,16.32%{transform:scale(0.038,1)}16.34%,16.72%{transform:scale(0.051,1)}16.74%,17.12%{transform:scale(0.063,1)}17.14%,17.52%{transform:scale(0.076,1)}17.54%,17.92%{transform:scale(0.089,1)}17.94%,18.32%{transform:scale(0.101,1)}18.34%,18.72%{transform:scale(0.114,1)}18.74%,19.51%{transform:scale(0.127,1)}19.53%,19.91%{transform:scale(0.139,1)}19.93%,20.31%{transform:scale(0.152,1)}20.33%,20.71%{transform:scale(0.165,1)}20.73%,21.11%{transform:scale(0.177,1)}21.13%,21.5%{transform:scale(0.190,1)}21.52%,21.9%{transform:scale(0.203,1)}21.92%,22.3%{transform:scale(0.215,1)}22.32%,23.1%{transform:scale(0.228,1)}23.12%,23.5%{transform:scale(0.241,1)}23.52%,23.89%{transform:scale(0.253,1)}23.91%,24.29%{transform:scale(0.266,1)}24.31%,24.69%{transform:scale(0.278,1)}24.71%,25.09%{transform:scale(0.291,1)}25.11%,25.49%{transform:scale(0.304,1)}25.51%,25.89%{transform:scale(0.316,1)}25.91%,26.28%{transform:scale(0.329,1)}26.3%,27.48%{transform:scale(0.342,1)}27.5%,27.88%{transform:scale(0.354,1)}27.9%,28.68%{transform:scale(0.367,1)}28.7%,29.07%{transform:scale(0.380,1)}29.09%,29.87%{transform:scale(0.392,1)}29.89%,30.27%{transform:scale(0.405,1)}30.29%,30.67%{transform:scale(0.418,1)}30.69%,32.26%{transform:scale(0.430,1)}32.28%,32.66%{transform:scale(0.443,1)}32.68%,33.06%{transform:scale(0.456,1)}33.08%,33.46%{transform:scale(0.468,1)}33.48%,33.85%{transform:scale(0.481,1)}33.87%,34.25%{transform:scale(0.494,1)}34.27%,35.85%{transform:scale(0.506,1)}35.87%,36.24%{transform:scale(0.519,1)}36.26%,37.04%{transform:scale(0.532,1)}37.06%,37.44%{transform:scale(0.544,1)}37.46%,37.84%{transform:scale(0.557,1)}37.86%,39.03%{transform:scale(0.570,1)}39.05%,39.43%{transform:scale(0.582,1)}39.45%,40.63%{transform:scale(0.595,1)}40.65%,41.03%{transform:scale(0.608,1)}41.05%,41.42%{transform:scale(0.620,1)}41.44%,42.22%{transform:scale(0.633,1)}42.24%,42.62%{transform:scale(0.646,1)}42.64%,43.02%{transform:scale(0.658,1)}43.04%,43.42%{transform:scale(0.671,1)}43.44%,43.81%{transform:scale(0.684,1)}43.83%,44.21%{transform:scale(0.696,1)}44.23%,44.61%{transform:scale(0.709,1)}44.63%,45.01%{transform:scale(0.722,1)}45.03%,45.41%{transform:scale(0.734,1)}45.43%,45.81%{transform:scale(0.747,1)}45.83%,46.21%{transform:scale(0.759,1)}46.23%,48.6%{transform:scale(0.772,1)}48.62%,49.39%{transform:scale(0.785,1)}49.41%,49.79%{transform:scale(0.797,1)}49.81%,50.19%{transform:scale(0.810,1)}50.21%,51.38%{transform:scale(0.823,1)}51.4%,52.58%{transform:scale(0.835,1)}52.6%,52.98%{transform:scale(0.848,1)}53%,55.77%{transform:scale(0.861,1)}55.79%,56.56%{transform:scale(0.873,1)}56.58%,56.96%{transform:scale(0.886,1)}56.98%,57.36%{transform:scale(0.899,1)}57.38%,58.56%{transform:scale(0.911,1)}58.58%,58.95%{transform:scale(0.924,1)}58.97%,62.94%{transform:scale(0.937,1)}62.96%,66.52%{transform:scale(0.949,1)}66.54%,66.92%{transform:scale(0.962,1)}66.94%,68.52%{transform:scale(0.975,1)}68.54%,68.91%{transform:scale(0.987,1)}68.93%,100%{transform:scale(1.000,1)}}.u.u0{fill:var(--c1);animation-name:u0;transform-origin:0.0px 0}@keyframes u1{71.3%{transform:scale(0.000,1)}71.32%,73.3%{transform:scale(0.167,1)}73.32%,76.88%{transform:scale(0.333,1)}76.9%,77.28%{transform:scale(0.500,1)}77.3%,77.68%{transform:scale(0.667,1)}77.7%,78.08%{transform:scale(0.833,1)}78.1%,100%{transform:scale(1.000,1)}}.u.u1{fill:var(--c2);animation-name:u1;transform-origin:779.0px 0}@keyframes u2{79.27%{transform:scale(0.000,1)}79.29%,100%{transform:scale(1.000,1)}}.u.u2{fill:var(--c4);animation-name:u2;transform-origin:838.1px 0}.s{shape-rendering:geometricPrecision;fill:var(--cs);animation:none linear 25100ms infinite}@keyframes s0{0%,99.6%{transform:translate(0px,-16px)}0.4%{transform:translate(0px,0px)}9.96%{transform:translate(384px,0px)}12.35%{transform:translate(384px,96px)}17.53%{transform:translate(592px,96px)}17.93%{transform:translate(592px,80px)}19.52%{transform:translate(528px,80px)}20.32%{transform:translate(528px,48px)}20.72%{transform:translate(544px,48px)}21.91%{transform:translate(544px,0px)}23.11%{transform:translate(592px,0px)}23.9%{transform:translate(592px,32px)}24.3%{transform:translate(576px,32px)}24.7%{transform:translate(576px,48px)}25.9%{transform:translate(624px,48px)}26.29%{transform:translate(624px,32px)}27.09%{transform:translate(656px,32px)}27.49%{transform:translate(656px,48px)}29.08%{transform:translate(720px,48px)}29.88%{transform:translate(720px,16px)}30.68%{transform:translate(752px,16px)}31.47%{transform:translate(752px,48px)}33.07%{transform:translate(816px,48px)}34.26%{transform:translate(816px,0px)}34.66%{transform:translate(832px,0px)}35.06%{transform:translate(832px,16px)}35.86%{transform:translate(800px,16px)}37.05%{transform:translate(800px,64px)}37.45%{transform:translate(816px,64px)}37.85%,46.61%{transform:translate(816px,80px)}38.65%{transform:translate(784px,80px)}39.04%{transform:translate(784px,64px)}41.83%{transform:translate(672px,64px)}42.23%{transform:translate(672px,80px)}44.62%{transform:translate(768px,80px)}45.02%{transform:translate(768px,96px)}46.22%{transform:translate(816px,96px)}48.21%{transform:translate(752px,80px)}48.61%{transform:translate(752px,96px)}50.2%{transform:translate(688px,96px)}50.6%{transform:translate(688px,80px)}51.79%{transform:translate(640px,80px)}52.19%{transform:translate(640px,64px)}52.99%{transform:translate(608px,64px)}53.39%{transform:translate(608px,48px)}55.38%{transform:translate(688px,48px)}55.78%{transform:translate(688px,32px)}56.18%{transform:translate(704px,32px)}56.97%{transform:translate(704px,0px)}58.96%{transform:translate(784px,0px)}59.36%{transform:translate(784px,-16px)}62.55%{transform:translate(656px,-16px)}62.95%{transform:translate(656px,0px)}66.14%{transform:translate(528px,0px)}66.93%{transform:translate(528px,32px)}67.73%{transform:translate(496px,32px)}68.92%{transform:translate(496px,80px)}70.92%{transform:translate(576px,80px)}71.31%{transform:translate(576px,64px)}76.1%{transform:translate(768px,64px)}76.89%{transform:translate(768px,32px)}77.29%{transform:translate(784px,32px)}77.69%{transform:translate(784px,16px)}78.09%{transform:translate(768px,16px)}78.49%{transform:translate(768px,0px)}79.28%{transform:translate(800px,0px)}79.68%{transform:translate(800px,-16px)}}.s.s0{transform:translate(0px,-16px);animation-name:s0}@keyframes s1{0%,99.6%{transform:translate(16px,-16px)}0.4%{transform:translate(0px,-16px)}0.8%{transform:translate(0px,0px)}10.36%{transform:translate(384px,0px)}12.75%{transform:translate(384px,96px)}17.93%{transform:translate(592px,96px)}18.33%{transform:translate(592px,80px)}19.92%{transform:translate(528px,80px)}20.72%{transform:translate(528px,48px)}21.12%{transform:translate(544px,48px)}22.31%{transform:translate(544px,0px)}23.51%{transform:translate(592px,0px)}24.3%{transform:translate(592px,32px)}24.7%{transform:translate(576px,32px)}25.1%{transform:translate(576px,48px)}26.29%{transform:translate(624px,48px)}26.69%{transform:translate(624px,32px)}27.49%{transform:translate(656px,32px)}27.89%{transform:translate(656px,48px)}29.48%{transform:translate(720px,48px)}30.28%{transform:translate(720px,16px)}31.08%{transform:translate(752px,16px)}31.87%{transform:translate(752px,48px)}33.47%{transform:translate(816px,48px)}34.66%{transform:translate(816px,0px)}35.06%{transform:translate(832px,0px)}35.46%{transform:translate(832px,16px)}36.25%{transform:translate(800px,16px)}37.45%{transform:translate(800px,64px)}37.85%{transform:translate(816px,64px)}38.25%,47.01%{transform:translate(816px,80px)}39.04%{transform:translate(784px,80px)}39.44%{transform:translate(784px,64px)}42.23%{transform:translate(672px,64px)}42.63%{transform:translate(672px,80px)}45.02%{transform:translate(768px,80px)}45.42%{transform:translate(768px,96px)}46.61%{transform:translate(816px,96px)}48.61%{transform:translate(752px,80px)}49%{transform:translate(752px,96px)}50.6%{transform:translate(688px,96px)}51%{transform:translate(688px,80px)}52.19%{transform:translate(640px,80px)}52.59%{transform:translate(640px,64px)}53.39%{transform:translate(608px,64px)}53.78%{transform:translate(608px,48px)}55.78%{transform:translate(688px,48px)}56.18%{transform:translate(688px,32px)}56.57%{transform:translate(704px,32px)}57.37%{transform:translate(704px,0px)}59.36%{transform:translate(784px,0px)}59.76%{transform:translate(784px,-16px)}62.95%{transform:translate(656px,-16px)}63.35%{transform:translate(656px,0px)}66.53%{transform:translate(528px,0px)}67.33%{transform:translate(528px,32px)}68.13%{transform:translate(496px,32px)}69.32%{transform:translate(496px,80px)}71.31%{transform:translate(576px,80px)}71.71%{transform:translate(576px,64px)}76.49%{transform:translate(768px,64px)}77.29%{transform:translate(768px,32px)}77.69%{transform:translate(784px,32px)}78.09%{transform:translate(784px,16px)}78.49%{transform:translate(768px,16px)}78.88%{transform:translate(768px,0px)}79.68%{transform:translate(800px,0px)}80.08%{transform:translate(800px,-16px)}}.s.s1{transform:translate(16px,-16px);animation-name:s1}@keyframes s2{0%,99.6%{transform:translate(32px,-16px)}0.8%{transform:translate(0px,-16px)}1.2%{transform:translate(0px,0px)}10.76%{transform:translate(384px,0px)}13.15%{transform:translate(384px,96px)}18.33%{transform:translate(592px,96px)}18.73%{transform:translate(592px,80px)}20.32%{transform:translate(528px,80px)}21.12%{transform:translate(528px,48px)}21.51%{transform:translate(544px,48px)}22.71%{transform:translate(544px,0px)}23.9%{transform:translate(592px,0px)}24.7%{transform:translate(592px,32px)}25.1%{transform:translate(576px,32px)}25.5%{transform:translate(576px,48px)}26.69%{transform:translate(624px,48px)}27.09%{transform:translate(624px,32px)}27.89%{transform:translate(656px,32px)}28.29%{transform:translate(656px,48px)}29.88%{transform:translate(720px,48px)}30.68%{transform:translate(720px,16px)}31.47%{transform:translate(752px,16px)}32.27%{transform:translate(752px,48px)}33.86%{transform:translate(816px,48px)}35.06%{transform:translate(816px,0px)}35.46%{transform:translate(832px,0px)}35.86%{transform:translate(832px,16px)}36.65%{transform:translate(800px,16px)}37.85%{transform:translate(800px,64px)}38.25%{transform:translate(816px,64px)}38.65%,47.41%{transform:translate(816px,80px)}39.44%{transform:translate(784px,80px)}39.84%{transform:translate(784px,64px)}42.63%{transform:translate(672px,64px)}43.03%{transform:translate(672px,80px)}45.42%{transform:translate(768px,80px)}45.82%{transform:translate(768px,96px)}47.01%{transform:translate(816px,96px)}49%{transform:translate(752px,80px)}49.4%{transform:translate(752px,96px)}51%{transform:translate(688px,96px)}51.39%{transform:translate(688px,80px)}52.59%{transform:translate(640px,80px)}52.99%{transform:translate(640px,64px)}53.78%{transform:translate(608px,64px)}54.18%{transform:translate(608px,48px)}56.18%{transform:translate(688px,48px)}56.57%{transform:translate(688px,32px)}56.97%{transform:translate(704px,32px)}57.77%{transform:translate(704px,0px)}59.76%{transform:translate(784px,0px)}60.16%{transform:translate(784px,-16px)}63.35%{transform:translate(656px,-16px)}63.75%{transform:translate(656px,0px)}66.93%{transform:translate(528px,0px)}67.73%{transform:translate(528px,32px)}68.53%{transform:translate(496px,32px)}69.72%{transform:translate(496px,80px)}71.71%{transform:translate(576px,80px)}72.11%{transform:translate(576px,64px)}76.89%{transform:translate(768px,64px)}77.69%{transform:translate(768px,32px)}78.09%{transform:translate(784px,32px)}78.49%{transform:translate(784px,16px)}78.88%{transform:translate(768px,16px)}79.28%{transform:translate(768px,0px)}80.08%{transform:translate(800px,0px)}80.48%{transform:translate(800px,-16px)}}.s.s2{transform:translate(32px,-16px);animation-name:s2}@keyframes s3{0%,99.6%{transform:translate(48px,-16px)}1.2%{transform:translate(0px,-16px)}1.59%{transform:translate(0px,0px)}11.16%{transform:translate(384px,0px)}13.55%{transform:translate(384px,96px)}18.73%{transform:translate(592px,96px)}19.12%{transform:translate(592px,80px)}20.72%{transform:translate(528px,80px)}21.51%{transform:translate(528px,48px)}21.91%{transform:translate(544px,48px)}23.11%{transform:translate(544px,0px)}24.3%{transform:translate(592px,0px)}25.1%{transform:translate(592px,32px)}25.5%{transform:translate(576px,32px)}25.9%{transform:translate(576px,48px)}27.09%{transform:translate(624px,48px)}27.49%{transform:translate(624px,32px)}28.29%{transform:translate(656px,32px)}28.69%{transform:translate(656px,48px)}30.28%{transform:translate(720px,48px)}31.08%{transform:translate(720px,16px)}31.87%{transform:translate(752px,16px)}32.67%{transform:translate(752px,48px)}34.26%{transform:translate(816px,48px)}35.46%{transform:translate(816px,0px)}35.86%{transform:translate(832px,0px)}36.25%{transform:translate(832px,16px)}37.05%{transform:translate(800px,16px)}38.25%{transform:translate(800px,64px)}38.65%{transform:translate(816px,64px)}39.04%,47.81%{transform:translate(816px,80px)}39.84%{transform:translate(784px,80px)}40.24%{transform:translate(784px,64px)}43.03%{transform:translate(672px,64px)}43.43%{transform:translate(672px,80px)}45.82%{transform:translate(768px,80px)}46.22%{transform:translate(768px,96px)}47.41%{transform:translate(816px,96px)}49.4%{transform:translate(752px,80px)}49.8%{transform:translate(752px,96px)}51.39%{transform:translate(688px,96px)}51.79%{transform:translate(688px,80px)}52.99%{transform:translate(640px,80px)}53.39%{transform:translate(640px,64px)}54.18%{transform:translate(608px,64px)}54.58%{transform:translate(608px,48px)}56.57%{transform:translate(688px,48px)}56.97%{transform:translate(688px,32px)}57.37%{transform:translate(704px,32px)}58.17%{transform:translate(704px,0px)}60.16%{transform:translate(784px,0px)}60.56%{transform:translate(784px,-16px)}63.75%{transform:translate(656px,-16px)}64.14%{transform:translate(656px,0px)}67.33%{transform:translate(528px,0px)}68.13%{transform:translate(528px,32px)}68.92%{transform:translate(496px,32px)}70.12%{transform:translate(496px,80px)}72.11%{transform:translate(576px,80px)}72.51%{transform:translate(576px,64px)}77.29%{transform:translate(768px,64px)}78.09%{transform:translate(768px,32px)}78.49%{transform:translate(784px,32px)}78.88%{transform:translate(784px,16px)}79.28%{transform:translate(768px,16px)}79.68%{transform:translate(768px,0px)}80.48%{transform:translate(800px,0px)}80.88%{transform:translate(800px,-16px)}}.s.s3{transform:translate(48px,-16px);animation-name:s3}</style><rect class="c" x="2" y="2" rx="2" ry="2"/><rect class="c" x="2" y="18" rx="2" ry="2"/><rect class="c" x="2" y="34" rx="2" ry="2"/><rect class="c" x="2" y="50" rx="2" ry="2"/><rect class="c" x="2" y="66" rx="2" ry="2"/><rect class="c" x="2" y="82" rx="2" ry="2"/><rect class="c" x="2" y="98" rx="2" ry="2"/><rect class="c" x="18" y="2" rx="2" ry="2"/><rect class="c" x="18" y="18" rx="2" ry="2"/><rect class="c" x="18" y="34" rx="2" ry="2"/><rect class="c" x="18" y="50" rx="2" ry="2"/><rect class="c" x="18" y="66" rx="2" ry="2"/><rect class="c" x="18" y="82" rx="2" ry="2"/><rect class="c" x="18" y="98" rx="2" ry="2"/><rect class="c" x="34" y="2" rx="2" ry="2"/><rect class="c" x="34" y="18" rx="2" ry="2"/><rect class="c" x="34" y="34" rx="2" ry="2"/><rect class="c" x="34" y="50" rx="2" ry="2"/><rect class="c" x="34" y="66" rx="2" ry="2"/><rect class="c" x="34" y="82" rx="2" ry="2"/><rect class="c" x="34" y="98" rx="2" ry="2"/><rect class="c" x="50" y="2" rx="2" ry="2"/><rect class="c" x="50" y="18" rx="2" ry="2"/><rect class="c" x="50" y="34" rx="2" ry="2"/><rect class="c" x="50" y="50" rx="2" ry="2"/><rect class="c" x="50" y="66" rx="2" ry="2"/><rect class="c" x="50" y="82" rx="2" ry="2"/><rect class="c" x="50" y="98" rx="2" ry="2"/><rect class="c" x="66" y="2" rx="2" ry="2"/><rect class="c" x="66" y="18" rx="2" ry="2"/><rect class="c" x="66" y="34" rx="2" ry="2"/><rect class="c" x="66" y="50" rx="2" ry="2"/><rect class="c" x="66" y="66" rx="2" ry="2"/><rect class="c" x="66" y="82" rx="2" ry="2"/><rect class="c" x="66" y="98" rx="2" ry="2"/><rect class="c" x="82" y="2" rx="2" ry="2"/><rect class="c" x="82" y="18" rx="2" ry="2"/><rect class="c" x="82" y="34" rx="2" ry="2"/><rect class="c" x="82" y="50" rx="2" ry="2"/><rect class="c" x="82" y="66" rx="2" ry="2"/><rect class="c" x="82" y="82" rx="2" ry="2"/><rect class="c" x="82" y="98" rx="2" ry="2"/><rect class="c" x="98" y="2" rx="2" ry="2"/><rect class="c" x="98" y="18" rx="2" ry="2"/><rect class="c" x="98" y="34" rx="2" ry="2"/><rect class="c" x="98" y="50" rx="2" ry="2"/><rect class="c" x="98" y="66" rx="2" ry="2"/><rect class="c" x="98" y="82" rx="2" ry="2"/><rect class="c" x="98" y="98" rx="2" ry="2"/><rect class="c" x="114" y="2" rx="2" ry="2"/><rect class="c" x="114" y="18" rx="2" ry="2"/><rect class="c" x="114" y="34" rx="2" ry="2"/><rect class="c" x="114" y="50" rx="2" ry="2"/><rect class="c" x="114" y="66" rx="2" ry="2"/><rect class="c" x="114" y="82" rx="2" ry="2"/><rect class="c" x="114" y="98" rx="2" ry="2"/><rect class="c" x="130" y="2" rx="2" ry="2"/><rect class="c" x="130" y="18" rx="2" ry="2"/><rect class="c" x="130" y="34" rx="2" ry="2"/><rect class="c" x="130" y="50" rx="2" ry="2"/><rect class="c" x="130" y="66" rx="2" ry="2"/><rect class="c" x="130" y="82" rx="2" ry="2"/><rect class="c" x="130" y="98" rx="2" ry="2"/><rect class="c" x="146" y="2" rx="2" ry="2"/><rect class="c" x="146" y="18" rx="2" ry="2"/><rect class="c" x="146" y="34" rx="2" ry="2"/><rect class="c" x="146" y="50" rx="2" ry="2"/><rect class="c" x="146" y="66" rx="2" ry="2"/><rect class="c" x="146" y="82" rx="2" ry="2"/><rect class="c" x="146" y="98" rx="2" ry="2"/><rect class="c" x="162" y="2" rx="2" ry="2"/><rect class="c" x="162" y="18" rx="2" ry="2"/><rect class="c" x="162" y="34" rx="2" ry="2"/><rect class="c" x="162" y="50" rx="2" ry="2"/><rect class="c" x="162" y="66" rx="2" ry="2"/><rect class="c" x="162" y="82" rx="2" ry="2"/><rect class="c" x="162" y="98" rx="2" ry="2"/><rect class="c" x="178" y="2" rx="2" ry="2"/><rect class="c" x="178" y="18" rx="2" ry="2"/><rect class="c" x="178" y="34" rx="2" ry="2"/><rect class="c" x="178" y="50" rx="2" ry="2"/><rect class="c" x="178" y="66" rx="2" ry="2"/><rect class="c" x="178" y="82" rx="2" ry="2"/><rect class="c" x="178" y="98" rx="2" ry="2"/><rect class="c" x="194" y="2" rx="2" ry="2"/><rect class="c" x="194" y="18" rx="2" ry="2"/><rect class="c" x="194" y="34" rx="2" ry="2"/><rect class="c" x="194" y="50" rx="2" ry="2"/><rect class="c" x="194" y="66" rx="2" ry="2"/><rect class="c" x="194" y="82" rx="2" ry="2"/><rect class="c" x="194" y="98" rx="2" ry="2"/><rect class="c" x="210" y="2" rx="2" ry="2"/><rect class="c" x="210" y="18" rx="2" ry="2"/><rect class="c" x="210" y="34" rx="2" ry="2"/><rect class="c" x="210" y="50" rx="2" ry="2"/><rect class="c" x="210" y="66" rx="2" ry="2"/><rect class="c" x="210" y="82" rx="2" ry="2"/><rect class="c" x="210" y="98" rx="2" ry="2"/><rect class="c" x="226" y="2" rx="2" ry="2"/><rect class="c" x="226" y="18" rx="2" ry="2"/><rect class="c" x="226" y="34" rx="2" ry="2"/><rect class="c" x="226" y="50" rx="2" ry="2"/><rect class="c" x="226" y="66" rx="2" ry="2"/><rect class="c" x="226" y="82" rx="2" ry="2"/><rect class="c" x="226" y="98" rx="2" ry="2"/><rect class="c" x="242" y="2" rx="2" ry="2"/><rect class="c" x="242" y="18" rx="2" ry="2"/><rect class="c" x="242" y="34" rx="2" ry="2"/><rect class="c" x="242" y="50" rx="2" ry="2"/><rect class="c" x="242" y="66" rx="2" ry="2"/><rect class="c" x="242" y="82" rx="2" ry="2"/><rect class="c" x="242" y="98" rx="2" ry="2"/><rect class="c" x="258" y="2" rx="2" ry="2"/><rect class="c" x="258" y="18" rx="2" ry="2"/><rect class="c" x="258" y="34" rx="2" ry="2"/><rect class="c" x="258" y="50" rx="2" ry="2"/><rect class="c" x="258" y="66" rx="2" ry="2"/><rect class="c" x="258" y="82" rx="2" ry="2"/><rect class="c" x="258" y="98" rx="2" ry="2"/><rect class="c" x="274" y="2" rx="2" ry="2"/><rect class="c" x="274" y="18" rx="2" ry="2"/><rect class="c" x="274" y="34" rx="2" ry="2"/><rect class="c" x="274" y="50" rx="2" ry="2"/><rect class="c" x="274" y="66" rx="2" ry="2"/><rect class="c" x="274" y="82" rx="2" ry="2"/><rect class="c" x="274" y="98" rx="2" ry="2"/><rect class="c" x="290" y="2" rx="2" ry="2"/><rect class="c" x="290" y="18" rx="2" ry="2"/><rect class="c" x="290" y="34" rx="2" ry="2"/><rect class="c" x="290" y="50" rx="2" ry="2"/><rect class="c" x="290" y="66" rx="2" ry="2"/><rect class="c" x="290" y="82" rx="2" ry="2"/><rect class="c" x="290" y="98" rx="2" ry="2"/><rect class="c" x="306" y="2" rx="2" ry="2"/><rect class="c" x="306" y="18" rx="2" ry="2"/><rect class="c" x="306" y="34" rx="2" ry="2"/><rect class="c" x="306" y="50" rx="2" ry="2"/><rect class="c" x="306" y="66" rx="2" ry="2"/><rect class="c" x="306" y="82" rx="2" ry="2"/><rect class="c" x="306" y="98" rx="2" ry="2"/><rect class="c" x="322" y="2" rx="2" ry="2"/><rect class="c" x="322" y="18" rx="2" ry="2"/><rect class="c" x="322" y="34" rx="2" ry="2"/><rect class="c" x="322" y="50" rx="2" ry="2"/><rect class="c" x="322" y="66" rx="2" ry="2"/><rect class="c" x="322" y="82" rx="2" ry="2"/><rect class="c" x="322" y="98" rx="2" ry="2"/><rect class="c" x="338" y="2" rx="2" ry="2"/><rect class="c" x="338" y="18" rx="2" ry="2"/><rect class="c" x="338" y="34" rx="2" ry="2"/><rect class="c" x="338" y="50" rx="2" ry="2"/><rect class="c" x="338" y="66" rx="2" ry="2"/><rect class="c" x="338" y="82" rx="2" ry="2"/><rect class="c" x="338" y="98" rx="2" ry="2"/><rect class="c" x="354" y="2" rx="2" ry="2"/><rect class="c" x="354" y="18" rx="2" ry="2"/><rect class="c" x="354" y="34" rx="2" ry="2"/><rect class="c" x="354" y="50" rx="2" ry="2"/><rect class="c" x="354" y="66" rx="2" ry="2"/><rect class="c" x="354" y="82" rx="2" ry="2"/><rect class="c" x="354" y="98" rx="2" ry="2"/><rect class="c" x="370" y="2" rx="2" ry="2"/><rect class="c" x="370" y="18" rx="2" ry="2"/><rect class="c" x="370" y="34" rx="2" ry="2"/><rect class="c" x="370" y="50" rx="2" ry="2"/><rect class="c" x="370" y="66" rx="2" ry="2"/><rect class="c" x="370" y="82" rx="2" ry="2"/><rect class="c" x="370" y="98" rx="2" ry="2"/><rect class="c" x="386" y="2" rx="2" ry="2"/><rect class="c" x="386" y="18" rx="2" ry="2"/><rect class="c" x="386" y="34" rx="2" ry="2"/><rect class="c" x="386" y="50" rx="2" ry="2"/><rect class="c" x="386" y="66" rx="2" ry="2"/><rect class="c" x="386" y="82" rx="2" ry="2"/><rect class="c c0" x="386" y="98" rx="2" ry="2"/><rect class="c" x="402" y="2" rx="2" ry="2"/><rect class="c" x="402" y="18" rx="2" ry="2"/><rect class="c" x="402" y="34" rx="2" ry="2"/><rect class="c" x="402" y="50" rx="2" ry="2"/><rect class="c" x="402" y="66" rx="2" ry="2"/><rect class="c" x="402" y="82" rx="2" ry="2"/><rect class="c" x="402" y="98" rx="2" ry="2"/><rect class="c" x="418" y="2" rx="2" ry="2"/><rect class="c" x="418" y="18" rx="2" ry="2"/><rect class="c" x="418" y="34" rx="2" ry="2"/><rect class="c" x="418" y="50" rx="2" ry="2"/><rect class="c" x="418" y="66" rx="2" ry="2"/><rect class="c" x="418" y="82" rx="2" ry="2"/><rect class="c" x="418" y="98" rx="2" ry="2"/><rect class="c" x="434" y="2" rx="2" ry="2"/><rect class="c" x="434" y="18" rx="2" ry="2"/><rect class="c" x="434" y="34" rx="2" ry="2"/><rect class="c" x="434" y="50" rx="2" ry="2"/><rect class="c" x="434" y="66" rx="2" ry="2"/><rect class="c" x="434" y="82" rx="2" ry="2"/><rect class="c" x="434" y="98" rx="2" ry="2"/><rect class="c" x="450" y="2" rx="2" ry="2"/><rect class="c" x="450" y="18" rx="2" ry="2"/><rect class="c" x="450" y="34" rx="2" ry="2"/><rect class="c" x="450" y="50" rx="2" ry="2"/><rect class="c" x="450" y="66" rx="2" ry="2"/><rect class="c" x="450" y="82" rx="2" ry="2"/><rect class="c" x="450" y="98" rx="2" ry="2"/><rect class="c" x="466" y="2" rx="2" ry="2"/><rect class="c" x="466" y="18" rx="2" ry="2"/><rect class="c" x="466" y="34" rx="2" ry="2"/><rect class="c" x="466" y="50" rx="2" ry="2"/><rect class="c" x="466" y="66" rx="2" ry="2"/><rect class="c" x="466" y="82" rx="2" ry="2"/><rect class="c" x="466" y="98" rx="2" ry="2"/><rect class="c" x="482" y="2" rx="2" ry="2"/><rect class="c" x="482" y="18" rx="2" ry="2"/><rect class="c" x="482" y="34" rx="2" ry="2"/><rect class="c" x="482" y="50" rx="2" ry="2"/><rect class="c" x="482" y="66" rx="2" ry="2"/><rect class="c" x="482" y="82" rx="2" ry="2"/><rect class="c" x="482" y="98" rx="2" ry="2"/><rect class="c" x="498" y="2" rx="2" ry="2"/><rect class="c" x="498" y="18" rx="2" ry="2"/><rect class="c" x="498" y="34" rx="2" ry="2"/><rect class="c" x="498" y="50" rx="2" ry="2"/><rect class="c c1" x="498" y="66" rx="2" ry="2"/><rect class="c c2" x="498" y="82" rx="2" ry="2"/><rect class="c" x="498" y="98" rx="2" ry="2"/><rect class="c" x="514" y="2" rx="2" ry="2"/><rect class="c" x="514" y="18" rx="2" ry="2"/><rect class="c" x="514" y="34" rx="2" ry="2"/><rect class="c" x="514" y="50" rx="2" ry="2"/><rect class="c" x="514" y="66" rx="2" ry="2"/><rect class="c" x="514" y="82" rx="2" ry="2"/><rect class="c c3" x="514" y="98" rx="2" ry="2"/><rect class="c" x="530" y="2" rx="2" ry="2"/><rect class="c c4" x="530" y="18" rx="2" ry="2"/><rect class="c c5" x="530" y="34" rx="2" ry="2"/><rect class="c c6" x="530" y="50" rx="2" ry="2"/><rect class="c c7" x="530" y="66" rx="2" ry="2"/><rect class="c c8" x="530" y="82" rx="2" ry="2"/><rect class="c c9" x="530" y="98" rx="2" ry="2"/><rect class="c ca" x="546" y="2" rx="2" ry="2"/><rect class="c cb" x="546" y="18" rx="2" ry="2"/><rect class="c cc" x="546" y="34" rx="2" ry="2"/><rect class="c cd" x="546" y="50" rx="2" ry="2"/><rect class="c" x="546" y="66" rx="2" ry="2"/><rect class="c" x="546" y="82" rx="2" ry="2"/><rect class="c ce" x="546" y="98" rx="2" ry="2"/><rect class="c cf" x="562" y="2" rx="2" ry="2"/><rect class="c" x="562" y="18" rx="2" ry="2"/><rect class="c" x="562" y="34" rx="2" ry="2"/><rect class="c" x="562" y="50" rx="2" ry="2"/><rect class="c" x="562" y="66" rx="2" ry="2"/><rect class="c cg" x="562" y="82" rx="2" ry="2"/><rect class="c ch" x="562" y="98" rx="2" ry="2"/><rect class="c" x="578" y="2" rx="2" ry="2"/><rect class="c" x="578" y="18" rx="2" ry="2"/><rect class="c ci" x="578" y="34" rx="2" ry="2"/><rect class="c cj" x="578" y="50" rx="2" ry="2"/><rect class="c ck" x="578" y="66" rx="2" ry="2"/><rect class="c cl" x="578" y="82" rx="2" ry="2"/><rect class="c cm" x="578" y="98" rx="2" ry="2"/><rect class="c cn" x="594" y="2" rx="2" ry="2"/><rect class="c co" x="594" y="18" rx="2" ry="2"/><rect class="c cp" x="594" y="34" rx="2" ry="2"/><rect class="c cq" x="594" y="50" rx="2" ry="2"/><rect class="c" x="594" y="66" rx="2" ry="2"/><rect class="c cr" x="594" y="82" rx="2" ry="2"/><rect class="c cs" x="594" y="98" rx="2" ry="2"/><rect class="c" x="610" y="2" rx="2" ry="2"/><rect class="c" x="610" y="18" rx="2" ry="2"/><rect class="c" x="610" y="34" rx="2" ry="2"/><rect class="c ct" x="610" y="50" rx="2" ry="2"/><rect class="c cu" x="610" y="66" rx="2" ry="2"/><rect class="c" x="610" y="82" rx="2" ry="2"/><rect class="c" x="610" y="98" rx="2" ry="2"/><rect class="c" x="626" y="2" rx="2" ry="2"/><rect class="c" x="626" y="18" rx="2" ry="2"/><rect class="c cv" x="626" y="34" rx="2" ry="2"/><rect class="c cw" x="626" y="50" rx="2" ry="2"/><rect class="c cx" x="626" y="66" rx="2" ry="2"/><rect class="c" x="626" y="82" rx="2" ry="2"/><rect class="c" x="626" y="98" rx="2" ry="2"/><rect class="c" x="642" y="2" rx="2" ry="2"/><rect class="c" x="642" y="18" rx="2" ry="2"/><rect class="c" x="642" y="34" rx="2" ry="2"/><rect class="c" x="642" y="50" rx="2" ry="2"/><rect class="c" x="642" y="66" rx="2" ry="2"/><rect class="c" x="642" y="82" rx="2" ry="2"/><rect class="c" x="642" y="98" rx="2" ry="2"/><rect class="c cy" x="658" y="2" rx="2" ry="2"/><rect class="c" x="658" y="18" rx="2" ry="2"/><rect class="c" x="658" y="34" rx="2" ry="2"/><rect class="c cz" x="658" y="50" rx="2" ry="2"/><rect class="c c10" x="658" y="66" rx="2" ry="2"/><rect class="c c11" x="658" y="82" rx="2" ry="2"/><rect class="c" x="658" y="98" rx="2" ry="2"/><rect class="c" x="674" y="2" rx="2" ry="2"/><rect class="c" x="674" y="18" rx="2" ry="2"/><rect class="c" x="674" y="34" rx="2" ry="2"/><rect class="c c12" x="674" y="50" rx="2" ry="2"/><rect class="c" x="674" y="66" rx="2" ry="2"/><rect class="c c13" x="674" y="82" rx="2" ry="2"/><rect class="c" x="674" y="98" rx="2" ry="2"/><rect class="c" x="690" y="2" rx="2" ry="2"/><rect class="c" x="690" y="18" rx="2" ry="2"/><rect class="c c14" x="690" y="34" rx="2" ry="2"/><rect class="c" x="690" y="50" rx="2" ry="2"/><rect class="c c15" x="690" y="66" rx="2" ry="2"/><rect class="c c16" x="690" y="82" rx="2" ry="2"/><rect class="c c17" x="690" y="98" rx="2" ry="2"/><rect class="c c18" x="706" y="2" rx="2" ry="2"/><rect class="c c19" x="706" y="18" rx="2" ry="2"/><rect class="c" x="706" y="34" rx="2" ry="2"/><rect class="c c1a" x="706" y="50" rx="2" ry="2"/><rect class="c c1b" x="706" y="66" rx="2" ry="2"/><rect class="c c1c" x="706" y="82" rx="2" ry="2"/><rect class="c c1d" x="706" y="98" rx="2" ry="2"/><rect class="c c1e" x="722" y="2" rx="2" ry="2"/><rect class="c c1f" x="722" y="18" rx="2" ry="2"/><rect class="c" x="722" y="34" rx="2" ry="2"/><rect class="c c1g" x="722" y="50" rx="2" ry="2"/><rect class="c c1h" x="722" y="66" rx="2" ry="2"/><rect class="c c1i" x="722" y="82" rx="2" ry="2"/><rect class="c c1j" x="722" y="98" rx="2" ry="2"/><rect class="c" x="738" y="2" rx="2" ry="2"/><rect class="c c1k" x="738" y="18" rx="2" ry="2"/><rect class="c" x="738" y="34" rx="2" ry="2"/><rect class="c" x="738" y="50" rx="2" ry="2"/><rect class="c" x="738" y="66" rx="2" ry="2"/><rect class="c c1l" x="738" y="82" rx="2" ry="2"/><rect class="c" x="738" y="98" rx="2" ry="2"/><rect class="c" x="754" y="2" rx="2" ry="2"/><rect class="c c1m" x="754" y="18" rx="2" ry="2"/><rect class="c" x="754" y="34" rx="2" ry="2"/><rect class="c" x="754" y="50" rx="2" ry="2"/><rect class="c" x="754" y="66" rx="2" ry="2"/><rect class="c c1n" x="754" y="82" rx="2" ry="2"/><rect class="c c1o" x="754" y="98" rx="2" ry="2"/><rect class="c c1p" x="770" y="2" rx="2" ry="2"/><rect class="c c1q" x="770" y="18" rx="2" ry="2"/><rect class="c c1r" x="770" y="34" rx="2" ry="2"/><rect class="c" x="770" y="50" rx="2" ry="2"/><rect class="c c1s" x="770" y="66" rx="2" ry="2"/><rect class="c c1t" x="770" y="82" rx="2" ry="2"/><rect class="c c1u" x="770" y="98" rx="2" ry="2"/><rect class="c c1v" x="786" y="2" rx="2" ry="2"/><rect class="c c1w" x="786" y="18" rx="2" ry="2"/><rect class="c c1x" x="786" y="34" rx="2" ry="2"/><rect class="c c1y" x="786" y="50" rx="2" ry="2"/><rect class="c c1z" x="786" y="66" rx="2" ry="2"/><rect class="c" x="786" y="82" rx="2" ry="2"/><rect class="c c20" x="786" y="98" rx="2" ry="2"/><rect class="c c21" x="802" y="2" rx="2" ry="2"/><rect class="c c22" x="802" y="18" rx="2" ry="2"/><rect class="c c23" x="802" y="34" rx="2" ry="2"/><rect class="c c24" x="802" y="50" rx="2" ry="2"/><rect class="c c25" x="802" y="66" rx="2" ry="2"/><rect class="c" x="802" y="82" rx="2" ry="2"/><rect class="c c26" x="802" y="98" rx="2" ry="2"/><rect class="c c27" x="818" y="2" rx="2" ry="2"/><rect class="c c28" x="818" y="18" rx="2" ry="2"/><rect class="c c29" x="818" y="34" rx="2" ry="2"/><rect class="c c2a" x="818" y="50" rx="2" ry="2"/><rect class="c c2b" x="818" y="66" rx="2" ry="2"/><rect class="c c2c" x="818" y="82" rx="2" ry="2"/><rect class="c c2d" x="818" y="98" rx="2" ry="2"/><rect class="c" x="834" y="2" rx="2" ry="2"/><rect class="c" x="834" y="18" rx="2" ry="2"/><rect class="u u0" height="12" width="779.6" x="0.0" y="144"/><rect class="u u1" height="12" width="59.8" x="779.0" y="144"/><rect class="u u2" height="12" width="10.5" x="838.1" y="144"/><rect class="s s0" x="0.8" y="0.8" width="14.4" height="14.4" rx="4.5" ry="4.5"/><rect class="s s1" x="1.8" y="1.8" width="12.3" height="12.3" rx="4.1" ry="4.1"/><rect class="s s2" x="2.6" y="2.6" width="10.8" height="10.8" rx="3.6" ry="3.6"/><rect class="s s3" x="3.0" y="3.0" width="9.9" height="9.9" rx="3.3" ry="3.3"/></svg>