<svg viewBox="-16 -32 880 192" width="880" height="192" xmlns="http://www.w3.org/2000/svg"><desc>Generated with https://github.com/Platane/snk</desc><style>:root{--cb:#1b1f230a;--cs:purple;--ce:#ebedf0;--c0:#ebedf0;--c1:#9be9a8;--c2:#40c463;--c3:#30a14e;--c4:#216e39}.c{shape-rendering:geometricPrecision;fill:var(--ce);stroke-width:1px;stroke:var(--cb);animation:none 25500ms linear infinite;width:12px;height:12px}@keyframes c0{11.36%{fill:var(--c1)}11.38%,100%{fill:var(--ce)}}.c.c0{fill:var(--c1);animation-name:c0}@keyframes c1{69.79%{fill:var(--c1)}69.81%,100%{fill:var(--ce)}}.c.c1{fill:var(--c1);animation-name:c1}@keyframes c2{70.19%{fill:var(--c1)}70.21%,100%{fill:var(--ce)}}.c.c2{fill:var(--c1);animation-name:c2}@keyframes c3{14.5%{fill:var(--c1)}14.52%,100%{fill:var(--ce)}}.c.c3{fill:var(--c1);animation-name:c3}@keyframes c4{67.83%{fill:var(--c1)}67.85%,100%{fill:var(--ce)}}.c.c4{fill:var(--c1);animation-name:c4}@keyframes c5{68.23%{fill:var(--c1)}68.25%,100%{fill:var(--ce)}}.c.c5{fill:var(--c1);animation-name:c5}@keyframes c6{19.21%{fill:var(--c1)}19.23%,100%{fill:var(--ce)}}.c.c6{fill:var(--c1);animation-name:c6}@keyframes c7{18.81%{fill:var(--c1)}18.83%,100%{fill:var(--ce)}}.c.c7{fill:var(--c1);animation-name:c7}@keyframes c8{18.42%{fill:var(--c1)}18.44%,100%{fill:var(--ce)}}.c.c8{fill:var(--c1);animation-name:c8}@keyframes c9{14.89%{fill:var(--c1)}14.91%,100%{fill:var(--ce)}}.c.c9{fill:var(--c1);animation-name:c9}@keyframes ca{20.77%{fill:var(--c1)}20.79%,100%{fill:var(--ce)}}.c.ca{fill:var(--c1);animation-name:ca}@keyframes cb{20.38%{fill:var(--c1)}20.4%,100%{fill:var(--ce)}}.c.cb{fill:var(--c1);animation-name:cb}@keyframes cc{19.99%{fill:var(--c1)}20.01%,100%{fill:var(--ce)}}.c.cc{fill:var(--c1);animation-name:cc}@keyframes cd{19.6%{fill:var(--c1)}19.62%,100%{fill:var(--ce)}}.c.cd{fill:var(--c1);animation-name:cd}@keyframes ce{15.28%{fill:var(--c1)}15.3%,100%{fill:var(--ce)}}.c.ce{fill:var(--c1);animation-name:ce}@keyframes cf{21.17%{fill:var(--c1)}21.19%,100%{fill:var(--ce)}}.c.cf{fill:var(--c1);animation-name:cf}@keyframes cg{17.64%{fill:var(--c1)}17.66%,100%{fill:var(--ce)}}.c.cg{fill:var(--c1);animation-name:cg}@keyframes ch{15.68%{fill:var(--c1)}15.7%,100%{fill:var(--ce)}}.c.ch{fill:var(--c1);animation-name:ch}@keyframes ci{23.13%{fill:var(--c1)}23.15%,100%{fill:var(--ce)}}.c.ci{fill:var(--c1);animation-name:ci}@keyframes cj{23.52%{fill:var(--c1)}23.54%,100%{fill:var(--ce)}}.c.cj{fill:var(--c1);animation-name:cj}@keyframes ck{72.54%{fill:var(--c2)}72.56%,100%{fill:var(--ce)}}.c.ck{fill:var(--c2);animation-name:ck}@keyframes cl{17.24%{fill:var(--c1)}17.26%,100%{fill:var(--ce)}}.c.cl{fill:var(--c1);animation-name:cl}@keyframes cm{16.07%{fill:var(--c1)}16.09%,100%{fill:var(--ce)}}.c.cm{fill:var(--c1);animation-name:cm}@keyframes cn{21.95%{fill:var(--c1)}21.97%,100%{fill:var(--ce)}}.c.cn{fill:var(--c1);animation-name:cn}@keyframes co{22.34%{fill:var(--c1)}22.36%,100%{fill:var(--ce)}}.c.co{fill:var(--c1);animation-name:co}@keyframes cp{22.74%{fill:var(--c1)}22.76%,100%{fill:var(--ce)}}.c.cp{fill:var(--c1);animation-name:cp}@keyframes cq{23.91%{fill:var(--c1)}23.93%,100%{fill:var(--ce)}}.c.cq{fill:var(--c1);animation-name:cq}@keyframes cr{16.85%{fill:var(--c1)}16.87%,100%{fill:var(--ce)}}.c.cr{fill:var(--c1);animation-name:cr}@keyframes cs{16.46%{fill:var(--c1)}16.48%,100%{fill:var(--ce)}}.c.cs{fill:var(--c1);animation-name:cs}@keyframes ct{24.3%{fill:var(--c1)}24.32%,100%{fill:var(--ce)}}.c.ct{fill:var(--c1);animation-name:ct}@keyframes cu{54.5%{fill:var(--c1)}54.52%,100%{fill:var(--ce)}}.c.cu{fill:var(--c1);animation-name:cu}@keyframes cv{25.09%{fill:var(--c1)}25.11%,100%{fill:var(--ce)}}.c.cv{fill:var(--c1);animation-name:cv}@keyframes cw{24.7%{fill:var(--c1)}24.72%,100%{fill:var(--ce)}}.c.cw{fill:var(--c1);animation-name:cw}@keyframes cx{54.11%{fill:var(--c1)}54.13%,100%{fill:var(--ce)}}.c.cx{fill:var(--c1);animation-name:cx}@keyframes cy{64.3%{fill:var(--c1)}64.32%,100%{fill:var(--ce)}}.c.cy{fill:var(--c1);animation-name:cy}@keyframes cz{26.26%{fill:var(--c1)}26.28%,100%{fill:var(--ce)}}.c.cz{fill:var(--c1);animation-name:cz}@keyframes c10{74.5%{fill:var(--c2)}74.52%,100%{fill:var(--ce)}}.c.c10{fill:var(--c2);animation-name:c10}@keyframes c11{52.93%{fill:var(--c1)}52.95%,100%{fill:var(--ce)}}.c.c11{fill:var(--c1);animation-name:c11}@keyframes c12{26.66%{fill:var(--c1)}26.68%,100%{fill:var(--ce)}}.c.c12{fill:var(--c1);animation-name:c12}@keyframes c13{43.13%{fill:var(--c1)}43.15%,100%{fill:var(--ce)}}.c.c13{fill:var(--c1);animation-name:c13}@keyframes c14{57.24%{fill:var(--c1)}57.26%,100%{fill:var(--ce)}}.c.c14{fill:var(--c1);animation-name:c14}@keyframes c15{42.34%{fill:var(--c1)}42.36%,100%{fill:var(--ce)}}.c.c15{fill:var(--c1);animation-name:c15}@keyframes c16{43.52%{fill:var(--c1)}43.54%,100%{fill:var(--ce)}}.c.c16{fill:var(--c1);animation-name:c16}@keyframes c17{51.75%{fill:var(--c1)}51.77%,100%{fill:var(--ce)}}.c.c17{fill:var(--c1);animation-name:c17}@keyframes c18{58.42%{fill:var(--c1)}58.44%,100%{fill:var(--ce)}}.c.c18{fill:var(--c1);animation-name:c18}@keyframes c19{58.03%{fill:var(--c1)}58.05%,100%{fill:var(--ce)}}.c.c19{fill:var(--c1);animation-name:c19}@keyframes c1a{27.44%{fill:var(--c1)}27.46%,100%{fill:var(--ce)}}.c.c1a{fill:var(--c1);animation-name:c1a}@keyframes c1b{41.95%{fill:var(--c1)}41.97%,100%{fill:var(--ce)}}.c.c1b{fill:var(--c1);animation-name:c1b}@keyframes c1c{43.91%{fill:var(--c1)}43.93%,100%{fill:var(--ce)}}.c.c1c{fill:var(--c1);animation-name:c1c}@keyframes c1d{51.36%{fill:var(--c1)}51.38%,100%{fill:var(--ce)}}.c.c1d{fill:var(--c1);animation-name:c1d}@keyframes c1e{58.81%{fill:var(--c1)}58.83%,100%{fill:var(--ce)}}.c.c1e{fill:var(--c1);animation-name:c1e}@keyframes c1f{28.62%{fill:var(--c1)}28.64%,100%{fill:var(--ce)}}.c.c1f{fill:var(--c1);animation-name:c1f}@keyframes c1g{27.83%{fill:var(--c1)}27.85%,100%{fill:var(--ce)}}.c.c1g{fill:var(--c1);animation-name:c1g}@keyframes c1h{41.56%{fill:var(--c1)}41.58%,100%{fill:var(--ce)}}.c.c1h{fill:var(--c1);animation-name:c1h}@keyframes c1i{44.3%{fill:var(--c1)}44.32%,100%{fill:var(--ce)}}.c.c1i{fill:var(--c1);animation-name:c1i}@keyframes c1j{50.97%{fill:var(--c1)}50.99%,100%{fill:var(--ce)}}.c.c1j{fill:var(--c1);animation-name:c1j}@keyframes c1k{29.01%{fill:var(--c1)}29.03%,100%{fill:var(--ce)}}.c.c1k{fill:var(--c1);animation-name:c1k}@keyframes c1l{44.7%{fill:var(--c1)}44.72%,100%{fill:var(--ce)}}.c.c1l{fill:var(--c1);animation-name:c1l}@keyframes c1m{29.4%{fill:var(--c1)}29.42%,100%{fill:var(--ce)}}.c.c1m{fill:var(--c1);animation-name:c1m}@keyframes c1n{45.09%{fill:var(--c1)}45.11%,100%{fill:var(--ce)}}.c.c1n{fill:var(--c1);animation-name:c1n}@keyframes c1o{50.19%{fill:var(--c1)}50.21%,100%{fill:var(--ce)}}.c.c1o{fill:var(--c1);animation-name:c1o}@keyframes c1p{59.99%{fill:var(--c1)}60.01%,100%{fill:var(--ce)}}.c.c1p{fill:var(--c1);animation-name:c1p}@keyframes c1q{79.21%{fill:var(--c2)}79.23%,100%{fill:var(--ce)}}.c.c1q{fill:var(--c2);animation-name:c1q}@keyframes c1r{78.03%{fill:var(--c2)}78.05%,100%{fill:var(--ce)}}.c.c1r{fill:var(--c2);animation-name:c1r}@keyframes c1s{40.38%{fill:var(--c1)}40.4%,100%{fill:var(--ce)}}.c.c1s{fill:var(--c1);animation-name:c1s}@keyframes c1t{45.48%{fill:var(--c1)}45.5%,100%{fill:var(--ce)}}.c.c1t{fill:var(--c1);animation-name:c1t}@keyframes c1u{49.79%{fill:var(--c1)}49.81%,100%{fill:var(--ce)}}.c.c1u{fill:var(--c1);animation-name:c1u}@keyframes c1v{60.38%{fill:var(--c1)}60.4%,100%{fill:var(--ce)}}.c.c1v{fill:var(--c1);animation-name:c1v}@keyframes c1w{78.81%{fill:var(--c2)}78.83%,100%{fill:var(--ce)}}.c.c1w{fill:var(--c2);animation-name:c1w}@keyframes c1x{78.42%{fill:var(--c2)}78.44%,100%{fill:var(--ce)}}.c.c1x{fill:var(--c2);animation-name:c1x}@keyframes c1y{30.97%{fill:var(--c1)}30.99%,100%{fill:var(--ce)}}.c.c1y{fill:var(--c1);animation-name:c1y}@keyframes c1z{39.99%{fill:var(--c1)}40.01%,100%{fill:var(--ce)}}.c.c1z{fill:var(--c1);animation-name:c1z}@keyframes c20{49.4%{fill:var(--c1)}49.42%,100%{fill:var(--ce)}}.c.c20{fill:var(--c1);animation-name:c20}@keyframes c21{80.38%{fill:var(--c4)}80.4%,100%{fill:var(--ce)}}.c.c21{fill:var(--c4);animation-name:c21}@keyframes c22{35.28%{fill:var(--c1)}35.3%,100%{fill:var(--ce)}}.c.c22{fill:var(--c1);animation-name:c22}@keyframes c23{35.68%{fill:var(--c1)}35.7%,100%{fill:var(--ce)}}.c.c23{fill:var(--c1);animation-name:c23}@keyframes c24{31.36%{fill:var(--c1)}31.38%,100%{fill:var(--ce)}}.c.c24{fill:var(--c1);animation-name:c24}@keyframes c25{39.6%{fill:var(--c1)}39.62%,100%{fill:var(--ce)}}.c.c25{fill:var(--c1);animation-name:c25}@keyframes c26{46.66%{fill:var(--c1)}46.68%,100%{fill:var(--ce)}}.c.c26{fill:var(--c1);animation-name:c26}@keyframes c27{34.5%{fill:var(--c1)}34.52%,100%{fill:var(--ce)}}.c.c27{fill:var(--c1);animation-name:c27}@keyframes c28{34.89%{fill:var(--c1)}34.91%,100%{fill:var(--ce)}}.c.c28{fill:var(--c1);animation-name:c28}@keyframes c29{36.07%{fill:var(--c1)}36.09%,100%{fill:var(--ce)}}.c.c29{fill:var(--c1);animation-name:c29}@keyframes c2a{31.75%{fill:var(--c1)}31.77%,100%{fill:var(--ce)}}.c.c2a{fill:var(--c1);animation-name:c2a}@keyframes c2b{39.21%{fill:var(--c1)}39.23%,100%{fill:var(--ce)}}.c.c2b{fill:var(--c1);animation-name:c2b}@keyframes c2c{38.81%{fill:var(--c1)}38.83%,100%{fill:var(--ce)}}.c.c2c{fill:var(--c1);animation-name:c2c}@keyframes c2d{47.05%{fill:var(--c1)}47.07%,100%{fill:var(--ce)}}.c.c2d{fill:var(--c1);animation-name:c2d}@keyframes c2e{34.11%{fill:var(--c1)}34.13%,100%{fill:var(--ce)}}.c.c2e{fill:var(--c1);animation-name:c2e}@keyframes c2f{33.72%{fill:var(--c1)}33.74%,100%{fill:var(--ce)}}.c.c2f{fill:var(--c1);animation-name:c2f}@keyframes c2g{36.46%{fill:var(--c1)}36.48%,100%{fill:var(--ce)}}.c.c2g{fill:var(--c1);animation-name:c2g}@keyframes c2h{32.15%{fill:var(--c1)}32.17%,100%{fill:var(--ce)}}.c.c2h{fill:var(--c1);animation-name:c2h}@keyframes c2i{37.24%{fill:var(--c1)}37.26%,100%{fill:var(--ce)}}.c.c2i{fill:var(--c1);animation-name:c2i}@keyframes c2j{38.42%{fill:var(--c1)}38.44%,100%{fill:var(--ce)}}.c.c2j{fill:var(--c1);animation-name:c2j}@keyframes c2k{47.44%{fill:var(--c1)}47.46%,100%{fill:var(--ce)}}.c.c2k{fill:var(--c1);animation-name:c2k}@keyframes c2l{33.32%{fill:var(--c1)}33.34%,100%{fill:var(--ce)}}.c.c2l{fill:var(--c1);animation-name:c2l}@keyframes c2m{32.93%{fill:var(--c1)}32.95%,100%{fill:var(--ce)}}.c.c2m{fill:var(--c1);animation-name:c2m}@keyframes c2n{32.54%{fill:var(--c1)}32.56%,100%{fill:var(--ce)}}.c.c2n{fill:var(--c1);animation-name:c2n}@keyframes c2o{37.64%{fill:var(--c1)}37.66%,100%{fill:var(--ce)}}.c.c2o{fill:var(--c1);animation-name:c2o}.u{transform-origin:0 0;transform:scale(0,1);animation:none linear 25500ms infinite}@keyframes u0{11.36%{transform:scale(0.000,1)}11.38%,14.5%{transform:scale(0.011,1)}14.52%,14.89%{transform:scale(0.022,1)}14.91%,15.28%{transform:scale(0.033,1)}15.3%,15.68%{transform:scale(0.044,1)}15.7%,16.07%{transform:scale(0.056,1)}16.09%,16.46%{transform:scale(0.067,1)}16.48%,16.85%{transform:scale(0.078,1)}16.87%,17.24%{transform:scale(0.089,1)}17.26%,17.64%{transform:scale(0.100,1)}17.66%,18.42%{transform:scale(0.111,1)}18.44%,18.81%{transform:scale(0.122,1)}18.83%,19.21%{transform:scale(0.133,1)}19.23%,19.6%{transform:scale(0.144,1)}19.62%,19.99%{transform:scale(0.156,1)}20.01%,20.38%{transform:scale(0.167,1)}20.4%,20.77%{transform:scale(0.178,1)}20.79%,21.17%{transform:scale(0.189,1)}21.19%,21.95%{transform:scale(0.200,1)}21.97%,22.34%{transform:scale(0.211,1)}22.36%,22.74%{transform:scale(0.222,1)}22.76%,23.13%{transform:scale(0.233,1)}23.15%,23.52%{transform:scale(0.244,1)}23.54%,23.91%{transform:scale(0.256,1)}23.93%,24.3%{transform:scale(0.267,1)}24.32%,24.7%{transform:scale(0.278,1)}24.72%,25.09%{transform:scale(0.289,1)}25.11%,26.26%{transform:scale(0.300,1)}26.28%,26.66%{transform:scale(0.311,1)}26.68%,27.44%{transform:scale(0.322,1)}27.46%,27.83%{transform:scale(0.333,1)}27.85%,28.62%{transform:scale(0.344,1)}28.64%,29.01%{transform:scale(0.356,1)}29.03%,29.4%{transform:scale(0.367,1)}29.42%,30.97%{transform:scale(0.378,1)}30.99%,31.36%{transform:scale(0.389,1)}31.38%,31.75%{transform:scale(0.400,1)}31.77%,32.15%{transform:scale(0.411,1)}32.17%,32.54%{transform:scale(0.422,1)}32.56%,32.93%{transform:scale(0.433,1)}32.95%,33.32%{transform:scale(0.444,1)}33.34%,33.72%{transform:scale(0.456,1)}33.74%,34.11%{transform:scale(0.467,1)}34.13%,34.5%{transform:scale(0.478,1)}34.52%,34.89%{transform:scale(0.489,1)}34.91%,35.28%{transform:scale(0.500,1)}35.3%,35.68%{transform:scale(0.511,1)}35.7%,36.07%{transform:scale(0.522,1)}36.09%,36.46%{transform:scale(0.533,1)}36.48%,37.24%{transform:scale(0.544,1)}37.26%,37.64%{transform:scale(0.556,1)}37.66%,38.42%{transform:scale(0.567,1)}38.44%,38.81%{transform:scale(0.578,1)}38.83%,39.21%{transform:scale(0.589,1)}39.23%,39.6%{transform:scale(0.600,1)}39.62%,39.99%{transform:scale(0.611,1)}40.01%,40.38%{transform:scale(0.622,1)}40.4%,41.56%{transform:scale(0.633,1)}41.58%,41.95%{transform:scale(0.644,1)}41.97%,42.34%{transform:scale(0.656,1)}42.36%,43.13%{transform:scale(0.667,1)}43.15%,43.52%{transform:scale(0.678,1)}43.54%,43.91%{transform:scale(0.689,1)}43.93%,44.3%{transform:scale(0.700,1)}44.32%,44.7%{transform:scale(0.711,1)}44.72%,45.09%{transform:scale(0.722,1)}45.11%,45.48%{transform:scale(0.733,1)}45.5%,46.66%{transform:scale(0.744,1)}46.68%,47.05%{transform:scale(0.756,1)}47.07%,47.44%{transform:scale(0.767,1)}47.46%,49.4%{transform:scale(0.778,1)}49.42%,49.79%{transform:scale(0.789,1)}49.81%,50.19%{transform:scale(0.800,1)}50.21%,50.97%{transform:scale(0.811,1)}50.99%,51.36%{transform:scale(0.822,1)}51.38%,51.75%{transform:scale(0.833,1)}51.77%,52.93%{transform:scale(0.844,1)}52.95%,54.11%{transform:scale(0.856,1)}54.13%,54.5%{transform:scale(0.867,1)}54.52%,57.24%{transform:scale(0.878,1)}57.26%,58.03%{transform:scale(0.889,1)}58.05%,58.42%{transform:scale(0.900,1)}58.44%,58.81%{transform:scale(0.911,1)}58.83%,59.99%{transform:scale(0.922,1)}60.01%,60.38%{transform:scale(0.933,1)}60.4%,64.3%{transform:scale(0.944,1)}64.32%,67.83%{transform:scale(0.956,1)}67.85%,68.23%{transform:scale(0.967,1)}68.25%,69.79%{transform:scale(0.978,1)}69.81%,70.19%{transform:scale(0.989,1)}70.21%,100%{transform:scale(1.000,1)}}.u.u0{fill:var(--c1);animation-name:u0;transform-origin:0.0px 0}@keyframes u1{72.54%{transform:scale(0.000,1)}72.56%,74.5%{transform:scale(0.167,1)}74.52%,78.03%{transform:scale(0.333,1)}78.05%,78.42%{transform:scale(0.500,1)}78.44%,78.81%{transform:scale(0.667,1)}78.83%,79.21%{transform:scale(0.833,1)}79.23%,100%{transform:scale(1.000,1)}}.u.u1{fill:var(--c2);animation-name:u1;transform-origin:786.8px 0}@keyframes u2{80.38%{transform:scale(0.000,1)}80.4%,100%{transform:scale(1.000,1)}}.u.u2{fill:var(--c4);animation-name:u2;transform-origin:839.3px 0}.s{shape-rendering:geometricPrecision;fill:var(--cs);animation:none linear 25500ms infinite}@keyframes s0{0%,99.61%{transform:translate(0px,-16px)}0.39%{transform:translate(0px,0px)}9.02%{transform:translate(352px,0px)}11.37%{transform:translate(352px,96px)}16.47%{transform:translate(560px,96px)}16.86%{transform:translate(560px,80px)}18.43%{transform:translate(496px,80px)}19.22%{transform:translate(496px,48px)}19.61%{transform:translate(512px,48px)}20.78%{transform:translate(512px,0px)}21.96%{transform:translate(560px,0px)}22.75%{transform:translate(560px,32px)}23.14%{transform:translate(544px,32px)}23.53%{transform:translate(544px,48px)}24.71%{transform:translate(592px,48px)}25.1%{transform:translate(592px,32px)}25.88%{transform:translate(624px,32px)}26.27%{transform:translate(624px,48px)}27.84%{transform:translate(688px,48px)}28.63%{transform:translate(688px,16px)}29.41%{transform:translate(720px,16px)}30.2%{transform:translate(720px,48px)}32.55%{transform:translate(816px,48px)}33.33%{transform:translate(816px,16px)}33.73%{transform:translate(800px,16px)}34.12%{transform:translate(800px,0px)}34.51%{transform:translate(784px,0px)}34.9%{transform:translate(784px,16px)}35.29%{transform:translate(768px,16px)}35.69%{transform:translate(768px,32px)}36.47%{transform:translate(800px,32px)}37.25%{transform:translate(800px,64px)}37.65%{transform:translate(816px,64px)}38.04%{transform:translate(816px,80px)}38.82%{transform:translate(784px,80px)}39.22%{transform:translate(784px,64px)}42.75%{transform:translate(640px,64px)}43.14%{transform:translate(640px,80px)}46.27%{transform:translate(768px,80px)}46.67%{transform:translate(768px,96px)}47.45%{transform:translate(800px,96px)}47.84%{transform:translate(800px,80px)}49.02%{transform:translate(752px,80px)}49.41%{transform:translate(752px,96px)}51.76%{transform:translate(656px,96px)}52.16%{transform:translate(656px,80px)}53.33%{transform:translate(608px,80px)}53.73%{transform:translate(608px,64px)}54.51%{transform:translate(576px,64px)}54.9%{transform:translate(576px,48px)}56.86%{transform:translate(656px,48px)}57.25%{transform:translate(656px,32px)}57.65%{transform:translate(672px,32px)}58.43%{transform:translate(672px,0px)}60.39%{transform:translate(752px,0px)}60.78%{transform:translate(752px,-16px)}63.92%{transform:translate(624px,-16px)}64.31%{transform:translate(624px,0px)}67.45%{transform:translate(496px,0px)}68.24%{transform:translate(496px,32px)}69.02%{transform:translate(464px,32px)}70.2%{transform:translate(464px,80px)}72.16%{transform:translate(544px,80px)}72.55%{transform:translate(544px,64px)}77.25%{transform:translate(736px,64px)}78.04%{transform:translate(736px,32px)}78.43%{transform:translate(752px,32px)}78.82%{transform:translate(752px,16px)}79.22%{transform:translate(736px,16px)}79.61%{transform:translate(736px,0px)}80.39%{transform:translate(768px,0px)}80.78%{transform:translate(768px,-16px)}}.s.s0{transform:translate(0px,-16px);animation-name:s0}@keyframes s1{0%,99.61%{transform:translate(16px,-16px)}0.39%{transform:translate(0px,-16px)}0.78%{transform:translate(0px,0px)}9.41%{transform:translate(352px,0px)}11.76%{transform:translate(352px,96px)}16.86%{transform:translate(560px,96px)}17.25%{transform:translate(560px,80px)}18.82%{transform:translate(496px,80px)}19.61%{transform:translate(496px,48px)}20%{transform:translate(512px,48px)}21.18%{transform:translate(512px,0px)}22.35%{transform:translate(560px,0px)}23.14%{transform:translate(560px,32px)}23.53%{transform:translate(544px,32px)}23.92%{transform:translate(544px,48px)}25.1%{transform:translate(592px,48px)}25.49%{transform:translate(592px,32px)}26.27%{transform:translate(624px,32px)}26.67%{transform:translate(624px,48px)}28.24%{transform:translate(688px,48px)}29.02%{transform:translate(688px,16px)}29.8%{transform:translate(720px,16px)}30.59%{transform:translate(720px,48px)}32.94%{transform:translate(816px,48px)}33.73%{transform:translate(816px,16px)}34.12%{transform:translate(800px,16px)}34.51%{transform:translate(800px,0px)}34.9%{transform:translate(784px,0px)}35.29%{transform:translate(784px,16px)}35.69%{transform:translate(768px,16px)}36.08%{transform:translate(768px,32px)}36.86%{transform:translate(800px,32px)}37.65%{transform:translate(800px,64px)}38.04%{transform:translate(816px,64px)}38.43%{transform:translate(816px,80px)}39.22%{transform:translate(784px,80px)}39.61%{transform:translate(784px,64px)}43.14%{transform:translate(640px,64px)}43.53%{transform:translate(640px,80px)}46.67%{transform:translate(768px,80px)}47.06%{transform:translate(768px,96px)}47.84%{transform:translate(800px,96px)}48.24%{transform:translate(800px,80px)}49.41%{transform:translate(752px,80px)}49.8%{transform:translate(752px,96px)}52.16%{transform:translate(656px,96px)}52.55%{transform:translate(656px,80px)}53.73%{transform:translate(608px,80px)}54.12%{transform:translate(608px,64px)}54.9%{transform:translate(576px,64px)}55.29%{transform:translate(576px,48px)}57.25%{transform:translate(656px,48px)}57.65%{transform:translate(656px,32px)}58.04%{transform:translate(672px,32px)}58.82%{transform:translate(672px,0px)}60.78%{transform:translate(752px,0px)}61.18%{transform:translate(752px,-16px)}64.31%{transform:translate(624px,-16px)}64.71%{transform:translate(624px,0px)}67.84%{transform:translate(496px,0px)}68.63%{transform:translate(496px,32px)}69.41%{transform:translate(464px,32px)}70.59%{transform:translate(464px,80px)}72.55%{transform:translate(544px,80px)}72.94%{transform:translate(544px,64px)}77.65%{transform:translate(736px,64px)}78.43%{transform:translate(736px,32px)}78.82%{transform:translate(752px,32px)}79.22%{transform:translate(752px,16px)}79.61%{transform:translate(736px,16px)}80%{transform:translate(736px,0px)}80.78%{transform:translate(768px,0px)}81.18%{transform:translate(768px,-16px)}}.s.s1{transform:translate(16px,-16px);animation-name:s1}@keyframes s2{0%,99.61%{transform:translate(32px,-16px)}0.78%{transform:translate(0px,-16px)}1.18%{transform:translate(0px,0px)}9.8%{transform:translate(352px,0px)}12.16%{transform:translate(352px,96px)}17.25%{transform:translate(560px,96px)}17.65%{transform:translate(560px,80px)}19.22%{transform:translate(496px,80px)}20%{transform:translate(496px,48px)}20.39%{transform:translate(512px,48px)}21.57%{transform:translate(512px,0px)}22.75%{transform:translate(560px,0px)}23.53%{transform:translate(560px,32px)}23.92%{transform:translate(544px,32px)}24.31%{transform:translate(544px,48px)}25.49%{transform:translate(592px,48px)}25.88%{transform:translate(592px,32px)}26.67%{transform:translate(624px,32px)}27.06%{transform:translate(624px,48px)}28.63%{transform:translate(688px,48px)}29.41%{transform:translate(688px,16px)}30.2%{transform:translate(720px,16px)}30.98%{transform:translate(720px,48px)}33.33%{transform:translate(816px,48px)}34.12%{transform:translate(816px,16px)}34.51%{transform:translate(800px,16px)}34.9%{transform:translate(800px,0px)}35.29%{transform:translate(784px,0px)}35.69%{transform:translate(784px,16px)}36.08%{transform:translate(768px,16px)}36.47%{transform:translate(768px,32px)}37.25%{transform:translate(800px,32px)}38.04%{transform:translate(800px,64px)}38.43%{transform:translate(816px,64px)}38.82%{transform:translate(816px,80px)}39.61%{transform:translate(784px,80px)}40%{transform:translate(784px,64px)}43.53%{transform:translate(640px,64px)}43.92%{transform:translate(640px,80px)}47.06%{transform:translate(768px,80px)}47.45%{transform:translate(768px,96px)}48.24%{transform:translate(800px,96px)}48.63%{transform:translate(800px,80px)}49.8%{transform:translate(752px,80px)}50.2%{transform:translate(752px,96px)}52.55%{transform:translate(656px,96px)}52.94%{transform:translate(656px,80px)}54.12%{transform:translate(608px,80px)}54.51%{transform:translate(608px,64px)}55.29%{transform:translate(576px,64px)}55.69%{transform:translate(576px,48px)}57.65%{transform:translate(656px,48px)}58.04%{transform:translate(656px,32px)}58.43%{transform:translate(672px,32px)}59.22%{transform:translate(672px,0px)}61.18%{transform:translate(752px,0px)}61.57%{transform:translate(752px,-16px)}64.71%{transform:translate(624px,-16px)}65.1%{transform:translate(624px,0px)}68.24%{transform:translate(496px,0px)}69.02%{transform:translate(496px,32px)}69.8%{transform:translate(464px,32px)}70.98%{transform:translate(464px,80px)}72.94%{transform:translate(544px,80px)}73.33%{transform:translate(544px,64px)}78.04%{transform:translate(736px,64px)}78.82%{transform:translate(736px,32px)}79.22%{transform:translate(752px,32px)}79.61%{transform:translate(752px,16px)}80%{transform:translate(736px,16px)}80.39%{transform:translate(736px,0px)}81.18%{transform:translate(768px,0px)}81.57%{transform:translate(768px,-16px)}}.s.s2{transform:translate(32px,-16px);animation-name:s2}@keyframes s3{0%,99.61%{transform:translate(48px,-16px)}1.18%{transform:translate(0px,-16px)}1.57%{transform:translate(0px,0px)}10.2%{transform:translate(352px,0px)}12.55%{transform:translate(352px,96px)}17.65%{transform:translate(560px,96px)}18.04%{transform:translate(560px,80px)}19.61%{transform:translate(496px,80px)}20.39%{transform:translate(496px,48px)}20.78%{transform:translate(512px,48px)}21.96%{transform:translate(512px,0px)}23.14%{transform:translate(560px,0px)}23.92%{transform:translate(560px,32px)}24.31%{transform:translate(544px,32px)}24.71%{transform:translate(544px,48px)}25.88%{transform:translate(592px,48px)}26.27%{transform:translate(592px,32px)}27.06%{transform:translate(624px,32px)}27.45%{transform:translate(624px,48px)}29.02%{transform:translate(688px,48px)}29.8%{transform:translate(688px,16px)}30.59%{transform:translate(720px,16px)}31.37%{transform:translate(720px,48px)}33.73%{transform:translate(816px,48px)}34.51%{transform:translate(816px,16px)}34.9%{transform:translate(800px,16px)}35.29%{transform:translate(800px,0px)}35.69%{transform:translate(784px,0px)}36.08%{transform:translate(784px,16px)}36.47%{transform:translate(768px,16px)}36.86%{transform:translate(768px,32px)}37.65%{transform:translate(800px,32px)}38.43%{transform:translate(800px,64px)}38.82%{transform:translate(816px,64px)}39.22%{transform:translate(816px,80px)}40%{transform:translate(784px,80px)}40.39%{transform:translate(784px,64px)}43.92%{transform:translate(640px,64px)}44.31%{transform:translate(640px,80px)}47.45%{transform:translate(768px,80px)}47.84%{transform:translate(768px,96px)}48.63%{transform:translate(800px,96px)}49.02%{transform:translate(800px,80px)}50.2%{transform:translate(752px,80px)}50.59%{transform:translate(752px,96px)}52.94%{transform:translate(656px,96px)}53.33%{transform:translate(656px,80px)}54.51%{transform:translate(608px,80px)}54.9%{transform:translate(608px,64px)}55.69%{transform:translate(576px,64px)}56.08%{transform:translate(576px,48px)}58.04%{transform:translate(656px,48px)}58.43%{transform:translate(656px,32px)}58.82%{transform:translate(672px,32px)}59.61%{transform:translate(672px,0px)}61.57%{transform:translate(752px,0px)}61.96%{transform:translate(752px,-16px)}65.1%{transform:translate(624px,-16px)}65.49%{transform:translate(624px,0px)}68.63%{transform:translate(496px,0px)}69.41%{transform:translate(496px,32px)}70.2%{transform:translate(464px,32px)}71.37%{transform:translate(464px,80px)}73.33%{transform:translate(544px,80px)}73.73%{transform:translate(544px,64px)}78.43%{transform:translate(736px,64px)}79.22%{transform:translate(736px,32px)}79.61%{transform:translate(752px,32px)}80%{transform:translate(752px,16px)}80.39%{transform:translate(736px,16px)}80.78%{transform:translate(736px,0px)}81.57%{transform:translate(768px,0px)}81.96%{transform:translate(768px,-16px)}}.s.s3{transform:translate(48px,-16px);animation-name:s3}</style><rect class="c" x="2" y="2" rx="2" ry="2"/><rect class="c" x="2" y="18" rx="2" ry="2"/><rect class="c" x="2" y="34" rx="2" ry="2"/><rect class="c" x="2" y="50" rx="2" ry="2"/><rect class="c" x="2" y="66" rx="2" ry="2"/><rect class="c" x="2" y="82" rx="2" ry="2"/><rect class="c" x="2" y="98" rx="2" ry="2"/><rect class="c" x="18" y="2" rx="2" ry="2"/><rect class="c" x="18" y="18" rx="2" ry="2"/><rect class="c" x="18" y="34" rx="2" ry="2"/><rect class="c" x="18" y="50" rx="2" ry="2"/><rect class="c" x="18" y="66" rx="2" ry="2"/><rect class="c" x="18" y="82" rx="2" ry="2"/><rect class="c" x="18" y="98" rx="2" ry="2"/><rect class="c" x="34" y="2" rx="2" ry="2"/><rect class="c" x="34" y="18" rx="2" ry="2"/><rect class="c" x="34" y="34" rx="2" ry="2"/><rect class="c" x="34" y="50" rx="2" ry="2"/><rect class="c" x="34" y="66" rx="2" ry="2"/><rect class="c" x="34" y="82" rx="2" ry="2"/><rect class="c" x="34" y="98" rx="2" ry="2"/><rect class="c" x="50" y="2" rx="2" ry="2"/><rect class="c" x="50" y="18" rx="2" ry="2"/><rect class="c" x="50" y="34" rx="2" ry="2"/><rect class="c" x="50" y="50" rx="2" ry="2"/><rect class="c" x="50" y="66" rx="2" ry="2"/><rect class="c" x="50" y="82" rx="2" ry="2"/><rect class="c" x="50" y="98" rx="2" ry="2"/><rect class="c" x="66" y="2" rx="2" ry="2"/><rect class="c" x="66" y="18" rx="2" ry="2"/><rect class="c" x="66" y="34" rx="2" ry="2"/><rect class="c" x="66" y="50" rx="2" ry="2"/><rect class="c" x="66" y="66" rx="2" ry="2"/><rect class="c" x="66" y="82" rx="2" ry="2"/><rect class="c" x="66" y="98" rx="2" ry="2"/><rect class="c" x="82" y="2" rx="2" ry="2"/><rect class="c" x="82" y="18" rx="2" ry="2"/><rect class="c" x="82" y="34" rx="2" ry="2"/><rect class="c" x="82" y="50" rx="2" ry="2"/><rect class="c" x="82" y="66" rx="2" ry="2"/><rect class="c" x="82" y="82" rx="2" ry="2"/><rect class="c" x="82" y="98" rx="2" ry="2"/><rect class="c" x="98" y="2" rx="2" ry="2"/><rect class="c" x="98" y="18" rx="2" ry="2"/><rect class="c" x="98" y="34" rx="2" ry="2"/><rect class="c" x="98" y="50" rx="2" ry="2"/><rect class="c" x="98" y="66" rx="2" ry="2"/><rect class="c" x="98" y="82" rx="2" ry="2"/><rect class="c" x="98" y="98" rx="2" ry="2"/><rect class="c" x="114" y="2" rx="2" ry="2"/><rect class="c" x="114" y="18" rx="2" ry="2"/><rect class="c" x="114" y="34" rx="2" ry="2"/><rect class="c" x="114" y="50" rx="2" ry="2"/><rect class="c" x="114" y="66" rx="2" ry="2"/><rect class="c" x="114" y="82" rx="2" ry="2"/><rect class="c" x="114" y="98" rx="2" ry="2"/><rect class="c" x="130" y="2" rx="2" ry="2"/><rect class="c" x="130" y="18" rx="2" ry="2"/><rect class="c" x="130" y="34" rx="2" ry="2"/><rect class="c" x="130" y="50" rx="2" ry="2"/><rect class="c" x="130" y="66" rx="2" ry="2"/><rect class="c" x="130" y="82" rx="2" ry="2"/><rect class="c" x="130" y="98" rx="2" ry="2"/><rect class="c" x="146" y="2" rx="2" ry="2"/><rect class="c" x="146" y="18" rx="2" ry="2"/><rect class="c" x="146" y="34" rx="2" ry="2"/><rect class="c" x="146" y="50" rx="2" ry="2"/><rect class="c" x="146" y="66" rx="2" ry="2"/><rect class="c" x="146" y="82" rx="2" ry="2"/><rect class="c" x="146" y="98" rx="2" ry="2"/><rect class="c" x="162" y="2" rx="2" ry="2"/><rect class="c" x="162" y="18" rx="2" ry="2"/><rect class="c" x="162" y="34" rx="2" ry="2"/><rect class="c" x="162" y="50" rx="2" ry="2"/><rect class="c" x="162" y="66" rx="2" ry="2"/><rect class="c" x="162" y="82" rx="2" ry="2"/><rect class="c" x="162" y="98" rx="2" ry="2"/><rect class="c" x="178" y="2" rx="2" ry="2"/><rect class="c" x="178" y="18" rx="2" ry="2"/><rect class="c" x="178" y="34" rx="2" ry="2"/><rect class="c" x="178" y="50" rx="2" ry="2"/><rect class="c" x="178" y="66" rx="2" ry="2"/><rect class="c" x="178" y="82" rx="2" ry="2"/><rect class="c" x="178" y="98" rx="2" ry="2"/><rect class="c" x="194" y="2" rx="2" ry="2"/><rect class="c" x="194" y="18" rx="2" ry="2"/><rect class="c" x="194" y="34" rx="2" ry="2"/><rect class="c" x="194" y="50" rx="2" ry="2"/><rect class="c" x="194" y="66" rx="2" ry="2"/><rect class="c" x="194" y="82" rx="2" ry="2"/><rect class="c" x="194" y="98" rx="2" ry="2"/><rect class="c" x="210" y="2" rx="2" ry="2"/><rect class="c" x="210" y="18" rx="2" ry="2"/><rect class="c" x="210" y="34" rx="2" ry="2"/><rect class="c" x="210" y="50" rx="2" ry="2"/><rect class="c" x="210" y="66" rx="2" ry="2"/><rect class="c" x="210" y="82" rx="2" ry="2"/><rect class="c" x="210" y="98" rx="2" ry="2"/><rect class="c" x="226" y="2" rx="2" ry="2"/><rect class="c" x="226" y="18" rx="2" ry="2"/><rect class="c" x="226" y="34" rx="2" ry="2"/><rect class="c" x="226" y="50" rx="2" ry="2"/><rect class="c" x="226" y="66" rx="2" ry="2"/><rect class="c" x="226" y="82" rx="2" ry="2"/><rect class="c" x="226" y="98" rx="2" ry="2"/><rect class="c" x="242" y="2" rx="2" ry="2"/><rect class="c" x="242" y="18" rx="2" ry="2"/><rect class="c" x="242" y="34" rx="2" ry="2"/><rect class="c" x="242" y="50" rx="2" ry="2"/><rect class="c" x="242" y="66" rx="2" ry="2"/><rect class="c" x="242" y="82" rx="2" ry="2"/><rect class="c" x="242" y="98" rx="2" ry="2"/><rect class="c" x="258" y="2" rx="2" ry="2"/><rect class="c" x="258" y="18" rx="2" ry="2"/><rect class="c" x="258" y="34" rx="2" ry="2"/><rect class="c" x="258" y="50" rx="2" ry="2"/><rect class="c" x="258" y="66" rx="2" ry="2"/><rect class="c" x="258" y="82" rx="2" ry="2"/><rect class="c" x="258" y="98" rx="2" ry="2"/><rect class="c" x="274" y="2" rx="2" ry="2"/><rect class="c" x="274" y="18" rx="2" ry="2"/><rect class="c" x="274" y="34" rx="2" ry="2"/><rect class="c" x="274" y="50" rx="2" ry="2"/><rect class="c" x="274" y="66" rx="2" ry="2"/><rect class="c" x="274" y="82" rx="2" ry="2"/><rect class="c" x="274" y="98" rx="2" ry="2"/><rect class="c" x="290" y="2" rx="2" ry="2"/><rect class="c" x="290" y="18" rx="2" ry="2"/><rect class="c" x="290" y="34" rx="2" ry="2"/><rect class="c" x="290" y="50" rx="2" ry="2"/><rect class="c" x="290" y="66" rx="2" ry="2"/><rect class="c" x="290" y="82" rx="2" ry="2"/><rect class="c" x="290" y="98" rx="2" ry="2"/><rect class="c" x="306" y="2" rx="2" ry="2"/><rect class="c" x="306" y="18" rx="2" ry="2"/><rect class="c" x="306" y="34" rx="2" ry="2"/><rect class="c" x="306" y="50" rx="2" ry="2"/><rect class="c" x="306" y="66" rx="2" ry="2"/><rect class="c" x="306" y="82" rx="2" ry="2"/><rect class="c" x="306" y="98" rx="2" ry="2"/><rect class="c" x="322" y="2" rx="2" ry="2"/><rect class="c" x="322" y="18" rx="2" ry="2"/><rect class="c" x="322" y="34" rx="2" ry="2"/><rect class="c" x="322" y="50" rx="2" ry="2"/><rect class="c" x="322" y="66" rx="2" ry="2"/><rect class="c" x="322" y="82" rx="2" ry="2"/><rect class="c" x="322" y="98" rx="2" ry="2"/><rect class="c" x="338" y="2" rx="2" ry="2"/><rect class="c" x="338" y="18" rx="2" ry="2"/><rect class="c" x="338" y="34" rx="2" ry="2"/><rect class="c" x="338" y="50" rx="2" ry="2"/><rect class="c" x="338" y="66" rx="2" ry="2"/><rect class="c" x="338" y="82" rx="2" ry="2"/><rect class="c" x="338" y="98" rx="2" ry="2"/><rect class="c" x="354" y="2" rx="2" ry="2"/><rect class="c" x="354" y="18" rx="2" ry="2"/><rect class="c" x="354" y="34" rx="2" ry="2"/><rect class="c" x="354" y="50" rx="2" ry="2"/><rect class="c" x="354" y="66" rx="2" ry="2"/><rect class="c" x="354" y="82" rx="2" ry="2"/><rect class="c c0" x="354" y="98" rx="2" ry="2"/><rect class="c" x="370" y="2" rx="2" ry="2"/><rect class="c" x="370" y="18" rx="2" ry="2"/><rect class="c" x="370" y="34" rx="2" ry="2"/><rect class="c" x="370" y="50" rx="2" ry="2"/><rect class="c" x="370" y="66" rx="2" ry="2"/><rect class="c" x="370" y="82" rx="2" ry="2"/><rect class="c" x="370" y="98" rx="2" ry="2"/><rect class="c" x="386" y="2" rx="2" ry="2"/><rect class="c" x="386" y="18" rx="2" ry="2"/><rect class="c" x="386" y="34" rx="2" ry="2"/><rect class="c" x="386" y="50" rx="2" ry="2"/><rect class="c" x="386" y="66" rx="2" ry="2"/><rect class="c" x="386" y="82" rx="2" ry="2"/><rect class="c" x="386" y="98" rx="2" ry="2"/><rect class="c" x="402" y="2" rx="2" ry="2"/><rect class="c" x="402" y="18" rx="2" ry="2"/><rect class="c" x="402" y="34" rx="2" ry="2"/><rect class="c" x="402" y="50" rx="2" ry="2"/><rect class="c" x="402" y="66" rx="2" ry="2"/><rect class="c" x="402" y="82" rx="2" ry="2"/><rect class="c" x="402" y="98" rx="2" ry="2"/><rect class="c" x="418" y="2" rx="2" ry="2"/><rect class="c" x="418" y="18" rx="2" ry="2"/><rect class="c" x="418" y="34" rx="2" ry="2"/><rect class="c" x="418" y="50" rx="2" ry="2"/><rect class="c" x="418" y="66" rx="2" ry="2"/><rect class="c" x="418" y="82" rx="2" ry="2"/><rect class="c" x="418" y="98" rx="2" ry="2"/><rect class="c" x="434" y="2" rx="2" ry="2"/><rect class="c" x="434" y="18" rx="2" ry="2"/><rect class="c" x="434" y="34" rx="2" ry="2"/><rect class="c" x="434" y="50" rx="2" ry="2"/><rect class="c" x="434" y="66" rx="2" ry="2"/><rect class="c" x="434" y="82" rx="2" ry="2"/><rect class="c" x="434" y="98" rx="2" ry="2"/><rect class="c" x="450" y="2" rx="2" ry="2"/><rect class="c" x="450" y="18" rx="2" ry="2"/><rect class="c" x="450" y="34" rx="2" ry="2"/><rect class="c" x="450" y="50" rx="2" ry="2"/><rect class="c" x="450" y="66" rx="2" ry="2"/><rect class="c" x="450" y="82" rx="2" ry="2"/><rect class="c" x="450" y="98" rx="2" ry="2"/><rect class="c" x="466" y="2" rx="2" ry="2"/><rect class="c" x="466" y="18" rx="2" ry="2"/><rect class="c" x="466" y="34" rx="2" ry="2"/><rect class="c" x="466" y="50" rx="2" ry="2"/><rect class="c c1" x="466" y="66" rx="2" ry="2"/><rect class="c c2" x="466" y="82" rx="2" ry="2"/><rect class="c" x="466" y="98" rx="2" ry="2"/><rect class="c" x="482" y="2" rx="2" ry="2"/><rect class="c" x="482" y="18" rx="2" ry="2"/><rect class="c" x="482" y="34" rx="2" ry="2"/><rect class="c" x="482" y="50" rx="2" ry="2"/><rect class="c" x="482" y="66" rx="2" ry="2"/><rect class="c" x="482" y="82" rx="2" ry="2"/><rect class="c c3" x="482" y="98" rx="2" ry="2"/><rect class="c" x="498" y="2" rx="2" ry="2"/><rect class="c c4" x="498" y="18" rx="2" ry="2"/><rect class="c c5" x="498" y="34" rx="2" ry="2"/><rect class="c c6" x="498" y="50" rx="2" ry="2"/><rect class="c c7" x="498" y="66" rx="2" ry="2"/><rect class="c c8" x="498" y="82" rx="2" ry="2"/><rect class="c c9" x="498" y="98" rx="2" ry="2"/><rect class="c ca" x="514" y="2" rx="2" ry="2"/><rect class="c cb" x="514" y="18" rx="2" ry="2"/><rect class="c cc" x="514" y="34" rx="2" ry="2"/><rect class="c cd" x="514" y="50" rx="2" ry="2"/><rect class="c" x="514" y="66" rx="2" ry="2"/><rect class="c" x="514" y="82" rx="2" ry="2"/><rect class="c ce" x="514" y="98" rx="2" ry="2"/><rect class="c cf" x="530" y="2" rx="2" ry="2"/><rect class="c" x="530" y="18" rx="2" ry="2"/><rect class="c" x="530" y="34" rx="2" ry="2"/><rect class="c" x="530" y="50" rx="2" ry="2"/><rect class="c" x="530" y="66" rx="2" ry="2"/><rect class="c cg" x="530" y="82" rx="2" ry="2"/><rect class="c ch" x="530" y="98" rx="2" ry="2"/><rect class="c" x="546" y="2" rx="2" ry="2"/><rect class="c" x="546" y="18" rx="2" ry="2"/><rect class="c ci" x="546" y="34" rx="2" ry="2"/><rect class="c cj" x="546" y="50" rx="2" ry="2"/><rect class="c ck" x="546" y="66" rx="2" ry="2"/><rect class="c cl" x="546" y="82" rx="2" ry="2"/><rect class="c cm" x="546" y="98" rx="2" ry="2"/><rect class="c cn" x="562" y="2" rx="2" ry="2"/><rect class="c co" x="562" y="18" rx="2" ry="2"/><rect class="c cp" x="562" y="34" rx="2" ry="2"/><rect class="c cq" x="562" y="50" rx="2" ry="2"/><rect class="c" x="562" y="66" rx="2" ry="2"/><rect class="c cr" x="562" y="82" rx="2" ry="2"/><rect class="c cs" x="562" y="98" rx="2" ry="2"/><rect class="c" x="578" y="2" rx="2" ry="2"/><rect class="c" x="578" y="18" rx="2" ry="2"/><rect class="c" x="578" y="34" rx="2" ry="2"/><rect class="c ct" x="578" y="50" rx="2" ry="2"/><rect class="c cu" x="578" y="66" rx="2" ry="2"/><rect class="c" x="578" y="82" rx="2" ry="2"/><rect class="c" x="578" y="98" rx="2" ry="2"/><rect class="c" x="594" y="2" rx="2" ry="2"/><rect class="c" x="594" y="18" rx="2" ry="2"/><rect class="c cv" x="594" y="34" rx="2" ry="2"/><rect class="c cw" x="594" y="50" rx="2" ry="2"/><rect class="c cx" x="594" y="66" rx="2" ry="2"/><rect class="c" x="594" y="82" rx="2" ry="2"/><rect class="c" x="594" y="98" rx="2" ry="2"/><rect class="c" x="610" y="2" rx="2" ry="2"/><rect class="c" x="610" y="18" rx="2" ry="2"/><rect class="c" x="610" y="34" rx="2" ry="2"/><rect class="c" x="610" y="50" rx="2" ry="2"/><rect class="c" x="610" y="66" rx="2" ry="2"/><rect class="c" x="610" y="82" rx="2" ry="2"/><rect class="c" x="610" y="98" rx="2" ry="2"/><rect class="c cy" x="626" y="2" rx="2" ry="2"/><rect class="c" x="626" y="18" rx="2" ry="2"/><rect class="c" x="626" y="34" rx="2" ry="2"/><rect class="c cz" x="626" y="50" rx="2" ry="2"/><rect class="c c10" x="626" y="66" rx="2" ry="2"/><rect class="c c11" x="626" y="82" rx="2" ry="2"/><rect class="c" x="626" y="98" rx="2" ry="2"/><rect class="c" x="642" y="2" rx="2" ry="2"/><rect class="c" x="642" y="18" rx="2" ry="2"/><rect class="c" x="642" y="34" rx="2" ry="2"/><rect class="c c12" x="642" y="50" rx="2" ry="2"/><rect class="c" x="642" y="66" rx="2" ry="2"/><rect class="c c13" x="642" y="82" rx="2" ry="2"/><rect class="c" x="642" y="98" rx="2" ry="2"/><rect class="c" x="658" y="2" rx="2" ry="2"/><rect class="c" x="658" y="18" rx="2" ry="2"/><rect class="c c14" x="658" y="34" rx="2" ry="2"/><rect class="c" x="658" y="50" rx="2" ry="2"/><rect class="c c15" x="658" y="66" rx="2" ry="2"/><rect class="c c16" x="658" y="82" rx="2" ry="2"/><rect class="c c17" x="658" y="98" rx="2" ry="2"/><rect class="c c18" x="674" y="2" rx="2" ry="2"/><rect class="c c19" x="674" y="18" rx="2" ry="2"/><rect class="c" x="674" y="34" rx="2" ry="2"/><rect class="c c1a" x="674" y="50" rx="2" ry="2"/><rect class="c c1b" x="674" y="66" rx="2" ry="2"/><rect class="c c1c" x="674" y="82" rx="2" ry="2"/><rect class="c c1d" x="674" y="98" rx="2" ry="2"/><rect class="c c1e" x="690" y="2" rx="2" ry="2"/><rect class="c c1f" x="690" y="18" rx="2" ry="2"/><rect class="c" x="690" y="34" rx="2" ry="2"/><rect class="c c1g" x="690" y="50" rx="2" ry="2"/><rect class="c c1h" x="690" y="66" rx="2" ry="2"/><rect class="c c1i" x="690" y="82" rx="2" ry="2"/><rect class="c c1j" x="690" y="98" rx="2" ry="2"/><rect class="c" x="706" y="2" rx="2" ry="2"/><rect class="c c1k" x="706" y="18" rx="2" ry="2"/><rect class="c" x="706" y="34" rx="2" ry="2"/><rect class="c" x="706" y="50" rx="2" ry="2"/><rect class="c" x="706" y="66" rx="2" ry="2"/><rect class="c c1l" x="706" y="82" rx="2" ry="2"/><rect class="c" x="706" y="98" rx="2" ry="2"/><rect class="c" x="722" y="2" rx="2" ry="2"/><rect class="c c1m" x="722" y="18" rx="2" ry="2"/><rect class="c" x="722" y="34" rx="2" ry="2"/><rect class="c" x="722" y="50" rx="2" ry="2"/><rect class="c" x="722" y="66" rx="2" ry="2"/><rect class="c c1n" x="722" y="82" rx="2" ry="2"/><rect class="c c1o" x="722" y="98" rx="2" ry="2"/><rect class="c c1p" x="738" y="2" rx="2" ry="2"/><rect class="c c1q" x="738" y="18" rx="2" ry="2"/><rect class="c c1r" x="738" y="34" rx="2" ry="2"/><rect class="c" x="738" y="50" rx="2" ry="2"/><rect class="c c1s" x="738" y="66" rx="2" ry="2"/><rect class="c c1t" x="738" y="82" rx="2" ry="2"/><rect class="c c1u" x="738" y="98" rx="2" ry="2"/><rect class="c c1v" x="754" y="2" rx="2" ry="2"/><rect class="c c1w" x="754" y="18" rx="2" ry="2"/><rect class="c c1x" x="754" y="34" rx="2" ry="2"/><rect class="c c1y" x="754" y="50" rx="2" ry="2"/><rect class="c c1z" x="754" y="66" rx="2" ry="2"/><rect class="c" x="754" y="82" rx="2" ry="2"/><rect class="c c20" x="754" y="98" rx="2" ry="2"/><rect class="c c21" x="770" y="2" rx="2" ry="2"/><rect class="c c22" x="770" y="18" rx="2" ry="2"/><rect class="c c23" x="770" y="34" rx="2" ry="2"/><rect class="c c24" x="770" y="50" rx="2" ry="2"/><rect class="c c25" x="770" y="66" rx="2" ry="2"/><rect class="c" x="770" y="82" rx="2" ry="2"/><rect class="c c26" x="770" y="98" rx="2" ry="2"/><rect class="c c27" x="786" y="2" rx="2" ry="2"/><rect class="c c28" x="786" y="18" rx="2" ry="2"/><rect class="c c29" x="786" y="34" rx="2" ry="2"/><rect class="c c2a" x="786" y="50" rx="2" ry="2"/><rect class="c c2b" x="786" y="66" rx="2" ry="2"/><rect class="c c2c" x="786" y="82" rx="2" ry="2"/><rect class="c c2d" x="786" y="98" rx="2" ry="2"/><rect class="c c2e" x="802" y="2" rx="2" ry="2"/><rect class="c c2f" x="802" y="18" rx="2" ry="2"/><rect class="c c2g" x="802" y="34" rx="2" ry="2"/><rect class="c c2h" x="802" y="50" rx="2" ry="2"/><rect class="c c2i" x="802" y="66" rx="2" ry="2"/><rect class="c c2j" x="802" y="82" rx="2" ry="2"/><rect class="c c2k" x="802" y="98" rx="2" ry="2"/><rect class="c" x="818" y="2" rx="2" ry="2"/><rect class="c c2l" x="818" y="18" rx="2" ry="2"/><rect class="c c2m" x="818" y="34" rx="2" ry="2"/><rect class="c c2n" x="818" y="50" rx="2" ry="2"/><rect class="c c2o" x="818" y="66" rx="2" ry="2"/><rect class="c" x="818" y="82" rx="2" ry="2"/><rect class="c" x="818" y="98" rx="2" ry="2"/><rect class="c" x="834" y="2" rx="2" ry="2"/><rect class="u u0" height="12" width="787.4" x="0.0" y="144"/><rect class="u u1" height="12" width="53.1" x="786.8" y="144"/><rect class="u u2" height="12" width="9.3" x="839.3" y="144"/><rect class="s s0" x="0.8" y="0.8" width="14.4" height="14.4" rx="4.5" ry="4.5"/><rect class="s s1" x="1.8" y="1.8" width="12.3" height="12.3" rx="4.1" ry="4.1"/><rect class="s s2" x="2.6" y="2.6" width="10.8" height="10.8" rx="3.6" ry="3.6"/><rect class="s s3" x="3.0" y="3.0" width="9.9" height="9.9" rx="3.3" ry="3.3"/></svg>