<svg viewBox="-16 -32 880 192" width="880" height="192" xmlns="http://www.w3.org/2000/svg"><desc>Generated with https://github.com/Platane/snk</desc><style>:root{--cb:#1b1f230a;--cs:purple;--ce:#161b22;--c0:#161b22;--c1:#01311f;--c2:#034525;--c3:#0f6d31;--c4:#00c647}.c{shape-rendering:geometricPrecision;fill:var(--ce);stroke-width:1px;stroke:var(--cb);animation:none 25700ms linear infinite;width:12px;height:12px}@keyframes c0{11.66%{fill:var(--c1)}11.68%,100%{fill:var(--ce)}}.c.c0{fill:var(--c1);animation-name:c0}@keyframes c1{69.64%{fill:var(--c1)}69.66%,100%{fill:var(--ce)}}.c.c1{fill:var(--c1);animation-name:c1}@keyframes c2{70.03%{fill:var(--c1)}70.05%,100%{fill:var(--ce)}}.c.c2{fill:var(--c1);animation-name:c2}@keyframes c3{14.78%{fill:var(--c1)}14.8%,100%{fill:var(--ce)}}.c.c3{fill:var(--c1);animation-name:c3}@keyframes c4{67.69%{fill:var(--c1)}67.71%,100%{fill:var(--ce)}}.c.c4{fill:var(--c1);animation-name:c4}@keyframes c5{68.08%{fill:var(--c1)}68.1%,100%{fill:var(--ce)}}.c.c5{fill:var(--c1);animation-name:c5}@keyframes c6{19.45%{fill:var(--c1)}19.47%,100%{fill:var(--ce)}}.c.c6{fill:var(--c1);animation-name:c6}@keyframes c7{19.06%{fill:var(--c1)}19.08%,100%{fill:var(--ce)}}.c.c7{fill:var(--c1);animation-name:c7}@keyframes c8{18.67%{fill:var(--c1)}18.69%,100%{fill:var(--ce)}}.c.c8{fill:var(--c1);animation-name:c8}@keyframes c9{15.17%{fill:var(--c1)}15.19%,100%{fill:var(--ce)}}.c.c9{fill:var(--c1);animation-name:c9}@keyframes ca{21%{fill:var(--c1)}21.02%,100%{fill:var(--ce)}}.c.ca{fill:var(--c1);animation-name:ca}@keyframes cb{20.61%{fill:var(--c1)}20.63%,100%{fill:var(--ce)}}.c.cb{fill:var(--c1);animation-name:cb}@keyframes cc{20.22%{fill:var(--c1)}20.24%,100%{fill:var(--ce)}}.c.cc{fill:var(--c1);animation-name:cc}@keyframes cd{19.83%{fill:var(--c1)}19.85%,100%{fill:var(--ce)}}.c.cd{fill:var(--c1);animation-name:cd}@keyframes ce{15.55%{fill:var(--c1)}15.57%,100%{fill:var(--ce)}}.c.ce{fill:var(--c1);animation-name:ce}@keyframes cf{21.39%{fill:var(--c1)}21.41%,100%{fill:var(--ce)}}.c.cf{fill:var(--c1);animation-name:cf}@keyframes cg{17.89%{fill:var(--c1)}17.91%,100%{fill:var(--ce)}}.c.cg{fill:var(--c1);animation-name:cg}@keyframes ch{15.94%{fill:var(--c1)}15.96%,100%{fill:var(--ce)}}.c.ch{fill:var(--c1);animation-name:ch}@keyframes ci{23.34%{fill:var(--c1)}23.36%,100%{fill:var(--ce)}}.c.ci{fill:var(--c1);animation-name:ci}@keyframes cj{23.73%{fill:var(--c1)}23.75%,100%{fill:var(--ce)}}.c.cj{fill:var(--c1);animation-name:cj}@keyframes ck{72.36%{fill:var(--c2)}72.38%,100%{fill:var(--ce)}}.c.ck{fill:var(--c2);animation-name:ck}@keyframes cl{17.5%{fill:var(--c1)}17.52%,100%{fill:var(--ce)}}.c.cl{fill:var(--c1);animation-name:cl}@keyframes cm{16.33%{fill:var(--c1)}16.35%,100%{fill:var(--ce)}}.c.cm{fill:var(--c1);animation-name:cm}@keyframes cn{22.17%{fill:var(--c1)}22.19%,100%{fill:var(--ce)}}.c.cn{fill:var(--c1);animation-name:cn}@keyframes co{22.56%{fill:var(--c1)}22.58%,100%{fill:var(--ce)}}.c.co{fill:var(--c1);animation-name:co}@keyframes cp{22.95%{fill:var(--c1)}22.97%,100%{fill:var(--ce)}}.c.cp{fill:var(--c1);animation-name:cp}@keyframes cq{24.11%{fill:var(--c1)}24.13%,100%{fill:var(--ce)}}.c.cq{fill:var(--c1);animation-name:cq}@keyframes cr{17.11%{fill:var(--c1)}17.13%,100%{fill:var(--ce)}}.c.cr{fill:var(--c1);animation-name:cr}@keyframes cs{16.72%{fill:var(--c1)}16.74%,100%{fill:var(--ce)}}.c.cs{fill:var(--c1);animation-name:cs}@keyframes ct{24.5%{fill:var(--c1)}24.52%,100%{fill:var(--ce)}}.c.ct{fill:var(--c1);animation-name:ct}@keyframes cu{54.46%{fill:var(--c1)}54.48%,100%{fill:var(--ce)}}.c.cu{fill:var(--c1);animation-name:cu}@keyframes cv{25.28%{fill:var(--c1)}25.3%,100%{fill:var(--ce)}}.c.cv{fill:var(--c1);animation-name:cv}@keyframes cw{24.89%{fill:var(--c1)}24.91%,100%{fill:var(--ce)}}.c.cw{fill:var(--c1);animation-name:cw}@keyframes cx{54.08%{fill:var(--c1)}54.1%,100%{fill:var(--ce)}}.c.cx{fill:var(--c1);animation-name:cx}@keyframes cy{64.19%{fill:var(--c1)}64.21%,100%{fill:var(--ce)}}.c.cy{fill:var(--c1);animation-name:cy}@keyframes cz{26.45%{fill:var(--c1)}26.47%,100%{fill:var(--ce)}}.c.cz{fill:var(--c1);animation-name:cz}@keyframes c10{74.31%{fill:var(--c2)}74.33%,100%{fill:var(--ce)}}.c.c10{fill:var(--c2);animation-name:c10}@keyframes c11{52.91%{fill:var(--c1)}52.93%,100%{fill:var(--ce)}}.c.c11{fill:var(--c1);animation-name:c11}@keyframes c12{26.84%{fill:var(--c1)}26.86%,100%{fill:var(--ce)}}.c.c12{fill:var(--c1);animation-name:c12}@keyframes c13{43.18%{fill:var(--c1)}43.2%,100%{fill:var(--ce)}}.c.c13{fill:var(--c1);animation-name:c13}@keyframes c14{57.19%{fill:var(--c1)}57.21%,100%{fill:var(--ce)}}.c.c14{fill:var(--c1);animation-name:c14}@keyframes c15{42.4%{fill:var(--c1)}42.42%,100%{fill:var(--ce)}}.c.c15{fill:var(--c1);animation-name:c15}@keyframes c16{43.57%{fill:var(--c1)}43.59%,100%{fill:var(--ce)}}.c.c16{fill:var(--c1);animation-name:c16}@keyframes c17{51.74%{fill:var(--c1)}51.76%,100%{fill:var(--ce)}}.c.c17{fill:var(--c1);animation-name:c17}@keyframes c18{58.36%{fill:var(--c1)}58.38%,100%{fill:var(--ce)}}.c.c18{fill:var(--c1);animation-name:c18}@keyframes c19{57.97%{fill:var(--c1)}57.99%,100%{fill:var(--ce)}}.c.c19{fill:var(--c1);animation-name:c19}@keyframes c1a{27.62%{fill:var(--c1)}27.64%,100%{fill:var(--ce)}}.c.c1a{fill:var(--c1);animation-name:c1a}@keyframes c1b{42.01%{fill:var(--c1)}42.03%,100%{fill:var(--ce)}}.c.c1b{fill:var(--c1);animation-name:c1b}@keyframes c1c{43.96%{fill:var(--c1)}43.98%,100%{fill:var(--ce)}}.c.c1c{fill:var(--c1);animation-name:c1c}@keyframes c1d{51.35%{fill:var(--c1)}51.37%,100%{fill:var(--ce)}}.c.c1d{fill:var(--c1);animation-name:c1d}@keyframes c1e{58.74%{fill:var(--c1)}58.76%,100%{fill:var(--ce)}}.c.c1e{fill:var(--c1);animation-name:c1e}@keyframes c1f{28.78%{fill:var(--c1)}28.8%,100%{fill:var(--ce)}}.c.c1f{fill:var(--c1);animation-name:c1f}@keyframes c1g{28.01%{fill:var(--c1)}28.03%,100%{fill:var(--ce)}}.c.c1g{fill:var(--c1);animation-name:c1g}@keyframes c1h{41.62%{fill:var(--c1)}41.64%,100%{fill:var(--ce)}}.c.c1h{fill:var(--c1);animation-name:c1h}@keyframes c1i{44.35%{fill:var(--c1)}44.37%,100%{fill:var(--ce)}}.c.c1i{fill:var(--c1);animation-name:c1i}@keyframes c1j{50.96%{fill:var(--c1)}50.98%,100%{fill:var(--ce)}}.c.c1j{fill:var(--c1);animation-name:c1j}@keyframes c1k{29.17%{fill:var(--c1)}29.19%,100%{fill:var(--ce)}}.c.c1k{fill:var(--c1);animation-name:c1k}@keyframes c1l{44.74%{fill:var(--c1)}44.76%,100%{fill:var(--ce)}}.c.c1l{fill:var(--c1);animation-name:c1l}@keyframes c1m{29.56%{fill:var(--c1)}29.58%,100%{fill:var(--ce)}}.c.c1m{fill:var(--c1);animation-name:c1m}@keyframes c1n{45.13%{fill:var(--c1)}45.15%,100%{fill:var(--ce)}}.c.c1n{fill:var(--c1);animation-name:c1n}@keyframes c1o{50.18%{fill:var(--c1)}50.2%,100%{fill:var(--ce)}}.c.c1o{fill:var(--c1);animation-name:c1o}@keyframes c1p{59.91%{fill:var(--c1)}59.93%,100%{fill:var(--ce)}}.c.c1p{fill:var(--c1);animation-name:c1p}@keyframes c1q{78.98%{fill:var(--c2)}79%,100%{fill:var(--ce)}}.c.c1q{fill:var(--c2);animation-name:c1q}@keyframes c1r{77.81%{fill:var(--c2)}77.83%,100%{fill:var(--ce)}}.c.c1r{fill:var(--c2);animation-name:c1r}@keyframes c1s{40.46%{fill:var(--c1)}40.48%,100%{fill:var(--ce)}}.c.c1s{fill:var(--c1);animation-name:c1s}@keyframes c1t{45.52%{fill:var(--c1)}45.54%,100%{fill:var(--ce)}}.c.c1t{fill:var(--c1);animation-name:c1t}@keyframes c1u{49.8%{fill:var(--c1)}49.82%,100%{fill:var(--ce)}}.c.c1u{fill:var(--c1);animation-name:c1u}@keyframes c1v{60.3%{fill:var(--c1)}60.32%,100%{fill:var(--ce)}}.c.c1v{fill:var(--c1);animation-name:c1v}@keyframes c1w{78.59%{fill:var(--c2)}78.61%,100%{fill:var(--ce)}}.c.c1w{fill:var(--c2);animation-name:c1w}@keyframes c1x{78.2%{fill:var(--c2)}78.22%,100%{fill:var(--ce)}}.c.c1x{fill:var(--c2);animation-name:c1x}@keyframes c1y{31.12%{fill:var(--c1)}31.14%,100%{fill:var(--ce)}}.c.c1y{fill:var(--c1);animation-name:c1y}@keyframes c1z{40.07%{fill:var(--c1)}40.09%,100%{fill:var(--ce)}}.c.c1z{fill:var(--c1);animation-name:c1z}@keyframes c20{49.41%{fill:var(--c1)}49.43%,100%{fill:var(--ce)}}.c.c20{fill:var(--c1);animation-name:c20}@keyframes c21{80.15%{fill:var(--c4)}80.17%,100%{fill:var(--ce)}}.c.c21{fill:var(--c4);animation-name:c21}@keyframes c22{35.4%{fill:var(--c1)}35.42%,100%{fill:var(--ce)}}.c.c22{fill:var(--c1);animation-name:c22}@keyframes c23{35.79%{fill:var(--c1)}35.81%,100%{fill:var(--ce)}}.c.c23{fill:var(--c1);animation-name:c23}@keyframes c24{31.51%{fill:var(--c1)}31.53%,100%{fill:var(--ce)}}.c.c24{fill:var(--c1);animation-name:c24}@keyframes c25{39.68%{fill:var(--c1)}39.7%,100%{fill:var(--ce)}}.c.c25{fill:var(--c1);animation-name:c25}@keyframes c26{46.68%{fill:var(--c1)}46.7%,100%{fill:var(--ce)}}.c.c26{fill:var(--c1);animation-name:c26}@keyframes c27{34.62%{fill:var(--c1)}34.64%,100%{fill:var(--ce)}}.c.c27{fill:var(--c1);animation-name:c27}@keyframes c28{35.01%{fill:var(--c1)}35.03%,100%{fill:var(--ce)}}.c.c28{fill:var(--c1);animation-name:c28}@keyframes c29{36.18%{fill:var(--c1)}36.2%,100%{fill:var(--ce)}}.c.c29{fill:var(--c1);animation-name:c29}@keyframes c2a{31.9%{fill:var(--c1)}31.92%,100%{fill:var(--ce)}}.c.c2a{fill:var(--c1);animation-name:c2a}@keyframes c2b{39.29%{fill:var(--c1)}39.31%,100%{fill:var(--ce)}}.c.c2b{fill:var(--c1);animation-name:c2b}@keyframes c2c{38.9%{fill:var(--c1)}38.92%,100%{fill:var(--ce)}}.c.c2c{fill:var(--c1);animation-name:c2c}@keyframes c2d{47.07%{fill:var(--c1)}47.09%,100%{fill:var(--ce)}}.c.c2d{fill:var(--c1);animation-name:c2d}@keyframes c2e{34.23%{fill:var(--c1)}34.25%,100%{fill:var(--ce)}}.c.c2e{fill:var(--c1);animation-name:c2e}@keyframes c2f{33.84%{fill:var(--c1)}33.86%,100%{fill:var(--ce)}}.c.c2f{fill:var(--c1);animation-name:c2f}@keyframes c2g{36.57%{fill:var(--c1)}36.59%,100%{fill:var(--ce)}}.c.c2g{fill:var(--c1);animation-name:c2g}@keyframes c2h{32.29%{fill:var(--c1)}32.31%,100%{fill:var(--ce)}}.c.c2h{fill:var(--c1);animation-name:c2h}@keyframes c2i{37.34%{fill:var(--c1)}37.36%,100%{fill:var(--ce)}}.c.c2i{fill:var(--c1);animation-name:c2i}@keyframes c2j{38.51%{fill:var(--c1)}38.53%,100%{fill:var(--ce)}}.c.c2j{fill:var(--c1);animation-name:c2j}@keyframes c2k{47.46%{fill:var(--c1)}47.48%,100%{fill:var(--ce)}}.c.c2k{fill:var(--c1);animation-name:c2k}@keyframes c2l{33.45%{fill:var(--c1)}33.47%,100%{fill:var(--ce)}}.c.c2l{fill:var(--c1);animation-name:c2l}@keyframes c2m{33.06%{fill:var(--c1)}33.08%,100%{fill:var(--ce)}}.c.c2m{fill:var(--c1);animation-name:c2m}@keyframes c2n{32.67%{fill:var(--c1)}32.69%,100%{fill:var(--ce)}}.c.c2n{fill:var(--c1);animation-name:c2n}@keyframes c2o{37.73%{fill:var(--c1)}37.75%,100%{fill:var(--ce)}}.c.c2o{fill:var(--c1);animation-name:c2o}.u{transform-origin:0 0;transform:scale(0,1);animation:none linear 25700ms infinite}@keyframes u0{11.66%{transform:scale(0.000,1)}11.68%,14.78%{transform:scale(0.011,1)}14.8%,15.17%{transform:scale(0.022,1)}15.19%,15.55%{transform:scale(0.033,1)}15.57%,15.94%{transform:scale(0.044,1)}15.96%,16.33%{transform:scale(0.056,1)}16.35%,16.72%{transform:scale(0.067,1)}16.74%,17.11%{transform:scale(0.078,1)}17.13%,17.5%{transform:scale(0.089,1)}17.52%,17.89%{transform:scale(0.100,1)}17.91%,18.67%{transform:scale(0.111,1)}18.69%,19.06%{transform:scale(0.122,1)}19.08%,19.45%{transform:scale(0.133,1)}19.47%,19.83%{transform:scale(0.144,1)}19.85%,20.22%{transform:scale(0.156,1)}20.24%,20.61%{transform:scale(0.167,1)}20.63%,21%{transform:scale(0.178,1)}21.02%,21.39%{transform:scale(0.189,1)}21.41%,22.17%{transform:scale(0.200,1)}22.19%,22.56%{transform:scale(0.211,1)}22.58%,22.95%{transform:scale(0.222,1)}22.97%,23.34%{transform:scale(0.233,1)}23.36%,23.73%{transform:scale(0.244,1)}23.75%,24.11%{transform:scale(0.256,1)}24.13%,24.5%{transform:scale(0.267,1)}24.52%,24.89%{transform:scale(0.278,1)}24.91%,25.28%{transform:scale(0.289,1)}25.3%,26.45%{transform:scale(0.300,1)}26.47%,26.84%{transform:scale(0.311,1)}26.86%,27.62%{transform:scale(0.322,1)}27.64%,28.01%{transform:scale(0.333,1)}28.03%,28.78%{transform:scale(0.344,1)}28.8%,29.17%{transform:scale(0.356,1)}29.19%,29.56%{transform:scale(0.367,1)}29.58%,31.12%{transform:scale(0.378,1)}31.14%,31.51%{transform:scale(0.389,1)}31.53%,31.9%{transform:scale(0.400,1)}31.92%,32.29%{transform:scale(0.411,1)}32.31%,32.67%{transform:scale(0.422,1)}32.69%,33.06%{transform:scale(0.433,1)}33.08%,33.45%{transform:scale(0.444,1)}33.47%,33.84%{transform:scale(0.456,1)}33.86%,34.23%{transform:scale(0.467,1)}34.25%,34.62%{transform:scale(0.478,1)}34.64%,35.01%{transform:scale(0.489,1)}35.03%,35.4%{transform:scale(0.500,1)}35.42%,35.79%{transform:scale(0.511,1)}35.81%,36.18%{transform:scale(0.522,1)}36.2%,36.57%{transform:scale(0.533,1)}36.59%,37.34%{transform:scale(0.544,1)}37.36%,37.73%{transform:scale(0.556,1)}37.75%,38.51%{transform:scale(0.567,1)}38.53%,38.9%{transform:scale(0.578,1)}38.92%,39.29%{transform:scale(0.589,1)}39.31%,39.68%{transform:scale(0.600,1)}39.7%,40.07%{transform:scale(0.611,1)}40.09%,40.46%{transform:scale(0.622,1)}40.48%,41.62%{transform:scale(0.633,1)}41.64%,42.01%{transform:scale(0.644,1)}42.03%,42.4%{transform:scale(0.656,1)}42.42%,43.18%{transform:scale(0.667,1)}43.2%,43.57%{transform:scale(0.678,1)}43.59%,43.96%{transform:scale(0.689,1)}43.98%,44.35%{transform:scale(0.700,1)}44.37%,44.74%{transform:scale(0.711,1)}44.76%,45.13%{transform:scale(0.722,1)}45.15%,45.52%{transform:scale(0.733,1)}45.54%,46.68%{transform:scale(0.744,1)}46.7%,47.07%{transform:scale(0.756,1)}47.09%,47.46%{transform:scale(0.767,1)}47.48%,49.41%{transform:scale(0.778,1)}49.43%,49.8%{transform:scale(0.789,1)}49.82%,50.18%{transform:scale(0.800,1)}50.2%,50.96%{transform:scale(0.811,1)}50.98%,51.35%{transform:scale(0.822,1)}51.37%,51.74%{transform:scale(0.833,1)}51.76%,52.91%{transform:scale(0.844,1)}52.93%,54.08%{transform:scale(0.856,1)}54.1%,54.46%{transform:scale(0.867,1)}54.48%,57.19%{transform:scale(0.878,1)}57.21%,57.97%{transform:scale(0.889,1)}57.99%,58.36%{transform:scale(0.900,1)}58.38%,58.74%{transform:scale(0.911,1)}58.76%,59.91%{transform:scale(0.922,1)}59.93%,60.3%{transform:scale(0.933,1)}60.32%,64.19%{transform:scale(0.944,1)}64.21%,67.69%{transform:scale(0.956,1)}67.71%,68.08%{transform:scale(0.967,1)}68.1%,69.64%{transform:scale(0.978,1)}69.66%,70.03%{transform:scale(0.989,1)}70.05%,100%{transform:scale(1.000,1)}}.u.u0{fill:var(--c1);animation-name:u0;transform-origin:0.0px 0}@keyframes u1{72.36%{transform:scale(0.000,1)}72.38%,74.31%{transform:scale(0.167,1)}74.33%,77.81%{transform:scale(0.333,1)}77.83%,78.2%{transform:scale(0.500,1)}78.22%,78.59%{transform:scale(0.667,1)}78.61%,78.98%{transform:scale(0.833,1)}79%,100%{transform:scale(1.000,1)}}.u.u1{fill:var(--c2);animation-name:u1;transform-origin:786.8px 0}@keyframes u2{80.15%{transform:scale(0.000,1)}80.17%,100%{transform:scale(1.000,1)}}.u.u2{fill:var(--c4);animation-name:u2;transform-origin:839.3px 0}.s{shape-rendering:geometricPrecision;fill:var(--cs);animation:none linear 25700ms infinite}@keyframes s0{0%,99.61%{transform:translate(0px,-16px)}0.39%{transform:translate(0px,0px)}9.34%{transform:translate(368px,0px)}11.67%{transform:translate(368px,96px)}16.73%{transform:translate(576px,96px)}17.12%{transform:translate(576px,80px)}18.68%{transform:translate(512px,80px)}19.46%{transform:translate(512px,48px)}19.84%{transform:translate(528px,48px)}21.01%{transform:translate(528px,0px)}22.18%{transform:translate(576px,0px)}22.96%{transform:translate(576px,32px)}23.35%{transform:translate(560px,32px)}23.74%{transform:translate(560px,48px)}24.9%{transform:translate(608px,48px)}25.29%{transform:translate(608px,32px)}26.07%{transform:translate(640px,32px)}26.46%{transform:translate(640px,48px)}28.02%{transform:translate(704px,48px)}28.79%{transform:translate(704px,16px)}29.57%{transform:translate(736px,16px)}30.35%{transform:translate(736px,48px)}32.68%{transform:translate(832px,48px)}33.46%{transform:translate(832px,16px)}33.85%{transform:translate(816px,16px)}34.24%{transform:translate(816px,0px)}34.63%{transform:translate(800px,0px)}35.02%{transform:translate(800px,16px)}35.41%{transform:translate(784px,16px)}35.8%{transform:translate(784px,32px)}36.58%{transform:translate(816px,32px)}37.35%{transform:translate(816px,64px)}37.74%{transform:translate(832px,64px)}38.13%{transform:translate(832px,80px)}38.91%{transform:translate(800px,80px)}39.3%{transform:translate(800px,64px)}42.8%{transform:translate(656px,64px)}43.19%{transform:translate(656px,80px)}46.3%{transform:translate(784px,80px)}46.69%{transform:translate(784px,96px)}47.47%{transform:translate(816px,96px)}47.86%{transform:translate(816px,80px)}49.03%{transform:translate(768px,80px)}49.42%{transform:translate(768px,96px)}51.75%{transform:translate(672px,96px)}52.14%{transform:translate(672px,80px)}53.31%{transform:translate(624px,80px)}53.7%{transform:translate(624px,64px)}54.47%{transform:translate(592px,64px)}54.86%{transform:translate(592px,48px)}56.81%{transform:translate(672px,48px)}57.2%{transform:translate(672px,32px)}57.59%{transform:translate(688px,32px)}58.37%{transform:translate(688px,0px)}60.31%{transform:translate(768px,0px)}60.7%{transform:translate(768px,-16px)}63.81%{transform:translate(640px,-16px)}64.2%{transform:translate(640px,0px)}67.32%{transform:translate(512px,0px)}68.09%{transform:translate(512px,32px)}68.87%{transform:translate(480px,32px)}70.04%{transform:translate(480px,80px)}71.98%{transform:translate(560px,80px)}72.37%{transform:translate(560px,64px)}77.04%{transform:translate(752px,64px)}77.82%{transform:translate(752px,32px)}78.21%{transform:translate(768px,32px)}78.6%{transform:translate(768px,16px)}78.99%{transform:translate(752px,16px)}79.38%{transform:translate(752px,0px)}80.16%{transform:translate(784px,0px)}80.54%{transform:translate(784px,-16px)}}.s.s0{transform:translate(0px,-16px);animation-name:s0}@keyframes s1{0%,99.61%{transform:translate(16px,-16px)}0.39%{transform:translate(0px,-16px)}0.78%{transform:translate(0px,0px)}9.73%{transform:translate(368px,0px)}12.06%{transform:translate(368px,96px)}17.12%{transform:translate(576px,96px)}17.51%{transform:translate(576px,80px)}19.07%{transform:translate(512px,80px)}19.84%{transform:translate(512px,48px)}20.23%{transform:translate(528px,48px)}21.4%{transform:translate(528px,0px)}22.57%{transform:translate(576px,0px)}23.35%{transform:translate(576px,32px)}23.74%{transform:translate(560px,32px)}24.12%{transform:translate(560px,48px)}25.29%{transform:translate(608px,48px)}25.68%{transform:translate(608px,32px)}26.46%{transform:translate(640px,32px)}26.85%{transform:translate(640px,48px)}28.4%{transform:translate(704px,48px)}29.18%{transform:translate(704px,16px)}29.96%{transform:translate(736px,16px)}30.74%{transform:translate(736px,48px)}33.07%{transform:translate(832px,48px)}33.85%{transform:translate(832px,16px)}34.24%{transform:translate(816px,16px)}34.63%{transform:translate(816px,0px)}35.02%{transform:translate(800px,0px)}35.41%{transform:translate(800px,16px)}35.8%{transform:translate(784px,16px)}36.19%{transform:translate(784px,32px)}36.96%{transform:translate(816px,32px)}37.74%{transform:translate(816px,64px)}38.13%{transform:translate(832px,64px)}38.52%{transform:translate(832px,80px)}39.3%{transform:translate(800px,80px)}39.69%{transform:translate(800px,64px)}43.19%{transform:translate(656px,64px)}43.58%{transform:translate(656px,80px)}46.69%{transform:translate(784px,80px)}47.08%{transform:translate(784px,96px)}47.86%{transform:translate(816px,96px)}48.25%{transform:translate(816px,80px)}49.42%{transform:translate(768px,80px)}49.81%{transform:translate(768px,96px)}52.14%{transform:translate(672px,96px)}52.53%{transform:translate(672px,80px)}53.7%{transform:translate(624px,80px)}54.09%{transform:translate(624px,64px)}54.86%{transform:translate(592px,64px)}55.25%{transform:translate(592px,48px)}57.2%{transform:translate(672px,48px)}57.59%{transform:translate(672px,32px)}57.98%{transform:translate(688px,32px)}58.75%{transform:translate(688px,0px)}60.7%{transform:translate(768px,0px)}61.09%{transform:translate(768px,-16px)}64.2%{transform:translate(640px,-16px)}64.59%{transform:translate(640px,0px)}67.7%{transform:translate(512px,0px)}68.48%{transform:translate(512px,32px)}69.26%{transform:translate(480px,32px)}70.43%{transform:translate(480px,80px)}72.37%{transform:translate(560px,80px)}72.76%{transform:translate(560px,64px)}77.43%{transform:translate(752px,64px)}78.21%{transform:translate(752px,32px)}78.6%{transform:translate(768px,32px)}78.99%{transform:translate(768px,16px)}79.38%{transform:translate(752px,16px)}79.77%{transform:translate(752px,0px)}80.54%{transform:translate(784px,0px)}80.93%{transform:translate(784px,-16px)}}.s.s1{transform:translate(16px,-16px);animation-name:s1}@keyframes s2{0%,99.61%{transform:translate(32px,-16px)}0.78%{transform:translate(0px,-16px)}1.17%{transform:translate(0px,0px)}10.12%{transform:translate(368px,0px)}12.45%{transform:translate(368px,96px)}17.51%{transform:translate(576px,96px)}17.9%{transform:translate(576px,80px)}19.46%{transform:translate(512px,80px)}20.23%{transform:translate(512px,48px)}20.62%{transform:translate(528px,48px)}21.79%{transform:translate(528px,0px)}22.96%{transform:translate(576px,0px)}23.74%{transform:translate(576px,32px)}24.12%{transform:translate(560px,32px)}24.51%{transform:translate(560px,48px)}25.68%{transform:translate(608px,48px)}26.07%{transform:translate(608px,32px)}26.85%{transform:translate(640px,32px)}27.24%{transform:translate(640px,48px)}28.79%{transform:translate(704px,48px)}29.57%{transform:translate(704px,16px)}30.35%{transform:translate(736px,16px)}31.13%{transform:translate(736px,48px)}33.46%{transform:translate(832px,48px)}34.24%{transform:translate(832px,16px)}34.63%{transform:translate(816px,16px)}35.02%{transform:translate(816px,0px)}35.41%{transform:translate(800px,0px)}35.8%{transform:translate(800px,16px)}36.19%{transform:translate(784px,16px)}36.58%{transform:translate(784px,32px)}37.35%{transform:translate(816px,32px)}38.13%{transform:translate(816px,64px)}38.52%{transform:translate(832px,64px)}38.91%{transform:translate(832px,80px)}39.69%{transform:translate(800px,80px)}40.08%{transform:translate(800px,64px)}43.58%{transform:translate(656px,64px)}43.97%{transform:translate(656px,80px)}47.08%{transform:translate(784px,80px)}47.47%{transform:translate(784px,96px)}48.25%{transform:translate(816px,96px)}48.64%{transform:translate(816px,80px)}49.81%{transform:translate(768px,80px)}50.19%{transform:translate(768px,96px)}52.53%{transform:translate(672px,96px)}52.92%{transform:translate(672px,80px)}54.09%{transform:translate(624px,80px)}54.47%{transform:translate(624px,64px)}55.25%{transform:translate(592px,64px)}55.64%{transform:translate(592px,48px)}57.59%{transform:translate(672px,48px)}57.98%{transform:translate(672px,32px)}58.37%{transform:translate(688px,32px)}59.14%{transform:translate(688px,0px)}61.09%{transform:translate(768px,0px)}61.48%{transform:translate(768px,-16px)}64.59%{transform:translate(640px,-16px)}64.98%{transform:translate(640px,0px)}68.09%{transform:translate(512px,0px)}68.87%{transform:translate(512px,32px)}69.65%{transform:translate(480px,32px)}70.82%{transform:translate(480px,80px)}72.76%{transform:translate(560px,80px)}73.15%{transform:translate(560px,64px)}77.82%{transform:translate(752px,64px)}78.6%{transform:translate(752px,32px)}78.99%{transform:translate(768px,32px)}79.38%{transform:translate(768px,16px)}79.77%{transform:translate(752px,16px)}80.16%{transform:translate(752px,0px)}80.93%{transform:translate(784px,0px)}81.32%{transform:translate(784px,-16px)}}.s.s2{transform:translate(32px,-16px);animation-name:s2}@keyframes s3{0%,99.61%{transform:translate(48px,-16px)}1.17%{transform:translate(0px,-16px)}1.56%{transform:translate(0px,0px)}10.51%{transform:translate(368px,0px)}12.84%{transform:translate(368px,96px)}17.9%{transform:translate(576px,96px)}18.29%{transform:translate(576px,80px)}19.84%{transform:translate(512px,80px)}20.62%{transform:translate(512px,48px)}21.01%{transform:translate(528px,48px)}22.18%{transform:translate(528px,0px)}23.35%{transform:translate(576px,0px)}24.12%{transform:translate(576px,32px)}24.51%{transform:translate(560px,32px)}24.9%{transform:translate(560px,48px)}26.07%{transform:translate(608px,48px)}26.46%{transform:translate(608px,32px)}27.24%{transform:translate(640px,32px)}27.63%{transform:translate(640px,48px)}29.18%{transform:translate(704px,48px)}29.96%{transform:translate(704px,16px)}30.74%{transform:translate(736px,16px)}31.52%{transform:translate(736px,48px)}33.85%{transform:translate(832px,48px)}34.63%{transform:translate(832px,16px)}35.02%{transform:translate(816px,16px)}35.41%{transform:translate(816px,0px)}35.8%{transform:translate(800px,0px)}36.19%{transform:translate(800px,16px)}36.58%{transform:translate(784px,16px)}36.96%{transform:translate(784px,32px)}37.74%{transform:translate(816px,32px)}38.52%{transform:translate(816px,64px)}38.91%{transform:translate(832px,64px)}39.3%{transform:translate(832px,80px)}40.08%{transform:translate(800px,80px)}40.47%{transform:translate(800px,64px)}43.97%{transform:translate(656px,64px)}44.36%{transform:translate(656px,80px)}47.47%{transform:translate(784px,80px)}47.86%{transform:translate(784px,96px)}48.64%{transform:translate(816px,96px)}49.03%{transform:translate(816px,80px)}50.19%{transform:translate(768px,80px)}50.58%{transform:translate(768px,96px)}52.92%{transform:translate(672px,96px)}53.31%{transform:translate(672px,80px)}54.47%{transform:translate(624px,80px)}54.86%{transform:translate(624px,64px)}55.64%{transform:translate(592px,64px)}56.03%{transform:translate(592px,48px)}57.98%{transform:translate(672px,48px)}58.37%{transform:translate(672px,32px)}58.75%{transform:translate(688px,32px)}59.53%{transform:translate(688px,0px)}61.48%{transform:translate(768px,0px)}61.87%{transform:translate(768px,-16px)}64.98%{transform:translate(640px,-16px)}65.37%{transform:translate(640px,0px)}68.48%{transform:translate(512px,0px)}69.26%{transform:translate(512px,32px)}70.04%{transform:translate(480px,32px)}71.21%{transform:translate(480px,80px)}73.15%{transform:translate(560px,80px)}73.54%{transform:translate(560px,64px)}78.21%{transform:translate(752px,64px)}78.99%{transform:translate(752px,32px)}79.38%{transform:translate(768px,32px)}79.77%{transform:translate(768px,16px)}80.16%{transform:translate(752px,16px)}80.54%{transform:translate(752px,0px)}81.32%{transform:translate(784px,0px)}81.71%{transform:translate(784px,-16px)}}.s.s3{transform:translate(48px,-16px);animation-name:s3}</style><rect class="c" x="2" y="2" rx="2" ry="2"/><rect class="c" x="2" y="18" rx="2" ry="2"/><rect class="c" x="2" y="34" rx="2" ry="2"/><rect class="c" x="2" y="50" rx="2" ry="2"/><rect class="c" x="2" y="66" rx="2" ry="2"/><rect class="c" x="2" y="82" rx="2" ry="2"/><rect class="c" x="2" y="98" rx="2" ry="2"/><rect class="c" x="18" y="2" rx="2" ry="2"/><rect class="c" x="18" y="18" rx="2" ry="2"/><rect class="c" x="18" y="34" rx="2" ry="2"/><rect class="c" x="18" y="50" rx="2" ry="2"/><rect class="c" x="18" y="66" rx="2" ry="2"/><rect class="c" x="18" y="82" rx="2" ry="2"/><rect class="c" x="18" y="98" rx="2" ry="2"/><rect class="c" x="34" y="2" rx="2" ry="2"/><rect class="c" x="34" y="18" rx="2" ry="2"/><rect class="c" x="34" y="34" rx="2" ry="2"/><rect class="c" x="34" y="50" rx="2" ry="2"/><rect class="c" x="34" y="66" rx="2" ry="2"/><rect class="c" x="34" y="82" rx="2" ry="2"/><rect class="c" x="34" y="98" rx="2" ry="2"/><rect class="c" x="50" y="2" rx="2" ry="2"/><rect class="c" x="50" y="18" rx="2" ry="2"/><rect class="c" x="50" y="34" rx="2" ry="2"/><rect class="c" x="50" y="50" rx="2" ry="2"/><rect class="c" x="50" y="66" rx="2" ry="2"/><rect class="c" x="50" y="82" rx="2" ry="2"/><rect class="c" x="50" y="98" rx="2" ry="2"/><rect class="c" x="66" y="2" rx="2" ry="2"/><rect class="c" x="66" y="18" rx="2" ry="2"/><rect class="c" x="66" y="34" rx="2" ry="2"/><rect class="c" x="66" y="50" rx="2" ry="2"/><rect class="c" x="66" y="66" rx="2" ry="2"/><rect class="c" x="66" y="82" rx="2" ry="2"/><rect class="c" x="66" y="98" rx="2" ry="2"/><rect class="c" x="82" y="2" rx="2" ry="2"/><rect class="c" x="82" y="18" rx="2" ry="2"/><rect class="c" x="82" y="34" rx="2" ry="2"/><rect class="c" x="82" y="50" rx="2" ry="2"/><rect class="c" x="82" y="66" rx="2" ry="2"/><rect class="c" x="82" y="82" rx="2" ry="2"/><rect class="c" x="82" y="98" rx="2" ry="2"/><rect class="c" x="98" y="2" rx="2" ry="2"/><rect class="c" x="98" y="18" rx="2" ry="2"/><rect class="c" x="98" y="34" rx="2" ry="2"/><rect class="c" x="98" y="50" rx="2" ry="2"/><rect class="c" x="98" y="66" rx="2" ry="2"/><rect class="c" x="98" y="82" rx="2" ry="2"/><rect class="c" x="98" y="98" rx="2" ry="2"/><rect class="c" x="114" y="2" rx="2" ry="2"/><rect class="c" x="114" y="18" rx="2" ry="2"/><rect class="c" x="114" y="34" rx="2" ry="2"/><rect class="c" x="114" y="50" rx="2" ry="2"/><rect class="c" x="114" y="66" rx="2" ry="2"/><rect class="c" x="114" y="82" rx="2" ry="2"/><rect class="c" x="114" y="98" rx="2" ry="2"/><rect class="c" x="130" y="2" rx="2" ry="2"/><rect class="c" x="130" y="18" rx="2" ry="2"/><rect class="c" x="130" y="34" rx="2" ry="2"/><rect class="c" x="130" y="50" rx="2" ry="2"/><rect class="c" x="130" y="66" rx="2" ry="2"/><rect class="c" x="130" y="82" rx="2" ry="2"/><rect class="c" x="130" y="98" rx="2" ry="2"/><rect class="c" x="146" y="2" rx="2" ry="2"/><rect class="c" x="146" y="18" rx="2" ry="2"/><rect class="c" x="146" y="34" rx="2" ry="2"/><rect class="c" x="146" y="50" rx="2" ry="2"/><rect class="c" x="146" y="66" rx="2" ry="2"/><rect class="c" x="146" y="82" rx="2" ry="2"/><rect class="c" x="146" y="98" rx="2" ry="2"/><rect class="c" x="162" y="2" rx="2" ry="2"/><rect class="c" x="162" y="18" rx="2" ry="2"/><rect class="c" x="162" y="34" rx="2" ry="2"/><rect class="c" x="162" y="50" rx="2" ry="2"/><rect class="c" x="162" y="66" rx="2" ry="2"/><rect class="c" x="162" y="82" rx="2" ry="2"/><rect class="c" x="162" y="98" rx="2" ry="2"/><rect class="c" x="178" y="2" rx="2" ry="2"/><rect class="c" x="178" y="18" rx="2" ry="2"/><rect class="c" x="178" y="34" rx="2" ry="2"/><rect class="c" x="178" y="50" rx="2" ry="2"/><rect class="c" x="178" y="66" rx="2" ry="2"/><rect class="c" x="178" y="82" rx="2" ry="2"/><rect class="c" x="178" y="98" rx="2" ry="2"/><rect class="c" x="194" y="2" rx="2" ry="2"/><rect class="c" x="194" y="18" rx="2" ry="2"/><rect class="c" x="194" y="34" rx="2" ry="2"/><rect class="c" x="194" y="50" rx="2" ry="2"/><rect class="c" x="194" y="66" rx="2" ry="2"/><rect class="c" x="194" y="82" rx="2" ry="2"/><rect class="c" x="194" y="98" rx="2" ry="2"/><rect class="c" x="210" y="2" rx="2" ry="2"/><rect class="c" x="210" y="18" rx="2" ry="2"/><rect class="c" x="210" y="34" rx="2" ry="2"/><rect class="c" x="210" y="50" rx="2" ry="2"/><rect class="c" x="210" y="66" rx="2" ry="2"/><rect class="c" x="210" y="82" rx="2" ry="2"/><rect class="c" x="210" y="98" rx="2" ry="2"/><rect class="c" x="226" y="2" rx="2" ry="2"/><rect class="c" x="226" y="18" rx="2" ry="2"/><rect class="c" x="226" y="34" rx="2" ry="2"/><rect class="c" x="226" y="50" rx="2" ry="2"/><rect class="c" x="226" y="66" rx="2" ry="2"/><rect class="c" x="226" y="82" rx="2" ry="2"/><rect class="c" x="226" y="98" rx="2" ry="2"/><rect class="c" x="242" y="2" rx="2" ry="2"/><rect class="c" x="242" y="18" rx="2" ry="2"/><rect class="c" x="242" y="34" rx="2" ry="2"/><rect class="c" x="242" y="50" rx="2" ry="2"/><rect class="c" x="242" y="66" rx="2" ry="2"/><rect class="c" x="242" y="82" rx="2" ry="2"/><rect class="c" x="242" y="98" rx="2" ry="2"/><rect class="c" x="258" y="2" rx="2" ry="2"/><rect class="c" x="258" y="18" rx="2" ry="2"/><rect class="c" x="258" y="34" rx="2" ry="2"/><rect class="c" x="258" y="50" rx="2" ry="2"/><rect class="c" x="258" y="66" rx="2" ry="2"/><rect class="c" x="258" y="82" rx="2" ry="2"/><rect class="c" x="258" y="98" rx="2" ry="2"/><rect class="c" x="274" y="2" rx="2" ry="2"/><rect class="c" x="274" y="18" rx="2" ry="2"/><rect class="c" x="274" y="34" rx="2" ry="2"/><rect class="c" x="274" y="50" rx="2" ry="2"/><rect class="c" x="274" y="66" rx="2" ry="2"/><rect class="c" x="274" y="82" rx="2" ry="2"/><rect class="c" x="274" y="98" rx="2" ry="2"/><rect class="c" x="290" y="2" rx="2" ry="2"/><rect class="c" x="290" y="18" rx="2" ry="2"/><rect class="c" x="290" y="34" rx="2" ry="2"/><rect class="c" x="290" y="50" rx="2" ry="2"/><rect class="c" x="290" y="66" rx="2" ry="2"/><rect class="c" x="290" y="82" rx="2" ry="2"/><rect class="c" x="290" y="98" rx="2" ry="2"/><rect class="c" x="306" y="2" rx="2" ry="2"/><rect class="c" x="306" y="18" rx="2" ry="2"/><rect class="c" x="306" y="34" rx="2" ry="2"/><rect class="c" x="306" y="50" rx="2" ry="2"/><rect class="c" x="306" y="66" rx="2" ry="2"/><rect class="c" x="306" y="82" rx="2" ry="2"/><rect class="c" x="306" y="98" rx="2" ry="2"/><rect class="c" x="322" y="2" rx="2" ry="2"/><rect class="c" x="322" y="18" rx="2" ry="2"/><rect class="c" x="322" y="34" rx="2" ry="2"/><rect class="c" x="322" y="50" rx="2" ry="2"/><rect class="c" x="322" y="66" rx="2" ry="2"/><rect class="c" x="322" y="82" rx="2" ry="2"/><rect class="c" x="322" y="98" rx="2" ry="2"/><rect class="c" x="338" y="2" rx="2" ry="2"/><rect class="c" x="338" y="18" rx="2" ry="2"/><rect class="c" x="338" y="34" rx="2" ry="2"/><rect class="c" x="338" y="50" rx="2" ry="2"/><rect class="c" x="338" y="66" rx="2" ry="2"/><rect class="c" x="338" y="82" rx="2" ry="2"/><rect class="c" x="338" y="98" rx="2" ry="2"/><rect class="c" x="354" y="2" rx="2" ry="2"/><rect class="c" x="354" y="18" rx="2" ry="2"/><rect class="c" x="354" y="34" rx="2" ry="2"/><rect class="c" x="354" y="50" rx="2" ry="2"/><rect class="c" x="354" y="66" rx="2" ry="2"/><rect class="c" x="354" y="82" rx="2" ry="2"/><rect class="c" x="354" y="98" rx="2" ry="2"/><rect class="c" x="370" y="2" rx="2" ry="2"/><rect class="c" x="370" y="18" rx="2" ry="2"/><rect class="c" x="370" y="34" rx="2" ry="2"/><rect class="c" x="370" y="50" rx="2" ry="2"/><rect class="c" x="370" y="66" rx="2" ry="2"/><rect class="c" x="370" y="82" rx="2" ry="2"/><rect class="c c0" x="370" y="98" rx="2" ry="2"/><rect class="c" x="386" y="2" rx="2" ry="2"/><rect class="c" x="386" y="18" rx="2" ry="2"/><rect class="c" x="386" y="34" rx="2" ry="2"/><rect class="c" x="386" y="50" rx="2" ry="2"/><rect class="c" x="386" y="66" rx="2" ry="2"/><rect class="c" x="386" y="82" rx="2" ry="2"/><rect class="c" x="386" y="98" rx="2" ry="2"/><rect class="c" x="402" y="2" rx="2" ry="2"/><rect class="c" x="402" y="18" rx="2" ry="2"/><rect class="c" x="402" y="34" rx="2" ry="2"/><rect class="c" x="402" y="50" rx="2" ry="2"/><rect class="c" x="402" y="66" rx="2" ry="2"/><rect class="c" x="402" y="82" rx="2" ry="2"/><rect class="c" x="402" y="98" rx="2" ry="2"/><rect class="c" x="418" y="2" rx="2" ry="2"/><rect class="c" x="418" y="18" rx="2" ry="2"/><rect class="c" x="418" y="34" rx="2" ry="2"/><rect class="c" x="418" y="50" rx="2" ry="2"/><rect class="c" x="418" y="66" rx="2" ry="2"/><rect class="c" x="418" y="82" rx="2" ry="2"/><rect class="c" x="418" y="98" rx="2" ry="2"/><rect class="c" x="434" y="2" rx="2" ry="2"/><rect class="c" x="434" y="18" rx="2" ry="2"/><rect class="c" x="434" y="34" rx="2" ry="2"/><rect class="c" x="434" y="50" rx="2" ry="2"/><rect class="c" x="434" y="66" rx="2" ry="2"/><rect class="c" x="434" y="82" rx="2" ry="2"/><rect class="c" x="434" y="98" rx="2" ry="2"/><rect class="c" x="450" y="2" rx="2" ry="2"/><rect class="c" x="450" y="18" rx="2" ry="2"/><rect class="c" x="450" y="34" rx="2" ry="2"/><rect class="c" x="450" y="50" rx="2" ry="2"/><rect class="c" x="450" y="66" rx="2" ry="2"/><rect class="c" x="450" y="82" rx="2" ry="2"/><rect class="c" x="450" y="98" rx="2" ry="2"/><rect class="c" x="466" y="2" rx="2" ry="2"/><rect class="c" x="466" y="18" rx="2" ry="2"/><rect class="c" x="466" y="34" rx="2" ry="2"/><rect class="c" x="466" y="50" rx="2" ry="2"/><rect class="c" x="466" y="66" rx="2" ry="2"/><rect class="c" x="466" y="82" rx="2" ry="2"/><rect class="c" x="466" y="98" rx="2" ry="2"/><rect class="c" x="482" y="2" rx="2" ry="2"/><rect class="c" x="482" y="18" rx="2" ry="2"/><rect class="c" x="482" y="34" rx="2" ry="2"/><rect class="c" x="482" y="50" rx="2" ry="2"/><rect class="c c1" x="482" y="66" rx="2" ry="2"/><rect class="c c2" x="482" y="82" rx="2" ry="2"/><rect class="c" x="482" y="98" rx="2" ry="2"/><rect class="c" x="498" y="2" rx="2" ry="2"/><rect class="c" x="498" y="18" rx="2" ry="2"/><rect class="c" x="498" y="34" rx="2" ry="2"/><rect class="c" x="498" y="50" rx="2" ry="2"/><rect class="c" x="498" y="66" rx="2" ry="2"/><rect class="c" x="498" y="82" rx="2" ry="2"/><rect class="c c3" x="498" y="98" rx="2" ry="2"/><rect class="c" x="514" y="2" rx="2" ry="2"/><rect class="c c4" x="514" y="18" rx="2" ry="2"/><rect class="c c5" x="514" y="34" rx="2" ry="2"/><rect class="c c6" x="514" y="50" rx="2" ry="2"/><rect class="c c7" x="514" y="66" rx="2" ry="2"/><rect class="c c8" x="514" y="82" rx="2" ry="2"/><rect class="c c9" x="514" y="98" rx="2" ry="2"/><rect class="c ca" x="530" y="2" rx="2" ry="2"/><rect class="c cb" x="530" y="18" rx="2" ry="2"/><rect class="c cc" x="530" y="34" rx="2" ry="2"/><rect class="c cd" x="530" y="50" rx="2" ry="2"/><rect class="c" x="530" y="66" rx="2" ry="2"/><rect class="c" x="530" y="82" rx="2" ry="2"/><rect class="c ce" x="530" y="98" rx="2" ry="2"/><rect class="c cf" x="546" y="2" rx="2" ry="2"/><rect class="c" x="546" y="18" rx="2" ry="2"/><rect class="c" x="546" y="34" rx="2" ry="2"/><rect class="c" x="546" y="50" rx="2" ry="2"/><rect class="c" x="546" y="66" rx="2" ry="2"/><rect class="c cg" x="546" y="82" rx="2" ry="2"/><rect class="c ch" x="546" y="98" rx="2" ry="2"/><rect class="c" x="562" y="2" rx="2" ry="2"/><rect class="c" x="562" y="18" rx="2" ry="2"/><rect class="c ci" x="562" y="34" rx="2" ry="2"/><rect class="c cj" x="562" y="50" rx="2" ry="2"/><rect class="c ck" x="562" y="66" rx="2" ry="2"/><rect class="c cl" x="562" y="82" rx="2" ry="2"/><rect class="c cm" x="562" y="98" rx="2" ry="2"/><rect class="c cn" x="578" y="2" rx="2" ry="2"/><rect class="c co" x="578" y="18" rx="2" ry="2"/><rect class="c cp" x="578" y="34" rx="2" ry="2"/><rect class="c cq" x="578" y="50" rx="2" ry="2"/><rect class="c" x="578" y="66" rx="2" ry="2"/><rect class="c cr" x="578" y="82" rx="2" ry="2"/><rect class="c cs" x="578" y="98" rx="2" ry="2"/><rect class="c" x="594" y="2" rx="2" ry="2"/><rect class="c" x="594" y="18" rx="2" ry="2"/><rect class="c" x="594" y="34" rx="2" ry="2"/><rect class="c ct" x="594" y="50" rx="2" ry="2"/><rect class="c cu" x="594" y="66" rx="2" ry="2"/><rect class="c" x="594" y="82" rx="2" ry="2"/><rect class="c" x="594" y="98" rx="2" ry="2"/><rect class="c" x="610" y="2" rx="2" ry="2"/><rect class="c" x="610" y="18" rx="2" ry="2"/><rect class="c cv" x="610" y="34" rx="2" ry="2"/><rect class="c cw" x="610" y="50" rx="2" ry="2"/><rect class="c cx" x="610" y="66" rx="2" ry="2"/><rect class="c" x="610" y="82" rx="2" ry="2"/><rect class="c" x="610" y="98" rx="2" ry="2"/><rect class="c" x="626" y="2" rx="2" ry="2"/><rect class="c" x="626" y="18" rx="2" ry="2"/><rect class="c" x="626" y="34" rx="2" ry="2"/><rect class="c" x="626" y="50" rx="2" ry="2"/><rect class="c" x="626" y="66" rx="2" ry="2"/><rect class="c" x="626" y="82" rx="2" ry="2"/><rect class="c" x="626" y="98" rx="2" ry="2"/><rect class="c cy" x="642" y="2" rx="2" ry="2"/><rect class="c" x="642" y="18" rx="2" ry="2"/><rect class="c" x="642" y="34" rx="2" ry="2"/><rect class="c cz" x="642" y="50" rx="2" ry="2"/><rect class="c c10" x="642" y="66" rx="2" ry="2"/><rect class="c c11" x="642" y="82" rx="2" ry="2"/><rect class="c" x="642" y="98" rx="2" ry="2"/><rect class="c" x="658" y="2" rx="2" ry="2"/><rect class="c" x="658" y="18" rx="2" ry="2"/><rect class="c" x="658" y="34" rx="2" ry="2"/><rect class="c c12" x="658" y="50" rx="2" ry="2"/><rect class="c" x="658" y="66" rx="2" ry="2"/><rect class="c c13" x="658" y="82" rx="2" ry="2"/><rect class="c" x="658" y="98" rx="2" ry="2"/><rect class="c" x="674" y="2" rx="2" ry="2"/><rect class="c" x="674" y="18" rx="2" ry="2"/><rect class="c c14" x="674" y="34" rx="2" ry="2"/><rect class="c" x="674" y="50" rx="2" ry="2"/><rect class="c c15" x="674" y="66" rx="2" ry="2"/><rect class="c c16" x="674" y="82" rx="2" ry="2"/><rect class="c c17" x="674" y="98" rx="2" ry="2"/><rect class="c c18" x="690" y="2" rx="2" ry="2"/><rect class="c c19" x="690" y="18" rx="2" ry="2"/><rect class="c" x="690" y="34" rx="2" ry="2"/><rect class="c c1a" x="690" y="50" rx="2" ry="2"/><rect class="c c1b" x="690" y="66" rx="2" ry="2"/><rect class="c c1c" x="690" y="82" rx="2" ry="2"/><rect class="c c1d" x="690" y="98" rx="2" ry="2"/><rect class="c c1e" x="706" y="2" rx="2" ry="2"/><rect class="c c1f" x="706" y="18" rx="2" ry="2"/><rect class="c" x="706" y="34" rx="2" ry="2"/><rect class="c c1g" x="706" y="50" rx="2" ry="2"/><rect class="c c1h" x="706" y="66" rx="2" ry="2"/><rect class="c c1i" x="706" y="82" rx="2" ry="2"/><rect class="c c1j" x="706" y="98" rx="2" ry="2"/><rect class="c" x="722" y="2" rx="2" ry="2"/><rect class="c c1k" x="722" y="18" rx="2" ry="2"/><rect class="c" x="722" y="34" rx="2" ry="2"/><rect class="c" x="722" y="50" rx="2" ry="2"/><rect class="c" x="722" y="66" rx="2" ry="2"/><rect class="c c1l" x="722" y="82" rx="2" ry="2"/><rect class="c" x="722" y="98" rx="2" ry="2"/><rect class="c" x="738" y="2" rx="2" ry="2"/><rect class="c c1m" x="738" y="18" rx="2" ry="2"/><rect class="c" x="738" y="34" rx="2" ry="2"/><rect class="c" x="738" y="50" rx="2" ry="2"/><rect class="c" x="738" y="66" rx="2" ry="2"/><rect class="c c1n" x="738" y="82" rx="2" ry="2"/><rect class="c c1o" x="738" y="98" rx="2" ry="2"/><rect class="c c1p" x="754" y="2" rx="2" ry="2"/><rect class="c c1q" x="754" y="18" rx="2" ry="2"/><rect class="c c1r" x="754" y="34" rx="2" ry="2"/><rect class="c" x="754" y="50" rx="2" ry="2"/><rect class="c c1s" x="754" y="66" rx="2" ry="2"/><rect class="c c1t" x="754" y="82" rx="2" ry="2"/><rect class="c c1u" x="754" y="98" rx="2" ry="2"/><rect class="c c1v" x="770" y="2" rx="2" ry="2"/><rect class="c c1w" x="770" y="18" rx="2" ry="2"/><rect class="c c1x" x="770" y="34" rx="2" ry="2"/><rect class="c c1y" x="770" y="50" rx="2" ry="2"/><rect class="c c1z" x="770" y="66" rx="2" ry="2"/><rect class="c" x="770" y="82" rx="2" ry="2"/><rect class="c c20" x="770" y="98" rx="2" ry="2"/><rect class="c c21" x="786" y="2" rx="2" ry="2"/><rect class="c c22" x="786" y="18" rx="2" ry="2"/><rect class="c c23" x="786" y="34" rx="2" ry="2"/><rect class="c c24" x="786" y="50" rx="2" ry="2"/><rect class="c c25" x="786" y="66" rx="2" ry="2"/><rect class="c" x="786" y="82" rx="2" ry="2"/><rect class="c c26" x="786" y="98" rx="2" ry="2"/><rect class="c c27" x="802" y="2" rx="2" ry="2"/><rect class="c c28" x="802" y="18" rx="2" ry="2"/><rect class="c c29" x="802" y="34" rx="2" ry="2"/><rect class="c c2a" x="802" y="50" rx="2" ry="2"/><rect class="c c2b" x="802" y="66" rx="2" ry="2"/><rect class="c c2c" x="802" y="82" rx="2" ry="2"/><rect class="c c2d" x="802" y="98" rx="2" ry="2"/><rect class="c c2e" x="818" y="2" rx="2" ry="2"/><rect class="c c2f" x="818" y="18" rx="2" ry="2"/><rect class="c c2g" x="818" y="34" rx="2" ry="2"/><rect class="c c2h" x="818" y="50" rx="2" ry="2"/><rect class="c c2i" x="818" y="66" rx="2" ry="2"/><rect class="c c2j" x="818" y="82" rx="2" ry="2"/><rect class="c c2k" x="818" y="98" rx="2" ry="2"/><rect class="c" x="834" y="2" rx="2" ry="2"/><rect class="c c2l" x="834" y="18" rx="2" ry="2"/><rect class="c c2m" x="834" y="34" rx="2" ry="2"/><rect class="c c2n" x="834" y="50" rx="2" ry="2"/><rect class="c c2o" x="834" y="66" rx="2" ry="2"/><rect class="c" x="834" y="82" rx="2" ry="2"/><rect class="u u0" height="12" width="787.4" x="0.0" y="144"/><rect class="u u1" height="12" width="53.1" x="786.8" y="144"/><rect class="u u2" height="12" width="9.3" x="839.3" y="144"/><rect class="s s0" x="0.8" y="0.8" width="14.4" height="14.4" rx="4.5" ry="4.5"/><rect class="s s1" x="1.8" y="1.8" width="12.3" height="12.3" rx="4.1" ry="4.1"/><rect class="s s2" x="2.6" y="2.6" width="10.8" height="10.8" rx="3.6" ry="3.6"/><rect class="s s3" x="3.0" y="3.0" width="9.9" height="9.9" rx="3.3" ry="3.3"/></svg>