<svg viewBox="-16 -32 880 192" width="880" height="192" xmlns="http://www.w3.org/2000/svg"><desc>Generated with https://github.com/Platane/snk</desc><style>:root{--cb:#1b1f230a;--cs:purple;--ce:#161b22;--c0:#161b22;--c1:#01311f;--c2:#034525;--c3:#0f6d31;--c4:#00c647}.c{shape-rendering:geometricPrecision;fill:var(--ce);stroke-width:1px;stroke:var(--cb);animation:none 28100ms linear infinite;width:12px;height:12px}@keyframes c0{9.24%{fill:var(--c1)}9.26%,100%{fill:var(--ce)}}.c.c0{fill:var(--c1);animation-name:c0}@keyframes c1{73.66%{fill:var(--c1)}73.68%,100%{fill:var(--ce)}}.c.c1{fill:var(--c1);animation-name:c1}@keyframes c2{74.01%{fill:var(--c1)}74.03%,100%{fill:var(--ce)}}.c.c2{fill:var(--c1);animation-name:c2}@keyframes c3{12.09%{fill:var(--c1)}12.11%,100%{fill:var(--ce)}}.c.c3{fill:var(--c1);animation-name:c3}@keyframes c4{71.88%{fill:var(--c1)}71.9%,100%{fill:var(--ce)}}.c.c4{fill:var(--c1);animation-name:c4}@keyframes c5{72.23%{fill:var(--c1)}72.25%,100%{fill:var(--ce)}}.c.c5{fill:var(--c1);animation-name:c5}@keyframes c6{16.36%{fill:var(--c1)}16.38%,100%{fill:var(--ce)}}.c.c6{fill:var(--c1);animation-name:c6}@keyframes c7{16%{fill:var(--c1)}16.02%,100%{fill:var(--ce)}}.c.c7{fill:var(--c1);animation-name:c7}@keyframes c8{15.65%{fill:var(--c1)}15.67%,100%{fill:var(--ce)}}.c.c8{fill:var(--c1);animation-name:c8}@keyframes c9{12.45%{fill:var(--c1)}12.47%,100%{fill:var(--ce)}}.c.c9{fill:var(--c1);animation-name:c9}@keyframes ca{17.78%{fill:var(--c1)}17.8%,100%{fill:var(--ce)}}.c.ca{fill:var(--c1);animation-name:ca}@keyframes cb{17.43%{fill:var(--c1)}17.45%,100%{fill:var(--ce)}}.c.cb{fill:var(--c1);animation-name:cb}@keyframes cc{17.07%{fill:var(--c1)}17.09%,100%{fill:var(--ce)}}.c.cc{fill:var(--c1);animation-name:cc}@keyframes cd{16.72%{fill:var(--c1)}16.74%,100%{fill:var(--ce)}}.c.cd{fill:var(--c1);animation-name:cd}@keyframes ce{12.8%{fill:var(--c1)}12.82%,100%{fill:var(--ce)}}.c.ce{fill:var(--c1);animation-name:ce}@keyframes cf{18.14%{fill:var(--c1)}18.16%,100%{fill:var(--ce)}}.c.cf{fill:var(--c1);animation-name:cf}@keyframes cg{14.94%{fill:var(--c1)}14.96%,100%{fill:var(--ce)}}.c.cg{fill:var(--c1);animation-name:cg}@keyframes ch{13.16%{fill:var(--c1)}13.18%,100%{fill:var(--ce)}}.c.ch{fill:var(--c1);animation-name:ch}@keyframes ci{19.92%{fill:var(--c1)}19.94%,100%{fill:var(--ce)}}.c.ci{fill:var(--c1);animation-name:ci}@keyframes cj{20.27%{fill:var(--c1)}20.29%,100%{fill:var(--ce)}}.c.cj{fill:var(--c1);animation-name:cj}@keyframes ck{76.15%{fill:var(--c2)}76.17%,100%{fill:var(--ce)}}.c.ck{fill:var(--c2);animation-name:ck}@keyframes cl{14.58%{fill:var(--c1)}14.6%,100%{fill:var(--ce)}}.c.cl{fill:var(--c1);animation-name:cl}@keyframes cm{13.51%{fill:var(--c1)}13.53%,100%{fill:var(--ce)}}.c.cm{fill:var(--c1);animation-name:cm}@keyframes cn{18.85%{fill:var(--c1)}18.87%,100%{fill:var(--ce)}}.c.cn{fill:var(--c1);animation-name:cn}@keyframes co{19.21%{fill:var(--c1)}19.23%,100%{fill:var(--ce)}}.c.co{fill:var(--c1);animation-name:co}@keyframes cp{19.56%{fill:var(--c1)}19.58%,100%{fill:var(--ce)}}.c.cp{fill:var(--c1);animation-name:cp}@keyframes cq{20.63%{fill:var(--c1)}20.65%,100%{fill:var(--ce)}}.c.cq{fill:var(--c1);animation-name:cq}@keyframes cr{14.22%{fill:var(--c1)}14.24%,100%{fill:var(--ce)}}.c.cr{fill:var(--c1);animation-name:cr}@keyframes cs{13.87%{fill:var(--c1)}13.89%,100%{fill:var(--ce)}}.c.cs{fill:var(--c1);animation-name:cs}@keyframes ct{20.99%{fill:var(--c1)}21.01%,100%{fill:var(--ce)}}.c.ct{fill:var(--c1);animation-name:ct}@keyframes cu{59.78%{fill:var(--c1)}59.8%,100%{fill:var(--ce)}}.c.cu{fill:var(--c1);animation-name:cu}@keyframes cv{21.7%{fill:var(--c1)}21.72%,100%{fill:var(--ce)}}.c.cv{fill:var(--c1);animation-name:cv}@keyframes cw{21.34%{fill:var(--c1)}21.36%,100%{fill:var(--ce)}}.c.cw{fill:var(--c1);animation-name:cw}@keyframes cx{59.42%{fill:var(--c1)}59.44%,100%{fill:var(--ce)}}.c.cx{fill:var(--c1);animation-name:cx}@keyframes cy{68.67%{fill:var(--c1)}68.69%,100%{fill:var(--ce)}}.c.cy{fill:var(--c1);animation-name:cy}@keyframes cz{22.77%{fill:var(--c1)}22.79%,100%{fill:var(--ce)}}.c.cz{fill:var(--c1);animation-name:cz}@keyframes c10{77.93%{fill:var(--c2)}77.95%,100%{fill:var(--ce)}}.c.c10{fill:var(--c2);animation-name:c10}@keyframes c11{58.35%{fill:var(--c1)}58.37%,100%{fill:var(--ce)}}.c.c11{fill:var(--c1);animation-name:c11}@keyframes c12{23.12%{fill:var(--c1)}23.14%,100%{fill:var(--ce)}}.c.c12{fill:var(--c1);animation-name:c12}@keyframes c13{46.61%{fill:var(--c1)}46.63%,100%{fill:var(--ce)}}.c.c13{fill:var(--c1);animation-name:c13}@keyframes c14{62.27%{fill:var(--c1)}62.29%,100%{fill:var(--ce)}}.c.c14{fill:var(--c1);animation-name:c14}@keyframes c15{45.9%{fill:var(--c1)}45.92%,100%{fill:var(--ce)}}.c.c15{fill:var(--c1);animation-name:c15}@keyframes c16{46.97%{fill:var(--c1)}46.99%,100%{fill:var(--ce)}}.c.c16{fill:var(--c1);animation-name:c16}@keyframes c17{57.29%{fill:var(--c1)}57.31%,100%{fill:var(--ce)}}.c.c17{fill:var(--c1);animation-name:c17}@keyframes c18{63.34%{fill:var(--c1)}63.36%,100%{fill:var(--ce)}}.c.c18{fill:var(--c1);animation-name:c18}@keyframes c19{62.98%{fill:var(--c1)}63%,100%{fill:var(--ce)}}.c.c19{fill:var(--c1);animation-name:c19}@keyframes c1a{23.83%{fill:var(--c1)}23.85%,100%{fill:var(--ce)}}.c.c1a{fill:var(--c1);animation-name:c1a}@keyframes c1b{45.54%{fill:var(--c1)}45.56%,100%{fill:var(--ce)}}.c.c1b{fill:var(--c1);animation-name:c1b}@keyframes c1c{47.32%{fill:var(--c1)}47.34%,100%{fill:var(--ce)}}.c.c1c{fill:var(--c1);animation-name:c1c}@keyframes c1d{56.93%{fill:var(--c1)}56.95%,100%{fill:var(--ce)}}.c.c1d{fill:var(--c1);animation-name:c1d}@keyframes c1e{63.69%{fill:var(--c1)}63.71%,100%{fill:var(--ce)}}.c.c1e{fill:var(--c1);animation-name:c1e}@keyframes c1f{24.9%{fill:var(--c1)}24.92%,100%{fill:var(--ce)}}.c.c1f{fill:var(--c1);animation-name:c1f}@keyframes c1g{24.19%{fill:var(--c1)}24.21%,100%{fill:var(--ce)}}.c.c1g{fill:var(--c1);animation-name:c1g}@keyframes c1h{45.19%{fill:var(--c1)}45.21%,100%{fill:var(--ce)}}.c.c1h{fill:var(--c1);animation-name:c1h}@keyframes c1i{47.68%{fill:var(--c1)}47.7%,100%{fill:var(--ce)}}.c.c1i{fill:var(--c1);animation-name:c1i}@keyframes c1j{56.57%{fill:var(--c1)}56.59%,100%{fill:var(--ce)}}.c.c1j{fill:var(--c1);animation-name:c1j}@keyframes c1k{25.26%{fill:var(--c1)}25.28%,100%{fill:var(--ce)}}.c.c1k{fill:var(--c1);animation-name:c1k}@keyframes c1l{48.03%{fill:var(--c1)}48.05%,100%{fill:var(--ce)}}.c.c1l{fill:var(--c1);animation-name:c1l}@keyframes c1m{25.61%{fill:var(--c1)}25.63%,100%{fill:var(--ce)}}.c.c1m{fill:var(--c1);animation-name:c1m}@keyframes c1n{48.39%{fill:var(--c1)}48.41%,100%{fill:var(--ce)}}.c.c1n{fill:var(--c1);animation-name:c1n}@keyframes c1o{55.86%{fill:var(--c1)}55.88%,100%{fill:var(--ce)}}.c.c1o{fill:var(--c1);animation-name:c1o}@keyframes c1p{64.76%{fill:var(--c1)}64.78%,100%{fill:var(--ce)}}.c.c1p{fill:var(--c1);animation-name:c1p}@keyframes c1q{82.2%{fill:var(--c2)}82.22%,100%{fill:var(--ce)}}.c.c1q{fill:var(--c2);animation-name:c1q}@keyframes c1r{81.13%{fill:var(--c2)}81.15%,100%{fill:var(--ce)}}.c.c1r{fill:var(--c2);animation-name:c1r}@keyframes c1s{44.12%{fill:var(--c1)}44.14%,100%{fill:var(--ce)}}.c.c1s{fill:var(--c1);animation-name:c1s}@keyframes c1t{48.74%{fill:var(--c1)}48.76%,100%{fill:var(--ce)}}.c.c1t{fill:var(--c1);animation-name:c1t}@keyframes c1u{55.51%{fill:var(--c1)}55.53%,100%{fill:var(--ce)}}.c.c1u{fill:var(--c1);animation-name:c1u}@keyframes c1v{65.11%{fill:var(--c1)}65.13%,100%{fill:var(--ce)}}.c.c1v{fill:var(--c1);animation-name:c1v}@keyframes c1w{81.84%{fill:var(--c2)}81.86%,100%{fill:var(--ce)}}.c.c1w{fill:var(--c2);animation-name:c1w}@keyframes c1x{81.48%{fill:var(--c2)}81.5%,100%{fill:var(--ce)}}.c.c1x{fill:var(--c2);animation-name:c1x}@keyframes c1y{27.04%{fill:var(--c1)}27.06%,100%{fill:var(--ce)}}.c.c1y{fill:var(--c1);animation-name:c1y}@keyframes c1z{43.76%{fill:var(--c1)}43.78%,100%{fill:var(--ce)}}.c.c1z{fill:var(--c1);animation-name:c1z}@keyframes c20{55.15%{fill:var(--c1)}55.17%,100%{fill:var(--ce)}}.c.c20{fill:var(--c1);animation-name:c20}@keyframes c21{83.26%{fill:var(--c4)}83.28%,100%{fill:var(--ce)}}.c.c21{fill:var(--c4);animation-name:c21}@keyframes c22{36.64%{fill:var(--c1)}36.66%,100%{fill:var(--ce)}}.c.c22{fill:var(--c1);animation-name:c22}@keyframes c23{37%{fill:var(--c1)}37.02%,100%{fill:var(--ce)}}.c.c23{fill:var(--c1);animation-name:c23}@keyframes c24{27.39%{fill:var(--c1)}27.41%,100%{fill:var(--ce)}}.c.c24{fill:var(--c1);animation-name:c24}@keyframes c25{43.41%{fill:var(--c1)}43.43%,100%{fill:var(--ce)}}.c.c25{fill:var(--c1);animation-name:c25}@keyframes c26{49.81%{fill:var(--c1)}49.83%,100%{fill:var(--ce)}}.c.c26{fill:var(--c1);animation-name:c26}@keyframes c27{35.93%{fill:var(--c1)}35.95%,100%{fill:var(--ce)}}.c.c27{fill:var(--c1);animation-name:c27}@keyframes c28{36.29%{fill:var(--c1)}36.31%,100%{fill:var(--ce)}}.c.c28{fill:var(--c1);animation-name:c28}@keyframes c29{37.36%{fill:var(--c1)}37.38%,100%{fill:var(--ce)}}.c.c29{fill:var(--c1);animation-name:c29}@keyframes c2a{27.75%{fill:var(--c1)}27.77%,100%{fill:var(--ce)}}.c.c2a{fill:var(--c1);animation-name:c2a}@keyframes c2b{43.05%{fill:var(--c1)}43.07%,100%{fill:var(--ce)}}.c.c2b{fill:var(--c1);animation-name:c2b}@keyframes c2c{42.69%{fill:var(--c1)}42.71%,100%{fill:var(--ce)}}.c.c2c{fill:var(--c1);animation-name:c2c}@keyframes c2d{50.17%{fill:var(--c1)}50.19%,100%{fill:var(--ce)}}.c.c2d{fill:var(--c1);animation-name:c2d}@keyframes c2e{35.58%{fill:var(--c1)}35.6%,100%{fill:var(--ce)}}.c.c2e{fill:var(--c1);animation-name:c2e}@keyframes c2f{35.22%{fill:var(--c1)}35.24%,100%{fill:var(--ce)}}.c.c2f{fill:var(--c1);animation-name:c2f}@keyframes c2g{37.71%{fill:var(--c1)}37.73%,100%{fill:var(--ce)}}.c.c2g{fill:var(--c1);animation-name:c2g}@keyframes c2h{28.1%{fill:var(--c1)}28.12%,100%{fill:var(--ce)}}.c.c2h{fill:var(--c1);animation-name:c2h}@keyframes c2i{38.42%{fill:var(--c1)}38.44%,100%{fill:var(--ce)}}.c.c2i{fill:var(--c1);animation-name:c2i}@keyframes c2j{42.34%{fill:var(--c1)}42.36%,100%{fill:var(--ce)}}.c.c2j{fill:var(--c1);animation-name:c2j}@keyframes c2k{50.52%{fill:var(--c1)}50.54%,100%{fill:var(--ce)}}.c.c2k{fill:var(--c1);animation-name:c2k}@keyframes c2l{34.87%{fill:var(--c1)}34.89%,100%{fill:var(--ce)}}.c.c2l{fill:var(--c1);animation-name:c2l}@keyframes c2m{34.51%{fill:var(--c1)}34.53%,100%{fill:var(--ce)}}.c.c2m{fill:var(--c1);animation-name:c2m}@keyframes c2n{28.46%{fill:var(--c1)}28.48%,100%{fill:var(--ce)}}.c.c2n{fill:var(--c1);animation-name:c2n}@keyframes c2o{38.78%{fill:var(--c1)}38.8%,100%{fill:var(--ce)}}.c.c2o{fill:var(--c1);animation-name:c2o}@keyframes c2p{50.88%{fill:var(--c1)}50.9%,100%{fill:var(--ce)}}.c.c2p{fill:var(--c1);animation-name:c2p}@keyframes c2q{32.02%{fill:var(--c1)}32.04%,100%{fill:var(--ce)}}.c.c2q{fill:var(--c1);animation-name:c2q}@keyframes c2r{32.37%{fill:var(--c1)}32.39%,100%{fill:var(--ce)}}.c.c2r{fill:var(--c1);animation-name:c2r}@keyframes c2s{34.15%{fill:var(--c1)}34.17%,100%{fill:var(--ce)}}.c.c2s{fill:var(--c1);animation-name:c2s}@keyframes c2t{28.82%{fill:var(--c1)}28.84%,100%{fill:var(--ce)}}.c.c2t{fill:var(--c1);animation-name:c2t}@keyframes c2u{41.63%{fill:var(--c1)}41.65%,100%{fill:var(--ce)}}.c.c2u{fill:var(--c1);animation-name:c2u}@keyframes c2v{31.66%{fill:var(--c1)}31.68%,100%{fill:var(--ce)}}.c.c2v{fill:var(--c1);animation-name:c2v}@keyframes c2w{32.73%{fill:var(--c1)}32.75%,100%{fill:var(--ce)}}.c.c2w{fill:var(--c1);animation-name:c2w}@keyframes c2x{33.8%{fill:var(--c1)}33.82%,100%{fill:var(--ce)}}.c.c2x{fill:var(--c1);animation-name:c2x}@keyframes c2y{29.17%{fill:var(--c1)}29.19%,100%{fill:var(--ce)}}.c.c2y{fill:var(--c1);animation-name:c2y}@keyframes c2z{39.49%{fill:var(--c1)}39.51%,100%{fill:var(--ce)}}.c.c2z{fill:var(--c1);animation-name:c2z}@keyframes c30{41.27%{fill:var(--c1)}41.29%,100%{fill:var(--ce)}}.c.c30{fill:var(--c1);animation-name:c30}@keyframes c31{51.59%{fill:var(--c1)}51.61%,100%{fill:var(--ce)}}.c.c31{fill:var(--c1);animation-name:c31}@keyframes c32{33.09%{fill:var(--c1)}33.11%,100%{fill:var(--ce)}}.c.c32{fill:var(--c1);animation-name:c32}@keyframes c33{29.88%{fill:var(--c1)}29.9%,100%{fill:var(--ce)}}.c.c33{fill:var(--c1);animation-name:c33}@keyframes c34{29.53%{fill:var(--c1)}29.55%,100%{fill:var(--ce)}}.c.c34{fill:var(--c1);animation-name:c34}@keyframes c35{40.92%{fill:var(--c1)}40.94%,100%{fill:var(--ce)}}.c.c35{fill:var(--c1);animation-name:c35}@keyframes c36{51.95%{fill:var(--c1)}51.97%,100%{fill:var(--ce)}}.c.c36{fill:var(--c1);animation-name:c36}@keyframes c37{30.95%{fill:var(--c1)}30.97%,100%{fill:var(--ce)}}.c.c37{fill:var(--c1);animation-name:c37}@keyframes c38{30.24%{fill:var(--c1)}30.26%,100%{fill:var(--ce)}}.c.c38{fill:var(--c1);animation-name:c38}@keyframes c39{40.2%{fill:var(--c1)}40.22%,100%{fill:var(--ce)}}.c.c39{fill:var(--c1);animation-name:c39}.u{transform-origin:0 0;transform:scale(0,1);animation:none linear 28100ms infinite}@keyframes u0{9.24%{transform:scale(0.000,1)}9.26%,12.09%{transform:scale(0.009,1)}12.11%,12.45%{transform:scale(0.018,1)}12.47%,12.8%{transform:scale(0.027,1)}12.82%,13.16%{transform:scale(0.036,1)}13.18%,13.51%{transform:scale(0.045,1)}13.53%,13.87%{transform:scale(0.054,1)}13.89%,14.22%{transform:scale(0.063,1)}14.24%,14.58%{transform:scale(0.072,1)}14.6%,14.94%{transform:scale(0.081,1)}14.96%,15.65%{transform:scale(0.090,1)}15.67%,16%{transform:scale(0.099,1)}16.02%,16.36%{transform:scale(0.108,1)}16.38%,16.72%{transform:scale(0.117,1)}16.74%,17.07%{transform:scale(0.126,1)}17.09%,17.43%{transform:scale(0.135,1)}17.45%,17.78%{transform:scale(0.144,1)}17.8%,18.14%{transform:scale(0.153,1)}18.16%,18.85%{transform:scale(0.162,1)}18.87%,19.21%{transform:scale(0.171,1)}19.23%,19.56%{transform:scale(0.180,1)}19.58%,19.92%{transform:scale(0.189,1)}19.94%,20.27%{transform:scale(0.198,1)}20.29%,20.63%{transform:scale(0.207,1)}20.65%,20.99%{transform:scale(0.216,1)}21.01%,21.34%{transform:scale(0.225,1)}21.36%,21.7%{transform:scale(0.234,1)}21.72%,22.77%{transform:scale(0.243,1)}22.79%,23.12%{transform:scale(0.252,1)}23.14%,23.83%{transform:scale(0.261,1)}23.85%,24.19%{transform:scale(0.270,1)}24.21%,24.9%{transform:scale(0.279,1)}24.92%,25.26%{transform:scale(0.288,1)}25.28%,25.61%{transform:scale(0.297,1)}25.63%,27.04%{transform:scale(0.306,1)}27.06%,27.39%{transform:scale(0.315,1)}27.41%,27.75%{transform:scale(0.324,1)}27.77%,28.1%{transform:scale(0.333,1)}28.12%,28.46%{transform:scale(0.342,1)}28.48%,28.82%{transform:scale(0.351,1)}28.84%,29.17%{transform:scale(0.360,1)}29.19%,29.53%{transform:scale(0.369,1)}29.55%,29.88%{transform:scale(0.378,1)}29.9%,30.24%{transform:scale(0.387,1)}30.26%,30.95%{transform:scale(0.396,1)}30.97%,31.66%{transform:scale(0.405,1)}31.68%,32.02%{transform:scale(0.414,1)}32.04%,32.37%{transform:scale(0.423,1)}32.39%,32.73%{transform:scale(0.432,1)}32.75%,33.09%{transform:scale(0.441,1)}33.11%,33.8%{transform:scale(0.450,1)}33.82%,34.15%{transform:scale(0.459,1)}34.17%,34.51%{transform:scale(0.468,1)}34.53%,34.87%{transform:scale(0.477,1)}34.89%,35.22%{transform:scale(0.486,1)}35.24%,35.58%{transform:scale(0.495,1)}35.6%,35.93%{transform:scale(0.505,1)}35.95%,36.29%{transform:scale(0.514,1)}36.31%,36.64%{transform:scale(0.523,1)}36.66%,37%{transform:scale(0.532,1)}37.02%,37.36%{transform:scale(0.541,1)}37.38%,37.71%{transform:scale(0.550,1)}37.73%,38.42%{transform:scale(0.559,1)}38.44%,38.78%{transform:scale(0.568,1)}38.8%,39.49%{transform:scale(0.577,1)}39.51%,40.2%{transform:scale(0.586,1)}40.22%,40.92%{transform:scale(0.595,1)}40.94%,41.27%{transform:scale(0.604,1)}41.29%,41.63%{transform:scale(0.613,1)}41.65%,42.34%{transform:scale(0.622,1)}42.36%,42.69%{transform:scale(0.631,1)}42.71%,43.05%{transform:scale(0.640,1)}43.07%,43.41%{transform:scale(0.649,1)}43.43%,43.76%{transform:scale(0.658,1)}43.78%,44.12%{transform:scale(0.667,1)}44.14%,45.19%{transform:scale(0.676,1)}45.21%,45.54%{transform:scale(0.685,1)}45.56%,45.9%{transform:scale(0.694,1)}45.92%,46.61%{transform:scale(0.703,1)}46.63%,46.97%{transform:scale(0.712,1)}46.99%,47.32%{transform:scale(0.721,1)}47.34%,47.68%{transform:scale(0.730,1)}47.7%,48.03%{transform:scale(0.739,1)}48.05%,48.39%{transform:scale(0.748,1)}48.41%,48.74%{transform:scale(0.757,1)}48.76%,49.81%{transform:scale(0.766,1)}49.83%,50.17%{transform:scale(0.775,1)}50.19%,50.52%{transform:scale(0.784,1)}50.54%,50.88%{transform:scale(0.793,1)}50.9%,51.59%{transform:scale(0.802,1)}51.61%,51.95%{transform:scale(0.811,1)}51.97%,55.15%{transform:scale(0.820,1)}55.17%,55.51%{transform:scale(0.829,1)}55.53%,55.86%{transform:scale(0.838,1)}55.88%,56.57%{transform:scale(0.847,1)}56.59%,56.93%{transform:scale(0.856,1)}56.95%,57.29%{transform:scale(0.865,1)}57.31%,58.35%{transform:scale(0.874,1)}58.37%,59.42%{transform:scale(0.883,1)}59.44%,59.78%{transform:scale(0.892,1)}59.8%,62.27%{transform:scale(0.901,1)}62.29%,62.98%{transform:scale(0.910,1)}63%,63.34%{transform:scale(0.919,1)}63.36%,63.69%{transform:scale(0.928,1)}63.71%,64.76%{transform:scale(0.937,1)}64.78%,65.11%{transform:scale(0.946,1)}65.13%,68.67%{transform:scale(0.955,1)}68.69%,71.88%{transform:scale(0.964,1)}71.9%,72.23%{transform:scale(0.973,1)}72.25%,73.66%{transform:scale(0.982,1)}73.68%,74.01%{transform:scale(0.991,1)}74.03%,100%{transform:scale(1.000,1)}}.u.u0{fill:var(--c1);animation-name:u0;transform-origin:0.0px 0}@keyframes u1{76.15%{transform:scale(0.000,1)}76.17%,77.93%{transform:scale(0.167,1)}77.95%,81.13%{transform:scale(0.333,1)}81.15%,81.48%{transform:scale(0.500,1)}81.5%,81.84%{transform:scale(0.667,1)}81.86%,82.2%{transform:scale(0.833,1)}82.22%,100%{transform:scale(1.000,1)}}.u.u1{fill:var(--c2);animation-name:u1;transform-origin:797.7px 0}@keyframes u2{83.26%{transform:scale(0.000,1)}83.28%,100%{transform:scale(1.000,1)}}.u.u2{fill:var(--c4);animation-name:u2;transform-origin:840.8px 0}.s{shape-rendering:geometricPrecision;fill:var(--cs);animation:none linear 28100ms infinite}@keyframes s0{0%,99.64%{transform:translate(0px,-16px)}0.36%{transform:translate(0px,0px)}7.12%{transform:translate(304px,0px)}9.25%{transform:translate(304px,96px)}13.88%{transform:translate(512px,96px)}14.23%{transform:translate(512px,80px)}15.66%{transform:translate(448px,80px)}16.37%{transform:translate(448px,48px)}16.73%{transform:translate(464px,48px)}17.79%{transform:translate(464px,0px)}18.86%{transform:translate(512px,0px)}19.57%{transform:translate(512px,32px)}19.93%{transform:translate(496px,32px)}20.28%{transform:translate(496px,48px)}21.35%{transform:translate(544px,48px)}21.71%{transform:translate(544px,32px)}22.42%{transform:translate(576px,32px)}22.78%{transform:translate(576px,48px)}24.2%{transform:translate(640px,48px)}24.91%{transform:translate(640px,16px)}25.62%{transform:translate(672px,16px)}26.33%{transform:translate(672px,48px)}29.54%{transform:translate(816px,48px)}29.89%,33.45%{transform:translate(816px,32px)}30.25%{transform:translate(832px,32px)}30.96%{transform:translate(832px,0px)}32.03%{transform:translate(784px,0px)}32.38%{transform:translate(784px,16px)}33.1%{transform:translate(816px,16px)}34.52%{transform:translate(768px,32px)}34.88%{transform:translate(768px,16px)}35.23%{transform:translate(752px,16px)}35.59%{transform:translate(752px,0px)}35.94%{transform:translate(736px,0px)}36.3%{transform:translate(736px,16px)}36.65%{transform:translate(720px,16px)}37.01%{transform:translate(720px,32px)}37.72%{transform:translate(752px,32px)}38.43%{transform:translate(752px,64px)}40.21%{transform:translate(832px,64px)}40.57%{transform:translate(832px,80px)}42.7%{transform:translate(736px,80px)}43.06%{transform:translate(736px,64px)}46.26%{transform:translate(592px,64px)}46.62%{transform:translate(592px,80px)}49.47%{transform:translate(720px,80px)}49.82%{transform:translate(720px,96px)}51.96%{transform:translate(816px,96px)}52.31%{transform:translate(816px,80px)}54.8%{transform:translate(704px,80px)}55.16%{transform:translate(704px,96px)}57.3%{transform:translate(608px,96px)}57.65%{transform:translate(608px,80px)}58.72%{transform:translate(560px,80px)}59.07%{transform:translate(560px,64px)}59.79%{transform:translate(528px,64px)}60.14%{transform:translate(528px,48px)}61.92%{transform:translate(608px,48px)}62.28%{transform:translate(608px,32px)}62.63%{transform:translate(624px,32px)}63.35%{transform:translate(624px,0px)}65.12%{transform:translate(704px,0px)}65.48%{transform:translate(704px,-16px)}68.33%{transform:translate(576px,-16px)}68.68%{transform:translate(576px,0px)}71.53%{transform:translate(448px,0px)}72.24%{transform:translate(448px,32px)}72.95%{transform:translate(416px,32px)}74.02%{transform:translate(416px,80px)}75.8%{transform:translate(496px,80px)}76.16%{transform:translate(496px,64px)}80.43%{transform:translate(688px,64px)}81.14%{transform:translate(688px,32px)}81.49%{transform:translate(704px,32px)}81.85%{transform:translate(704px,16px)}82.21%{transform:translate(688px,16px)}82.56%{transform:translate(688px,0px)}83.27%{transform:translate(720px,0px)}83.63%{transform:translate(720px,-16px)}}.s.s0{transform:translate(0px,-16px);animation-name:s0}@keyframes s1{0%,99.64%{transform:translate(16px,-16px)}0.36%{transform:translate(0px,-16px)}0.71%{transform:translate(0px,0px)}7.47%{transform:translate(304px,0px)}9.61%{transform:translate(304px,96px)}14.23%{transform:translate(512px,96px)}14.59%{transform:translate(512px,80px)}16.01%{transform:translate(448px,80px)}16.73%{transform:translate(448px,48px)}17.08%{transform:translate(464px,48px)}18.15%{transform:translate(464px,0px)}19.22%{transform:translate(512px,0px)}19.93%{transform:translate(512px,32px)}20.28%{transform:translate(496px,32px)}20.64%{transform:translate(496px,48px)}21.71%{transform:translate(544px,48px)}22.06%{transform:translate(544px,32px)}22.78%{transform:translate(576px,32px)}23.13%{transform:translate(576px,48px)}24.56%{transform:translate(640px,48px)}25.27%{transform:translate(640px,16px)}25.98%{transform:translate(672px,16px)}26.69%{transform:translate(672px,48px)}29.89%{transform:translate(816px,48px)}30.25%,33.81%{transform:translate(816px,32px)}30.6%{transform:translate(832px,32px)}31.32%{transform:translate(832px,0px)}32.38%{transform:translate(784px,0px)}32.74%{transform:translate(784px,16px)}33.45%{transform:translate(816px,16px)}34.88%{transform:translate(768px,32px)}35.23%{transform:translate(768px,16px)}35.59%{transform:translate(752px,16px)}35.94%{transform:translate(752px,0px)}36.3%{transform:translate(736px,0px)}36.65%{transform:translate(736px,16px)}37.01%{transform:translate(720px,16px)}37.37%{transform:translate(720px,32px)}38.08%{transform:translate(752px,32px)}38.79%{transform:translate(752px,64px)}40.57%{transform:translate(832px,64px)}40.93%{transform:translate(832px,80px)}43.06%{transform:translate(736px,80px)}43.42%{transform:translate(736px,64px)}46.62%{transform:translate(592px,64px)}46.98%{transform:translate(592px,80px)}49.82%{transform:translate(720px,80px)}50.18%{transform:translate(720px,96px)}52.31%{transform:translate(816px,96px)}52.67%{transform:translate(816px,80px)}55.16%{transform:translate(704px,80px)}55.52%{transform:translate(704px,96px)}57.65%{transform:translate(608px,96px)}58.01%{transform:translate(608px,80px)}59.07%{transform:translate(560px,80px)}59.43%{transform:translate(560px,64px)}60.14%{transform:translate(528px,64px)}60.5%{transform:translate(528px,48px)}62.28%{transform:translate(608px,48px)}62.63%{transform:translate(608px,32px)}62.99%{transform:translate(624px,32px)}63.7%{transform:translate(624px,0px)}65.48%{transform:translate(704px,0px)}65.84%{transform:translate(704px,-16px)}68.68%{transform:translate(576px,-16px)}69.04%{transform:translate(576px,0px)}71.89%{transform:translate(448px,0px)}72.6%{transform:translate(448px,32px)}73.31%{transform:translate(416px,32px)}74.38%{transform:translate(416px,80px)}76.16%{transform:translate(496px,80px)}76.51%{transform:translate(496px,64px)}80.78%{transform:translate(688px,64px)}81.49%{transform:translate(688px,32px)}81.85%{transform:translate(704px,32px)}82.21%{transform:translate(704px,16px)}82.56%{transform:translate(688px,16px)}82.92%{transform:translate(688px,0px)}83.63%{transform:translate(720px,0px)}83.99%{transform:translate(720px,-16px)}}.s.s1{transform:translate(16px,-16px);animation-name:s1}@keyframes s2{0%,99.64%{transform:translate(32px,-16px)}0.71%{transform:translate(0px,-16px)}1.07%{transform:translate(0px,0px)}7.83%{transform:translate(304px,0px)}9.96%{transform:translate(304px,96px)}14.59%{transform:translate(512px,96px)}14.95%{transform:translate(512px,80px)}16.37%{transform:translate(448px,80px)}17.08%{transform:translate(448px,48px)}17.44%{transform:translate(464px,48px)}18.51%{transform:translate(464px,0px)}19.57%{transform:translate(512px,0px)}20.28%{transform:translate(512px,32px)}20.64%{transform:translate(496px,32px)}21%{transform:translate(496px,48px)}22.06%{transform:translate(544px,48px)}22.42%{transform:translate(544px,32px)}23.13%{transform:translate(576px,32px)}23.49%{transform:translate(576px,48px)}24.91%{transform:translate(640px,48px)}25.62%{transform:translate(640px,16px)}26.33%{transform:translate(672px,16px)}27.05%{transform:translate(672px,48px)}30.25%{transform:translate(816px,48px)}30.6%,34.16%{transform:translate(816px,32px)}30.96%{transform:translate(832px,32px)}31.67%{transform:translate(832px,0px)}32.74%{transform:translate(784px,0px)}33.1%{transform:translate(784px,16px)}33.81%{transform:translate(816px,16px)}35.23%{transform:translate(768px,32px)}35.59%{transform:translate(768px,16px)}35.94%{transform:translate(752px,16px)}36.3%{transform:translate(752px,0px)}36.65%{transform:translate(736px,0px)}37.01%{transform:translate(736px,16px)}37.37%{transform:translate(720px,16px)}37.72%{transform:translate(720px,32px)}38.43%{transform:translate(752px,32px)}39.15%{transform:translate(752px,64px)}40.93%{transform:translate(832px,64px)}41.28%{transform:translate(832px,80px)}43.42%{transform:translate(736px,80px)}43.77%{transform:translate(736px,64px)}46.98%{transform:translate(592px,64px)}47.33%{transform:translate(592px,80px)}50.18%{transform:translate(720px,80px)}50.53%{transform:translate(720px,96px)}52.67%{transform:translate(816px,96px)}53.02%{transform:translate(816px,80px)}55.52%{transform:translate(704px,80px)}55.87%{transform:translate(704px,96px)}58.01%{transform:translate(608px,96px)}58.36%{transform:translate(608px,80px)}59.43%{transform:translate(560px,80px)}59.79%{transform:translate(560px,64px)}60.5%{transform:translate(528px,64px)}60.85%{transform:translate(528px,48px)}62.63%{transform:translate(608px,48px)}62.99%{transform:translate(608px,32px)}63.35%{transform:translate(624px,32px)}64.06%{transform:translate(624px,0px)}65.84%{transform:translate(704px,0px)}66.19%{transform:translate(704px,-16px)}69.04%{transform:translate(576px,-16px)}69.4%{transform:translate(576px,0px)}72.24%{transform:translate(448px,0px)}72.95%{transform:translate(448px,32px)}73.67%{transform:translate(416px,32px)}74.73%{transform:translate(416px,80px)}76.51%{transform:translate(496px,80px)}76.87%{transform:translate(496px,64px)}81.14%{transform:translate(688px,64px)}81.85%{transform:translate(688px,32px)}82.21%{transform:translate(704px,32px)}82.56%{transform:translate(704px,16px)}82.92%{transform:translate(688px,16px)}83.27%{transform:translate(688px,0px)}83.99%{transform:translate(720px,0px)}84.34%{transform:translate(720px,-16px)}}.s.s2{transform:translate(32px,-16px);animation-name:s2}@keyframes s3{0%,99.64%{transform:translate(48px,-16px)}1.07%{transform:translate(0px,-16px)}1.42%{transform:translate(0px,0px)}8.19%{transform:translate(304px,0px)}10.32%{transform:translate(304px,96px)}14.95%{transform:translate(512px,96px)}15.3%{transform:translate(512px,80px)}16.73%{transform:translate(448px,80px)}17.44%{transform:translate(448px,48px)}17.79%{transform:translate(464px,48px)}18.86%{transform:translate(464px,0px)}19.93%{transform:translate(512px,0px)}20.64%{transform:translate(512px,32px)}21%{transform:translate(496px,32px)}21.35%{transform:translate(496px,48px)}22.42%{transform:translate(544px,48px)}22.78%{transform:translate(544px,32px)}23.49%{transform:translate(576px,32px)}23.84%{transform:translate(576px,48px)}25.27%{transform:translate(640px,48px)}25.98%{transform:translate(640px,16px)}26.69%{transform:translate(672px,16px)}27.4%{transform:translate(672px,48px)}30.6%{transform:translate(816px,48px)}30.96%,34.52%{transform:translate(816px,32px)}31.32%{transform:translate(832px,32px)}32.03%{transform:translate(832px,0px)}33.1%{transform:translate(784px,0px)}33.45%{transform:translate(784px,16px)}34.16%{transform:translate(816px,16px)}35.59%{transform:translate(768px,32px)}35.94%{transform:translate(768px,16px)}36.3%{transform:translate(752px,16px)}36.65%{transform:translate(752px,0px)}37.01%{transform:translate(736px,0px)}37.37%{transform:translate(736px,16px)}37.72%{transform:translate(720px,16px)}38.08%{transform:translate(720px,32px)}38.79%{transform:translate(752px,32px)}39.5%{transform:translate(752px,64px)}41.28%{transform:translate(832px,64px)}41.64%{transform:translate(832px,80px)}43.77%{transform:translate(736px,80px)}44.13%{transform:translate(736px,64px)}47.33%{transform:translate(592px,64px)}47.69%{transform:translate(592px,80px)}50.53%{transform:translate(720px,80px)}50.89%{transform:translate(720px,96px)}53.02%{transform:translate(816px,96px)}53.38%{transform:translate(816px,80px)}55.87%{transform:translate(704px,80px)}56.23%{transform:translate(704px,96px)}58.36%{transform:translate(608px,96px)}58.72%{transform:translate(608px,80px)}59.79%{transform:translate(560px,80px)}60.14%{transform:translate(560px,64px)}60.85%{transform:translate(528px,64px)}61.21%{transform:translate(528px,48px)}62.99%{transform:translate(608px,48px)}63.35%{transform:translate(608px,32px)}63.7%{transform:translate(624px,32px)}64.41%{transform:translate(624px,0px)}66.19%{transform:translate(704px,0px)}66.55%{transform:translate(704px,-16px)}69.4%{transform:translate(576px,-16px)}69.75%{transform:translate(576px,0px)}72.6%{transform:translate(448px,0px)}73.31%{transform:translate(448px,32px)}74.02%{transform:translate(416px,32px)}75.09%{transform:translate(416px,80px)}76.87%{transform:translate(496px,80px)}77.22%{transform:translate(496px,64px)}81.49%{transform:translate(688px,64px)}82.21%{transform:translate(688px,32px)}82.56%{transform:translate(704px,32px)}82.92%{transform:translate(704px,16px)}83.27%{transform:translate(688px,16px)}83.63%{transform:translate(688px,0px)}84.34%{transform:translate(720px,0px)}84.7%{transform:translate(720px,-16px)}}.s.s3{transform:translate(48px,-16px);animation-name:s3}</style><rect class="c" x="2" y="2" rx="2" ry="2"/><rect class="c" x="2" y="18" rx="2" ry="2"/><rect class="c" x="2" y="34" rx="2" ry="2"/><rect class="c" x="2" y="50" rx="2" ry="2"/><rect class="c" x="2" y="66" rx="2" ry="2"/><rect class="c" x="2" y="82" rx="2" ry="2"/><rect class="c" x="2" y="98" rx="2" ry="2"/><rect class="c" x="18" y="2" rx="2" ry="2"/><rect class="c" x="18" y="18" rx="2" ry="2"/><rect class="c" x="18" y="34" rx="2" ry="2"/><rect class="c" x="18" y="50" rx="2" ry="2"/><rect class="c" x="18" y="66" rx="2" ry="2"/><rect class="c" x="18" y="82" rx="2" ry="2"/><rect class="c" x="18" y="98" rx="2" ry="2"/><rect class="c" x="34" y="2" rx="2" ry="2"/><rect class="c" x="34" y="18" rx="2" ry="2"/><rect class="c" x="34" y="34" rx="2" ry="2"/><rect class="c" x="34" y="50" rx="2" ry="2"/><rect class="c" x="34" y="66" rx="2" ry="2"/><rect class="c" x="34" y="82" rx="2" ry="2"/><rect class="c" x="34" y="98" rx="2" ry="2"/><rect class="c" x="50" y="2" rx="2" ry="2"/><rect class="c" x="50" y="18" rx="2" ry="2"/><rect class="c" x="50" y="34" rx="2" ry="2"/><rect class="c" x="50" y="50" rx="2" ry="2"/><rect class="c" x="50" y="66" rx="2" ry="2"/><rect class="c" x="50" y="82" rx="2" ry="2"/><rect class="c" x="50" y="98" rx="2" ry="2"/><rect class="c" x="66" y="2" rx="2" ry="2"/><rect class="c" x="66" y="18" rx="2" ry="2"/><rect class="c" x="66" y="34" rx="2" ry="2"/><rect class="c" x="66" y="50" rx="2" ry="2"/><rect class="c" x="66" y="66" rx="2" ry="2"/><rect class="c" x="66" y="82" rx="2" ry="2"/><rect class="c" x="66" y="98" rx="2" ry="2"/><rect class="c" x="82" y="2" rx="2" ry="2"/><rect class="c" x="82" y="18" rx="2" ry="2"/><rect class="c" x="82" y="34" rx="2" ry="2"/><rect class="c" x="82" y="50" rx="2" ry="2"/><rect class="c" x="82" y="66" rx="2" ry="2"/><rect class="c" x="82" y="82" rx="2" ry="2"/><rect class="c" x="82" y="98" rx="2" ry="2"/><rect class="c" x="98" y="2" rx="2" ry="2"/><rect class="c" x="98" y="18" rx="2" ry="2"/><rect class="c" x="98" y="34" rx="2" ry="2"/><rect class="c" x="98" y="50" rx="2" ry="2"/><rect class="c" x="98" y="66" rx="2" ry="2"/><rect class="c" x="98" y="82" rx="2" ry="2"/><rect class="c" x="98" y="98" rx="2" ry="2"/><rect class="c" x="114" y="2" rx="2" ry="2"/><rect class="c" x="114" y="18" rx="2" ry="2"/><rect class="c" x="114" y="34" rx="2" ry="2"/><rect class="c" x="114" y="50" rx="2" ry="2"/><rect class="c" x="114" y="66" rx="2" ry="2"/><rect class="c" x="114" y="82" rx="2" ry="2"/><rect class="c" x="114" y="98" rx="2" ry="2"/><rect class="c" x="130" y="2" rx="2" ry="2"/><rect class="c" x="130" y="18" rx="2" ry="2"/><rect class="c" x="130" y="34" rx="2" ry="2"/><rect class="c" x="130" y="50" rx="2" ry="2"/><rect class="c" x="130" y="66" rx="2" ry="2"/><rect class="c" x="130" y="82" rx="2" ry="2"/><rect class="c" x="130" y="98" rx="2" ry="2"/><rect class="c" x="146" y="2" rx="2" ry="2"/><rect class="c" x="146" y="18" rx="2" ry="2"/><rect class="c" x="146" y="34" rx="2" ry="2"/><rect class="c" x="146" y="50" rx="2" ry="2"/><rect class="c" x="146" y="66" rx="2" ry="2"/><rect class="c" x="146" y="82" rx="2" ry="2"/><rect class="c" x="146" y="98" rx="2" ry="2"/><rect class="c" x="162" y="2" rx="2" ry="2"/><rect class="c" x="162" y="18" rx="2" ry="2"/><rect class="c" x="162" y="34" rx="2" ry="2"/><rect class="c" x="162" y="50" rx="2" ry="2"/><rect class="c" x="162" y="66" rx="2" ry="2"/><rect class="c" x="162" y="82" rx="2" ry="2"/><rect class="c" x="162" y="98" rx="2" ry="2"/><rect class="c" x="178" y="2" rx="2" ry="2"/><rect class="c" x="178" y="18" rx="2" ry="2"/><rect class="c" x="178" y="34" rx="2" ry="2"/><rect class="c" x="178" y="50" rx="2" ry="2"/><rect class="c" x="178" y="66" rx="2" ry="2"/><rect class="c" x="178" y="82" rx="2" ry="2"/><rect class="c" x="178" y="98" rx="2" ry="2"/><rect class="c" x="194" y="2" rx="2" ry="2"/><rect class="c" x="194" y="18" rx="2" ry="2"/><rect class="c" x="194" y="34" rx="2" ry="2"/><rect class="c" x="194" y="50" rx="2" ry="2"/><rect class="c" x="194" y="66" rx="2" ry="2"/><rect class="c" x="194" y="82" rx="2" ry="2"/><rect class="c" x="194" y="98" rx="2" ry="2"/><rect class="c" x="210" y="2" rx="2" ry="2"/><rect class="c" x="210" y="18" rx="2" ry="2"/><rect class="c" x="210" y="34" rx="2" ry="2"/><rect class="c" x="210" y="50" rx="2" ry="2"/><rect class="c" x="210" y="66" rx="2" ry="2"/><rect class="c" x="210" y="82" rx="2" ry="2"/><rect class="c" x="210" y="98" rx="2" ry="2"/><rect class="c" x="226" y="2" rx="2" ry="2"/><rect class="c" x="226" y="18" rx="2" ry="2"/><rect class="c" x="226" y="34" rx="2" ry="2"/><rect class="c" x="226" y="50" rx="2" ry="2"/><rect class="c" x="226" y="66" rx="2" ry="2"/><rect class="c" x="226" y="82" rx="2" ry="2"/><rect class="c" x="226" y="98" rx="2" ry="2"/><rect class="c" x="242" y="2" rx="2" ry="2"/><rect class="c" x="242" y="18" rx="2" ry="2"/><rect class="c" x="242" y="34" rx="2" ry="2"/><rect class="c" x="242" y="50" rx="2" ry="2"/><rect class="c" x="242" y="66" rx="2" ry="2"/><rect class="c" x="242" y="82" rx="2" ry="2"/><rect class="c" x="242" y="98" rx="2" ry="2"/><rect class="c" x="258" y="2" rx="2" ry="2"/><rect class="c" x="258" y="18" rx="2" ry="2"/><rect class="c" x="258" y="34" rx="2" ry="2"/><rect class="c" x="258" y="50" rx="2" ry="2"/><rect class="c" x="258" y="66" rx="2" ry="2"/><rect class="c" x="258" y="82" rx="2" ry="2"/><rect class="c" x="258" y="98" rx="2" ry="2"/><rect class="c" x="274" y="2" rx="2" ry="2"/><rect class="c" x="274" y="18" rx="2" ry="2"/><rect class="c" x="274" y="34" rx="2" ry="2"/><rect class="c" x="274" y="50" rx="2" ry="2"/><rect class="c" x="274" y="66" rx="2" ry="2"/><rect class="c" x="274" y="82" rx="2" ry="2"/><rect class="c" x="274" y="98" rx="2" ry="2"/><rect class="c" x="290" y="2" rx="2" ry="2"/><rect class="c" x="290" y="18" rx="2" ry="2"/><rect class="c" x="290" y="34" rx="2" ry="2"/><rect class="c" x="290" y="50" rx="2" ry="2"/><rect class="c" x="290" y="66" rx="2" ry="2"/><rect class="c" x="290" y="82" rx="2" ry="2"/><rect class="c" x="290" y="98" rx="2" ry="2"/><rect class="c" x="306" y="2" rx="2" ry="2"/><rect class="c" x="306" y="18" rx="2" ry="2"/><rect class="c" x="306" y="34" rx="2" ry="2"/><rect class="c" x="306" y="50" rx="2" ry="2"/><rect class="c" x="306" y="66" rx="2" ry="2"/><rect class="c" x="306" y="82" rx="2" ry="2"/><rect class="c c0" x="306" y="98" rx="2" ry="2"/><rect class="c" x="322" y="2" rx="2" ry="2"/><rect class="c" x="322" y="18" rx="2" ry="2"/><rect class="c" x="322" y="34" rx="2" ry="2"/><rect class="c" x="322" y="50" rx="2" ry="2"/><rect class="c" x="322" y="66" rx="2" ry="2"/><rect class="c" x="322" y="82" rx="2" ry="2"/><rect class="c" x="322" y="98" rx="2" ry="2"/><rect class="c" x="338" y="2" rx="2" ry="2"/><rect class="c" x="338" y="18" rx="2" ry="2"/><rect class="c" x="338" y="34" rx="2" ry="2"/><rect class="c" x="338" y="50" rx="2" ry="2"/><rect class="c" x="338" y="66" rx="2" ry="2"/><rect class="c" x="338" y="82" rx="2" ry="2"/><rect class="c" x="338" y="98" rx="2" ry="2"/><rect class="c" x="354" y="2" rx="2" ry="2"/><rect class="c" x="354" y="18" rx="2" ry="2"/><rect class="c" x="354" y="34" rx="2" ry="2"/><rect class="c" x="354" y="50" rx="2" ry="2"/><rect class="c" x="354" y="66" rx="2" ry="2"/><rect class="c" x="354" y="82" rx="2" ry="2"/><rect class="c" x="354" y="98" rx="2" ry="2"/><rect class="c" x="370" y="2" rx="2" ry="2"/><rect class="c" x="370" y="18" rx="2" ry="2"/><rect class="c" x="370" y="34" rx="2" ry="2"/><rect class="c" x="370" y="50" rx="2" ry="2"/><rect class="c" x="370" y="66" rx="2" ry="2"/><rect class="c" x="370" y="82" rx="2" ry="2"/><rect class="c" x="370" y="98" rx="2" ry="2"/><rect class="c" x="386" y="2" rx="2" ry="2"/><rect class="c" x="386" y="18" rx="2" ry="2"/><rect class="c" x="386" y="34" rx="2" ry="2"/><rect class="c" x="386" y="50" rx="2" ry="2"/><rect class="c" x="386" y="66" rx="2" ry="2"/><rect class="c" x="386" y="82" rx="2" ry="2"/><rect class="c" x="386" y="98" rx="2" ry="2"/><rect class="c" x="402" y="2" rx="2" ry="2"/><rect class="c" x="402" y="18" rx="2" ry="2"/><rect class="c" x="402" y="34" rx="2" ry="2"/><rect class="c" x="402" y="50" rx="2" ry="2"/><rect class="c" x="402" y="66" rx="2" ry="2"/><rect class="c" x="402" y="82" rx="2" ry="2"/><rect class="c" x="402" y="98" rx="2" ry="2"/><rect class="c" x="418" y="2" rx="2" ry="2"/><rect class="c" x="418" y="18" rx="2" ry="2"/><rect class="c" x="418" y="34" rx="2" ry="2"/><rect class="c" x="418" y="50" rx="2" ry="2"/><rect class="c c1" x="418" y="66" rx="2" ry="2"/><rect class="c c2" x="418" y="82" rx="2" ry="2"/><rect class="c" x="418" y="98" rx="2" ry="2"/><rect class="c" x="434" y="2" rx="2" ry="2"/><rect class="c" x="434" y="18" rx="2" ry="2"/><rect class="c" x="434" y="34" rx="2" ry="2"/><rect class="c" x="434" y="50" rx="2" ry="2"/><rect class="c" x="434" y="66" rx="2" ry="2"/><rect class="c" x="434" y="82" rx="2" ry="2"/><rect class="c c3" x="434" y="98" rx="2" ry="2"/><rect class="c" x="450" y="2" rx="2" ry="2"/><rect class="c c4" x="450" y="18" rx="2" ry="2"/><rect class="c c5" x="450" y="34" rx="2" ry="2"/><rect class="c c6" x="450" y="50" rx="2" ry="2"/><rect class="c c7" x="450" y="66" rx="2" ry="2"/><rect class="c c8" x="450" y="82" rx="2" ry="2"/><rect class="c c9" x="450" y="98" rx="2" ry="2"/><rect class="c ca" x="466" y="2" rx="2" ry="2"/><rect class="c cb" x="466" y="18" rx="2" ry="2"/><rect class="c cc" x="466" y="34" rx="2" ry="2"/><rect class="c cd" x="466" y="50" rx="2" ry="2"/><rect class="c" x="466" y="66" rx="2" ry="2"/><rect class="c" x="466" y="82" rx="2" ry="2"/><rect class="c ce" x="466" y="98" rx="2" ry="2"/><rect class="c cf" x="482" y="2" rx="2" ry="2"/><rect class="c" x="482" y="18" rx="2" ry="2"/><rect class="c" x="482" y="34" rx="2" ry="2"/><rect class="c" x="482" y="50" rx="2" ry="2"/><rect class="c" x="482" y="66" rx="2" ry="2"/><rect class="c cg" x="482" y="82" rx="2" ry="2"/><rect class="c ch" x="482" y="98" rx="2" ry="2"/><rect class="c" x="498" y="2" rx="2" ry="2"/><rect class="c" x="498" y="18" rx="2" ry="2"/><rect class="c ci" x="498" y="34" rx="2" ry="2"/><rect class="c cj" x="498" y="50" rx="2" ry="2"/><rect class="c ck" x="498" y="66" rx="2" ry="2"/><rect class="c cl" x="498" y="82" rx="2" ry="2"/><rect class="c cm" x="498" y="98" rx="2" ry="2"/><rect class="c cn" x="514" y="2" rx="2" ry="2"/><rect class="c co" x="514" y="18" rx="2" ry="2"/><rect class="c cp" x="514" y="34" rx="2" ry="2"/><rect class="c cq" x="514" y="50" rx="2" ry="2"/><rect class="c" x="514" y="66" rx="2" ry="2"/><rect class="c cr" x="514" y="82" rx="2" ry="2"/><rect class="c cs" x="514" y="98" rx="2" ry="2"/><rect class="c" x="530" y="2" rx="2" ry="2"/><rect class="c" x="530" y="18" rx="2" ry="2"/><rect class="c" x="530" y="34" rx="2" ry="2"/><rect class="c ct" x="530" y="50" rx="2" ry="2"/><rect class="c cu" x="530" y="66" rx="2" ry="2"/><rect class="c" x="530" y="82" rx="2" ry="2"/><rect class="c" x="530" y="98" rx="2" ry="2"/><rect class="c" x="546" y="2" rx="2" ry="2"/><rect class="c" x="546" y="18" rx="2" ry="2"/><rect class="c cv" x="546" y="34" rx="2" ry="2"/><rect class="c cw" x="546" y="50" rx="2" ry="2"/><rect class="c cx" x="546" y="66" rx="2" ry="2"/><rect class="c" x="546" y="82" rx="2" ry="2"/><rect class="c" x="546" y="98" rx="2" ry="2"/><rect class="c" x="562" y="2" rx="2" ry="2"/><rect class="c" x="562" y="18" rx="2" ry="2"/><rect class="c" x="562" y="34" rx="2" ry="2"/><rect class="c" x="562" y="50" rx="2" ry="2"/><rect class="c" x="562" y="66" rx="2" ry="2"/><rect class="c" x="562" y="82" rx="2" ry="2"/><rect class="c" x="562" y="98" rx="2" ry="2"/><rect class="c cy" x="578" y="2" rx="2" ry="2"/><rect class="c" x="578" y="18" rx="2" ry="2"/><rect class="c" x="578" y="34" rx="2" ry="2"/><rect class="c cz" x="578" y="50" rx="2" ry="2"/><rect class="c c10" x="578" y="66" rx="2" ry="2"/><rect class="c c11" x="578" y="82" rx="2" ry="2"/><rect class="c" x="578" y="98" rx="2" ry="2"/><rect class="c" x="594" y="2" rx="2" ry="2"/><rect class="c" x="594" y="18" rx="2" ry="2"/><rect class="c" x="594" y="34" rx="2" ry="2"/><rect class="c c12" x="594" y="50" rx="2" ry="2"/><rect class="c" x="594" y="66" rx="2" ry="2"/><rect class="c c13" x="594" y="82" rx="2" ry="2"/><rect class="c" x="594" y="98" rx="2" ry="2"/><rect class="c" x="610" y="2" rx="2" ry="2"/><rect class="c" x="610" y="18" rx="2" ry="2"/><rect class="c c14" x="610" y="34" rx="2" ry="2"/><rect class="c" x="610" y="50" rx="2" ry="2"/><rect class="c c15" x="610" y="66" rx="2" ry="2"/><rect class="c c16" x="610" y="82" rx="2" ry="2"/><rect class="c c17" x="610" y="98" rx="2" ry="2"/><rect class="c c18" x="626" y="2" rx="2" ry="2"/><rect class="c c19" x="626" y="18" rx="2" ry="2"/><rect class="c" x="626" y="34" rx="2" ry="2"/><rect class="c c1a" x="626" y="50" rx="2" ry="2"/><rect class="c c1b" x="626" y="66" rx="2" ry="2"/><rect class="c c1c" x="626" y="82" rx="2" ry="2"/><rect class="c c1d" x="626" y="98" rx="2" ry="2"/><rect class="c c1e" x="642" y="2" rx="2" ry="2"/><rect class="c c1f" x="642" y="18" rx="2" ry="2"/><rect class="c" x="642" y="34" rx="2" ry="2"/><rect class="c c1g" x="642" y="50" rx="2" ry="2"/><rect class="c c1h" x="642" y="66" rx="2" ry="2"/><rect class="c c1i" x="642" y="82" rx="2" ry="2"/><rect class="c c1j" x="642" y="98" rx="2" ry="2"/><rect class="c" x="658" y="2" rx="2" ry="2"/><rect class="c c1k" x="658" y="18" rx="2" ry="2"/><rect class="c" x="658" y="34" rx="2" ry="2"/><rect class="c" x="658" y="50" rx="2" ry="2"/><rect class="c" x="658" y="66" rx="2" ry="2"/><rect class="c c1l" x="658" y="82" rx="2" ry="2"/><rect class="c" x="658" y="98" rx="2" ry="2"/><rect class="c" x="674" y="2" rx="2" ry="2"/><rect class="c c1m" x="674" y="18" rx="2" ry="2"/><rect class="c" x="674" y="34" rx="2" ry="2"/><rect class="c" x="674" y="50" rx="2" ry="2"/><rect class="c" x="674" y="66" rx="2" ry="2"/><rect class="c c1n" x="674" y="82" rx="2" ry="2"/><rect class="c c1o" x="674" y="98" rx="2" ry="2"/><rect class="c c1p" x="690" y="2" rx="2" ry="2"/><rect class="c c1q" x="690" y="18" rx="2" ry="2"/><rect class="c c1r" x="690" y="34" rx="2" ry="2"/><rect class="c" x="690" y="50" rx="2" ry="2"/><rect class="c c1s" x="690" y="66" rx="2" ry="2"/><rect class="c c1t" x="690" y="82" rx="2" ry="2"/><rect class="c c1u" x="690" y="98" rx="2" ry="2"/><rect class="c c1v" x="706" y="2" rx="2" ry="2"/><rect class="c c1w" x="706" y="18" rx="2" ry="2"/><rect class="c c1x" x="706" y="34" rx="2" ry="2"/><rect class="c c1y" x="706" y="50" rx="2" ry="2"/><rect class="c c1z" x="706" y="66" rx="2" ry="2"/><rect class="c" x="706" y="82" rx="2" ry="2"/><rect class="c c20" x="706" y="98" rx="2" ry="2"/><rect class="c c21" x="722" y="2" rx="2" ry="2"/><rect class="c c22" x="722" y="18" rx="2" ry="2"/><rect class="c c23" x="722" y="34" rx="2" ry="2"/><rect class="c c24" x="722" y="50" rx="2" ry="2"/><rect class="c c25" x="722" y="66" rx="2" ry="2"/><rect class="c" x="722" y="82" rx="2" ry="2"/><rect class="c c26" x="722" y="98" rx="2" ry="2"/><rect class="c c27" x="738" y="2" rx="2" ry="2"/><rect class="c c28" x="738" y="18" rx="2" ry="2"/><rect class="c c29" x="738" y="34" rx="2" ry="2"/><rect class="c c2a" x="738" y="50" rx="2" ry="2"/><rect class="c c2b" x="738" y="66" rx="2" ry="2"/><rect class="c c2c" x="738" y="82" rx="2" ry="2"/><rect class="c c2d" x="738" y="98" rx="2" ry="2"/><rect class="c c2e" x="754" y="2" rx="2" ry="2"/><rect class="c c2f" x="754" y="18" rx="2" ry="2"/><rect class="c c2g" x="754" y="34" rx="2" ry="2"/><rect class="c c2h" x="754" y="50" rx="2" ry="2"/><rect class="c c2i" x="754" y="66" rx="2" ry="2"/><rect class="c c2j" x="754" y="82" rx="2" ry="2"/><rect class="c c2k" x="754" y="98" rx="2" ry="2"/><rect class="c" x="770" y="2" rx="2" ry="2"/><rect class="c c2l" x="770" y="18" rx="2" ry="2"/><rect class="c c2m" x="770" y="34" rx="2" ry="2"/><rect class="c c2n" x="770" y="50" rx="2" ry="2"/><rect class="c c2o" x="770" y="66" rx="2" ry="2"/><rect class="c" x="770" y="82" rx="2" ry="2"/><rect class="c c2p" x="770" y="98" rx="2" ry="2"/><rect class="c c2q" x="786" y="2" rx="2" ry="2"/><rect class="c c2r" x="786" y="18" rx="2" ry="2"/><rect class="c c2s" x="786" y="34" rx="2" ry="2"/><rect class="c c2t" x="786" y="50" rx="2" ry="2"/><rect class="c" x="786" y="66" rx="2" ry="2"/><rect class="c c2u" x="786" y="82" rx="2" ry="2"/><rect class="c" x="786" y="98" rx="2" ry="2"/><rect class="c c2v" x="802" y="2" rx="2" ry="2"/><rect class="c c2w" x="802" y="18" rx="2" ry="2"/><rect class="c c2x" x="802" y="34" rx="2" ry="2"/><rect class="c c2y" x="802" y="50" rx="2" ry="2"/><rect class="c c2z" x="802" y="66" rx="2" ry="2"/><rect class="c c30" x="802" y="82" rx="2" ry="2"/><rect class="c c31" x="802" y="98" rx="2" ry="2"/><rect class="c" x="818" y="2" rx="2" ry="2"/><rect class="c c32" x="818" y="18" rx="2" ry="2"/><rect class="c c33" x="818" y="34" rx="2" ry="2"/><rect class="c c34" x="818" y="50" rx="2" ry="2"/><rect class="c" x="818" y="66" rx="2" ry="2"/><rect class="c c35" x="818" y="82" rx="2" ry="2"/><rect class="c c36" x="818" y="98" rx="2" ry="2"/><rect class="c c37" x="834" y="2" rx="2" ry="2"/><rect class="c" x="834" y="18" rx="2" ry="2"/><rect class="c c38" x="834" y="34" rx="2" ry="2"/><rect class="c" x="834" y="50" rx="2" ry="2"/><rect class="c c39" x="834" y="66" rx="2" ry="2"/><rect class="c" x="834" y="82" rx="2" ry="2"/><rect class="u u0" height="12" width="798.3" x="0.0" y="144"/><rect class="u u1" height="12" width="43.7" x="797.7" y="144"/><rect class="u u2" height="12" width="7.8" x="840.8" y="144"/><rect class="s s0" x="0.8" y="0.8" width="14.4" height="14.4" rx="4.5" ry="4.5"/><rect class="s s1" x="1.8" y="1.8" width="12.3" height="12.3" rx="4.1" ry="4.1"/><rect class="s s2" x="2.6" y="2.6" width="10.8" height="10.8" rx="3.6" ry="3.6"/><rect class="s s3" x="3.0" y="3.0" width="9.9" height="9.9" rx="3.3" ry="3.3"/></svg>