<svg viewBox="-16 -32 880 192" width="880" height="192" xmlns="http://www.w3.org/2000/svg"><desc>Generated with https://github.com/Platane/snk</desc><style>:root{--cb:#1b1f230a;--cs:purple;--ce:#ebedf0;--c0:#ebedf0;--c1:#9be9a8;--c2:#40c463;--c3:#30a14e;--c4:#216e39}.c{shape-rendering:geometricPrecision;fill:var(--ce);stroke-width:1px;stroke:var(--cb);animation:none 23900ms linear infinite;width:12px;height:12px}@keyframes c0{13.8%{fill:var(--c1)}13.82%,100%{fill:var(--ce)}}.c.c0{fill:var(--c1);animation-name:c0}@keyframes c1{66.1%{fill:var(--c1)}66.12%,100%{fill:var(--ce)}}.c.c1{fill:var(--c1);animation-name:c1}@keyframes c2{66.52%{fill:var(--c1)}66.54%,100%{fill:var(--ce)}}.c.c2{fill:var(--c1);animation-name:c2}@keyframes c3{17.14%{fill:var(--c1)}17.16%,100%{fill:var(--ce)}}.c.c3{fill:var(--c1);animation-name:c3}@keyframes c4{64.01%{fill:var(--c1)}64.03%,100%{fill:var(--ce)}}.c.c4{fill:var(--c1);animation-name:c4}@keyframes c5{64.43%{fill:var(--c1)}64.45%,100%{fill:var(--ce)}}.c.c5{fill:var(--c1);animation-name:c5}@keyframes c6{22.17%{fill:var(--c1)}22.19%,100%{fill:var(--ce)}}.c.c6{fill:var(--c1);animation-name:c6}@keyframes c7{21.75%{fill:var(--c1)}21.77%,100%{fill:var(--ce)}}.c.c7{fill:var(--c1);animation-name:c7}@keyframes c8{21.33%{fill:var(--c1)}21.35%,100%{fill:var(--ce)}}.c.c8{fill:var(--c1);animation-name:c8}@keyframes c9{17.56%{fill:var(--c1)}17.58%,100%{fill:var(--ce)}}.c.c9{fill:var(--c1);animation-name:c9}@keyframes ca{23.84%{fill:var(--c1)}23.86%,100%{fill:var(--ce)}}.c.ca{fill:var(--c1);animation-name:ca}@keyframes cb{23.42%{fill:var(--c1)}23.44%,100%{fill:var(--ce)}}.c.cb{fill:var(--c1);animation-name:cb}@keyframes cc{23%{fill:var(--c1)}23.02%,100%{fill:var(--ce)}}.c.cc{fill:var(--c1);animation-name:cc}@keyframes cd{22.58%{fill:var(--c1)}22.6%,100%{fill:var(--ce)}}.c.cd{fill:var(--c1);animation-name:cd}@keyframes ce{17.98%{fill:var(--c1)}18%,100%{fill:var(--ce)}}.c.ce{fill:var(--c1);animation-name:ce}@keyframes cf{24.26%{fill:var(--c1)}24.28%,100%{fill:var(--ce)}}.c.cf{fill:var(--c1);animation-name:cf}@keyframes cg{20.49%{fill:var(--c1)}20.51%,100%{fill:var(--ce)}}.c.cg{fill:var(--c1);animation-name:cg}@keyframes ch{18.4%{fill:var(--c1)}18.42%,100%{fill:var(--ce)}}.c.ch{fill:var(--c1);animation-name:ch}@keyframes ci{26.35%{fill:var(--c1)}26.37%,100%{fill:var(--ce)}}.c.ci{fill:var(--c1);animation-name:ci}@keyframes cj{26.77%{fill:var(--c1)}26.79%,100%{fill:var(--ce)}}.c.cj{fill:var(--c1);animation-name:cj}@keyframes ck{69.03%{fill:var(--c2)}69.05%,100%{fill:var(--ce)}}.c.ck{fill:var(--c2);animation-name:ck}@keyframes cl{20.07%{fill:var(--c1)}20.09%,100%{fill:var(--ce)}}.c.cl{fill:var(--c1);animation-name:cl}@keyframes cm{18.82%{fill:var(--c1)}18.84%,100%{fill:var(--ce)}}.c.cm{fill:var(--c1);animation-name:cm}@keyframes cn{25.09%{fill:var(--c1)}25.11%,100%{fill:var(--ce)}}.c.cn{fill:var(--c1);animation-name:cn}@keyframes co{25.51%{fill:var(--c1)}25.53%,100%{fill:var(--ce)}}.c.co{fill:var(--c1);animation-name:co}@keyframes cp{25.93%{fill:var(--c1)}25.95%,100%{fill:var(--ce)}}.c.cp{fill:var(--c1);animation-name:cp}@keyframes cq{27.19%{fill:var(--c1)}27.21%,100%{fill:var(--ce)}}.c.cq{fill:var(--c1);animation-name:cq}@keyframes cr{19.66%{fill:var(--c1)}19.68%,100%{fill:var(--ce)}}.c.cr{fill:var(--c1);animation-name:cr}@keyframes cs{19.24%{fill:var(--c1)}19.26%,100%{fill:var(--ce)}}.c.cs{fill:var(--c1);animation-name:cs}@keyframes ct{27.61%{fill:var(--c1)}27.63%,100%{fill:var(--ce)}}.c.ct{fill:var(--c1);animation-name:ct}@keyframes cu{53.13%{fill:var(--c1)}53.15%,100%{fill:var(--ce)}}.c.cu{fill:var(--c1);animation-name:cu}@keyframes cv{28.44%{fill:var(--c1)}28.46%,100%{fill:var(--ce)}}.c.cv{fill:var(--c1);animation-name:cv}@keyframes cw{28.02%{fill:var(--c1)}28.04%,100%{fill:var(--ce)}}.c.cw{fill:var(--c1);animation-name:cw}@keyframes cx{52.71%{fill:var(--c1)}52.73%,100%{fill:var(--ce)}}.c.cx{fill:var(--c1);animation-name:cx}@keyframes cy{60.24%{fill:var(--c1)}60.26%,100%{fill:var(--ce)}}.c.cy{fill:var(--c1);animation-name:cy}@keyframes cz{29.7%{fill:var(--c1)}29.72%,100%{fill:var(--ce)}}.c.cz{fill:var(--c1);animation-name:cz}@keyframes c10{71.12%{fill:var(--c2)}71.14%,100%{fill:var(--ce)}}.c.c10{fill:var(--c2);animation-name:c10}@keyframes c11{51.45%{fill:var(--c1)}51.47%,100%{fill:var(--ce)}}.c.c11{fill:var(--c1);animation-name:c11}@keyframes c12{30.12%{fill:var(--c1)}30.14%,100%{fill:var(--ce)}}.c.c12{fill:var(--c1);animation-name:c12}@keyframes c13{43.5%{fill:var(--c1)}43.52%,100%{fill:var(--ce)}}.c.c13{fill:var(--c1);animation-name:c13}@keyframes c14{56.06%{fill:var(--c1)}56.08%,100%{fill:var(--ce)}}.c.c14{fill:var(--c1);animation-name:c14}@keyframes c15{42.67%{fill:var(--c1)}42.69%,100%{fill:var(--ce)}}.c.c15{fill:var(--c1);animation-name:c15}@keyframes c16{43.92%{fill:var(--c1)}43.94%,100%{fill:var(--ce)}}.c.c16{fill:var(--c1);animation-name:c16}@keyframes c17{50.2%{fill:var(--c1)}50.22%,100%{fill:var(--ce)}}.c.c17{fill:var(--c1);animation-name:c17}@keyframes c18{57.31%{fill:var(--c1)}57.33%,100%{fill:var(--ce)}}.c.c18{fill:var(--c1);animation-name:c18}@keyframes c19{56.89%{fill:var(--c1)}56.91%,100%{fill:var(--ce)}}.c.c19{fill:var(--c1);animation-name:c19}@keyframes c1a{30.95%{fill:var(--c1)}30.97%,100%{fill:var(--ce)}}.c.c1a{fill:var(--c1);animation-name:c1a}@keyframes c1b{42.25%{fill:var(--c1)}42.27%,100%{fill:var(--ce)}}.c.c1b{fill:var(--c1);animation-name:c1b}@keyframes c1c{44.34%{fill:var(--c1)}44.36%,100%{fill:var(--ce)}}.c.c1c{fill:var(--c1);animation-name:c1c}@keyframes c1d{49.78%{fill:var(--c1)}49.8%,100%{fill:var(--ce)}}.c.c1d{fill:var(--c1);animation-name:c1d}@keyframes c1e{57.73%{fill:var(--c1)}57.75%,100%{fill:var(--ce)}}.c.c1e{fill:var(--c1);animation-name:c1e}@keyframes c1f{32.21%{fill:var(--c1)}32.23%,100%{fill:var(--ce)}}.c.c1f{fill:var(--c1);animation-name:c1f}@keyframes c1g{31.37%{fill:var(--c1)}31.39%,100%{fill:var(--ce)}}.c.c1g{fill:var(--c1);animation-name:c1g}@keyframes c1h{41.83%{fill:var(--c1)}41.85%,100%{fill:var(--ce)}}.c.c1h{fill:var(--c1);animation-name:c1h}@keyframes c1i{44.76%{fill:var(--c1)}44.78%,100%{fill:var(--ce)}}.c.c1i{fill:var(--c1);animation-name:c1i}@keyframes c1j{49.36%{fill:var(--c1)}49.38%,100%{fill:var(--ce)}}.c.c1j{fill:var(--c1);animation-name:c1j}@keyframes c1k{32.63%{fill:var(--c1)}32.65%,100%{fill:var(--ce)}}.c.c1k{fill:var(--c1);animation-name:c1k}@keyframes c1l{45.18%{fill:var(--c1)}45.2%,100%{fill:var(--ce)}}.c.c1l{fill:var(--c1);animation-name:c1l}@keyframes c1m{33.04%{fill:var(--c1)}33.06%,100%{fill:var(--ce)}}.c.c1m{fill:var(--c1);animation-name:c1m}@keyframes c1n{45.6%{fill:var(--c1)}45.62%,100%{fill:var(--ce)}}.c.c1n{fill:var(--c1);animation-name:c1n}@keyframes c1o{46.02%{fill:var(--c1)}46.04%,100%{fill:var(--ce)}}.c.c1o{fill:var(--c1);animation-name:c1o}@keyframes c1p{33.88%{fill:var(--c1)}33.9%,100%{fill:var(--ce)}}.c.c1p{fill:var(--c1);animation-name:c1p}@keyframes c1q{76.14%{fill:var(--c2)}76.16%,100%{fill:var(--ce)}}.c.c1q{fill:var(--c2);animation-name:c1q}@keyframes c1r{74.89%{fill:var(--c2)}74.91%,100%{fill:var(--ce)}}.c.c1r{fill:var(--c2);animation-name:c1r}@keyframes c1s{40.58%{fill:var(--c1)}40.6%,100%{fill:var(--ce)}}.c.c1s{fill:var(--c1);animation-name:c1s}@keyframes c1t{40.16%{fill:var(--c1)}40.18%,100%{fill:var(--ce)}}.c.c1t{fill:var(--c1);animation-name:c1t}@keyframes c1u{46.43%{fill:var(--c1)}46.45%,100%{fill:var(--ce)}}.c.c1u{fill:var(--c1);animation-name:c1u}@keyframes c1v{34.3%{fill:var(--c1)}34.32%,100%{fill:var(--ce)}}.c.c1v{fill:var(--c1);animation-name:c1v}@keyframes c1w{75.72%{fill:var(--c2)}75.74%,100%{fill:var(--ce)}}.c.c1w{fill:var(--c2);animation-name:c1w}@keyframes c1x{75.3%{fill:var(--c2)}75.32%,100%{fill:var(--ce)}}.c.c1x{fill:var(--c2);animation-name:c1x}@keyframes c1y{38.07%{fill:var(--c1)}38.09%,100%{fill:var(--ce)}}.c.c1y{fill:var(--c1);animation-name:c1y}@keyframes c1z{38.48%{fill:var(--c1)}38.5%,100%{fill:var(--ce)}}.c.c1z{fill:var(--c1);animation-name:c1z}@keyframes c20{46.85%{fill:var(--c1)}46.87%,100%{fill:var(--ce)}}.c.c20{fill:var(--c1);animation-name:c20}@keyframes c21{77.4%{fill:var(--c4)}77.42%,100%{fill:var(--ce)}}.c.c21{fill:var(--c4);animation-name:c21}@keyframes c22{36.81%{fill:var(--c1)}36.83%,100%{fill:var(--ce)}}.c.c22{fill:var(--c1);animation-name:c22}@keyframes c23{37.23%{fill:var(--c1)}37.25%,100%{fill:var(--ce)}}.c.c23{fill:var(--c1);animation-name:c23}@keyframes c24{37.65%{fill:var(--c1)}37.67%,100%{fill:var(--ce)}}.c.c24{fill:var(--c1);animation-name:c24}@keyframes c25{38.9%{fill:var(--c1)}38.92%,100%{fill:var(--ce)}}.c.c25{fill:var(--c1);animation-name:c25}.u{transform-origin:0 0;transform:scale(0,1);animation:none linear 23900ms infinite}@keyframes u0{13.8%{transform:scale(0.000,1)}13.82%,17.14%{transform:scale(0.014,1)}17.16%,17.56%{transform:scale(0.028,1)}17.58%,17.98%{transform:scale(0.042,1)}18%,18.4%{transform:scale(0.056,1)}18.42%,18.82%{transform:scale(0.070,1)}18.84%,19.24%{transform:scale(0.085,1)}19.26%,19.66%{transform:scale(0.099,1)}19.68%,20.07%{transform:scale(0.113,1)}20.09%,20.49%{transform:scale(0.127,1)}20.51%,21.33%{transform:scale(0.141,1)}21.35%,21.75%{transform:scale(0.155,1)}21.77%,22.17%{transform:scale(0.169,1)}22.19%,22.58%{transform:scale(0.183,1)}22.6%,23%{transform:scale(0.197,1)}23.02%,23.42%{transform:scale(0.211,1)}23.44%,23.84%{transform:scale(0.225,1)}23.86%,24.26%{transform:scale(0.239,1)}24.28%,25.09%{transform:scale(0.254,1)}25.11%,25.51%{transform:scale(0.268,1)}25.53%,25.93%{transform:scale(0.282,1)}25.95%,26.35%{transform:scale(0.296,1)}26.37%,26.77%{transform:scale(0.310,1)}26.79%,27.19%{transform:scale(0.324,1)}27.21%,27.61%{transform:scale(0.338,1)}27.63%,28.02%{transform:scale(0.352,1)}28.04%,28.44%{transform:scale(0.366,1)}28.46%,29.7%{transform:scale(0.380,1)}29.72%,30.12%{transform:scale(0.394,1)}30.14%,30.95%{transform:scale(0.408,1)}30.97%,31.37%{transform:scale(0.423,1)}31.39%,32.21%{transform:scale(0.437,1)}32.23%,32.63%{transform:scale(0.451,1)}32.65%,33.04%{transform:scale(0.465,1)}33.06%,33.88%{transform:scale(0.479,1)}33.9%,34.3%{transform:scale(0.493,1)}34.32%,36.81%{transform:scale(0.507,1)}36.83%,37.23%{transform:scale(0.521,1)}37.25%,37.65%{transform:scale(0.535,1)}37.67%,38.07%{transform:scale(0.549,1)}38.09%,38.48%{transform:scale(0.563,1)}38.5%,38.9%{transform:scale(0.577,1)}38.92%,40.16%{transform:scale(0.592,1)}40.18%,40.58%{transform:scale(0.606,1)}40.6%,41.83%{transform:scale(0.620,1)}41.85%,42.25%{transform:scale(0.634,1)}42.27%,42.67%{transform:scale(0.648,1)}42.69%,43.5%{transform:scale(0.662,1)}43.52%,43.92%{transform:scale(0.676,1)}43.94%,44.34%{transform:scale(0.690,1)}44.36%,44.76%{transform:scale(0.704,1)}44.78%,45.18%{transform:scale(0.718,1)}45.2%,45.6%{transform:scale(0.732,1)}45.62%,46.02%{transform:scale(0.746,1)}46.04%,46.43%{transform:scale(0.761,1)}46.45%,46.85%{transform:scale(0.775,1)}46.87%,49.36%{transform:scale(0.789,1)}49.38%,49.78%{transform:scale(0.803,1)}49.8%,50.2%{transform:scale(0.817,1)}50.22%,51.45%{transform:scale(0.831,1)}51.47%,52.71%{transform:scale(0.845,1)}52.73%,53.13%{transform:scale(0.859,1)}53.15%,56.06%{transform:scale(0.873,1)}56.08%,56.89%{transform:scale(0.887,1)}56.91%,57.31%{transform:scale(0.901,1)}57.33%,57.73%{transform:scale(0.915,1)}57.75%,60.24%{transform:scale(0.930,1)}60.26%,64.01%{transform:scale(0.944,1)}64.03%,64.43%{transform:scale(0.958,1)}64.45%,66.1%{transform:scale(0.972,1)}66.12%,66.52%{transform:scale(0.986,1)}66.54%,100%{transform:scale(1.000,1)}}.u.u0{fill:var(--c1);animation-name:u0;transform-origin:0.0px 0}@keyframes u1{69.03%{transform:scale(0.000,1)}69.05%,71.12%{transform:scale(0.167,1)}71.14%,74.89%{transform:scale(0.333,1)}74.91%,75.3%{transform:scale(0.500,1)}75.32%,75.72%{transform:scale(0.667,1)}75.74%,76.14%{transform:scale(0.833,1)}76.16%,100%{transform:scale(1.000,1)}}.u.u1{fill:var(--c2);animation-name:u1;transform-origin:771.9px 0}@keyframes u2{77.4%{transform:scale(0.000,1)}77.42%,100%{transform:scale(1.000,1)}}.u.u2{fill:var(--c4);animation-name:u2;transform-origin:837.1px 0}.s{shape-rendering:geometricPrecision;fill:var(--cs);animation:none linear 23900ms infinite}@keyframes s0{0%,99.58%{transform:translate(0px,-16px)}0.42%{transform:translate(0px,0px)}11.3%{transform:translate(416px,0px)}13.81%{transform:translate(416px,96px)}19.25%{transform:translate(624px,96px)}19.67%{transform:translate(624px,80px)}21.34%{transform:translate(560px,80px)}22.18%{transform:translate(560px,48px)}22.59%{transform:translate(576px,48px)}23.85%{transform:translate(576px,0px)}25.1%{transform:translate(624px,0px)}25.94%{transform:translate(624px,32px)}26.36%{transform:translate(608px,32px)}26.78%{transform:translate(608px,48px)}28.03%{transform:translate(656px,48px)}28.45%{transform:translate(656px,32px)}29.29%{transform:translate(688px,32px)}29.71%{transform:translate(688px,48px)}31.38%{transform:translate(752px,48px)}32.22%{transform:translate(752px,16px)}33.05%{transform:translate(784px,16px)}33.47%{transform:translate(784px,0px)}34.31%{transform:translate(816px,0px)}34.73%{transform:translate(816px,-16px)}35.56%{transform:translate(848px,-16px)}36.4%{transform:translate(848px,16px)}36.82%{transform:translate(832px,16px)}37.66%{transform:translate(832px,48px)}38.08%{transform:translate(816px,48px)}38.49%{transform:translate(816px,64px)}38.91%{transform:translate(832px,64px)}39.33%{transform:translate(832px,80px)}40.17%{transform:translate(800px,80px)}40.59%,74.06%{transform:translate(800px,64px)}43.1%{transform:translate(704px,64px)}43.51%{transform:translate(704px,80px)}45.61%{transform:translate(784px,80px)}46.03%{transform:translate(784px,96px)}46.86%{transform:translate(816px,96px)}47.28%{transform:translate(816px,80px)}48.95%{transform:translate(752px,80px)}49.37%{transform:translate(752px,96px)}50.21%{transform:translate(720px,96px)}50.63%{transform:translate(720px,80px)}51.88%{transform:translate(672px,80px)}52.3%{transform:translate(672px,64px)}53.14%{transform:translate(640px,64px)}53.56%{transform:translate(640px,48px)}55.65%{transform:translate(720px,48px)}56.07%{transform:translate(720px,32px)}56.49%{transform:translate(736px,32px)}57.32%{transform:translate(736px,0px)}57.74%{transform:translate(752px,0px)}58.16%{transform:translate(752px,-16px)}59.83%{transform:translate(688px,-16px)}60.25%{transform:translate(688px,0px)}63.6%{transform:translate(560px,0px)}64.44%{transform:translate(560px,32px)}65.27%{transform:translate(528px,32px)}66.53%{transform:translate(528px,80px)}68.62%{transform:translate(608px,80px)}69.04%{transform:translate(608px,64px)}74.9%{transform:translate(800px,32px)}75.31%{transform:translate(816px,32px)}75.73%{transform:translate(816px,16px)}76.15%{transform:translate(800px,16px)}76.57%{transform:translate(800px,0px)}77.41%{transform:translate(832px,0px)}77.82%{transform:translate(832px,-16px)}}.s.s0{transform:translate(0px,-16px);animation-name:s0}@keyframes s1{0%,99.58%{transform:translate(16px,-16px)}0.42%{transform:translate(0px,-16px)}0.84%{transform:translate(0px,0px)}11.72%{transform:translate(416px,0px)}14.23%{transform:translate(416px,96px)}19.67%{transform:translate(624px,96px)}20.08%{transform:translate(624px,80px)}21.76%{transform:translate(560px,80px)}22.59%{transform:translate(560px,48px)}23.01%{transform:translate(576px,48px)}24.27%{transform:translate(576px,0px)}25.52%{transform:translate(624px,0px)}26.36%{transform:translate(624px,32px)}26.78%{transform:translate(608px,32px)}27.2%{transform:translate(608px,48px)}28.45%{transform:translate(656px,48px)}28.87%{transform:translate(656px,32px)}29.71%{transform:translate(688px,32px)}30.13%{transform:translate(688px,48px)}31.8%{transform:translate(752px,48px)}32.64%{transform:translate(752px,16px)}33.47%{transform:translate(784px,16px)}33.89%{transform:translate(784px,0px)}34.73%{transform:translate(816px,0px)}35.15%{transform:translate(816px,-16px)}35.98%{transform:translate(848px,-16px)}36.82%{transform:translate(848px,16px)}37.24%{transform:translate(832px,16px)}38.08%{transform:translate(832px,48px)}38.49%{transform:translate(816px,48px)}38.91%{transform:translate(816px,64px)}39.33%{transform:translate(832px,64px)}39.75%{transform:translate(832px,80px)}40.59%{transform:translate(800px,80px)}41%,74.48%{transform:translate(800px,64px)}43.51%{transform:translate(704px,64px)}43.93%{transform:translate(704px,80px)}46.03%{transform:translate(784px,80px)}46.44%{transform:translate(784px,96px)}47.28%{transform:translate(816px,96px)}47.7%{transform:translate(816px,80px)}49.37%{transform:translate(752px,80px)}49.79%{transform:translate(752px,96px)}50.63%{transform:translate(720px,96px)}51.05%{transform:translate(720px,80px)}52.3%{transform:translate(672px,80px)}52.72%{transform:translate(672px,64px)}53.56%{transform:translate(640px,64px)}53.97%{transform:translate(640px,48px)}56.07%{transform:translate(720px,48px)}56.49%{transform:translate(720px,32px)}56.9%{transform:translate(736px,32px)}57.74%{transform:translate(736px,0px)}58.16%{transform:translate(752px,0px)}58.58%{transform:translate(752px,-16px)}60.25%{transform:translate(688px,-16px)}60.67%{transform:translate(688px,0px)}64.02%{transform:translate(560px,0px)}64.85%{transform:translate(560px,32px)}65.69%{transform:translate(528px,32px)}66.95%{transform:translate(528px,80px)}69.04%{transform:translate(608px,80px)}69.46%{transform:translate(608px,64px)}75.31%{transform:translate(800px,32px)}75.73%{transform:translate(816px,32px)}76.15%{transform:translate(816px,16px)}76.57%{transform:translate(800px,16px)}76.99%{transform:translate(800px,0px)}77.82%{transform:translate(832px,0px)}78.24%{transform:translate(832px,-16px)}}.s.s1{transform:translate(16px,-16px);animation-name:s1}@keyframes s2{0%,99.58%{transform:translate(32px,-16px)}0.84%{transform:translate(0px,-16px)}1.26%{transform:translate(0px,0px)}12.13%{transform:translate(416px,0px)}14.64%{transform:translate(416px,96px)}20.08%{transform:translate(624px,96px)}20.5%{transform:translate(624px,80px)}22.18%{transform:translate(560px,80px)}23.01%{transform:translate(560px,48px)}23.43%{transform:translate(576px,48px)}24.69%{transform:translate(576px,0px)}25.94%{transform:translate(624px,0px)}26.78%{transform:translate(624px,32px)}27.2%{transform:translate(608px,32px)}27.62%{transform:translate(608px,48px)}28.87%{transform:translate(656px,48px)}29.29%{transform:translate(656px,32px)}30.13%{transform:translate(688px,32px)}30.54%{transform:translate(688px,48px)}32.22%{transform:translate(752px,48px)}33.05%{transform:translate(752px,16px)}33.89%{transform:translate(784px,16px)}34.31%{transform:translate(784px,0px)}35.15%{transform:translate(816px,0px)}35.56%{transform:translate(816px,-16px)}36.4%{transform:translate(848px,-16px)}37.24%{transform:translate(848px,16px)}37.66%{transform:translate(832px,16px)}38.49%{transform:translate(832px,48px)}38.91%{transform:translate(816px,48px)}39.33%{transform:translate(816px,64px)}39.75%{transform:translate(832px,64px)}40.17%{transform:translate(832px,80px)}41%{transform:translate(800px,80px)}41.42%,74.9%{transform:translate(800px,64px)}43.93%{transform:translate(704px,64px)}44.35%{transform:translate(704px,80px)}46.44%{transform:translate(784px,80px)}46.86%{transform:translate(784px,96px)}47.7%{transform:translate(816px,96px)}48.12%{transform:translate(816px,80px)}49.79%{transform:translate(752px,80px)}50.21%{transform:translate(752px,96px)}51.05%{transform:translate(720px,96px)}51.46%{transform:translate(720px,80px)}52.72%{transform:translate(672px,80px)}53.14%{transform:translate(672px,64px)}53.97%{transform:translate(640px,64px)}54.39%{transform:translate(640px,48px)}56.49%{transform:translate(720px,48px)}56.9%{transform:translate(720px,32px)}57.32%{transform:translate(736px,32px)}58.16%{transform:translate(736px,0px)}58.58%{transform:translate(752px,0px)}59%{transform:translate(752px,-16px)}60.67%{transform:translate(688px,-16px)}61.09%{transform:translate(688px,0px)}64.44%{transform:translate(560px,0px)}65.27%{transform:translate(560px,32px)}66.11%{transform:translate(528px,32px)}67.36%{transform:translate(528px,80px)}69.46%{transform:translate(608px,80px)}69.87%{transform:translate(608px,64px)}75.73%{transform:translate(800px,32px)}76.15%{transform:translate(816px,32px)}76.57%{transform:translate(816px,16px)}76.99%{transform:translate(800px,16px)}77.41%{transform:translate(800px,0px)}78.24%{transform:translate(832px,0px)}78.66%{transform:translate(832px,-16px)}}.s.s2{transform:translate(32px,-16px);animation-name:s2}@keyframes s3{0%,99.58%{transform:translate(48px,-16px)}1.26%{transform:translate(0px,-16px)}1.67%{transform:translate(0px,0px)}12.55%{transform:translate(416px,0px)}15.06%{transform:translate(416px,96px)}20.5%{transform:translate(624px,96px)}20.92%{transform:translate(624px,80px)}22.59%{transform:translate(560px,80px)}23.43%{transform:translate(560px,48px)}23.85%{transform:translate(576px,48px)}25.1%{transform:translate(576px,0px)}26.36%{transform:translate(624px,0px)}27.2%{transform:translate(624px,32px)}27.62%{transform:translate(608px,32px)}28.03%{transform:translate(608px,48px)}29.29%{transform:translate(656px,48px)}29.71%{transform:translate(656px,32px)}30.54%{transform:translate(688px,32px)}30.96%{transform:translate(688px,48px)}32.64%{transform:translate(752px,48px)}33.47%{transform:translate(752px,16px)}34.31%{transform:translate(784px,16px)}34.73%{transform:translate(784px,0px)}35.56%{transform:translate(816px,0px)}35.98%{transform:translate(816px,-16px)}36.82%{transform:translate(848px,-16px)}37.66%{transform:translate(848px,16px)}38.08%{transform:translate(832px,16px)}38.91%{transform:translate(832px,48px)}39.33%{transform:translate(816px,48px)}39.75%{transform:translate(816px,64px)}40.17%{transform:translate(832px,64px)}40.59%{transform:translate(832px,80px)}41.42%{transform:translate(800px,80px)}41.84%,75.31%{transform:translate(800px,64px)}44.35%{transform:translate(704px,64px)}44.77%{transform:translate(704px,80px)}46.86%{transform:translate(784px,80px)}47.28%{transform:translate(784px,96px)}48.12%{transform:translate(816px,96px)}48.54%{transform:translate(816px,80px)}50.21%{transform:translate(752px,80px)}50.63%{transform:translate(752px,96px)}51.46%{transform:translate(720px,96px)}51.88%{transform:translate(720px,80px)}53.14%{transform:translate(672px,80px)}53.56%{transform:translate(672px,64px)}54.39%{transform:translate(640px,64px)}54.81%{transform:translate(640px,48px)}56.9%{transform:translate(720px,48px)}57.32%{transform:translate(720px,32px)}57.74%{transform:translate(736px,32px)}58.58%{transform:translate(736px,0px)}59%{transform:translate(752px,0px)}59.41%{transform:translate(752px,-16px)}61.09%{transform:translate(688px,-16px)}61.51%{transform:translate(688px,0px)}64.85%{transform:translate(560px,0px)}65.69%{transform:translate(560px,32px)}66.53%{transform:translate(528px,32px)}67.78%{transform:translate(528px,80px)}69.87%{transform:translate(608px,80px)}70.29%{transform:translate(608px,64px)}76.15%{transform:translate(800px,32px)}76.57%{transform:translate(816px,32px)}76.99%{transform:translate(816px,16px)}77.41%{transform:translate(800px,16px)}77.82%{transform:translate(800px,0px)}78.66%{transform:translate(832px,0px)}79.08%{transform:translate(832px,-16px)}}.s.s3{transform:translate(48px,-16px);animation-name:s3}</style><rect class="c" x="2" y="2" rx="2" ry="2"/><rect class="c" x="2" y="18" rx="2" ry="2"/><rect class="c" x="2" y="34" rx="2" ry="2"/><rect class="c" x="2" y="50" rx="2" ry="2"/><rect class="c" x="2" y="66" rx="2" ry="2"/><rect class="c" x="2" y="82" rx="2" ry="2"/><rect class="c" x="2" y="98" rx="2" ry="2"/><rect class="c" x="18" y="2" rx="2" ry="2"/><rect class="c" x="18" y="18" rx="2" ry="2"/><rect class="c" x="18" y="34" rx="2" ry="2"/><rect class="c" x="18" y="50" rx="2" ry="2"/><rect class="c" x="18" y="66" rx="2" ry="2"/><rect class="c" x="18" y="82" rx="2" ry="2"/><rect class="c" x="18" y="98" rx="2" ry="2"/><rect class="c" x="34" y="2" rx="2" ry="2"/><rect class="c" x="34" y="18" rx="2" ry="2"/><rect class="c" x="34" y="34" rx="2" ry="2"/><rect class="c" x="34" y="50" rx="2" ry="2"/><rect class="c" x="34" y="66" rx="2" ry="2"/><rect class="c" x="34" y="82" rx="2" ry="2"/><rect class="c" x="34" y="98" rx="2" ry="2"/><rect class="c" x="50" y="2" rx="2" ry="2"/><rect class="c" x="50" y="18" rx="2" ry="2"/><rect class="c" x="50" y="34" rx="2" ry="2"/><rect class="c" x="50" y="50" rx="2" ry="2"/><rect class="c" x="50" y="66" rx="2" ry="2"/><rect class="c" x="50" y="82" rx="2" ry="2"/><rect class="c" x="50" y="98" rx="2" ry="2"/><rect class="c" x="66" y="2" rx="2" ry="2"/><rect class="c" x="66" y="18" rx="2" ry="2"/><rect class="c" x="66" y="34" rx="2" ry="2"/><rect class="c" x="66" y="50" rx="2" ry="2"/><rect class="c" x="66" y="66" rx="2" ry="2"/><rect class="c" x="66" y="82" rx="2" ry="2"/><rect class="c" x="66" y="98" rx="2" ry="2"/><rect class="c" x="82" y="2" rx="2" ry="2"/><rect class="c" x="82" y="18" rx="2" ry="2"/><rect class="c" x="82" y="34" rx="2" ry="2"/><rect class="c" x="82" y="50" rx="2" ry="2"/><rect class="c" x="82" y="66" rx="2" ry="2"/><rect class="c" x="82" y="82" rx="2" ry="2"/><rect class="c" x="82" y="98" rx="2" ry="2"/><rect class="c" x="98" y="2" rx="2" ry="2"/><rect class="c" x="98" y="18" rx="2" ry="2"/><rect class="c" x="98" y="34" rx="2" ry="2"/><rect class="c" x="98" y="50" rx="2" ry="2"/><rect class="c" x="98" y="66" rx="2" ry="2"/><rect class="c" x="98" y="82" rx="2" ry="2"/><rect class="c" x="98" y="98" rx="2" ry="2"/><rect class="c" x="114" y="2" rx="2" ry="2"/><rect class="c" x="114" y="18" rx="2" ry="2"/><rect class="c" x="114" y="34" rx="2" ry="2"/><rect class="c" x="114" y="50" rx="2" ry="2"/><rect class="c" x="114" y="66" rx="2" ry="2"/><rect class="c" x="114" y="82" rx="2" ry="2"/><rect class="c" x="114" y="98" rx="2" ry="2"/><rect class="c" x="130" y="2" rx="2" ry="2"/><rect class="c" x="130" y="18" rx="2" ry="2"/><rect class="c" x="130" y="34" rx="2" ry="2"/><rect class="c" x="130" y="50" rx="2" ry="2"/><rect class="c" x="130" y="66" rx="2" ry="2"/><rect class="c" x="130" y="82" rx="2" ry="2"/><rect class="c" x="130" y="98" rx="2" ry="2"/><rect class="c" x="146" y="2" rx="2" ry="2"/><rect class="c" x="146" y="18" rx="2" ry="2"/><rect class="c" x="146" y="34" rx="2" ry="2"/><rect class="c" x="146" y="50" rx="2" ry="2"/><rect class="c" x="146" y="66" rx="2" ry="2"/><rect class="c" x="146" y="82" rx="2" ry="2"/><rect class="c" x="146" y="98" rx="2" ry="2"/><rect class="c" x="162" y="2" rx="2" ry="2"/><rect class="c" x="162" y="18" rx="2" ry="2"/><rect class="c" x="162" y="34" rx="2" ry="2"/><rect class="c" x="162" y="50" rx="2" ry="2"/><rect class="c" x="162" y="66" rx="2" ry="2"/><rect class="c" x="162" y="82" rx="2" ry="2"/><rect class="c" x="162" y="98" rx="2" ry="2"/><rect class="c" x="178" y="2" rx="2" ry="2"/><rect class="c" x="178" y="18" rx="2" ry="2"/><rect class="c" x="178" y="34" rx="2" ry="2"/><rect class="c" x="178" y="50" rx="2" ry="2"/><rect class="c" x="178" y="66" rx="2" ry="2"/><rect class="c" x="178" y="82" rx="2" ry="2"/><rect class="c" x="178" y="98" rx="2" ry="2"/><rect class="c" x="194" y="2" rx="2" ry="2"/><rect class="c" x="194" y="18" rx="2" ry="2"/><rect class="c" x="194" y="34" rx="2" ry="2"/><rect class="c" x="194" y="50" rx="2" ry="2"/><rect class="c" x="194" y="66" rx="2" ry="2"/><rect class="c" x="194" y="82" rx="2" ry="2"/><rect class="c" x="194" y="98" rx="2" ry="2"/><rect class="c" x="210" y="2" rx="2" ry="2"/><rect class="c" x="210" y="18" rx="2" ry="2"/><rect class="c" x="210" y="34" rx="2" ry="2"/><rect class="c" x="210" y="50" rx="2" ry="2"/><rect class="c" x="210" y="66" rx="2" ry="2"/><rect class="c" x="210" y="82" rx="2" ry="2"/><rect class="c" x="210" y="98" rx="2" ry="2"/><rect class="c" x="226" y="2" rx="2" ry="2"/><rect class="c" x="226" y="18" rx="2" ry="2"/><rect class="c" x="226" y="34" rx="2" ry="2"/><rect class="c" x="226" y="50" rx="2" ry="2"/><rect class="c" x="226" y="66" rx="2" ry="2"/><rect class="c" x="226" y="82" rx="2" ry="2"/><rect class="c" x="226" y="98" rx="2" ry="2"/><rect class="c" x="242" y="2" rx="2" ry="2"/><rect class="c" x="242" y="18" rx="2" ry="2"/><rect class="c" x="242" y="34" rx="2" ry="2"/><rect class="c" x="242" y="50" rx="2" ry="2"/><rect class="c" x="242" y="66" rx="2" ry="2"/><rect class="c" x="242" y="82" rx="2" ry="2"/><rect class="c" x="242" y="98" rx="2" ry="2"/><rect class="c" x="258" y="2" rx="2" ry="2"/><rect class="c" x="258" y="18" rx="2" ry="2"/><rect class="c" x="258" y="34" rx="2" ry="2"/><rect class="c" x="258" y="50" rx="2" ry="2"/><rect class="c" x="258" y="66" rx="2" ry="2"/><rect class="c" x="258" y="82" rx="2" ry="2"/><rect class="c" x="258" y="98" rx="2" ry="2"/><rect class="c" x="274" y="2" rx="2" ry="2"/><rect class="c" x="274" y="18" rx="2" ry="2"/><rect class="c" x="274" y="34" rx="2" ry="2"/><rect class="c" x="274" y="50" rx="2" ry="2"/><rect class="c" x="274" y="66" rx="2" ry="2"/><rect class="c" x="274" y="82" rx="2" ry="2"/><rect class="c" x="274" y="98" rx="2" ry="2"/><rect class="c" x="290" y="2" rx="2" ry="2"/><rect class="c" x="290" y="18" rx="2" ry="2"/><rect class="c" x="290" y="34" rx="2" ry="2"/><rect class="c" x="290" y="50" rx="2" ry="2"/><rect class="c" x="290" y="66" rx="2" ry="2"/><rect class="c" x="290" y="82" rx="2" ry="2"/><rect class="c" x="290" y="98" rx="2" ry="2"/><rect class="c" x="306" y="2" rx="2" ry="2"/><rect class="c" x="306" y="18" rx="2" ry="2"/><rect class="c" x="306" y="34" rx="2" ry="2"/><rect class="c" x="306" y="50" rx="2" ry="2"/><rect class="c" x="306" y="66" rx="2" ry="2"/><rect class="c" x="306" y="82" rx="2" ry="2"/><rect class="c" x="306" y="98" rx="2" ry="2"/><rect class="c" x="322" y="2" rx="2" ry="2"/><rect class="c" x="322" y="18" rx="2" ry="2"/><rect class="c" x="322" y="34" rx="2" ry="2"/><rect class="c" x="322" y="50" rx="2" ry="2"/><rect class="c" x="322" y="66" rx="2" ry="2"/><rect class="c" x="322" y="82" rx="2" ry="2"/><rect class="c" x="322" y="98" rx="2" ry="2"/><rect class="c" x="338" y="2" rx="2" ry="2"/><rect class="c" x="338" y="18" rx="2" ry="2"/><rect class="c" x="338" y="34" rx="2" ry="2"/><rect class="c" x="338" y="50" rx="2" ry="2"/><rect class="c" x="338" y="66" rx="2" ry="2"/><rect class="c" x="338" y="82" rx="2" ry="2"/><rect class="c" x="338" y="98" rx="2" ry="2"/><rect class="c" x="354" y="2" rx="2" ry="2"/><rect class="c" x="354" y="18" rx="2" ry="2"/><rect class="c" x="354" y="34" rx="2" ry="2"/><rect class="c" x="354" y="50" rx="2" ry="2"/><rect class="c" x="354" y="66" rx="2" ry="2"/><rect class="c" x="354" y="82" rx="2" ry="2"/><rect class="c" x="354" y="98" rx="2" ry="2"/><rect class="c" x="370" y="2" rx="2" ry="2"/><rect class="c" x="370" y="18" rx="2" ry="2"/><rect class="c" x="370" y="34" rx="2" ry="2"/><rect class="c" x="370" y="50" rx="2" ry="2"/><rect class="c" x="370" y="66" rx="2" ry="2"/><rect class="c" x="370" y="82" rx="2" ry="2"/><rect class="c" x="370" y="98" rx="2" ry="2"/><rect class="c" x="386" y="2" rx="2" ry="2"/><rect class="c" x="386" y="18" rx="2" ry="2"/><rect class="c" x="386" y="34" rx="2" ry="2"/><rect class="c" x="386" y="50" rx="2" ry="2"/><rect class="c" x="386" y="66" rx="2" ry="2"/><rect class="c" x="386" y="82" rx="2" ry="2"/><rect class="c" x="386" y="98" rx="2" ry="2"/><rect class="c" x="402" y="2" rx="2" ry="2"/><rect class="c" x="402" y="18" rx="2" ry="2"/><rect class="c" x="402" y="34" rx="2" ry="2"/><rect class="c" x="402" y="50" rx="2" ry="2"/><rect class="c" x="402" y="66" rx="2" ry="2"/><rect class="c" x="402" y="82" rx="2" ry="2"/><rect class="c" x="402" y="98" rx="2" ry="2"/><rect class="c" x="418" y="2" rx="2" ry="2"/><rect class="c" x="418" y="18" rx="2" ry="2"/><rect class="c" x="418" y="34" rx="2" ry="2"/><rect class="c" x="418" y="50" rx="2" ry="2"/><rect class="c" x="418" y="66" rx="2" ry="2"/><rect class="c" x="418" y="82" rx="2" ry="2"/><rect class="c c0" x="418" y="98" rx="2" ry="2"/><rect class="c" x="434" y="2" rx="2" ry="2"/><rect class="c" x="434" y="18" rx="2" ry="2"/><rect class="c" x="434" y="34" rx="2" ry="2"/><rect class="c" x="434" y="50" rx="2" ry="2"/><rect class="c" x="434" y="66" rx="2" ry="2"/><rect class="c" x="434" y="82" rx="2" ry="2"/><rect class="c" x="434" y="98" rx="2" ry="2"/><rect class="c" x="450" y="2" rx="2" ry="2"/><rect class="c" x="450" y="18" rx="2" ry="2"/><rect class="c" x="450" y="34" rx="2" ry="2"/><rect class="c" x="450" y="50" rx="2" ry="2"/><rect class="c" x="450" y="66" rx="2" ry="2"/><rect class="c" x="450" y="82" rx="2" ry="2"/><rect class="c" x="450" y="98" rx="2" ry="2"/><rect class="c" x="466" y="2" rx="2" ry="2"/><rect class="c" x="466" y="18" rx="2" ry="2"/><rect class="c" x="466" y="34" rx="2" ry="2"/><rect class="c" x="466" y="50" rx="2" ry="2"/><rect class="c" x="466" y="66" rx="2" ry="2"/><rect class="c" x="466" y="82" rx="2" ry="2"/><rect class="c" x="466" y="98" rx="2" ry="2"/><rect class="c" x="482" y="2" rx="2" ry="2"/><rect class="c" x="482" y="18" rx="2" ry="2"/><rect class="c" x="482" y="34" rx="2" ry="2"/><rect class="c" x="482" y="50" rx="2" ry="2"/><rect class="c" x="482" y="66" rx="2" ry="2"/><rect class="c" x="482" y="82" rx="2" ry="2"/><rect class="c" x="482" y="98" rx="2" ry="2"/><rect class="c" x="498" y="2" rx="2" ry="2"/><rect class="c" x="498" y="18" rx="2" ry="2"/><rect class="c" x="498" y="34" rx="2" ry="2"/><rect class="c" x="498" y="50" rx="2" ry="2"/><rect class="c" x="498" y="66" rx="2" ry="2"/><rect class="c" x="498" y="82" rx="2" ry="2"/><rect class="c" x="498" y="98" rx="2" ry="2"/><rect class="c" x="514" y="2" rx="2" ry="2"/><rect class="c" x="514" y="18" rx="2" ry="2"/><rect class="c" x="514" y="34" rx="2" ry="2"/><rect class="c" x="514" y="50" rx="2" ry="2"/><rect class="c" x="514" y="66" rx="2" ry="2"/><rect class="c" x="514" y="82" rx="2" ry="2"/><rect class="c" x="514" y="98" rx="2" ry="2"/><rect class="c" x="530" y="2" rx="2" ry="2"/><rect class="c" x="530" y="18" rx="2" ry="2"/><rect class="c" x="530" y="34" rx="2" ry="2"/><rect class="c" x="530" y="50" rx="2" ry="2"/><rect class="c c1" x="530" y="66" rx="2" ry="2"/><rect class="c c2" x="530" y="82" rx="2" ry="2"/><rect class="c" x="530" y="98" rx="2" ry="2"/><rect class="c" x="546" y="2" rx="2" ry="2"/><rect class="c" x="546" y="18" rx="2" ry="2"/><rect class="c" x="546" y="34" rx="2" ry="2"/><rect class="c" x="546" y="50" rx="2" ry="2"/><rect class="c" x="546" y="66" rx="2" ry="2"/><rect class="c" x="546" y="82" rx="2" ry="2"/><rect class="c c3" x="546" y="98" rx="2" ry="2"/><rect class="c" x="562" y="2" rx="2" ry="2"/><rect class="c c4" x="562" y="18" rx="2" ry="2"/><rect class="c c5" x="562" y="34" rx="2" ry="2"/><rect class="c c6" x="562" y="50" rx="2" ry="2"/><rect class="c c7" x="562" y="66" rx="2" ry="2"/><rect class="c c8" x="562" y="82" rx="2" ry="2"/><rect class="c c9" x="562" y="98" rx="2" ry="2"/><rect class="c ca" x="578" y="2" rx="2" ry="2"/><rect class="c cb" x="578" y="18" rx="2" ry="2"/><rect class="c cc" x="578" y="34" rx="2" ry="2"/><rect class="c cd" x="578" y="50" rx="2" ry="2"/><rect class="c" x="578" y="66" rx="2" ry="2"/><rect class="c" x="578" y="82" rx="2" ry="2"/><rect class="c ce" x="578" y="98" rx="2" ry="2"/><rect class="c cf" x="594" y="2" rx="2" ry="2"/><rect class="c" x="594" y="18" rx="2" ry="2"/><rect class="c" x="594" y="34" rx="2" ry="2"/><rect class="c" x="594" y="50" rx="2" ry="2"/><rect class="c" x="594" y="66" rx="2" ry="2"/><rect class="c cg" x="594" y="82" rx="2" ry="2"/><rect class="c ch" x="594" y="98" rx="2" ry="2"/><rect class="c" x="610" y="2" rx="2" ry="2"/><rect class="c" x="610" y="18" rx="2" ry="2"/><rect class="c ci" x="610" y="34" rx="2" ry="2"/><rect class="c cj" x="610" y="50" rx="2" ry="2"/><rect class="c ck" x="610" y="66" rx="2" ry="2"/><rect class="c cl" x="610" y="82" rx="2" ry="2"/><rect class="c cm" x="610" y="98" rx="2" ry="2"/><rect class="c cn" x="626" y="2" rx="2" ry="2"/><rect class="c co" x="626" y="18" rx="2" ry="2"/><rect class="c cp" x="626" y="34" rx="2" ry="2"/><rect class="c cq" x="626" y="50" rx="2" ry="2"/><rect class="c" x="626" y="66" rx="2" ry="2"/><rect class="c cr" x="626" y="82" rx="2" ry="2"/><rect class="c cs" x="626" y="98" rx="2" ry="2"/><rect class="c" x="642" y="2" rx="2" ry="2"/><rect class="c" x="642" y="18" rx="2" ry="2"/><rect class="c" x="642" y="34" rx="2" ry="2"/><rect class="c ct" x="642" y="50" rx="2" ry="2"/><rect class="c cu" x="642" y="66" rx="2" ry="2"/><rect class="c" x="642" y="82" rx="2" ry="2"/><rect class="c" x="642" y="98" rx="2" ry="2"/><rect class="c" x="658" y="2" rx="2" ry="2"/><rect class="c" x="658" y="18" rx="2" ry="2"/><rect class="c cv" x="658" y="34" rx="2" ry="2"/><rect class="c cw" x="658" y="50" rx="2" ry="2"/><rect class="c cx" x="658" y="66" rx="2" ry="2"/><rect class="c" x="658" y="82" rx="2" ry="2"/><rect class="c" x="658" y="98" rx="2" ry="2"/><rect class="c" x="674" y="2" rx="2" ry="2"/><rect class="c" x="674" y="18" rx="2" ry="2"/><rect class="c" x="674" y="34" rx="2" ry="2"/><rect class="c" x="674" y="50" rx="2" ry="2"/><rect class="c" x="674" y="66" rx="2" ry="2"/><rect class="c" x="674" y="82" rx="2" ry="2"/><rect class="c" x="674" y="98" rx="2" ry="2"/><rect class="c cy" x="690" y="2" rx="2" ry="2"/><rect class="c" x="690" y="18" rx="2" ry="2"/><rect class="c" x="690" y="34" rx="2" ry="2"/><rect class="c cz" x="690" y="50" rx="2" ry="2"/><rect class="c c10" x="690" y="66" rx="2" ry="2"/><rect class="c c11" x="690" y="82" rx="2" ry="2"/><rect class="c" x="690" y="98" rx="2" ry="2"/><rect class="c" x="706" y="2" rx="2" ry="2"/><rect class="c" x="706" y="18" rx="2" ry="2"/><rect class="c" x="706" y="34" rx="2" ry="2"/><rect class="c c12" x="706" y="50" rx="2" ry="2"/><rect class="c" x="706" y="66" rx="2" ry="2"/><rect class="c c13" x="706" y="82" rx="2" ry="2"/><rect class="c" x="706" y="98" rx="2" ry="2"/><rect class="c" x="722" y="2" rx="2" ry="2"/><rect class="c" x="722" y="18" rx="2" ry="2"/><rect class="c c14" x="722" y="34" rx="2" ry="2"/><rect class="c" x="722" y="50" rx="2" ry="2"/><rect class="c c15" x="722" y="66" rx="2" ry="2"/><rect class="c c16" x="722" y="82" rx="2" ry="2"/><rect class="c c17" x="722" y="98" rx="2" ry="2"/><rect class="c c18" x="738" y="2" rx="2" ry="2"/><rect class="c c19" x="738" y="18" rx="2" ry="2"/><rect class="c" x="738" y="34" rx="2" ry="2"/><rect class="c c1a" x="738" y="50" rx="2" ry="2"/><rect class="c c1b" x="738" y="66" rx="2" ry="2"/><rect class="c c1c" x="738" y="82" rx="2" ry="2"/><rect class="c c1d" x="738" y="98" rx="2" ry="2"/><rect class="c c1e" x="754" y="2" rx="2" ry="2"/><rect class="c c1f" x="754" y="18" rx="2" ry="2"/><rect class="c" x="754" y="34" rx="2" ry="2"/><rect class="c c1g" x="754" y="50" rx="2" ry="2"/><rect class="c c1h" x="754" y="66" rx="2" ry="2"/><rect class="c c1i" x="754" y="82" rx="2" ry="2"/><rect class="c c1j" x="754" y="98" rx="2" ry="2"/><rect class="c" x="770" y="2" rx="2" ry="2"/><rect class="c c1k" x="770" y="18" rx="2" ry="2"/><rect class="c" x="770" y="34" rx="2" ry="2"/><rect class="c" x="770" y="50" rx="2" ry="2"/><rect class="c" x="770" y="66" rx="2" ry="2"/><rect class="c c1l" x="770" y="82" rx="2" ry="2"/><rect class="c" x="770" y="98" rx="2" ry="2"/><rect class="c" x="786" y="2" rx="2" ry="2"/><rect class="c c1m" x="786" y="18" rx="2" ry="2"/><rect class="c" x="786" y="34" rx="2" ry="2"/><rect class="c" x="786" y="50" rx="2" ry="2"/><rect class="c" x="786" y="66" rx="2" ry="2"/><rect class="c c1n" x="786" y="82" rx="2" ry="2"/><rect class="c c1o" x="786" y="98" rx="2" ry="2"/><rect class="c c1p" x="802" y="2" rx="2" ry="2"/><rect class="c c1q" x="802" y="18" rx="2" ry="2"/><rect class="c c1r" x="802" y="34" rx="2" ry="2"/><rect class="c" x="802" y="50" rx="2" ry="2"/><rect class="c c1s" x="802" y="66" rx="2" ry="2"/><rect class="c c1t" x="802" y="82" rx="2" ry="2"/><rect class="c c1u" x="802" y="98" rx="2" ry="2"/><rect class="c c1v" x="818" y="2" rx="2" ry="2"/><rect class="c c1w" x="818" y="18" rx="2" ry="2"/><rect class="c c1x" x="818" y="34" rx="2" ry="2"/><rect class="c c1y" x="818" y="50" rx="2" ry="2"/><rect class="c c1z" x="818" y="66" rx="2" ry="2"/><rect class="c" x="818" y="82" rx="2" ry="2"/><rect class="c c20" x="818" y="98" rx="2" ry="2"/><rect class="c c21" x="834" y="2" rx="2" ry="2"/><rect class="c c22" x="834" y="18" rx="2" ry="2"/><rect class="c c23" x="834" y="34" rx="2" ry="2"/><rect class="c c24" x="834" y="50" rx="2" ry="2"/><rect class="c c25" x="834" y="66" rx="2" ry="2"/><rect class="c" x="834" y="82" rx="2" ry="2"/><rect class="c" x="834" y="98" rx="2" ry="2"/><rect class="u u0" height="12" width="772.5" x="0.0" y="144"/><rect class="u u1" height="12" width="65.8" x="771.9" y="144"/><rect class="u u2" height="12" width="11.5" x="837.1" y="144"/><rect class="s s0" x="0.8" y="0.8" width="14.4" height="14.4" rx="4.5" ry="4.5"/><rect class="s s1" x="1.8" y="1.8" width="12.3" height="12.3" rx="4.1" ry="4.1"/><rect class="s s2" x="2.6" y="2.6" width="10.8" height="10.8" rx="3.6" ry="3.6"/><rect class="s s3" x="3.0" y="3.0" width="9.9" height="9.9" rx="3.3" ry="3.3"/></svg>