<svg viewBox="-16 -32 880 192" width="880" height="192" xmlns="http://www.w3.org/2000/svg"><desc>Generated with https://github.com/Platane/snk</desc><style>:root{--cb:#1b1f230a;--cs:purple;--ce:#161b22;--c0:#161b22;--c1:#01311f;--c2:#034525;--c3:#0f6d31;--c4:#00c647}.c{shape-rendering:geometricPrecision;fill:var(--ce);stroke-width:1px;stroke:var(--cb);animation:none 26900ms linear infinite;width:12px;height:12px}@keyframes c0{10.77%{fill:var(--c1)}10.79%,100%{fill:var(--ce)}}.c.c0{fill:var(--c1);animation-name:c0}@keyframes c1{71.37%{fill:var(--c1)}71.39%,100%{fill:var(--ce)}}.c.c1{fill:var(--c1);animation-name:c1}@keyframes c2{71.74%{fill:var(--c1)}71.76%,100%{fill:var(--ce)}}.c.c2{fill:var(--c1);animation-name:c2}@keyframes c3{13.74%{fill:var(--c1)}13.76%,100%{fill:var(--ce)}}.c.c3{fill:var(--c1);animation-name:c3}@keyframes c4{69.51%{fill:var(--c1)}69.53%,100%{fill:var(--ce)}}.c.c4{fill:var(--c1);animation-name:c4}@keyframes c5{69.88%{fill:var(--c1)}69.9%,100%{fill:var(--ce)}}.c.c5{fill:var(--c1);animation-name:c5}@keyframes c6{18.21%{fill:var(--c1)}18.23%,100%{fill:var(--ce)}}.c.c6{fill:var(--c1);animation-name:c6}@keyframes c7{17.83%{fill:var(--c1)}17.85%,100%{fill:var(--ce)}}.c.c7{fill:var(--c1);animation-name:c7}@keyframes c8{17.46%{fill:var(--c1)}17.48%,100%{fill:var(--ce)}}.c.c8{fill:var(--c1);animation-name:c8}@keyframes c9{14.12%{fill:var(--c1)}14.14%,100%{fill:var(--ce)}}.c.c9{fill:var(--c1);animation-name:c9}@keyframes ca{19.69%{fill:var(--c1)}19.71%,100%{fill:var(--ce)}}.c.ca{fill:var(--c1);animation-name:ca}@keyframes cb{19.32%{fill:var(--c1)}19.34%,100%{fill:var(--ce)}}.c.cb{fill:var(--c1);animation-name:cb}@keyframes cc{18.95%{fill:var(--c1)}18.97%,100%{fill:var(--ce)}}.c.cc{fill:var(--c1);animation-name:cc}@keyframes cd{18.58%{fill:var(--c1)}18.6%,100%{fill:var(--ce)}}.c.cd{fill:var(--c1);animation-name:cd}@keyframes ce{14.49%{fill:var(--c1)}14.51%,100%{fill:var(--ce)}}.c.ce{fill:var(--c1);animation-name:ce}@keyframes cf{20.06%{fill:var(--c1)}20.08%,100%{fill:var(--ce)}}.c.cf{fill:var(--c1);animation-name:cf}@keyframes cg{16.72%{fill:var(--c1)}16.74%,100%{fill:var(--ce)}}.c.cg{fill:var(--c1);animation-name:cg}@keyframes ch{14.86%{fill:var(--c1)}14.88%,100%{fill:var(--ce)}}.c.ch{fill:var(--c1);animation-name:ch}@keyframes ci{21.92%{fill:var(--c1)}21.94%,100%{fill:var(--ce)}}.c.ci{fill:var(--c1);animation-name:ci}@keyframes cj{22.29%{fill:var(--c1)}22.31%,100%{fill:var(--ce)}}.c.cj{fill:var(--c1);animation-name:cj}@keyframes ck{73.97%{fill:var(--c2)}73.99%,100%{fill:var(--ce)}}.c.ck{fill:var(--c2);animation-name:ck}@keyframes cl{16.35%{fill:var(--c1)}16.37%,100%{fill:var(--ce)}}.c.cl{fill:var(--c1);animation-name:cl}@keyframes cm{15.23%{fill:var(--c1)}15.25%,100%{fill:var(--ce)}}.c.cm{fill:var(--c1);animation-name:cm}@keyframes cn{20.81%{fill:var(--c1)}20.83%,100%{fill:var(--ce)}}.c.cn{fill:var(--c1);animation-name:cn}@keyframes co{21.18%{fill:var(--c1)}21.2%,100%{fill:var(--ce)}}.c.co{fill:var(--c1);animation-name:co}@keyframes cp{21.55%{fill:var(--c1)}21.57%,100%{fill:var(--ce)}}.c.cp{fill:var(--c1);animation-name:cp}@keyframes cq{22.67%{fill:var(--c1)}22.69%,100%{fill:var(--ce)}}.c.cq{fill:var(--c1);animation-name:cq}@keyframes cr{15.98%{fill:var(--c1)}16%,100%{fill:var(--ce)}}.c.cr{fill:var(--c1);animation-name:cr}@keyframes cs{15.6%{fill:var(--c1)}15.62%,100%{fill:var(--ce)}}.c.cs{fill:var(--c1);animation-name:cs}@keyframes ct{23.04%{fill:var(--c1)}23.06%,100%{fill:var(--ce)}}.c.ct{fill:var(--c1);animation-name:ct}@keyframes cu{52.41%{fill:var(--c1)}52.43%,100%{fill:var(--ce)}}.c.cu{fill:var(--c1);animation-name:cu}@keyframes cv{23.78%{fill:var(--c1)}23.8%,100%{fill:var(--ce)}}.c.cv{fill:var(--c1);animation-name:cv}@keyframes cw{23.41%{fill:var(--c1)}23.43%,100%{fill:var(--ce)}}.c.cw{fill:var(--c1);animation-name:cw}@keyframes cx{52.03%{fill:var(--c1)}52.05%,100%{fill:var(--ce)}}.c.cx{fill:var(--c1);animation-name:cx}@keyframes cy{66.16%{fill:var(--c1)}66.18%,100%{fill:var(--ce)}}.c.cy{fill:var(--c1);animation-name:cy}@keyframes cz{24.9%{fill:var(--c1)}24.92%,100%{fill:var(--ce)}}.c.cz{fill:var(--c1);animation-name:cz}@keyframes c10{75.83%{fill:var(--c2)}75.85%,100%{fill:var(--ce)}}.c.c10{fill:var(--c2);animation-name:c10}@keyframes c11{50.92%{fill:var(--c1)}50.94%,100%{fill:var(--ce)}}.c.c11{fill:var(--c1);animation-name:c11}@keyframes c12{25.27%{fill:var(--c1)}25.29%,100%{fill:var(--ce)}}.c.c12{fill:var(--c1);animation-name:c12}@keyframes c13{40.88%{fill:var(--c1)}40.9%,100%{fill:var(--ce)}}.c.c13{fill:var(--c1);animation-name:c13}@keyframes c14{55.01%{fill:var(--c1)}55.03%,100%{fill:var(--ce)}}.c.c14{fill:var(--c1);animation-name:c14}@keyframes c15{40.14%{fill:var(--c1)}40.16%,100%{fill:var(--ce)}}.c.c15{fill:var(--c1);animation-name:c15}@keyframes c16{41.25%{fill:var(--c1)}41.27%,100%{fill:var(--ce)}}.c.c16{fill:var(--c1);animation-name:c16}@keyframes c17{49.8%{fill:var(--c1)}49.82%,100%{fill:var(--ce)}}.c.c17{fill:var(--c1);animation-name:c17}@keyframes c18{56.12%{fill:var(--c1)}56.14%,100%{fill:var(--ce)}}.c.c18{fill:var(--c1);animation-name:c18}@keyframes c19{55.75%{fill:var(--c1)}55.77%,100%{fill:var(--ce)}}.c.c19{fill:var(--c1);animation-name:c19}@keyframes c1a{26.01%{fill:var(--c1)}26.03%,100%{fill:var(--ce)}}.c.c1a{fill:var(--c1);animation-name:c1a}@keyframes c1b{39.77%{fill:var(--c1)}39.79%,100%{fill:var(--ce)}}.c.c1b{fill:var(--c1);animation-name:c1b}@keyframes c1c{41.63%{fill:var(--c1)}41.65%,100%{fill:var(--ce)}}.c.c1c{fill:var(--c1);animation-name:c1c}@keyframes c1d{49.43%{fill:var(--c1)}49.45%,100%{fill:var(--ce)}}.c.c1d{fill:var(--c1);animation-name:c1d}@keyframes c1e{56.5%{fill:var(--c1)}56.52%,100%{fill:var(--ce)}}.c.c1e{fill:var(--c1);animation-name:c1e}@keyframes c1f{27.13%{fill:var(--c1)}27.15%,100%{fill:var(--ce)}}.c.c1f{fill:var(--c1);animation-name:c1f}@keyframes c1g{26.38%{fill:var(--c1)}26.4%,100%{fill:var(--ce)}}.c.c1g{fill:var(--c1);animation-name:c1g}@keyframes c1h{39.4%{fill:var(--c1)}39.42%,100%{fill:var(--ce)}}.c.c1h{fill:var(--c1);animation-name:c1h}@keyframes c1i{42%{fill:var(--c1)}42.02%,100%{fill:var(--ce)}}.c.c1i{fill:var(--c1);animation-name:c1i}@keyframes c1j{49.06%{fill:var(--c1)}49.08%,100%{fill:var(--ce)}}.c.c1j{fill:var(--c1);animation-name:c1j}@keyframes c1k{27.5%{fill:var(--c1)}27.52%,100%{fill:var(--ce)}}.c.c1k{fill:var(--c1);animation-name:c1k}@keyframes c1l{42.37%{fill:var(--c1)}42.39%,100%{fill:var(--ce)}}.c.c1l{fill:var(--c1);animation-name:c1l}@keyframes c1m{27.87%{fill:var(--c1)}27.89%,100%{fill:var(--ce)}}.c.c1m{fill:var(--c1);animation-name:c1m}@keyframes c1n{42.74%{fill:var(--c1)}42.76%,100%{fill:var(--ce)}}.c.c1n{fill:var(--c1);animation-name:c1n}@keyframes c1o{48.32%{fill:var(--c1)}48.34%,100%{fill:var(--ce)}}.c.c1o{fill:var(--c1);animation-name:c1o}@keyframes c1p{57.61%{fill:var(--c1)}57.63%,100%{fill:var(--ce)}}.c.c1p{fill:var(--c1);animation-name:c1p}@keyframes c1q{80.29%{fill:var(--c2)}80.31%,100%{fill:var(--ce)}}.c.c1q{fill:var(--c2);animation-name:c1q}@keyframes c1r{79.17%{fill:var(--c2)}79.19%,100%{fill:var(--ce)}}.c.c1r{fill:var(--c2);animation-name:c1r}@keyframes c1s{38.28%{fill:var(--c1)}38.3%,100%{fill:var(--ce)}}.c.c1s{fill:var(--c1);animation-name:c1s}@keyframes c1t{43.11%{fill:var(--c1)}43.13%,100%{fill:var(--ce)}}.c.c1t{fill:var(--c1);animation-name:c1t}@keyframes c1u{47.95%{fill:var(--c1)}47.97%,100%{fill:var(--ce)}}.c.c1u{fill:var(--c1);animation-name:c1u}@keyframes c1v{57.98%{fill:var(--c1)}58%,100%{fill:var(--ce)}}.c.c1v{fill:var(--c1);animation-name:c1v}@keyframes c1w{79.92%{fill:var(--c2)}79.94%,100%{fill:var(--ce)}}.c.c1w{fill:var(--c2);animation-name:c1w}@keyframes c1x{79.54%{fill:var(--c2)}79.56%,100%{fill:var(--ce)}}.c.c1x{fill:var(--c2);animation-name:c1x}@keyframes c1y{29.36%{fill:var(--c1)}29.38%,100%{fill:var(--ce)}}.c.c1y{fill:var(--c1);animation-name:c1y}@keyframes c1z{37.91%{fill:var(--c1)}37.93%,100%{fill:var(--ce)}}.c.c1z{fill:var(--c1);animation-name:c1z}@keyframes c20{47.57%{fill:var(--c1)}47.59%,100%{fill:var(--ce)}}.c.c20{fill:var(--c1);animation-name:c20}@keyframes c21{81.4%{fill:var(--c4)}81.42%,100%{fill:var(--ce)}}.c.c21{fill:var(--c4);animation-name:c21}@keyframes c22{33.45%{fill:var(--c1)}33.47%,100%{fill:var(--ce)}}.c.c22{fill:var(--c1);animation-name:c22}@keyframes c23{33.82%{fill:var(--c1)}33.84%,100%{fill:var(--ce)}}.c.c23{fill:var(--c1);animation-name:c23}@keyframes c24{29.73%{fill:var(--c1)}29.75%,100%{fill:var(--ce)}}.c.c24{fill:var(--c1);animation-name:c24}@keyframes c25{37.54%{fill:var(--c1)}37.56%,100%{fill:var(--ce)}}.c.c25{fill:var(--c1);animation-name:c25}@keyframes c26{44.23%{fill:var(--c1)}44.25%,100%{fill:var(--ce)}}.c.c26{fill:var(--c1);animation-name:c26}@keyframes c27{32.7%{fill:var(--c1)}32.72%,100%{fill:var(--ce)}}.c.c27{fill:var(--c1);animation-name:c27}@keyframes c28{33.08%{fill:var(--c1)}33.1%,100%{fill:var(--ce)}}.c.c28{fill:var(--c1);animation-name:c28}@keyframes c29{34.19%{fill:var(--c1)}34.21%,100%{fill:var(--ce)}}.c.c29{fill:var(--c1);animation-name:c29}@keyframes c2a{30.1%{fill:var(--c1)}30.12%,100%{fill:var(--ce)}}.c.c2a{fill:var(--c1);animation-name:c2a}@keyframes c2b{37.16%{fill:var(--c1)}37.18%,100%{fill:var(--ce)}}.c.c2b{fill:var(--c1);animation-name:c2b}@keyframes c2c{36.79%{fill:var(--c1)}36.81%,100%{fill:var(--ce)}}.c.c2c{fill:var(--c1);animation-name:c2c}@keyframes c2d{44.6%{fill:var(--c1)}44.62%,100%{fill:var(--ce)}}.c.c2d{fill:var(--c1);animation-name:c2d}@keyframes c2e{32.33%{fill:var(--c1)}32.35%,100%{fill:var(--ce)}}.c.c2e{fill:var(--c1);animation-name:c2e}@keyframes c2f{31.96%{fill:var(--c1)}31.98%,100%{fill:var(--ce)}}.c.c2f{fill:var(--c1);animation-name:c2f}@keyframes c2g{34.56%{fill:var(--c1)}34.58%,100%{fill:var(--ce)}}.c.c2g{fill:var(--c1);animation-name:c2g}@keyframes c2h{30.47%{fill:var(--c1)}30.49%,100%{fill:var(--ce)}}.c.c2h{fill:var(--c1);animation-name:c2h}@keyframes c2i{35.31%{fill:var(--c1)}35.33%,100%{fill:var(--ce)}}.c.c2i{fill:var(--c1);animation-name:c2i}@keyframes c2j{36.42%{fill:var(--c1)}36.44%,100%{fill:var(--ce)}}.c.c2j{fill:var(--c1);animation-name:c2j}@keyframes c2k{44.97%{fill:var(--c1)}44.99%,100%{fill:var(--ce)}}.c.c2k{fill:var(--c1);animation-name:c2k}@keyframes c2l{31.59%{fill:var(--c1)}31.61%,100%{fill:var(--ce)}}.c.c2l{fill:var(--c1);animation-name:c2l}@keyframes c2m{31.22%{fill:var(--c1)}31.24%,100%{fill:var(--ce)}}.c.c2m{fill:var(--c1);animation-name:c2m}@keyframes c2n{30.85%{fill:var(--c1)}30.87%,100%{fill:var(--ce)}}.c.c2n{fill:var(--c1);animation-name:c2n}@keyframes c2o{35.68%{fill:var(--c1)}35.7%,100%{fill:var(--ce)}}.c.c2o{fill:var(--c1);animation-name:c2o}@keyframes c2p{45.34%{fill:var(--c1)}45.36%,100%{fill:var(--ce)}}.c.c2p{fill:var(--c1);animation-name:c2p}@keyframes c2q{60.58%{fill:var(--c1)}60.6%,100%{fill:var(--ce)}}.c.c2q{fill:var(--c1);animation-name:c2q}.u{transform-origin:0 0;transform:scale(0,1);animation:none linear 26900ms infinite}@keyframes u0{10.77%{transform:scale(0.000,1)}10.79%,13.74%{transform:scale(0.011,1)}13.76%,14.12%{transform:scale(0.022,1)}14.14%,14.49%{transform:scale(0.033,1)}14.51%,14.86%{transform:scale(0.043,1)}14.88%,15.23%{transform:scale(0.054,1)}15.25%,15.6%{transform:scale(0.065,1)}15.62%,15.98%{transform:scale(0.076,1)}16%,16.35%{transform:scale(0.087,1)}16.37%,16.72%{transform:scale(0.098,1)}16.74%,17.46%{transform:scale(0.109,1)}17.48%,17.83%{transform:scale(0.120,1)}17.85%,18.21%{transform:scale(0.130,1)}18.23%,18.58%{transform:scale(0.141,1)}18.6%,18.95%{transform:scale(0.152,1)}18.97%,19.32%{transform:scale(0.163,1)}19.34%,19.69%{transform:scale(0.174,1)}19.71%,20.06%{transform:scale(0.185,1)}20.08%,20.81%{transform:scale(0.196,1)}20.83%,21.18%{transform:scale(0.207,1)}21.2%,21.55%{transform:scale(0.217,1)}21.57%,21.92%{transform:scale(0.228,1)}21.94%,22.29%{transform:scale(0.239,1)}22.31%,22.67%{transform:scale(0.250,1)}22.69%,23.04%{transform:scale(0.261,1)}23.06%,23.41%{transform:scale(0.272,1)}23.43%,23.78%{transform:scale(0.283,1)}23.8%,24.9%{transform:scale(0.293,1)}24.92%,25.27%{transform:scale(0.304,1)}25.29%,26.01%{transform:scale(0.315,1)}26.03%,26.38%{transform:scale(0.326,1)}26.4%,27.13%{transform:scale(0.337,1)}27.15%,27.5%{transform:scale(0.348,1)}27.52%,27.87%{transform:scale(0.359,1)}27.89%,29.36%{transform:scale(0.370,1)}29.38%,29.73%{transform:scale(0.380,1)}29.75%,30.1%{transform:scale(0.391,1)}30.12%,30.47%{transform:scale(0.402,1)}30.49%,30.85%{transform:scale(0.413,1)}30.87%,31.22%{transform:scale(0.424,1)}31.24%,31.59%{transform:scale(0.435,1)}31.61%,31.96%{transform:scale(0.446,1)}31.98%,32.33%{transform:scale(0.457,1)}32.35%,32.7%{transform:scale(0.467,1)}32.72%,33.08%{transform:scale(0.478,1)}33.1%,33.45%{transform:scale(0.489,1)}33.47%,33.82%{transform:scale(0.500,1)}33.84%,34.19%{transform:scale(0.511,1)}34.21%,34.56%{transform:scale(0.522,1)}34.58%,35.31%{transform:scale(0.533,1)}35.33%,35.68%{transform:scale(0.543,1)}35.7%,36.42%{transform:scale(0.554,1)}36.44%,36.79%{transform:scale(0.565,1)}36.81%,37.16%{transform:scale(0.576,1)}37.18%,37.54%{transform:scale(0.587,1)}37.56%,37.91%{transform:scale(0.598,1)}37.93%,38.28%{transform:scale(0.609,1)}38.3%,39.4%{transform:scale(0.620,1)}39.42%,39.77%{transform:scale(0.630,1)}39.79%,40.14%{transform:scale(0.641,1)}40.16%,40.88%{transform:scale(0.652,1)}40.9%,41.25%{transform:scale(0.663,1)}41.27%,41.63%{transform:scale(0.674,1)}41.65%,42%{transform:scale(0.685,1)}42.02%,42.37%{transform:scale(0.696,1)}42.39%,42.74%{transform:scale(0.707,1)}42.76%,43.11%{transform:scale(0.717,1)}43.13%,44.23%{transform:scale(0.728,1)}44.25%,44.6%{transform:scale(0.739,1)}44.62%,44.97%{transform:scale(0.750,1)}44.99%,45.34%{transform:scale(0.761,1)}45.36%,47.57%{transform:scale(0.772,1)}47.59%,47.95%{transform:scale(0.783,1)}47.97%,48.32%{transform:scale(0.793,1)}48.34%,49.06%{transform:scale(0.804,1)}49.08%,49.43%{transform:scale(0.815,1)}49.45%,49.8%{transform:scale(0.826,1)}49.82%,50.92%{transform:scale(0.837,1)}50.94%,52.03%{transform:scale(0.848,1)}52.05%,52.41%{transform:scale(0.859,1)}52.43%,55.01%{transform:scale(0.870,1)}55.03%,55.75%{transform:scale(0.880,1)}55.77%,56.12%{transform:scale(0.891,1)}56.14%,56.5%{transform:scale(0.902,1)}56.52%,57.61%{transform:scale(0.913,1)}57.63%,57.98%{transform:scale(0.924,1)}58%,60.58%{transform:scale(0.935,1)}60.6%,66.16%{transform:scale(0.946,1)}66.18%,69.51%{transform:scale(0.957,1)}69.53%,69.88%{transform:scale(0.967,1)}69.9%,71.37%{transform:scale(0.978,1)}71.39%,71.74%{transform:scale(0.989,1)}71.76%,100%{transform:scale(1.000,1)}}.u.u0{fill:var(--c1);animation-name:u0;transform-origin:0.0px 0}@keyframes u1{73.97%{transform:scale(0.000,1)}73.99%,75.83%{transform:scale(0.167,1)}75.85%,79.17%{transform:scale(0.333,1)}79.19%,79.54%{transform:scale(0.500,1)}79.56%,79.92%{transform:scale(0.667,1)}79.94%,80.29%{transform:scale(0.833,1)}80.31%,100%{transform:scale(1.000,1)}}.u.u1{fill:var(--c2);animation-name:u1;transform-origin:788.0px 0}@keyframes u2{81.4%{transform:scale(0.000,1)}81.42%,100%{transform:scale(1.000,1)}}.u.u2{fill:var(--c4);animation-name:u2;transform-origin:839.4px 0}.s{shape-rendering:geometricPrecision;fill:var(--cs);animation:none linear 26900ms infinite}@keyframes s0{0%,99.63%{transform:translate(0px,-16px)}0.37%{transform:translate(0px,0px)}8.55%{transform:translate(352px,0px)}10.78%{transform:translate(352px,96px)}15.61%{transform:translate(560px,96px)}15.99%{transform:translate(560px,80px)}17.47%{transform:translate(496px,80px)}18.22%{transform:translate(496px,48px)}18.59%{transform:translate(512px,48px)}19.7%{transform:translate(512px,0px)}20.82%{transform:translate(560px,0px)}21.56%{transform:translate(560px,32px)}21.93%{transform:translate(544px,32px)}22.3%{transform:translate(544px,48px)}23.42%{transform:translate(592px,48px)}23.79%{transform:translate(592px,32px)}24.54%{transform:translate(624px,32px)}24.91%{transform:translate(624px,48px)}26.39%{transform:translate(688px,48px)}27.14%{transform:translate(688px,16px)}27.88%{transform:translate(720px,16px)}28.62%{transform:translate(720px,48px)}30.86%{transform:translate(816px,48px)}31.6%{transform:translate(816px,16px)}31.97%{transform:translate(800px,16px)}32.34%{transform:translate(800px,0px)}32.71%{transform:translate(784px,0px)}33.09%{transform:translate(784px,16px)}33.46%{transform:translate(768px,16px)}33.83%{transform:translate(768px,32px)}34.57%{transform:translate(800px,32px)}35.32%{transform:translate(800px,64px)}35.69%{transform:translate(816px,64px)}36.06%,45.72%{transform:translate(816px,80px)}36.8%{transform:translate(784px,80px)}37.17%{transform:translate(784px,64px)}40.52%{transform:translate(640px,64px)}40.89%{transform:translate(640px,80px)}43.87%{transform:translate(768px,80px)}44.24%{transform:translate(768px,96px)}45.35%{transform:translate(816px,96px)}47.21%{transform:translate(752px,80px)}47.58%{transform:translate(752px,96px)}49.81%{transform:translate(656px,96px)}50.19%{transform:translate(656px,80px)}51.3%{transform:translate(608px,80px)}51.67%{transform:translate(608px,64px)}52.42%{transform:translate(576px,64px)}52.79%{transform:translate(576px,48px)}54.65%{transform:translate(656px,48px)}55.02%{transform:translate(656px,32px)}55.39%{transform:translate(672px,32px)}56.13%{transform:translate(672px,0px)}57.99%{transform:translate(752px,0px)}58.36%{transform:translate(752px,-16px)}60.22%{transform:translate(832px,-16px)}60.59%{transform:translate(832px,0px)}60.97%{transform:translate(816px,0px)}61.34%{transform:translate(816px,-16px)}65.8%{transform:translate(624px,-16px)}66.17%{transform:translate(624px,0px)}69.14%{transform:translate(496px,0px)}69.89%{transform:translate(496px,32px)}70.63%{transform:translate(464px,32px)}71.75%{transform:translate(464px,80px)}73.61%{transform:translate(544px,80px)}73.98%{transform:translate(544px,64px)}78.44%{transform:translate(736px,64px)}79.18%{transform:translate(736px,32px)}79.55%{transform:translate(752px,32px)}79.93%{transform:translate(752px,16px)}80.3%{transform:translate(736px,16px)}80.67%{transform:translate(736px,0px)}81.41%{transform:translate(768px,0px)}81.78%{transform:translate(768px,-16px)}}.s.s0{transform:translate(0px,-16px);animation-name:s0}@keyframes s1{0%,99.63%{transform:translate(16px,-16px)}0.37%{transform:translate(0px,-16px)}0.74%{transform:translate(0px,0px)}8.92%{transform:translate(352px,0px)}11.15%{transform:translate(352px,96px)}15.99%{transform:translate(560px,96px)}16.36%{transform:translate(560px,80px)}17.84%{transform:translate(496px,80px)}18.59%{transform:translate(496px,48px)}18.96%{transform:translate(512px,48px)}20.07%{transform:translate(512px,0px)}21.19%{transform:translate(560px,0px)}21.93%{transform:translate(560px,32px)}22.3%{transform:translate(544px,32px)}22.68%{transform:translate(544px,48px)}23.79%{transform:translate(592px,48px)}24.16%{transform:translate(592px,32px)}24.91%{transform:translate(624px,32px)}25.28%{transform:translate(624px,48px)}26.77%{transform:translate(688px,48px)}27.51%{transform:translate(688px,16px)}28.25%{transform:translate(720px,16px)}29%{transform:translate(720px,48px)}31.23%{transform:translate(816px,48px)}31.97%{transform:translate(816px,16px)}32.34%{transform:translate(800px,16px)}32.71%{transform:translate(800px,0px)}33.09%{transform:translate(784px,0px)}33.46%{transform:translate(784px,16px)}33.83%{transform:translate(768px,16px)}34.2%{transform:translate(768px,32px)}34.94%{transform:translate(800px,32px)}35.69%{transform:translate(800px,64px)}36.06%{transform:translate(816px,64px)}36.43%,46.1%{transform:translate(816px,80px)}37.17%{transform:translate(784px,80px)}37.55%{transform:translate(784px,64px)}40.89%{transform:translate(640px,64px)}41.26%{transform:translate(640px,80px)}44.24%{transform:translate(768px,80px)}44.61%{transform:translate(768px,96px)}45.72%{transform:translate(816px,96px)}47.58%{transform:translate(752px,80px)}47.96%{transform:translate(752px,96px)}50.19%{transform:translate(656px,96px)}50.56%{transform:translate(656px,80px)}51.67%{transform:translate(608px,80px)}52.04%{transform:translate(608px,64px)}52.79%{transform:translate(576px,64px)}53.16%{transform:translate(576px,48px)}55.02%{transform:translate(656px,48px)}55.39%{transform:translate(656px,32px)}55.76%{transform:translate(672px,32px)}56.51%{transform:translate(672px,0px)}58.36%{transform:translate(752px,0px)}58.74%{transform:translate(752px,-16px)}60.59%{transform:translate(832px,-16px)}60.97%{transform:translate(832px,0px)}61.34%{transform:translate(816px,0px)}61.71%{transform:translate(816px,-16px)}66.17%{transform:translate(624px,-16px)}66.54%{transform:translate(624px,0px)}69.52%{transform:translate(496px,0px)}70.26%{transform:translate(496px,32px)}71%{transform:translate(464px,32px)}72.12%{transform:translate(464px,80px)}73.98%{transform:translate(544px,80px)}74.35%{transform:translate(544px,64px)}78.81%{transform:translate(736px,64px)}79.55%{transform:translate(736px,32px)}79.93%{transform:translate(752px,32px)}80.3%{transform:translate(752px,16px)}80.67%{transform:translate(736px,16px)}81.04%{transform:translate(736px,0px)}81.78%{transform:translate(768px,0px)}82.16%{transform:translate(768px,-16px)}}.s.s1{transform:translate(16px,-16px);animation-name:s1}@keyframes s2{0%,99.63%{transform:translate(32px,-16px)}0.74%{transform:translate(0px,-16px)}1.12%{transform:translate(0px,0px)}9.29%{transform:translate(352px,0px)}11.52%{transform:translate(352px,96px)}16.36%{transform:translate(560px,96px)}16.73%{transform:translate(560px,80px)}18.22%{transform:translate(496px,80px)}18.96%{transform:translate(496px,48px)}19.33%{transform:translate(512px,48px)}20.45%{transform:translate(512px,0px)}21.56%{transform:translate(560px,0px)}22.3%{transform:translate(560px,32px)}22.68%{transform:translate(544px,32px)}23.05%{transform:translate(544px,48px)}24.16%{transform:translate(592px,48px)}24.54%{transform:translate(592px,32px)}25.28%{transform:translate(624px,32px)}25.65%{transform:translate(624px,48px)}27.14%{transform:translate(688px,48px)}27.88%{transform:translate(688px,16px)}28.62%{transform:translate(720px,16px)}29.37%{transform:translate(720px,48px)}31.6%{transform:translate(816px,48px)}32.34%{transform:translate(816px,16px)}32.71%{transform:translate(800px,16px)}33.09%{transform:translate(800px,0px)}33.46%{transform:translate(784px,0px)}33.83%{transform:translate(784px,16px)}34.2%{transform:translate(768px,16px)}34.57%{transform:translate(768px,32px)}35.32%{transform:translate(800px,32px)}36.06%{transform:translate(800px,64px)}36.43%{transform:translate(816px,64px)}36.8%,46.47%{transform:translate(816px,80px)}37.55%{transform:translate(784px,80px)}37.92%{transform:translate(784px,64px)}41.26%{transform:translate(640px,64px)}41.64%{transform:translate(640px,80px)}44.61%{transform:translate(768px,80px)}44.98%{transform:translate(768px,96px)}46.1%{transform:translate(816px,96px)}47.96%{transform:translate(752px,80px)}48.33%{transform:translate(752px,96px)}50.56%{transform:translate(656px,96px)}50.93%{transform:translate(656px,80px)}52.04%{transform:translate(608px,80px)}52.42%{transform:translate(608px,64px)}53.16%{transform:translate(576px,64px)}53.53%{transform:translate(576px,48px)}55.39%{transform:translate(656px,48px)}55.76%{transform:translate(656px,32px)}56.13%{transform:translate(672px,32px)}56.88%{transform:translate(672px,0px)}58.74%{transform:translate(752px,0px)}59.11%{transform:translate(752px,-16px)}60.97%{transform:translate(832px,-16px)}61.34%{transform:translate(832px,0px)}61.71%{transform:translate(816px,0px)}62.08%{transform:translate(816px,-16px)}66.54%{transform:translate(624px,-16px)}66.91%{transform:translate(624px,0px)}69.89%{transform:translate(496px,0px)}70.63%{transform:translate(496px,32px)}71.38%{transform:translate(464px,32px)}72.49%{transform:translate(464px,80px)}74.35%{transform:translate(544px,80px)}74.72%{transform:translate(544px,64px)}79.18%{transform:translate(736px,64px)}79.93%{transform:translate(736px,32px)}80.3%{transform:translate(752px,32px)}80.67%{transform:translate(752px,16px)}81.04%{transform:translate(736px,16px)}81.41%{transform:translate(736px,0px)}82.16%{transform:translate(768px,0px)}82.53%{transform:translate(768px,-16px)}}.s.s2{transform:translate(32px,-16px);animation-name:s2}@keyframes s3{0%,99.63%{transform:translate(48px,-16px)}1.12%{transform:translate(0px,-16px)}1.49%{transform:translate(0px,0px)}9.67%{transform:translate(352px,0px)}11.9%{transform:translate(352px,96px)}16.73%{transform:translate(560px,96px)}17.1%{transform:translate(560px,80px)}18.59%{transform:translate(496px,80px)}19.33%{transform:translate(496px,48px)}19.7%{transform:translate(512px,48px)}20.82%{transform:translate(512px,0px)}21.93%{transform:translate(560px,0px)}22.68%{transform:translate(560px,32px)}23.05%{transform:translate(544px,32px)}23.42%{transform:translate(544px,48px)}24.54%{transform:translate(592px,48px)}24.91%{transform:translate(592px,32px)}25.65%{transform:translate(624px,32px)}26.02%{transform:translate(624px,48px)}27.51%{transform:translate(688px,48px)}28.25%{transform:translate(688px,16px)}29%{transform:translate(720px,16px)}29.74%{transform:translate(720px,48px)}31.97%{transform:translate(816px,48px)}32.71%{transform:translate(816px,16px)}33.09%{transform:translate(800px,16px)}33.46%{transform:translate(800px,0px)}33.83%{transform:translate(784px,0px)}34.2%{transform:translate(784px,16px)}34.57%{transform:translate(768px,16px)}34.94%{transform:translate(768px,32px)}35.69%{transform:translate(800px,32px)}36.43%{transform:translate(800px,64px)}36.8%{transform:translate(816px,64px)}37.17%,46.84%{transform:translate(816px,80px)}37.92%{transform:translate(784px,80px)}38.29%{transform:translate(784px,64px)}41.64%{transform:translate(640px,64px)}42.01%{transform:translate(640px,80px)}44.98%{transform:translate(768px,80px)}45.35%{transform:translate(768px,96px)}46.47%{transform:translate(816px,96px)}48.33%{transform:translate(752px,80px)}48.7%{transform:translate(752px,96px)}50.93%{transform:translate(656px,96px)}51.3%{transform:translate(656px,80px)}52.42%{transform:translate(608px,80px)}52.79%{transform:translate(608px,64px)}53.53%{transform:translate(576px,64px)}53.9%{transform:translate(576px,48px)}55.76%{transform:translate(656px,48px)}56.13%{transform:translate(656px,32px)}56.51%{transform:translate(672px,32px)}57.25%{transform:translate(672px,0px)}59.11%{transform:translate(752px,0px)}59.48%{transform:translate(752px,-16px)}61.34%{transform:translate(832px,-16px)}61.71%{transform:translate(832px,0px)}62.08%{transform:translate(816px,0px)}62.45%{transform:translate(816px,-16px)}66.91%{transform:translate(624px,-16px)}67.29%{transform:translate(624px,0px)}70.26%{transform:translate(496px,0px)}71%{transform:translate(496px,32px)}71.75%{transform:translate(464px,32px)}72.86%{transform:translate(464px,80px)}74.72%{transform:translate(544px,80px)}75.09%{transform:translate(544px,64px)}79.55%{transform:translate(736px,64px)}80.3%{transform:translate(736px,32px)}80.67%{transform:translate(752px,32px)}81.04%{transform:translate(752px,16px)}81.41%{transform:translate(736px,16px)}81.78%{transform:translate(736px,0px)}82.53%{transform:translate(768px,0px)}82.9%{transform:translate(768px,-16px)}}.s.s3{transform:translate(48px,-16px);animation-name:s3}</style><rect class="c" x="2" y="2" rx="2" ry="2"/><rect class="c" x="2" y="18" rx="2" ry="2"/><rect class="c" x="2" y="34" rx="2" ry="2"/><rect class="c" x="2" y="50" rx="2" ry="2"/><rect class="c" x="2" y="66" rx="2" ry="2"/><rect class="c" x="2" y="82" rx="2" ry="2"/><rect class="c" x="2" y="98" rx="2" ry="2"/><rect class="c" x="18" y="2" rx="2" ry="2"/><rect class="c" x="18" y="18" rx="2" ry="2"/><rect class="c" x="18" y="34" rx="2" ry="2"/><rect class="c" x="18" y="50" rx="2" ry="2"/><rect class="c" x="18" y="66" rx="2" ry="2"/><rect class="c" x="18" y="82" rx="2" ry="2"/><rect class="c" x="18" y="98" rx="2" ry="2"/><rect class="c" x="34" y="2" rx="2" ry="2"/><rect class="c" x="34" y="18" rx="2" ry="2"/><rect class="c" x="34" y="34" rx="2" ry="2"/><rect class="c" x="34" y="50" rx="2" ry="2"/><rect class="c" x="34" y="66" rx="2" ry="2"/><rect class="c" x="34" y="82" rx="2" ry="2"/><rect class="c" x="34" y="98" rx="2" ry="2"/><rect class="c" x="50" y="2" rx="2" ry="2"/><rect class="c" x="50" y="18" rx="2" ry="2"/><rect class="c" x="50" y="34" rx="2" ry="2"/><rect class="c" x="50" y="50" rx="2" ry="2"/><rect class="c" x="50" y="66" rx="2" ry="2"/><rect class="c" x="50" y="82" rx="2" ry="2"/><rect class="c" x="50" y="98" rx="2" ry="2"/><rect class="c" x="66" y="2" rx="2" ry="2"/><rect class="c" x="66" y="18" rx="2" ry="2"/><rect class="c" x="66" y="34" rx="2" ry="2"/><rect class="c" x="66" y="50" rx="2" ry="2"/><rect class="c" x="66" y="66" rx="2" ry="2"/><rect class="c" x="66" y="82" rx="2" ry="2"/><rect class="c" x="66" y="98" rx="2" ry="2"/><rect class="c" x="82" y="2" rx="2" ry="2"/><rect class="c" x="82" y="18" rx="2" ry="2"/><rect class="c" x="82" y="34" rx="2" ry="2"/><rect class="c" x="82" y="50" rx="2" ry="2"/><rect class="c" x="82" y="66" rx="2" ry="2"/><rect class="c" x="82" y="82" rx="2" ry="2"/><rect class="c" x="82" y="98" rx="2" ry="2"/><rect class="c" x="98" y="2" rx="2" ry="2"/><rect class="c" x="98" y="18" rx="2" ry="2"/><rect class="c" x="98" y="34" rx="2" ry="2"/><rect class="c" x="98" y="50" rx="2" ry="2"/><rect class="c" x="98" y="66" rx="2" ry="2"/><rect class="c" x="98" y="82" rx="2" ry="2"/><rect class="c" x="98" y="98" rx="2" ry="2"/><rect class="c" x="114" y="2" rx="2" ry="2"/><rect class="c" x="114" y="18" rx="2" ry="2"/><rect class="c" x="114" y="34" rx="2" ry="2"/><rect class="c" x="114" y="50" rx="2" ry="2"/><rect class="c" x="114" y="66" rx="2" ry="2"/><rect class="c" x="114" y="82" rx="2" ry="2"/><rect class="c" x="114" y="98" rx="2" ry="2"/><rect class="c" x="130" y="2" rx="2" ry="2"/><rect class="c" x="130" y="18" rx="2" ry="2"/><rect class="c" x="130" y="34" rx="2" ry="2"/><rect class="c" x="130" y="50" rx="2" ry="2"/><rect class="c" x="130" y="66" rx="2" ry="2"/><rect class="c" x="130" y="82" rx="2" ry="2"/><rect class="c" x="130" y="98" rx="2" ry="2"/><rect class="c" x="146" y="2" rx="2" ry="2"/><rect class="c" x="146" y="18" rx="2" ry="2"/><rect class="c" x="146" y="34" rx="2" ry="2"/><rect class="c" x="146" y="50" rx="2" ry="2"/><rect class="c" x="146" y="66" rx="2" ry="2"/><rect class="c" x="146" y="82" rx="2" ry="2"/><rect class="c" x="146" y="98" rx="2" ry="2"/><rect class="c" x="162" y="2" rx="2" ry="2"/><rect class="c" x="162" y="18" rx="2" ry="2"/><rect class="c" x="162" y="34" rx="2" ry="2"/><rect class="c" x="162" y="50" rx="2" ry="2"/><rect class="c" x="162" y="66" rx="2" ry="2"/><rect class="c" x="162" y="82" rx="2" ry="2"/><rect class="c" x="162" y="98" rx="2" ry="2"/><rect class="c" x="178" y="2" rx="2" ry="2"/><rect class="c" x="178" y="18" rx="2" ry="2"/><rect class="c" x="178" y="34" rx="2" ry="2"/><rect class="c" x="178" y="50" rx="2" ry="2"/><rect class="c" x="178" y="66" rx="2" ry="2"/><rect class="c" x="178" y="82" rx="2" ry="2"/><rect class="c" x="178" y="98" rx="2" ry="2"/><rect class="c" x="194" y="2" rx="2" ry="2"/><rect class="c" x="194" y="18" rx="2" ry="2"/><rect class="c" x="194" y="34" rx="2" ry="2"/><rect class="c" x="194" y="50" rx="2" ry="2"/><rect class="c" x="194" y="66" rx="2" ry="2"/><rect class="c" x="194" y="82" rx="2" ry="2"/><rect class="c" x="194" y="98" rx="2" ry="2"/><rect class="c" x="210" y="2" rx="2" ry="2"/><rect class="c" x="210" y="18" rx="2" ry="2"/><rect class="c" x="210" y="34" rx="2" ry="2"/><rect class="c" x="210" y="50" rx="2" ry="2"/><rect class="c" x="210" y="66" rx="2" ry="2"/><rect class="c" x="210" y="82" rx="2" ry="2"/><rect class="c" x="210" y="98" rx="2" ry="2"/><rect class="c" x="226" y="2" rx="2" ry="2"/><rect class="c" x="226" y="18" rx="2" ry="2"/><rect class="c" x="226" y="34" rx="2" ry="2"/><rect class="c" x="226" y="50" rx="2" ry="2"/><rect class="c" x="226" y="66" rx="2" ry="2"/><rect class="c" x="226" y="82" rx="2" ry="2"/><rect class="c" x="226" y="98" rx="2" ry="2"/><rect class="c" x="242" y="2" rx="2" ry="2"/><rect class="c" x="242" y="18" rx="2" ry="2"/><rect class="c" x="242" y="34" rx="2" ry="2"/><rect class="c" x="242" y="50" rx="2" ry="2"/><rect class="c" x="242" y="66" rx="2" ry="2"/><rect class="c" x="242" y="82" rx="2" ry="2"/><rect class="c" x="242" y="98" rx="2" ry="2"/><rect class="c" x="258" y="2" rx="2" ry="2"/><rect class="c" x="258" y="18" rx="2" ry="2"/><rect class="c" x="258" y="34" rx="2" ry="2"/><rect class="c" x="258" y="50" rx="2" ry="2"/><rect class="c" x="258" y="66" rx="2" ry="2"/><rect class="c" x="258" y="82" rx="2" ry="2"/><rect class="c" x="258" y="98" rx="2" ry="2"/><rect class="c" x="274" y="2" rx="2" ry="2"/><rect class="c" x="274" y="18" rx="2" ry="2"/><rect class="c" x="274" y="34" rx="2" ry="2"/><rect class="c" x="274" y="50" rx="2" ry="2"/><rect class="c" x="274" y="66" rx="2" ry="2"/><rect class="c" x="274" y="82" rx="2" ry="2"/><rect class="c" x="274" y="98" rx="2" ry="2"/><rect class="c" x="290" y="2" rx="2" ry="2"/><rect class="c" x="290" y="18" rx="2" ry="2"/><rect class="c" x="290" y="34" rx="2" ry="2"/><rect class="c" x="290" y="50" rx="2" ry="2"/><rect class="c" x="290" y="66" rx="2" ry="2"/><rect class="c" x="290" y="82" rx="2" ry="2"/><rect class="c" x="290" y="98" rx="2" ry="2"/><rect class="c" x="306" y="2" rx="2" ry="2"/><rect class="c" x="306" y="18" rx="2" ry="2"/><rect class="c" x="306" y="34" rx="2" ry="2"/><rect class="c" x="306" y="50" rx="2" ry="2"/><rect class="c" x="306" y="66" rx="2" ry="2"/><rect class="c" x="306" y="82" rx="2" ry="2"/><rect class="c" x="306" y="98" rx="2" ry="2"/><rect class="c" x="322" y="2" rx="2" ry="2"/><rect class="c" x="322" y="18" rx="2" ry="2"/><rect class="c" x="322" y="34" rx="2" ry="2"/><rect class="c" x="322" y="50" rx="2" ry="2"/><rect class="c" x="322" y="66" rx="2" ry="2"/><rect class="c" x="322" y="82" rx="2" ry="2"/><rect class="c" x="322" y="98" rx="2" ry="2"/><rect class="c" x="338" y="2" rx="2" ry="2"/><rect class="c" x="338" y="18" rx="2" ry="2"/><rect class="c" x="338" y="34" rx="2" ry="2"/><rect class="c" x="338" y="50" rx="2" ry="2"/><rect class="c" x="338" y="66" rx="2" ry="2"/><rect class="c" x="338" y="82" rx="2" ry="2"/><rect class="c" x="338" y="98" rx="2" ry="2"/><rect class="c" x="354" y="2" rx="2" ry="2"/><rect class="c" x="354" y="18" rx="2" ry="2"/><rect class="c" x="354" y="34" rx="2" ry="2"/><rect class="c" x="354" y="50" rx="2" ry="2"/><rect class="c" x="354" y="66" rx="2" ry="2"/><rect class="c" x="354" y="82" rx="2" ry="2"/><rect class="c c0" x="354" y="98" rx="2" ry="2"/><rect class="c" x="370" y="2" rx="2" ry="2"/><rect class="c" x="370" y="18" rx="2" ry="2"/><rect class="c" x="370" y="34" rx="2" ry="2"/><rect class="c" x="370" y="50" rx="2" ry="2"/><rect class="c" x="370" y="66" rx="2" ry="2"/><rect class="c" x="370" y="82" rx="2" ry="2"/><rect class="c" x="370" y="98" rx="2" ry="2"/><rect class="c" x="386" y="2" rx="2" ry="2"/><rect class="c" x="386" y="18" rx="2" ry="2"/><rect class="c" x="386" y="34" rx="2" ry="2"/><rect class="c" x="386" y="50" rx="2" ry="2"/><rect class="c" x="386" y="66" rx="2" ry="2"/><rect class="c" x="386" y="82" rx="2" ry="2"/><rect class="c" x="386" y="98" rx="2" ry="2"/><rect class="c" x="402" y="2" rx="2" ry="2"/><rect class="c" x="402" y="18" rx="2" ry="2"/><rect class="c" x="402" y="34" rx="2" ry="2"/><rect class="c" x="402" y="50" rx="2" ry="2"/><rect class="c" x="402" y="66" rx="2" ry="2"/><rect class="c" x="402" y="82" rx="2" ry="2"/><rect class="c" x="402" y="98" rx="2" ry="2"/><rect class="c" x="418" y="2" rx="2" ry="2"/><rect class="c" x="418" y="18" rx="2" ry="2"/><rect class="c" x="418" y="34" rx="2" ry="2"/><rect class="c" x="418" y="50" rx="2" ry="2"/><rect class="c" x="418" y="66" rx="2" ry="2"/><rect class="c" x="418" y="82" rx="2" ry="2"/><rect class="c" x="418" y="98" rx="2" ry="2"/><rect class="c" x="434" y="2" rx="2" ry="2"/><rect class="c" x="434" y="18" rx="2" ry="2"/><rect class="c" x="434" y="34" rx="2" ry="2"/><rect class="c" x="434" y="50" rx="2" ry="2"/><rect class="c" x="434" y="66" rx="2" ry="2"/><rect class="c" x="434" y="82" rx="2" ry="2"/><rect class="c" x="434" y="98" rx="2" ry="2"/><rect class="c" x="450" y="2" rx="2" ry="2"/><rect class="c" x="450" y="18" rx="2" ry="2"/><rect class="c" x="450" y="34" rx="2" ry="2"/><rect class="c" x="450" y="50" rx="2" ry="2"/><rect class="c" x="450" y="66" rx="2" ry="2"/><rect class="c" x="450" y="82" rx="2" ry="2"/><rect class="c" x="450" y="98" rx="2" ry="2"/><rect class="c" x="466" y="2" rx="2" ry="2"/><rect class="c" x="466" y="18" rx="2" ry="2"/><rect class="c" x="466" y="34" rx="2" ry="2"/><rect class="c" x="466" y="50" rx="2" ry="2"/><rect class="c c1" x="466" y="66" rx="2" ry="2"/><rect class="c c2" x="466" y="82" rx="2" ry="2"/><rect class="c" x="466" y="98" rx="2" ry="2"/><rect class="c" x="482" y="2" rx="2" ry="2"/><rect class="c" x="482" y="18" rx="2" ry="2"/><rect class="c" x="482" y="34" rx="2" ry="2"/><rect class="c" x="482" y="50" rx="2" ry="2"/><rect class="c" x="482" y="66" rx="2" ry="2"/><rect class="c" x="482" y="82" rx="2" ry="2"/><rect class="c c3" x="482" y="98" rx="2" ry="2"/><rect class="c" x="498" y="2" rx="2" ry="2"/><rect class="c c4" x="498" y="18" rx="2" ry="2"/><rect class="c c5" x="498" y="34" rx="2" ry="2"/><rect class="c c6" x="498" y="50" rx="2" ry="2"/><rect class="c c7" x="498" y="66" rx="2" ry="2"/><rect class="c c8" x="498" y="82" rx="2" ry="2"/><rect class="c c9" x="498" y="98" rx="2" ry="2"/><rect class="c ca" x="514" y="2" rx="2" ry="2"/><rect class="c cb" x="514" y="18" rx="2" ry="2"/><rect class="c cc" x="514" y="34" rx="2" ry="2"/><rect class="c cd" x="514" y="50" rx="2" ry="2"/><rect class="c" x="514" y="66" rx="2" ry="2"/><rect class="c" x="514" y="82" rx="2" ry="2"/><rect class="c ce" x="514" y="98" rx="2" ry="2"/><rect class="c cf" x="530" y="2" rx="2" ry="2"/><rect class="c" x="530" y="18" rx="2" ry="2"/><rect class="c" x="530" y="34" rx="2" ry="2"/><rect class="c" x="530" y="50" rx="2" ry="2"/><rect class="c" x="530" y="66" rx="2" ry="2"/><rect class="c cg" x="530" y="82" rx="2" ry="2"/><rect class="c ch" x="530" y="98" rx="2" ry="2"/><rect class="c" x="546" y="2" rx="2" ry="2"/><rect class="c" x="546" y="18" rx="2" ry="2"/><rect class="c ci" x="546" y="34" rx="2" ry="2"/><rect class="c cj" x="546" y="50" rx="2" ry="2"/><rect class="c ck" x="546" y="66" rx="2" ry="2"/><rect class="c cl" x="546" y="82" rx="2" ry="2"/><rect class="c cm" x="546" y="98" rx="2" ry="2"/><rect class="c cn" x="562" y="2" rx="2" ry="2"/><rect class="c co" x="562" y="18" rx="2" ry="2"/><rect class="c cp" x="562" y="34" rx="2" ry="2"/><rect class="c cq" x="562" y="50" rx="2" ry="2"/><rect class="c" x="562" y="66" rx="2" ry="2"/><rect class="c cr" x="562" y="82" rx="2" ry="2"/><rect class="c cs" x="562" y="98" rx="2" ry="2"/><rect class="c" x="578" y="2" rx="2" ry="2"/><rect class="c" x="578" y="18" rx="2" ry="2"/><rect class="c" x="578" y="34" rx="2" ry="2"/><rect class="c ct" x="578" y="50" rx="2" ry="2"/><rect class="c cu" x="578" y="66" rx="2" ry="2"/><rect class="c" x="578" y="82" rx="2" ry="2"/><rect class="c" x="578" y="98" rx="2" ry="2"/><rect class="c" x="594" y="2" rx="2" ry="2"/><rect class="c" x="594" y="18" rx="2" ry="2"/><rect class="c cv" x="594" y="34" rx="2" ry="2"/><rect class="c cw" x="594" y="50" rx="2" ry="2"/><rect class="c cx" x="594" y="66" rx="2" ry="2"/><rect class="c" x="594" y="82" rx="2" ry="2"/><rect class="c" x="594" y="98" rx="2" ry="2"/><rect class="c" x="610" y="2" rx="2" ry="2"/><rect class="c" x="610" y="18" rx="2" ry="2"/><rect class="c" x="610" y="34" rx="2" ry="2"/><rect class="c" x="610" y="50" rx="2" ry="2"/><rect class="c" x="610" y="66" rx="2" ry="2"/><rect class="c" x="610" y="82" rx="2" ry="2"/><rect class="c" x="610" y="98" rx="2" ry="2"/><rect class="c cy" x="626" y="2" rx="2" ry="2"/><rect class="c" x="626" y="18" rx="2" ry="2"/><rect class="c" x="626" y="34" rx="2" ry="2"/><rect class="c cz" x="626" y="50" rx="2" ry="2"/><rect class="c c10" x="626" y="66" rx="2" ry="2"/><rect class="c c11" x="626" y="82" rx="2" ry="2"/><rect class="c" x="626" y="98" rx="2" ry="2"/><rect class="c" x="642" y="2" rx="2" ry="2"/><rect class="c" x="642" y="18" rx="2" ry="2"/><rect class="c" x="642" y="34" rx="2" ry="2"/><rect class="c c12" x="642" y="50" rx="2" ry="2"/><rect class="c" x="642" y="66" rx="2" ry="2"/><rect class="c c13" x="642" y="82" rx="2" ry="2"/><rect class="c" x="642" y="98" rx="2" ry="2"/><rect class="c" x="658" y="2" rx="2" ry="2"/><rect class="c" x="658" y="18" rx="2" ry="2"/><rect class="c c14" x="658" y="34" rx="2" ry="2"/><rect class="c" x="658" y="50" rx="2" ry="2"/><rect class="c c15" x="658" y="66" rx="2" ry="2"/><rect class="c c16" x="658" y="82" rx="2" ry="2"/><rect class="c c17" x="658" y="98" rx="2" ry="2"/><rect class="c c18" x="674" y="2" rx="2" ry="2"/><rect class="c c19" x="674" y="18" rx="2" ry="2"/><rect class="c" x="674" y="34" rx="2" ry="2"/><rect class="c c1a" x="674" y="50" rx="2" ry="2"/><rect class="c c1b" x="674" y="66" rx="2" ry="2"/><rect class="c c1c" x="674" y="82" rx="2" ry="2"/><rect class="c c1d" x="674" y="98" rx="2" ry="2"/><rect class="c c1e" x="690" y="2" rx="2" ry="2"/><rect class="c c1f" x="690" y="18" rx="2" ry="2"/><rect class="c" x="690" y="34" rx="2" ry="2"/><rect class="c c1g" x="690" y="50" rx="2" ry="2"/><rect class="c c1h" x="690" y="66" rx="2" ry="2"/><rect class="c c1i" x="690" y="82" rx="2" ry="2"/><rect class="c c1j" x="690" y="98" rx="2" ry="2"/><rect class="c" x="706" y="2" rx="2" ry="2"/><rect class="c c1k" x="706" y="18" rx="2" ry="2"/><rect class="c" x="706" y="34" rx="2" ry="2"/><rect class="c" x="706" y="50" rx="2" ry="2"/><rect class="c" x="706" y="66" rx="2" ry="2"/><rect class="c c1l" x="706" y="82" rx="2" ry="2"/><rect class="c" x="706" y="98" rx="2" ry="2"/><rect class="c" x="722" y="2" rx="2" ry="2"/><rect class="c c1m" x="722" y="18" rx="2" ry="2"/><rect class="c" x="722" y="34" rx="2" ry="2"/><rect class="c" x="722" y="50" rx="2" ry="2"/><rect class="c" x="722" y="66" rx="2" ry="2"/><rect class="c c1n" x="722" y="82" rx="2" ry="2"/><rect class="c c1o" x="722" y="98" rx="2" ry="2"/><rect class="c c1p" x="738" y="2" rx="2" ry="2"/><rect class="c c1q" x="738" y="18" rx="2" ry="2"/><rect class="c c1r" x="738" y="34" rx="2" ry="2"/><rect class="c" x="738" y="50" rx="2" ry="2"/><rect class="c c1s" x="738" y="66" rx="2" ry="2"/><rect class="c c1t" x="738" y="82" rx="2" ry="2"/><rect class="c c1u" x="738" y="98" rx="2" ry="2"/><rect class="c c1v" x="754" y="2" rx="2" ry="2"/><rect class="c c1w" x="754" y="18" rx="2" ry="2"/><rect class="c c1x" x="754" y="34" rx="2" ry="2"/><rect class="c c1y" x="754" y="50" rx="2" ry="2"/><rect class="c c1z" x="754" y="66" rx="2" ry="2"/><rect class="c" x="754" y="82" rx="2" ry="2"/><rect class="c c20" x="754" y="98" rx="2" ry="2"/><rect class="c c21" x="770" y="2" rx="2" ry="2"/><rect class="c c22" x="770" y="18" rx="2" ry="2"/><rect class="c c23" x="770" y="34" rx="2" ry="2"/><rect class="c c24" x="770" y="50" rx="2" ry="2"/><rect class="c c25" x="770" y="66" rx="2" ry="2"/><rect class="c" x="770" y="82" rx="2" ry="2"/><rect class="c c26" x="770" y="98" rx="2" ry="2"/><rect class="c c27" x="786" y="2" rx="2" ry="2"/><rect class="c c28" x="786" y="18" rx="2" ry="2"/><rect class="c c29" x="786" y="34" rx="2" ry="2"/><rect class="c c2a" x="786" y="50" rx="2" ry="2"/><rect class="c c2b" x="786" y="66" rx="2" ry="2"/><rect class="c c2c" x="786" y="82" rx="2" ry="2"/><rect class="c c2d" x="786" y="98" rx="2" ry="2"/><rect class="c c2e" x="802" y="2" rx="2" ry="2"/><rect class="c c2f" x="802" y="18" rx="2" ry="2"/><rect class="c c2g" x="802" y="34" rx="2" ry="2"/><rect class="c c2h" x="802" y="50" rx="2" ry="2"/><rect class="c c2i" x="802" y="66" rx="2" ry="2"/><rect class="c c2j" x="802" y="82" rx="2" ry="2"/><rect class="c c2k" x="802" y="98" rx="2" ry="2"/><rect class="c" x="818" y="2" rx="2" ry="2"/><rect class="c c2l" x="818" y="18" rx="2" ry="2"/><rect class="c c2m" x="818" y="34" rx="2" ry="2"/><rect class="c c2n" x="818" y="50" rx="2" ry="2"/><rect class="c c2o" x="818" y="66" rx="2" ry="2"/><rect class="c" x="818" y="82" rx="2" ry="2"/><rect class="c c2p" x="818" y="98" rx="2" ry="2"/><rect class="c c2q" x="834" y="2" rx="2" ry="2"/><rect class="c" x="834" y="18" rx="2" ry="2"/><rect class="u u0" height="12" width="788.6" x="0.0" y="144"/><rect class="u u1" height="12" width="52.0" x="788.0" y="144"/><rect class="u u2" height="12" width="9.2" x="839.4" y="144"/><rect class="s s0" x="0.8" y="0.8" width="14.4" height="14.4" rx="4.5" ry="4.5"/><rect class="s s1" x="1.8" y="1.8" width="12.3" height="12.3" rx="4.1" ry="4.1"/><rect class="s s2" x="2.6" y="2.6" width="10.8" height="10.8" rx="3.6" ry="3.6"/><rect class="s s3" x="3.0" y="3.0" width="9.9" height="9.9" rx="3.3" ry="3.3"/></svg>