<svg viewBox="-16 -32 880 192" width="880" height="192" xmlns="http://www.w3.org/2000/svg"><desc>Generated with https://github.com/Platane/snk</desc><style>:root{--cb:#1b1f230a;--cs:purple;--ce:#ebedf0;--c0:#ebedf0;--c1:#9be9a8;--c2:#40c463;--c3:#30a14e;--c4:#216e39}.c{shape-rendering:geometricPrecision;fill:var(--ce);stroke-width:1px;stroke:var(--cb);animation:none 27900ms linear infinite;width:12px;height:12px}@keyframes c0{11.82%{fill:var(--c1)}11.84%,100%{fill:var(--ce)}}.c.c0{fill:var(--c1);animation-name:c0}@keyframes c1{59.49%{fill:var(--c2)}59.51%,100%{fill:var(--ce)}}.c.c1{fill:var(--c2);animation-name:c1}@keyframes c2{14.69%{fill:var(--c1)}14.71%,100%{fill:var(--ce)}}.c.c2{fill:var(--c1);animation-name:c2}@keyframes c3{60.56%{fill:var(--c2)}60.58%,100%{fill:var(--ce)}}.c.c3{fill:var(--c2);animation-name:c3}@keyframes c4{20.42%{fill:var(--c1)}20.44%,100%{fill:var(--ce)}}.c.c4{fill:var(--c1);animation-name:c4}@keyframes c5{20.78%{fill:var(--c1)}20.8%,100%{fill:var(--ce)}}.c.c5{fill:var(--c1);animation-name:c5}@keyframes c6{16.12%{fill:var(--c1)}16.14%,100%{fill:var(--ce)}}.c.c6{fill:var(--c1);animation-name:c6}@keyframes c7{15.76%{fill:var(--c1)}15.78%,100%{fill:var(--ce)}}.c.c7{fill:var(--c1);animation-name:c7}@keyframes c8{15.4%{fill:var(--c1)}15.42%,100%{fill:var(--ce)}}.c.c8{fill:var(--c1);animation-name:c8}@keyframes c9{22.21%{fill:var(--c1)}22.23%,100%{fill:var(--ce)}}.c.c9{fill:var(--c1);animation-name:c9}@keyframes ca{19.7%{fill:var(--c1)}19.72%,100%{fill:var(--ce)}}.c.ca{fill:var(--c1);animation-name:ca}@keyframes cb{57.34%{fill:var(--c2)}57.36%,100%{fill:var(--ce)}}.c.cb{fill:var(--c2);animation-name:cb}@keyframes cc{56.98%{fill:var(--c2)}57%,100%{fill:var(--ce)}}.c.cc{fill:var(--c2);animation-name:cc}@keyframes cd{16.48%{fill:var(--c1)}16.5%,100%{fill:var(--ce)}}.c.cd{fill:var(--c1);animation-name:cd}@keyframes ce{22.57%{fill:var(--c1)}22.59%,100%{fill:var(--ce)}}.c.ce{fill:var(--c1);animation-name:ce}@keyframes cf{19.34%{fill:var(--c1)}19.36%,100%{fill:var(--ce)}}.c.cf{fill:var(--c1);animation-name:cf}@keyframes cg{23.29%{fill:var(--c1)}23.31%,100%{fill:var(--ce)}}.c.cg{fill:var(--c1);animation-name:cg}@keyframes ch{22.93%{fill:var(--c1)}22.95%,100%{fill:var(--ce)}}.c.ch{fill:var(--c1);animation-name:ch}@keyframes ci{17.55%{fill:var(--c1)}17.57%,100%{fill:var(--ce)}}.c.ci{fill:var(--c1);animation-name:ci}@keyframes cj{55.9%{fill:var(--c2)}55.92%,100%{fill:var(--ce)}}.c.cj{fill:var(--c2);animation-name:cj}@keyframes ck{73.47%{fill:var(--c3)}73.49%,100%{fill:var(--ce)}}.c.ck{fill:var(--c3);animation-name:ck}@keyframes cl{23.65%{fill:var(--c1)}23.67%,100%{fill:var(--ce)}}.c.cl{fill:var(--c1);animation-name:cl}@keyframes cm{74.18%{fill:var(--c3)}74.2%,100%{fill:var(--ce)}}.c.cm{fill:var(--c3);animation-name:cm}@keyframes cn{18.63%{fill:var(--c1)}18.65%,100%{fill:var(--ce)}}.c.cn{fill:var(--c1);animation-name:cn}@keyframes co{18.27%{fill:var(--c1)}18.29%,100%{fill:var(--ce)}}.c.co{fill:var(--c1);animation-name:co}@keyframes cp{17.91%{fill:var(--c1)}17.93%,100%{fill:var(--ce)}}.c.cp{fill:var(--c1);animation-name:cp}@keyframes cq{27.59%{fill:var(--c1)}27.61%,100%{fill:var(--ce)}}.c.cq{fill:var(--c1);animation-name:cq}@keyframes cr{24%{fill:var(--c1)}24.02%,100%{fill:var(--ce)}}.c.cr{fill:var(--c1);animation-name:cr}@keyframes cs{24.36%{fill:var(--c1)}24.38%,100%{fill:var(--ce)}}.c.cs{fill:var(--c1);animation-name:cs}@keyframes ct{27.23%{fill:var(--c1)}27.25%,100%{fill:var(--ce)}}.c.ct{fill:var(--c1);animation-name:ct}@keyframes cu{25.44%{fill:var(--c1)}25.46%,100%{fill:var(--ce)}}.c.cu{fill:var(--c1);animation-name:cu}@keyframes cv{26.51%{fill:var(--c1)}26.53%,100%{fill:var(--ce)}}.c.cv{fill:var(--c1);animation-name:cv}@keyframes cw{26.15%{fill:var(--c1)}26.17%,100%{fill:var(--ce)}}.c.cw{fill:var(--c1);animation-name:cw}@keyframes cx{25.8%{fill:var(--c1)}25.82%,100%{fill:var(--ce)}}.c.cx{fill:var(--c1);animation-name:cx}@keyframes cy{50.89%{fill:var(--c1)}50.91%,100%{fill:var(--ce)}}.c.cy{fill:var(--c1);animation-name:cy}@keyframes cz{29.74%{fill:var(--c1)}29.76%,100%{fill:var(--ce)}}.c.cz{fill:var(--c1);animation-name:cz}@keyframes c10{71.67%{fill:var(--c3)}71.69%,100%{fill:var(--ce)}}.c.c10{fill:var(--c3);animation-name:c10}@keyframes c11{53.4%{fill:var(--c2)}53.42%,100%{fill:var(--ce)}}.c.c11{fill:var(--c2);animation-name:c11}@keyframes c12{30.1%{fill:var(--c1)}30.12%,100%{fill:var(--ce)}}.c.c12{fill:var(--c1);animation-name:c12}@keyframes c13{53.04%{fill:var(--c2)}53.06%,100%{fill:var(--ce)}}.c.c13{fill:var(--c2);animation-name:c13}@keyframes c14{42.28%{fill:var(--c1)}42.3%,100%{fill:var(--ce)}}.c.c14{fill:var(--c1);animation-name:c14}@keyframes c15{40.85%{fill:var(--c1)}40.87%,100%{fill:var(--ce)}}.c.c15{fill:var(--c1);animation-name:c15}@keyframes c16{46.23%{fill:var(--c1)}46.25%,100%{fill:var(--ce)}}.c.c16{fill:var(--c1);animation-name:c16}@keyframes c17{46.58%{fill:var(--c1)}46.6%,100%{fill:var(--ce)}}.c.c17{fill:var(--c1);animation-name:c17}@keyframes c18{43.36%{fill:var(--c1)}43.38%,100%{fill:var(--ce)}}.c.c18{fill:var(--c1);animation-name:c18}@keyframes c19{43%{fill:var(--c1)}43.02%,100%{fill:var(--ce)}}.c.c19{fill:var(--c1);animation-name:c19}@keyframes c1a{30.81%{fill:var(--c1)}30.83%,100%{fill:var(--ce)}}.c.c1a{fill:var(--c1);animation-name:c1a}@keyframes c1b{40.49%{fill:var(--c1)}40.51%,100%{fill:var(--ce)}}.c.c1b{fill:var(--c1);animation-name:c1b}@keyframes c1c{45.87%{fill:var(--c1)}45.89%,100%{fill:var(--ce)}}.c.c1c{fill:var(--c1);animation-name:c1c}@keyframes c1d{46.94%{fill:var(--c1)}46.96%,100%{fill:var(--ce)}}.c.c1d{fill:var(--c1);animation-name:c1d}@keyframes c1e{43.72%{fill:var(--c1)}43.74%,100%{fill:var(--ce)}}.c.c1e{fill:var(--c1);animation-name:c1e}@keyframes c1f{31.89%{fill:var(--c1)}31.91%,100%{fill:var(--ce)}}.c.c1f{fill:var(--c1);animation-name:c1f}@keyframes c1g{31.17%{fill:var(--c1)}31.19%,100%{fill:var(--ce)}}.c.c1g{fill:var(--c1);animation-name:c1g}@keyframes c1h{40.13%{fill:var(--c1)}40.15%,100%{fill:var(--ce)}}.c.c1h{fill:var(--c1);animation-name:c1h}@keyframes c1i{45.51%{fill:var(--c1)}45.53%,100%{fill:var(--ce)}}.c.c1i{fill:var(--c1);animation-name:c1i}@keyframes c1j{47.3%{fill:var(--c1)}47.32%,100%{fill:var(--ce)}}.c.c1j{fill:var(--c1);animation-name:c1j}@keyframes c1k{32.25%{fill:var(--c1)}32.27%,100%{fill:var(--ce)}}.c.c1k{fill:var(--c1);animation-name:c1k}@keyframes c1l{39.42%{fill:var(--c1)}39.44%,100%{fill:var(--ce)}}.c.c1l{fill:var(--c1);animation-name:c1l}@keyframes c1m{32.61%{fill:var(--c1)}32.63%,100%{fill:var(--ce)}}.c.c1m{fill:var(--c1);animation-name:c1m}@keyframes c1n{66.3%{fill:var(--c2)}66.32%,100%{fill:var(--ce)}}.c.c1n{fill:var(--c2);animation-name:c1n}@keyframes c1o{38.7%{fill:var(--c1)}38.72%,100%{fill:var(--ce)}}.c.c1o{fill:var(--c1);animation-name:c1o}@keyframes c1p{33.32%{fill:var(--c1)}33.34%,100%{fill:var(--ce)}}.c.c1p{fill:var(--c1);animation-name:c1p}@keyframes c1q{68.09%{fill:var(--c3)}68.11%,100%{fill:var(--ce)}}.c.c1q{fill:var(--c3);animation-name:c1q}@keyframes c1r{67.73%{fill:var(--c3)}67.75%,100%{fill:var(--ce)}}.c.c1r{fill:var(--c3);animation-name:c1r}@keyframes c1s{36.19%{fill:var(--c1)}36.21%,100%{fill:var(--ce)}}.c.c1s{fill:var(--c1);animation-name:c1s}@keyframes c1t{36.55%{fill:var(--c1)}36.57%,100%{fill:var(--ce)}}.c.c1t{fill:var(--c1);animation-name:c1t}@keyframes c1u{36.91%{fill:var(--c1)}36.93%,100%{fill:var(--ce)}}.c.c1u{fill:var(--c1);animation-name:c1u}@keyframes c1v{33.68%{fill:var(--c1)}33.7%,100%{fill:var(--ce)}}.c.c1v{fill:var(--c1);animation-name:c1v}@keyframes c1w{80.64%{fill:var(--c4)}80.66%,100%{fill:var(--ce)}}.c.c1w{fill:var(--c4);animation-name:c1w}@keyframes c1x{80.28%{fill:var(--c4)}80.3%,100%{fill:var(--ce)}}.c.c1x{fill:var(--c4);animation-name:c1x}@keyframes c1y{35.47%{fill:var(--c1)}35.49%,100%{fill:var(--ce)}}.c.c1y{fill:var(--c1);animation-name:c1y}@keyframes c1z{35.83%{fill:var(--c1)}35.85%,100%{fill:var(--ce)}}.c.c1z{fill:var(--c1);animation-name:c1z}@keyframes c20{37.27%{fill:var(--c1)}37.29%,100%{fill:var(--ce)}}.c.c20{fill:var(--c1);animation-name:c20}.u{transform-origin:0 0;transform:scale(0,1);animation:none linear 27900ms infinite}@keyframes u0{11.82%{transform:scale(0.000,1)}11.84%,14.69%{transform:scale(0.017,1)}14.71%,15.4%{transform:scale(0.034,1)}15.42%,15.76%{transform:scale(0.052,1)}15.78%,16.12%{transform:scale(0.069,1)}16.14%,16.48%{transform:scale(0.086,1)}16.5%,17.55%{transform:scale(0.103,1)}17.57%,17.91%{transform:scale(0.121,1)}17.93%,18.27%{transform:scale(0.138,1)}18.29%,18.63%{transform:scale(0.155,1)}18.65%,19.34%{transform:scale(0.172,1)}19.36%,19.7%{transform:scale(0.190,1)}19.72%,20.42%{transform:scale(0.207,1)}20.44%,20.78%{transform:scale(0.224,1)}20.8%,22.21%{transform:scale(0.241,1)}22.23%,22.57%{transform:scale(0.259,1)}22.59%,22.93%{transform:scale(0.276,1)}22.95%,23.29%{transform:scale(0.293,1)}23.31%,23.65%{transform:scale(0.310,1)}23.67%,24%{transform:scale(0.328,1)}24.02%,24.36%{transform:scale(0.345,1)}24.38%,25.44%{transform:scale(0.362,1)}25.46%,25.8%{transform:scale(0.379,1)}25.82%,26.15%{transform:scale(0.397,1)}26.17%,26.51%{transform:scale(0.414,1)}26.53%,27.23%{transform:scale(0.431,1)}27.25%,27.59%{transform:scale(0.448,1)}27.61%,29.74%{transform:scale(0.466,1)}29.76%,30.1%{transform:scale(0.483,1)}30.12%,30.81%{transform:scale(0.500,1)}30.83%,31.17%{transform:scale(0.517,1)}31.19%,31.89%{transform:scale(0.534,1)}31.91%,32.25%{transform:scale(0.552,1)}32.27%,32.61%{transform:scale(0.569,1)}32.63%,33.32%{transform:scale(0.586,1)}33.34%,33.68%{transform:scale(0.603,1)}33.7%,35.47%{transform:scale(0.621,1)}35.49%,35.83%{transform:scale(0.638,1)}35.85%,36.19%{transform:scale(0.655,1)}36.21%,36.55%{transform:scale(0.672,1)}36.57%,36.91%{transform:scale(0.690,1)}36.93%,37.27%{transform:scale(0.707,1)}37.29%,38.7%{transform:scale(0.724,1)}38.72%,39.42%{transform:scale(0.741,1)}39.44%,40.13%{transform:scale(0.759,1)}40.15%,40.49%{transform:scale(0.776,1)}40.51%,40.85%{transform:scale(0.793,1)}40.87%,42.28%{transform:scale(0.810,1)}42.3%,43%{transform:scale(0.828,1)}43.02%,43.36%{transform:scale(0.845,1)}43.38%,43.72%{transform:scale(0.862,1)}43.74%,45.51%{transform:scale(0.879,1)}45.53%,45.87%{transform:scale(0.897,1)}45.89%,46.23%{transform:scale(0.914,1)}46.25%,46.58%{transform:scale(0.931,1)}46.6%,46.94%{transform:scale(0.948,1)}46.96%,47.3%{transform:scale(0.966,1)}47.32%,50.89%{transform:scale(0.983,1)}50.91%,100%{transform:scale(1.000,1)}}.u.u0{fill:var(--c1);animation-name:u0;transform-origin:0.0px 0}@keyframes u1{53.04%{transform:scale(0.000,1)}53.06%,53.4%{transform:scale(0.125,1)}53.42%,55.9%{transform:scale(0.250,1)}55.92%,56.98%{transform:scale(0.375,1)}57%,57.34%{transform:scale(0.500,1)}57.36%,59.49%{transform:scale(0.625,1)}59.51%,60.56%{transform:scale(0.750,1)}60.58%,66.3%{transform:scale(0.875,1)}66.32%,100%{transform:scale(1.000,1)}}.u.u1{fill:var(--c2);animation-name:u1;transform-origin:673.8px 0}@keyframes u2{67.73%{transform:scale(0.000,1)}67.75%,68.09%{transform:scale(0.200,1)}68.11%,71.67%{transform:scale(0.400,1)}71.69%,73.47%{transform:scale(0.600,1)}73.49%,74.18%{transform:scale(0.800,1)}74.2%,100%{transform:scale(1.000,1)}}.u.u2{fill:var(--c3);animation-name:u2;transform-origin:766.7px 0}@keyframes u3{80.28%{transform:scale(0.000,1)}80.3%,80.64%{transform:scale(0.500,1)}80.66%,100%{transform:scale(1.000,1)}}.u.u3{fill:var(--c4);animation-name:u3;transform-origin:824.8px 0}.s{shape-rendering:geometricPrecision;fill:var(--cs);animation:none linear 27900ms infinite}@keyframes s0{0%,99.64%{transform:translate(0px,-16px)}0.36%{transform:translate(0px,0px)}9.68%{transform:translate(416px,0px)}11.83%{transform:translate(416px,96px)}14.34%{transform:translate(528px,96px)}14.7%{transform:translate(528px,80px)}15.41%{transform:translate(560px,80px)}16.13%{transform:translate(560px,48px)}16.85%{transform:translate(592px,48px)}17.2%{transform:translate(592px,32px)}17.92%,27.96%{transform:translate(624px,32px)}18.64%{transform:translate(624px,0px)}20.07%{transform:translate(560px,0px)}22.22%{transform:translate(560px,96px)}22.94%,61.65%{transform:translate(592px,96px)}23.3%,62.01%{transform:translate(592px,80px)}24.01%{transform:translate(624px,80px)}24.37%{transform:translate(624px,96px)}24.73%{transform:translate(640px,96px)}25.45%{transform:translate(640px,64px)}25.81%{transform:translate(656px,64px)}26.52%{transform:translate(656px,32px)}26.88%{transform:translate(640px,32px)}27.24%{transform:translate(640px,48px)}27.6%{transform:translate(624px,48px)}29.39%{transform:translate(688px,32px)}29.75%{transform:translate(688px,48px)}31.18%{transform:translate(752px,48px)}31.9%{transform:translate(752px,16px)}32.62%{transform:translate(784px,16px)}32.97%{transform:translate(784px,0px)}34.05%{transform:translate(832px,0px)}35.13%{transform:translate(832px,48px)}35.48%{transform:translate(816px,48px)}35.84%{transform:translate(816px,64px)}36.2%{transform:translate(800px,64px)}36.92%,38.35%{transform:translate(800px,96px)}37.28%,78.85%{transform:translate(816px,96px)}37.63%{transform:translate(816px,80px)}37.99%,66.67%{transform:translate(800px,80px)}39.07%{transform:translate(768px,96px)}39.78%{transform:translate(768px,64px)}41.22%{transform:translate(704px,64px)}41.58%{transform:translate(704px,48px)}41.94%{transform:translate(720px,48px)}42.29%{transform:translate(720px,32px)}42.65%{transform:translate(736px,32px)}43.37%{transform:translate(736px,0px)}43.73%,49.46%{transform:translate(752px,0px)}45.52%{transform:translate(752px,80px)}46.24%{transform:translate(720px,80px)}46.59%{transform:translate(720px,96px)}47.31%{transform:translate(752px,96px)}50.9%{transform:translate(688px,0px)}51.25%,70.61%{transform:translate(688px,16px)}51.61%{transform:translate(704px,16px)}53.05%{transform:translate(704px,80px)}53.76%{transform:translate(672px,80px)}54.48%{transform:translate(672px,48px)}55.91%{transform:translate(608px,48px)}56.27%{transform:translate(608px,32px)}56.99%{transform:translate(576px,32px)}57.35%{transform:translate(576px,16px)}58.42%{transform:translate(528px,16px)}59.5%{transform:translate(528px,64px)}59.86%{transform:translate(544px,64px)}60.57%{transform:translate(544px,96px)}68.1%{transform:translate(800px,16px)}71.68%{transform:translate(688px,64px)}73.48%{transform:translate(608px,64px)}74.19%{transform:translate(608px,96px)}80.65%{transform:translate(816px,16px)}97.49%{transform:translate(64px,16px)}98.21%{transform:translate(64px,-16px)}}.s.s0{transform:translate(0px,-16px);animation-name:s0}@keyframes s1{0%,99.64%{transform:translate(16px,-16px)}0.36%{transform:translate(0px,-16px)}0.72%{transform:translate(0px,0px)}10.04%{transform:translate(416px,0px)}12.19%{transform:translate(416px,96px)}14.7%{transform:translate(528px,96px)}15.05%{transform:translate(528px,80px)}15.77%{transform:translate(560px,80px)}16.49%{transform:translate(560px,48px)}17.2%{transform:translate(592px,48px)}17.56%{transform:translate(592px,32px)}18.28%,28.32%{transform:translate(624px,32px)}19%{transform:translate(624px,0px)}20.43%{transform:translate(560px,0px)}22.58%{transform:translate(560px,96px)}23.3%,62.01%{transform:translate(592px,96px)}23.66%,62.37%{transform:translate(592px,80px)}24.37%{transform:translate(624px,80px)}24.73%{transform:translate(624px,96px)}25.09%{transform:translate(640px,96px)}25.81%{transform:translate(640px,64px)}26.16%{transform:translate(656px,64px)}26.88%{transform:translate(656px,32px)}27.24%{transform:translate(640px,32px)}27.6%{transform:translate(640px,48px)}27.96%{transform:translate(624px,48px)}29.75%{transform:translate(688px,32px)}30.11%{transform:translate(688px,48px)}31.54%{transform:translate(752px,48px)}32.26%{transform:translate(752px,16px)}32.97%{transform:translate(784px,16px)}33.33%{transform:translate(784px,0px)}34.41%{transform:translate(832px,0px)}35.48%{transform:translate(832px,48px)}35.84%{transform:translate(816px,48px)}36.2%{transform:translate(816px,64px)}36.56%{transform:translate(800px,64px)}37.28%,38.71%{transform:translate(800px,96px)}37.63%,79.21%{transform:translate(816px,96px)}37.99%{transform:translate(816px,80px)}38.35%,67.03%{transform:translate(800px,80px)}39.43%{transform:translate(768px,96px)}40.14%{transform:translate(768px,64px)}41.58%{transform:translate(704px,64px)}41.94%{transform:translate(704px,48px)}42.29%{transform:translate(720px,48px)}42.65%{transform:translate(720px,32px)}43.01%{transform:translate(736px,32px)}43.73%{transform:translate(736px,0px)}44.09%,49.82%{transform:translate(752px,0px)}45.88%{transform:translate(752px,80px)}46.59%{transform:translate(720px,80px)}46.95%{transform:translate(720px,96px)}47.67%{transform:translate(752px,96px)}51.25%{transform:translate(688px,0px)}51.61%,70.97%{transform:translate(688px,16px)}51.97%{transform:translate(704px,16px)}53.41%{transform:translate(704px,80px)}54.12%{transform:translate(672px,80px)}54.84%{transform:translate(672px,48px)}56.27%{transform:translate(608px,48px)}56.63%{transform:translate(608px,32px)}57.35%{transform:translate(576px,32px)}57.71%{transform:translate(576px,16px)}58.78%{transform:translate(528px,16px)}59.86%{transform:translate(528px,64px)}60.22%{transform:translate(544px,64px)}60.93%{transform:translate(544px,96px)}68.46%{transform:translate(800px,16px)}72.04%{transform:translate(688px,64px)}73.84%{transform:translate(608px,64px)}74.55%{transform:translate(608px,96px)}81%{transform:translate(816px,16px)}97.85%{transform:translate(64px,16px)}98.57%{transform:translate(64px,-16px)}}.s.s1{transform:translate(16px,-16px);animation-name:s1}@keyframes s2{0%,99.64%{transform:translate(32px,-16px)}0.72%{transform:translate(0px,-16px)}1.08%{transform:translate(0px,0px)}10.39%{transform:translate(416px,0px)}12.54%{transform:translate(416px,96px)}15.05%{transform:translate(528px,96px)}15.41%{transform:translate(528px,80px)}16.13%{transform:translate(560px,80px)}16.85%{transform:translate(560px,48px)}17.56%{transform:translate(592px,48px)}17.92%{transform:translate(592px,32px)}18.64%,28.67%{transform:translate(624px,32px)}19.35%{transform:translate(624px,0px)}20.79%{transform:translate(560px,0px)}22.94%{transform:translate(560px,96px)}23.66%,62.37%{transform:translate(592px,96px)}24.01%,62.72%{transform:translate(592px,80px)}24.73%{transform:translate(624px,80px)}25.09%{transform:translate(624px,96px)}25.45%{transform:translate(640px,96px)}26.16%{transform:translate(640px,64px)}26.52%{transform:translate(656px,64px)}27.24%{transform:translate(656px,32px)}27.6%{transform:translate(640px,32px)}27.96%{transform:translate(640px,48px)}28.32%{transform:translate(624px,48px)}30.11%{transform:translate(688px,32px)}30.47%{transform:translate(688px,48px)}31.9%{transform:translate(752px,48px)}32.62%{transform:translate(752px,16px)}33.33%{transform:translate(784px,16px)}33.69%{transform:translate(784px,0px)}34.77%{transform:translate(832px,0px)}35.84%{transform:translate(832px,48px)}36.2%{transform:translate(816px,48px)}36.56%{transform:translate(816px,64px)}36.92%{transform:translate(800px,64px)}37.63%,39.07%{transform:translate(800px,96px)}37.99%,79.57%{transform:translate(816px,96px)}38.35%{transform:translate(816px,80px)}38.71%,67.38%{transform:translate(800px,80px)}39.78%{transform:translate(768px,96px)}40.5%{transform:translate(768px,64px)}41.94%{transform:translate(704px,64px)}42.29%{transform:translate(704px,48px)}42.65%{transform:translate(720px,48px)}43.01%{transform:translate(720px,32px)}43.37%{transform:translate(736px,32px)}44.09%{transform:translate(736px,0px)}44.44%,50.18%{transform:translate(752px,0px)}46.24%{transform:translate(752px,80px)}46.95%{transform:translate(720px,80px)}47.31%{transform:translate(720px,96px)}48.03%{transform:translate(752px,96px)}51.61%{transform:translate(688px,0px)}51.97%,71.33%{transform:translate(688px,16px)}52.33%{transform:translate(704px,16px)}53.76%{transform:translate(704px,80px)}54.48%{transform:translate(672px,80px)}55.2%{transform:translate(672px,48px)}56.63%{transform:translate(608px,48px)}56.99%{transform:translate(608px,32px)}57.71%{transform:translate(576px,32px)}58.06%{transform:translate(576px,16px)}59.14%{transform:translate(528px,16px)}60.22%{transform:translate(528px,64px)}60.57%{transform:translate(544px,64px)}61.29%{transform:translate(544px,96px)}68.82%{transform:translate(800px,16px)}72.4%{transform:translate(688px,64px)}74.19%{transform:translate(608px,64px)}74.91%{transform:translate(608px,96px)}81.36%{transform:translate(816px,16px)}98.21%{transform:translate(64px,16px)}98.92%{transform:translate(64px,-16px)}}.s.s2{transform:translate(32px,-16px);animation-name:s2}@keyframes s3{0%,99.64%{transform:translate(48px,-16px)}1.08%{transform:translate(0px,-16px)}1.43%{transform:translate(0px,0px)}10.75%{transform:translate(416px,0px)}12.9%{transform:translate(416px,96px)}15.41%{transform:translate(528px,96px)}15.77%{transform:translate(528px,80px)}16.49%{transform:translate(560px,80px)}17.2%{transform:translate(560px,48px)}17.92%{transform:translate(592px,48px)}18.28%{transform:translate(592px,32px)}19%,29.03%{transform:translate(624px,32px)}19.71%{transform:translate(624px,0px)}21.15%{transform:translate(560px,0px)}23.3%{transform:translate(560px,96px)}24.01%,62.72%{transform:translate(592px,96px)}24.37%,63.08%{transform:translate(592px,80px)}25.09%{transform:translate(624px,80px)}25.45%{transform:translate(624px,96px)}25.81%{transform:translate(640px,96px)}26.52%{transform:translate(640px,64px)}26.88%{transform:translate(656px,64px)}27.6%{transform:translate(656px,32px)}27.96%{transform:translate(640px,32px)}28.32%{transform:translate(640px,48px)}28.67%{transform:translate(624px,48px)}30.47%{transform:translate(688px,32px)}30.82%{transform:translate(688px,48px)}32.26%{transform:translate(752px,48px)}32.97%{transform:translate(752px,16px)}33.69%{transform:translate(784px,16px)}34.05%{transform:translate(784px,0px)}35.13%{transform:translate(832px,0px)}36.2%{transform:translate(832px,48px)}36.56%{transform:translate(816px,48px)}36.92%{transform:translate(816px,64px)}37.28%{transform:translate(800px,64px)}37.99%,39.43%{transform:translate(800px,96px)}38.35%,79.93%{transform:translate(816px,96px)}38.71%{transform:translate(816px,80px)}39.07%,67.74%{transform:translate(800px,80px)}40.14%{transform:translate(768px,96px)}40.86%{transform:translate(768px,64px)}42.29%{transform:translate(704px,64px)}42.65%{transform:translate(704px,48px)}43.01%{transform:translate(720px,48px)}43.37%{transform:translate(720px,32px)}43.73%{transform:translate(736px,32px)}44.44%{transform:translate(736px,0px)}44.8%,50.54%{transform:translate(752px,0px)}46.59%{transform:translate(752px,80px)}47.31%{transform:translate(720px,80px)}47.67%{transform:translate(720px,96px)}48.39%{transform:translate(752px,96px)}51.97%{transform:translate(688px,0px)}52.33%,71.68%{transform:translate(688px,16px)}52.69%{transform:translate(704px,16px)}54.12%{transform:translate(704px,80px)}54.84%{transform:translate(672px,80px)}55.56%{transform:translate(672px,48px)}56.99%{transform:translate(608px,48px)}57.35%{transform:translate(608px,32px)}58.06%{transform:translate(576px,32px)}58.42%{transform:translate(576px,16px)}59.5%{transform:translate(528px,16px)}60.57%{transform:translate(528px,64px)}60.93%{transform:translate(544px,64px)}61.65%{transform:translate(544px,96px)}69.18%{transform:translate(800px,16px)}72.76%{transform:translate(688px,64px)}74.55%{transform:translate(608px,64px)}75.27%{transform:translate(608px,96px)}81.72%{transform:translate(816px,16px)}98.57%{transform:translate(64px,16px)}99.28%{transform:translate(64px,-16px)}}.s.s3{transform:translate(48px,-16px);animation-name:s3}</style><rect class="c" x="2" y="2" rx="2" ry="2"/><rect class="c" x="2" y="18" rx="2" ry="2"/><rect class="c" x="2" y="34" rx="2" ry="2"/><rect class="c" x="2" y="50" rx="2" ry="2"/><rect class="c" x="2" y="66" rx="2" ry="2"/><rect class="c" x="2" y="82" rx="2" ry="2"/><rect class="c" x="2" y="98" rx="2" ry="2"/><rect class="c" x="18" y="2" rx="2" ry="2"/><rect class="c" x="18" y="18" rx="2" ry="2"/><rect class="c" x="18" y="34" rx="2" ry="2"/><rect class="c" x="18" y="50" rx="2" ry="2"/><rect class="c" x="18" y="66" rx="2" ry="2"/><rect class="c" x="18" y="82" rx="2" ry="2"/><rect class="c" x="18" y="98" rx="2" ry="2"/><rect class="c" x="34" y="2" rx="2" ry="2"/><rect class="c" x="34" y="18" rx="2" ry="2"/><rect class="c" x="34" y="34" rx="2" ry="2"/><rect class="c" x="34" y="50" rx="2" ry="2"/><rect class="c" x="34" y="66" rx="2" ry="2"/><rect class="c" x="34" y="82" rx="2" ry="2"/><rect class="c" x="34" y="98" rx="2" ry="2"/><rect class="c" x="50" y="2" rx="2" ry="2"/><rect class="c" x="50" y="18" rx="2" ry="2"/><rect class="c" x="50" y="34" rx="2" ry="2"/><rect class="c" x="50" y="50" rx="2" ry="2"/><rect class="c" x="50" y="66" rx="2" ry="2"/><rect class="c" x="50" y="82" rx="2" ry="2"/><rect class="c" x="50" y="98" rx="2" ry="2"/><rect class="c" x="66" y="2" rx="2" ry="2"/><rect class="c" x="66" y="18" rx="2" ry="2"/><rect class="c" x="66" y="34" rx="2" ry="2"/><rect class="c" x="66" y="50" rx="2" ry="2"/><rect class="c" x="66" y="66" rx="2" ry="2"/><rect class="c" x="66" y="82" rx="2" ry="2"/><rect class="c" x="66" y="98" rx="2" ry="2"/><rect class="c" x="82" y="2" rx="2" ry="2"/><rect class="c" x="82" y="18" rx="2" ry="2"/><rect class="c" x="82" y="34" rx="2" ry="2"/><rect class="c" x="82" y="50" rx="2" ry="2"/><rect class="c" x="82" y="66" rx="2" ry="2"/><rect class="c" x="82" y="82" rx="2" ry="2"/><rect class="c" x="82" y="98" rx="2" ry="2"/><rect class="c" x="98" y="2" rx="2" ry="2"/><rect class="c" x="98" y="18" rx="2" ry="2"/><rect class="c" x="98" y="34" rx="2" ry="2"/><rect class="c" x="98" y="50" rx="2" ry="2"/><rect class="c" x="98" y="66" rx="2" ry="2"/><rect class="c" x="98" y="82" rx="2" ry="2"/><rect class="c" x="98" y="98" rx="2" ry="2"/><rect class="c" x="114" y="2" rx="2" ry="2"/><rect class="c" x="114" y="18" rx="2" ry="2"/><rect class="c" x="114" y="34" rx="2" ry="2"/><rect class="c" x="114" y="50" rx="2" ry="2"/><rect class="c" x="114" y="66" rx="2" ry="2"/><rect class="c" x="114" y="82" rx="2" ry="2"/><rect class="c" x="114" y="98" rx="2" ry="2"/><rect class="c" x="130" y="2" rx="2" ry="2"/><rect class="c" x="130" y="18" rx="2" ry="2"/><rect class="c" x="130" y="34" rx="2" ry="2"/><rect class="c" x="130" y="50" rx="2" ry="2"/><rect class="c" x="130" y="66" rx="2" ry="2"/><rect class="c" x="130" y="82" rx="2" ry="2"/><rect class="c" x="130" y="98" rx="2" ry="2"/><rect class="c" x="146" y="2" rx="2" ry="2"/><rect class="c" x="146" y="18" rx="2" ry="2"/><rect class="c" x="146" y="34" rx="2" ry="2"/><rect class="c" x="146" y="50" rx="2" ry="2"/><rect class="c" x="146" y="66" rx="2" ry="2"/><rect class="c" x="146" y="82" rx="2" ry="2"/><rect class="c" x="146" y="98" rx="2" ry="2"/><rect class="c" x="162" y="2" rx="2" ry="2"/><rect class="c" x="162" y="18" rx="2" ry="2"/><rect class="c" x="162" y="34" rx="2" ry="2"/><rect class="c" x="162" y="50" rx="2" ry="2"/><rect class="c" x="162" y="66" rx="2" ry="2"/><rect class="c" x="162" y="82" rx="2" ry="2"/><rect class="c" x="162" y="98" rx="2" ry="2"/><rect class="c" x="178" y="2" rx="2" ry="2"/><rect class="c" x="178" y="18" rx="2" ry="2"/><rect class="c" x="178" y="34" rx="2" ry="2"/><rect class="c" x="178" y="50" rx="2" ry="2"/><rect class="c" x="178" y="66" rx="2" ry="2"/><rect class="c" x="178" y="82" rx="2" ry="2"/><rect class="c" x="178" y="98" rx="2" ry="2"/><rect class="c" x="194" y="2" rx="2" ry="2"/><rect class="c" x="194" y="18" rx="2" ry="2"/><rect class="c" x="194" y="34" rx="2" ry="2"/><rect class="c" x="194" y="50" rx="2" ry="2"/><rect class="c" x="194" y="66" rx="2" ry="2"/><rect class="c" x="194" y="82" rx="2" ry="2"/><rect class="c" x="194" y="98" rx="2" ry="2"/><rect class="c" x="210" y="2" rx="2" ry="2"/><rect class="c" x="210" y="18" rx="2" ry="2"/><rect class="c" x="210" y="34" rx="2" ry="2"/><rect class="c" x="210" y="50" rx="2" ry="2"/><rect class="c" x="210" y="66" rx="2" ry="2"/><rect class="c" x="210" y="82" rx="2" ry="2"/><rect class="c" x="210" y="98" rx="2" ry="2"/><rect class="c" x="226" y="2" rx="2" ry="2"/><rect class="c" x="226" y="18" rx="2" ry="2"/><rect class="c" x="226" y="34" rx="2" ry="2"/><rect class="c" x="226" y="50" rx="2" ry="2"/><rect class="c" x="226" y="66" rx="2" ry="2"/><rect class="c" x="226" y="82" rx="2" ry="2"/><rect class="c" x="226" y="98" rx="2" ry="2"/><rect class="c" x="242" y="2" rx="2" ry="2"/><rect class="c" x="242" y="18" rx="2" ry="2"/><rect class="c" x="242" y="34" rx="2" ry="2"/><rect class="c" x="242" y="50" rx="2" ry="2"/><rect class="c" x="242" y="66" rx="2" ry="2"/><rect class="c" x="242" y="82" rx="2" ry="2"/><rect class="c" x="242" y="98" rx="2" ry="2"/><rect class="c" x="258" y="2" rx="2" ry="2"/><rect class="c" x="258" y="18" rx="2" ry="2"/><rect class="c" x="258" y="34" rx="2" ry="2"/><rect class="c" x="258" y="50" rx="2" ry="2"/><rect class="c" x="258" y="66" rx="2" ry="2"/><rect class="c" x="258" y="82" rx="2" ry="2"/><rect class="c" x="258" y="98" rx="2" ry="2"/><rect class="c" x="274" y="2" rx="2" ry="2"/><rect class="c" x="274" y="18" rx="2" ry="2"/><rect class="c" x="274" y="34" rx="2" ry="2"/><rect class="c" x="274" y="50" rx="2" ry="2"/><rect class="c" x="274" y="66" rx="2" ry="2"/><rect class="c" x="274" y="82" rx="2" ry="2"/><rect class="c" x="274" y="98" rx="2" ry="2"/><rect class="c" x="290" y="2" rx="2" ry="2"/><rect class="c" x="290" y="18" rx="2" ry="2"/><rect class="c" x="290" y="34" rx="2" ry="2"/><rect class="c" x="290" y="50" rx="2" ry="2"/><rect class="c" x="290" y="66" rx="2" ry="2"/><rect class="c" x="290" y="82" rx="2" ry="2"/><rect class="c" x="290" y="98" rx="2" ry="2"/><rect class="c" x="306" y="2" rx="2" ry="2"/><rect class="c" x="306" y="18" rx="2" ry="2"/><rect class="c" x="306" y="34" rx="2" ry="2"/><rect class="c" x="306" y="50" rx="2" ry="2"/><rect class="c" x="306" y="66" rx="2" ry="2"/><rect class="c" x="306" y="82" rx="2" ry="2"/><rect class="c" x="306" y="98" rx="2" ry="2"/><rect class="c" x="322" y="2" rx="2" ry="2"/><rect class="c" x="322" y="18" rx="2" ry="2"/><rect class="c" x="322" y="34" rx="2" ry="2"/><rect class="c" x="322" y="50" rx="2" ry="2"/><rect class="c" x="322" y="66" rx="2" ry="2"/><rect class="c" x="322" y="82" rx="2" ry="2"/><rect class="c" x="322" y="98" rx="2" ry="2"/><rect class="c" x="338" y="2" rx="2" ry="2"/><rect class="c" x="338" y="18" rx="2" ry="2"/><rect class="c" x="338" y="34" rx="2" ry="2"/><rect class="c" x="338" y="50" rx="2" ry="2"/><rect class="c" x="338" y="66" rx="2" ry="2"/><rect class="c" x="338" y="82" rx="2" ry="2"/><rect class="c" x="338" y="98" rx="2" ry="2"/><rect class="c" x="354" y="2" rx="2" ry="2"/><rect class="c" x="354" y="18" rx="2" ry="2"/><rect class="c" x="354" y="34" rx="2" ry="2"/><rect class="c" x="354" y="50" rx="2" ry="2"/><rect class="c" x="354" y="66" rx="2" ry="2"/><rect class="c" x="354" y="82" rx="2" ry="2"/><rect class="c" x="354" y="98" rx="2" ry="2"/><rect class="c" x="370" y="2" rx="2" ry="2"/><rect class="c" x="370" y="18" rx="2" ry="2"/><rect class="c" x="370" y="34" rx="2" ry="2"/><rect class="c" x="370" y="50" rx="2" ry="2"/><rect class="c" x="370" y="66" rx="2" ry="2"/><rect class="c" x="370" y="82" rx="2" ry="2"/><rect class="c" x="370" y="98" rx="2" ry="2"/><rect class="c" x="386" y="2" rx="2" ry="2"/><rect class="c" x="386" y="18" rx="2" ry="2"/><rect class="c" x="386" y="34" rx="2" ry="2"/><rect class="c" x="386" y="50" rx="2" ry="2"/><rect class="c" x="386" y="66" rx="2" ry="2"/><rect class="c" x="386" y="82" rx="2" ry="2"/><rect class="c" x="386" y="98" rx="2" ry="2"/><rect class="c" x="402" y="2" rx="2" ry="2"/><rect class="c" x="402" y="18" rx="2" ry="2"/><rect class="c" x="402" y="34" rx="2" ry="2"/><rect class="c" x="402" y="50" rx="2" ry="2"/><rect class="c" x="402" y="66" rx="2" ry="2"/><rect class="c" x="402" y="82" rx="2" ry="2"/><rect class="c" x="402" y="98" rx="2" ry="2"/><rect class="c" x="418" y="2" rx="2" ry="2"/><rect class="c" x="418" y="18" rx="2" ry="2"/><rect class="c" x="418" y="34" rx="2" ry="2"/><rect class="c" x="418" y="50" rx="2" ry="2"/><rect class="c" x="418" y="66" rx="2" ry="2"/><rect class="c" x="418" y="82" rx="2" ry="2"/><rect class="c c0" x="418" y="98" rx="2" ry="2"/><rect class="c" x="434" y="2" rx="2" ry="2"/><rect class="c" x="434" y="18" rx="2" ry="2"/><rect class="c" x="434" y="34" rx="2" ry="2"/><rect class="c" x="434" y="50" rx="2" ry="2"/><rect class="c" x="434" y="66" rx="2" ry="2"/><rect class="c" x="434" y="82" rx="2" ry="2"/><rect class="c" x="434" y="98" rx="2" ry="2"/><rect class="c" x="450" y="2" rx="2" ry="2"/><rect class="c" x="450" y="18" rx="2" ry="2"/><rect class="c" x="450" y="34" rx="2" ry="2"/><rect class="c" x="450" y="50" rx="2" ry="2"/><rect class="c" x="450" y="66" rx="2" ry="2"/><rect class="c" x="450" y="82" rx="2" ry="2"/><rect class="c" x="450" y="98" rx="2" ry="2"/><rect class="c" x="466" y="2" rx="2" ry="2"/><rect class="c" x="466" y="18" rx="2" ry="2"/><rect class="c" x="466" y="34" rx="2" ry="2"/><rect class="c" x="466" y="50" rx="2" ry="2"/><rect class="c" x="466" y="66" rx="2" ry="2"/><rect class="c" x="466" y="82" rx="2" ry="2"/><rect class="c" x="466" y="98" rx="2" ry="2"/><rect class="c" x="482" y="2" rx="2" ry="2"/><rect class="c" x="482" y="18" rx="2" ry="2"/><rect class="c" x="482" y="34" rx="2" ry="2"/><rect class="c" x="482" y="50" rx="2" ry="2"/><rect class="c" x="482" y="66" rx="2" ry="2"/><rect class="c" x="482" y="82" rx="2" ry="2"/><rect class="c" x="482" y="98" rx="2" ry="2"/><rect class="c" x="498" y="2" rx="2" ry="2"/><rect class="c" x="498" y="18" rx="2" ry="2"/><rect class="c" x="498" y="34" rx="2" ry="2"/><rect class="c" x="498" y="50" rx="2" ry="2"/><rect class="c" x="498" y="66" rx="2" ry="2"/><rect class="c" x="498" y="82" rx="2" ry="2"/><rect class="c" x="498" y="98" rx="2" ry="2"/><rect class="c" x="514" y="2" rx="2" ry="2"/><rect class="c" x="514" y="18" rx="2" ry="2"/><rect class="c" x="514" y="34" rx="2" ry="2"/><rect class="c" x="514" y="50" rx="2" ry="2"/><rect class="c" x="514" y="66" rx="2" ry="2"/><rect class="c" x="514" y="82" rx="2" ry="2"/><rect class="c" x="514" y="98" rx="2" ry="2"/><rect class="c" x="530" y="2" rx="2" ry="2"/><rect class="c" x="530" y="18" rx="2" ry="2"/><rect class="c" x="530" y="34" rx="2" ry="2"/><rect class="c" x="530" y="50" rx="2" ry="2"/><rect class="c c1" x="530" y="66" rx="2" ry="2"/><rect class="c c2" x="530" y="82" rx="2" ry="2"/><rect class="c" x="530" y="98" rx="2" ry="2"/><rect class="c" x="546" y="2" rx="2" ry="2"/><rect class="c" x="546" y="18" rx="2" ry="2"/><rect class="c" x="546" y="34" rx="2" ry="2"/><rect class="c" x="546" y="50" rx="2" ry="2"/><rect class="c" x="546" y="66" rx="2" ry="2"/><rect class="c" x="546" y="82" rx="2" ry="2"/><rect class="c c3" x="546" y="98" rx="2" ry="2"/><rect class="c" x="562" y="2" rx="2" ry="2"/><rect class="c c4" x="562" y="18" rx="2" ry="2"/><rect class="c c5" x="562" y="34" rx="2" ry="2"/><rect class="c c6" x="562" y="50" rx="2" ry="2"/><rect class="c c7" x="562" y="66" rx="2" ry="2"/><rect class="c c8" x="562" y="82" rx="2" ry="2"/><rect class="c c9" x="562" y="98" rx="2" ry="2"/><rect class="c ca" x="578" y="2" rx="2" ry="2"/><rect class="c cb" x="578" y="18" rx="2" ry="2"/><rect class="c cc" x="578" y="34" rx="2" ry="2"/><rect class="c cd" x="578" y="50" rx="2" ry="2"/><rect class="c" x="578" y="66" rx="2" ry="2"/><rect class="c" x="578" y="82" rx="2" ry="2"/><rect class="c ce" x="578" y="98" rx="2" ry="2"/><rect class="c cf" x="594" y="2" rx="2" ry="2"/><rect class="c" x="594" y="18" rx="2" ry="2"/><rect class="c" x="594" y="34" rx="2" ry="2"/><rect class="c" x="594" y="50" rx="2" ry="2"/><rect class="c" x="594" y="66" rx="2" ry="2"/><rect class="c cg" x="594" y="82" rx="2" ry="2"/><rect class="c ch" x="594" y="98" rx="2" ry="2"/><rect class="c" x="610" y="2" rx="2" ry="2"/><rect class="c" x="610" y="18" rx="2" ry="2"/><rect class="c ci" x="610" y="34" rx="2" ry="2"/><rect class="c cj" x="610" y="50" rx="2" ry="2"/><rect class="c ck" x="610" y="66" rx="2" ry="2"/><rect class="c cl" x="610" y="82" rx="2" ry="2"/><rect class="c cm" x="610" y="98" rx="2" ry="2"/><rect class="c cn" x="626" y="2" rx="2" ry="2"/><rect class="c co" x="626" y="18" rx="2" ry="2"/><rect class="c cp" x="626" y="34" rx="2" ry="2"/><rect class="c cq" x="626" y="50" rx="2" ry="2"/><rect class="c" x="626" y="66" rx="2" ry="2"/><rect class="c cr" x="626" y="82" rx="2" ry="2"/><rect class="c cs" x="626" y="98" rx="2" ry="2"/><rect class="c" x="642" y="2" rx="2" ry="2"/><rect class="c" x="642" y="18" rx="2" ry="2"/><rect class="c" x="642" y="34" rx="2" ry="2"/><rect class="c ct" x="642" y="50" rx="2" ry="2"/><rect class="c cu" x="642" y="66" rx="2" ry="2"/><rect class="c" x="642" y="82" rx="2" ry="2"/><rect class="c" x="642" y="98" rx="2" ry="2"/><rect class="c" x="658" y="2" rx="2" ry="2"/><rect class="c" x="658" y="18" rx="2" ry="2"/><rect class="c cv" x="658" y="34" rx="2" ry="2"/><rect class="c cw" x="658" y="50" rx="2" ry="2"/><rect class="c cx" x="658" y="66" rx="2" ry="2"/><rect class="c" x="658" y="82" rx="2" ry="2"/><rect class="c" x="658" y="98" rx="2" ry="2"/><rect class="c" x="674" y="2" rx="2" ry="2"/><rect class="c" x="674" y="18" rx="2" ry="2"/><rect class="c" x="674" y="34" rx="2" ry="2"/><rect class="c" x="674" y="50" rx="2" ry="2"/><rect class="c" x="674" y="66" rx="2" ry="2"/><rect class="c" x="674" y="82" rx="2" ry="2"/><rect class="c" x="674" y="98" rx="2" ry="2"/><rect class="c cy" x="690" y="2" rx="2" ry="2"/><rect class="c" x="690" y="18" rx="2" ry="2"/><rect class="c" x="690" y="34" rx="2" ry="2"/><rect class="c cz" x="690" y="50" rx="2" ry="2"/><rect class="c c10" x="690" y="66" rx="2" ry="2"/><rect class="c c11" x="690" y="82" rx="2" ry="2"/><rect class="c" x="690" y="98" rx="2" ry="2"/><rect class="c" x="706" y="2" rx="2" ry="2"/><rect class="c" x="706" y="18" rx="2" ry="2"/><rect class="c" x="706" y="34" rx="2" ry="2"/><rect class="c c12" x="706" y="50" rx="2" ry="2"/><rect class="c" x="706" y="66" rx="2" ry="2"/><rect class="c c13" x="706" y="82" rx="2" ry="2"/><rect class="c" x="706" y="98" rx="2" ry="2"/><rect class="c" x="722" y="2" rx="2" ry="2"/><rect class="c" x="722" y="18" rx="2" ry="2"/><rect class="c c14" x="722" y="34" rx="2" ry="2"/><rect class="c" x="722" y="50" rx="2" ry="2"/><rect class="c c15" x="722" y="66" rx="2" ry="2"/><rect class="c c16" x="722" y="82" rx="2" ry="2"/><rect class="c c17" x="722" y="98" rx="2" ry="2"/><rect class="c c18" x="738" y="2" rx="2" ry="2"/><rect class="c c19" x="738" y="18" rx="2" ry="2"/><rect class="c" x="738" y="34" rx="2" ry="2"/><rect class="c c1a" x="738" y="50" rx="2" ry="2"/><rect class="c c1b" x="738" y="66" rx="2" ry="2"/><rect class="c c1c" x="738" y="82" rx="2" ry="2"/><rect class="c c1d" x="738" y="98" rx="2" ry="2"/><rect class="c c1e" x="754" y="2" rx="2" ry="2"/><rect class="c c1f" x="754" y="18" rx="2" ry="2"/><rect class="c" x="754" y="34" rx="2" ry="2"/><rect class="c c1g" x="754" y="50" rx="2" ry="2"/><rect class="c c1h" x="754" y="66" rx="2" ry="2"/><rect class="c c1i" x="754" y="82" rx="2" ry="2"/><rect class="c c1j" x="754" y="98" rx="2" ry="2"/><rect class="c" x="770" y="2" rx="2" ry="2"/><rect class="c c1k" x="770" y="18" rx="2" ry="2"/><rect class="c" x="770" y="34" rx="2" ry="2"/><rect class="c" x="770" y="50" rx="2" ry="2"/><rect class="c" x="770" y="66" rx="2" ry="2"/><rect class="c c1l" x="770" y="82" rx="2" ry="2"/><rect class="c" x="770" y="98" rx="2" ry="2"/><rect class="c" x="786" y="2" rx="2" ry="2"/><rect class="c c1m" x="786" y="18" rx="2" ry="2"/><rect class="c" x="786" y="34" rx="2" ry="2"/><rect class="c" x="786" y="50" rx="2" ry="2"/><rect class="c" x="786" y="66" rx="2" ry="2"/><rect class="c c1n" x="786" y="82" rx="2" ry="2"/><rect class="c c1o" x="786" y="98" rx="2" ry="2"/><rect class="c c1p" x="802" y="2" rx="2" ry="2"/><rect class="c c1q" x="802" y="18" rx="2" ry="2"/><rect class="c c1r" x="802" y="34" rx="2" ry="2"/><rect class="c" x="802" y="50" rx="2" ry="2"/><rect class="c c1s" x="802" y="66" rx="2" ry="2"/><rect class="c c1t" x="802" y="82" rx="2" ry="2"/><rect class="c c1u" x="802" y="98" rx="2" ry="2"/><rect class="c c1v" x="818" y="2" rx="2" ry="2"/><rect class="c c1w" x="818" y="18" rx="2" ry="2"/><rect class="c c1x" x="818" y="34" rx="2" ry="2"/><rect class="c c1y" x="818" y="50" rx="2" ry="2"/><rect class="c c1z" x="818" y="66" rx="2" ry="2"/><rect class="c" x="818" y="82" rx="2" ry="2"/><rect class="c c20" x="818" y="98" rx="2" ry="2"/><rect class="c" x="834" y="2" rx="2" ry="2"/><rect class="u u0" height="12" width="674.4" x="0.0" y="144"/><rect class="u u1" height="12" width="93.5" x="673.8" y="144"/><rect class="u u2" height="12" width="58.7" x="766.7" y="144"/><rect class="u u3" height="12" width="23.8" x="824.8" y="144"/><rect class="s s0" x="0.8" y="0.8" width="14.4" height="14.4" rx="4.5" ry="4.5"/><rect class="s s1" x="1.8" y="1.8" width="12.3" height="12.3" rx="4.1" ry="4.1"/><rect class="s s2" x="2.6" y="2.6" width="10.8" height="10.8" rx="3.6" ry="3.6"/><rect class="s s3" x="3.0" y="3.0" width="9.9" height="9.9" rx="3.3" ry="3.3"/></svg>