<svg viewBox="-16 -32 880 192" width="880" height="192" xmlns="http://www.w3.org/2000/svg"><desc>Generated with https://github.com/Platane/snk</desc><style>:root{--cb:#1b1f230a;--cs:purple;--ce:#161b22;--c0:#161b22;--c1:#01311f;--c2:#034525;--c3:#0f6d31;--c4:#00c647}.c{shape-rendering:geometricPrecision;fill:var(--ce);stroke-width:1px;stroke:var(--cb);animation:none 24700ms linear infinite;width:12px;height:12px}@keyframes c0{12.54%{fill:var(--c1)}12.56%,100%{fill:var(--ce)}}.c.c0{fill:var(--c1);animation-name:c0}@keyframes c1{68.01%{fill:var(--c1)}68.03%,100%{fill:var(--ce)}}.c.c1{fill:var(--c1);animation-name:c1}@keyframes c2{68.41%{fill:var(--c1)}68.43%,100%{fill:var(--ce)}}.c.c2{fill:var(--c1);animation-name:c2}@keyframes c3{15.78%{fill:var(--c1)}15.8%,100%{fill:var(--ce)}}.c.c3{fill:var(--c1);animation-name:c3}@keyframes c4{65.98%{fill:var(--c1)}66%,100%{fill:var(--ce)}}.c.c4{fill:var(--c1);animation-name:c4}@keyframes c5{66.39%{fill:var(--c1)}66.41%,100%{fill:var(--ce)}}.c.c5{fill:var(--c1);animation-name:c5}@keyframes c6{20.64%{fill:var(--c1)}20.66%,100%{fill:var(--ce)}}.c.c6{fill:var(--c1);animation-name:c6}@keyframes c7{20.23%{fill:var(--c1)}20.25%,100%{fill:var(--ce)}}.c.c7{fill:var(--c1);animation-name:c7}@keyframes c8{19.83%{fill:var(--c1)}19.85%,100%{fill:var(--ce)}}.c.c8{fill:var(--c1);animation-name:c8}@keyframes c9{16.18%{fill:var(--c1)}16.2%,100%{fill:var(--ce)}}.c.c9{fill:var(--c1);animation-name:c9}@keyframes ca{22.26%{fill:var(--c1)}22.28%,100%{fill:var(--ce)}}.c.ca{fill:var(--c1);animation-name:ca}@keyframes cb{21.85%{fill:var(--c1)}21.87%,100%{fill:var(--ce)}}.c.cb{fill:var(--c1);animation-name:cb}@keyframes cc{21.45%{fill:var(--c1)}21.47%,100%{fill:var(--ce)}}.c.cc{fill:var(--c1);animation-name:cc}@keyframes cd{21.04%{fill:var(--c1)}21.06%,100%{fill:var(--ce)}}.c.cd{fill:var(--c1);animation-name:cd}@keyframes ce{16.59%{fill:var(--c1)}16.61%,100%{fill:var(--ce)}}.c.ce{fill:var(--c1);animation-name:ce}@keyframes cf{22.66%{fill:var(--c1)}22.68%,100%{fill:var(--ce)}}.c.cf{fill:var(--c1);animation-name:cf}@keyframes cg{19.02%{fill:var(--c1)}19.04%,100%{fill:var(--ce)}}.c.cg{fill:var(--c1);animation-name:cg}@keyframes ch{16.99%{fill:var(--c1)}17.01%,100%{fill:var(--ce)}}.c.ch{fill:var(--c1);animation-name:ch}@keyframes ci{24.69%{fill:var(--c1)}24.71%,100%{fill:var(--ce)}}.c.ci{fill:var(--c1);animation-name:ci}@keyframes cj{25.09%{fill:var(--c1)}25.11%,100%{fill:var(--ce)}}.c.cj{fill:var(--c1);animation-name:cj}@keyframes ck{70.84%{fill:var(--c2)}70.86%,100%{fill:var(--ce)}}.c.ck{fill:var(--c2);animation-name:ck}@keyframes cl{18.61%{fill:var(--c1)}18.63%,100%{fill:var(--ce)}}.c.cl{fill:var(--c1);animation-name:cl}@keyframes cm{17.4%{fill:var(--c1)}17.42%,100%{fill:var(--ce)}}.c.cm{fill:var(--c1);animation-name:cm}@keyframes cn{23.47%{fill:var(--c1)}23.49%,100%{fill:var(--ce)}}.c.cn{fill:var(--c1);animation-name:cn}@keyframes co{23.88%{fill:var(--c1)}23.9%,100%{fill:var(--ce)}}.c.co{fill:var(--c1);animation-name:co}@keyframes cp{24.28%{fill:var(--c1)}24.3%,100%{fill:var(--ce)}}.c.cp{fill:var(--c1);animation-name:cp}@keyframes cq{25.5%{fill:var(--c1)}25.52%,100%{fill:var(--ce)}}.c.cq{fill:var(--c1);animation-name:cq}@keyframes cr{18.21%{fill:var(--c1)}18.23%,100%{fill:var(--ce)}}.c.cr{fill:var(--c1);animation-name:cr}@keyframes cs{17.8%{fill:var(--c1)}17.82%,100%{fill:var(--ce)}}.c.cs{fill:var(--c1);animation-name:cs}@keyframes ct{25.9%{fill:var(--c1)}25.92%,100%{fill:var(--ce)}}.c.ct{fill:var(--c1);animation-name:ct}@keyframes cu{52.22%{fill:var(--c1)}52.24%,100%{fill:var(--ce)}}.c.cu{fill:var(--c1);animation-name:cu}@keyframes cv{26.71%{fill:var(--c1)}26.73%,100%{fill:var(--ce)}}.c.cv{fill:var(--c1);animation-name:cv}@keyframes cw{26.31%{fill:var(--c1)}26.33%,100%{fill:var(--ce)}}.c.cw{fill:var(--c1);animation-name:cw}@keyframes cx{51.81%{fill:var(--c1)}51.83%,100%{fill:var(--ce)}}.c.cx{fill:var(--c1);animation-name:cx}@keyframes cy{62.34%{fill:var(--c1)}62.36%,100%{fill:var(--ce)}}.c.cy{fill:var(--c1);animation-name:cy}@keyframes cz{27.93%{fill:var(--c1)}27.95%,100%{fill:var(--ce)}}.c.cz{fill:var(--c1);animation-name:cz}@keyframes c10{72.86%{fill:var(--c2)}72.88%,100%{fill:var(--ce)}}.c.c10{fill:var(--c2);animation-name:c10}@keyframes c11{50.6%{fill:var(--c1)}50.62%,100%{fill:var(--ce)}}.c.c11{fill:var(--c1);animation-name:c11}@keyframes c12{28.33%{fill:var(--c1)}28.35%,100%{fill:var(--ce)}}.c.c12{fill:var(--c1);animation-name:c12}@keyframes c13{42.1%{fill:var(--c1)}42.12%,100%{fill:var(--ce)}}.c.c13{fill:var(--c1);animation-name:c13}@keyframes c14{55.05%{fill:var(--c1)}55.07%,100%{fill:var(--ce)}}.c.c14{fill:var(--c1);animation-name:c14}@keyframes c15{41.29%{fill:var(--c1)}41.31%,100%{fill:var(--ce)}}.c.c15{fill:var(--c1);animation-name:c15}@keyframes c16{42.5%{fill:var(--c1)}42.52%,100%{fill:var(--ce)}}.c.c16{fill:var(--c1);animation-name:c16}@keyframes c17{49.38%{fill:var(--c1)}49.4%,100%{fill:var(--ce)}}.c.c17{fill:var(--c1);animation-name:c17}@keyframes c18{56.27%{fill:var(--c1)}56.29%,100%{fill:var(--ce)}}.c.c18{fill:var(--c1);animation-name:c18}@keyframes c19{55.86%{fill:var(--c1)}55.88%,100%{fill:var(--ce)}}.c.c19{fill:var(--c1);animation-name:c19}@keyframes c1a{29.14%{fill:var(--c1)}29.16%,100%{fill:var(--ce)}}.c.c1a{fill:var(--c1);animation-name:c1a}@keyframes c1b{40.88%{fill:var(--c1)}40.9%,100%{fill:var(--ce)}}.c.c1b{fill:var(--c1);animation-name:c1b}@keyframes c1c{42.9%{fill:var(--c1)}42.92%,100%{fill:var(--ce)}}.c.c1c{fill:var(--c1);animation-name:c1c}@keyframes c1d{48.98%{fill:var(--c1)}49%,100%{fill:var(--ce)}}.c.c1d{fill:var(--c1);animation-name:c1d}@keyframes c1e{56.67%{fill:var(--c1)}56.69%,100%{fill:var(--ce)}}.c.c1e{fill:var(--c1);animation-name:c1e}@keyframes c1f{30.35%{fill:var(--c1)}30.37%,100%{fill:var(--ce)}}.c.c1f{fill:var(--c1);animation-name:c1f}@keyframes c1g{29.54%{fill:var(--c1)}29.56%,100%{fill:var(--ce)}}.c.c1g{fill:var(--c1);animation-name:c1g}@keyframes c1h{40.48%{fill:var(--c1)}40.5%,100%{fill:var(--ce)}}.c.c1h{fill:var(--c1);animation-name:c1h}@keyframes c1i{43.31%{fill:var(--c1)}43.33%,100%{fill:var(--ce)}}.c.c1i{fill:var(--c1);animation-name:c1i}@keyframes c1j{48.57%{fill:var(--c1)}48.59%,100%{fill:var(--ce)}}.c.c1j{fill:var(--c1);animation-name:c1j}@keyframes c1k{30.76%{fill:var(--c1)}30.78%,100%{fill:var(--ce)}}.c.c1k{fill:var(--c1);animation-name:c1k}@keyframes c1l{43.71%{fill:var(--c1)}43.73%,100%{fill:var(--ce)}}.c.c1l{fill:var(--c1);animation-name:c1l}@keyframes c1m{31.16%{fill:var(--c1)}31.18%,100%{fill:var(--ce)}}.c.c1m{fill:var(--c1);animation-name:c1m}@keyframes c1n{44.12%{fill:var(--c1)}44.14%,100%{fill:var(--ce)}}.c.c1n{fill:var(--c1);animation-name:c1n}@keyframes c1o{47.76%{fill:var(--c1)}47.78%,100%{fill:var(--ce)}}.c.c1o{fill:var(--c1);animation-name:c1o}@keyframes c1p{57.88%{fill:var(--c1)}57.9%,100%{fill:var(--ce)}}.c.c1p{fill:var(--c1);animation-name:c1p}@keyframes c1q{77.72%{fill:var(--c2)}77.74%,100%{fill:var(--ce)}}.c.c1q{fill:var(--c2);animation-name:c1q}@keyframes c1r{76.51%{fill:var(--c2)}76.53%,100%{fill:var(--ce)}}.c.c1r{fill:var(--c2);animation-name:c1r}@keyframes c1s{39.26%{fill:var(--c1)}39.28%,100%{fill:var(--ce)}}.c.c1s{fill:var(--c1);animation-name:c1s}@keyframes c1t{44.52%{fill:var(--c1)}44.54%,100%{fill:var(--ce)}}.c.c1t{fill:var(--c1);animation-name:c1t}@keyframes c1u{47.36%{fill:var(--c1)}47.38%,100%{fill:var(--ce)}}.c.c1u{fill:var(--c1);animation-name:c1u}@keyframes c1v{58.29%{fill:var(--c1)}58.31%,100%{fill:var(--ce)}}.c.c1v{fill:var(--c1);animation-name:c1v}@keyframes c1w{77.32%{fill:var(--c2)}77.34%,100%{fill:var(--ce)}}.c.c1w{fill:var(--c2);animation-name:c1w}@keyframes c1x{76.91%{fill:var(--c2)}76.93%,100%{fill:var(--ce)}}.c.c1x{fill:var(--c2);animation-name:c1x}@keyframes c1y{32.78%{fill:var(--c1)}32.8%,100%{fill:var(--ce)}}.c.c1y{fill:var(--c1);animation-name:c1y}@keyframes c1z{38.86%{fill:var(--c1)}38.88%,100%{fill:var(--ce)}}.c.c1z{fill:var(--c1);animation-name:c1z}@keyframes c20{46.95%{fill:var(--c1)}46.97%,100%{fill:var(--ce)}}.c.c20{fill:var(--c1);animation-name:c20}@keyframes c21{78.94%{fill:var(--c4)}78.96%,100%{fill:var(--ce)}}.c.c21{fill:var(--c4);animation-name:c21}@keyframes c22{36.43%{fill:var(--c1)}36.45%,100%{fill:var(--ce)}}.c.c22{fill:var(--c1);animation-name:c22}@keyframes c23{36.83%{fill:var(--c1)}36.85%,100%{fill:var(--ce)}}.c.c23{fill:var(--c1);animation-name:c23}@keyframes c24{33.19%{fill:var(--c1)}33.21%,100%{fill:var(--ce)}}.c.c24{fill:var(--c1);animation-name:c24}@keyframes c25{38.45%{fill:var(--c1)}38.47%,100%{fill:var(--ce)}}.c.c25{fill:var(--c1);animation-name:c25}@keyframes c26{46.55%{fill:var(--c1)}46.57%,100%{fill:var(--ce)}}.c.c26{fill:var(--c1);animation-name:c26}@keyframes c27{35.62%{fill:var(--c1)}35.64%,100%{fill:var(--ce)}}.c.c27{fill:var(--c1);animation-name:c27}@keyframes c28{36.02%{fill:var(--c1)}36.04%,100%{fill:var(--ce)}}.c.c28{fill:var(--c1);animation-name:c28}@keyframes c29{37.24%{fill:var(--c1)}37.26%,100%{fill:var(--ce)}}.c.c29{fill:var(--c1);animation-name:c29}@keyframes c2a{33.59%{fill:var(--c1)}33.61%,100%{fill:var(--ce)}}.c.c2a{fill:var(--c1);animation-name:c2a}@keyframes c2b{38.05%{fill:var(--c1)}38.07%,100%{fill:var(--ce)}}.c.c2b{fill:var(--c1);animation-name:c2b}@keyframes c2c{45.74%{fill:var(--c1)}45.76%,100%{fill:var(--ce)}}.c.c2c{fill:var(--c1);animation-name:c2c}@keyframes c2d{46.14%{fill:var(--c1)}46.16%,100%{fill:var(--ce)}}.c.c2d{fill:var(--c1);animation-name:c2d}@keyframes c2e{35.21%{fill:var(--c1)}35.23%,100%{fill:var(--ce)}}.c.c2e{fill:var(--c1);animation-name:c2e}@keyframes c2f{34.81%{fill:var(--c1)}34.83%,100%{fill:var(--ce)}}.c.c2f{fill:var(--c1);animation-name:c2f}@keyframes c2g{34.4%{fill:var(--c1)}34.42%,100%{fill:var(--ce)}}.c.c2g{fill:var(--c1);animation-name:c2g}@keyframes c2h{34%{fill:var(--c1)}34.02%,100%{fill:var(--ce)}}.c.c2h{fill:var(--c1);animation-name:c2h}.u{transform-origin:0 0;transform:scale(0,1);animation:none linear 24700ms infinite}@keyframes u0{12.54%{transform:scale(0.000,1)}12.56%,15.78%{transform:scale(0.012,1)}15.8%,16.18%{transform:scale(0.024,1)}16.2%,16.59%{transform:scale(0.036,1)}16.61%,16.99%{transform:scale(0.048,1)}17.01%,17.4%{transform:scale(0.060,1)}17.42%,17.8%{transform:scale(0.072,1)}17.82%,18.21%{transform:scale(0.084,1)}18.23%,18.61%{transform:scale(0.096,1)}18.63%,19.02%{transform:scale(0.108,1)}19.04%,19.83%{transform:scale(0.120,1)}19.85%,20.23%{transform:scale(0.133,1)}20.25%,20.64%{transform:scale(0.145,1)}20.66%,21.04%{transform:scale(0.157,1)}21.06%,21.45%{transform:scale(0.169,1)}21.47%,21.85%{transform:scale(0.181,1)}21.87%,22.26%{transform:scale(0.193,1)}22.28%,22.66%{transform:scale(0.205,1)}22.68%,23.47%{transform:scale(0.217,1)}23.49%,23.88%{transform:scale(0.229,1)}23.9%,24.28%{transform:scale(0.241,1)}24.3%,24.69%{transform:scale(0.253,1)}24.71%,25.09%{transform:scale(0.265,1)}25.11%,25.5%{transform:scale(0.277,1)}25.52%,25.9%{transform:scale(0.289,1)}25.92%,26.31%{transform:scale(0.301,1)}26.33%,26.71%{transform:scale(0.313,1)}26.73%,27.93%{transform:scale(0.325,1)}27.95%,28.33%{transform:scale(0.337,1)}28.35%,29.14%{transform:scale(0.349,1)}29.16%,29.54%{transform:scale(0.361,1)}29.56%,30.35%{transform:scale(0.373,1)}30.37%,30.76%{transform:scale(0.386,1)}30.78%,31.16%{transform:scale(0.398,1)}31.18%,32.78%{transform:scale(0.410,1)}32.8%,33.19%{transform:scale(0.422,1)}33.21%,33.59%{transform:scale(0.434,1)}33.61%,34%{transform:scale(0.446,1)}34.02%,34.4%{transform:scale(0.458,1)}34.42%,34.81%{transform:scale(0.470,1)}34.83%,35.21%{transform:scale(0.482,1)}35.23%,35.62%{transform:scale(0.494,1)}35.64%,36.02%{transform:scale(0.506,1)}36.04%,36.43%{transform:scale(0.518,1)}36.45%,36.83%{transform:scale(0.530,1)}36.85%,37.24%{transform:scale(0.542,1)}37.26%,38.05%{transform:scale(0.554,1)}38.07%,38.45%{transform:scale(0.566,1)}38.47%,38.86%{transform:scale(0.578,1)}38.88%,39.26%{transform:scale(0.590,1)}39.28%,40.48%{transform:scale(0.602,1)}40.5%,40.88%{transform:scale(0.614,1)}40.9%,41.29%{transform:scale(0.627,1)}41.31%,42.1%{transform:scale(0.639,1)}42.12%,42.5%{transform:scale(0.651,1)}42.52%,42.9%{transform:scale(0.663,1)}42.92%,43.31%{transform:scale(0.675,1)}43.33%,43.71%{transform:scale(0.687,1)}43.73%,44.12%{transform:scale(0.699,1)}44.14%,44.52%{transform:scale(0.711,1)}44.54%,45.74%{transform:scale(0.723,1)}45.76%,46.14%{transform:scale(0.735,1)}46.16%,46.55%{transform:scale(0.747,1)}46.57%,46.95%{transform:scale(0.759,1)}46.97%,47.36%{transform:scale(0.771,1)}47.38%,47.76%{transform:scale(0.783,1)}47.78%,48.57%{transform:scale(0.795,1)}48.59%,48.98%{transform:scale(0.807,1)}49%,49.38%{transform:scale(0.819,1)}49.4%,50.6%{transform:scale(0.831,1)}50.62%,51.81%{transform:scale(0.843,1)}51.83%,52.22%{transform:scale(0.855,1)}52.24%,55.05%{transform:scale(0.867,1)}55.07%,55.86%{transform:scale(0.880,1)}55.88%,56.27%{transform:scale(0.892,1)}56.29%,56.67%{transform:scale(0.904,1)}56.69%,57.88%{transform:scale(0.916,1)}57.9%,58.29%{transform:scale(0.928,1)}58.31%,62.34%{transform:scale(0.940,1)}62.36%,65.98%{transform:scale(0.952,1)}66%,66.39%{transform:scale(0.964,1)}66.41%,68.01%{transform:scale(0.976,1)}68.03%,68.41%{transform:scale(0.988,1)}68.43%,100%{transform:scale(1.000,1)}}.u.u0{fill:var(--c1);animation-name:u0;transform-origin:0.0px 0}@keyframes u1{70.84%{transform:scale(0.000,1)}70.86%,72.86%{transform:scale(0.167,1)}72.88%,76.51%{transform:scale(0.333,1)}76.53%,76.91%{transform:scale(0.500,1)}76.93%,77.32%{transform:scale(0.667,1)}77.34%,77.72%{transform:scale(0.833,1)}77.74%,100%{transform:scale(1.000,1)}}.u.u1{fill:var(--c2);animation-name:u1;transform-origin:782.0px 0}@keyframes u2{78.94%{transform:scale(0.000,1)}78.96%,100%{transform:scale(1.000,1)}}.u.u2{fill:var(--c4);animation-name:u2;transform-origin:838.6px 0}.s{shape-rendering:geometricPrecision;fill:var(--cs);animation:none linear 24700ms infinite}@keyframes s0{0%,99.6%{transform:translate(0px,-16px)}0.4%{transform:translate(0px,0px)}10.12%{transform:translate(384px,0px)}12.55%{transform:translate(384px,96px)}17.81%{transform:translate(592px,96px)}18.22%{transform:translate(592px,80px)}19.84%{transform:translate(528px,80px)}20.65%{transform:translate(528px,48px)}21.05%{transform:translate(544px,48px)}22.27%{transform:translate(544px,0px)}23.48%{transform:translate(592px,0px)}24.29%{transform:translate(592px,32px)}24.7%{transform:translate(576px,32px)}25.1%{transform:translate(576px,48px)}26.32%{transform:translate(624px,48px)}26.72%{transform:translate(624px,32px)}27.53%{transform:translate(656px,32px)}27.94%{transform:translate(656px,48px)}29.55%{transform:translate(720px,48px)}30.36%{transform:translate(720px,16px)}31.17%{transform:translate(752px,16px)}31.98%{transform:translate(752px,48px)}34.01%{transform:translate(832px,48px)}35.22%{transform:translate(832px,0px)}35.63%{transform:translate(816px,0px)}36.03%{transform:translate(816px,16px)}36.44%{transform:translate(800px,16px)}36.84%{transform:translate(800px,32px)}37.25%{transform:translate(816px,32px)}38.06%{transform:translate(816px,64px)}41.7%{transform:translate(672px,64px)}42.11%{transform:translate(672px,80px)}45.75%{transform:translate(816px,80px)}46.15%{transform:translate(816px,96px)}49.39%{transform:translate(688px,96px)}49.8%{transform:translate(688px,80px)}51.01%{transform:translate(640px,80px)}51.42%{transform:translate(640px,64px)}52.23%{transform:translate(608px,64px)}52.63%{transform:translate(608px,48px)}54.66%{transform:translate(688px,48px)}55.06%{transform:translate(688px,32px)}55.47%{transform:translate(704px,32px)}56.28%{transform:translate(704px,0px)}58.3%{transform:translate(784px,0px)}58.7%{transform:translate(784px,-16px)}61.94%{transform:translate(656px,-16px)}62.35%{transform:translate(656px,0px)}65.59%{transform:translate(528px,0px)}66.4%{transform:translate(528px,32px)}67.21%{transform:translate(496px,32px)}68.42%{transform:translate(496px,80px)}70.45%{transform:translate(576px,80px)}70.85%{transform:translate(576px,64px)}75.71%{transform:translate(768px,64px)}76.52%{transform:translate(768px,32px)}76.92%{transform:translate(784px,32px)}77.33%{transform:translate(784px,16px)}77.73%{transform:translate(768px,16px)}78.14%{transform:translate(768px,0px)}78.95%{transform:translate(800px,0px)}79.35%{transform:translate(800px,-16px)}}.s.s0{transform:translate(0px,-16px);animation-name:s0}@keyframes s1{0%,99.6%{transform:translate(16px,-16px)}0.4%{transform:translate(0px,-16px)}0.81%{transform:translate(0px,0px)}10.53%{transform:translate(384px,0px)}12.96%{transform:translate(384px,96px)}18.22%{transform:translate(592px,96px)}18.62%{transform:translate(592px,80px)}20.24%{transform:translate(528px,80px)}21.05%{transform:translate(528px,48px)}21.46%{transform:translate(544px,48px)}22.67%{transform:translate(544px,0px)}23.89%{transform:translate(592px,0px)}24.7%{transform:translate(592px,32px)}25.1%{transform:translate(576px,32px)}25.51%{transform:translate(576px,48px)}26.72%{transform:translate(624px,48px)}27.13%{transform:translate(624px,32px)}27.94%{transform:translate(656px,32px)}28.34%{transform:translate(656px,48px)}29.96%{transform:translate(720px,48px)}30.77%{transform:translate(720px,16px)}31.58%{transform:translate(752px,16px)}32.39%{transform:translate(752px,48px)}34.41%{transform:translate(832px,48px)}35.63%{transform:translate(832px,0px)}36.03%{transform:translate(816px,0px)}36.44%{transform:translate(816px,16px)}36.84%{transform:translate(800px,16px)}37.25%{transform:translate(800px,32px)}37.65%{transform:translate(816px,32px)}38.46%{transform:translate(816px,64px)}42.11%{transform:translate(672px,64px)}42.51%{transform:translate(672px,80px)}46.15%{transform:translate(816px,80px)}46.56%{transform:translate(816px,96px)}49.8%{transform:translate(688px,96px)}50.2%{transform:translate(688px,80px)}51.42%{transform:translate(640px,80px)}51.82%{transform:translate(640px,64px)}52.63%{transform:translate(608px,64px)}53.04%{transform:translate(608px,48px)}55.06%{transform:translate(688px,48px)}55.47%{transform:translate(688px,32px)}55.87%{transform:translate(704px,32px)}56.68%{transform:translate(704px,0px)}58.7%{transform:translate(784px,0px)}59.11%{transform:translate(784px,-16px)}62.35%{transform:translate(656px,-16px)}62.75%{transform:translate(656px,0px)}65.99%{transform:translate(528px,0px)}66.8%{transform:translate(528px,32px)}67.61%{transform:translate(496px,32px)}68.83%{transform:translate(496px,80px)}70.85%{transform:translate(576px,80px)}71.26%{transform:translate(576px,64px)}76.11%{transform:translate(768px,64px)}76.92%{transform:translate(768px,32px)}77.33%{transform:translate(784px,32px)}77.73%{transform:translate(784px,16px)}78.14%{transform:translate(768px,16px)}78.54%{transform:translate(768px,0px)}79.35%{transform:translate(800px,0px)}79.76%{transform:translate(800px,-16px)}}.s.s1{transform:translate(16px,-16px);animation-name:s1}@keyframes s2{0%,99.6%{transform:translate(32px,-16px)}0.81%{transform:translate(0px,-16px)}1.21%{transform:translate(0px,0px)}10.93%{transform:translate(384px,0px)}13.36%{transform:translate(384px,96px)}18.62%{transform:translate(592px,96px)}19.03%{transform:translate(592px,80px)}20.65%{transform:translate(528px,80px)}21.46%{transform:translate(528px,48px)}21.86%{transform:translate(544px,48px)}23.08%{transform:translate(544px,0px)}24.29%{transform:translate(592px,0px)}25.1%{transform:translate(592px,32px)}25.51%{transform:translate(576px,32px)}25.91%{transform:translate(576px,48px)}27.13%{transform:translate(624px,48px)}27.53%{transform:translate(624px,32px)}28.34%{transform:translate(656px,32px)}28.74%{transform:translate(656px,48px)}30.36%{transform:translate(720px,48px)}31.17%{transform:translate(720px,16px)}31.98%{transform:translate(752px,16px)}32.79%{transform:translate(752px,48px)}34.82%{transform:translate(832px,48px)}36.03%{transform:translate(832px,0px)}36.44%{transform:translate(816px,0px)}36.84%{transform:translate(816px,16px)}37.25%{transform:translate(800px,16px)}37.65%{transform:translate(800px,32px)}38.06%{transform:translate(816px,32px)}38.87%{transform:translate(816px,64px)}42.51%{transform:translate(672px,64px)}42.91%{transform:translate(672px,80px)}46.56%{transform:translate(816px,80px)}46.96%{transform:translate(816px,96px)}50.2%{transform:translate(688px,96px)}50.61%{transform:translate(688px,80px)}51.82%{transform:translate(640px,80px)}52.23%{transform:translate(640px,64px)}53.04%{transform:translate(608px,64px)}53.44%{transform:translate(608px,48px)}55.47%{transform:translate(688px,48px)}55.87%{transform:translate(688px,32px)}56.28%{transform:translate(704px,32px)}57.09%{transform:translate(704px,0px)}59.11%{transform:translate(784px,0px)}59.51%{transform:translate(784px,-16px)}62.75%{transform:translate(656px,-16px)}63.16%{transform:translate(656px,0px)}66.4%{transform:translate(528px,0px)}67.21%{transform:translate(528px,32px)}68.02%{transform:translate(496px,32px)}69.23%{transform:translate(496px,80px)}71.26%{transform:translate(576px,80px)}71.66%{transform:translate(576px,64px)}76.52%{transform:translate(768px,64px)}77.33%{transform:translate(768px,32px)}77.73%{transform:translate(784px,32px)}78.14%{transform:translate(784px,16px)}78.54%{transform:translate(768px,16px)}78.95%{transform:translate(768px,0px)}79.76%{transform:translate(800px,0px)}80.16%{transform:translate(800px,-16px)}}.s.s2{transform:translate(32px,-16px);animation-name:s2}@keyframes s3{0%,99.6%{transform:translate(48px,-16px)}1.21%{transform:translate(0px,-16px)}1.62%{transform:translate(0px,0px)}11.34%{transform:translate(384px,0px)}13.77%{transform:translate(384px,96px)}19.03%{transform:translate(592px,96px)}19.43%{transform:translate(592px,80px)}21.05%{transform:translate(528px,80px)}21.86%{transform:translate(528px,48px)}22.27%{transform:translate(544px,48px)}23.48%{transform:translate(544px,0px)}24.7%{transform:translate(592px,0px)}25.51%{transform:translate(592px,32px)}25.91%{transform:translate(576px,32px)}26.32%{transform:translate(576px,48px)}27.53%{transform:translate(624px,48px)}27.94%{transform:translate(624px,32px)}28.74%{transform:translate(656px,32px)}29.15%{transform:translate(656px,48px)}30.77%{transform:translate(720px,48px)}31.58%{transform:translate(720px,16px)}32.39%{transform:translate(752px,16px)}33.2%{transform:translate(752px,48px)}35.22%{transform:translate(832px,48px)}36.44%{transform:translate(832px,0px)}36.84%{transform:translate(816px,0px)}37.25%{transform:translate(816px,16px)}37.65%{transform:translate(800px,16px)}38.06%{transform:translate(800px,32px)}38.46%{transform:translate(816px,32px)}39.27%{transform:translate(816px,64px)}42.91%{transform:translate(672px,64px)}43.32%{transform:translate(672px,80px)}46.96%{transform:translate(816px,80px)}47.37%{transform:translate(816px,96px)}50.61%{transform:translate(688px,96px)}51.01%{transform:translate(688px,80px)}52.23%{transform:translate(640px,80px)}52.63%{transform:translate(640px,64px)}53.44%{transform:translate(608px,64px)}53.85%{transform:translate(608px,48px)}55.87%{transform:translate(688px,48px)}56.28%{transform:translate(688px,32px)}56.68%{transform:translate(704px,32px)}57.49%{transform:translate(704px,0px)}59.51%{transform:translate(784px,0px)}59.92%{transform:translate(784px,-16px)}63.16%{transform:translate(656px,-16px)}63.56%{transform:translate(656px,0px)}66.8%{transform:translate(528px,0px)}67.61%{transform:translate(528px,32px)}68.42%{transform:translate(496px,32px)}69.64%{transform:translate(496px,80px)}71.66%{transform:translate(576px,80px)}72.06%{transform:translate(576px,64px)}76.92%{transform:translate(768px,64px)}77.73%{transform:translate(768px,32px)}78.14%{transform:translate(784px,32px)}78.54%{transform:translate(784px,16px)}78.95%{transform:translate(768px,16px)}79.35%{transform:translate(768px,0px)}80.16%{transform:translate(800px,0px)}80.57%{transform:translate(800px,-16px)}}.s.s3{transform:translate(48px,-16px);animation-name:s3}</style><rect class="c" x="2" y="2" rx="2" ry="2"/><rect class="c" x="2" y="18" rx="2" ry="2"/><rect class="c" x="2" y="34" rx="2" ry="2"/><rect class="c" x="2" y="50" rx="2" ry="2"/><rect class="c" x="2" y="66" rx="2" ry="2"/><rect class="c" x="2" y="82" rx="2" ry="2"/><rect class="c" x="2" y="98" rx="2" ry="2"/><rect class="c" x="18" y="2" rx="2" ry="2"/><rect class="c" x="18" y="18" rx="2" ry="2"/><rect class="c" x="18" y="34" rx="2" ry="2"/><rect class="c" x="18" y="50" rx="2" ry="2"/><rect class="c" x="18" y="66" rx="2" ry="2"/><rect class="c" x="18" y="82" rx="2" ry="2"/><rect class="c" x="18" y="98" rx="2" ry="2"/><rect class="c" x="34" y="2" rx="2" ry="2"/><rect class="c" x="34" y="18" rx="2" ry="2"/><rect class="c" x="34" y="34" rx="2" ry="2"/><rect class="c" x="34" y="50" rx="2" ry="2"/><rect class="c" x="34" y="66" rx="2" ry="2"/><rect class="c" x="34" y="82" rx="2" ry="2"/><rect class="c" x="34" y="98" rx="2" ry="2"/><rect class="c" x="50" y="2" rx="2" ry="2"/><rect class="c" x="50" y="18" rx="2" ry="2"/><rect class="c" x="50" y="34" rx="2" ry="2"/><rect class="c" x="50" y="50" rx="2" ry="2"/><rect class="c" x="50" y="66" rx="2" ry="2"/><rect class="c" x="50" y="82" rx="2" ry="2"/><rect class="c" x="50" y="98" rx="2" ry="2"/><rect class="c" x="66" y="2" rx="2" ry="2"/><rect class="c" x="66" y="18" rx="2" ry="2"/><rect class="c" x="66" y="34" rx="2" ry="2"/><rect class="c" x="66" y="50" rx="2" ry="2"/><rect class="c" x="66" y="66" rx="2" ry="2"/><rect class="c" x="66" y="82" rx="2" ry="2"/><rect class="c" x="66" y="98" rx="2" ry="2"/><rect class="c" x="82" y="2" rx="2" ry="2"/><rect class="c" x="82" y="18" rx="2" ry="2"/><rect class="c" x="82" y="34" rx="2" ry="2"/><rect class="c" x="82" y="50" rx="2" ry="2"/><rect class="c" x="82" y="66" rx="2" ry="2"/><rect class="c" x="82" y="82" rx="2" ry="2"/><rect class="c" x="82" y="98" rx="2" ry="2"/><rect class="c" x="98" y="2" rx="2" ry="2"/><rect class="c" x="98" y="18" rx="2" ry="2"/><rect class="c" x="98" y="34" rx="2" ry="2"/><rect class="c" x="98" y="50" rx="2" ry="2"/><rect class="c" x="98" y="66" rx="2" ry="2"/><rect class="c" x="98" y="82" rx="2" ry="2"/><rect class="c" x="98" y="98" rx="2" ry="2"/><rect class="c" x="114" y="2" rx="2" ry="2"/><rect class="c" x="114" y="18" rx="2" ry="2"/><rect class="c" x="114" y="34" rx="2" ry="2"/><rect class="c" x="114" y="50" rx="2" ry="2"/><rect class="c" x="114" y="66" rx="2" ry="2"/><rect class="c" x="114" y="82" rx="2" ry="2"/><rect class="c" x="114" y="98" rx="2" ry="2"/><rect class="c" x="130" y="2" rx="2" ry="2"/><rect class="c" x="130" y="18" rx="2" ry="2"/><rect class="c" x="130" y="34" rx="2" ry="2"/><rect class="c" x="130" y="50" rx="2" ry="2"/><rect class="c" x="130" y="66" rx="2" ry="2"/><rect class="c" x="130" y="82" rx="2" ry="2"/><rect class="c" x="130" y="98" rx="2" ry="2"/><rect class="c" x="146" y="2" rx="2" ry="2"/><rect class="c" x="146" y="18" rx="2" ry="2"/><rect class="c" x="146" y="34" rx="2" ry="2"/><rect class="c" x="146" y="50" rx="2" ry="2"/><rect class="c" x="146" y="66" rx="2" ry="2"/><rect class="c" x="146" y="82" rx="2" ry="2"/><rect class="c" x="146" y="98" rx="2" ry="2"/><rect class="c" x="162" y="2" rx="2" ry="2"/><rect class="c" x="162" y="18" rx="2" ry="2"/><rect class="c" x="162" y="34" rx="2" ry="2"/><rect class="c" x="162" y="50" rx="2" ry="2"/><rect class="c" x="162" y="66" rx="2" ry="2"/><rect class="c" x="162" y="82" rx="2" ry="2"/><rect class="c" x="162" y="98" rx="2" ry="2"/><rect class="c" x="178" y="2" rx="2" ry="2"/><rect class="c" x="178" y="18" rx="2" ry="2"/><rect class="c" x="178" y="34" rx="2" ry="2"/><rect class="c" x="178" y="50" rx="2" ry="2"/><rect class="c" x="178" y="66" rx="2" ry="2"/><rect class="c" x="178" y="82" rx="2" ry="2"/><rect class="c" x="178" y="98" rx="2" ry="2"/><rect class="c" x="194" y="2" rx="2" ry="2"/><rect class="c" x="194" y="18" rx="2" ry="2"/><rect class="c" x="194" y="34" rx="2" ry="2"/><rect class="c" x="194" y="50" rx="2" ry="2"/><rect class="c" x="194" y="66" rx="2" ry="2"/><rect class="c" x="194" y="82" rx="2" ry="2"/><rect class="c" x="194" y="98" rx="2" ry="2"/><rect class="c" x="210" y="2" rx="2" ry="2"/><rect class="c" x="210" y="18" rx="2" ry="2"/><rect class="c" x="210" y="34" rx="2" ry="2"/><rect class="c" x="210" y="50" rx="2" ry="2"/><rect class="c" x="210" y="66" rx="2" ry="2"/><rect class="c" x="210" y="82" rx="2" ry="2"/><rect class="c" x="210" y="98" rx="2" ry="2"/><rect class="c" x="226" y="2" rx="2" ry="2"/><rect class="c" x="226" y="18" rx="2" ry="2"/><rect class="c" x="226" y="34" rx="2" ry="2"/><rect class="c" x="226" y="50" rx="2" ry="2"/><rect class="c" x="226" y="66" rx="2" ry="2"/><rect class="c" x="226" y="82" rx="2" ry="2"/><rect class="c" x="226" y="98" rx="2" ry="2"/><rect class="c" x="242" y="2" rx="2" ry="2"/><rect class="c" x="242" y="18" rx="2" ry="2"/><rect class="c" x="242" y="34" rx="2" ry="2"/><rect class="c" x="242" y="50" rx="2" ry="2"/><rect class="c" x="242" y="66" rx="2" ry="2"/><rect class="c" x="242" y="82" rx="2" ry="2"/><rect class="c" x="242" y="98" rx="2" ry="2"/><rect class="c" x="258" y="2" rx="2" ry="2"/><rect class="c" x="258" y="18" rx="2" ry="2"/><rect class="c" x="258" y="34" rx="2" ry="2"/><rect class="c" x="258" y="50" rx="2" ry="2"/><rect class="c" x="258" y="66" rx="2" ry="2"/><rect class="c" x="258" y="82" rx="2" ry="2"/><rect class="c" x="258" y="98" rx="2" ry="2"/><rect class="c" x="274" y="2" rx="2" ry="2"/><rect class="c" x="274" y="18" rx="2" ry="2"/><rect class="c" x="274" y="34" rx="2" ry="2"/><rect class="c" x="274" y="50" rx="2" ry="2"/><rect class="c" x="274" y="66" rx="2" ry="2"/><rect class="c" x="274" y="82" rx="2" ry="2"/><rect class="c" x="274" y="98" rx="2" ry="2"/><rect class="c" x="290" y="2" rx="2" ry="2"/><rect class="c" x="290" y="18" rx="2" ry="2"/><rect class="c" x="290" y="34" rx="2" ry="2"/><rect class="c" x="290" y="50" rx="2" ry="2"/><rect class="c" x="290" y="66" rx="2" ry="2"/><rect class="c" x="290" y="82" rx="2" ry="2"/><rect class="c" x="290" y="98" rx="2" ry="2"/><rect class="c" x="306" y="2" rx="2" ry="2"/><rect class="c" x="306" y="18" rx="2" ry="2"/><rect class="c" x="306" y="34" rx="2" ry="2"/><rect class="c" x="306" y="50" rx="2" ry="2"/><rect class="c" x="306" y="66" rx="2" ry="2"/><rect class="c" x="306" y="82" rx="2" ry="2"/><rect class="c" x="306" y="98" rx="2" ry="2"/><rect class="c" x="322" y="2" rx="2" ry="2"/><rect class="c" x="322" y="18" rx="2" ry="2"/><rect class="c" x="322" y="34" rx="2" ry="2"/><rect class="c" x="322" y="50" rx="2" ry="2"/><rect class="c" x="322" y="66" rx="2" ry="2"/><rect class="c" x="322" y="82" rx="2" ry="2"/><rect class="c" x="322" y="98" rx="2" ry="2"/><rect class="c" x="338" y="2" rx="2" ry="2"/><rect class="c" x="338" y="18" rx="2" ry="2"/><rect class="c" x="338" y="34" rx="2" ry="2"/><rect class="c" x="338" y="50" rx="2" ry="2"/><rect class="c" x="338" y="66" rx="2" ry="2"/><rect class="c" x="338" y="82" rx="2" ry="2"/><rect class="c" x="338" y="98" rx="2" ry="2"/><rect class="c" x="354" y="2" rx="2" ry="2"/><rect class="c" x="354" y="18" rx="2" ry="2"/><rect class="c" x="354" y="34" rx="2" ry="2"/><rect class="c" x="354" y="50" rx="2" ry="2"/><rect class="c" x="354" y="66" rx="2" ry="2"/><rect class="c" x="354" y="82" rx="2" ry="2"/><rect class="c" x="354" y="98" rx="2" ry="2"/><rect class="c" x="370" y="2" rx="2" ry="2"/><rect class="c" x="370" y="18" rx="2" ry="2"/><rect class="c" x="370" y="34" rx="2" ry="2"/><rect class="c" x="370" y="50" rx="2" ry="2"/><rect class="c" x="370" y="66" rx="2" ry="2"/><rect class="c" x="370" y="82" rx="2" ry="2"/><rect class="c" x="370" y="98" rx="2" ry="2"/><rect class="c" x="386" y="2" rx="2" ry="2"/><rect class="c" x="386" y="18" rx="2" ry="2"/><rect class="c" x="386" y="34" rx="2" ry="2"/><rect class="c" x="386" y="50" rx="2" ry="2"/><rect class="c" x="386" y="66" rx="2" ry="2"/><rect class="c" x="386" y="82" rx="2" ry="2"/><rect class="c c0" x="386" y="98" rx="2" ry="2"/><rect class="c" x="402" y="2" rx="2" ry="2"/><rect class="c" x="402" y="18" rx="2" ry="2"/><rect class="c" x="402" y="34" rx="2" ry="2"/><rect class="c" x="402" y="50" rx="2" ry="2"/><rect class="c" x="402" y="66" rx="2" ry="2"/><rect class="c" x="402" y="82" rx="2" ry="2"/><rect class="c" x="402" y="98" rx="2" ry="2"/><rect class="c" x="418" y="2" rx="2" ry="2"/><rect class="c" x="418" y="18" rx="2" ry="2"/><rect class="c" x="418" y="34" rx="2" ry="2"/><rect class="c" x="418" y="50" rx="2" ry="2"/><rect class="c" x="418" y="66" rx="2" ry="2"/><rect class="c" x="418" y="82" rx="2" ry="2"/><rect class="c" x="418" y="98" rx="2" ry="2"/><rect class="c" x="434" y="2" rx="2" ry="2"/><rect class="c" x="434" y="18" rx="2" ry="2"/><rect class="c" x="434" y="34" rx="2" ry="2"/><rect class="c" x="434" y="50" rx="2" ry="2"/><rect class="c" x="434" y="66" rx="2" ry="2"/><rect class="c" x="434" y="82" rx="2" ry="2"/><rect class="c" x="434" y="98" rx="2" ry="2"/><rect class="c" x="450" y="2" rx="2" ry="2"/><rect class="c" x="450" y="18" rx="2" ry="2"/><rect class="c" x="450" y="34" rx="2" ry="2"/><rect class="c" x="450" y="50" rx="2" ry="2"/><rect class="c" x="450" y="66" rx="2" ry="2"/><rect class="c" x="450" y="82" rx="2" ry="2"/><rect class="c" x="450" y="98" rx="2" ry="2"/><rect class="c" x="466" y="2" rx="2" ry="2"/><rect class="c" x="466" y="18" rx="2" ry="2"/><rect class="c" x="466" y="34" rx="2" ry="2"/><rect class="c" x="466" y="50" rx="2" ry="2"/><rect class="c" x="466" y="66" rx="2" ry="2"/><rect class="c" x="466" y="82" rx="2" ry="2"/><rect class="c" x="466" y="98" rx="2" ry="2"/><rect class="c" x="482" y="2" rx="2" ry="2"/><rect class="c" x="482" y="18" rx="2" ry="2"/><rect class="c" x="482" y="34" rx="2" ry="2"/><rect class="c" x="482" y="50" rx="2" ry="2"/><rect class="c" x="482" y="66" rx="2" ry="2"/><rect class="c" x="482" y="82" rx="2" ry="2"/><rect class="c" x="482" y="98" rx="2" ry="2"/><rect class="c" x="498" y="2" rx="2" ry="2"/><rect class="c" x="498" y="18" rx="2" ry="2"/><rect class="c" x="498" y="34" rx="2" ry="2"/><rect class="c" x="498" y="50" rx="2" ry="2"/><rect class="c c1" x="498" y="66" rx="2" ry="2"/><rect class="c c2" x="498" y="82" rx="2" ry="2"/><rect class="c" x="498" y="98" rx="2" ry="2"/><rect class="c" x="514" y="2" rx="2" ry="2"/><rect class="c" x="514" y="18" rx="2" ry="2"/><rect class="c" x="514" y="34" rx="2" ry="2"/><rect class="c" x="514" y="50" rx="2" ry="2"/><rect class="c" x="514" y="66" rx="2" ry="2"/><rect class="c" x="514" y="82" rx="2" ry="2"/><rect class="c c3" x="514" y="98" rx="2" ry="2"/><rect class="c" x="530" y="2" rx="2" ry="2"/><rect class="c c4" x="530" y="18" rx="2" ry="2"/><rect class="c c5" x="530" y="34" rx="2" ry="2"/><rect class="c c6" x="530" y="50" rx="2" ry="2"/><rect class="c c7" x="530" y="66" rx="2" ry="2"/><rect class="c c8" x="530" y="82" rx="2" ry="2"/><rect class="c c9" x="530" y="98" rx="2" ry="2"/><rect class="c ca" x="546" y="2" rx="2" ry="2"/><rect class="c cb" x="546" y="18" rx="2" ry="2"/><rect class="c cc" x="546" y="34" rx="2" ry="2"/><rect class="c cd" x="546" y="50" rx="2" ry="2"/><rect class="c" x="546" y="66" rx="2" ry="2"/><rect class="c" x="546" y="82" rx="2" ry="2"/><rect class="c ce" x="546" y="98" rx="2" ry="2"/><rect class="c cf" x="562" y="2" rx="2" ry="2"/><rect class="c" x="562" y="18" rx="2" ry="2"/><rect class="c" x="562" y="34" rx="2" ry="2"/><rect class="c" x="562" y="50" rx="2" ry="2"/><rect class="c" x="562" y="66" rx="2" ry="2"/><rect class="c cg" x="562" y="82" rx="2" ry="2"/><rect class="c ch" x="562" y="98" rx="2" ry="2"/><rect class="c" x="578" y="2" rx="2" ry="2"/><rect class="c" x="578" y="18" rx="2" ry="2"/><rect class="c ci" x="578" y="34" rx="2" ry="2"/><rect class="c cj" x="578" y="50" rx="2" ry="2"/><rect class="c ck" x="578" y="66" rx="2" ry="2"/><rect class="c cl" x="578" y="82" rx="2" ry="2"/><rect class="c cm" x="578" y="98" rx="2" ry="2"/><rect class="c cn" x="594" y="2" rx="2" ry="2"/><rect class="c co" x="594" y="18" rx="2" ry="2"/><rect class="c cp" x="594" y="34" rx="2" ry="2"/><rect class="c cq" x="594" y="50" rx="2" ry="2"/><rect class="c" x="594" y="66" rx="2" ry="2"/><rect class="c cr" x="594" y="82" rx="2" ry="2"/><rect class="c cs" x="594" y="98" rx="2" ry="2"/><rect class="c" x="610" y="2" rx="2" ry="2"/><rect class="c" x="610" y="18" rx="2" ry="2"/><rect class="c" x="610" y="34" rx="2" ry="2"/><rect class="c ct" x="610" y="50" rx="2" ry="2"/><rect class="c cu" x="610" y="66" rx="2" ry="2"/><rect class="c" x="610" y="82" rx="2" ry="2"/><rect class="c" x="610" y="98" rx="2" ry="2"/><rect class="c" x="626" y="2" rx="2" ry="2"/><rect class="c" x="626" y="18" rx="2" ry="2"/><rect class="c cv" x="626" y="34" rx="2" ry="2"/><rect class="c cw" x="626" y="50" rx="2" ry="2"/><rect class="c cx" x="626" y="66" rx="2" ry="2"/><rect class="c" x="626" y="82" rx="2" ry="2"/><rect class="c" x="626" y="98" rx="2" ry="2"/><rect class="c" x="642" y="2" rx="2" ry="2"/><rect class="c" x="642" y="18" rx="2" ry="2"/><rect class="c" x="642" y="34" rx="2" ry="2"/><rect class="c" x="642" y="50" rx="2" ry="2"/><rect class="c" x="642" y="66" rx="2" ry="2"/><rect class="c" x="642" y="82" rx="2" ry="2"/><rect class="c" x="642" y="98" rx="2" ry="2"/><rect class="c cy" x="658" y="2" rx="2" ry="2"/><rect class="c" x="658" y="18" rx="2" ry="2"/><rect class="c" x="658" y="34" rx="2" ry="2"/><rect class="c cz" x="658" y="50" rx="2" ry="2"/><rect class="c c10" x="658" y="66" rx="2" ry="2"/><rect class="c c11" x="658" y="82" rx="2" ry="2"/><rect class="c" x="658" y="98" rx="2" ry="2"/><rect class="c" x="674" y="2" rx="2" ry="2"/><rect class="c" x="674" y="18" rx="2" ry="2"/><rect class="c" x="674" y="34" rx="2" ry="2"/><rect class="c c12" x="674" y="50" rx="2" ry="2"/><rect class="c" x="674" y="66" rx="2" ry="2"/><rect class="c c13" x="674" y="82" rx="2" ry="2"/><rect class="c" x="674" y="98" rx="2" ry="2"/><rect class="c" x="690" y="2" rx="2" ry="2"/><rect class="c" x="690" y="18" rx="2" ry="2"/><rect class="c c14" x="690" y="34" rx="2" ry="2"/><rect class="c" x="690" y="50" rx="2" ry="2"/><rect class="c c15" x="690" y="66" rx="2" ry="2"/><rect class="c c16" x="690" y="82" rx="2" ry="2"/><rect class="c c17" x="690" y="98" rx="2" ry="2"/><rect class="c c18" x="706" y="2" rx="2" ry="2"/><rect class="c c19" x="706" y="18" rx="2" ry="2"/><rect class="c" x="706" y="34" rx="2" ry="2"/><rect class="c c1a" x="706" y="50" rx="2" ry="2"/><rect class="c c1b" x="706" y="66" rx="2" ry="2"/><rect class="c c1c" x="706" y="82" rx="2" ry="2"/><rect class="c c1d" x="706" y="98" rx="2" ry="2"/><rect class="c c1e" x="722" y="2" rx="2" ry="2"/><rect class="c c1f" x="722" y="18" rx="2" ry="2"/><rect class="c" x="722" y="34" rx="2" ry="2"/><rect class="c c1g" x="722" y="50" rx="2" ry="2"/><rect class="c c1h" x="722" y="66" rx="2" ry="2"/><rect class="c c1i" x="722" y="82" rx="2" ry="2"/><rect class="c c1j" x="722" y="98" rx="2" ry="2"/><rect class="c" x="738" y="2" rx="2" ry="2"/><rect class="c c1k" x="738" y="18" rx="2" ry="2"/><rect class="c" x="738" y="34" rx="2" ry="2"/><rect class="c" x="738" y="50" rx="2" ry="2"/><rect class="c" x="738" y="66" rx="2" ry="2"/><rect class="c c1l" x="738" y="82" rx="2" ry="2"/><rect class="c" x="738" y="98" rx="2" ry="2"/><rect class="c" x="754" y="2" rx="2" ry="2"/><rect class="c c1m" x="754" y="18" rx="2" ry="2"/><rect class="c" x="754" y="34" rx="2" ry="2"/><rect class="c" x="754" y="50" rx="2" ry="2"/><rect class="c" x="754" y="66" rx="2" ry="2"/><rect class="c c1n" x="754" y="82" rx="2" ry="2"/><rect class="c c1o" x="754" y="98" rx="2" ry="2"/><rect class="c c1p" x="770" y="2" rx="2" ry="2"/><rect class="c c1q" x="770" y="18" rx="2" ry="2"/><rect class="c c1r" x="770" y="34" rx="2" ry="2"/><rect class="c" x="770" y="50" rx="2" ry="2"/><rect class="c c1s" x="770" y="66" rx="2" ry="2"/><rect class="c c1t" x="770" y="82" rx="2" ry="2"/><rect class="c c1u" x="770" y="98" rx="2" ry="2"/><rect class="c c1v" x="786" y="2" rx="2" ry="2"/><rect class="c c1w" x="786" y="18" rx="2" ry="2"/><rect class="c c1x" x="786" y="34" rx="2" ry="2"/><rect class="c c1y" x="786" y="50" rx="2" ry="2"/><rect class="c c1z" x="786" y="66" rx="2" ry="2"/><rect class="c" x="786" y="82" rx="2" ry="2"/><rect class="c c20" x="786" y="98" rx="2" ry="2"/><rect class="c c21" x="802" y="2" rx="2" ry="2"/><rect class="c c22" x="802" y="18" rx="2" ry="2"/><rect class="c c23" x="802" y="34" rx="2" ry="2"/><rect class="c c24" x="802" y="50" rx="2" ry="2"/><rect class="c c25" x="802" y="66" rx="2" ry="2"/><rect class="c" x="802" y="82" rx="2" ry="2"/><rect class="c c26" x="802" y="98" rx="2" ry="2"/><rect class="c c27" x="818" y="2" rx="2" ry="2"/><rect class="c c28" x="818" y="18" rx="2" ry="2"/><rect class="c c29" x="818" y="34" rx="2" ry="2"/><rect class="c c2a" x="818" y="50" rx="2" ry="2"/><rect class="c c2b" x="818" y="66" rx="2" ry="2"/><rect class="c c2c" x="818" y="82" rx="2" ry="2"/><rect class="c c2d" x="818" y="98" rx="2" ry="2"/><rect class="c c2e" x="834" y="2" rx="2" ry="2"/><rect class="c c2f" x="834" y="18" rx="2" ry="2"/><rect class="c c2g" x="834" y="34" rx="2" ry="2"/><rect class="c c2h" x="834" y="50" rx="2" ry="2"/><rect class="c" x="834" y="66" rx="2" ry="2"/><rect class="u u0" height="12" width="782.6" x="0.0" y="144"/><rect class="u u1" height="12" width="57.1" x="782.0" y="144"/><rect class="u u2" height="12" width="10.0" x="838.6" y="144"/><rect class="s s0" x="0.8" y="0.8" width="14.4" height="14.4" rx="4.5" ry="4.5"/><rect class="s s1" x="1.8" y="1.8" width="12.3" height="12.3" rx="4.1" ry="4.1"/><rect class="s s2" x="2.6" y="2.6" width="10.8" height="10.8" rx="3.6" ry="3.6"/><rect class="s s3" x="3.0" y="3.0" width="9.9" height="9.9" rx="3.3" ry="3.3"/></svg>